<svg xmlns="http://www.w3.org/2000/svg" width="24" height="24" viewBox="0 0 24 24">
  <path fill="#202124" fill-rule="evenodd" d="M291.444826,44.512113 C290.691178,44.512113 289.89753,44.5509971 289.1033,44.6508775 L289.057551,44.6566351 L289.040051,44.6138292 C288.968553,44.4395183 288.895638,44.2642895 288.82064,44.0883097 C288.609312,43.5920785 288.382234,43.0989347 288.145323,42.6140517 L288.11699,42.5559759 L288.176739,42.5315273 C291.934564,40.9973577 293.635356,38.8150085 293.845684,38.5304703 L293.891767,38.4682224 L293.940849,38.528134 C295.369564,40.2736628 296.234876,42.4973994 296.257376,44.9186438 L296.258126,44.9938253 L296.184711,44.978305 C295.929967,44.9244013 293.899266,44.5120296 291.444826,44.512113 L291.444826,44.512113 Z M296.128879,46.6439796 C295.671557,49.4986232 294.033263,51.9636748 291.731902,53.5197897 L291.654238,53.5722749 L291.638738,53.4797374 C291.534657,52.8618474 290.992337,49.8796206 289.660286,46.2190916 L289.635287,46.1503352 L289.707452,46.1388201 C290.447684,46.0203321 291.166833,45.9739382 291.83965,45.9739382 C294.085762,45.9740216 295.81522,46.4909465 296.087463,46.5768086 L296.137129,46.5924958 L296.128879,46.6439796 Z M290.007278,54.4589325 C288.775558,54.9836175 287.421007,55.2742469 286.000042,55.2742469 C283.628599,55.2742469 281.442319,54.4649403 279.703111,53.1086697 L279.664446,53.0784635 L279.686028,53.0344895 C279.873357,52.6510722 281.948557,48.6468445 287.721,46.6353016 C287.744249,46.6272077 287.766832,46.6199483 287.788582,46.6124385 L287.843497,46.5937474 L287.86433,46.6479014 C289.298128,50.3739326 289.890947,53.4957584 290.04311,54.3932634 L290.05111,54.4402414 L290.007278,54.4589325 Z M278.433809,51.9362223 L278.378644,51.8748922 C276.740267,50.0564348 275.741291,47.6502934 275.741374,45.0155203 C275.741374,44.9104664 275.743458,44.8060802 275.746541,44.7021111 L275.748374,44.6423664 L275.808039,44.6436181 C275.858955,44.6446194 275.969119,44.6463717 276.132032,44.6463717 C277.387168,44.6465385 281.772311,44.5412344 286.270785,43.1947264 L286.318867,43.1803744 L286.3417,43.2250994 C286.63411,43.7973465 286.913519,44.3783551 287.170013,44.958863 L287.198179,45.0225294 L287.131181,45.0414708 C286.997017,45.0791867 286.863687,45.1194059 286.731524,45.1621283 C281.496734,46.8527522 278.702552,51.4746196 278.475475,51.8649626 L278.433809,51.9362223 Z M275.958036,42.9144439 C276.623436,39.7307874 278.768467,37.0854171 281.638481,35.7316497 L281.683563,35.7104553 L281.712896,35.7506745 C281.982639,36.1205741 283.806012,38.647373 285.497804,41.6546324 L285.536053,41.7226379 L285.460805,41.742664 C281.055579,42.9123578 277.137257,42.9881234 276.191363,42.9882068 C276.111032,42.9882068 276.0522,42.9877062 276.016284,42.9872055 L275.943036,42.9862042 L275.958036,42.9144439 Z M283.596017,35.0420827 C284.367415,34.8560899 285.172312,34.756877 286.000042,34.756877 C288.606478,34.7567936 290.989004,35.7346536 292.80046,37.3419186 L292.840792,37.3776319 L292.809709,37.4217729 C292.621464,37.6902067 291.076835,39.763163 287.436507,41.1275276 L287.387508,41.1458849 L287.362425,41.0998248 C285.693632,38.033655 283.842594,35.512864 283.561851,35.1369566 L283.507019,35.0635274 L283.596017,35.0420827 Z M286.000042,33 C279.383036,33.0000834 274.000083,38.3829444 274,45 C274.000083,51.6170556 279.383036,56.9999166 286.000042,57 C292.616881,56.9999166 297.999833,51.6170556 298,45 C297.999833,38.3829444 292.616881,33.0000834 286.000042,33 L286.000042,33 Z" transform="translate(-274 -33)"/>
</svg>
