<svg xmlns="http://www.w3.org/2000/svg" width="24" height="24" viewBox="0 0 24 24">
  <path fill="#202124" fill-rule="evenodd" d="M233,35.163 C236.204,35.163 236.584,35.175 237.85,35.233 C241.102,35.381 242.621,36.924 242.769,40.152 C242.827,41.417 242.838,41.797 242.838,45.001 C242.838,48.206 242.826,48.585 242.769,49.85 C242.62,53.075 241.105,54.621 237.85,54.769 C236.584,54.827 236.206,54.839 233,54.839 C229.796,54.839 229.416,54.827 228.151,54.769 C224.891,54.62 223.38,53.07 223.232,49.849 C223.174,48.584 223.162,48.205 223.162,45 C223.162,41.796 223.175,41.417 223.232,40.151 C223.381,36.924 224.896,35.38 228.151,35.232 C229.417,35.175 229.796,35.163 233,35.163 L233,35.163 Z M233,33 C229.741,33 229.333,33.014 228.053,33.072 C223.695,33.272 221.273,35.69 221.073,40.052 C221.014,41.333 221,41.741 221,45 C221,48.259 221.014,48.668 221.072,49.948 C221.272,54.306 223.69,56.728 228.052,56.928 C229.333,56.986 229.741,57 233,57 C236.259,57 236.668,56.986 237.948,56.928 C242.302,56.728 244.73,54.31 244.927,49.948 C244.986,48.668 245,48.259 245,45 C245,41.741 244.986,41.333 244.928,40.053 C244.732,35.699 242.311,33.273 237.949,33.073 C236.668,33.014 236.259,33 233,33 L233,33 Z M233,38.838 C229.597,38.838 226.838,41.597 226.838,45 C226.838,48.403 229.597,51.163 233,51.163 C236.403,51.163 239.162,48.404 239.162,45 C239.162,41.597 236.403,38.838 233,38.838 L233,38.838 Z M233,49 C230.791,49 229,47.21 229,45 C229,42.791 230.791,41 233,41 C235.209,41 237,42.791 237,45 C237,47.21 235.209,49 233,49 L233,49 Z M239.406,37.155 C238.61,37.155 237.965,37.8 237.965,38.595 C237.965,39.39 238.61,40.035 239.406,40.035 C240.201,40.035 240.845,39.39 240.845,38.595 C240.845,37.8 240.201,37.155 239.406,37.155 L239.406,37.155 Z" transform="translate(-221 -33)"/>
</svg>
