<svg xmlns="http://www.w3.org/2000/svg" width="26" height="21" viewBox="0 0 26 21">
  <path fill="#202124" fill-rule="evenodd" d="M354.530001,36.4560684 C353.59066,36.8726504 352.581283,37.1542937 351.521665,37.2808278 C352.603134,36.6326558 353.433683,35.6060956 353.824678,34.3830574 C352.812686,34.9833238 351.691809,35.4191427 350.498653,35.6540945 C349.543251,34.6361256 348.182006,34 346.67555,34 C343.782729,34 341.437599,36.3452227 341.437599,39.2376703 C341.437599,39.6482757 341.483917,40.0479553 341.573191,40.4312928 C337.220139,40.2128698 333.36071,38.1276256 330.77736,34.9587641 C330.326507,35.7323495 330.068209,36.6320955 330.068209,37.5919802 C330.068209,39.4091216 330.992888,41.0123224 332.398304,41.9516628 C331.53974,41.9244883 330.732069,41.6887894 330.025907,41.2964871 C330.025533,41.3183387 330.02544,41.3402837 330.02544,41.3623222 C330.02544,43.9001008 331.830908,46.0170952 334.227025,46.4982983 C333.78747,46.617922 333.324757,46.6818894 332.847103,46.6818894 C332.509523,46.6818894 332.181468,46.6491119 331.861631,46.587946 C332.5282,48.6688946 334.462537,50.1831947 336.754438,50.2255906 C334.961856,51.6303523 332.70348,52.467625 330.249466,52.467625 C329.82672,52.467625 329.409765,52.4428785 329,52.394506 C331.318048,53.8806044 334.071168,54.7476663 337.029077,54.7476663 C346.663317,54.7476663 351.931616,46.7665879 351.931616,39.8450338 C351.931616,39.6179262 351.92648,39.3920325 351.916488,39.1674462 C352.93978,38.4289728 353.82776,37.5064413 354.530001,36.4560684" transform="translate(-329 -34)"/>
</svg>
