<svg xmlns="http://www.w3.org/2000/svg" xmlns:xlink="http://www.w3.org/1999/xlink" width="140" height="85" viewBox="0 0 140 85">
  <defs>
    <polygon id="logo-a" points="43.166 .006 .051 .006 .051 44.712 43.166 44.712 43.166 .006"/>
    <polygon id="logo-c" points="8.034 10.809 8.034 .151 .007 .151 .007 10.809 8.034 10.809"/>
  </defs>
  <g fill="none" fill-rule="evenodd">
    <g transform="translate(55.944 .205)">
      <mask id="logo-b" fill="#fff">
        <use xlink:href="#logo-a"/>
      </mask>
      <path fill="#52CDE6" d="M43.1656544,19.5467438 C43.1656544,8.75491542 33.5141278,0.00625870647 21.6082437,0.00625870647 C9.70256993,0.00625870647 0.0510432444,8.75491542 0.0510432444,19.5467438 C0.0510432444,30.3385721 9.70256993,39.0872289 21.6082437,39.0872289 C21.6490446,39.0872289 21.6892146,39.0859602 21.7298053,39.0857488 C23.0735024,41.1993308 26.4881629,44.2925274 30.3648837,44.7101269 C30.3762406,44.7113955 30.3873873,44.7120299 30.3985339,44.7120299 C30.4984332,44.7120299 30.5930745,44.6642438 30.6530141,44.5824154 C30.7194733,44.4912836 30.7327231,44.3711841 30.6875056,44.2675771 C30.0687613,42.8454129 29.3297174,40.2615821 29.4893459,37.7399154 C37.4968468,34.8877637 43.1656544,27.8173284 43.1656544,19.5467438" mask="url(#logo-b)"/>
    </g>
    <path fill="#FFF" d="M84.4291857 20.9662438C83.1435353 24.3780846 81.0929723 26.1083209 80.1890421 25.8474005 80.0306755 25.801306 79.8630551 25.6000124 79.7288747 25.2951119 79.206875 24.1087065 79.2689177 21.6263682 80.3974634 19.1774378 81.8991064 15.9148756 84.0891077 14.4614179 84.7093241 14.4614179 84.7335102 14.4614179 84.7555932 14.4635323 84.7745215 14.4679726L84.7747318 14.4679726C85.2283794 14.653408 85.8273541 17.2503483 84.4291857 20.9662438M87.9124086 14.2757711C87.432682 13.2756468 86.6755511 12.576194 85.7156773 12.2435945 84.7234152 11.5249005 83.2951718 11.5020647 81.9348598 12.1987687 79.1137058 13.6727363 75.5623411 18.7934577 76.1871844 23.7843532 76.4944534 26.2387811 77.825742 27.9157338 79.8384484 28.3851368 80.2121766 28.4728856 80.5825398 28.5160199 80.9489071 28.5160199 83.6461861 28.5160199 86.0999213 26.170908 87.6610832 22.0101368 88.4630111 19.8724502 89.0098279 16.5642164 87.9124086 14.2757711M76.7406261 11.6416592C76.4808881 11.1401169 76.0852872 11.0310124 75.8726596 11.0105025 75.6554051 10.9897811 75.235618 11.025092 74.862731 11.4972438 74.856001 11.5059129 74.8492709 11.5147935 74.8427512 11.5238856 73.7903392 12.9697313 72.0983618 15.5131766 70.6690669 17.849408 70.619643 17.58151 70.569378 17.3119204 70.5197438 17.0446567 70.3544369 16.156597 70.1983838 15.3178035 70.1083693 14.7593831 69.9247651 13.6053284 69.5506162 12.2220697 68.2767434 11.7554154 67.8962851 11.6095199 67.5082555 11.6465224 67.2096094 11.8577537 67.0276877 11.9863109 66.7250456 12.2935373 66.7422914 12.8972065 66.7765726 14.9623682 67.5450605 18.8023806 68.1063889 21.6063234L68.1911456 22.0304776C67.864107 22.579806 67.0304218 24.2138358 66.8499722 24.632704 66.6693124 25.0517836 66.4331296 25.9734627 66.5721472 26.6997687 66.7109546 27.4260746 66.8129569 27.6153159 66.9332566 27.858898 67.0514532 28.0980398 67.3065642 28.4733507 67.7703069 28.4733507 68.2285815 28.4733507 68.5308029 28.1451915 68.753105 27.7193458 69.0073748 27.2319701 71.1601504 23.1669826 71.3248264 22.8593333 72.808803 20.3328035 73.9836179 18.6006642 75.0217285 17.0700299 75.3660128 16.5623557 75.6892657 16.0857637 75.9980068 15.6174179 77.2910182 13.6330274 77.1149853 12.3588731 76.7406261 11.6416592"/>
    <polygon fill="#000" points="101.629 14.523 109.368 14.523 109.368 17.294 104.946 17.294 104.946 18.771 108.913 18.771 108.913 21.541 104.946 21.541 104.946 25.18 101.629 25.18"/>
    <path fill="#000" d="M113.51069 20.9172736L115.343158 20.9172736 114.4346 17.5069129 113.51069 20.9172736zM119.825583 25.1803831L116.494207 25.1803831 116.055071 23.5664403 112.798987 23.5664403 112.374994 25.1803831 109.043407 25.1803831 112.738417 14.5228209 116.130574 14.5228209 119.825583 25.1803831zM124.494873 22.6226654C125.660854 22.6226654 126.085058 21.8157998 126.145628 21.0391704L129.280361 21.0391704C129.204648 23.444755 127.538749 25.3934117 124.555443 25.3934117 121.133001 25.3934117 119.497177 23.444755 119.497177 20.5520062L119.497177 19.1511978C119.497177 16.258449 121.133001 14.3097923 124.555443 14.3097923 127.538749 14.3097923 129.204648 16.258449 129.280361 18.6640336L126.145628 18.6640336C126.085058 17.8874042 125.660854 17.0805386 124.494873 17.0805386 123.359176 17.0805386 122.813832 17.8265087 122.813832 18.998959L122.813832 20.704245C122.813832 21.8766953 123.359176 22.6226654 124.494873 22.6226654"/>
    <g transform="translate(130.605 14.372)">
      <mask id="logo-d" fill="#fff">
        <use xlink:href="#logo-c"/>
      </mask>
      <polygon fill="#000" points=".007 .151 8.019 .151 8.019 2.892 3.324 2.892 3.324 4.049 7.564 4.049 7.564 6.789 3.324 6.789 3.324 8.068 8.034 8.068 8.034 10.809 .007 10.809" mask="url(#logo-d)"/>
    </g>
    <path fill="#000" fill-opacity=".08" d="M126.81998,81.9184117 C126.81998,83.6169316 119.753424,84.9936356 111.036323,84.9936356 C102.319433,84.9936356 95.2528772,83.6169316 95.2528772,81.9184117 C95.2528772,80.2198918 102.319433,78.8431878 111.036323,78.8431878 C119.753424,78.8431878 126.81998,80.2198918 126.81998,81.9184117"/>
    <path fill="#FDDA74" d="M90.9131078,56.0446866 C90.9131078,42.7948358 101.596856,32.0537537 114.775982,32.0537537 C127.954898,32.0537537 138.638646,42.7948358 138.638646,56.0446866 C138.638646,69.2945373 127.954898,80.0356194 114.775982,80.0356194 C101.596856,80.0356194 90.9131078,69.2945373 90.9131078,56.0446866"/>
    <path fill="#000" d="M109.11952 68.1002873C109.11952 66.2886455 110.580362 64.8199639 112.382334 64.8199639 114.184306 64.8199639 115.644937 66.2886455 115.644937 68.1002873 115.644937 69.9119291 114.184306 71.3806107 112.382334 71.3806107 110.580362 71.3806107 109.11952 69.9119291 109.11952 68.1002873M103.530295 53.6570746C103.769002 51.9701841 105.018478 50.7537537 106.320954 50.9400348 107.623429 51.1263159 108.485717 52.644898 108.246801 54.332 108.008094 56.0188905 106.758618 57.2353209 105.456142 57.0490398 104.153667 56.8625473 103.291589 55.3439652 103.530295 53.6570746M127.279243 53.6570746C127.040536 51.9701841 125.79106 50.7537537 124.488584 50.9400348 123.186109 51.1263159 122.323821 52.644898 122.562738 54.332 122.801444 56.0188905 124.05092 57.2353209 125.353396 57.0490398 126.655872 56.8625473 127.517949 55.3439652 127.279243 53.6570746"/>
    <polygon fill="#000" points="118.589 52.299 131.291 52.299 131.291 48.488 118.589 48.488"/>
    <polygon fill="#000" points="111.474 52.981 99.115 50.034 99.99 46.326 112.348 49.273"/>
    <path fill="#231F20" d="M0 21.6938818L0 21.49576 3.16501765 21.49576 3.16501765 21.7547774C3.16501765 22.3180609 3.48322296 22.698658 4.0737851 22.698658 4.72491771 22.698658 4.99748485 22.2876132 4.99748485 21.7852251L4.99748485 17.2785336 1.02969808 17.2785336 1.02969808 14.5227998 8.31392869 14.5227998 8.31392869 21.7091057C8.31392869 23.9472276 6.66338324 25.3934963 4.0887174 25.3934963 1.48418696 25.3934963 0 23.9776754 0 21.6938818M9.64610058 21.1152898L9.64610058 14.5227152 12.9627547 14.5227152 12.9627547 21.1152898C12.9627547 22.1961853 13.5836021 22.5920062 14.4164461 22.5920062 15.2495005 22.5920062 15.8703479 22.1961853 15.8703479 21.1152898L15.8703479 14.5227152 19.1867917 14.5227152 19.1867917 21.1152898C19.1867917 23.7644565 17.3846098 25.3934117 14.4164461 25.3934117 11.4482825 25.3934117 9.64610058 23.7644565 9.64610058 21.1152898M20.0443056 21.998444L20.0443056 21.6785311 23.194391 21.6785311 23.194391 21.9068893C23.194391 22.5312799 23.7395252 22.8662052 24.4512283 22.8662052 25.178074 22.8662052 25.7232083 22.5921754 25.7232083 22.0288918 25.7232083 21.7242027 25.5566395 21.5110684 25.2689297 21.434949L22.8309681 20.8259938C21.1650697 20.414949 20.1351613 19.6233072 20.1351613 17.7046754 20.1351613 15.527449 21.7859171 14.30975 24.3603726 14.30975 26.7834019 14.30975 28.4038725 15.5733321 28.4038725 17.5830958L28.4038725 17.8571256 25.3448531 17.8571256 25.3448531 17.6135435C25.3448531 17.172051 25.0720757 16.8371256 24.34523 16.8371256 23.7243826 16.8371256 23.3609598 17.05026 23.3609598 17.4917525 23.3609598 17.7810062 23.497033 17.9330336 23.7546678 18.0093644L26.4956922 18.7401107C28.1159524 19.1663794 28.9490067 20.156143 28.9490067 21.7700858 28.9490067 23.8709813 27.1619674 25.3935808 24.4360857 25.3935808 21.8162023 25.3935808 20.0443056 24.1147749 20.0443056 21.998444"/>
    <polygon fill="#231F20" points="31.983 17.339 29.317 17.339 29.317 14.523 37.98 14.523 37.98 17.339 35.299 17.339 35.299 25.18 31.983 25.18"/>
    <polygon fill="#231F20" points="39.312 25.18 42.628 25.18 42.628 14.523 39.312 14.523"/>
    <polygon fill="#231F20" points="43.96 14.523 47.11 14.523 50.23 19.517 50.23 14.523 53.471 14.523 53.471 25.18 50.321 25.18 47.201 20.186 47.201 25.18 43.96 25.18"/>
  </g>
</svg>
