<svg xmlns="http://www.w3.org/2000/svg" width="31" height="32" viewBox="0 0 31 32">
  <g fill="none" fill-rule="evenodd">
    <path fill="#52CDE6" d="M30.858828,13.9656654 C30.858828,6.33523507 23.9917676,0.149442155 15.5207322,0.149442155 C7.0498464,0.149442155 0.18278604,6.33523507 0.18278604,13.9656654 C0.18278604,21.5960957 7.0498464,27.7818886 15.5207322,27.7818886 C15.5497621,27.7818886 15.578343,27.7809916 15.6072232,27.7808421 C16.5632636,29.2752637 18.9927943,31.4623278 21.7510807,31.7575941 C21.7591612,31.7584911 21.7670921,31.7589396 21.7750229,31.7589396 C21.8461012,31.7589396 21.9134385,31.7251522 21.9560855,31.6672949 C22.0033712,31.6028596 22.0127985,31.5179425 21.9806262,31.4446865 C21.5403897,30.4391364 21.01456,28.6122225 21.1281357,26.8292622 C26.8254719,24.8126303 30.858828,19.8134344 30.858828,13.9656654"/>
    <path fill="#FFF" d="M20.4139859 14.8243149C19.4992458 17.2366785 18.0402704 18.460053 17.3971242 18.2755676 17.2844464 18.2429761 17.1651845 18.1006503 17.0697151 17.8850685 16.6983124 17.046213 16.7424557 15.29106 17.5454159 13.5595284 18.6138348 11.2527132 20.1720205 10.2250368 20.6133044 10.2250368 20.6305128 10.2250368 20.6462249 10.2265318 20.6596923 10.2296713L20.659842 10.2296713C20.9826122 10.3607845 21.4087827 12.1969675 20.4139859 14.8243149M22.8922988 10.093774C22.5509733 9.38662979 22.0122747 8.89207732 21.3293246 8.65691074 20.6233302 8.14875359 19.6071351 8.13260738 18.6392733 8.62521633 16.6320225 9.66739446 14.1052268 13.2880328 14.5498028 16.816877 14.7684246 18.5522957 15.7156363 19.7379957 17.1476768 20.06989 17.4135844 20.1319333 17.6770978 20.1624317 17.937768 20.1624317 19.8568818 20.1624317 21.6027142 18.5043056 22.7134807 15.5624061 23.2840523 14.0509413 23.6731124 11.7118337 22.8922988 10.093774M14.9435765 8.23130857C14.758773 7.87668994 14.4773029 7.79954693 14.3260184 7.78504524 14.1714418 7.77039405 13.8727634 7.79536087 13.6074543 8.12919874 13.6026659 8.13532832 13.5978775 8.1416074 13.5932387 8.14803599 12.8444476 9.17033036 11.6406059 10.9686894 10.6236627 12.6205365 10.5884976 12.4311175 10.552734 12.2405025 10.5174193 12.051532 10.3998035 11.4236238 10.2887717 10.8305496 10.2247264 10.4357149 10.094092 9.61973324 9.82788513 8.64169144 8.92152475 8.31174063 8.6508287 8.20858428 8.37474567 8.23474712 8.162259 8.38409957 8.0328217 8.47499676 7.8174919 8.6922231 7.82976226 9.11905119 7.85415333 10.5792368 8.40093241 13.2943418 8.80031756 15.2768872L8.86062188 15.5767882C8.62793401 15.9651942 8.034767 17.1205454 7.90637717 17.4167087 7.7778377 17.7130216 7.60979366 18.3647006 7.70870471 18.8782398 7.80746612 19.3917791 7.88004079 19.5255833 7.96563401 19.6978096 8.04973085 19.8668963 8.23124235 20.1322623 8.56119524 20.1322623 8.88725753 20.1322623 9.10228805 19.9002352 9.26045595 19.5991383 9.44136889 19.2545363 10.9730686 16.3803612 11.0902355 16.1628358 12.1460848 14.376437 12.9819654 13.1517169 13.720581 12.0694723 13.9655393 11.7105181 14.1955336 11.3735407 14.415203 11.0423938 15.3351805 9.63931799 15.209933 8.73841921 14.9435765 8.23130857"/>
  </g>
</svg>
