<svg xmlns="http://www.w3.org/2000/svg" xmlns:xlink="http://www.w3.org/1999/xlink" width="191" height="89" viewBox="0 0 191 89">
  <defs>
    <path id="say-hey-a" d="M15.496,48.04 C11.0239776,48.04 7.52267932,46.904678 4.992,44.634 C2.46132068,42.363322 1.196,39.1826871 1.196,35.092 L9.62,35.092 C9.62,37.0680099 10.1486614,38.6106611 11.206,39.72 C12.2633386,40.8293389 13.7106575,41.384 15.548,41.384 C17.1080078,41.384 18.3126624,41.0373368 19.162,40.344 C20.0113376,39.6506632 20.436,38.6626731 20.436,37.38 C20.436,36.2706611 20.1153365,35.3780034 19.474,34.702 C18.8326635,34.0259966 17.6800083,33.35867 16.016,32.7 L9.464,30.152 C7.0373212,29.2506622 5.20000624,27.9593417 3.952,26.278 C2.70399376,24.5966583 2.08,22.5773451 2.08,20.22 C2.08,18.1053228 2.60866138,16.2420081 3.666,14.63 C4.72333862,13.0179919 6.23132354,11.7700044 8.19,10.886 C10.1486765,10.0019956 12.427987,9.56 15.028,9.56 C17.6626798,9.56 19.9853233,10.0366619 21.996,10.99 C24.0066767,11.9433381 25.5666611,13.286658 26.676,15.02 C27.7853389,16.753342 28.34,18.7813217 28.34,21.104 L19.916,21.104 C19.916,19.4053248 19.482671,18.1053378 18.616,17.204 C17.749329,16.3026622 16.5013415,15.852 14.872,15.852 C13.5199932,15.852 12.4540039,16.1726635 11.674,16.814 C10.8939961,17.4553365 10.504,18.3306611 10.504,19.44 C10.504,20.4453384 10.8853295,21.3033298 11.648,22.014 C12.4106705,22.7246702 13.6933243,23.4439964 15.496,24.172 L21.528,26.564 C24.0240125,27.5346715 25.869994,28.8693248 27.066,30.568 C28.262006,32.2666752 28.86,34.3466544 28.86,36.808 C28.86,39.0613446 28.3053389,41.0373248 27.196,42.736 C26.0866611,44.4346752 24.5266767,45.7433287 22.516,46.662 C20.5053233,47.5806713 18.1653467,48.04 15.496,48.04 Z M43.628,47.676 C41.2013212,47.676 39.0953423,47.1040057 37.31,45.96 C35.5246577,44.8159943 34.1640047,43.2473433 33.228,41.254 C32.2919953,39.2606567 31.824,36.9986793 31.824,34.468 C31.824,31.9719875 32.3093285,29.7186767 33.28,27.708 C34.2506715,25.6973233 35.6459909,24.1200057 37.466,22.976 C39.2860091,21.8319943 41.3746549,21.26 43.732,21.26 C45.5000088,21.26 47.0773264,21.6413295 48.464,22.404 C49.8506736,23.1666705 50.8906632,24.2066601 51.584,25.524 L51.584,21.936 L59.488,21.936 L59.488,47 L51.584,47 L51.584,43.464 C50.8906632,44.7120062 49.8246739,45.7259961 48.386,46.506 C46.9473261,47.2860039 45.361342,47.676 43.628,47.676 Z M45.916,41.072 C47.8226762,41.072 49.2959948,40.4480062 50.336,39.2 C51.3760052,37.9519938 51.896,36.3746762 51.896,34.468 C51.896,32.5959906 51.3760052,31.0360062 50.336,29.788 C49.2959948,28.5399938 47.8226762,27.916 45.916,27.916 C44.1133243,27.916 42.6660055,28.5226606 41.574,29.736 C40.4819945,30.9493394 39.936,32.526657 39.936,34.468 C39.936,36.409343 40.4819945,37.9953272 41.574,39.226 C42.6660055,40.4566728 44.1133243,41.072 45.916,41.072 Z M91,21.936 L91,46.22 C91,48.161343 90.6793365,49.9033256 90.038,51.446 C89.3966635,52.9886744 88.5213389,54.2626616 87.412,55.268 C86.2679943,56.2386715 84.9593407,56.9666642 83.486,57.452 C82.0126593,57.9373358 80.2533436,58.18 78.208,58.18 C74.1519797,58.18 71.0666772,57.313342 68.952,55.58 C68.0159953,54.7826627 67.2706694,53.8120057 66.716,52.668 C66.1613306,51.5239943 65.8666668,50.2933399 65.832,48.976 L73.84,48.976 C73.9093337,50.0853389 74.2906632,50.9259971 74.984,51.498 C75.6773368,52.0700029 76.7519927,52.356 78.208,52.356 C79.733341,52.356 80.9206624,51.8880047 81.77,50.952 C82.6193376,50.0159953 83.044,48.6120094 83.044,46.74 L83.044,42.84 C82.3506632,44.1920068 81.3193402,45.2233298 79.95,45.934 C78.5806598,46.6446702 76.9600094,47 75.088,47 C72.0026512,47 69.6886744,46.0640094 68.146,44.192 C66.6033256,42.3199906 65.832,39.754683 65.832,36.496 L65.832,21.936 L73.788,21.936 L73.788,35.3 C73.788,37.033342 74.1259966,38.3679953 74.802,39.304 C75.4780034,40.2400047 76.6133254,40.708 78.208,40.708 C79.7680078,40.708 80.9639958,40.1446723 81.796,39.018 C82.6280042,37.8913277 83.044,36.3400099 83.044,34.364 L83.044,21.936 L91,21.936 Z"/>
    <polygon id="say-hey-b" points="0 .013 28.67 .013 28.67 31.534 0 31.534"/>
  </defs>
  <g fill="none" fill-rule="evenodd" transform="translate(-1)">
    <g transform="translate(0 11)">
      <use fill="#000" xlink:href="#say-hey-a"/>
      <use fill="#1D2129" xlink:href="#say-hey-a"/>
    </g>
    <g transform="translate(106)">
      <path fill="#52CDE6" fill-rule="nonzero" d="M85.4137917,38.713201 C85.4137917,17.561562 66.2933428,0.414474075 42.7068309,0.414474075 C19.1207357,0.414474075 0.0002867,17.561562 0.0002867,38.713201 C0.0002867,59.8648401 19.1207357,77.011928 42.7068309,77.011928 C42.7876609,77.011928 42.8672409,77.0094415 42.9476542,77.009027 C45.609626,81.1515805 52.3743426,87.2141469 60.0544375,88.0326286 C60.0769365,88.0351151 60.0990189,88.0363584 60.1211014,88.0363584 C60.3190097,88.0363584 60.5065019,87.9426992 60.6252469,87.7823182 C60.756908,87.6037027 60.783157,87.3683115 60.6935774,87.1652452 C59.4677954,84.3778488 58.0036901,79.3136228 58.3199268,74.3712367 C74.1834289,68.7811103 85.4137917,54.9232828 85.4137917,38.713201" transform="matrix(-1 0 0 1 85.414 0)"/>
      <g transform="translate(12.447 20.25)">
        <g transform="translate(0 .336)">
          <mask id="say-hey-c" fill="#fff">
            <use xlink:href="#say-hey-b"/>
          </mask>
          <path fill="#FFF" fill-rule="nonzero" d="M26.6182556,0.023358026 C26.2126182,-0.021963517 25.4244626,0.0407893886 24.6993595,0.978248073 C22.8813473,3.37575769 19.1055567,10.1663193 16.3067286,15.6415103 C14.7493332,15.7865393 13.2336225,16.0654411 11.7606473,16.3359758 C11.5038837,16.3833891 11.2446681,16.4308024 10.983701,16.4778671 C11.4737587,15.5843355 11.9463017,14.7312446 12.3883694,13.9339341 C13.2549903,12.3703408 14.0732709,10.8935558 14.7374233,9.61723141 C16.9183374,5.45287887 16.5438759,3.03375436 15.8411914,1.72884255 C15.3388736,0.811255618 14.6092167,0.627180429 14.2193424,0.599290248 C13.8252646,0.570005559 13.0686353,0.652978845 12.4188448,1.51513404 L12.3953752,1.54685912 C10.538831,4.1612149 6.59455023,11.4757633 3.84651446,17.0806436 C3.78766551,17.0750656 3.72776569,17.0698362 3.66751557,17.0639095 C3.42406307,17.0412488 3.17395504,17.0182394 2.90668273,17.0004594 C2.52766747,16.9788445 1.52303183,16.9199265 0.969921763,17.7545401 C0.612274279,18.2945637 0.619280106,18.9437077 0.990588954,19.6831461 C1.1065354,19.9135887 1.38046324,20.4588417 1.99557488,20.996425 C1.98856906,21.0117646 1.98191352,21.0271042 1.97490769,21.0420951 C1.28378283,22.5743119 0.737678588,23.7843971 0.492474631,24.6388825 C-0.276765208,27.3871111 -0.151010608,29.2003215 0.913875145,30.696281 C1.28063021,31.2300294 1.83233911,31.5343809 2.42047831,31.5343809 C2.47897697,31.5343809 2.53782592,31.5312433 2.59667487,31.5253166 C3.28044361,31.4545453 3.86367874,30.9838985 4.1614264,30.2636346 C5.28305935,27.6841416 6.50977972,25.0520058 7.81251331,22.4278885 C9.31596385,22.3477042 11.2019326,22.0918118 13.1786267,21.8230202 C13.2458827,21.8139559 13.3134889,21.8048916 13.3810952,21.7954786 C13.0157413,22.621028 12.717293,23.3527966 12.5207796,23.9126919 C11.6408476,26.5835253 11.7389292,28.4716905 12.8199284,30.0080908 C13.4220792,30.9068519 14.2221447,30.9277695 14.5391584,30.8946499 C14.8537201,30.8622276 15.6257622,30.6791983 16.0356031,29.6901428 C17.3068105,26.8164083 18.6915123,23.9318664 20.1581822,21.1051967 C20.6699579,21.1128665 21.1351448,21.1536558 21.5246688,21.2261703 C22.4550427,21.4133832 23.0067516,21.0082783 23.2530064,20.75134 C23.6702034,20.3155559 23.8148738,19.6890728 23.6544403,19.0510849 C23.4607292,18.2318108 23.0309217,17.5178222 22.4063522,16.9572296 C23.2890864,15.378994 24.1308366,13.9036035 24.8909689,12.572196 C25.5785908,11.3676888 26.2119176,10.2576597 26.7720335,9.25431044 C28.6618554,5.89563548 29.1407037,3.20493034 28.2057761,1.27911339 C27.7472447,0.289709248 27.0140848,0.0676336871 26.6182556,0.023358026" mask="url(#say-hey-c)"/>
        </g>
        <path fill="#FFF" fill-rule="nonzero" d="M61.3323762 11.8567202C60.8489741 10.932858 60.113012 10.7317 59.7171827 10.6940483 59.3125962 10.6553507 58.5314464 10.7208926 57.8375192 11.5907176 57.8245585 11.6067544 57.8122983 11.6231399 57.8003884 11.6395254 55.841559 14.3037349 52.69279 18.9896338 50.032327 23.2941345 49.9402004 22.8004783 49.8470229 22.3040331 49.7541957 21.8114228 49.4466399 20.1753151 49.1562483 18.6298505 48.9888091 17.6010514 48.647275 15.4747738 47.9505454 12.92596 45.5797735 12.0662452 44.8718346 11.7974535 44.1495338 11.8654359 43.5932711 12.2552011 43.25524 12.491919 42.6916212 13.0577411 42.723848 14.169862 42.787601 17.9747798 44.2181909 25.0498213 45.2627598 30.2161286L45.4203909 30.9974023C44.8115845 32.0094672 43.260144 35.0202121 42.9242146 35.7920729 42.5879349 36.5639336 42.1483193 38.2624456 42.4071846 39.600477 42.6656996 40.9385084 42.8555575 41.2874843 43.0793937 41.7361676 43.2993767 42.1768324 43.7743718 42.8685089 44.6371394 42.8685089 45.4900989 42.8685089 46.0526668 42.2636406 46.4663609 41.4788806 46.9396046 40.5811655 50.9462372 33.0916062 51.2530924 32.5247383 54.0144393 27.8698672 56.2013083 24.6781847 58.1331652 21.8577902 58.7741984 20.9227719 59.3756486 20.0445798 59.9504768 19.1817274 62.3569785 15.5256734 62.0291057 13.1783661 61.3323762 11.8567202M32.7534687 17.7381895C33.5636927 16.757501 34.9448915 15.2468992 35.6871589 15.9005753 36.2563824 16.4019012 35.7309454 18.3033143 34.5924984 19.5395465 33.7647599 20.4386562 32.7086314 21.1303327 30.981695 20.8786238 31.220944 19.8662103 31.9432448 18.7708234 32.7534687 17.7381895M42.199776 22.1905082C41.9020283 21.5413642 41.3331552 21.1275437 40.6735565 21.0811762 40.0045 21.0355061 39.3701224 21.375069 38.9953106 21.9715702 37.8645701 23.6990183 34.9077606 27.6545431 31.5547717 27.6545431 31.4896175 27.6545431 31.4237627 27.6528 31.3586085 27.650011 30.9536717 27.6259557 30.6625796 27.4624495 30.4425966 27.1354371 30.1003619 26.6260927 29.8989444 25.6384317 30.1406454 24.2153353 33.0645275 25.5861376 36.1456903 24.685982 38.6614829 21.6198054 40.8098199 19.0232296 41.4550566 15.6119119 40.1418142 13.8698215 39.3536587 12.7911688 38.4422005 11.9879316 37.0774654 11.1731897 36.0276421 10.5672755 34.7122981 10.4717517 33.2733011 10.8981228 30.3368086 11.7679478 27.406271 14.6120489 25.4344809 18.5062154 23.5765355 22.1765631 23.4577868 25.9410402 25.117117 28.5756163 26.3991834 30.6115995 28.5857021 31.7268581 31.2818947 31.7265094 31.3330373 31.7265094 31.3852307 31.7261608 31.4367235 31.7254635 35.2058586 31.6766557 39.0867366 29.5559561 41.3215956 26.325576 42.2880494 24.9362964 42.6604092 23.1701507 42.199776 22.1905082"/>
      </g>
    </g>
  </g>
</svg>
