<?xml version="1.0" standalone="no"?>
<!DOCTYPE svg PUBLIC "-//W3C//DTD SVG 1.1//EN" "http://www.w3.org/Graphics/SVG/1.1/DTD/svg11.dtd" >
<svg>
<metadata>
Created by FontForge 20090622 at Sun Apr 29 22:11:08 2018
 By deploy user
Copyright &#194;&#169; 2015 by Noel Leu. All rights reserved.
</metadata>
<defs>
<font id="GTWalsheim-RegularOblique" horiz-adv-x="640" >
  <font-face 
    font-family="GT Walsheim"
    font-weight="400"
    font-style="oblique"
    font-stretch="normal"
    units-per-em="1000"
    panose-1="0 0 5 0 0 0 0 0 0 0"
    ascent="700"
    descent="-300"
    x-height="461"
    cap-height="700"
    bbox="-453 -227 1156 899"
    underline-thickness="50"
    underline-position="-50"
    slope="-6"
    unicode-range="U+000D-U+FB02"
  />
<missing-glyph horiz-adv-x="800" 
d="M223 27.5q-74 44.5 -113 119t-39 162.5q0 13 2 41q10 96 63.5 180.5t141.5 135.5t197 51q101 0 175.5 -44.5t113.5 -119t39 -162.5q0 -13 -2 -41q-10 -96 -64 -180.5t-142 -135.5t-197 -51q-101 0 -175 44.5zM575.5 52q82.5 46 136.5 125t64 173q2 24 2 35q0 83 -39 154
t-108.5 113.5t-157.5 42.5q-95 0 -178 -48t-136 -127.5t-62 -169.5q-2 -26 -2 -37q0 -86 39.5 -156t109.5 -110.5t157 -40.5q92 0 174.5 46zM264.5 468q-10.5 11 -10.5 27q0 20 13.5 34t32.5 14q17 0 28 -11t11 -28q0 -19 -14.5 -33t-33.5 -14q-16 0 -26.5 11zM561.5 468
q-10.5 11 -10.5 27q0 20 13.5 34t32.5 14q17 0 28 -11t11 -28q0 -19 -14.5 -33t-33.5 -14q-16 0 -26.5 11zM453 527l-135 -243h178l-3 -25h-247zM162.5 236q7.5 15 22.5 23l25 13q11 6 14.5 17.5t6.5 39.5h17q-4 -35 -10.5 -48.5t-17.5 -20.5l-23 -13q-24 -13 -27 -40h-16
q1 14 8.5 29zM617 161q5 17 5 23q0 11 -14 18l-39 20q-33 17 -33 50q0 20 13 48l14 -5q-11 -24 -11 -41q0 -27 29 -41l38 -19q20 -10 20 -29q0 -10 -6 -28zM278.5 104.5q-44.5 38.5 -86.5 123.5l42.5 -27.5t70 -33.5t68.5 -10q57 0 118.5 8t104.5 29l4 2q-18 -32 -57 -62.5
t-85.5 -49t-84.5 -18.5q-50 0 -94.5 38.5zM472.5 117q52.5 25 76.5 43l-36 -8q-47 -10 -76 -15t-65 -5q-30 0 -69 11.5t-60 30.5q22 -42 63 -62t70 -20q44 0 96.5 25z" />
    <glyph glyph-name="fi" unicode="fi" horiz-adv-x="587" 
d="M235.5 671q49.5 35 104.5 35q43 0 69 -11l-8 -74q-25 7 -47 7q-36 0 -61 -16.5t-30 -68.5l-9 -82h130l-7 -73h-130l-41 -388h-87l41 388h-98l7 73h98l9 80q10 95 59.5 130zM586 663q17 -18 17 -45q0 -33 -22 -55.5t-55 -22.5q-29 0 -46.5 17.5t-17.5 44.5q0 33 23 56
t56 23q28 0 45 -18zM474 461h86l-48 -461h-86z" />
    <glyph glyph-name="fl" unicode="fl" horiz-adv-x="588" 
d="M235.5 671q49.5 35 104.5 35q43 0 69 -11l-8 -74q-25 7 -47 7q-36 0 -61 -16.5t-30 -68.5l-9 -82h130l-7 -73h-130l-41 -388h-87l41 388h-98l7 73h98l9 80q10 95 59.5 130zM587 700l-74 -700h-87l74 700h87z" />
    <glyph glyph-name="f_f" unicode="ff" horiz-adv-x="724" 
d="M235.5 671q49.5 35 104.5 35q43 0 69 -11l-8 -74q-25 7 -47 7q-36 0 -61 -16.5t-30 -68.5l-9 -82h130l-7 -73h-130l-41 -388h-87l41 388h-98l7 73h98l9 80q10 95 59.5 130zM666 611.5q-25 -16.5 -30 -68.5l-9 -82h130l-7 -73h-130l-41 -388h-87l41 388h-98l7 73h98l9 80
q10 95 59.5 130t104.5 35q43 0 69 -11l-8 -74q-25 7 -47 7q-36 0 -61 -16.5z" />
    <glyph glyph-name="f_f_i" unicode="ffi" horiz-adv-x="960" 
d="M235.5 671q49.5 35 104.5 35q43 0 69 -11l-8 -74q-25 7 -47 7q-36 0 -61 -16.5t-30 -68.5l-9 -82h130l-7 -73h-130l-41 -388h-87l41 388h-98l7 73h98l9 80q10 95 59.5 130zM608.5 671q49.5 35 104.5 35q43 0 69 -11l-8 -74q-25 7 -47 7q-36 0 -61 -16.5t-30 -68.5l-9 -82
h130l-7 -73h-130l-41 -388h-87l41 388h-98l7 73h98l9 80q10 95 59.5 130zM959 663q17 -18 17 -45q0 -33 -22 -55.5t-55 -22.5q-29 0 -46.5 17.5t-17.5 44.5q0 33 23 56t56 23q28 0 45 -18zM847 461h86l-48 -461h-86z" />
    <glyph glyph-name="f_f_l" unicode="ffl" horiz-adv-x="961" 
d="M235.5 671q49.5 35 104.5 35q43 0 69 -11l-8 -74q-25 7 -47 7q-36 0 -61 -16.5t-30 -68.5l-9 -82h130l-7 -73h-130l-41 -388h-87l41 388h-98l7 73h98l9 80q10 95 59.5 130zM608.5 671q49.5 35 104.5 35q43 0 69 -11l-8 -74q-25 7 -47 7q-36 0 -61 -16.5t-30 -68.5l-9 -82
h130l-7 -73h-130l-41 -388h-87l41 388h-98l7 73h98l9 80q10 95 59.5 130zM960 700l-74 -700h-87l74 700h87z" />
    <glyph glyph-name=".notdef" horiz-adv-x="800" 
d="M223 27.5q-74 44.5 -113 119t-39 162.5q0 13 2 41q10 96 63.5 180.5t141.5 135.5t197 51q101 0 175.5 -44.5t113.5 -119t39 -162.5q0 -13 -2 -41q-10 -96 -64 -180.5t-142 -135.5t-197 -51q-101 0 -175 44.5zM575.5 52q82.5 46 136.5 125t64 173q2 24 2 35q0 83 -39 154
t-108.5 113.5t-157.5 42.5q-95 0 -178 -48t-136 -127.5t-62 -169.5q-2 -26 -2 -37q0 -86 39.5 -156t109.5 -110.5t157 -40.5q92 0 174.5 46zM264.5 468q-10.5 11 -10.5 27q0 20 13.5 34t32.5 14q17 0 28 -11t11 -28q0 -19 -14.5 -33t-33.5 -14q-16 0 -26.5 11zM561.5 468
q-10.5 11 -10.5 27q0 20 13.5 34t32.5 14q17 0 28 -11t11 -28q0 -19 -14.5 -33t-33.5 -14q-16 0 -26.5 11zM453 527l-135 -243h178l-3 -25h-247zM162.5 236q7.5 15 22.5 23l25 13q11 6 14.5 17.5t6.5 39.5h17q-4 -35 -10.5 -48.5t-17.5 -20.5l-23 -13q-24 -13 -27 -40h-16
q1 14 8.5 29zM617 161q5 17 5 23q0 11 -14 18l-39 20q-33 17 -33 50q0 20 13 48l14 -5q-11 -24 -11 -41q0 -27 29 -41l38 -19q20 -10 20 -29q0 -10 -6 -28zM278.5 104.5q-44.5 38.5 -86.5 123.5l42.5 -27.5t70 -33.5t68.5 -10q57 0 118.5 8t104.5 29l4 2q-18 -32 -57 -62.5
t-85.5 -49t-84.5 -18.5q-50 0 -94.5 38.5zM472.5 117q52.5 25 76.5 43l-36 -8q-47 -10 -76 -15t-65 -5q-30 0 -69 11.5t-60 30.5q22 -42 63 -62t70 -20q44 0 96.5 25z" />
    <glyph glyph-name=".null" horiz-adv-x="0" 
 />
    <glyph glyph-name="nonmarkingreturn" unicode="&#xd;" horiz-adv-x="250" 
 />
    <glyph glyph-name="space" unicode=" " horiz-adv-x="253" 
 />
    <glyph glyph-name="A" unicode="A" horiz-adv-x="590" 
d="M451 107h-291l-44 -107h-98l311 700h80l163 -700h-98zM435 189l-81 385l-159 -385h240z" />
    <glyph glyph-name="B" unicode="B" horiz-adv-x="582" 
d="M523 313q35 -38 35 -100q0 -15 -1 -22q-9 -89 -72.5 -140t-164.5 -51h-240l74 700h230q94 0 147 -42.5t53 -117.5q0 -14 -1 -21q-7 -69 -46.5 -109t-102.5 -53q54 -6 89 -44zM236 619l-23 -224h142q61 0 98.5 34.5t37.5 93.5q0 46 -31 71t-88 25h-136zM423.5 112.5
q37.5 31.5 43.5 87.5l1 14q0 46 -30 73.5t-79 27.5h-155l-24 -234h147q59 0 96.5 31.5z" />
    <glyph glyph-name="C" unicode="C" horiz-adv-x="771" 
d="M222.5 24.5q-73.5 40.5 -112 112.5t-38.5 165q0 24 3 48q11 105 63 188t139 130.5t198 47.5q92 0 160 -31.5t105.5 -87.5t43.5 -127h-100q-12 76 -67 120t-149 44q-83 0 -147.5 -36t-103 -100.5t-47.5 -147.5q-2 -14 -2 -42q0 -110 63 -176t177 -66q94 0 158.5 44
t92.5 120h100q-21 -71 -70.5 -127t-124 -87.5t-166.5 -31.5q-102 0 -175.5 40.5z" />
    <glyph glyph-name="D" unicode="D" horiz-adv-x="691" 
d="M154 700h223q103 0 175.5 -42t109 -112t36.5 -155q0 -13 -2 -41q-10 -93 -60 -173t-136 -128.5t-197 -48.5h-223zM305 82q87 0 151.5 37.5t101 98.5t44.5 132q2 22 2 33q0 64 -26.5 117.5t-81.5 85.5t-135 32h-125l-56 -536h125z" />
    <glyph glyph-name="E" unicode="E" horiz-adv-x="545" 
d="M154 700h398l-9 -82h-307l-24 -229h307l-9 -82h-307l-23 -225h307l-9 -82h-398z" />
    <glyph glyph-name="F" unicode="F" horiz-adv-x="532" 
d="M154 700h398l-9 -82h-307l-27 -253h307l-8 -82h-307l-30 -283h-91z" />
    <glyph glyph-name="G" unicode="G" horiz-adv-x="828" 
d="M834 258h-77q-36 -127 -130 -200.5t-232 -73.5q-101 0 -174 40.5t-111.5 112t-38.5 162.5q0 23 3 47q11 102 62 186t138.5 134t201.5 50q80 0 142.5 -28t98.5 -77.5t39 -110.5h-100q-9 60 -59 97t-129 37q-87 0 -151.5 -38t-102 -103.5t-45.5 -146.5q-2 -26 -2 -38
q0 -70 28 -124.5t81.5 -86t127.5 -31.5q98 0 163.5 49.5t94.5 142.5h-170l9 82h342z" />
    <glyph glyph-name="H" unicode="H" horiz-adv-x="668" 
d="M154 700h91l-33 -311h326l33 311h91l-74 -700h-91l32 307h-326l-32 -307h-91z" />
    <glyph glyph-name="I" unicode="I" horiz-adv-x="251" 
d="M154 700h91l-74 -700h-91z" />
    <glyph glyph-name="J" unicode="J" horiz-adv-x="536" 
d="M98 38.5q-54 54.5 -54 148.5q0 11 2 35h91q-1 -9 -1 -25q0 -61 32 -96t88 -35q63 0 103 42.5t48 115.5l50 476h91l-50 -476q-12 -111 -79 -175.5t-172 -64.5q-95 0 -149 54.5z" />
    <glyph glyph-name="K" unicode="K" horiz-adv-x="595" 
d="M294 354l287 -354h-117l-259 325l-34 -325h-91l74 700h91l-35 -327l329 327h116z" />
    <glyph glyph-name="L" unicode="L" horiz-adv-x="510" 
d="M154 700h91l-65 -614h298l-9 -86h-389z" />
    <glyph glyph-name="M" unicode="M" horiz-adv-x="815" 
d="M154 700h88l180 -571l300 571h87l-74 -700h-87l54 511l-259 -511h-70l-152 514l-54 -514h-87z" />
    <glyph glyph-name="N" unicode="N" horiz-adv-x="659" 
d="M154 700h97l257 -548l58 548h87l-74 -700h-96l-258 548l-58 -548h-87z" />
    <glyph glyph-name="O" unicode="O" horiz-adv-x="797" 
d="M222.5 26.5q-73.5 42.5 -111.5 115.5t-38 163q0 30 2 45q10 100 62.5 183.5t139.5 133t197 49.5q101 0 174.5 -43t112 -116.5t38.5 -163.5q0 -15 -2 -43q-11 -100 -63.5 -183.5t-140 -133t-196.5 -49.5q-101 0 -174.5 42.5zM552.5 104.5q64.5 38.5 102.5 103.5t46 142
q2 26 2 39q0 69 -27.5 124.5t-81 88t-128.5 32.5q-82 0 -146.5 -38.5t-103 -103t-46.5 -142.5q-2 -26 -2 -39q0 -69 27.5 -124.5t81.5 -88t129 -32.5q82 0 146.5 38.5z" />
    <glyph glyph-name="P" unicode="P" horiz-adv-x="580" 
d="M515.5 673.5q47.5 -26.5 74 -74.5t26.5 -110q0 -9 -2 -31q-7 -69 -43 -124t-92.5 -86t-124.5 -31h-160l-23 -217h-91l74 700h251q63 0 110.5 -26.5zM441 322.5q38 23.5 60.5 65t22.5 91.5q0 62 -37 100.5t-96 38.5h-155l-34 -319h155q46 0 84 23.5z" />
    <glyph glyph-name="Q" unicode="Q" horiz-adv-x="797" 
d="M749.5 194.5q-38.5 -72.5 -102 -124.5t-145.5 -73l68 -102l-84 -41l-87 130h-2q-101 0 -174.5 42.5t-111.5 115.5t-38 163q0 30 2 45q10 100 62.5 183.5t139.5 133t197 49.5q101 0 174.5 -43t112 -116.5t38.5 -163.5q0 -15 -2 -43q-9 -83 -47.5 -155.5zM552.5 104.5
q64.5 38.5 102.5 103.5t46 142q2 26 2 39q0 69 -27.5 124.5t-81 88t-128.5 32.5q-82 0 -146.5 -38.5t-103 -103t-46.5 -142.5q-2 -26 -2 -39q0 -69 27.5 -124.5t81.5 -88t129 -32.5q82 0 146.5 38.5z" />
    <glyph glyph-name="R" unicode="R" horiz-adv-x="606" 
d="M558.5 315q-47.5 -61 -120.5 -85l118 -230h-104l-112 217h-146l-23 -217h-91l74 700h251q63 0 110.5 -26.5t74 -74.5t26.5 -110q0 -9 -2 -31q-8 -82 -55.5 -143zM202 299h155q46 0 84 23.5t60.5 65t22.5 91.5q0 62 -37 100.5t-96 38.5h-155z" />
    <glyph glyph-name="S" unicode="S" horiz-adv-x="557" 
d="M116 38q-60 54 -60 152q0 11 2 33h91q-1 -8 -1 -22q0 -64 38.5 -100.5t107.5 -36.5q71 0 111 34.5t40 96.5q0 39 -23 63.5t-77 44.5l-112 41q-123 40 -123 159q0 62 31 110.5t86 75.5t124 27q96 0 151 -50.5t55 -136.5q0 -18 -1 -27h-91q1 7 1 21q0 55 -32.5 85t-93.5 30
q-62 0 -100 -32.5t-38 -85.5q0 -38 27 -65t85 -47l104 -38q119 -43 119 -160q0 -67 -31.5 -118.5t-88.5 -79.5t-131 -28q-110 0 -170 54z" />
    <glyph glyph-name="T" unicode="T" horiz-adv-x="521" 
d="M280 614h-209l9 86h509l-9 -86h-209l-65 -614h-91z" />
    <glyph glyph-name="U" unicode="U" horiz-adv-x="635" 
d="M146 38q-61 54 -61 155q0 11 2 37l50 470h91l-49 -465q-2 -20 -2 -28q0 -69 39 -105t108 -36q76 0 124.5 43.5t57.5 125.5l49 465h91l-50 -470q-13 -118 -88 -182t-193 -64q-108 0 -169 54z" />
    <glyph glyph-name="V" unicode="V" horiz-adv-x="565" 
d="M75 700h99l123 -558l242 558h99l-312 -700h-87z" />
    <glyph glyph-name="W" unicode="W" horiz-adv-x="958" 
d="M77 700h95l122 -550l225 550h68l109 -550l238 550h95l-313 -700h-67l-113 542l-227 -542h-67z" />
    <glyph glyph-name="X" unicode="X" horiz-adv-x="604" 
d="M287 350l-193 350h103l150 -275l208 275h103l-268 -350l194 -350h-103l-150 274l-208 -274h-103z" />
    <glyph glyph-name="Y" unicode="Y" horiz-adv-x="551" 
d="M640 700l-426 -700h-100l170 278l-220 422h106l170 -328l201 328h99z" />
    <glyph glyph-name="Z" unicode="Z" horiz-adv-x="573" 
d="M454 618h-329l9 82h480l-428 -618h359l-9 -82h-513z" />
    <glyph glyph-name="Aacute" unicode="&#xc1;" horiz-adv-x="590" 
d="M283 731l-26 60l229 103l25 -59zM451 107h-291l-44 -107h-98l311 700h80l163 -700h-98zM435 189l-81 385l-159 -385h240z" />
    <glyph glyph-name="Abreve" unicode="&#x102;" horiz-adv-x="590" 
d="M261 772q-43 38 -42 97h72q1 -36 25.5 -54t62.5 -18t65.5 18t36.5 54h72q-11 -59 -62 -97t-119 -38t-111 38zM451 107h-291l-44 -107h-98l311 700h80l163 -700h-98zM435 189l-81 385l-159 -385h240z" />
    <glyph glyph-name="Acircumflex" unicode="&#xc2;" horiz-adv-x="590" 
d="M280 735l-40 42l147 115l123 -115l-51 -42l-80 81zM451 107h-291l-44 -107h-98l311 700h80l163 -700h-98zM435 189l-81 385l-159 -385h240z" />
    <glyph glyph-name="Adieresis" unicode="&#xc4;" horiz-adv-x="590" 
d="M214 764q-17 17 -17 43q0 30 22 52t51 22q27 0 43.5 -17.5t16.5 -43.5q0 -30 -22 -51.5t-52 -21.5q-25 0 -42 17zM450 764q-17 17 -17 43q0 30 22 52t51 22q27 0 44 -17.5t17 -43.5q0 -30 -22.5 -51.5t-52.5 -21.5q-25 0 -42 17zM451 107h-291l-44 -107h-98l311 700h80
l163 -700h-98zM435 189l-81 385l-159 -385h240z" />
    <glyph glyph-name="AE" unicode="&#xc6;" horiz-adv-x="841" 
d="M562 618l-24 -229h276l-9 -82h-276l-23 -225h276l-9 -82h-368l12 111h-240l-65 -111h-99l422 700h412l-9 -82h-276zM425 189l45 427l-248 -427h203z" />
    <glyph glyph-name="AEacute" unicode="&#x1fc;" horiz-adv-x="841" 
d="M577 731l-26 60l229 103l25 -59zM562 618l-24 -229h276l-9 -82h-276l-23 -225h276l-9 -82h-368l12 111h-240l-65 -111h-99l422 700h412l-9 -82h-276zM425 189l45 427l-248 -427h203z" />
    <glyph glyph-name="Agrave" unicode="&#xc0;" horiz-adv-x="590" 
d="M460 731l-206 104l37 59l207 -103zM451 107h-291l-44 -107h-98l311 700h80l163 -700h-98zM435 189l-81 385l-159 -385h240z" />
    <glyph glyph-name="Amacron" unicode="&#x100;" horiz-adv-x="590" 
d="M562 768h-372l7 69h372zM451 107h-291l-44 -107h-98l311 700h80l163 -700h-98zM435 189l-81 385l-159 -385h240z" />
    <glyph glyph-name="Aogonek" unicode="&#x104;" horiz-adv-x="590" 
d="M583 -133l-7 -64q-41 -15 -81 -15q-49 0 -78 24.5t-29 62.5q0 36 25 68t73 57h-12l-23 107h-291l-44 -107h-98l311 700h80l163 -700q-52 -11 -76.5 -38t-24.5 -58q0 -23 15 -36.5t40 -13.5q28 0 57 13zM435 189l-81 385l-159 -385h240z" />
    <glyph glyph-name="Aring" unicode="&#xc5;" horiz-adv-x="590" 
d="M451 107h-291l-44 -107h-98l295 666q-28 13 -44.5 39.5t-16.5 58.5q0 37 19 68t50.5 49t67.5 18q50 0 83 -33t33 -79q0 -40 -25 -73.5t-63 -48.5l155 -665h-98zM331.5 823q-22.5 -23 -22.5 -54q0 -26 17.5 -43t43.5 -17q32 0 54.5 22t22.5 54q0 26 -17.5 43.5t-45.5 17.5
q-30 0 -52.5 -23zM435 189l-81 385l-159 -385h240z" />
    <glyph glyph-name="Atilde" unicode="&#xc3;" horiz-adv-x="590" 
d="M260.5 791.5q-17.5 -9.5 -40.5 -36.5l-33 34q54 78 113 78q23 0 43 -9t44 -25q25 -15 38.5 -21.5t29.5 -6.5q23 0 42.5 10t42.5 38l32 -39q-49 -73 -118 -75q-26 -2 -46 7t-47 28q-21 14 -34 20.5t-28 6.5q-21 0 -38.5 -9.5zM451 107h-291l-44 -107h-98l311 700h80
l163 -700h-98zM435 189l-81 385l-159 -385h240z" />
    <glyph glyph-name="Cacute" unicode="&#x106;" horiz-adv-x="771" 
d="M362 791l229 103l25 -59l-228 -104zM222.5 24.5q-73.5 40.5 -112 112.5t-38.5 165q0 24 3 48q11 105 63 188t139 130.5t198 47.5q92 0 160 -31.5t105.5 -87.5t43.5 -127h-100q-12 76 -67 120t-149 44q-83 0 -147.5 -36t-103 -100.5t-47.5 -147.5q-2 -14 -2 -42
q0 -110 63 -176t177 -66q94 0 158.5 44t92.5 120h100q-21 -71 -70.5 -127t-124 -87.5t-166.5 -31.5q-102 0 -175.5 40.5z" />
    <glyph glyph-name="Ccaron" unicode="&#x10c;" horiz-adv-x="771" 
d="M354 851l51 42l80 -81l99 81l40 -42l-147 -115zM222.5 24.5q-73.5 40.5 -112 112.5t-38.5 165q0 24 3 48q11 105 63 188t139 130.5t198 47.5q92 0 160 -31.5t105.5 -87.5t43.5 -127h-100q-12 76 -67 120t-149 44q-83 0 -147.5 -36t-103 -100.5t-47.5 -147.5
q-2 -14 -2 -42q0 -110 63 -176t177 -66q94 0 158.5 44t92.5 120h100q-21 -71 -70.5 -127t-124 -87.5t-166.5 -31.5q-102 0 -175.5 40.5z" />
    <glyph glyph-name="Ccedilla" unicode="&#xc7;" horiz-adv-x="771" 
d="M566.5 110q64.5 44 92.5 120h100q-30 -104 -119 -171.5t-218 -73.5l-5 -48q7 7 20 11t28 4q29 0 48.5 -18.5t19.5 -51.5q0 -41 -27.5 -69t-73.5 -28q-37 0 -58 18.5t-20 52.5h46q-1 -14 9.5 -23t26.5 -9q22 0 35 14.5t13 42.5q0 17 -10 26.5t-27 9.5q-25 0 -41 -20h-40
l9 88q-95 4 -163.5 46t-104 112t-35.5 159q0 24 3 48q11 105 63 188t139 130.5t198 47.5q92 0 160 -31.5t105.5 -87.5t43.5 -127h-100q-12 76 -67 120t-149 44q-83 0 -147.5 -36t-103 -100.5t-47.5 -147.5q-2 -14 -2 -42q0 -110 63 -176t177 -66q94 0 158.5 44z" />
    <glyph glyph-name="Ccircumflex" unicode="&#x108;" horiz-adv-x="771" 
d="M615 777l-51 -42l-80 81l-99 -81l-40 42l147 115zM222.5 24.5q-73.5 40.5 -112 112.5t-38.5 165q0 24 3 48q11 105 63 188t139 130.5t198 47.5q92 0 160 -31.5t105.5 -87.5t43.5 -127h-100q-12 76 -67 120t-149 44q-83 0 -147.5 -36t-103 -100.5t-47.5 -147.5
q-2 -14 -2 -42q0 -110 63 -176t177 -66q94 0 158.5 44t92.5 120h100q-21 -71 -70.5 -127t-124 -87.5t-166.5 -31.5q-102 0 -175.5 40.5z" />
    <glyph glyph-name="Cdotaccent" unicode="&#x10a;" horiz-adv-x="771" 
d="M434.5 761q-16.5 17 -16.5 43q0 31 21 53t53 22q27 0 43.5 -17t16.5 -42q0 -32 -21 -54t-53 -22q-27 0 -43.5 17zM222.5 24.5q-73.5 40.5 -112 112.5t-38.5 165q0 24 3 48q11 105 63 188t139 130.5t198 47.5q92 0 160 -31.5t105.5 -87.5t43.5 -127h-100q-12 76 -67 120
t-149 44q-83 0 -147.5 -36t-103 -100.5t-47.5 -147.5q-2 -14 -2 -42q0 -110 63 -176t177 -66q94 0 158.5 44t92.5 120h100q-21 -71 -70.5 -127t-124 -87.5t-166.5 -31.5q-102 0 -175.5 40.5z" />
    <glyph glyph-name="Dcaron" unicode="&#x10e;" horiz-adv-x="691" 
d="M276 851l51 42l80 -81l99 81l40 -42l-147 -115zM154 700h223q103 0 175.5 -42t109 -112t36.5 -155q0 -13 -2 -41q-10 -93 -60 -173t-136 -128.5t-197 -48.5h-223zM305 82q87 0 151.5 37.5t101 98.5t44.5 132q2 22 2 33q0 64 -26.5 117.5t-81.5 85.5t-135 32h-125
l-56 -536h125z" />
    <glyph glyph-name="Dcroat" unicode="&#x110;" horiz-adv-x="691" 
d="M552.5 658q72.5 -42 109 -112t36.5 -155q0 -13 -2 -41q-10 -93 -60 -173t-136 -128.5t-197 -48.5h-223l33 313h-79l8 77h79l33 310h223q103 0 175.5 -42zM456.5 119.5q64.5 37.5 101 98.5t44.5 132q2 22 2 33q0 64 -26.5 117.5t-81.5 85.5t-135 32h-125l-24 -228h133
l-8 -77h-133l-24 -231h125q87 0 151.5 37.5z" />
    <glyph glyph-name="Eacute" unicode="&#xc9;" horiz-adv-x="545" 
d="M247 791l229 103l25 -59l-228 -104zM154 700h398l-9 -82h-307l-24 -229h307l-9 -82h-307l-23 -225h307l-9 -82h-398z" />
    <glyph glyph-name="Ebreve" unicode="&#x114;" horiz-adv-x="545" 
d="M251 772q-43 38 -42 97h72q1 -36 25.5 -54t62.5 -18t65.5 18t36.5 54h72q-11 -59 -62 -97t-119 -38t-111 38zM154 700h398l-9 -82h-307l-24 -229h307l-9 -82h-307l-23 -225h307l-9 -82h-398z" />
    <glyph glyph-name="Ecaron" unicode="&#x11a;" horiz-adv-x="545" 
d="M238 851l51 42l80 -81l99 81l40 -42l-147 -115zM154 700h398l-9 -82h-307l-24 -229h307l-9 -82h-307l-23 -225h307l-9 -82h-398z" />
    <glyph glyph-name="Ecircumflex" unicode="&#xca;" horiz-adv-x="545" 
d="M499 777l-51 -42l-80 81l-99 -81l-40 42l147 115zM154 700h398l-9 -82h-307l-24 -229h307l-9 -82h-307l-23 -225h307l-9 -82h-398z" />
    <glyph glyph-name="Edieresis" unicode="&#xcb;" horiz-adv-x="545" 
d="M203 764q-17 17 -17 43q0 30 22 52t51 22q27 0 43.5 -17.5t16.5 -43.5q0 -30 -22 -51.5t-52 -21.5q-25 0 -42 17zM439 764q-17 17 -17 43q0 30 22 52t51 22q27 0 44 -17.5t17 -43.5q0 -30 -22.5 -51.5t-52.5 -21.5q-25 0 -42 17zM154 700h398l-9 -82h-307l-24 -229h307
l-9 -82h-307l-23 -225h307l-9 -82h-398z" />
    <glyph glyph-name="Edotaccent" unicode="&#x116;" horiz-adv-x="545" 
d="M319.5 761q-16.5 17 -16.5 43q0 31 21 53t53 22q27 0 43.5 -17t16.5 -42q0 -32 -21 -54t-53 -22q-27 0 -43.5 17zM154 700h398l-9 -82h-307l-24 -229h307l-9 -82h-307l-23 -225h307l-9 -82h-398z" />
    <glyph glyph-name="Egrave" unicode="&#xc8;" horiz-adv-x="545" 
d="M244 835l37 59l207 -103l-38 -60zM154 700h398l-9 -82h-307l-24 -229h307l-9 -82h-307l-23 -225h307l-9 -82h-398z" />
    <glyph glyph-name="Emacron" unicode="&#x112;" horiz-adv-x="545" 
d="M187 837h372l-7 -69h-372zM154 700h398l-9 -82h-307l-24 -229h307l-9 -82h-307l-23 -225h307l-9 -82h-398z" />
    <glyph glyph-name="Eogonek" unicode="&#x118;" horiz-adv-x="545" 
d="M488 -133l-7 -64q-41 -15 -81 -15q-49 0 -78 24.5t-29 62.5q0 36 25 68t73 57h-311l74 700h398l-9 -82h-307l-24 -229h307l-9 -82h-307l-23 -225h307l-9 -82h-1q-52 -11 -76.5 -38t-24.5 -58q0 -23 15 -36.5t40 -13.5q28 0 57 13z" />
    <glyph glyph-name="Eth" unicode="&#xd0;" horiz-adv-x="691" 
d="M552.5 658q72.5 -42 109 -112t36.5 -155q0 -13 -2 -41q-10 -93 -60 -173t-136 -128.5t-197 -48.5h-223l33 313h-79l8 77h79l33 310h223q103 0 175.5 -42zM456.5 119.5q64.5 37.5 101 98.5t44.5 132q2 22 2 33q0 64 -26.5 117.5t-81.5 85.5t-135 32h-125l-24 -228h133
l-8 -77h-133l-24 -231h125q87 0 151.5 37.5z" />
    <glyph glyph-name="Gbreve" unicode="&#x11e;" horiz-adv-x="828" 
d="M369 772q-43 38 -42 97h72q1 -36 25.5 -54t62.5 -18t65.5 18t36.5 54h72q-11 -59 -62 -97t-119 -38t-111 38zM834 258h-77q-36 -127 -130 -200.5t-232 -73.5q-101 0 -174 40.5t-111.5 112t-38.5 162.5q0 23 3 47q11 102 62 186t138.5 134t201.5 50q80 0 142.5 -28
t98.5 -77.5t39 -110.5h-100q-9 60 -59 97t-129 37q-87 0 -151.5 -38t-102 -103.5t-45.5 -146.5q-2 -26 -2 -38q0 -70 28 -124.5t81.5 -86t127.5 -31.5q98 0 163.5 49.5t94.5 142.5h-170l9 82h342z" />
    <glyph glyph-name="Gcircumflex" unicode="&#x11c;" horiz-adv-x="828" 
d="M388 735l-40 42l147 115l123 -115l-51 -42l-80 81zM834 258h-77q-36 -127 -130 -200.5t-232 -73.5q-101 0 -174 40.5t-111.5 112t-38.5 162.5q0 23 3 47q11 102 62 186t138.5 134t201.5 50q80 0 142.5 -28t98.5 -77.5t39 -110.5h-100q-9 60 -59 97t-129 37
q-87 0 -151.5 -38t-102 -103.5t-45.5 -146.5q-2 -26 -2 -38q0 -70 28 -124.5t81.5 -86t127.5 -31.5q98 0 163.5 49.5t94.5 142.5h-170l9 82h342z" />
    <glyph glyph-name="Gcommaaccent" unicode="&#x122;" horiz-adv-x="828" 
d="M834 258h-77q-36 -127 -130 -200.5t-232 -73.5q-101 0 -174 40.5t-111.5 112t-38.5 162.5q0 23 3 47q11 102 62 186t138.5 134t201.5 50q80 0 142.5 -28t98.5 -77.5t39 -110.5h-100q-9 60 -59 97t-129 37q-87 0 -151.5 -38t-102 -103.5t-45.5 -146.5q-2 -26 -2 -38
q0 -70 28 -124.5t81.5 -86t127.5 -31.5q98 0 163.5 49.5t94.5 142.5h-170l9 82h342zM437.5 -46.5q15.5 -16.5 15.5 -42.5l-1 -12q-10 -103 -115 -105l4 30q41 0 56 26q10 10 12 30q-2 -4 -8 -6.5t-13 -2.5q-22 0 -34.5 12t-12.5 31q0 23 16.5 39.5t39.5 16.5
q25 0 40.5 -16.5z" />
    <glyph glyph-name="Gdotaccent" unicode="&#x120;" horiz-adv-x="828" 
d="M437.5 761q-16.5 17 -16.5 43q0 31 21 53t53 22q27 0 43.5 -17t16.5 -42q0 -32 -21 -54t-53 -22q-27 0 -43.5 17zM834 258h-77q-36 -127 -130 -200.5t-232 -73.5q-101 0 -174 40.5t-111.5 112t-38.5 162.5q0 23 3 47q11 102 62 186t138.5 134t201.5 50q80 0 142.5 -28
t98.5 -77.5t39 -110.5h-100q-9 60 -59 97t-129 37q-87 0 -151.5 -38t-102 -103.5t-45.5 -146.5q-2 -26 -2 -38q0 -70 28 -124.5t81.5 -86t127.5 -31.5q98 0 163.5 49.5t94.5 142.5h-170l9 82h342z" />
    <glyph glyph-name="Hbar" unicode="&#x126;" horiz-adv-x="668" 
d="M676 506h-35l-53 -506h-91l32 307h-326l-32 -307h-91l53 506h-35l6 59h35l15 135h91l-15 -135h326l15 135h91l-15 -135h35zM550 506h-326l-12 -117h326z" />
    <glyph glyph-name="Hcircumflex" unicode="&#x124;" horiz-adv-x="668" 
d="M549 777l-51 -42l-80 81l-99 -81l-40 42l147 115zM154 700h91l-33 -311h326l33 311h91l-74 -700h-91l32 307h-326l-32 -307h-91z" />
    <glyph glyph-name="Iacute" unicode="&#xcd;" horiz-adv-x="251" 
d="M108 794l172 99l34 -57l-173 -99zM154 700h91l-74 -700h-91z" />
    <glyph glyph-name="Ibreve" unicode="&#x12c;" horiz-adv-x="251" 
d="M128 761.5q-29 24.5 -29 82.5q0 15 1 23h67q-2 -34 10 -51t33 -17t36.5 17t20.5 51h67q-7 -70 -43.5 -100t-87.5 -30q-46 0 -75 24.5zM154 700h91l-74 -700h-91z" />
    <glyph glyph-name="Icircumflex" unicode="&#xce;" horiz-adv-x="251" 
d="M210 804l-77 -61l-35 44l119 93l102 -93l-46 -44zM154 700h91l-74 -700h-91z" />
    <glyph glyph-name="Idieresis" unicode="&#xcf;" horiz-adv-x="251" 
d="M93.5 766.5q-15.5 15.5 -15.5 40.5q0 29 20.5 48.5t48.5 19.5q24 0 39.5 -15t15.5 -39q0 -31 -20 -50.5t-48 -19.5q-25 0 -40.5 15.5zM235.5 766.5q-15.5 15.5 -15.5 40.5q0 29 20.5 48.5t48.5 19.5q24 0 39.5 -15t15.5 -39q0 -31 -20 -50.5t-48 -19.5q-25 0 -40.5 15.5z
M154 700h91l-74 -700h-91z" />
    <glyph glyph-name="Idotaccent" unicode="&#x130;" horiz-adv-x="251" 
d="M160.5 761q-16.5 17 -16.5 43q0 31 21 53t53 22q27 0 43.5 -17t16.5 -42q0 -32 -21 -54t-53 -22q-27 0 -43.5 17zM154 700h91l-74 -700h-91z" />
    <glyph glyph-name="Igrave" unicode="&#xcc;" horiz-adv-x="251" 
d="M119 827l45 59l140 -89l-45 -59zM154 700h91l-74 -700h-91z" />
    <glyph glyph-name="IJ" unicode="&#x132;" horiz-adv-x="787" 
d="M154 700h91l-74 -700h-91zM349 38.5q-54 54.5 -54 148.5q0 11 2 35h91q-1 -9 -1 -25q0 -61 32 -96t88 -35q63 0 103 42.5t48 115.5l50 476h91l-50 -476q-12 -111 -79 -175.5t-172 -64.5q-95 0 -149 54.5z" />
    <glyph glyph-name="Imacron" unicode="&#x12a;" horiz-adv-x="251" 
d="M120 830h187l-6 -62h-187zM154 700h91l-74 -700h-91z" />
    <glyph glyph-name="Iogonek" unicode="&#x12e;" horiz-adv-x="251" 
d="M182 -133l-7 -64q-41 -15 -81 -15q-49 0 -78 24.5t-29 62.5q0 36 25 68t73 57h-5l74 700h91l-74 -700q-52 -11 -76.5 -38t-24.5 -58q0 -23 15 -36.5t40 -13.5q28 0 57 13z" />
    <glyph glyph-name="Itilde" unicode="&#x128;" horiz-adv-x="251" 
d="M221 763.5q-10 5.5 -22 16.5q-9 8 -15 11.5t-13 3.5q-12 0 -22 -6.5t-22 -23.5l-18 40q28 50 69 50q15 0 24.5 -5.5t21.5 -16.5q10 -9 15.5 -12.5t13.5 -3.5q24 0 41 29l19 -40q-26 -48 -67 -48q-15 0 -25 5.5zM154 700h91l-74 -700h-91z" />
    <glyph glyph-name="Jcircumflex" unicode="&#x134;" horiz-adv-x="536" 
d="M513 804l-77 -61l-35 44l119 93l102 -93l-46 -44zM98 38.5q-54 54.5 -54 148.5q0 11 2 35h91q-1 -9 -1 -25q0 -61 32 -96t88 -35q63 0 103 42.5t48 115.5l50 476h91l-50 -476q-12 -111 -79 -175.5t-172 -64.5q-95 0 -149 54.5z" />
    <glyph glyph-name="Kcommaaccent" unicode="&#x136;" horiz-adv-x="595" 
d="M294 354l287 -354h-117l-259 325l-34 -325h-91l74 700h91l-35 -327l329 327h116zM325.5 -46.5q15.5 -16.5 15.5 -42.5l-1 -12q-10 -103 -115 -105l4 30q41 0 56 26q10 10 12 30q-2 -4 -8 -6.5t-13 -2.5q-22 0 -34.5 12t-12.5 31q0 23 16.5 39.5t39.5 16.5
q25 0 40.5 -16.5z" />
    <glyph glyph-name="Lacute" unicode="&#x139;" horiz-adv-x="510" 
d="M121 794l172 99l34 -57l-173 -99zM154 700h91l-65 -614h298l-9 -86h-389z" />
    <glyph glyph-name="Lcaron" unicode="&#x13d;" horiz-adv-x="510" 
d="M364 498l5 40q6 -1 17 -1q38 0 54 28q10 18 10 45q-14 -17 -42 -17q-21 0 -34.5 14.5t-13.5 36.5q0 31 20 50.5t51 19.5q32 0 51.5 -21.5t19.5 -61.5q0 -62 -33 -98.5t-86 -36.5q-13 0 -19 2zM154 700h91l-65 -614h298l-9 -86h-389z" />
    <glyph glyph-name="Lcommaaccent" unicode="&#x13b;" horiz-adv-x="510" 
d="M154 700h91l-65 -614h298l-9 -86h-389zM221 -176q41 0 56 26q10 10 12 30q-2 -4 -8 -6.5t-13 -2.5q-22 0 -34.5 12t-12.5 31q0 23 16.5 39.5t39.5 16.5q25 0 40.5 -16.5t15.5 -42.5l-1 -12q-10 -103 -115 -105z" />
    <glyph glyph-name="Ldot" unicode="&#x13f;" horiz-adv-x="510" 
d="M154 700h91l-65 -614h298l-9 -86h-389zM331.5 339q-18.5 19 -18.5 47q0 32 24 55.5t56 23.5q29 0 48 -18t19 -45q0 -33 -24.5 -57.5t-57.5 -24.5q-28 0 -46.5 19z" />
    <glyph glyph-name="Lslash" unicode="&#x141;" horiz-adv-x="498" 
d="M478 86l-9 -86h-389l28 269l-58 -25l7 73l59 25l38 358h91l-34 -318l170 72l-8 -73l-170 -72l-23 -223h298z" />
    <glyph glyph-name="Nacute" unicode="&#x143;" horiz-adv-x="659" 
d="M292 791l229 103l25 -59l-228 -104zM154 700h97l257 -548l58 548h87l-74 -700h-96l-258 548l-58 -548h-87z" />
    <glyph glyph-name="Ncaron" unicode="&#x147;" horiz-adv-x="659" 
d="M283 851l51 42l80 -81l99 81l40 -42l-147 -115zM154 700h97l257 -548l58 548h87l-74 -700h-96l-258 548l-58 -548h-87z" />
    <glyph glyph-name="Ncommaaccent" unicode="&#x145;" horiz-adv-x="659" 
d="M154 700h97l257 -548l58 548h87l-74 -700h-96l-258 548l-58 -548h-87zM267 -176q41 0 56 26q10 10 12 30q-2 -4 -8 -6.5t-13 -2.5q-22 0 -34.5 12t-12.5 31q0 23 16.5 39.5t39.5 16.5q25 0 40.5 -16.5t15.5 -42.5l-1 -12q-10 -103 -115 -105z" />
    <glyph glyph-name="Ntilde" unicode="&#xd1;" horiz-adv-x="659" 
d="M442 746q-20 9 -47 28q-21 14 -34 20.5t-28 6.5q-21 0 -38.5 -9.5t-40.5 -36.5l-33 34q54 78 113 78q23 0 43 -9t44 -25q25 -15 38.5 -21.5t29.5 -6.5q23 0 42.5 10t42.5 38l32 -39q-49 -73 -118 -75q-26 -2 -46 7zM154 700h97l257 -548l58 548h87l-74 -700h-96l-258 548
l-58 -548h-87z" />
    <glyph glyph-name="Eng" unicode="&#x14a;" horiz-adv-x="659" 
d="M350 -208l9 82q21 -7 51 -7q33 0 50.5 18.5t21.5 59.5l6 55l-263 548l-58 -548h-87l74 700h97l257 -545l58 545h87l-83 -782q-7 -66 -47 -101.5t-108 -35.5q-41 0 -65 11z" />
    <glyph glyph-name="Oacute" unicode="&#xd3;" horiz-adv-x="797" 
d="M360 791l229 103l25 -59l-228 -104zM222.5 26.5q-73.5 42.5 -111.5 115.5t-38 163q0 30 2 45q10 100 62.5 183.5t139.5 133t197 49.5q101 0 174.5 -43t112 -116.5t38.5 -163.5q0 -15 -2 -43q-11 -100 -63.5 -183.5t-140 -133t-196.5 -49.5q-101 0 -174.5 42.5z
M552.5 104.5q64.5 38.5 102.5 103.5t46 142q2 26 2 39q0 69 -27.5 124.5t-81 88t-128.5 32.5q-82 0 -146.5 -38.5t-103 -103t-46.5 -142.5q-2 -26 -2 -39q0 -69 27.5 -124.5t81.5 -88t129 -32.5q82 0 146.5 38.5z" />
    <glyph glyph-name="Obreve" unicode="&#x14e;" horiz-adv-x="797" 
d="M365 772q-43 38 -42 97h72q1 -36 25.5 -54t62.5 -18t65.5 18t36.5 54h72q-11 -59 -62 -97t-119 -38t-111 38zM222.5 26.5q-73.5 42.5 -111.5 115.5t-38 163q0 30 2 45q10 100 62.5 183.5t139.5 133t197 49.5q101 0 174.5 -43t112 -116.5t38.5 -163.5q0 -15 -2 -43
q-11 -100 -63.5 -183.5t-140 -133t-196.5 -49.5q-101 0 -174.5 42.5zM552.5 104.5q64.5 38.5 102.5 103.5t46 142q2 26 2 39q0 69 -27.5 124.5t-81 88t-128.5 32.5q-82 0 -146.5 -38.5t-103 -103t-46.5 -142.5q-2 -26 -2 -39q0 -69 27.5 -124.5t81.5 -88t129 -32.5
q82 0 146.5 38.5z" />
    <glyph glyph-name="Ocircumflex" unicode="&#xd4;" horiz-adv-x="797" 
d="M613 777l-51 -42l-80 81l-99 -81l-40 42l147 115zM222.5 26.5q-73.5 42.5 -111.5 115.5t-38 163q0 30 2 45q10 100 62.5 183.5t139.5 133t197 49.5q101 0 174.5 -43t112 -116.5t38.5 -163.5q0 -15 -2 -43q-11 -100 -63.5 -183.5t-140 -133t-196.5 -49.5
q-101 0 -174.5 42.5zM552.5 104.5q64.5 38.5 102.5 103.5t46 142q2 26 2 39q0 69 -27.5 124.5t-81 88t-128.5 32.5q-82 0 -146.5 -38.5t-103 -103t-46.5 -142.5q-2 -26 -2 -39q0 -69 27.5 -124.5t81.5 -88t129 -32.5q82 0 146.5 38.5z" />
    <glyph glyph-name="Odieresis" unicode="&#xd6;" horiz-adv-x="797" 
d="M317 764q-17 17 -17 43q0 30 22 52t51 22q27 0 43.5 -17.5t16.5 -43.5q0 -30 -22 -51.5t-52 -21.5q-25 0 -42 17zM553 764q-17 17 -17 43q0 30 22 52t51 22q27 0 44 -17.5t17 -43.5q0 -30 -22.5 -51.5t-52.5 -21.5q-25 0 -42 17zM222.5 26.5q-73.5 42.5 -111.5 115.5
t-38 163q0 30 2 45q10 100 62.5 183.5t139.5 133t197 49.5q101 0 174.5 -43t112 -116.5t38.5 -163.5q0 -15 -2 -43q-11 -100 -63.5 -183.5t-140 -133t-196.5 -49.5q-101 0 -174.5 42.5zM552.5 104.5q64.5 38.5 102.5 103.5t46 142q2 26 2 39q0 69 -27.5 124.5t-81 88
t-128.5 32.5q-82 0 -146.5 -38.5t-103 -103t-46.5 -142.5q-2 -26 -2 -39q0 -69 27.5 -124.5t81.5 -88t129 -32.5q82 0 146.5 38.5z" />
    <glyph glyph-name="OE" unicode="&#x152;" horiz-adv-x="879" 
d="M597 618l-24 -229h280l-9 -82h-280l-23 -225h280l-9 -82h-439q-94 0 -161.5 40.5t-103 110.5t-35.5 155q0 29 2 44q10 95 59.5 175t130.5 127.5t182 47.5h439l-9 -82h-280zM450 82l56 536h-68q-74 0 -132 -36t-93 -97t-43 -135q-2 -24 -2 -36q0 -66 24.5 -118.5t73 -83
t116.5 -30.5h68z" />
    <glyph glyph-name="Ograve" unicode="&#xd2;" horiz-adv-x="797" 
d="M358 835l37 59l207 -103l-38 -60zM222.5 26.5q-73.5 42.5 -111.5 115.5t-38 163q0 30 2 45q10 100 62.5 183.5t139.5 133t197 49.5q101 0 174.5 -43t112 -116.5t38.5 -163.5q0 -15 -2 -43q-11 -100 -63.5 -183.5t-140 -133t-196.5 -49.5q-101 0 -174.5 42.5zM552.5 104.5
q64.5 38.5 102.5 103.5t46 142q2 26 2 39q0 69 -27.5 124.5t-81 88t-128.5 32.5q-82 0 -146.5 -38.5t-103 -103t-46.5 -142.5q-2 -26 -2 -39q0 -69 27.5 -124.5t81.5 -88t129 -32.5q82 0 146.5 38.5z" />
    <glyph glyph-name="Ohungarumlaut" unicode="&#x150;" horiz-adv-x="797" 
d="M341 756l141 132l75 -30l-169 -122zM520 756l141 132l74 -32l-169 -121zM222.5 26.5q-73.5 42.5 -111.5 115.5t-38 163q0 30 2 45q10 100 62.5 183.5t139.5 133t197 49.5q101 0 174.5 -43t112 -116.5t38.5 -163.5q0 -15 -2 -43q-11 -100 -63.5 -183.5t-140 -133
t-196.5 -49.5q-101 0 -174.5 42.5zM552.5 104.5q64.5 38.5 102.5 103.5t46 142q2 26 2 39q0 69 -27.5 124.5t-81 88t-128.5 32.5q-82 0 -146.5 -38.5t-103 -103t-46.5 -142.5q-2 -26 -2 -39q0 -69 27.5 -124.5t81.5 -88t129 -32.5q82 0 146.5 38.5z" />
    <glyph glyph-name="Omacron" unicode="&#x14c;" horiz-adv-x="797" 
d="M301 837h372l-7 -69h-372zM222.5 26.5q-73.5 42.5 -111.5 115.5t-38 163q0 30 2 45q10 100 62.5 183.5t139.5 133t197 49.5q101 0 174.5 -43t112 -116.5t38.5 -163.5q0 -15 -2 -43q-11 -100 -63.5 -183.5t-140 -133t-196.5 -49.5q-101 0 -174.5 42.5zM552.5 104.5
q64.5 38.5 102.5 103.5t46 142q2 26 2 39q0 69 -27.5 124.5t-81 88t-128.5 32.5q-82 0 -146.5 -38.5t-103 -103t-46.5 -142.5q-2 -26 -2 -39q0 -69 27.5 -124.5t81.5 -88t129 -32.5q82 0 146.5 38.5z" />
    <glyph glyph-name="Oslash" unicode="&#xd8;" horiz-adv-x="797" 
d="M759.5 559q39.5 -75 39.5 -166q0 -15 -2 -43q-11 -100 -63.5 -183.5t-140 -133t-196.5 -49.5q-60 0 -110 15l-45 -83l-59 27l44 81q-75 41 -114.5 115t-39.5 166q0 30 2 45q10 100 62.5 183.5t139.5 133t197 49.5q60 0 114 -16l42 80l58 -27l-41 -78q73 -41 112.5 -116z
M168 310q0 -66 26 -120t75 -87l277 520q-38 11 -80 11q-82 0 -146.5 -38.5t-103 -103t-46.5 -142.5q-2 -13 -2 -40zM552.5 104.5q64.5 38.5 102.5 103.5t46 142q2 13 2 39q0 66 -25 119.5t-73 86.5l-277 -518q36 -11 78 -11q82 0 146.5 38.5z" />
    <glyph glyph-name="Oslashacute" unicode="&#x1fe;" horiz-adv-x="797" 
d="M390 731l-26 60l229 103l25 -59zM759.5 559q39.5 -75 39.5 -166q0 -15 -2 -43q-11 -100 -63.5 -183.5t-140 -133t-196.5 -49.5q-60 0 -110 15l-45 -83l-59 27l44 81q-75 41 -114.5 115t-39.5 166q0 30 2 45q10 100 62.5 183.5t139.5 133t197 49.5q60 0 114 -16l42 80
l58 -27l-41 -78q73 -41 112.5 -116zM168 310q0 -66 26 -120t75 -87l277 520q-38 11 -80 11q-82 0 -146.5 -38.5t-103 -103t-46.5 -142.5q-2 -13 -2 -40zM552.5 104.5q64.5 38.5 102.5 103.5t46 142q2 13 2 39q0 66 -25 119.5t-73 86.5l-277 -518q36 -11 78 -11
q82 0 146.5 38.5z" />
    <glyph glyph-name="Otilde" unicode="&#xd5;" horiz-adv-x="797" 
d="M511 746q-20 9 -47 28q-21 14 -34 20.5t-28 6.5q-21 0 -38.5 -9.5t-40.5 -36.5l-33 34q54 78 113 78q23 0 43 -9t44 -25q25 -15 38.5 -21.5t29.5 -6.5q23 0 42.5 10t42.5 38l32 -39q-49 -73 -118 -75q-26 -2 -46 7zM222.5 26.5q-73.5 42.5 -111.5 115.5t-38 163
q0 30 2 45q10 100 62.5 183.5t139.5 133t197 49.5q101 0 174.5 -43t112 -116.5t38.5 -163.5q0 -15 -2 -43q-11 -100 -63.5 -183.5t-140 -133t-196.5 -49.5q-101 0 -174.5 42.5zM552.5 104.5q64.5 38.5 102.5 103.5t46 142q2 26 2 39q0 69 -27.5 124.5t-81 88t-128.5 32.5
q-82 0 -146.5 -38.5t-103 -103t-46.5 -142.5q-2 -26 -2 -39q0 -69 27.5 -124.5t81.5 -88t129 -32.5q82 0 146.5 38.5z" />
    <glyph glyph-name="Racute" unicode="&#x154;" horiz-adv-x="606" 
d="M289 731l-26 60l229 103l25 -59zM558.5 315q-47.5 -61 -120.5 -85l118 -230h-104l-112 217h-146l-23 -217h-91l74 700h251q63 0 110.5 -26.5t74 -74.5t26.5 -110q0 -9 -2 -31q-8 -82 -55.5 -143zM202 299h155q46 0 84 23.5t60.5 65t22.5 91.5q0 62 -37 100.5t-96 38.5
h-155z" />
    <glyph glyph-name="Rcaron" unicode="&#x158;" horiz-adv-x="606" 
d="M377 736l-123 115l51 42l80 -81l99 81l40 -42zM558.5 315q-47.5 -61 -120.5 -85l118 -230h-104l-112 217h-146l-23 -217h-91l74 700h251q63 0 110.5 -26.5t74 -74.5t26.5 -110q0 -9 -2 -31q-8 -82 -55.5 -143zM202 299h155q46 0 84 23.5t60.5 65t22.5 91.5
q0 62 -37 100.5t-96 38.5h-155z" />
    <glyph glyph-name="Rcommaaccent" unicode="&#x156;" horiz-adv-x="606" 
d="M558.5 315q-47.5 -61 -120.5 -85l118 -230h-104l-112 217h-146l-23 -217h-91l74 700h251q63 0 110.5 -26.5t74 -74.5t26.5 -110q0 -9 -2 -31q-8 -82 -55.5 -143zM202 299h155q46 0 84 23.5t60.5 65t22.5 91.5q0 62 -37 100.5t-96 38.5h-155zM335.5 -46.5
q15.5 -16.5 15.5 -42.5l-1 -12q-10 -103 -115 -105l4 30q41 0 56 26q10 10 12 30q-2 -4 -8 -6.5t-13 -2.5q-22 0 -34.5 12t-12.5 31q0 23 16.5 39.5t39.5 16.5q25 0 40.5 -16.5z" />
    <glyph glyph-name="Sacute" unicode="&#x15a;" horiz-adv-x="557" 
d="M240 791l229 103l25 -59l-228 -104zM116 38q-60 54 -60 152q0 11 2 33h91q-1 -8 -1 -22q0 -64 38.5 -100.5t107.5 -36.5q71 0 111 34.5t40 96.5q0 39 -23 63.5t-77 44.5l-112 41q-123 40 -123 159q0 62 31 110.5t86 75.5t124 27q96 0 151 -50.5t55 -136.5q0 -18 -1 -27
h-91q1 7 1 21q0 55 -32.5 85t-93.5 30q-62 0 -100 -32.5t-38 -85.5q0 -38 27 -65t85 -47l104 -38q119 -43 119 -160q0 -67 -31.5 -118.5t-88.5 -79.5t-131 -28q-110 0 -170 54z" />
    <glyph glyph-name="Scaron" unicode="&#x160;" horiz-adv-x="557" 
d="M232 851l51 42l80 -81l99 81l40 -42l-147 -115zM116 38q-60 54 -60 152q0 11 2 33h91q-1 -8 -1 -22q0 -64 38.5 -100.5t107.5 -36.5q71 0 111 34.5t40 96.5q0 39 -23 63.5t-77 44.5l-112 41q-123 40 -123 159q0 62 31 110.5t86 75.5t124 27q96 0 151 -50.5t55 -136.5
q0 -18 -1 -27h-91q1 7 1 21q0 55 -32.5 85t-93.5 30q-62 0 -100 -32.5t-38 -85.5q0 -38 27 -65t85 -47l104 -38q119 -43 119 -160q0 -67 -31.5 -118.5t-88.5 -79.5t-131 -28q-110 0 -170 54z" />
    <glyph glyph-name="Scedilla" unicode="&#x15e;" horiz-adv-x="557" 
d="M507.5 95q-29.5 -50 -82.5 -79t-123 -32l-5 -47q7 7 20 11t28 4q29 0 48.5 -18.5t19.5 -51.5q0 -41 -27.5 -69t-73.5 -28q-37 0 -58 18.5t-20 52.5h46q-1 -14 9.5 -23t26.5 -9q22 0 35 14.5t13 42.5q0 17 -10 26.5t-27 9.5q-25 0 -41 -20h-40l9 88q-95 8 -147 61t-52 144
q0 11 2 33h91q-1 -8 -1 -22q0 -64 38.5 -100.5t107.5 -36.5q71 0 111 34.5t40 96.5q0 39 -23 63.5t-77 44.5l-112 41q-123 40 -123 159q0 62 31 110.5t86 75.5t124 27q96 0 151 -50.5t55 -136.5q0 -18 -1 -27h-91q1 7 1 21q0 55 -32.5 85t-93.5 30q-62 0 -100 -32.5
t-38 -85.5q0 -38 27 -65t85 -47l104 -38q119 -43 119 -160q0 -65 -29.5 -115z" />
    <glyph glyph-name="Scircumflex" unicode="&#x15c;" horiz-adv-x="557" 
d="M493 777l-51 -42l-80 81l-99 -81l-40 42l147 115zM116 38q-60 54 -60 152q0 11 2 33h91q-1 -8 -1 -22q0 -64 38.5 -100.5t107.5 -36.5q71 0 111 34.5t40 96.5q0 39 -23 63.5t-77 44.5l-112 41q-123 40 -123 159q0 62 31 110.5t86 75.5t124 27q96 0 151 -50.5t55 -136.5
q0 -18 -1 -27h-91q1 7 1 21q0 55 -32.5 85t-93.5 30q-62 0 -100 -32.5t-38 -85.5q0 -38 27 -65t85 -47l104 -38q119 -43 119 -160q0 -67 -31.5 -118.5t-88.5 -79.5t-131 -28q-110 0 -170 54z" />
    <glyph glyph-name="Scommaaccent" unicode="&#x218;" horiz-adv-x="557" 
d="M116 38q-60 54 -60 152q0 11 2 33h91q-1 -8 -1 -22q0 -64 38.5 -100.5t107.5 -36.5q71 0 111 34.5t40 96.5q0 39 -23 63.5t-77 44.5l-112 41q-123 40 -123 159q0 62 31 110.5t86 75.5t124 27q96 0 151 -50.5t55 -136.5q0 -18 -1 -27h-91q1 7 1 21q0 55 -32.5 85t-93.5 30
q-62 0 -100 -32.5t-38 -85.5q0 -38 27 -65t85 -47l104 -38q119 -43 119 -160q0 -67 -31.5 -118.5t-88.5 -79.5t-131 -28q-110 0 -170 54zM219 -176q41 0 56 26q10 10 12 30q-2 -4 -8 -6.5t-13 -2.5q-22 0 -34.5 12t-12.5 31q0 23 16.5 39.5t39.5 16.5q25 0 40.5 -16.5
t15.5 -42.5l-1 -12q-10 -103 -115 -105z" />
    <glyph glyph-name="Tbar" unicode="&#x166;" horiz-adv-x="521" 
d="M371 614l-17 -158h145l-7 -66h-145l-41 -390h-91l41 390h-144l7 66h144l17 158h-209l9 86h509l-9 -86h-209z" />
    <glyph glyph-name="Tcaron" unicode="&#x164;" horiz-adv-x="521" 
d="M214 851l51 42l80 -81l99 81l40 -42l-147 -115zM280 614h-209l9 86h509l-9 -86h-209l-65 -614h-91z" />
    <glyph glyph-name="uni0162" unicode="&#x162;" horiz-adv-x="521" 
d="M284 0l-7 -63q7 7 20 11t28 4q29 0 48.5 -18.5t19.5 -51.5q0 -41 -27.5 -69t-73.5 -28q-37 0 -58 18.5t-20 52.5h46q-1 -14 9.5 -23t26.5 -9q22 0 35 14.5t13 42.5q0 17 -10 26.5t-27 9.5q-25 0 -41 -20h-40l11 103h-22l65 614h-209l9 86h509l-9 -86h-209l-65 -614h-22z
" />
    <glyph glyph-name="uni021A" unicode="&#x21a;" horiz-adv-x="521" 
d="M280 614h-209l9 86h509l-9 -86h-209l-65 -614h-91zM198 -176q41 0 56 26q10 10 12 30q-2 -4 -8 -6.5t-13 -2.5q-22 0 -34.5 12t-12.5 31q0 23 16.5 39.5t39.5 16.5q25 0 40.5 -16.5t15.5 -42.5l-1 -12q-10 -103 -115 -105z" />
    <glyph glyph-name="Thorn" unicode="&#xde;" horiz-adv-x="581" 
d="M507.5 560q47.5 -28 72.5 -75.5t25 -106.5q0 -70 -33 -131t-92.5 -98t-135.5 -37h-161l-12 -112h-91l74 700h91l-12 -112h161q66 0 113.5 -28zM432.5 218q38.5 24 60 64.5t21.5 86.5q0 59 -37 98t-98 39h-155l-33 -312h155q48 0 86.5 24z" />
    <glyph glyph-name="Uacute" unicode="&#xda;" horiz-adv-x="635" 
d="M279 791l229 103l25 -59l-228 -104zM146 38q-61 54 -61 155q0 11 2 37l50 470h91l-49 -465q-2 -20 -2 -28q0 -69 39 -105t108 -36q76 0 124.5 43.5t57.5 125.5l49 465h91l-50 -470q-13 -118 -88 -182t-193 -64q-108 0 -169 54z" />
    <glyph glyph-name="Ubreve" unicode="&#x16c;" horiz-adv-x="635" 
d="M283 772q-43 38 -42 97h72q1 -36 25.5 -54t62.5 -18t65.5 18t36.5 54h72q-11 -59 -62 -97t-119 -38t-111 38zM146 38q-61 54 -61 155q0 11 2 37l50 470h91l-49 -465q-2 -20 -2 -28q0 -69 39 -105t108 -36q76 0 124.5 43.5t57.5 125.5l49 465h91l-50 -470
q-13 -118 -88 -182t-193 -64q-108 0 -169 54z" />
    <glyph glyph-name="Ucircumflex" unicode="&#xdb;" horiz-adv-x="635" 
d="M532 777l-51 -42l-80 81l-99 -81l-40 42l147 115zM146 38q-61 54 -61 155q0 11 2 37l50 470h91l-49 -465q-2 -20 -2 -28q0 -69 39 -105t108 -36q76 0 124.5 43.5t57.5 125.5l49 465h91l-50 -470q-13 -118 -88 -182t-193 -64q-108 0 -169 54z" />
    <glyph glyph-name="Udieresis" unicode="&#xdc;" horiz-adv-x="635" 
d="M236 764q-17 17 -17 43q0 30 22 52t51 22q27 0 43.5 -17.5t16.5 -43.5q0 -30 -22 -51.5t-52 -21.5q-25 0 -42 17zM472 764q-17 17 -17 43q0 30 22 52t51 22q27 0 44 -17.5t17 -43.5q0 -30 -22.5 -51.5t-52.5 -21.5q-25 0 -42 17zM146 38q-61 54 -61 155q0 11 2 37l50 470
h91l-49 -465q-2 -20 -2 -28q0 -69 39 -105t108 -36q76 0 124.5 43.5t57.5 125.5l49 465h91l-50 -470q-13 -118 -88 -182t-193 -64q-108 0 -169 54z" />
    <glyph glyph-name="Ugrave" unicode="&#xd9;" horiz-adv-x="635" 
d="M277 835l37 59l207 -103l-38 -60zM146 38q-61 54 -61 155q0 11 2 37l50 470h91l-49 -465q-2 -20 -2 -28q0 -69 39 -105t108 -36q76 0 124.5 43.5t57.5 125.5l49 465h91l-50 -470q-13 -118 -88 -182t-193 -64q-108 0 -169 54z" />
    <glyph glyph-name="Uhungarumlaut" unicode="&#x170;" horiz-adv-x="635" 
d="M260 756l141 132l75 -30l-169 -122zM439 756l141 132l74 -32l-169 -121zM146 38q-61 54 -61 155q0 11 2 37l50 470h91l-49 -465q-2 -20 -2 -28q0 -69 39 -105t108 -36q76 0 124.5 43.5t57.5 125.5l49 465h91l-50 -470q-13 -118 -88 -182t-193 -64q-108 0 -169 54z" />
    <glyph glyph-name="Umacron" unicode="&#x16a;" horiz-adv-x="635" 
d="M219 837h372l-7 -69h-372zM146 38q-61 54 -61 155q0 11 2 37l50 470h91l-49 -465q-2 -20 -2 -28q0 -69 39 -105t108 -36q76 0 124.5 43.5t57.5 125.5l49 465h91l-50 -470q-13 -118 -88 -182t-193 -64q-108 0 -169 54z" />
    <glyph glyph-name="Uogonek" unicode="&#x172;" horiz-adv-x="635" 
d="M646 700l-50 -470q-10 -98 -64 -159t-141 -79q-37 -15 -54.5 -38.5t-17.5 -49.5q0 -23 15 -36.5t40 -13.5q28 0 57 13l-7 -64q-41 -15 -81 -15q-49 0 -78 24.5t-29 62.5q0 30 18 58t52 51q-104 2 -162.5 56.5t-58.5 153.5q0 12 2 36l50 470h91l-49 -465q-2 -20 -2 -28
q0 -69 39 -105t108 -36q76 0 124.5 43.5t57.5 125.5l49 465h91z" />
    <glyph glyph-name="Uring" unicode="&#x16e;" horiz-adv-x="635" 
d="M304.5 687.5q-32.5 31.5 -32.5 78.5q0 35 19.5 65.5t51.5 49t68 18.5q49 0 82 -31.5t33 -77.5q0 -35 -19.5 -66t-52 -49.5t-68.5 -18.5q-49 0 -81.5 31.5zM445.5 731.5q22.5 22.5 22.5 53.5q0 26 -17.5 43.5t-44.5 17.5q-31 0 -53.5 -22t-22.5 -54q0 -26 17.5 -43.5
t44.5 -17.5q31 0 53.5 22.5zM146 38q-61 54 -61 155q0 11 2 37l50 470h91l-49 -465q-2 -20 -2 -28q0 -69 39 -105t108 -36q76 0 124.5 43.5t57.5 125.5l49 465h91l-50 -470q-13 -118 -88 -182t-193 -64q-108 0 -169 54z" />
    <glyph glyph-name="Utilde" unicode="&#x168;" horiz-adv-x="635" 
d="M430 746q-20 9 -47 28q-21 14 -34 20.5t-28 6.5q-21 0 -38.5 -9.5t-40.5 -36.5l-33 34q54 78 113 78q23 0 43 -9t44 -25q25 -15 38.5 -21.5t29.5 -6.5q23 0 42.5 10t42.5 38l32 -39q-49 -73 -118 -75q-26 -2 -46 7zM146 38q-61 54 -61 155q0 11 2 37l50 470h91l-49 -465
q-2 -20 -2 -28q0 -69 39 -105t108 -36q76 0 124.5 43.5t57.5 125.5l49 465h91l-50 -470q-13 -118 -88 -182t-193 -64q-108 0 -169 54z" />
    <glyph glyph-name="Wacute" unicode="&#x1e82;" horiz-adv-x="958" 
d="M441 791l229 103l25 -59l-228 -104zM77 700h95l122 -550l225 550h68l109 -550l238 550h95l-313 -700h-67l-113 542l-227 -542h-67z" />
    <glyph glyph-name="Wcircumflex" unicode="&#x174;" horiz-adv-x="958" 
d="M694 777l-51 -42l-80 81l-99 -81l-40 42l147 115zM77 700h95l122 -550l225 550h68l109 -550l238 550h95l-313 -700h-67l-113 542l-227 -542h-67z" />
    <glyph glyph-name="Wdieresis" unicode="&#x1e84;" horiz-adv-x="958" 
d="M398 764q-17 17 -17 43q0 30 22 52t51 22q27 0 43.5 -17.5t16.5 -43.5q0 -30 -22 -51.5t-52 -21.5q-25 0 -42 17zM634 764q-17 17 -17 43q0 30 22 52t51 22q27 0 44 -17.5t17 -43.5q0 -30 -22.5 -51.5t-52.5 -21.5q-25 0 -42 17zM77 700h95l122 -550l225 550h68l109 -550
l238 550h95l-313 -700h-67l-113 542l-227 -542h-67z" />
    <glyph glyph-name="Wgrave" unicode="&#x1e80;" horiz-adv-x="958" 
d="M438 835l37 59l207 -103l-38 -60zM77 700h95l122 -550l225 550h68l109 -550l238 550h95l-313 -700h-67l-113 542l-227 -542h-67z" />
    <glyph glyph-name="Yacute" unicode="&#xdd;" horiz-adv-x="551" 
d="M276 731l-26 60l229 103l25 -59zM640 700l-426 -700h-100l170 278l-220 422h106l170 -328l201 328h99z" />
    <glyph glyph-name="Ycircumflex" unicode="&#x176;" horiz-adv-x="551" 
d="M272 735l-40 42l147 115l123 -115l-51 -42l-80 81zM640 700l-426 -700h-100l170 278l-220 422h106l170 -328l201 328h99z" />
    <glyph glyph-name="Ydieresis" unicode="&#x178;" horiz-adv-x="551" 
d="M206 764q-17 17 -17 43q0 30 22 52t51 22q27 0 43.5 -17.5t16.5 -43.5q0 -30 -22 -51.5t-52 -21.5q-25 0 -42 17zM442 764q-17 17 -17 43q0 30 22 52t51 22q27 0 44 -17.5t17 -43.5q0 -30 -22.5 -51.5t-52.5 -21.5q-25 0 -42 17zM640 700l-426 -700h-100l170 278
l-220 422h106l170 -328l201 328h99z" />
    <glyph glyph-name="Ygrave" unicode="&#x1ef2;" horiz-adv-x="551" 
d="M453 731l-206 104l37 59l207 -103zM640 700l-426 -700h-100l170 278l-220 422h106l170 -328l201 328h99z" />
    <glyph glyph-name="Zacute" unicode="&#x179;" horiz-adv-x="573" 
d="M262 791l229 103l25 -59l-228 -104zM454 618h-329l9 82h480l-428 -618h359l-9 -82h-513z" />
    <glyph glyph-name="Zcaron" unicode="&#x17d;" horiz-adv-x="573" 
d="M254 851l51 42l80 -81l99 81l40 -42l-147 -115zM454 618h-329l9 82h480l-428 -618h359l-9 -82h-513z" />
    <glyph glyph-name="Zdotaccent" unicode="&#x17b;" horiz-adv-x="573" 
d="M334.5 761q-16.5 17 -16.5 43q0 31 21 53t53 22q27 0 43.5 -17t16.5 -42q0 -32 -21 -54t-53 -22q-27 0 -43.5 17zM454 618h-329l9 82h480l-428 -618h359l-9 -82h-513z" />
    <glyph glyph-name="a" unicode="a" horiz-adv-x="591" 
d="M113.5 46q-53.5 58 -53.5 151q0 11 2 33q7 68 41 123.5t89.5 87.5t125.5 32q54 0 94.5 -25.5t57.5 -68.5l8 82h86l-48 -461h-86l9 81q-26 -42 -74 -67.5t-100 -25.5q-98 0 -151.5 58zM377.5 92q39.5 26 60.5 68.5t21 92.5q0 62 -36.5 102t-102.5 40q-50 0 -89.5 -24.5
t-61.5 -67.5t-22 -96q0 -63 37 -102t101 -39q53 0 92.5 26z" />
    <glyph glyph-name="b" unicode="b" horiz-adv-x="591" 
d="M525.5 415.5q54.5 -57.5 54.5 -151.5q0 -10 -2 -34q-7 -70 -42 -125t-90 -86t-121 -31q-53 0 -95 25t-60 68l-9 -81h-86l74 700h86l-34 -321q27 43 75.5 68.5t104.5 25.5q90 0 144.5 -57.5zM407 90q39 24 62 66.5t23 95.5q0 63 -37.5 103t-98.5 40q-49 0 -89.5 -24
t-63.5 -66.5t-23 -95.5q0 -64 38.5 -103.5t102.5 -39.5q47 0 86 24z" />
    <glyph glyph-name="c" unicode="c" horiz-adv-x="519" 
d="M115 45q-55 56 -55 151q0 10 2 34q7 71 41 126t89 85.5t125 30.5q92 0 144 -46.5t53 -124.5h-87q-5 46 -35 69.5t-85 23.5q-66 0 -108.5 -43.5t-50.5 -120.5q-2 -20 -2 -28q0 -64 33.5 -100t93.5 -36q54 0 89 23t49 67h87q-16 -76 -78 -121.5t-154 -45.5q-96 0 -151 56z
" />
    <glyph glyph-name="d" unicode="d" horiz-adv-x="591" 
d="M590 700l-74 -700h-86l9 81q-26 -42 -74 -67.5t-100 -25.5q-98 0 -151.5 58t-53.5 151q0 11 2 33q7 68 41 123.5t89.5 87.5t125.5 32q54 0 94.5 -25.5t57.5 -68.5l34 321h86zM377.5 92q39.5 26 60.5 68.5t21 92.5q0 62 -36.5 102t-102.5 40q-50 0 -89.5 -24.5
t-61.5 -67.5t-22 -96q0 -63 37 -102t101 -39q53 0 92.5 26z" />
    <glyph glyph-name="e" unicode="e" horiz-adv-x="521" 
d="M503 205h-357q-1 -6 -1 -18q0 -58 34.5 -90.5t96.5 -32.5q92 0 129 68h87q-19 -64 -81 -104t-143 -40q-98 0 -153 55.5t-55 152.5q0 11 2 35q8 72 42 127t88.5 85t122.5 30q90 0 143 -52t53 -138q0 -18 -1 -27q-3 -30 -7 -51zM427 272q1 6 1 18q0 53 -32 83t-90 30
q-62 0 -103 -36t-50 -95h274z" />
    <glyph glyph-name="f" unicode="f" horiz-adv-x="351" 
d="M293 611.5q-25 -16.5 -30 -68.5l-9 -82h130l-7 -73h-130l-41 -388h-87l41 388h-98l7 73h98l9 80q10 95 59.5 130t104.5 35q43 0 69 -11l-8 -74q-25 7 -47 7q-36 0 -61 -16.5z" />
    <glyph glyph-name="g" unicode="g" horiz-adv-x="591" 
d="M564 460l-47 -448q-7 -66 -32.5 -115t-67.5 -79q-62 -43 -164 -43q-48 0 -89 11.5t-70 33.5t-43 53.5t-12 68.5h91q0 -42 33 -68t97 -26q76 0 119 38.5t52 119.5l8 75q-27 -43 -75 -68t-99 -25q-64 0 -110 27t-70.5 75t-24.5 109q0 9 2 31q7 68 42 123.5t91 87.5t123 32
q54 0 94.5 -25t57.5 -69l8 81h86zM375.5 91.5q39.5 25.5 61.5 68t22 92.5q0 63 -37 103t-102 40q-49 0 -88.5 -24.5t-62 -67t-22.5 -94.5q0 -63 38 -103t100 -40q51 0 90.5 25.5z" />
    <glyph glyph-name="h" unicode="h" horiz-adv-x="566" 
d="M489 434q39 -39 39 -114q0 -10 -2 -36l-30 -284h-87l26 246q2 14 2 39q0 58 -24 85.5t-78 27.5q-63 0 -101 -41.5t-45 -112.5l-26 -244h-87l74 700h87l-34 -324q24 45 68 71t103 26q76 0 115 -39z" />
    <glyph glyph-name="i" unicode="i" horiz-adv-x="236" 
d="M128.5 557.5q-17.5 17.5 -17.5 44.5q0 33 23 56t56 23q28 0 45 -18t17 -45q0 -33 -22 -55.5t-55 -22.5q-29 0 -46.5 17.5zM123 461h86l-48 -461h-86z" />
    <glyph glyph-name="j" unicode="j" horiz-adv-x="240" 
d="M132.5 557.5q-17.5 17.5 -17.5 44.5q0 33 23 56t56 23q28 0 45 -18t17 -45q0 -33 -22 -55.5t-55 -22.5q-29 0 -46.5 17.5zM-42 -208l8 79q19 -7 47 -7q51 0 57 62l56 535h87l-58 -559q-6 -58 -41 -89.5t-93 -31.5q-44 0 -63 11z" />
    <glyph glyph-name="k" unicode="k" horiz-adv-x="505" 
d="M279 238l198 -238h-114l-179 218l-23 -218h-86l74 700h86l-48 -451l227 212h111z" />
    <glyph glyph-name="l" unicode="l" horiz-adv-x="237" 
d="M149 700h87l-74 -700h-87z" />
    <glyph glyph-name="m" unicode="m" horiz-adv-x="832" 
d="M123 461h87l-8 -84q18 41 57 68.5t91 27.5q59 0 93.5 -26t42.5 -73q20 43 64 71t96 28q78 0 113.5 -40t35.5 -109q0 -10 -2 -32l-31 -292h-87l29 275q1 9 1 26q0 97 -88 97q-53 0 -87 -38.5t-43 -119.5l-25 -240h-87l28 268q2 22 2 31q0 99 -87 99q-54 0 -88 -39.5
t-43 -118.5l-25 -240h-87z" />
    <glyph glyph-name="n" unicode="n" horiz-adv-x="564" 
d="M123 461h87l-8 -85q24 45 68 71t103 26q76 0 114.5 -39t38.5 -114q0 -10 -2 -36l-30 -284h-86l26 246q2 28 2 39q0 58 -24.5 85.5t-77.5 27.5q-63 0 -101 -41.5t-45 -112.5l-26 -244h-87z" />
    <glyph glyph-name="o" unicode="o" horiz-adv-x="555" 
d="M160 15.5q-49 27.5 -74.5 75.5t-25.5 109q0 10 2 30q7 68 42 123.5t93 87.5t131 32q67 0 116 -27.5t74.5 -76t25.5 -109.5q0 -10 -2 -30q-7 -67 -42 -122.5t-92.5 -87.5t-130.5 -32q-68 0 -117 27.5zM375 91q39 25 60 68t21 95q0 63 -35.5 102t-100.5 39q-51 0 -90.5 -25
t-61 -67.5t-21.5 -93.5q0 -63 36.5 -103t101.5 -40q51 0 90 25z" />
    <glyph glyph-name="p" unicode="p" horiz-adv-x="591" 
d="M525.5 415.5q54.5 -57.5 54.5 -151.5q0 -10 -2 -34q-7 -70 -42 -125t-90 -86t-121 -31q-53 0 -95 25t-60 68l-31 -294h-86l70 674h86l-8 -82q27 43 75.5 68.5t104.5 25.5q90 0 144.5 -57.5zM407 90q39 24 62 66.5t23 95.5q0 63 -37.5 103t-98.5 40q-49 0 -89.5 -24
t-63.5 -66.5t-23 -95.5q0 -64 38.5 -103.5t102.5 -39.5q47 0 86 24z" />
    <glyph glyph-name="q" unicode="q" horiz-adv-x="591" 
d="M564 461l-70 -674h-86l31 294q-26 -42 -74 -67.5t-100 -25.5q-98 0 -151.5 58t-53.5 151q0 11 2 33q7 68 41 123.5t89.5 87.5t125.5 32q54 0 94.5 -25.5t57.5 -68.5l8 82h86zM377.5 92q39.5 26 60.5 68.5t21 92.5q0 62 -36.5 102t-102.5 40q-50 0 -89.5 -24.5
t-61.5 -67.5t-22 -96q0 -63 37 -102t101 -39q53 0 92.5 26z" />
    <glyph glyph-name="r" unicode="r" horiz-adv-x="360" 
d="M123 461h87l-11 -105q19 55 59.5 83.5t87.5 28.5q27 0 42 -4l-9 -80q-14 3 -42 3q-65 0 -105 -52t-49 -134l-21 -201h-87z" />
    <glyph glyph-name="s" unicode="s" horiz-adv-x="449" 
d="M134 6q-40 18 -61 48.5t-21 68.5q0 10 1 15h86q-4 -35 23.5 -57.5t76.5 -22.5q42 0 68 20.5t26 54.5q0 19 -9.5 33t-30.5 19l-119 32q-44 12 -65.5 40t-21.5 68q0 42 24 75.5t66.5 53t96.5 19.5q79 0 121 -33t42 -89q0 -11 -1 -17h-85q4 33 -19 52.5t-68 19.5
q-39 0 -64.5 -18.5t-25.5 -50.5q0 -40 45 -52l112 -31q43 -13 67 -42t24 -66l-1 -13q-7 -67 -58.5 -106t-134.5 -39q-54 0 -94 18z" />
    <glyph glyph-name="t" unicode="t" horiz-adv-x="356" 
d="M306 73.5q16 1.5 28 4.5l-8 -77q-30 -7 -79 -7q-53 0 -89.5 24t-36.5 101q0 10 2 34l25 235h-83l7 73h83l16 146h87l-16 -146h116l-7 -73h-116l-23 -216q-2 -22 -2 -29q0 -43 16.5 -57t49.5 -14q14 0 30 1.5z" />
    <glyph glyph-name="u" unicode="u" horiz-adv-x="562" 
d="M129 27.5q-42 39.5 -42 116.5q0 11 2 33l29 284h87l-27 -264q-2 -20 -2 -29q0 -105 100 -105q66 0 102.5 42t43.5 104l26 252h87l-48 -461h-87l9 84q-24 -44 -67 -70t-98 -26q-73 0 -115 39.5z" />
    <glyph glyph-name="v" unicode="v" horiz-adv-x="482" 
d="M51 461h93l109 -345l182 345h93l-251 -461h-71z" />
    <glyph glyph-name="w" unicode="w" horiz-adv-x="745" 
d="M56 461h95l75 -337l148 337h93l77 -337l146 337h95l-218 -461h-74l-84 354l-158 -354h-73z" />
    <glyph glyph-name="x" unicode="x" horiz-adv-x="477" 
d="M212 232l-147 229h107l97 -165l132 165h107l-195 -229l149 -232h-107l-99 169l-134 -169h-107z" />
    <glyph glyph-name="y" unicode="y" horiz-adv-x="567" 
d="M539 461l-49 -470q-12 -108 -79 -166q-64 -50 -157 -50q-100 0 -151 48q-40 38 -40 101l1 18h87q-2 -45 23.5 -69.5t86.5 -24.5t98.5 36.5t45.5 112.5l9 86q-26 -44 -69.5 -69t-100.5 -25q-78 0 -117 43t-39 118q0 10 2 36l28 275h86l-27 -257q-2 -20 -2 -30
q0 -52 24.5 -80t81.5 -28q63 0 102 45.5t46 112.5l24 237h86z" />
    <glyph glyph-name="z" unicode="z" horiz-adv-x="440" 
d="M324 387h-251l7 74h397l-312 -388h259l-8 -73h-403z" />
    <glyph glyph-name="aacute" unicode="&#xe1;" horiz-adv-x="591" 
d="M181 573l286 115l22 -65l-286 -117zM113.5 46q-53.5 58 -53.5 151q0 11 2 33q7 68 41 123.5t89.5 87.5t125.5 32q54 0 94.5 -25.5t57.5 -68.5l8 82h86l-48 -461h-86l9 81q-26 -42 -74 -67.5t-100 -25.5q-98 0 -151.5 58zM377.5 92q39.5 26 60.5 68.5t21 92.5
q0 62 -36.5 102t-102.5 40q-50 0 -89.5 -24.5t-61.5 -67.5t-22 -96q0 -63 37 -102t101 -39q53 0 92.5 26z" />
    <glyph glyph-name="abreve" unicode="&#x103;" horiz-adv-x="591" 
d="M215 548q-43 40 -40 110h74q-1 -42 24 -64t67 -22q43 0 73 22t37 64h74q-13 -70 -64.5 -110t-126.5 -40t-118 40zM113.5 46q-53.5 58 -53.5 151q0 11 2 33q7 68 41 123.5t89.5 87.5t125.5 32q54 0 94.5 -25.5t57.5 -68.5l8 82h86l-48 -461h-86l9 81q-26 -42 -74 -67.5
t-100 -25.5q-98 0 -151.5 58zM377.5 92q39.5 26 60.5 68.5t21 92.5q0 62 -36.5 102t-102.5 40q-50 0 -89.5 -24.5t-61.5 -67.5t-22 -96q0 -63 37 -102t101 -39q53 0 92.5 26z" />
    <glyph glyph-name="acircumflex" unicode="&#xe2;" horiz-adv-x="591" 
d="M514 552l-52 -52l-118 112l-138 -111l-42 51l189 146zM113.5 46q-53.5 58 -53.5 151q0 11 2 33q7 68 41 123.5t89.5 87.5t125.5 32q54 0 94.5 -25.5t57.5 -68.5l8 82h86l-48 -461h-86l9 81q-26 -42 -74 -67.5t-100 -25.5q-98 0 -151.5 58zM377.5 92q39.5 26 60.5 68.5
t21 92.5q0 62 -36.5 102t-102.5 40q-50 0 -89.5 -24.5t-61.5 -67.5t-22 -96q0 -63 37 -102t101 -39q53 0 92.5 26z" />
    <glyph glyph-name="adieresis" unicode="&#xe4;" horiz-adv-x="591" 
d="M194 556q-17 17 -17 43q0 30 22.5 52t51.5 22q26 0 43 -17t17 -43q0 -30 -22.5 -52t-51.5 -22q-26 0 -43 17zM394 556q-17 17 -17 43q0 30 22.5 52t51.5 22q26 0 43 -17t17 -43q0 -30 -22.5 -52t-51.5 -22q-26 0 -43 17zM113.5 46q-53.5 58 -53.5 151q0 11 2 33
q7 68 41 123.5t89.5 87.5t125.5 32q54 0 94.5 -25.5t57.5 -68.5l8 82h86l-48 -461h-86l9 81q-26 -42 -74 -67.5t-100 -25.5q-98 0 -151.5 58zM377.5 92q39.5 26 60.5 68.5t21 92.5q0 62 -36.5 102t-102.5 40q-50 0 -89.5 -24.5t-61.5 -67.5t-22 -96q0 -63 37 -102t101 -39
q53 0 92.5 26z" />
    <glyph glyph-name="ae" unicode="&#xe6;" horiz-adv-x="871" 
d="M852 203h-358q-5 -66 30.5 -103t102.5 -37q91 0 127 74h88q-19 -67 -81 -108.5t-142 -41.5q-63 0 -109.5 26.5t-71.5 74.5q-73 -100 -213 -100q-77 0 -123.5 32.5t-46.5 87.5q0 9 1 14q8 76 66 112q32 21 73.5 28t120.5 7h105l4 40l1 13q0 37 -27.5 59t-86.5 22t-92 -24
t-41 -69h-87q12 74 75 118.5t155 44.5q126 0 168 -77q34 36 79.5 55.5t96.5 19.5q89 0 142 -52t53 -137q0 -18 -1 -27q-3 -29 -8 -52zM776 270q1 7 1 20q0 52 -32 82.5t-87 30.5q-62 0 -105 -36.5t-52 -96.5h275zM414 203h-137q-69 0 -101.5 -22.5t-32.5 -60.5
q0 -32 28 -47.5t78 -15.5q61 0 109 32.5t54 93.5z" />
    <glyph glyph-name="aeacute" unicode="&#x1fd;" horiz-adv-x="871" 
d="M367 506l-22 67l286 115l22 -65zM852 203h-358q-5 -66 30.5 -103t102.5 -37q91 0 127 74h88q-19 -67 -81 -108.5t-142 -41.5q-63 0 -109.5 26.5t-71.5 74.5q-73 -100 -213 -100q-77 0 -123.5 32.5t-46.5 87.5q0 9 1 14q8 76 66 112q32 21 73.5 28t120.5 7h105l4 40l1 13
q0 37 -27.5 59t-86.5 22t-92 -24t-41 -69h-87q12 74 75 118.5t155 44.5q126 0 168 -77q34 36 79.5 55.5t96.5 19.5q89 0 142 -52t53 -137q0 -18 -1 -27q-3 -29 -8 -52zM776 270q1 7 1 20q0 52 -32 82.5t-87 30.5q-62 0 -105 -36.5t-52 -96.5h275zM414 203h-137
q-69 0 -101.5 -22.5t-32.5 -60.5q0 -32 28 -47.5t78 -15.5q61 0 109 32.5t54 93.5z" />
    <glyph glyph-name="agrave" unicode="&#xe0;" horiz-adv-x="591" 
d="M186 622l36 65l262 -115l-36 -67zM113.5 46q-53.5 58 -53.5 151q0 11 2 33q7 68 41 123.5t89.5 87.5t125.5 32q54 0 94.5 -25.5t57.5 -68.5l8 82h86l-48 -461h-86l9 81q-26 -42 -74 -67.5t-100 -25.5q-98 0 -151.5 58zM377.5 92q39.5 26 60.5 68.5t21 92.5
q0 62 -36.5 102t-102.5 40q-50 0 -89.5 -24.5t-61.5 -67.5t-22 -96q0 -63 37 -102t101 -39q53 0 92.5 26z" />
    <glyph glyph-name="amacron" unicode="&#x101;" horiz-adv-x="591" 
d="M187 625h318l-8 -70h-318zM113.5 46q-53.5 58 -53.5 151q0 11 2 33q7 68 41 123.5t89.5 87.5t125.5 32q54 0 94.5 -25.5t57.5 -68.5l8 82h86l-48 -461h-86l9 81q-26 -42 -74 -67.5t-100 -25.5q-98 0 -151.5 58zM377.5 92q39.5 26 60.5 68.5t21 92.5q0 62 -36.5 102
t-102.5 40q-50 0 -89.5 -24.5t-61.5 -67.5t-22 -96q0 -63 37 -102t101 -39q53 0 92.5 26z" />
    <glyph glyph-name="aogonek" unicode="&#x105;" horiz-adv-x="591" 
d="M527 -133l-7 -64q-41 -15 -81 -15q-49 0 -78 24.5t-29 62.5q0 36 25 68t73 57l9 81q-26 -42 -74 -67.5t-100 -25.5q-98 0 -151.5 58t-53.5 151q0 11 2 33q7 68 41 123.5t89.5 87.5t125.5 32q54 0 94.5 -25.5t57.5 -68.5l8 82h86l-48 -461q-52 -11 -76.5 -38t-24.5 -58
q0 -23 15 -36.5t40 -13.5q28 0 57 13zM377.5 92q39.5 26 60.5 68.5t21 92.5q0 62 -36.5 102t-102.5 40q-50 0 -89.5 -24.5t-61.5 -67.5t-22 -96q0 -63 37 -102t101 -39q53 0 92.5 26z" />
    <glyph glyph-name="aring" unicode="&#xe5;" horiz-adv-x="591" 
d="M260 525.5q-28 26.5 -28 69.5q0 52 36.5 87t86.5 35q44 0 72.5 -27t28.5 -69q0 -52 -36.5 -87t-87.5 -35q-44 0 -72 26.5zM385 564.5q20 20.5 20 51.5q0 25 -15 40.5t-39 15.5q-28 0 -48 -20.5t-20 -51.5q0 -25 15 -40.5t39 -15.5q28 0 48 20.5zM113.5 46
q-53.5 58 -53.5 151q0 11 2 33q7 68 41 123.5t89.5 87.5t125.5 32q54 0 94.5 -25.5t57.5 -68.5l8 82h86l-48 -461h-86l9 81q-26 -42 -74 -67.5t-100 -25.5q-98 0 -151.5 58zM377.5 92q39.5 26 60.5 68.5t21 92.5q0 62 -36.5 102t-102.5 40q-50 0 -89.5 -24.5t-61.5 -67.5
t-22 -96q0 -63 37 -102t101 -39q53 0 92.5 26z" />
    <glyph glyph-name="atilde" unicode="&#xe3;" horiz-adv-x="591" 
d="M375 538.5q-16 7.5 -40 23.5q-20 13 -33.5 19.5t-27.5 6.5q-18 0 -36 -9t-40 -33l-28 46q47 67 106 67q19 0 35 -7.5t39 -22.5q22 -13 35 -19.5t28 -6.5q19 0 36.5 9.5t37.5 31.5l28 -46q-46 -67 -104 -67q-20 0 -36 7.5zM113.5 46q-53.5 58 -53.5 151q0 11 2 33
q7 68 41 123.5t89.5 87.5t125.5 32q54 0 94.5 -25.5t57.5 -68.5l8 82h86l-48 -461h-86l9 81q-26 -42 -74 -67.5t-100 -25.5q-98 0 -151.5 58zM377.5 92q39.5 26 60.5 68.5t21 92.5q0 62 -36.5 102t-102.5 40q-50 0 -89.5 -24.5t-61.5 -67.5t-22 -96q0 -63 37 -102t101 -39
q53 0 92.5 26z" />
    <glyph glyph-name="cacute" unicode="&#x107;" horiz-adv-x="519" 
d="M165 573l286 115l22 -65l-286 -117zM115 45q-55 56 -55 151q0 10 2 34q7 71 41 126t89 85.5t125 30.5q92 0 144 -46.5t53 -124.5h-87q-5 46 -35 69.5t-85 23.5q-66 0 -108.5 -43.5t-50.5 -120.5q-2 -20 -2 -28q0 -64 33.5 -100t93.5 -36q54 0 89 23t49 67h87
q-16 -76 -78 -121.5t-154 -45.5q-96 0 -151 56z" />
    <glyph glyph-name="ccaron" unicode="&#x10d;" horiz-adv-x="519" 
d="M158 648l52 51l116 -111l141 112l41 -52l-191 -146zM115 45q-55 56 -55 151q0 10 2 34q7 71 41 126t89 85.5t125 30.5q92 0 144 -46.5t53 -124.5h-87q-5 46 -35 69.5t-85 23.5q-66 0 -108.5 -43.5t-50.5 -120.5q-2 -20 -2 -28q0 -64 33.5 -100t93.5 -36q54 0 89 23t49 67
h87q-16 -76 -78 -121.5t-154 -45.5q-96 0 -151 56z" />
    <glyph glyph-name="ccedilla" unicode="&#xe7;" horiz-adv-x="519" 
d="M362 89q35 23 49 67h87q-15 -72 -71 -116.5t-140 -49.5l-6 -53q7 7 20 11t28 4q29 0 48.5 -18.5t19.5 -51.5q0 -41 -27.5 -69t-73.5 -28q-37 0 -58 18.5t-20 52.5h46q-1 -14 9.5 -23t26.5 -9q22 0 35 14.5t13 42.5q0 17 -10 26.5t-27 9.5q-25 0 -41 -20h-40l10 93
q-85 7 -132.5 62.5t-47.5 142.5q0 11 2 35q7 71 41 126t89 85.5t125 30.5q92 0 144 -46.5t53 -124.5h-87q-5 46 -35 69.5t-85 23.5q-66 0 -108.5 -43.5t-50.5 -120.5q-2 -20 -2 -28q0 -64 33.5 -100t93.5 -36q54 0 89 23z" />
    <glyph glyph-name="ccircumflex" unicode="&#x109;" horiz-adv-x="519" 
d="M498 552l-52 -52l-118 112l-138 -111l-42 51l189 146zM115 45q-55 56 -55 151q0 10 2 34q7 71 41 126t89 85.5t125 30.5q92 0 144 -46.5t53 -124.5h-87q-5 46 -35 69.5t-85 23.5q-66 0 -108.5 -43.5t-50.5 -120.5q-2 -20 -2 -28q0 -64 33.5 -100t93.5 -36q54 0 89 23
t49 67h87q-16 -76 -78 -121.5t-154 -45.5q-96 0 -151 56z" />
    <glyph glyph-name="cdotaccent" unicode="&#x10b;" horiz-adv-x="519" 
d="M275.5 557.5q-17.5 17.5 -17.5 44.5q0 33 23 56t56 23q28 0 45 -18t17 -45q0 -33 -22 -55.5t-55 -22.5q-29 0 -46.5 17.5zM115 45q-55 56 -55 151q0 10 2 34q7 71 41 126t89 85.5t125 30.5q92 0 144 -46.5t53 -124.5h-87q-5 46 -35 69.5t-85 23.5q-66 0 -108.5 -43.5
t-50.5 -120.5q-2 -20 -2 -28q0 -64 33.5 -100t93.5 -36q54 0 89 23t49 67h87q-16 -76 -78 -121.5t-154 -45.5q-96 0 -151 56z" />
    <glyph glyph-name="dcaron" unicode="&#x10f;" horiz-adv-x="721" 
d="M642 498l5 40q6 -1 17 -1q38 0 54 28q10 18 10 45q-14 -17 -42 -17q-21 0 -34.5 14.5t-13.5 36.5q0 31 20 50.5t51 19.5q32 0 51.5 -21.5t19.5 -61.5q0 -62 -33 -98.5t-86 -36.5q-13 0 -19 2zM590 700l-74 -700h-86l9 81q-26 -42 -74 -67.5t-100 -25.5q-98 0 -151.5 58
t-53.5 151q0 11 2 33q7 68 41 123.5t89.5 87.5t125.5 32q54 0 94.5 -25.5t57.5 -68.5l34 321h86zM377.5 92q39.5 26 60.5 68.5t21 92.5q0 62 -36.5 102t-102.5 40q-50 0 -89.5 -24.5t-61.5 -67.5t-22 -96q0 -63 37 -102t101 -39q53 0 92.5 26z" />
    <glyph glyph-name="dcroat" unicode="&#x111;" horiz-adv-x="591" 
d="M625 536h-53l-56 -536h-86l9 81q-26 -42 -74 -67.5t-100 -25.5q-98 0 -151.5 58t-53.5 151q0 11 2 33q7 68 41 123.5t89.5 87.5t125.5 32q54 0 94.5 -25.5t57.5 -68.5l16 157h-157l7 59h157l11 105h86l-11 -105h53zM377.5 92q39.5 26 60.5 68.5t21 92.5q0 62 -36.5 102
t-102.5 40q-50 0 -89.5 -24.5t-61.5 -67.5t-22 -96q0 -63 37 -102t101 -39q53 0 92.5 26z" />
    <glyph glyph-name="eacute" unicode="&#xe9;" horiz-adv-x="521" 
d="M188 506l-22 67l286 115l22 -65zM503 205h-357q-1 -6 -1 -18q0 -58 34.5 -90.5t96.5 -32.5q92 0 129 68h87q-19 -64 -81 -104t-143 -40q-98 0 -153 55.5t-55 152.5q0 11 2 35q8 72 42 127t88.5 85t122.5 30q90 0 143 -52t53 -138q0 -18 -1 -27q-3 -30 -7 -51zM427 272
q1 6 1 18q0 53 -32 83t-90 30q-62 0 -103 -36t-50 -95h274z" />
    <glyph glyph-name="ebreve" unicode="&#x115;" horiz-adv-x="521" 
d="M200 548q-43 40 -40 110h74q-1 -42 24 -64t67 -22q43 0 73 22t37 64h74q-13 -70 -64.5 -110t-126.5 -40t-118 40zM503 205h-357q-1 -6 -1 -18q0 -58 34.5 -90.5t96.5 -32.5q92 0 129 68h87q-19 -64 -81 -104t-143 -40q-98 0 -153 55.5t-55 152.5q0 11 2 35q8 72 42 127
t88.5 85t122.5 30q90 0 143 -52t53 -138q0 -18 -1 -27q-3 -30 -7 -51zM427 272q1 6 1 18q0 53 -32 83t-90 30q-62 0 -103 -36t-50 -95h274z" />
    <glyph glyph-name="ecaron" unicode="&#x11b;" horiz-adv-x="521" 
d="M318 502l-159 146l52 51l116 -111l141 112l41 -52zM503 205h-357q-1 -6 -1 -18q0 -58 34.5 -90.5t96.5 -32.5q92 0 129 68h87q-19 -64 -81 -104t-143 -40q-98 0 -153 55.5t-55 152.5q0 11 2 35q8 72 42 127t88.5 85t122.5 30q90 0 143 -52t53 -138q0 -18 -1 -27
q-3 -30 -7 -51zM427 272q1 6 1 18q0 53 -32 83t-90 30q-62 0 -103 -36t-50 -95h274z" />
    <glyph glyph-name="ecircumflex" unicode="&#xea;" horiz-adv-x="521" 
d="M191 501l-42 51l189 146l161 -146l-52 -52l-118 112zM503 205h-357q-1 -6 -1 -18q0 -58 34.5 -90.5t96.5 -32.5q92 0 129 68h87q-19 -64 -81 -104t-143 -40q-98 0 -153 55.5t-55 152.5q0 11 2 35q8 72 42 127t88.5 85t122.5 30q90 0 143 -52t53 -138q0 -18 -1 -27
q-3 -30 -7 -51zM427 272q1 6 1 18q0 53 -32 83t-90 30q-62 0 -103 -36t-50 -95h274z" />
    <glyph glyph-name="edieresis" unicode="&#xeb;" horiz-adv-x="521" 
d="M179 556q-17 17 -17 43q0 30 22.5 52t51.5 22q26 0 43 -17t17 -43q0 -30 -22.5 -52t-51.5 -22q-26 0 -43 17zM379 556q-17 17 -17 43q0 30 22.5 52t51.5 22q26 0 43 -17t17 -43q0 -30 -22.5 -52t-51.5 -22q-26 0 -43 17zM503 205h-357q-1 -6 -1 -18q0 -58 34.5 -90.5
t96.5 -32.5q92 0 129 68h87q-19 -64 -81 -104t-143 -40q-98 0 -153 55.5t-55 152.5q0 11 2 35q8 72 42 127t88.5 85t122.5 30q90 0 143 -52t53 -138q0 -18 -1 -27q-3 -30 -7 -51zM427 272q1 6 1 18q0 53 -32 83t-90 30q-62 0 -103 -36t-50 -95h274z" />
    <glyph glyph-name="edotaccent" unicode="&#x117;" horiz-adv-x="521" 
d="M276.5 557.5q-17.5 17.5 -17.5 44.5q0 33 23 56t56 23q28 0 45 -18t17 -45q0 -33 -22 -55.5t-55 -22.5q-29 0 -46.5 17.5zM503 205h-357q-1 -6 -1 -18q0 -58 34.5 -90.5t96.5 -32.5q92 0 129 68h87q-19 -64 -81 -104t-143 -40q-98 0 -153 55.5t-55 152.5q0 11 2 35
q8 72 42 127t88.5 85t122.5 30q90 0 143 -52t53 -138q0 -18 -1 -27q-3 -30 -7 -51zM427 272q1 6 1 18q0 53 -32 83t-90 30q-62 0 -103 -36t-50 -95h274z" />
    <glyph glyph-name="egrave" unicode="&#xe8;" horiz-adv-x="521" 
d="M434 505l-262 117l36 65l262 -115zM503 205h-357q-1 -6 -1 -18q0 -58 34.5 -90.5t96.5 -32.5q92 0 129 68h87q-19 -64 -81 -104t-143 -40q-98 0 -153 55.5t-55 152.5q0 11 2 35q8 72 42 127t88.5 85t122.5 30q90 0 143 -52t53 -138q0 -18 -1 -27q-3 -30 -7 -51zM427 272
q1 6 1 18q0 53 -32 83t-90 30q-62 0 -103 -36t-50 -95h274z" />
    <glyph glyph-name="emacron" unicode="&#x113;" horiz-adv-x="521" 
d="M482 555h-318l8 70h318zM503 205h-357q-1 -6 -1 -18q0 -58 34.5 -90.5t96.5 -32.5q92 0 129 68h87q-19 -64 -81 -104t-143 -40q-98 0 -153 55.5t-55 152.5q0 11 2 35q8 72 42 127t88.5 85t122.5 30q90 0 143 -52t53 -138q0 -18 -1 -27q-3 -30 -7 -51zM427 272q1 6 1 18
q0 53 -32 83t-90 30q-62 0 -103 -36t-50 -95h274z" />
    <glyph glyph-name="eogonek" unicode="&#x119;" horiz-adv-x="521" 
d="M503 205h-357q-1 -6 -1 -18q0 -58 34.5 -90.5t96.5 -32.5q92 0 129 68h87q-15 -52 -60 -89t-108 -49q-39 -13 -58 -38t-19 -52q0 -23 15 -36.5t40 -13.5q28 0 57 13l-7 -64q-41 -15 -81 -15q-49 0 -78 24.5t-29 62.5q0 32 20 61t59 53q-87 7 -135 62t-48 145q0 11 2 35
q8 72 42 127t88.5 85t122.5 30q90 0 143 -52t53 -138q0 -18 -1 -27q-3 -30 -7 -51zM427 272q1 6 1 18q0 53 -32 83t-90 30q-62 0 -103 -36t-50 -95h274z" />
    <glyph glyph-name="gbreve" unicode="&#x11f;" horiz-adv-x="591" 
d="M218 548q-43 40 -40 110h74q-1 -42 24 -64t67 -22q43 0 73 22t37 64h74q-13 -70 -64.5 -110t-126.5 -40t-118 40zM564 460l-47 -448q-7 -66 -32.5 -115t-67.5 -79q-62 -43 -164 -43q-48 0 -89 11.5t-70 33.5t-43 53.5t-12 68.5h91q0 -42 33 -68t97 -26q76 0 119 38.5
t52 119.5l8 75q-27 -43 -75 -68t-99 -25q-64 0 -110 27t-70.5 75t-24.5 109q0 9 2 31q7 68 42 123.5t91 87.5t123 32q54 0 94.5 -25t57.5 -69l8 81h86zM375.5 91.5q39.5 25.5 61.5 68t22 92.5q0 63 -37 103t-102 40q-49 0 -88.5 -24.5t-62 -67t-22.5 -94.5q0 -63 38 -103
t100 -40q51 0 90.5 25.5z" />
    <glyph glyph-name="gcircumflex" unicode="&#x11d;" horiz-adv-x="591" 
d="M517 552l-52 -52l-118 112l-138 -111l-42 51l189 146zM564 460l-47 -448q-7 -66 -32.5 -115t-67.5 -79q-62 -43 -164 -43q-48 0 -89 11.5t-70 33.5t-43 53.5t-12 68.5h91q0 -42 33 -68t97 -26q76 0 119 38.5t52 119.5l8 75q-27 -43 -75 -68t-99 -25q-64 0 -110 27
t-70.5 75t-24.5 109q0 9 2 31q7 68 42 123.5t91 87.5t123 32q54 0 94.5 -25t57.5 -69l8 81h86zM375.5 91.5q39.5 25.5 61.5 68t22 92.5q0 63 -37 103t-102 40q-49 0 -88.5 -24.5t-62 -67t-22.5 -94.5q0 -63 38 -103t100 -40q51 0 90.5 25.5z" />
    <glyph glyph-name="gcommaaccent" unicode="&#x123;" horiz-adv-x="591" 
d="M388 662q-39 0 -58 -24q-14 -15 -14 -32q2 4 9 7t15 3q20 0 31.5 -13t11.5 -32q0 -24 -17 -40.5t-41 -16.5q-25 0 -40 18.5t-15 48.5q0 51 33 81t88 31zM564 460l-47 -448q-7 -66 -32.5 -115t-67.5 -79q-62 -43 -164 -43q-48 0 -89 11.5t-70 33.5t-43 53.5t-12 68.5h91
q0 -42 33 -68t97 -26q76 0 119 38.5t52 119.5l8 75q-27 -43 -75 -68t-99 -25q-64 0 -110 27t-70.5 75t-24.5 109q0 9 2 31q7 68 42 123.5t91 87.5t123 32q54 0 94.5 -25t57.5 -69l8 81h86zM375.5 91.5q39.5 25.5 61.5 68t22 92.5q0 63 -37 103t-102 40q-49 0 -88.5 -24.5
t-62 -67t-22.5 -94.5q0 -63 38 -103t100 -40q51 0 90.5 25.5z" />
    <glyph glyph-name="gdotaccent" unicode="&#x121;" horiz-adv-x="591" 
d="M294.5 557.5q-17.5 17.5 -17.5 44.5q0 33 23 56t56 23q28 0 45 -18t17 -45q0 -33 -22 -55.5t-55 -22.5q-29 0 -46.5 17.5zM564 460l-47 -448q-7 -66 -32.5 -115t-67.5 -79q-62 -43 -164 -43q-48 0 -89 11.5t-70 33.5t-43 53.5t-12 68.5h91q0 -42 33 -68t97 -26
q76 0 119 38.5t52 119.5l8 75q-27 -43 -75 -68t-99 -25q-64 0 -110 27t-70.5 75t-24.5 109q0 9 2 31q7 68 42 123.5t91 87.5t123 32q54 0 94.5 -25t57.5 -69l8 81h86zM375.5 91.5q39.5 25.5 61.5 68t22 92.5q0 63 -37 103t-102 40q-49 0 -88.5 -24.5t-62 -67t-22.5 -94.5
q0 -63 38 -103t100 -40q51 0 90.5 25.5z" />
    <glyph glyph-name="hbar" unicode="&#x127;" horiz-adv-x="566" 
d="M489 434q39 -39 39 -114q0 -10 -2 -36l-30 -284h-87l26 246q2 14 2 39q0 58 -24 85.5t-78 27.5q-63 0 -101 -41.5t-45 -112.5l-26 -244h-87l56 536h-48l7 59h48l11 105h87l-11 -105h161l-7 -59h-161l-16 -160q24 45 68 71t103 26q76 0 115 -39z" />
    <glyph glyph-name="hcircumflex" unicode="&#x125;" horiz-adv-x="566" 
d="M204 804l-77 -61l-35 44l119 93l102 -93l-46 -44zM489 434q39 -39 39 -114q0 -10 -2 -36l-30 -284h-87l26 246q2 14 2 39q0 58 -24 85.5t-78 27.5q-63 0 -101 -41.5t-45 -112.5l-26 -244h-87l74 700h87l-34 -324q24 45 68 71t103 26q76 0 115 -39z" />
    <glyph glyph-name="iacute" unicode="&#xed;" horiz-adv-x="236" 
d="M84 576l160 99l34 -60l-161 -99zM123 461h86l-48 -461h-86z" />
    <glyph glyph-name="ibreve" unicode="&#x12d;" horiz-adv-x="236" 
d="M100.5 537.5q-26.5 24.5 -26.5 78.5q0 16 1 25h59q-4 -73 43 -73t57 73h60q-8 -68 -41 -98t-82 -30q-44 0 -70.5 24.5zM123 461h86l-48 -461h-86z" />
    <glyph glyph-name="icircumflex" unicode="&#xee;" horiz-adv-x="236" 
d="M56 568l132 111l111 -111l-54 -51l-66 71l-81 -70zM123 461h86l-48 -461h-86z" />
    <glyph glyph-name="idieresis" unicode="&#xef;" horiz-adv-x="236" 
d="M71.5 562q-14.5 15 -14.5 36q0 26 18.5 44.5t44.5 18.5q23 0 37.5 -14.5t14.5 -36.5q0 -25 -19.5 -44t-44.5 -19q-22 0 -36.5 15zM204.5 562q-14.5 15 -14.5 36q0 26 19 44.5t44 18.5q23 0 37.5 -14.5t14.5 -36.5q0 -25 -19.5 -44t-44.5 -19q-22 0 -36.5 15zM123 461h86
l-48 -461h-86z" />
    <glyph glyph-name="dotlessi" unicode="&#x131;" horiz-adv-x="236" 
d="M123 461h86l-48 -461h-86z" />
    <glyph glyph-name="igrave" unicode="&#xec;" horiz-adv-x="236" 
d="M88 615l46 60l140 -99l-47 -60zM123 461h86l-48 -461h-86z" />
    <glyph glyph-name="ij" unicode="&#x133;" horiz-adv-x="476" 
d="M128.5 557.5q-17.5 17.5 -17.5 44.5q0 33 23 56t56 23q28 0 45 -18t17 -45q0 -33 -22 -55.5t-55 -22.5q-29 0 -46.5 17.5zM368.5 557.5q-17.5 17.5 -17.5 44.5q0 33 23 56t56 23q28 0 45 -18t17 -45q0 -33 -22 -55.5t-55 -22.5q-29 0 -46.5 17.5zM123 461h86l-48 -461
h-86zM194 -208l8 79q19 -7 47 -7q51 0 57 62l56 535h87l-58 -559q-6 -58 -41 -89.5t-93 -31.5q-44 0 -63 11z" />
    <glyph glyph-name="imacron" unicode="&#x12b;" horiz-adv-x="236" 
d="M85 625h198l-8 -70h-198zM123 461h86l-48 -461h-86z" />
    <glyph glyph-name="iogonek" unicode="&#x12f;" horiz-adv-x="236" 
d="M128.5 557.5q-17.5 17.5 -17.5 44.5q0 33 23 56t56 23q28 0 45 -18t17 -45q0 -33 -22 -55.5t-55 -22.5q-29 0 -46.5 17.5zM75 -132.5q15 -13.5 40 -13.5q28 0 57 13l-7 -64q-41 -15 -81 -15q-49 0 -78 24.5t-29 62.5q0 36 25 68t73 57l48 461h86l-48 -461
q-52 -11 -76.5 -38t-24.5 -58q0 -23 15 -36.5z" />
    <glyph glyph-name="itilde" unicode="&#x129;" horiz-adv-x="236" 
d="M187 533q-9 7 -21 21q-9 11 -15.5 16.5t-15.5 5.5q-12 0 -21.5 -6.5t-21.5 -26.5l-16 45q15 33 34 47.5t37 14.5q16 0 27.5 -8t24.5 -22q9 -10 16 -15t14 -5q11 0 20 6t19 23l14 -46q-12 -31 -31.5 -44t-40.5 -13q-14 0 -23 7zM123 461h86l-48 -461h-86z" />
    <glyph glyph-name="jcircumflex" unicode="&#x135;" horiz-adv-x="240" 
d="M60 568l132 111l111 -111l-54 -51l-66 71l-81 -70zM-42 -208l8 79q19 -7 47 -7q51 0 57 62l56 535h87l-58 -559q-6 -58 -41 -89.5t-93 -31.5q-44 0 -63 11z" />
    <glyph glyph-name="uni0237" unicode="&#x237;" horiz-adv-x="240" 
d="M-42 -208l8 79q19 -7 47 -7q51 0 57 62l56 535h87l-58 -559q-6 -58 -41 -89.5t-93 -31.5q-44 0 -63 11z" />
    <glyph glyph-name="kcommaaccent" unicode="&#x137;" horiz-adv-x="505" 
d="M279 238l198 -238h-114l-179 218l-23 -218h-86l74 700h86l-48 -451l227 212h111zM296.5 -46.5q15.5 -16.5 15.5 -42.5l-1 -12q-10 -103 -115 -105l4 30q41 0 56 26q10 10 12 30q-2 -4 -8 -6.5t-13 -2.5q-22 0 -34.5 12t-12.5 31q0 23 16.5 39.5t39.5 16.5
q25 0 40.5 -16.5z" />
    <glyph glyph-name="kgreenlandic" unicode="&#x138;" horiz-adv-x="505" 
d="M279 238l198 -238h-114l-179 218l-23 -218h-86l48 461h86l-22 -212l227 212h111z" />
    <glyph glyph-name="lacute" unicode="&#x13a;" horiz-adv-x="237" 
d="M101 794l172 99l34 -57l-173 -99zM149 700h87l-74 -700h-87z" />
    <glyph glyph-name="lcaron" unicode="&#x13e;" horiz-adv-x="375" 
d="M301 498l5 40q6 -1 17 -1q38 0 54 28q10 18 10 45q-14 -17 -42 -17q-21 0 -34.5 14.5t-13.5 36.5q0 31 20 50.5t51 19.5q32 0 51.5 -21.5t19.5 -61.5q0 -62 -33 -98.5t-86 -36.5q-13 0 -19 2zM149 700h87l-74 -700h-87z" />
    <glyph glyph-name="lcommaaccent" unicode="&#x13c;" horiz-adv-x="237" 
d="M149 700h87l-74 -700h-87zM56 -176q41 0 56 26q10 10 12 30q-2 -4 -8 -6.5t-13 -2.5q-22 0 -34.5 12t-12.5 31q0 23 16.5 39.5t39.5 16.5q25 0 40.5 -16.5t15.5 -42.5l-1 -12q-10 -103 -115 -105z" />
    <glyph glyph-name="ldot" unicode="&#x140;" horiz-adv-x="365" 
d="M149 700h87l-74 -700h-87zM268.5 297q-18.5 19 -18.5 46q0 33 23.5 56.5t55.5 23.5q29 0 48 -18.5t19 -46.5q0 -32 -25 -56t-57 -24q-27 0 -45.5 19z" />
    <glyph glyph-name="lslash" unicode="&#x142;" horiz-adv-x="237" 
d="M273 392l-77 -39l-37 -353h-87l32 306l-71 -36l7 67l71 36l35 327h87l-30 -280l77 39z" />
    <glyph glyph-name="nacute" unicode="&#x144;" horiz-adv-x="564" 
d="M182 573l286 115l22 -65l-286 -117zM123 461h87l-8 -85q24 45 68 71t103 26q76 0 114.5 -39t38.5 -114q0 -10 -2 -36l-30 -284h-86l26 246q2 28 2 39q0 58 -24.5 85.5t-77.5 27.5q-63 0 -101 -41.5t-45 -112.5l-26 -244h-87z" />
    <glyph glyph-name="napostrophe" unicode="&#x149;" horiz-adv-x="586" 
d="M88 498l5 40q6 -1 17 -1q38 0 54 28q10 18 10 45q-14 -17 -42 -17q-21 0 -34.5 14.5t-13.5 36.5q0 31 20 50.5t51 19.5q32 0 51.5 -21.5t19.5 -61.5q0 -62 -33 -98.5t-86 -36.5q-13 0 -19 2zM145 461h87l-8 -85q24 45 68 71t103 26q76 0 114.5 -39t38.5 -114
q0 -10 -2 -36l-30 -284h-86l26 246q2 28 2 39q0 58 -24.5 85.5t-77.5 27.5q-63 0 -101 -41.5t-45 -112.5l-26 -244h-87z" />
    <glyph glyph-name="ncaron" unicode="&#x148;" horiz-adv-x="564" 
d="M175 648l52 51l116 -111l141 112l41 -52l-191 -146zM123 461h87l-8 -85q24 45 68 71t103 26q76 0 114.5 -39t38.5 -114q0 -10 -2 -36l-30 -284h-86l26 246q2 28 2 39q0 58 -24.5 85.5t-77.5 27.5q-63 0 -101 -41.5t-45 -112.5l-26 -244h-87z" />
    <glyph glyph-name="ncommaaccent" unicode="&#x146;" horiz-adv-x="564" 
d="M123 461h87l-8 -85q24 45 68 71t103 26q76 0 114.5 -39t38.5 -114q0 -10 -2 -36l-30 -284h-86l26 246q2 28 2 39q0 58 -24.5 85.5t-77.5 27.5q-63 0 -101 -41.5t-45 -112.5l-26 -244h-87zM219 -176q41 0 56 26q10 10 12 30q-2 -4 -8 -6.5t-13 -2.5q-22 0 -34.5 12
t-12.5 31q0 23 16.5 39.5t39.5 16.5q25 0 40.5 -16.5t15.5 -42.5l-1 -12q-10 -103 -115 -105z" />
    <glyph glyph-name="ntilde" unicode="&#xf1;" horiz-adv-x="564" 
d="M376 538.5q-16 7.5 -40 23.5q-20 13 -33.5 19.5t-27.5 6.5q-18 0 -36 -9t-40 -33l-28 46q47 67 106 67q19 0 35 -7.5t39 -22.5q22 -13 35 -19.5t28 -6.5q19 0 36.5 9.5t37.5 31.5l28 -46q-46 -67 -104 -67q-20 0 -36 7.5zM123 461h87l-8 -85q24 45 68 71t103 26
q76 0 114.5 -39t38.5 -114q0 -10 -2 -36l-30 -284h-86l26 246q2 28 2 39q0 58 -24.5 85.5t-77.5 27.5q-63 0 -101 -41.5t-45 -112.5l-26 -244h-87z" />
    <glyph glyph-name="eng" unicode="&#x14b;" horiz-adv-x="564" 
d="M487.5 434q38.5 -39 38.5 -114q0 -10 -2 -36l-40 -382q-6 -58 -40.5 -89.5t-92.5 -31.5q-44 0 -63 11l8 79q19 -7 47 -7q51 0 57 62l34 320q2 28 2 39q0 58 -24.5 85.5t-77.5 27.5q-63 0 -101 -41.5t-45 -112.5l-26 -244h-87l48 461h87l-8 -85q24 45 68 71t103 26
q76 0 114.5 -39z" />
    <glyph glyph-name="oacute" unicode="&#xf3;" horiz-adv-x="555" 
d="M178 573l286 115l22 -65l-286 -117zM160 15.5q-49 27.5 -74.5 75.5t-25.5 109q0 10 2 30q7 68 42 123.5t93 87.5t131 32q67 0 116 -27.5t74.5 -76t25.5 -109.5q0 -10 -2 -30q-7 -67 -42 -122.5t-92.5 -87.5t-130.5 -32q-68 0 -117 27.5zM375 91q39 25 60 68t21 95
q0 63 -35.5 102t-100.5 39q-51 0 -90.5 -25t-61 -67.5t-21.5 -93.5q0 -63 36.5 -103t101.5 -40q51 0 90 25z" />
    <glyph glyph-name="obreve" unicode="&#x14f;" horiz-adv-x="555" 
d="M212 548q-43 40 -40 110h74q-1 -42 24 -64t67 -22q43 0 73 22t37 64h74q-13 -70 -64.5 -110t-126.5 -40t-118 40zM160 15.5q-49 27.5 -74.5 75.5t-25.5 109q0 10 2 30q7 68 42 123.5t93 87.5t131 32q67 0 116 -27.5t74.5 -76t25.5 -109.5q0 -10 -2 -30q-7 -67 -42 -122.5
t-92.5 -87.5t-130.5 -32q-68 0 -117 27.5zM375 91q39 25 60 68t21 95q0 63 -35.5 102t-100.5 39q-51 0 -90.5 -25t-61 -67.5t-21.5 -93.5q0 -63 36.5 -103t101.5 -40q51 0 90 25z" />
    <glyph glyph-name="ocircumflex" unicode="&#xf4;" horiz-adv-x="555" 
d="M511 552l-52 -52l-118 112l-138 -111l-42 51l189 146zM160 15.5q-49 27.5 -74.5 75.5t-25.5 109q0 10 2 30q7 68 42 123.5t93 87.5t131 32q67 0 116 -27.5t74.5 -76t25.5 -109.5q0 -10 -2 -30q-7 -67 -42 -122.5t-92.5 -87.5t-130.5 -32q-68 0 -117 27.5zM375 91
q39 25 60 68t21 95q0 63 -35.5 102t-100.5 39q-51 0 -90.5 -25t-61 -67.5t-21.5 -93.5q0 -63 36.5 -103t101.5 -40q51 0 90 25z" />
    <glyph glyph-name="odieresis" unicode="&#xf6;" horiz-adv-x="555" 
d="M191 556q-17 17 -17 43q0 30 22.5 52t51.5 22q26 0 43 -17t17 -43q0 -30 -22.5 -52t-51.5 -22q-26 0 -43 17zM391 556q-17 17 -17 43q0 30 22.5 52t51.5 22q26 0 43 -17t17 -43q0 -30 -22.5 -52t-51.5 -22q-26 0 -43 17zM160 15.5q-49 27.5 -74.5 75.5t-25.5 109
q0 10 2 30q7 68 42 123.5t93 87.5t131 32q67 0 116 -27.5t74.5 -76t25.5 -109.5q0 -10 -2 -30q-7 -67 -42 -122.5t-92.5 -87.5t-130.5 -32q-68 0 -117 27.5zM375 91q39 25 60 68t21 95q0 63 -35.5 102t-100.5 39q-51 0 -90.5 -25t-61 -67.5t-21.5 -93.5q0 -63 36.5 -103
t101.5 -40q51 0 90 25z" />
    <glyph glyph-name="oe" unicode="&#x153;" horiz-adv-x="915" 
d="M897 205h-357q-1 -6 -1 -18q0 -58 34.5 -90.5t96.5 -32.5q92 0 129 68h87q-19 -64 -81 -104t-143 -40q-63 0 -109.5 24t-71.5 69q-36 -44 -88.5 -68.5t-115.5 -24.5q-68 0 -117 27.5t-74.5 75.5t-25.5 109q0 10 2 30q7 68 42 123.5t93 87.5t131 32q64 0 111 -24.5
t74 -69.5q34 45 84.5 69.5t111.5 24.5q90 0 143 -52t53 -138q0 -18 -1 -27q-3 -30 -7 -51zM821 272q1 6 1 18q0 53 -32 83t-90 30q-62 0 -103 -36t-50 -95h274zM375 91q39 25 60 68t21 95q0 63 -35.5 102t-100.5 39q-51 0 -90.5 -25t-61 -67.5t-21.5 -93.5q0 -63 36.5 -103
t101.5 -40q51 0 90 25z" />
    <glyph glyph-name="ograve" unicode="&#xf2;" horiz-adv-x="555" 
d="M184 622l36 65l262 -115l-36 -67zM160 15.5q-49 27.5 -74.5 75.5t-25.5 109q0 10 2 30q7 68 42 123.5t93 87.5t131 32q67 0 116 -27.5t74.5 -76t25.5 -109.5q0 -10 -2 -30q-7 -67 -42 -122.5t-92.5 -87.5t-130.5 -32q-68 0 -117 27.5zM375 91q39 25 60 68t21 95
q0 63 -35.5 102t-100.5 39q-51 0 -90.5 -25t-61 -67.5t-21.5 -93.5q0 -63 36.5 -103t101.5 -40q51 0 90 25z" />
    <glyph glyph-name="ohungarumlaut" unicode="&#x151;" horiz-adv-x="555" 
d="M180 520l142 166l72 -38l-174 -151zM370 520l142 166l72 -38l-174 -151zM160 15.5q-49 27.5 -74.5 75.5t-25.5 109q0 10 2 30q7 68 42 123.5t93 87.5t131 32q67 0 116 -27.5t74.5 -76t25.5 -109.5q0 -10 -2 -30q-7 -67 -42 -122.5t-92.5 -87.5t-130.5 -32
q-68 0 -117 27.5zM375 91q39 25 60 68t21 95q0 63 -35.5 102t-100.5 39q-51 0 -90.5 -25t-61 -67.5t-21.5 -93.5q0 -63 36.5 -103t101.5 -40q51 0 90 25z" />
    <glyph glyph-name="omacron" unicode="&#x14d;" horiz-adv-x="555" 
d="M184 625h318l-8 -70h-318zM160 15.5q-49 27.5 -74.5 75.5t-25.5 109q0 10 2 30q7 68 42 123.5t93 87.5t131 32q67 0 116 -27.5t74.5 -76t25.5 -109.5q0 -10 -2 -30q-7 -67 -42 -122.5t-92.5 -87.5t-130.5 -32q-68 0 -117 27.5zM375 91q39 25 60 68t21 95q0 63 -35.5 102
t-100.5 39q-51 0 -90.5 -25t-61 -67.5t-21.5 -93.5q0 -63 36.5 -103t101.5 -40q51 0 90 25z" />
    <glyph glyph-name="ordfeminine" unicode="&#xaa;" horiz-adv-x="369" 
d="M110.5 427.5q-32.5 33.5 -32.5 88.5q0 44 20 80.5t55 58t78 21.5q35 0 60 -15t34 -40l5 47h71l-28 -268h-71l5 47q-14 -24 -43 -38.5t-64 -14.5q-57 0 -89.5 33.5zM293.5 479.5q26.5 27.5 26.5 64.5q0 31 -21 51.5t-56 20.5q-40 0 -66.5 -26.5t-26.5 -65.5
q0 -31 21 -51.5t55 -20.5q41 0 67.5 27.5z" />
    <glyph glyph-name="ordmasculine" unicode="&#xba;" horiz-adv-x="356" 
d="M116.5 428q-37.5 35 -37.5 91q0 43 21.5 79t60 57t88.5 21q65 0 103 -34.5t38 -89.5q0 -44 -22 -80.5t-61 -57.5t-88 -21q-65 0 -102.5 35zM292.5 478.5q25.5 26.5 25.5 67.5q0 31 -20 50.5t-55 19.5q-42 0 -68.5 -26t-26.5 -65q0 -32 21.5 -52.5t56.5 -20.5
q41 0 66.5 26.5z" />
    <glyph glyph-name="oslash" unicode="&#xf8;" horiz-adv-x="555" 
d="M520 366.5q24 -46.5 24 -104.5q0 -10 -2 -32q-7 -67 -42 -122.5t-92.5 -87.5t-130.5 -32q-35 0 -65 8l-39 -71l-47 23l36 67q-49 27 -75.5 75.5t-26.5 109.5q0 10 2 30q7 68 42 123.5t93 87.5t131 32q37 0 75 -10l36 66l47 -23l-35 -65q45 -28 69 -74.5zM160.5 138.5
q13.5 -30.5 40.5 -48.5l162 299q-20 6 -43 6q-51 0 -90.5 -25t-61 -67.5t-21.5 -94.5q0 -39 13.5 -69.5zM375 91q39 25 60 67.5t21 94.5q0 35 -12 64t-34 48l-159 -296q15 -3 34 -3q51 0 90 25z" />
    <glyph glyph-name="oslashacute" unicode="&#x1ff;" horiz-adv-x="555" 
d="M199 499l-22 67l287 115l22 -65zM520 366.5q24 -46.5 24 -104.5q0 -10 -2 -32q-7 -67 -42 -122.5t-92.5 -87.5t-130.5 -32q-35 0 -65 8l-39 -71l-47 23l36 67q-49 27 -75.5 75.5t-26.5 109.5q0 10 2 30q7 68 42 123.5t93 87.5t131 32q37 0 75 -10l36 66l47 -23l-35 -65
q45 -28 69 -74.5zM160.5 138.5q13.5 -30.5 40.5 -48.5l162 299q-20 6 -43 6q-51 0 -90.5 -25t-61 -67.5t-21.5 -94.5q0 -39 13.5 -69.5zM375 91q39 25 60 67.5t21 94.5q0 35 -12 64t-34 48l-159 -296q15 -3 34 -3q51 0 90 25z" />
    <glyph glyph-name="otilde" unicode="&#xf5;" horiz-adv-x="555" 
d="M372 538.5q-16 7.5 -40 23.5q-20 13 -33.5 19.5t-27.5 6.5q-18 0 -36 -9t-40 -33l-28 46q47 67 106 67q19 0 35 -7.5t39 -22.5q22 -13 35 -19.5t28 -6.5q19 0 36.5 9.5t37.5 31.5l28 -46q-46 -67 -104 -67q-20 0 -36 7.5zM160 15.5q-49 27.5 -74.5 75.5t-25.5 109
q0 10 2 30q7 68 42 123.5t93 87.5t131 32q67 0 116 -27.5t74.5 -76t25.5 -109.5q0 -10 -2 -30q-7 -67 -42 -122.5t-92.5 -87.5t-130.5 -32q-68 0 -117 27.5zM375 91q39 25 60 68t21 95q0 63 -35.5 102t-100.5 39q-51 0 -90.5 -25t-61 -67.5t-21.5 -93.5q0 -63 36.5 -103
t101.5 -40q51 0 90 25z" />
    <glyph glyph-name="racute" unicode="&#x155;" horiz-adv-x="360" 
d="M73 572l286 115l22 -65l-286 -117zM123 461h87l-11 -105q19 55 59.5 83.5t87.5 28.5q27 0 42 -4l-9 -80q-14 3 -42 3q-65 0 -105 -52t-49 -134l-21 -201h-87z" />
    <glyph glyph-name="rcaron" unicode="&#x159;" horiz-adv-x="360" 
d="M66 647l52 51l116 -111l140 112l42 -52l-191 -146zM123 461h87l-11 -105q19 55 59.5 83.5t87.5 28.5q27 0 42 -4l-9 -80q-14 3 -42 3q-65 0 -105 -52t-49 -134l-21 -201h-87z" />
    <glyph glyph-name="rcommaaccent" unicode="&#x157;" horiz-adv-x="360" 
d="M123 461h87l-11 -105q19 55 59.5 83.5t87.5 28.5q27 0 42 -4l-9 -80q-14 3 -42 3q-65 0 -105 -52t-49 -134l-21 -201h-87zM62 -176q41 0 56 26q10 10 12 30q-2 -4 -8 -6.5t-13 -2.5q-22 0 -34.5 12t-12.5 31q0 23 16.5 39.5t39.5 16.5q25 0 40.5 -16.5t15.5 -42.5l-1 -12
q-10 -103 -115 -105z" />
    <glyph glyph-name="sacute" unicode="&#x15b;" horiz-adv-x="449" 
d="M122 573l286 115l22 -65l-286 -117zM134 6q-40 18 -61 48.5t-21 68.5q0 10 1 15h86q-4 -35 23.5 -57.5t76.5 -22.5q42 0 68 20.5t26 54.5q0 19 -9.5 33t-30.5 19l-119 32q-44 12 -65.5 40t-21.5 68q0 42 24 75.5t66.5 53t96.5 19.5q79 0 121 -33t42 -89q0 -11 -1 -17h-85
q4 33 -19 52.5t-68 19.5q-39 0 -64.5 -18.5t-25.5 -50.5q0 -40 45 -52l112 -31q43 -13 67 -42t24 -66l-1 -13q-7 -67 -58.5 -106t-134.5 -39q-54 0 -94 18z" />
    <glyph glyph-name="scaron" unicode="&#x161;" horiz-adv-x="449" 
d="M115 648l52 51l116 -111l141 112l41 -52l-191 -146zM134 6q-40 18 -61 48.5t-21 68.5q0 10 1 15h86q-4 -35 23.5 -57.5t76.5 -22.5q42 0 68 20.5t26 54.5q0 19 -9.5 33t-30.5 19l-119 32q-44 12 -65.5 40t-21.5 68q0 42 24 75.5t66.5 53t96.5 19.5q79 0 121 -33t42 -89
q0 -11 -1 -17h-85q4 33 -19 52.5t-68 19.5q-39 0 -64.5 -18.5t-25.5 -50.5q0 -40 45 -52l112 -31q43 -13 67 -42t24 -66l-1 -13q-7 -67 -58.5 -106t-134.5 -39q-54 0 -94 18z" />
    <glyph glyph-name="scedilla" unicode="&#x15f;" horiz-adv-x="449" 
d="M367 31q-47 -39 -123 -43l-6 -51q7 7 20 11t28 4q29 0 48.5 -18.5t19.5 -51.5q0 -41 -27.5 -69t-73.5 -28q-37 0 -58 18.5t-20 52.5h46q-1 -14 9.5 -23t26.5 -9q22 0 35 14.5t13 42.5q0 17 -10 26.5t-27 9.5q-25 0 -41 -20h-40l10 93q-67 7 -106 44t-39 89q0 10 1 15h86
q-4 -35 23.5 -57.5t76.5 -22.5q42 0 68 20.5t26 54.5q0 19 -9.5 33t-30.5 19l-119 32q-44 12 -65.5 40t-21.5 68q0 42 24 75.5t66.5 53t96.5 19.5q79 0 121 -33t42 -89q0 -11 -1 -17h-85q4 33 -19 52.5t-68 19.5q-39 0 -64.5 -18.5t-25.5 -50.5q0 -40 45 -52l112 -31
q43 -13 67 -42t24 -66l-1 -13q-7 -63 -54 -102z" />
    <glyph glyph-name="scircumflex" unicode="&#x15d;" horiz-adv-x="449" 
d="M455 552l-52 -52l-118 112l-138 -111l-42 51l189 146zM134 6q-40 18 -61 48.5t-21 68.5q0 10 1 15h86q-4 -35 23.5 -57.5t76.5 -22.5q42 0 68 20.5t26 54.5q0 19 -9.5 33t-30.5 19l-119 32q-44 12 -65.5 40t-21.5 68q0 42 24 75.5t66.5 53t96.5 19.5q79 0 121 -33t42 -89
q0 -11 -1 -17h-85q4 33 -19 52.5t-68 19.5q-39 0 -64.5 -18.5t-25.5 -50.5q0 -40 45 -52l112 -31q43 -13 67 -42t24 -66l-1 -13q-7 -67 -58.5 -106t-134.5 -39q-54 0 -94 18z" />
    <glyph glyph-name="scommaaccent" unicode="&#x219;" horiz-adv-x="449" 
d="M134 6q-40 18 -61 48.5t-21 68.5q0 10 1 15h86q-4 -35 23.5 -57.5t76.5 -22.5q42 0 68 20.5t26 54.5q0 19 -9.5 33t-30.5 19l-119 32q-44 12 -65.5 40t-21.5 68q0 42 24 75.5t66.5 53t96.5 19.5q79 0 121 -33t42 -89q0 -11 -1 -17h-85q4 33 -19 52.5t-68 19.5
q-39 0 -64.5 -18.5t-25.5 -50.5q0 -40 45 -52l112 -31q43 -13 67 -42t24 -66l-1 -13q-7 -67 -58.5 -106t-134.5 -39q-54 0 -94 18zM159 -176q41 0 56 26q10 10 12 30q-2 -4 -8 -6.5t-13 -2.5q-22 0 -34.5 12t-12.5 31q0 23 16.5 39.5t39.5 16.5q25 0 40.5 -16.5t15.5 -42.5
l-1 -12q-10 -103 -115 -105z" />
    <glyph glyph-name="tbar" unicode="&#x167;" horiz-adv-x="360" 
d="M310 73.5q16 1.5 28 4.5l-8 -77q-30 -7 -79 -7q-53 0 -89.5 24t-36.5 101q0 10 2 34l7 64h-87l6 58h87l12 113h-83l7 73h83l16 146h87l-16 -146h116l-7 -73h-116l-12 -113h114l-6 -58h-114l-5 -45q-2 -22 -2 -29q0 -43 16.5 -57t49.5 -14q14 0 30 1.5z" />
    <glyph glyph-name="tcaron" unicode="&#x165;" horiz-adv-x="378" 
d="M423 692.5q18 -20.5 18 -57.5q0 -58 -30.5 -91t-80.5 -33q-12 0 -17 1l4 38q6 -1 17 -1q35 0 49 26q8 15 10 41q-13 -15 -40 -15q-19 0 -31.5 13.5t-12.5 34.5q0 28 18.5 46t47.5 18q30 0 48 -20.5zM210 143q0 -43 16.5 -57t49.5 -14q14 0 30 1.5t28 4.5l-8 -77
q-30 -7 -79 -7q-53 0 -89.5 24t-36.5 101q0 10 2 34l25 235h-83l7 73h83l16 146h87l-16 -146h116l-7 -73h-116l-23 -216q-2 -22 -2 -29z" />
    <glyph glyph-name="uni0163" unicode="&#x163;" horiz-adv-x="356" 
d="M345.5 -66.5q19.5 -18.5 19.5 -51.5q0 -41 -27.5 -69t-73.5 -28q-37 0 -58 18.5t-20 52.5h46q-1 -14 9.5 -23t26.5 -9q22 0 35 14.5t13 42.5q0 17 -10 26.5t-27 9.5q-25 0 -41 -20h-40l11 100q-88 14 -88 123q0 9 2 33l25 235h-83l7 73h83l16 146h87l-16 -146h116l-7 -73
h-116l-23 -216q-2 -22 -2 -29q0 -43 16.5 -57t49.5 -14q14 0 30 1.5t28 4.5l-8 -77q-19 -5 -71 -7l-6 -57q7 7 20 11t28 4q29 0 48.5 -18.5z" />
    <glyph glyph-name="uni021B" unicode="&#x21b;" horiz-adv-x="356" 
d="M306 73.5q16 1.5 28 4.5l-8 -77q-30 -7 -79 -7q-53 0 -89.5 24t-36.5 101q0 10 2 34l25 235h-83l7 73h83l16 146h87l-16 -146h116l-7 -73h-116l-23 -216q-2 -22 -2 -29q0 -43 16.5 -57t49.5 -14q14 0 30 1.5zM267.5 -46.5q15.5 -16.5 15.5 -42.5l-1 -12
q-10 -103 -115 -105l4 30q41 0 56 26q10 10 12 30q-2 -4 -8 -6.5t-13 -2.5q-22 0 -34.5 12t-12.5 31q0 23 16.5 39.5t39.5 16.5q25 0 40.5 -16.5z" />
    <glyph glyph-name="thorn" unicode="&#xfe;" horiz-adv-x="591" 
d="M149 700h86l-34 -321q27 43 75.5 68.5t104.5 25.5q90 0 144.5 -57.5t54.5 -151.5q0 -10 -2 -34q-7 -70 -42 -125t-90 -86t-121 -31q-53 0 -95 25t-60 68l-31 -294h-86zM407 90q39 24 62 66.5t23 95.5q0 63 -37.5 103t-98.5 40q-49 0 -89.5 -24t-63.5 -66.5t-23 -95.5
q0 -64 38.5 -103.5t102.5 -39.5q47 0 86 24z" />
    <glyph glyph-name="uacute" unicode="&#xfa;" horiz-adv-x="562" 
d="M183 573l286 115l22 -65l-286 -117zM129 27.5q-42 39.5 -42 116.5q0 11 2 33l29 284h87l-27 -264q-2 -20 -2 -29q0 -105 100 -105q66 0 102.5 42t43.5 104l26 252h87l-48 -461h-87l9 84q-24 -44 -67 -70t-98 -26q-73 0 -115 39.5z" />
    <glyph glyph-name="ubreve" unicode="&#x16d;" horiz-adv-x="562" 
d="M217 548q-43 40 -40 110h74q-1 -42 24 -64t67 -22q43 0 73 22t37 64h74q-13 -70 -64.5 -110t-126.5 -40t-118 40zM129 27.5q-42 39.5 -42 116.5q0 11 2 33l29 284h87l-27 -264q-2 -20 -2 -29q0 -105 100 -105q66 0 102.5 42t43.5 104l26 252h87l-48 -461h-87l9 84
q-24 -44 -67 -70t-98 -26q-73 0 -115 39.5z" />
    <glyph glyph-name="ucircumflex" unicode="&#xfb;" horiz-adv-x="562" 
d="M516 552l-52 -52l-118 112l-138 -111l-42 51l189 146zM129 27.5q-42 39.5 -42 116.5q0 11 2 33l29 284h87l-27 -264q-2 -20 -2 -29q0 -105 100 -105q66 0 102.5 42t43.5 104l26 252h87l-48 -461h-87l9 84q-24 -44 -67 -70t-98 -26q-73 0 -115 39.5z" />
    <glyph glyph-name="udieresis" unicode="&#xfc;" horiz-adv-x="562" 
d="M196 556q-17 17 -17 43q0 30 22.5 52t51.5 22q26 0 43 -17t17 -43q0 -30 -22.5 -52t-51.5 -22q-26 0 -43 17zM396 556q-17 17 -17 43q0 30 22.5 52t51.5 22q26 0 43 -17t17 -43q0 -30 -22.5 -52t-51.5 -22q-26 0 -43 17zM129 27.5q-42 39.5 -42 116.5q0 11 2 33l29 284
h87l-27 -264q-2 -20 -2 -29q0 -105 100 -105q66 0 102.5 42t43.5 104l26 252h87l-48 -461h-87l9 84q-24 -44 -67 -70t-98 -26q-73 0 -115 39.5z" />
    <glyph glyph-name="ugrave" unicode="&#xf9;" horiz-adv-x="562" 
d="M188 622l36 65l262 -115l-36 -67zM129 27.5q-42 39.5 -42 116.5q0 11 2 33l29 284h87l-27 -264q-2 -20 -2 -29q0 -105 100 -105q66 0 102.5 42t43.5 104l26 252h87l-48 -461h-87l9 84q-24 -44 -67 -70t-98 -26q-73 0 -115 39.5z" />
    <glyph glyph-name="uhungarumlaut" unicode="&#x171;" horiz-adv-x="562" 
d="M185 520l142 166l72 -38l-174 -151zM375 520l142 166l72 -38l-174 -151zM129 27.5q-42 39.5 -42 116.5q0 11 2 33l29 284h87l-27 -264q-2 -20 -2 -29q0 -105 100 -105q66 0 102.5 42t43.5 104l26 252h87l-48 -461h-87l9 84q-24 -44 -67 -70t-98 -26q-73 0 -115 39.5z" />
    <glyph glyph-name="umacron" unicode="&#x16b;" horiz-adv-x="562" 
d="M189 625h318l-8 -70h-318zM129 27.5q-42 39.5 -42 116.5q0 11 2 33l29 284h87l-27 -264q-2 -20 -2 -29q0 -105 100 -105q66 0 102.5 42t43.5 104l26 252h87l-48 -461h-87l9 84q-24 -44 -67 -70t-98 -26q-73 0 -115 39.5z" />
    <glyph glyph-name="uogonek" unicode="&#x173;" horiz-adv-x="562" 
d="M497 -133l-7 -64q-41 -15 -81 -15q-49 0 -78 24.5t-29 62.5q0 36 25 68t73 57l9 84q-24 -44 -67 -70t-98 -26q-73 0 -115 39.5t-42 116.5q0 11 2 33l29 284h87l-27 -264q-2 -20 -2 -29q0 -105 100 -105q66 0 102.5 42t43.5 104l26 252h87l-48 -461h-1q-52 -11 -76.5 -38
t-24.5 -58q0 -23 15 -36.5t40 -13.5q28 0 57 13z" />
    <glyph glyph-name="uring" unicode="&#x16f;" horiz-adv-x="562" 
d="M262 525.5q-28 26.5 -28 69.5q0 52 36.5 87t86.5 35q44 0 72.5 -27t28.5 -69q0 -52 -36.5 -87t-87.5 -35q-44 0 -72 26.5zM387 564.5q20 20.5 20 51.5q0 25 -15 40.5t-39 15.5q-28 0 -48 -20.5t-20 -51.5q0 -25 15 -40.5t39 -15.5q28 0 48 20.5zM129 27.5
q-42 39.5 -42 116.5q0 11 2 33l29 284h87l-27 -264q-2 -20 -2 -29q0 -105 100 -105q66 0 102.5 42t43.5 104l26 252h87l-48 -461h-87l9 84q-24 -44 -67 -70t-98 -26q-73 0 -115 39.5z" />
    <glyph glyph-name="utilde" unicode="&#x169;" horiz-adv-x="562" 
d="M377 538.5q-16 7.5 -40 23.5q-20 13 -33.5 19.5t-27.5 6.5q-18 0 -36 -9t-40 -33l-28 46q47 67 106 67q19 0 35 -7.5t39 -22.5q22 -13 35 -19.5t28 -6.5q19 0 36.5 9.5t37.5 31.5l28 -46q-46 -67 -104 -67q-20 0 -36 7.5zM129 27.5q-42 39.5 -42 116.5q0 11 2 33l29 284
h87l-27 -264q-2 -20 -2 -29q0 -105 100 -105q66 0 102.5 42t43.5 104l26 252h87l-48 -461h-87l9 84q-24 -44 -67 -70t-98 -26q-73 0 -115 39.5z" />
    <glyph glyph-name="wacute" unicode="&#x1e83;" horiz-adv-x="745" 
d="M273 573l286 115l22 -65l-286 -117zM56 461h95l75 -337l148 337h93l77 -337l146 337h95l-218 -461h-74l-84 354l-158 -354h-73z" />
    <glyph glyph-name="wcircumflex" unicode="&#x175;" horiz-adv-x="745" 
d="M606 552l-52 -52l-118 112l-138 -111l-42 51l189 146zM56 461h95l75 -337l148 337h93l77 -337l146 337h95l-218 -461h-74l-84 354l-158 -354h-73z" />
    <glyph glyph-name="wdieresis" unicode="&#x1e85;" horiz-adv-x="745" 
d="M286 556q-17 17 -17 43q0 30 22.5 52t51.5 22q26 0 43 -17t17 -43q0 -30 -22.5 -52t-51.5 -22q-26 0 -43 17zM486 556q-17 17 -17 43q0 30 22.5 52t51.5 22q26 0 43 -17t17 -43q0 -30 -22.5 -52t-51.5 -22q-26 0 -43 17zM56 461h95l75 -337l148 337h93l77 -337l146 337
h95l-218 -461h-74l-84 354l-158 -354h-73z" />
    <glyph glyph-name="wgrave" unicode="&#x1e81;" horiz-adv-x="745" 
d="M279 622l36 65l262 -115l-36 -67zM56 461h95l75 -337l148 337h93l77 -337l146 337h95l-218 -461h-74l-84 354l-158 -354h-73z" />
    <glyph glyph-name="yacute" unicode="&#xfd;" horiz-adv-x="567" 
d="M177 573l286 115l22 -65l-286 -117zM539 461l-49 -470q-12 -108 -79 -166q-64 -50 -157 -50q-100 0 -151 48q-40 38 -40 101l1 18h87q-2 -45 23.5 -69.5t86.5 -24.5t98.5 36.5t45.5 112.5l9 86q-26 -44 -69.5 -69t-100.5 -25q-78 0 -117 43t-39 118q0 10 2 36l28 275h86
l-27 -257q-2 -20 -2 -30q0 -52 24.5 -80t81.5 -28q63 0 102 45.5t46 112.5l24 237h86z" />
    <glyph glyph-name="ycircumflex" unicode="&#x177;" horiz-adv-x="567" 
d="M510 552l-52 -52l-118 112l-138 -111l-42 51l189 146zM539 461l-49 -470q-12 -108 -79 -166q-64 -50 -157 -50q-100 0 -151 48q-40 38 -40 101l1 18h87q-2 -45 23.5 -69.5t86.5 -24.5t98.5 36.5t45.5 112.5l9 86q-26 -44 -69.5 -69t-100.5 -25q-78 0 -117 43t-39 118
q0 10 2 36l28 275h86l-27 -257q-2 -20 -2 -30q0 -52 24.5 -80t81.5 -28q63 0 102 45.5t46 112.5l24 237h86z" />
    <glyph glyph-name="ydieresis" unicode="&#xff;" horiz-adv-x="567" 
d="M190 556q-17 17 -17 43q0 30 22.5 52t51.5 22q26 0 43 -17t17 -43q0 -30 -22.5 -52t-51.5 -22q-26 0 -43 17zM390 556q-17 17 -17 43q0 30 22.5 52t51.5 22q26 0 43 -17t17 -43q0 -30 -22.5 -52t-51.5 -22q-26 0 -43 17zM539 461l-49 -470q-12 -108 -79 -166
q-64 -50 -157 -50q-100 0 -151 48q-40 38 -40 101l1 18h87q-2 -45 23.5 -69.5t86.5 -24.5t98.5 36.5t45.5 112.5l9 86q-26 -44 -69.5 -69t-100.5 -25q-78 0 -117 43t-39 118q0 10 2 36l28 275h86l-27 -257q-2 -20 -2 -30q0 -52 24.5 -80t81.5 -28q63 0 102 45.5t46 112.5
l24 237h86z" />
    <glyph glyph-name="ygrave" unicode="&#x1ef3;" horiz-adv-x="567" 
d="M183 622l36 65l262 -115l-36 -67zM539 461l-49 -470q-12 -108 -79 -166q-64 -50 -157 -50q-100 0 -151 48q-40 38 -40 101l1 18h87q-2 -45 23.5 -69.5t86.5 -24.5t98.5 36.5t45.5 112.5l9 86q-26 -44 -69.5 -69t-100.5 -25q-78 0 -117 43t-39 118q0 10 2 36l28 275h86
l-27 -257q-2 -20 -2 -30q0 -52 24.5 -80t81.5 -28q63 0 102 45.5t46 112.5l24 237h86z" />
    <glyph glyph-name="zacute" unicode="&#x17a;" horiz-adv-x="440" 
d="M117 573l286 115l22 -65l-286 -117zM324 387h-251l7 74h397l-312 -388h259l-8 -73h-403z" />
    <glyph glyph-name="zcaron" unicode="&#x17e;" horiz-adv-x="440" 
d="M110 648l52 51l116 -111l141 112l41 -52l-191 -146zM324 387h-251l7 74h397l-312 -388h259l-8 -73h-403z" />
    <glyph glyph-name="zdotaccent" unicode="&#x17c;" horiz-adv-x="440" 
d="M227.5 557.5q-17.5 17.5 -17.5 44.5q0 33 23 56t56 23q28 0 45 -18t17 -45q0 -33 -22 -55.5t-55 -22.5q-29 0 -46.5 17.5zM324 387h-251l7 74h397l-312 -388h259l-8 -73h-403z" />
    <glyph glyph-name="germandbls" unicode="&#xdf;" horiz-adv-x="566" 
d="M250.5 -8.5q-24.5 3.5 -38.5 8.5l8 76q34 -11 82 -11q63 0 104 33t48 95l1 14q0 48 -32 83.5t-100 35.5h-58l8 78h48q74 0 113 37t39 94q0 47 -30.5 75t-84.5 28q-62 0 -100.5 -39t-45.5 -101l-52 -498h-86l52 498q7 63 38 112.5t83 77.5t119 28q93 0 144 -45t51 -120
q0 -73 -44.5 -123.5t-109.5 -60.5q61 -5 97.5 -52t36.5 -111q0 -15 -1 -22q-10 -93 -77 -143.5t-161 -50.5q-27 0 -51.5 3.5z" />
    <glyph glyph-name="ampersand" unicode="&#x26;" horiz-adv-x="594" 
d="M610 229h-59q-15 -117 -88.5 -180.5t-181.5 -63.5q-64 0 -113.5 23.5t-76.5 65.5t-27 97q0 50 22 91t58.5 68.5t78.5 36.5q-51 15 -80 49.5t-29 86.5q0 62 31.5 110.5t88 75t127.5 26.5q93 0 150 -47t57 -134q0 -9 -2 -29h-95q1 7 1 19q0 52 -30 82.5t-89 30.5
q-62 0 -103.5 -36t-41.5 -96q0 -47 29 -73t89 -26h27l-9 -83h-25q-75 0 -115 -35t-46 -95l-1 -13q0 -49 35.5 -82t97.5 -33q67 0 112 43t55 121h-73l9 81h226z" />
    <glyph glyph-name="grave" unicode="`" horiz-adv-x="600" 
d="M75 623l36 65l262 -115l-36 -67z" />
    <glyph glyph-name="acute" unicode="&#xb4;" horiz-adv-x="600" 
d="M117 573l286 115l22 -65l-286 -117z" />
    <glyph glyph-name="circumflex" unicode="&#x2c6;" horiz-adv-x="600" 
d="M442 552l-52 -52l-118 112l-138 -111l-42 51l189 146z" />
    <glyph glyph-name="tilde" unicode="&#x2dc;" horiz-adv-x="600" 
d="M311 538.5q-16 7.5 -40 23.5q-20 13 -33.5 19.5t-27.5 6.5q-18 0 -36 -9t-40 -33l-28 46q47 67 106 67q19 0 35 -7.5t39 -22.5q22 -13 35 -19.5t28 -6.5q19 0 36.5 9.5t37.5 31.5l28 -46q-46 -67 -104 -67q-20 0 -36 7.5z" />
    <glyph glyph-name="caron" unicode="&#x2c7;" horiz-adv-x="600" 
d="M102 648l52 51l116 -111l141 112l41 -52l-191 -146z" />
    <glyph glyph-name="dieresis" unicode="&#xa8;" horiz-adv-x="600" 
d="M142 556q-17 17 -17 43q0 30 22.5 52t51.5 22q26 0 43 -17t17 -43q0 -30 -22.5 -52t-51.5 -22q-26 0 -43 17zM342 556q-17 17 -17 43q0 30 22.5 52t51.5 22q26 0 43 -17t17 -43q0 -30 -22.5 -52t-51.5 -22q-26 0 -43 17z" />
    <glyph glyph-name="macron" unicode="&#xaf;" horiz-adv-x="600" 
d="M134 625h318l-8 -70h-318z" />
    <glyph glyph-name="breve" unicode="&#x2d8;" horiz-adv-x="600" 
d="M169 548q-43 40 -40 110h74q-1 -42 24 -64t67 -22q43 0 73 22t37 64h74q-13 -70 -64.5 -110t-126.5 -40t-118 40z" />
    <glyph glyph-name="ring" unicode="&#x2da;" horiz-adv-x="600" 
d="M136.5 508q-28.5 27 -28.5 69q0 52 36.5 87t86.5 35q44 0 72.5 -27t28.5 -69q0 -52 -36.5 -87t-86.5 -35q-44 0 -72.5 27zM261 546.5q20 20.5 20 51.5q0 25 -15 40.5t-39 15.5q-28 0 -48 -20.5t-20 -51.5q0 -25 15 -40.5t39 -15.5q28 0 48 20.5z" />
    <glyph glyph-name="hungarumlaut" unicode="&#x2dd;" horiz-adv-x="600" 
d="M102 520l142 166l72 -38l-174 -151zM292 520l142 166l72 -38l-174 -151z" />
    <glyph glyph-name="dotaccent" unicode="&#x2d9;" horiz-adv-x="600" 
d="M310.5 557.5q-17.5 17.5 -17.5 44.5q0 33 23 56t56 23q28 0 45 -18t17 -45q0 -33 -22 -55.5t-55 -22.5q-29 0 -46.5 17.5z" />
    <glyph glyph-name="cedilla" unicode="&#xb8;" horiz-adv-x="600" 
d="M59 -196.5q-21 18.5 -20 52.5h46q-1 -14 9.5 -23t26.5 -9q22 0 35 14.5t13 42.5q0 17 -10 26.5t-27 9.5q-25 0 -41 -20h-40l11 103h47l-7 -63q7 7 20 11t28 4q29 0 48.5 -18.5t19.5 -51.5q0 -41 -27.5 -69t-73.5 -28q-37 0 -58 18.5z" />
    <glyph glyph-name="ogonek" unicode="&#x2db;" horiz-adv-x="600" 
d="M51 -187.5q-29 24.5 -29 62.5q0 36 25 68t73 57h86q-52 -11 -76.5 -38t-24.5 -58q0 -23 15 -36.5t40 -13.5q28 0 57 13l-7 -64q-41 -15 -81 -15q-49 0 -78 24.5z" />
    <glyph glyph-name="comma" unicode="," horiz-adv-x="296" 
d="M60 -117l4 42q12 -2 37 -2q20 0 35.5 9t23.5 25q15 22 19 53q-15 -15 -43 -15q-26 0 -43 16t-17 42q0 35 23 58.5t57 23.5q32 0 56 -25.5t24 -71.5q0 -69 -39 -113t-104 -44q-25 0 -33 2z" />
    <glyph glyph-name="semicolon" unicode=";" horiz-adv-x="296" 
d="M130.5 344q-18.5 19 -18.5 46q0 33 24 57t56 24q28 0 47 -19t19 -47q0 -32 -24.5 -56t-57.5 -24q-27 0 -45.5 19zM60 -117l4 42q12 -2 37 -2q20 0 35.5 9t23.5 25q15 22 19 53q-15 -15 -43 -15q-26 0 -43 16t-17 42q0 35 23 58.5t57 23.5q32 0 56 -25.5t24 -71.5
q0 -69 -39 -113t-104 -44q-25 0 -33 2z" />
    <glyph glyph-name="colon" unicode=":" horiz-adv-x="286" 
d="M130.5 345q-18.5 19 -18.5 46q0 33 24 57t56 24q28 0 47 -19t19 -47q0 -32 -24.5 -56t-57.5 -24q-27 0 -45.5 19zM95.5 12q-18.5 19 -18.5 46q0 33 24 57t56 24q28 0 47 -19t19 -47q0 -32 -24.5 -56t-57.5 -24q-27 0 -45.5 19z" />
    <glyph glyph-name="period" unicode="." horiz-adv-x="286" 
d="M95.5 12q-18.5 19 -18.5 46q0 33 24 57t56 24q28 0 47 -19t19 -47q0 -32 -24.5 -56t-57.5 -24q-27 0 -45.5 19z" />
    <glyph glyph-name="ellipsis" unicode="&#x2026;" horiz-adv-x="771" 
d="M94.5 7.5q-18.5 18.5 -18.5 45.5q0 33 24 57.5t56 24.5q29 0 48 -19t19 -47q0 -32 -25 -56t-57 -24q-28 0 -46.5 18.5zM335.5 7.5q-18.5 18.5 -18.5 45.5q0 33 24 57.5t56 24.5q29 0 48 -19t19 -47q0 -32 -25 -56t-57 -24q-28 0 -46.5 18.5zM579.5 7.5
q-18.5 18.5 -18.5 45.5q0 33 24 57.5t56 24.5q29 0 48 -19t19 -47q0 -32 -25 -56t-57 -24q-28 0 -46.5 18.5z" />
    <glyph glyph-name="hyphen" unicode="-" horiz-adv-x="410" 
d="M85 301h305l-9 -78h-305z" />
    <glyph glyph-name="exclam" unicode="!" horiz-adv-x="267" 
d="M164 700h87l-52 -490h-87zM86 12q-18 19 -18 46q0 33 23.5 57t56.5 24q28 0 47 -19t19 -47q0 -32 -24.5 -56t-57.5 -24q-28 0 -46 19z" />
    <glyph glyph-name="exclamdown" unicode="&#xa1;" horiz-adv-x="267" 
d="M232 475q19 -19 19 -47q0 -32 -24 -56t-57 -24q-28 0 -46.5 19t-18.5 46q0 33 23.5 57t56.5 24q28 0 47 -19zM206 277l-51 -490h-87l51 490h87z" />
    <glyph glyph-name="question" unicode="?" horiz-adv-x="472" 
d="M193 226q5 50 21 80t58 58l55 36q36 24 56 53.5t24 71.5q1 5 1 15q0 44 -28 70.5t-78 26.5q-62 0 -102.5 -37t-47.5 -106h-91q11 105 78.5 164t174.5 59q91 0 139.5 -45t48.5 -119q0 -70 -31 -116.5t-88 -88.5l-47 -31q-30 -21 -42 -39.5t-15 -50.5l-2 -17h-86zM164.5 12
q-18.5 19 -18.5 46q0 33 24 57t57 24q28 0 46.5 -19t18.5 -47q0 -32 -24.5 -56t-56.5 -24q-28 0 -46.5 19z" />
    <glyph glyph-name="questiondown" unicode="&#xbf;" horiz-adv-x="472" 
d="M361 497q19 -19 19 -47q0 -32 -24 -56t-57 -24q-28 0 -47 18.5t-19 45.5q0 33 24.5 57.5t56.5 24.5q28 0 47 -19zM333 283q-6 -50 -22 -80t-58 -58l-55 -36q-36 -24 -56 -53.5t-24 -71.5q-1 -5 -1 -15q0 -44 28.5 -70.5t78.5 -26.5q62 0 102.5 37t47.5 106h91
q-11 -105 -79 -164t-175 -59q-90 0 -139 45.5t-49 119.5q0 70 31.5 116t88.5 88l46 31q30 21 42 39.5t16 50.5l1 17h86z" />
    <glyph glyph-name="quoteleft" unicode="&#x2018;" horiz-adv-x="276" 
d="M150 521.5q-22 23.5 -22 66.5q0 66 37 108t98 42q24 0 31 -2l-4 -40q-12 2 -31 2t-34.5 -9t-24.5 -24q-16 -22 -18 -50q14 15 39 15t41.5 -15t16.5 -41q0 -32 -22.5 -54t-54.5 -22q-30 0 -52 23.5z" />
    <glyph glyph-name="quoteright" unicode="&#x2019;" horiz-adv-x="276" 
d="M253.5 694q22.5 -24 22.5 -67q0 -66 -37 -107.5t-98 -41.5q-24 0 -32 2l5 40q11 -2 30 -2t35 9t25 24q15 22 18 50q-14 -15 -39 -15t-41.5 15.5t-16.5 41.5q0 32 22 53.5t54 21.5q30 0 52.5 -24z" />
    <glyph glyph-name="quotedblleft" unicode="&#x201c;" horiz-adv-x="460" 
d="M150 521.5q-22 23.5 -22 66.5q0 66 37 108t98 42q24 0 31 -2l-4 -40q-12 2 -31 2t-34.5 -9t-24.5 -24q-16 -22 -18 -50q14 15 39 15t41.5 -15t16.5 -41q0 -32 -22.5 -54t-54.5 -22q-30 0 -52 23.5zM333 521.5q-22 23.5 -22 66.5q0 66 37 108t98 42q24 0 31 -2l-4 -40
q-12 2 -31 2t-34.5 -9t-24.5 -24q-16 -22 -18 -50q14 15 39 15t41.5 -15t16.5 -41q0 -32 -22.5 -54t-54.5 -22q-30 0 -52 23.5z" />
    <glyph glyph-name="quotedblright" unicode="&#x201d;" horiz-adv-x="460" 
d="M253.5 694q22.5 -24 22.5 -67q0 -66 -37 -107.5t-98 -41.5q-24 0 -32 2l5 40q11 -2 30 -2t35 9t25 24q15 22 18 50q-14 -15 -39 -15t-41.5 15.5t-16.5 41.5q0 32 22 53.5t54 21.5q30 0 52.5 -24zM437.5 694q22.5 -24 22.5 -67q0 -66 -37 -107.5t-98 -41.5q-24 0 -32 2
l5 40q11 -2 30 -2t35 9t25 24q15 22 18 50q-14 -15 -39 -15t-41.5 15.5t-16.5 41.5q0 32 22 53.5t54 21.5q30 0 52.5 -24z" />
    <glyph glyph-name="quotesinglbase" unicode="&#x201a;" horiz-adv-x="276" 
d="M191.5 100q22.5 -24 22.5 -68q0 -10 -1 -16q-6 -59 -41.5 -95.5t-92.5 -36.5q-24 0 -32 2l4 40q12 -2 31 -2t34.5 9t24.5 24q16 21 19 50q-14 -15 -40 -15q-25 0 -41 15.5t-16 41.5q0 32 22 53.5t54 21.5q30 0 52.5 -24z" />
    <glyph glyph-name="quotedblbase" unicode="&#x201e;" horiz-adv-x="460" 
d="M191.5 100q22.5 -24 22.5 -68q0 -10 -1 -16q-6 -59 -41.5 -95.5t-92.5 -36.5q-24 0 -32 2l4 40q12 -2 31 -2t34.5 9t24.5 24q16 21 19 50q-14 -15 -40 -15q-25 0 -41 15.5t-16 41.5q0 32 22 53.5t54 21.5q30 0 52.5 -24zM375.5 100q22.5 -24 22.5 -68q0 -10 -1 -16
q-6 -59 -41.5 -95.5t-92.5 -36.5q-24 0 -32 2l4 40q12 -2 31 -2t34.5 9t24.5 24q16 21 19 50q-14 -15 -40 -15q-25 0 -41 15.5t-16 41.5q0 32 22 53.5t54 21.5q30 0 52.5 -24z" />
    <glyph glyph-name="guilsinglleft" unicode="&#x2039;" horiz-adv-x="276" 
d="M33 261l228 192l43 -50l-167 -142l138 -142l-55 -50z" />
    <glyph glyph-name="guilsinglright" unicode="&#x203a;" horiz-adv-x="276" 
d="M27 119l166 142l-137 142l55 50l186 -192l-227 -192z" />
    <glyph glyph-name="slash" unicode="/" horiz-adv-x="438" 
d="M9 -34l427 795l67 -31l-427 -795z" />
    <glyph glyph-name="bar" unicode="|" horiz-adv-x="228" 
d="M157 733h68l-97 -925h-68z" />
    <glyph glyph-name="endash" unicode="&#x2013;" horiz-adv-x="611" 
d="M85 305h505l-7 -70h-505z" />
    <glyph glyph-name="emdash" unicode="&#x2014;" horiz-adv-x="798" 
d="M85 307h692l-7 -70h-692z" />
    <glyph glyph-name="bullet" unicode="&#x2022;" horiz-adv-x="358" 
d="M125 225.5q-30 29.5 -30 73.5q0 35 18 65t47.5 47.5t63.5 17.5q46 0 76 -30t30 -74q0 -34 -18 -64t-48 -47.5t-64 -17.5q-45 0 -75 29.5z" />
    <glyph glyph-name="parenleft" unicode="(" horiz-adv-x="318" 
d="M129 -19q-46 96 -46 220q0 38 4 71q15 150 85.5 264t182.5 202l47 -50q-102 -90 -159 -190t-70 -226q-4 -46 -4 -66q0 -103 37 -187t109 -163l-58 -49q-82 78 -128 174z" />
    <glyph glyph-name="parenright" unicode=")" horiz-adv-x="318" 
d="M-27 -144q102 90 159 189.5t71 226.5q3 33 3 64q0 103 -36.5 188t-109.5 164l59 50q81 -78 127.5 -175t46.5 -222q0 -21 -4 -69q-16 -150 -86.5 -263t-181.5 -202z" />
    <glyph glyph-name="bracketleft" unicode="[" horiz-adv-x="288" 
d="M157 733h197l-7 -70h-118l-83 -787h118l-7 -69h-197z" />
    <glyph glyph-name="bracketright" unicode="]" horiz-adv-x="288" 
d="M-9 -193l7 69h118l83 787h-118l7 70h197l-97 -926h-197z" />
    <glyph glyph-name="asterisk" unicode="*" horiz-adv-x="421" 
d="M109 393l116 126l-141 39l27 62l134 -55l7 152h67l-25 -152l146 55l15 -62l-149 -39l87 -126l-60 -40l-71 136l-101 -136z" />
    <glyph glyph-name="dagger" unicode="&#x2020;" horiz-adv-x="434" 
d="M214 379h-124l8 77h124l27 261h87l-27 -261h123l-8 -77h-123l-59 -561h-87z" />
    <glyph glyph-name="asciitilde" unicode="~" horiz-adv-x="543" 
d="M353.5 208q-24.5 9 -56.5 26q-31 15 -58.5 24t-57.5 9q-27 0 -55.5 -15t-53.5 -38l9 77q25 28 54.5 41t57.5 13q42 0 115 -32l19 -8q31 -14 50.5 -21t34.5 -7q51 0 116 54l-8 -75q-26 -29 -56.5 -43t-60.5 -14q-25 0 -49.5 9z" />
    <glyph glyph-name="brokenbar" unicode="&#xa6;" horiz-adv-x="228" 
d="M157 733h68l-43 -410h-68zM105 234h68l-45 -426h-68z" />
    <glyph glyph-name="backslash" unicode="\" horiz-adv-x="438" 
d="M89 730l73 31l259 -795l-73 -31z" />
    <glyph glyph-name="underscore" unicode="_" horiz-adv-x="515" 
d="M-16 -151h515l-6 -62h-515z" />
    <glyph glyph-name="quotesingle" unicode="'" horiz-adv-x="245" 
d="M250 604l-61 -185h-44l-24 185l-1 11q0 31 22.5 54t52.5 23q28 0 46 -19.5t15 -47.5q-2 -11 -6 -21z" />
    <glyph glyph-name="quotedbl" unicode="&#x22;" horiz-adv-x="414" 
d="M250 604l-61 -185h-44l-24 185l-1 11q0 31 22.5 54t52.5 23q28 0 46 -19.5t15 -47.5q-2 -11 -6 -21zM419 604l-61 -185h-44l-24 185l-1 11q0 31 22.5 54t52.5 23q28 0 46 -19.5t15 -47.5q-2 -11 -6 -21z" />
    <glyph glyph-name="at" unicode="@" horiz-adv-x="889" 
d="M230 -149q-85 45 -128.5 125t-43.5 184q0 28 3 56q13 123 73.5 214.5t159 141t222.5 49.5q167 0 264.5 -86t97.5 -255q0 -36 -4 -67q-12 -118 -60 -183t-128 -65q-61 0 -89.5 30t-32.5 92q-21 -35 -61 -57t-91 -22q-53 0 -93 24.5t-61.5 66t-21.5 91.5q0 60 29 113
t80 84.5t112 31.5q48 0 83 -21t51 -58l7 70h73l-29 -277q-2 -24 -2 -32q0 -77 56 -77q39 0 68.5 43.5t39.5 139.5q4 46 4 64q0 147 -78 218t-220 71q-104 0 -186.5 -42.5t-132.5 -120.5t-61 -182q-3 -25 -3 -50q0 -88 36.5 -155t107.5 -104t173 -37q108 0 205 51l20 -58
q-107 -56 -233 -56q-121 0 -206 45zM505 95.5q34 21.5 53.5 57.5t19.5 77q0 53 -33 88t-87 35q-41 0 -75 -21t-53.5 -57t-19.5 -77q0 -53 32 -88.5t87 -35.5q42 0 76 21.5z" />
    <glyph glyph-name="copyright" unicode="&#xa9;" horiz-adv-x="797" 
d="M222.5 24.5q-73.5 41.5 -112 114t-38.5 164.5q0 23 3 47q11 103 63 186.5t139 132t196 48.5q101 0 174.5 -42t112 -115t38.5 -165q0 -30 -2 -45q-11 -103 -64 -186.5t-140 -132t-196 -48.5q-100 0 -173.5 41.5zM560.5 85q70.5 41 113 110.5t51.5 154.5q2 26 2 38
q0 76 -31 137t-89.5 96t-139.5 35q-88 0 -158 -41t-112.5 -111t-51.5 -154q-2 -26 -2 -40q0 -75 31 -135.5t89.5 -95.5t139.5 -35q87 0 157.5 41zM318 166.5q-42 24.5 -63.5 66t-21.5 92.5q0 60 28.5 113.5t81 86.5t119.5 33q76 0 119 -39t46 -101h-61q-5 39 -33.5 63
t-77.5 24q-48 0 -85 -24.5t-57 -65t-20 -85.5q0 -58 34.5 -96.5t94.5 -38.5q49 0 83 24t47 63h61q-16 -62 -67.5 -101t-127.5 -39q-58 0 -100 24.5z" />
    <glyph glyph-name="registered" unicode="&#xae;" horiz-adv-x="602" 
d="M192.5 211.5q-53.5 30.5 -81.5 84t-28 120.5q0 11 2 33q8 75 46.5 136t102 96.5t142.5 35.5q74 0 127.5 -30.5t82 -83.5t28.5 -120q0 -10 -2 -34q-8 -75 -46.5 -136t-102 -96.5t-143.5 -35.5q-74 0 -127.5 30.5zM448 259.5q54 34.5 84 92.5t30 126q0 55 -22.5 99
t-65.5 69.5t-102 25.5q-69 0 -123 -34.5t-84.5 -92t-30.5 -124.5q0 -55 23 -100t66 -70.5t102 -25.5q69 0 123 34.5zM269 594h110q39 0 63 -24.5t24 -60.5q0 -35 -20 -63t-53 -39l51 -96h-49l-47 91h-55l-9 -91h-44zM360 440q27 0 44.5 19.5t17.5 45.5q0 22 -13.5 36
t-36.5 14h-62l-12 -115h62z" />
    <glyph glyph-name="trademark" unicode="&#x2122;" horiz-adv-x="832" 
d="M172 641h-99l7 59h264l-7 -59h-100l-36 -348h-65zM410 700h107l70 -295l132 295h107l-43 -407h-65l35 334l-149 -334h-58l-79 334l-35 -334h-65z" />
    <glyph glyph-name="dollar" unicode="$" horiz-adv-x="544" 
d="M466 53.5q-58 -58.5 -155 -68.5l-9 -85h-66l10 86q-91 8 -140.5 61t-49.5 140q0 10 2 34h91q-1 -8 -1 -23q0 -62 36.5 -98t103.5 -36q68 0 106 33t38 92q0 36 -22 59.5t-69 38.5l-110 31q-60 18 -91.5 59t-31.5 102q0 17 1 26q5 47 32.5 87.5t74 66.5t104.5 31l9 90h66
l-10 -92q74 -11 115 -58.5t41 -122.5q0 -17 -1 -26h-91q1 6 1 18q0 55 -30.5 84.5t-87.5 29.5q-62 0 -96.5 -34t-34.5 -86q0 -38 23.5 -62.5t74.5 -40.5l114 -36q54 -17 82.5 -55.5t28.5 -96.5q0 -90 -58 -148.5z" />
    <glyph glyph-name="cent" unicode="&#xa2;" horiz-adv-x="519" 
d="M373.5 198q35.5 23 49.5 67h87q-15 -69 -67 -113t-131 -52l-11 -100h-66l11 100q-82 9 -128 63.5t-46 140.5q0 11 2 35q11 100 70 165t152 75l10 101h66l-10 -101q77 -8 120 -53.5t43 -115.5h-87q-4 46 -34 69.5t-85 23.5q-73 0 -117 -51.5t-44 -140.5q0 -64 33 -100
t93 -36q54 0 89.5 23z" />
    <glyph glyph-name="sterling" unicode="&#xa3;" horiz-adv-x="513" 
d="M191.5 150q-19.5 -47 -42.5 -68h334l-9 -82h-435l6 61q30 25 51 69.5t28 109.5l10 91h-63l7 67h63l8 78q11 109 72.5 162.5t153.5 53.5q87 0 134.5 -43.5t47.5 -121.5q0 -9 -2 -29h-91q1 8 1 22q0 47 -24.5 72t-73.5 25q-57 0 -88.5 -34.5t-38.5 -108.5l-8 -76h169
l-7 -67h-169l-8 -73q-6 -61 -25.5 -108z" />
    <glyph glyph-name="florin" unicode="&#x192;" horiz-adv-x="430" 
d="M375 593q-25 -21 -41 -76l-17 -63h129l-21 -73h-129l-124 -434q-24 -84 -72 -125t-114 -41q-43 0 -74 12l21 74q19 -8 49 -8q40 0 64.5 19t38.5 68l124 435h-99l21 73h99l18 64q26 92 75 132.5t121 40.5q42 0 66 -12l-20 -73q-24 8 -49 8q-41 0 -66 -21z" />
    <glyph glyph-name="yen" unicode="&#xa5;" horiz-adv-x="549" 
d="M352 276h143l-6 -61h-145l-8 -68h145l-6 -61h-145l-9 -86h-93l9 86h-145l6 61h145l8 68h-145l6 61h143l-174 404h102l128 -330l197 330h102z" />
    <glyph glyph-name="Euro" unicode="&#x20ac;" horiz-adv-x="595" 
d="M427 103q38 34 51 92h89q-22 -91 -85 -148.5t-158 -57.5q-111 0 -160 68t-50 186h-67l22 61h46q0 13 1 22t2 15q2 24 5 36h-60l22 61h48q58 254 265 254q95 0 146 -57.5t54 -148.5h-89q-2 58 -32.5 92t-87.5 34q-70 0 -109.5 -45t-58.5 -129h206l-22 -61h-194
q-3 -12 -5 -36q-3 -19 -3 -37h209l-22 -61h-189q2 -84 32 -129t99 -45q57 0 95 34z" />
    <glyph glyph-name="uni20A9" unicode="&#x20a9;" horiz-adv-x="758" 
d="M696 381l-24 -81h102l-8 -67h-115l-71 -233h-86l-58 540l-172 -540h-86l-23 233h-115l8 67h102l-8 81h-86l7 66h73l-23 233h93l33 -546l175 546h72l61 -546l147 546h93l-71 -233h73l-7 -66h-86z" />
    <glyph glyph-name="uni20B4" unicode="&#x20b4;" horiz-adv-x="562" 
d="M328 304h235l-21 -49h-319q-35 -19 -50 -41.5t-15 -58.5q0 -41 31 -64t88 -23q70 0 113.5 30t48.5 82h84q-9 -86 -77 -139t-178 -53q-91 0 -144 41t-53 112q0 68 35 114h-49l22 49h78q18 12 55 29l106 45h-248l22 50h320q23 21 33.5 45.5t10.5 56.5q0 39 -28 61.5
t-79 22.5q-62 0 -99 -27t-42 -76h-84q8 83 71.5 132t159.5 49q86 0 136.5 -40t50.5 -111q0 -63 -33 -113h67l-21 -50h-89q-29 -24 -69 -43z" />
    <glyph glyph-name="uni20B8" unicode="&#x20b8;" horiz-adv-x="521" 
d="M77 680h509l-8 -82h-509zM261 441h-209l9 82h509l-9 -82h-209l-46 -441h-91z" />
    <glyph glyph-name="uni20AE" unicode="&#x20ae;" horiz-adv-x="521" 
d="M369 598l-15 -143l129 59l-7 -70l-130 -59l-7 -67l130 59l-8 -69l-129 -59l-26 -249h-91l22 206l-130 -59l8 69l129 59l7 67l-129 -59l7 70l129 59l20 186h-209l8 82h509l-8 -82h-209z" />
    <glyph glyph-name="dollar.tf" 
d="M516 53.5q-58 -58.5 -155 -68.5l-9 -85h-66l10 86q-91 8 -140.5 61t-49.5 140q0 10 2 34h91q-1 -8 -1 -23q0 -62 36.5 -98t103.5 -36q68 0 106 33t38 92q0 36 -22 59.5t-69 38.5l-110 31q-60 18 -91.5 59t-31.5 102q0 17 1 26q5 47 32.5 87.5t74 66.5t104.5 31l9 90h66
l-10 -92q74 -11 115 -58.5t41 -122.5q0 -17 -1 -26h-91q1 6 1 18q0 55 -30.5 84.5t-87.5 29.5q-62 0 -96.5 -34t-34.5 -86q0 -38 23.5 -62.5t74.5 -40.5l114 -36q54 -17 82.5 -55.5t28.5 -96.5q0 -90 -58 -148.5z" />
    <glyph glyph-name="cent.tf" 
d="M433.5 198q35.5 23 49.5 67h87q-15 -69 -67 -113t-131 -52l-11 -100h-66l11 100q-82 9 -128 63.5t-46 140.5q0 11 2 35q11 100 70 165t152 75l10 101h66l-10 -101q77 -8 120 -53.5t43 -115.5h-87q-4 46 -34 69.5t-85 23.5q-73 0 -117 -51.5t-44 -140.5q0 -64 33 -100
t93 -36q54 0 89.5 23z" />
    <glyph glyph-name="sterling.tf" 
d="M241.5 150q-19.5 -47 -42.5 -68h334l-9 -82h-435l6 61q30 25 51 69.5t28 109.5l10 91h-63l7 67h63l8 78q11 109 72.5 162.5t153.5 53.5q87 0 134.5 -43.5t47.5 -121.5q0 -9 -2 -29h-91q1 8 1 22q0 47 -24.5 72t-73.5 25q-57 0 -88.5 -34.5t-38.5 -108.5l-8 -76h169
l-7 -67h-169l-8 -73q-6 -61 -25.5 -108z" />
    <glyph glyph-name="florin.tf" 
d="M508 593q-25 -21 -41 -76l-17 -63h129l-21 -73h-129l-124 -434q-24 -84 -72 -125t-114 -41q-43 0 -74 12l21 74q19 -8 49 -8q40 0 64.5 19t38.5 68l124 435h-99l21 73h99l18 64q26 92 75 132.5t121 40.5q42 0 66 -12l-20 -73q-24 8 -49 8q-41 0 -66 -21z" />
    <glyph glyph-name="yen.tf" 
d="M398 276h143l-6 -61h-145l-8 -68h145l-6 -61h-145l-9 -86h-93l9 86h-145l6 61h145l8 68h-145l6 61h143l-174 404h102l128 -330l197 330h102z" />
    <glyph glyph-name="Euro.tf" 
d="M462.5 103q37.5 34 51.5 92h89q-22 -91 -85 -148.5t-158 -57.5q-207 0 -211 254h-66l22 61h45q0 13 1 22t2 15q2 24 5 36h-60l23 61h48q58 254 265 254q95 0 146 -57.5t54 -148.5h-89q-2 58 -32.5 92t-87.5 34q-70 0 -110 -45t-59 -129h207l-22 -61h-195q-3 -12 -5 -36
q-3 -19 -3 -37h210l-22 -61h-190q2 -84 32 -129t100 -45q57 0 94.5 34z" />
    <glyph glyph-name="uni20A9.tf" 
d="M601 381l-21 -81h75l-8 -67h-87l-63 -233h-86l-33 541l-148 -541h-86l-15 233h-88l8 67h76l-5 81h-63l7 66h51l-15 233h91l15 -546l148 546h75l34 -546l130 546h90l-63 -233h50l-7 -66h-62z" />
    <glyph glyph-name="uni20B4.tf" 
d="M437 335l-69 -31h226l-5 -49h-326q-35 -19 -49.5 -41.5t-14.5 -58.5q0 -41 31 -64t88 -23q70 0 113.5 30t48.5 82h83q-9 -86 -76.5 -139t-177.5 -53q-91 0 -144.5 41t-53.5 113q0 67 35 113h-55l5 49h102q21 14 55 29l105 45h-254l5 50h343q25 20 35 44.5t10 57.5
q0 39 -28.5 61.5t-79.5 22.5q-62 0 -99 -27t-42 -76h-83q8 83 71.5 132t159.5 49q86 0 136.5 -40t50.5 -111q0 -60 -33 -113h57l-5 -50h-96q-26 -23 -69 -43z" />
    <glyph glyph-name="uni20B8.tf" 
d="M136 680h509l-8 -82h-509zM320 441h-209l9 82h509l-9 -82h-209l-46 -441h-91z" />
    <glyph glyph-name="uni20AE.tf" 
d="M428 598l-15 -143l129 59l-7 -70l-130 -59l-7 -67l130 59l-8 -69l-129 -59l-26 -249h-91l22 206l-130 -59l8 69l129 59l7 67l-129 -59l7 70l129 59l20 186h-209l8 82h509l-8 -82h-209z" />
    <glyph glyph-name="currency" unicode="&#xa4;" horiz-adv-x="587" 
d="M47 162l75 68q-30 52 -30 112q0 46 15.5 89t43.5 78l-59 68l59 55l60 -68q64 44 146 44t138 -43l73 66l50 -54l-74 -67q30 -54 30 -115q0 -45 -16 -88t-44 -77l60 -67l-61 -55l-59 67q-64 -43 -147 -43q-79 0 -136 43l-75 -67zM403.5 234q39.5 25 61.5 66.5t22 88.5
q0 61 -37.5 101.5t-100.5 40.5q-48 0 -86.5 -25t-60.5 -66.5t-22 -88.5q0 -61 37 -101.5t98 -40.5q49 0 88.5 25z" />
    <glyph glyph-name="fraction" unicode="&#x2044;" horiz-adv-x="155" 
d="M-185 18l544 682l54 -38l-544 -682z" />
    <glyph glyph-name="onequarter" unicode="&#xbc;" horiz-adv-x="816" 
d="M686 662l-544 -682l-54 38l544 682zM181 553h-92l6 57q59 0 81 16t26 54h64l-41 -394h-72zM794 120h-57l-13 -120h-74l13 120h-171l28 274h74l-22 -210h97l12 109h74l-12 -109h57z" />
    <glyph glyph-name="onehalf" unicode="&#xbd;" horiz-adv-x="796" 
d="M88 18l544 682l54 -38l-544 -682zM181 553h-92l6 57q59 0 81 16t26 54h64l-41 -394h-72zM486 111.5q28 41.5 88 69.5l70 33q60 26 60 80q0 23 -15.5 36t-41.5 13q-35 0 -57 -21t-26 -58h-76q7 63 52 100.5t113 37.5q60 0 94.5 -26t34.5 -72q0 -44 -24 -78t-69 -55
l-66 -32q-35 -16 -51 -32.5t-23 -44.5h208l-7 -62h-300q8 70 36 111.5z" />
    <glyph glyph-name="threequarters" unicode="&#xbe;" horiz-adv-x="908" 
d="M778 662l-544 -682l-54 38l544 682zM334 310.5q-45 -32.5 -114 -32.5q-67 0 -103.5 29.5t-36.5 84.5q0 12 1 18h76q-4 -34 15 -53.5t55 -19.5q37 0 59 19.5t22 51.5q0 26 -17.5 40t-52.5 14h-38l6 57h38q35 0 55 15t23 43q2 25 -15.5 40t-47.5 15q-33 0 -54 -17t-24 -47
h-75q5 54 48.5 87t111.5 33q61 0 97 -26t36 -70q0 -38 -23.5 -64.5t-67.5 -36.5q38 -5 59.5 -31.5t17.5 -63.5q-6 -53 -51 -85.5zM886 120h-57l-13 -120h-74l13 120h-171l28 274h74l-22 -210h97l12 109h74l-12 -109h57z" />
    <glyph glyph-name="percent" unicode="%" horiz-adv-x="779" 
d="M124 18l544 682l54 -32l-542 -682zM115.5 391.5q-42.5 43.5 -42.5 108.5q0 49 24.5 92t69 69.5t101.5 26.5q74 0 116.5 -43t42.5 -107q0 -50 -24 -93.5t-68.5 -70t-101.5 -26.5q-75 0 -117.5 43.5zM320.5 449.5q30.5 33.5 30.5 81.5q0 39 -23.5 64t-66.5 25
q-50 0 -81 -33t-31 -81q0 -39 24 -64.5t67 -25.5q50 0 80.5 33.5zM464.5 38.5q-42.5 43.5 -42.5 107.5q0 49 24.5 92.5t69 70t101.5 26.5q74 0 116.5 -43t42.5 -107q0 -49 -24.5 -93t-69 -70.5t-101.5 -26.5q-74 0 -116.5 43.5zM669.5 96.5q30.5 33.5 30.5 81.5
q0 39 -23.5 64t-66.5 25q-50 0 -81 -33.5t-31 -81.5q0 -39 24 -64t67 -25q50 0 80.5 33.5z" />
    <glyph glyph-name="perthousand" unicode="&#x2030;" horiz-adv-x="1158" 
d="M124 18l544 682l54 -32l-542 -682zM115.5 391.5q-42.5 43.5 -42.5 108.5q0 49 24.5 92t69 69.5t101.5 26.5q74 0 116.5 -43t42.5 -107q0 -50 -24 -93.5t-68.5 -70t-101.5 -26.5q-75 0 -117.5 43.5zM320.5 449.5q30.5 33.5 30.5 81.5q0 39 -23.5 64t-66.5 25
q-50 0 -81 -33t-31 -81q0 -39 24 -64.5t67 -25.5q50 0 80.5 33.5zM464.5 38.5q-42.5 43.5 -42.5 107.5q0 49 24.5 92.5t69 70t101.5 26.5q74 0 116.5 -43t42.5 -107q0 -49 -24.5 -93t-69 -70.5t-101.5 -26.5q-74 0 -116.5 43.5zM844.5 38.5q-42.5 43.5 -42.5 107.5
q0 49 24.5 92.5t69 70t101.5 26.5q74 0 116.5 -43t42.5 -107q0 -49 -24.5 -93t-69 -70.5t-101.5 -26.5q-74 0 -116.5 43.5zM669.5 96.5q30.5 33.5 30.5 81.5q0 39 -23.5 64t-66.5 25q-50 0 -81 -33.5t-31 -81.5q0 -39 24 -64t67 -25q50 0 80.5 33.5zM1049.5 96.5
q30.5 33.5 30.5 81.5q0 39 -23.5 64t-66.5 25q-50 0 -81 -33.5t-31 -81.5q0 -39 24 -64t67 -25q50 0 80.5 33.5z" />
    <glyph glyph-name="perthousand.tf" 
d="M461 675l-379 -692l-23 12l380 692zM255 388.5q-37 -47.5 -93 -47.5q-49 0 -77 38t-28 100q0 10 2 32q8 74 45.5 122t93.5 48q50 0 77 -38t27 -101q0 -9 -2 -31q-8 -75 -45 -122.5zM117 484q0 -38 13.5 -60.5t37.5 -22.5q33 0 53.5 38.5t20.5 98.5q0 38 -13.5 60
t-37.5 22q-29 0 -48 -29.5t-24 -79.5q-2 -20 -2 -27zM627 298.5q28 -38.5 28 -101.5q0 -10 -2 -30q-8 -75 -45.5 -122.5t-93.5 -47.5q-58 0 -86 52q-39 -52 -97 -52q-49 0 -77 38t-28 100q0 10 2 32q8 75 45 122.5t93 47.5q58 0 87 -53q37 53 96 53q50 0 78 -38.5zM391 95
q21 38 21 96q0 40 -13 62.5t-39 22.5q-32 0 -52.5 -38t-20.5 -97q0 -39 13 -61.5t37 -22.5q33 0 54 38zM573.5 95q20.5 38 20.5 96q0 40 -13 62.5t-38 22.5q-33 0 -53.5 -38t-20.5 -98q0 -38 13.5 -60.5t37.5 -22.5q33 0 53.5 38z" />
    <glyph glyph-name="zero.zero" horiz-adv-x="609" 
d="M545.5 623q56.5 -69 56.5 -204q0 -41 -4 -78q-18 -172 -93 -262t-201 -90q-111 0 -167.5 69.5t-56.5 204.5q0 41 4 78q18 172 93 261.5t201 89.5q111 0 167.5 -69zM166 267q0 -90 30 -140l249 466q-29 19 -76 19q-171 0 -199 -271q-4 -36 -4 -74zM511 341q4 35 4 72
q0 93 -32 143l-249 -467q32 -20 78 -20q171 0 199 272z" />
    <glyph glyph-name="zero" unicode="0" horiz-adv-x="609" 
d="M136.5 58.5q-56.5 69.5 -56.5 204.5q0 41 4 78q18 172 93 261.5t201 89.5q111 0 167.5 -69t56.5 -204q0 -41 -4 -78q-18 -172 -93 -262t-201 -90q-111 0 -167.5 69.5zM511 341q4 35 4 72q0 199 -146 199q-171 0 -199 -271q-4 -35 -4 -73q0 -199 146 -199q171 0 199 272z
" />
    <glyph glyph-name="one" unicode="1" horiz-adv-x="379" 
d="M229 487h-142l8 77q61 0 94 11t48 36t19 69h83l-71 -680h-90z" />
    <glyph glyph-name="two" unicode="2" horiz-adv-x="569" 
d="M111.5 183q46.5 70 142.5 117l109 55q110 53 110 156q0 45 -29.5 72.5t-78.5 27.5q-66 0 -107 -41t-48 -116h-94q7 71 41.5 125t90.5 83t126 29q92 0 144 -44.5t52 -121.5q0 -72 -40.5 -131.5t-115.5 -97.5l-109 -55q-66 -34 -95 -67.5t-42 -91.5h357l-9 -82h-463
q12 113 58.5 183z" />
    <glyph glyph-name="three" unicode="3" horiz-adv-x="563" 
d="M117 40.5q-58 51.5 -58 143.5q0 10 2 30h92q-1 -7 -1 -20q0 -61 36 -94.5t101 -33.5q67 0 110 39.5t43 101.5q0 52 -34 80t-98 28h-50l8 78h51q62 0 98 29.5t41 84.5l1 13q0 43 -31 69t-83 26q-63 0 -103.5 -34.5t-46.5 -93.5h-89q10 93 77 148.5t170 55.5q91 0 145 -44
t54 -118q0 -67 -36.5 -111.5t-105.5 -61.5q56 -7 90 -47.5t34 -98.5q0 -13 -1 -20q-6 -59 -40.5 -104.5t-89.5 -71t-122 -25.5q-106 0 -164 51.5z" />
    <glyph glyph-name="four" unicode="4" horiz-adv-x="574" 
d="M558 220h-106l-23 -220h-90l23 220h-274l48 460h90l-39 -378h184l21 201h90l-21 -201h106z" />
    <glyph glyph-name="five" unicode="5" horiz-adv-x="576" 
d="M179.5 13q-48.5 24 -74.5 66.5t-24 96.5h92q-1 -49 34 -77.5t94 -28.5q76 0 122 50.5t46 134.5q0 61 -32.5 96t-89.5 35q-56 0 -93.5 -20.5t-62.5 -66.5h-84l40 381h414l-8 -81h-331l-22 -210q29 35 72 53t94 18q90 0 140.5 -51.5t50.5 -140.5q0 -11 -2 -35
q-7 -70 -42 -125.5t-92.5 -87t-129.5 -31.5q-63 0 -111.5 24z" />
    <glyph glyph-name="six" unicode="6" horiz-adv-x="568" 
d="M449 445.5q49 -27.5 74.5 -75.5t25.5 -109q0 -11 -2 -31q-7 -67 -42 -122.5t-92.5 -87.5t-130.5 -32q-67 0 -116 27.5t-75 76t-26 108.5q0 53 18.5 101t51.5 85l237 294h109l-173 -208q8 1 25 1q67 0 116 -27.5zM380 91q39 25 60.5 67.5t21.5 94.5q0 63 -36 102.5
t-101 39.5q-51 0 -90 -25t-60.5 -67.5t-21.5 -94.5q0 -63 36 -102.5t101 -39.5q51 0 90 25z" />
    <glyph glyph-name="seven" unicode="7" horiz-adv-x="513" 
d="M439 596h-331l8 84h468l-423 -680h-101z" />
    <glyph glyph-name="eight" unicode="8" horiz-adv-x="578" 
d="M128 36q-59 47 -59 127q0 71 37 121.5t101 67.5q-45 14 -69.5 51t-24.5 87q0 59 32 104.5t89 71t128 25.5q96 0 153.5 -44.5t57.5 -117.5q0 -61 -36 -110.5t-93 -66.5q51 -14 78 -52t27 -92q0 -15 -1 -22q-10 -90 -80.5 -143.5t-179.5 -53.5q-101 0 -160 47zM438 424
q41 35 41 91q0 47 -33.5 74.5t-91.5 27.5q-67 0 -108 -34.5t-41 -92.5q0 -46 34.5 -73.5t90.5 -27.5q67 0 108 35zM412 105q45 39 45 102q0 50 -36.5 80t-98.5 30q-69 0 -114.5 -38.5t-45.5 -101.5q0 -50 36.5 -80.5t97.5 -30.5q71 0 116 39z" />
    <glyph glyph-name="nine" unicode="9" horiz-adv-x="555" 
d="M492 294l-238 -294h-109l174 208q-8 -1 -25 -1q-68 0 -117 27.5t-74.5 76t-25.5 109.5q0 10 2 30q7 67 42 122.5t93 87.5t131 32q67 0 116 -27.5t74.5 -75.5t25.5 -109q0 -10 -2 -30q-9 -90 -67 -156zM200.5 325q36.5 -40 101.5 -40q51 0 90 25t60 68t21 95
q0 63 -35.5 102t-100.5 39q-51 0 -90.5 -25t-61 -67t-21.5 -93q0 -64 36.5 -104z" />
    <glyph glyph-name="zero.tf.zero" 
d="M510 662.5q51 -28.5 79 -78.5t28 -113q0 -19 -1 -28l-23 -215q-7 -67 -45 -122t-98 -86.5t-131 -31.5q-66 0 -117.5 27.5t-79.5 76t-28 109.5q0 18 1 27l23 215q7 69 45 126t98.5 89.5t131.5 32.5q66 0 117 -28.5zM186 228q-1 -7 -1 -20q0 -48 23 -78l247 462
q-32 17 -71 17q-46 0 -84.5 -22t-62.5 -59.5t-28 -84.5zM525 443q1 7 1 19q0 52 -25 89l-248 -463q32 -18 74 -18q46 0 84.5 21t62.5 57t28 80z" />
    <glyph glyph-name="zero.tf" 
d="M201.5 15.5q-51.5 27.5 -79.5 76t-28 109.5q0 18 1 27l23 215q7 69 45 126t98.5 89.5t131.5 32.5q66 0 117 -28.5t79 -78.5t28 -113q0 -19 -1 -28l-23 -215q-7 -67 -45 -122t-98 -86.5t-131 -31.5q-66 0 -117.5 27.5zM411.5 91q38.5 21 62.5 57t28 80l23 215q1 7 1 19
q0 65 -39 106t-103 41q-46 0 -84.5 -22t-62.5 -59.5t-28 -84.5l-23 -215q-1 -6 -1 -18q0 -61 39 -100.5t103 -39.5q46 0 84.5 21z" />
    <glyph glyph-name="one.tf" 
d="M581 82l-9 -82h-504l9 82h209l42 405h-182l8 77h23q83 0 126 26.5t57 89.5h79l-62 -598h204z" />
    <glyph glyph-name="two.tf" 
d="M124.5 183.5q51.5 69.5 159.5 116.5l124 55q123 52 123 154q0 46 -35.5 74.5t-93.5 28.5q-77 0 -125 -41.5t-55 -116.5h-96q7 72 45 126t100 83t140 29q102 0 160.5 -45.5t58.5 -123.5q0 -72 -44 -133t-126 -98l-124 -56q-54 -24 -84.5 -44.5t-47 -45.5t-25.5 -64h415
l-9 -82h-524q12 114 63.5 183.5z" />
    <glyph glyph-name="three.tf" 
d="M145 41q-64 52 -64 146q0 18 1 27h95q-1 -6 -1 -18q0 -62 41 -96t116 -34q77 0 125 39t48 100q0 53 -39 81.5t-113 28.5h-56l8 78h57q70 0 111.5 29.5t46.5 84.5q5 48 -31.5 78.5t-100.5 30.5q-71 0 -116.5 -34.5t-52.5 -94.5h-92q10 94 82.5 149.5t185.5 55.5
q101 0 161 -45t60 -120q0 -66 -40.5 -110t-116.5 -61q63 -7 101.5 -48t38.5 -100q0 -12 -1 -18q-6 -59 -43 -104.5t-97 -71t-134 -25.5q-116 0 -180 52z" />
    <glyph glyph-name="four.tf" 
d="M600 220h-139l-23 -220h-93l23 220h-282l48 460h92l-39 -378h190l21 201h93l-21 -201h139z" />
    <glyph glyph-name="five.tf" 
d="M140.5 39q-63.5 50 -59.5 137h93q-1 -49 39 -77.5t107 -28.5q86 0 137.5 49t51.5 132q0 61 -38 96t-107 35q-60 0 -101 -20t-69 -63h-86l40 381h473l-8 -81h-389l-22 -210q31 36 79 53.5t105 17.5q101 0 159 -53t58 -144q0 -9 -2 -31q-7 -72 -45.5 -127t-101.5 -85.5
t-144 -30.5q-106 0 -169.5 50z" />
    <glyph glyph-name="six.tf" 
d="M496.5 445.5q53.5 -27.5 82 -75.5t28.5 -110q0 -75 -36 -137.5t-102 -98.5t-150 -36q-73 0 -127 27.5t-82 76t-28 110.5q0 50 16.5 95t47.5 80l264 303h111l-189 -209q26 2 39 2q72 0 125.5 -27.5zM426.5 90.5q43.5 24.5 67.5 66.5t24 94q0 64 -41.5 104t-114.5 40
q-56 0 -99.5 -24t-68 -66.5t-24.5 -94.5q0 -64 42 -104t115 -40q56 0 99.5 24.5z" />
    <glyph glyph-name="seven.tf" 
d="M508 596h-383l8 84h526l-466 -680h-102z" />
    <glyph glyph-name="eight.tf" 
d="M147 36.5q-63 47.5 -63 127.5q0 72 40.5 121.5t115.5 66.5q-53 14 -82 51.5t-29 88.5q0 58 34 103t94 70.5t136 25.5q68 0 119 -20.5t79 -57t28 -85.5q0 -62 -40.5 -110.5t-106.5 -65.5q60 -14 92 -52.5t32 -94.5q0 -12 -1 -19q-6 -59 -42.5 -104t-96.5 -69t-137 -24
q-109 0 -172 47.5zM479 423.5q45 34.5 45 90.5q0 48 -37 75.5t-102 27.5q-73 0 -118 -34.5t-45 -91.5q0 -46 38 -74t101 -28q73 0 118 34.5zM454 104.5q49 38.5 49 100.5q0 52 -40.5 82t-109.5 30q-75 0 -125.5 -38.5t-50.5 -99.5q0 -52 41 -82.5t109 -30.5q78 0 127 38.5z
" />
    <glyph glyph-name="nine.tf" 
d="M613 384q-17 -45 -47 -81l-265 -303h-111l190 209q-26 -2 -39 -2q-73 0 -126.5 27.5t-81.5 76.5t-28 111q0 75 36.5 136.5t102 97.5t149.5 36q73 0 126.5 -27.5t82 -75.5t28.5 -110q0 -50 -17 -95zM235 325q42 -40 115 -40q56 0 99.5 24.5t67.5 67t24 94.5
q0 64 -41.5 103.5t-114.5 39.5q-56 0 -100 -24.5t-68 -66.5t-24 -93q0 -65 42 -105z" />
    <glyph glyph-name="uni03BC" unicode="&#x3bc;" horiz-adv-x="567" 
d="M540 461l-48 -461h-87l9 84q-24 -44 -67 -70t-98 -26q-57 0 -85 31l-24 -232h-87l70 674h87l-27 -264q-2 -20 -2 -29q0 -105 100 -105q66 0 102.5 42t43.5 104l26 252h87z" />
    <glyph glyph-name="uni02BC" unicode="&#x2bc;" horiz-adv-x="276" 
d="M264 716.5q22 -23.5 22 -66.5q0 -66 -36.5 -108t-97.5 -42q-24 0 -32 2l4 40q12 -2 31 -2t34.5 9t24.5 24q16 22 18 50q-14 -15 -39 -15t-41 15.5t-16 41.5q0 32 22 53.5t54 21.5q30 0 52 -23.5z" />
    <glyph glyph-name="eth" unicode="&#xf0;" horiz-adv-x="555" 
d="M544 260q0 -10 -2 -30q-7 -67 -42 -122.5t-92.5 -87.5t-130.5 -32q-68 0 -117 27.5t-74.5 75.5t-25.5 109q0 10 2 30q7 72 44.5 127t96.5 85.5t131 30.5q12 0 18 -1l-46 78l-91 -47l-21 48l85 43l-61 106h109l36 -63l85 43l22 -45l-82 -42l123 -212q33 -53 33 -121z
M375 91q39 25 60 68t21 95q0 63 -35.5 102t-100.5 39q-51 0 -90.5 -25t-61 -67.5t-21.5 -93.5q0 -63 36.5 -103t101.5 -40q51 0 90 25z" />
    <glyph glyph-name="numbersign" unicode="#" horiz-adv-x="537" 
d="M140 209h-95l7 68h105l35 146h-95l8 68h104l51 209h72l-51 -209h126l51 209h72l-51 -209h88l-8 -68h-98l-35 -146h88l-7 -68h-98l-51 -209h-71l51 209h-127l-51 -209h-71zM355 277l35 146h-127l-35 -146h127z" />
    <glyph glyph-name="uni2116" unicode="&#x2116;" horiz-adv-x="1113" 
d="M154 700h97l257 -548l58 548h87l-74 -700h-96l-258 548l-58 -548h-87zM748 137q-41 23 -62.5 62.5t-21.5 87.5q0 58 28 108t78.5 79.5t114.5 29.5q56 0 97 -22.5t62.5 -61.5t21.5 -87q0 -58 -28 -108t-79 -80.5t-115 -30.5q-55 0 -96 23zM917.5 208.5q29.5 18.5 46 49.5
t16.5 66q0 45 -28 74.5t-75 29.5q-36 0 -65 -18t-45.5 -48.5t-16.5 -65.5q0 -45 28 -75.5t74 -30.5q36 0 65.5 18.5zM641 78h400l-8 -78h-400z" />
    <glyph glyph-name="uni0394" unicode="&#x394;" horiz-adv-x="584" 
d="M333 700h66l167 -700h-548zM449 82l-99 469l-197 -469h296z" />
    <glyph glyph-name="uni03A9" unicode="&#x3a9;" horiz-adv-x="702" 
d="M67 82h183l3 28q-82 29 -128.5 97.5t-46.5 156.5q0 11 2 35q9 85 54.5 156.5t121 114t170.5 42.5q87 0 151 -36.5t97.5 -99t33.5 -139.5q0 -12 -2 -38q-11 -100 -74 -179t-160 -111l-2 -27h183l-9 -82h-255l17 159q65 13 113 53.5t73 98.5t25 121q0 87 -52 142.5
t-148 55.5q-70 0 -123.5 -30.5t-84.5 -82.5t-38 -115q-2 -22 -2 -33q0 -79 41 -136t120 -74l-17 -159h-255z" />
    <glyph glyph-name="pi" unicode="&#x3c0;" horiz-adv-x="629" 
d="M177 377h-62l8 77h479l-8 -77h-63l-40 -377h-87l40 377h-180l-40 -377h-87z" />
    <glyph glyph-name="periodcentered" unicode="&#xb7;" horiz-adv-x="286" 
d="M121.5 259q-18.5 19 -18.5 46q0 33 23.5 56.5t55.5 23.5q29 0 48 -18.5t19 -46.5q0 -32 -25 -56t-57 -24q-27 0 -45.5 19z" />
    <glyph glyph-name="braceleft" unicode="{" horiz-adv-x="314" 
d="M144 -161.5q-36 31.5 -36 88.5q0 13 1 19l21 197q3 31 -10 51.5t-33.5 30t-38.5 9.5l7 72q18 0 41 9.5t40.5 30t20.5 51.5l20 197q5 45 27.5 76.5t55 47t66.5 15.5h59l-7 -69h-47q-35 0 -54 -24.5t-22 -61.5l-20 -192q-6 -55 -38.5 -81.5t-68.5 -34.5q32 -7 57.5 -30
t25.5 -69q0 -11 -1 -17l-20 -192q-1 -6 -1 -17q0 -31 14 -50t45 -19h47l-7 -69h-59q-49 0 -85 31.5z" />
    <glyph glyph-name="braceright" unicode="}" horiz-adv-x="314" 
d="M-14 -193l7 69h47q35 0 53.5 24t22.5 62l20 192q6 55 38 81.5t68 34.5q-31 8 -56.5 30.5t-25.5 68.5q0 11 1 17l20 192l1 15q0 32 -14 51.5t-45 19.5h-47l7 69h59q49 0 84.5 -31.5t35.5 -88.5q0 -13 -1 -19l-20 -197q-3 -31 10 -51.5t33.5 -30t38.5 -9.5l-7 -72
q-18 0 -41 -9.5t-40.5 -30t-20.5 -51.5l-21 -197q-5 -45 -27.5 -76.5t-54.5 -47t-66 -15.5h-59z" />
    <glyph glyph-name="uni00AD" unicode="&#xad;" horiz-adv-x="410" 
d="M85 301h305l-9 -78h-305z" />
    <glyph glyph-name="guillemotleft" unicode="&#xab;" horiz-adv-x="498" 
d="M33 261l228 192l43 -50l-167 -142l138 -142l-55 -50zM255 261l228 192l43 -50l-167 -142l138 -142l-55 -50z" />
    <glyph glyph-name="guillemotright" unicode="&#xbb;" horiz-adv-x="498" 
d="M27 119l166 142l-137 142l55 50l186 -192l-227 -192zM249 119l166 142l-137 142l55 50l186 -192l-227 -192z" />
    <glyph glyph-name="plus" unicode="+" horiz-adv-x="504" 
d="M240 276h-158l8 77h158l17 161h82l-17 -161h158l-8 -77h-158l-17 -160h-82z" />
    <glyph glyph-name="minus" unicode="&#x2212;" horiz-adv-x="504" 
d="M90 353h398l-8 -77h-398z" />
    <glyph glyph-name="plusminus" unicode="&#xb1;" horiz-adv-x="504" 
d="M249 389h-155l8 77h155l12 112h87l-12 -112h156l-8 -77h-156l-12 -110h-87zM76 219h398l-8 -77h-398z" />
    <glyph glyph-name="multiply" unicode="&#xd7;" horiz-adv-x="486" 
d="M331 315l121 -136l-61 -55l-121 136l-149 -135l-49 54l149 136l-121 135l60 55l122 -136l150 136l49 -54z" />
    <glyph glyph-name="divide" unicode="&#xf7;" horiz-adv-x="504" 
d="M249.5 418q-17.5 18 -17.5 45q0 31 23.5 54t53.5 23q27 0 44.5 -18t17.5 -44q0 -32 -23 -55t-54 -23q-27 0 -44.5 18zM90 350h398l-8 -77h-398zM217.5 107q-17.5 18 -17.5 44q0 32 23 55t53 23q28 0 45.5 -18t17.5 -45q0 -31 -23.5 -54t-54.5 -23q-26 0 -43.5 18z" />
    <glyph glyph-name="equal" unicode="=" horiz-adv-x="529" 
d="M99 441h424l-8 -78h-424zM81 264h424l-8 -78h-424z" />
    <glyph glyph-name="less" unicode="&#x3c;" horiz-adv-x="500" 
d="M83 285l7 63l412 173l-9 -82l-287 -122l261 -123l-8 -82z" />
    <glyph glyph-name="greater" unicode="&#x3e;" horiz-adv-x="500" 
d="M73 194l287 123l-261 122l9 82l376 -173l-7 -63l-412 -173z" />
    <glyph glyph-name="degree" unicode="&#xb0;" horiz-adv-x="358" 
d="M120 423q-39 39 -39 98q0 47 23.5 86t63 62t84.5 23q61 0 100 -39t39 -98q0 -46 -23.5 -85.5t-63 -62.5t-85.5 -23q-60 0 -99 39zM295 479.5q27 28.5 27 69.5q0 33 -20.5 54.5t-56.5 21.5q-42 0 -68.5 -28.5t-26.5 -69.5q0 -33 20 -54.5t56 -21.5q42 0 69 28.5z" />
    <glyph glyph-name="approxequal" unicode="&#x2248;" horiz-adv-x="530" 
d="M354.5 327.5q-21.5 8.5 -49.5 24.5q-32 18 -55 26.5t-52 8.5q-51 0 -110 -53l8 76q25 27 55 40.5t58 13.5q24 0 49.5 -9.5t61.5 -27.5q34 -16 54 -23.5t37 -7.5q50 0 113 55l-8 -76q-27 -29 -56.5 -42.5t-57.5 -13.5q-26 0 -47.5 8.5zM338 168.5q-21 8.5 -49 24.5
q-32 18 -55 26.5t-52 8.5q-51 0 -110 -53l8 76q25 27 55 40.5t58 13.5q23 0 48 -9.5t63 -27.5q32 -16 52.5 -23.5t37.5 -7.5q50 0 115 55l-8 -76q-27 -29 -57 -42.5t-59 -13.5q-26 0 -47 8.5z" />
    <glyph glyph-name="greaterequal" unicode="&#x2265;" horiz-adv-x="504" 
d="M86 299l267 68l-252 66l8 83l382 -119l-7 -62l-406 -118zM70 159h398l-8 -78h-398z" />
    <glyph glyph-name="infinity" unicode="&#x221e;" horiz-adv-x="878" 
d="M161 111.5q-41 24.5 -61.5 65t-20.5 89.5q0 57 27 109t78.5 84t120.5 32q51 0 96.5 -30t76.5 -89q43 59 95 89t103 30q88 0 135.5 -49.5t47.5 -125.5q0 -61 -27 -113.5t-78 -84t-121 -31.5q-52 0 -97 30t-75 89q-43 -59 -95 -89t-104 -30q-60 0 -101 24.5zM350 196
q41 31 74 93q-20 61 -55 92.5t-73 31.5q-41 0 -71.5 -19.5t-47 -51.5t-16.5 -69q0 -47 28.5 -77.5t80.5 -30.5q39 0 80 31zM713 184.5q31 19.5 47.5 51.5t16.5 69q0 47 -28.5 77.5t-81.5 30.5q-38 0 -79.5 -31.5t-73.5 -92.5q19 -62 53.5 -93t73.5 -31q41 0 72 19.5z" />
    <glyph glyph-name="lessequal" unicode="&#x2264;" horiz-adv-x="504" 
d="M90 335l7 62l406 119l-8 -83l-266 -66l251 -68l-8 -82zM62 81l8 78h398l-8 -78h-398z" />
    <glyph glyph-name="logicalnot" unicode="&#xac;" horiz-adv-x="504" 
d="M402 348h-312l8 78h398l-24 -227h-86z" />
    <glyph glyph-name="notequal" unicode="&#x2260;" horiz-adv-x="529" 
d="M361 363l-54 -99h198l-8 -78h-234l-58 -104h-72l58 104h-118l8 78h153l55 99h-198l8 78h233l58 104h73l-58 -104h118l-8 -78h-154z" />
    <glyph glyph-name="integral" unicode="&#x222b;" horiz-adv-x="366" 
d="M28 -205l8 73q24 -9 43 -9q46 0 53 62l78 741q7 68 37.5 100t72.5 32q56 0 78 -12l-7 -73q-26 9 -44 9q-46 0 -52 -62l-78 -740q-7 -69 -38 -101t-73 -32q-49 0 -78 12z" />
    <glyph glyph-name="partialdiff" unicode="&#x2202;" horiz-adv-x="576" 
d="M512 649.5q55 -66.5 55 -212.5q0 -53 -5 -97q-20 -185 -89 -270.5t-191 -85.5q-107 0 -159.5 55.5t-52.5 140.5q0 72 32.5 132t90 94.5t128.5 34.5q48 0 89.5 -17t68.5 -52q3 39 3 71q0 105 -33 149t-102 44q-68 0 -106 -38t-44 -97h-91q6 60 37.5 109t85.5 77.5
t124 28.5q104 0 159 -66.5zM410.5 118q41.5 55 58.5 172q-23 36 -61.5 54t-83.5 18q-81 0 -124.5 -50.5t-43.5 -124.5q0 -54 31.5 -89t99.5 -35q82 0 123.5 55z" />
    <glyph glyph-name="product" unicode="&#x220f;" horiz-adv-x="720" 
d="M187 713h-62l8 81h620l-8 -81h-62l-97 -926h-92l97 926h-312l-97 -926h-92z" />
    <glyph glyph-name="radical" unicode="&#x221a;" horiz-adv-x="780" 
d="M186 176h-118l9 77h182l72 -316l386 857h96l-464 -1007h-66z" />
    <glyph glyph-name="summation" unicode="&#x2211;" horiz-adv-x="620" 
d="M36 -131l403 422l-314 422l8 81h520l-8 -85h-405l314 -418l-402 -418h405l-9 -86h-520z" />
    <glyph glyph-name="lozenge" unicode="&#x25ca;" horiz-adv-x="565" 
d="M92 396l235 398h78l152 -398l-235 -396h-78zM467 396l-110 304l-175 -304l110 -304z" />
    <glyph glyph-name="paragraph" unicode="&#xb6;" horiz-adv-x="667" 
d="M301 329q-89 0 -143 42t-54 122q0 18 1 27q12 116 92.5 156.5t176.5 40.5h318l-7 -72h-53l-84 -793h-82l84 792h-134l-84 -792h-82z" />
    <glyph glyph-name="section" unicode="&#xa7;" horiz-adv-x="552" 
d="M410 99q33 -24 50.5 -54.5t17.5 -74.5q0 -91 -64 -142.5t-168 -51.5q-99 0 -149.5 44.5t-50.5 119.5q0 15 1 23h93q-1 -5 -1 -15q0 -44 29 -69.5t87 -25.5q60 0 94 27.5t34 77.5q0 33 -18.5 56t-46.5 38t-75 34q-53 22 -84.5 39.5t-54 47.5t-22.5 74q0 103 108 152
q-31 22 -48 52.5t-17 73.5q0 56 29.5 99.5t82 68t119.5 24.5q100 0 151 -44.5t51 -120.5q0 -15 -1 -23h-95q1 5 1 16q0 44 -28.5 70t-85.5 26q-60 0 -94 -28t-34 -78q0 -33 18.5 -55.5t47 -37.5t74.5 -33q53 -21 84.5 -38.5t54 -46.5t22.5 -73q0 -102 -112 -152z
M406.5 176.5q24.5 25.5 24.5 61.5q0 27 -16.5 46t-42 31.5t-69.5 29.5l-41 16q-88 -30 -88 -99q0 -28 17 -47t41.5 -32t69.5 -31l37 -15q43 14 67.5 39.5z" />
    <glyph glyph-name="asciicircum" unicode="^" horiz-adv-x="553" 
d="M318 703h62l155 -400h-98l-100 290l-160 -290h-95z" />
    <glyph glyph-name="daggerdbl" unicode="&#x2021;" horiz-adv-x="434" 
d="M175 9h-124l8 76h124l31 296h-124l8 75h124l27 261h87l-27 -261h123l-8 -75h-123l-31 -296h123l-8 -76h-123l-20 -191h-87z" />
    <glyph glyph-name="uni0243" unicode="&#x243;" horiz-adv-x="582" 
d="M505 68.5q-52 -54.5 -141 -65.5l-10 -102h-66l10 99h-60l-10 -99h-66l10 99h-92l72 681h92l10 99h66l-10 -99h60l10 99h66l-11 -103q70 -11 108.5 -50.5t38.5 -100.5q0 -15 -1 -22q-7 -67 -46.5 -107t-102.5 -50q55 -5 90 -42t35 -97q0 -85 -52 -139.5zM234 601l-23 -216
h142q61 0 99 33t38 88q0 45 -32 70t-88 25h-136zM428.5 114.5q38.5 34.5 38.5 93.5q0 44 -30 71t-79 27h-155l-24 -226h147q64 0 102.5 34.5z" />
    <glyph glyph-name="uni00A40301" horiz-adv-x="536" 
d="M391 791l229 103l25 -59l-228 -104zM98 38.5q-54 54.5 -54 148.5q0 11 2 35h91q-1 -9 -1 -25q0 -61 32 -96t88 -35q63 0 103 42.5t48 115.5l50 476h91l-50 -476q-12 -111 -79 -175.5t-172 -64.5q-95 0 -149 54.5z" />
    <glyph glyph-name="uni0243.case" horiz-adv-x="582" 
d="M498 63q-51 -49 -134 -60l-11 -105h-66l11 102h-60l-11 -102h-66l11 102h-92l74 700h92l10 102h66l-10 -102h60l10 102h66l-11 -106q70 -11 108.5 -51t38.5 -104q0 -14 -1 -22q-7 -69 -46.5 -110.5t-102.5 -51.5q54 -6 89 -44.5t35 -100.5q0 -15 -1 -22q-8 -78 -59 -127z
M236 620l-24 -226h142q61 0 99 35.5t38 94.5q0 46 -31.5 71t-87.5 25h-136zM423.5 112.5q37.5 31.5 43.5 87.5l1 14q0 46 -30 73.5t-79 27.5h-155l-24 -234h147q59 0 96.5 31.5z" />
    <glyph glyph-name="uni0243.tf" 
d="M516 68.5q-52 -54.5 -141 -65.5l-10 -102h-66l10 99h-60l-10 -99h-66l10 99h-92l72 681h92l10 99h66l-10 -99h60l10 99h66l-11 -103q71 -11 109 -50t38 -101q0 -14 -1 -22q-7 -67 -46.5 -107t-102.5 -50q55 -5 90 -42t35 -97q0 -85 -52 -139.5zM245 601l-23 -216h142
q61 0 99 33t38 88q0 45 -32 70t-88 25h-136zM440 114.5q38 34.5 38 93.5q0 44 -30 71t-79 27h-155l-24 -226h148q64 0 102 34.5z" />
    <glyph glyph-name="uni0243.tf.tf.case" 
d="M509 63q-51 -49 -134 -60l-11 -105h-66l11 102h-60l-11 -102h-66l11 102h-92l74 700h92l10 102h66l-10 -102h60l10 102h66l-11 -106q70 -11 108.5 -51t38.5 -104q0 -14 -1 -22q-7 -69 -46.5 -110.5t-102.5 -51.5q54 -6 89 -44.5t35 -100.5q0 -15 -1 -22q-8 -78 -59 -127z
M247 620l-24 -226h142q61 0 99 35.5t38 94.5q0 46 -31.5 71t-87.5 25h-136zM435 112.5q37 31.5 43 87.5l1 14q0 46 -30 73.5t-79 27.5h-155l-24 -234h148q59 0 96 31.5z" />
    <glyph glyph-name="Y.ss02" horiz-adv-x="596" 
d="M282 285l-212 415h106l161 -328l232 328h105l-300 -415l-30 -285h-92z" />
    <glyph glyph-name="Yacute.ss02" horiz-adv-x="596" 
d="M260 791l229 103l25 -59l-228 -104zM282 285l-212 415h106l161 -328l232 328h105l-300 -415l-30 -285h-92z" />
    <glyph glyph-name="Ycircumflex.ss02" horiz-adv-x="596" 
d="M512 777l-51 -42l-80 81l-99 -81l-40 42l147 115zM282 285l-212 415h106l161 -328l232 328h105l-300 -415l-30 -285h-92z" />
    <glyph glyph-name="Ydieresis.ss02" horiz-adv-x="596" 
d="M216 764q-17 17 -17 43q0 30 22 52t51 22q27 0 43.5 -17.5t16.5 -43.5q0 -30 -22 -51.5t-52 -21.5q-25 0 -42 17zM452 764q-17 17 -17 43q0 30 22 52t51 22q27 0 44 -17.5t17 -43.5q0 -30 -22.5 -51.5t-52.5 -21.5q-25 0 -42 17zM282 285l-212 415h106l161 -328l232 328
h105l-300 -415l-30 -285h-92z" />
    <glyph glyph-name="Ygrave.ss02" horiz-adv-x="596" 
d="M257 835l37 59l207 -103l-38 -60zM282 285l-212 415h106l161 -328l232 328h105l-300 -415l-30 -285h-92z" />
    <glyph glyph-name="Adieresis.ss05" horiz-adv-x="590" 
d="M334 734h-72l99 111h72zM392 734l99 111h72l-99 -111h-72zM451 107h-291l-44 -107h-98l311 700h80l163 -700h-98zM435 189l-81 385l-159 -385h240z" />
    <glyph glyph-name="Edieresis.ss05" horiz-adv-x="545" 
d="M251 734l99 111h72l-99 -111h-72zM381 734l99 111h72l-99 -111h-72zM154 700h398l-9 -82h-307l-24 -229h307l-9 -82h-307l-23 -225h307l-9 -82h-398z" />
    <glyph glyph-name="Odieresis.ss05" horiz-adv-x="797" 
d="M365 734l99 111h72l-99 -111h-72zM495 734l99 111h72l-99 -111h-72zM222.5 26.5q-73.5 42.5 -111.5 115.5t-38 163q0 30 2 45q10 100 62.5 183.5t139.5 133t197 49.5q101 0 174.5 -43t112 -116.5t38.5 -163.5q0 -15 -2 -43q-11 -100 -63.5 -183.5t-140 -133t-196.5 -49.5
q-101 0 -174.5 42.5zM552.5 104.5q64.5 38.5 102.5 103.5t46 142q2 26 2 39q0 69 -27.5 124.5t-81 88t-128.5 32.5q-82 0 -146.5 -38.5t-103 -103t-46.5 -142.5q-2 -26 -2 -39q0 -69 27.5 -124.5t81.5 -88t129 -32.5q82 0 146.5 38.5z" />
    <glyph glyph-name="Udieresis.ss05" horiz-adv-x="635" 
d="M284 734l99 111h72l-99 -111h-72zM414 734l99 111h72l-99 -111h-72zM146 38q-61 54 -61 155q0 11 2 37l50 470h91l-49 -465q-2 -20 -2 -28q0 -69 39 -105t108 -36q76 0 124.5 43.5t57.5 125.5l49 465h91l-50 -470q-13 -118 -88 -182t-193 -64q-108 0 -169 54z" />
    <glyph glyph-name="uni006A0301" horiz-adv-x="240" 
d="M87 576l160 99l34 -60l-161 -99zM-42 -208l8 79q19 -7 47 -7q51 0 57 62l56 535h87l-58 -559q-6 -58 -41 -89.5t-93 -31.5q-44 0 -63 11z" />
    <glyph glyph-name="a.ss03" horiz-adv-x="528" 
d="M95.5 21q-40.5 32 -40.5 89q0 40 17 72.5t49 53.5q28 19 71 29.5t108 13.5l102 4l3 27q4 46 -22 69t-78 23q-51 0 -84.5 -19.5t-39.5 -53.5h-87q12 64 68.5 104t153.5 40q91 0 132.5 -37.5t41.5 -113.5q0 -11 -2 -37l-30 -285h-87l7 70q-53 -81 -171 -81q-71 0 -111.5 32
zM344 94.5q41 35.5 48 97.5l3 27l-133 -8q-58 -3 -88.5 -25.5t-30.5 -63.5q0 -31 24.5 -47t69.5 -16q66 0 107 35.5z" />
    <glyph glyph-name="aacute.ss03" horiz-adv-x="528" 
d="M166 573l286 115l22 -65l-286 -117zM95.5 21q-40.5 32 -40.5 89q0 40 17 72.5t49 53.5q28 19 71 29.5t108 13.5l102 4l3 27q4 46 -22 69t-78 23q-51 0 -84.5 -19.5t-39.5 -53.5h-87q12 64 68.5 104t153.5 40q91 0 132.5 -37.5t41.5 -113.5q0 -11 -2 -37l-30 -285h-87
l7 70q-53 -81 -171 -81q-71 0 -111.5 32zM344 94.5q41 35.5 48 97.5l3 27l-133 -8q-58 -3 -88.5 -25.5t-30.5 -63.5q0 -31 24.5 -47t69.5 -16q66 0 107 35.5z" />
    <glyph glyph-name="abreve.ss03" horiz-adv-x="528" 
d="M200 548q-43 40 -40 110h74q-1 -42 24 -64t67 -22q43 0 73 22t37 64h74q-13 -70 -64.5 -110t-126.5 -40t-118 40zM95.5 21q-40.5 32 -40.5 89q0 40 17 72.5t49 53.5q28 19 71 29.5t108 13.5l102 4l3 27q4 46 -22 69t-78 23q-51 0 -84.5 -19.5t-39.5 -53.5h-87
q12 64 68.5 104t153.5 40q91 0 132.5 -37.5t41.5 -113.5q0 -11 -2 -37l-30 -285h-87l7 70q-53 -81 -171 -81q-71 0 -111.5 32zM344 94.5q41 35.5 48 97.5l3 27l-133 -8q-58 -3 -88.5 -25.5t-30.5 -63.5q0 -31 24.5 -47t69.5 -16q66 0 107 35.5z" />
    <glyph glyph-name="acircumflex.ss03" horiz-adv-x="528" 
d="M499 552l-52 -52l-118 112l-138 -111l-42 51l189 146zM95.5 21q-40.5 32 -40.5 89q0 40 17 72.5t49 53.5q28 19 71 29.5t108 13.5l102 4l3 27q4 46 -22 69t-78 23q-51 0 -84.5 -19.5t-39.5 -53.5h-87q12 64 68.5 104t153.5 40q91 0 132.5 -37.5t41.5 -113.5q0 -11 -2 -37
l-30 -285h-87l7 70q-53 -81 -171 -81q-71 0 -111.5 32zM344 94.5q41 35.5 48 97.5l3 27l-133 -8q-58 -3 -88.5 -25.5t-30.5 -63.5q0 -31 24.5 -47t69.5 -16q66 0 107 35.5z" />
    <glyph glyph-name="adieresis.ss03" horiz-adv-x="528" 
d="M179 556q-17 17 -17 43q0 30 22.5 52t51.5 22q26 0 43 -17t17 -43q0 -30 -22.5 -52t-51.5 -22q-26 0 -43 17zM379 556q-17 17 -17 43q0 30 22.5 52t51.5 22q26 0 43 -17t17 -43q0 -30 -22.5 -52t-51.5 -22q-26 0 -43 17zM95.5 21q-40.5 32 -40.5 89q0 40 17 72.5t49 53.5
q28 19 71 29.5t108 13.5l102 4l3 27q4 46 -22 69t-78 23q-51 0 -84.5 -19.5t-39.5 -53.5h-87q12 64 68.5 104t153.5 40q91 0 132.5 -37.5t41.5 -113.5q0 -11 -2 -37l-30 -285h-87l7 70q-53 -81 -171 -81q-71 0 -111.5 32zM344 94.5q41 35.5 48 97.5l3 27l-133 -8
q-58 -3 -88.5 -25.5t-30.5 -63.5q0 -31 24.5 -47t69.5 -16q66 0 107 35.5z" />
    <glyph glyph-name="agrave.ss03" horiz-adv-x="528" 
d="M171 622l36 65l262 -115l-36 -67zM95.5 21q-40.5 32 -40.5 89q0 40 17 72.5t49 53.5q28 19 71 29.5t108 13.5l102 4l3 27q4 46 -22 69t-78 23q-51 0 -84.5 -19.5t-39.5 -53.5h-87q12 64 68.5 104t153.5 40q91 0 132.5 -37.5t41.5 -113.5q0 -11 -2 -37l-30 -285h-87l7 70
q-53 -81 -171 -81q-71 0 -111.5 32zM344 94.5q41 35.5 48 97.5l3 27l-133 -8q-58 -3 -88.5 -25.5t-30.5 -63.5q0 -31 24.5 -47t69.5 -16q66 0 107 35.5z" />
    <glyph glyph-name="amacron.ss03" horiz-adv-x="528" 
d="M172 625h318l-8 -70h-318zM95.5 21q-40.5 32 -40.5 89q0 40 17 72.5t49 53.5q28 19 71 29.5t108 13.5l102 4l3 27q4 46 -22 69t-78 23q-51 0 -84.5 -19.5t-39.5 -53.5h-87q12 64 68.5 104t153.5 40q91 0 132.5 -37.5t41.5 -113.5q0 -11 -2 -37l-30 -285h-87l7 70
q-53 -81 -171 -81q-71 0 -111.5 32zM344 94.5q41 35.5 48 97.5l3 27l-133 -8q-58 -3 -88.5 -25.5t-30.5 -63.5q0 -31 24.5 -47t69.5 -16q66 0 107 35.5z" />
    <glyph glyph-name="aogonek.ss03" horiz-adv-x="528" 
d="M469 -133l-7 -64q-41 -15 -81 -15q-49 0 -78 24.5t-29 62.5q0 36 25 68t73 57h-1l7 70q-53 -81 -171 -81q-71 0 -111.5 32t-40.5 89q0 40 17 72.5t49 53.5q28 19 71 29.5t108 13.5l102 4l3 27q4 46 -22 69t-78 23q-51 0 -84.5 -19.5t-39.5 -53.5h-87q12 64 68.5 104
t153.5 40q91 0 132.5 -37.5t41.5 -113.5q0 -11 -2 -37l-30 -285q-52 -11 -76.5 -38t-24.5 -58q0 -23 15 -36.5t40 -13.5q28 0 57 13zM344 94.5q41 35.5 48 97.5l3 27l-133 -8q-58 -3 -88.5 -25.5t-30.5 -63.5q0 -31 24.5 -47t69.5 -16q66 0 107 35.5z" />
    <glyph glyph-name="aring.ss03" horiz-adv-x="528" 
d="M245 525.5q-28 26.5 -28 69.5q0 52 36.5 87t86.5 35q44 0 72.5 -27t28.5 -69q0 -52 -36.5 -87t-87.5 -35q-44 0 -72 26.5zM370 564.5q20 20.5 20 51.5q0 25 -15 40.5t-39 15.5q-28 0 -48 -20.5t-20 -51.5q0 -25 15 -40.5t39 -15.5q28 0 48 20.5zM95.5 21
q-40.5 32 -40.5 89q0 40 17 72.5t49 53.5q28 19 71 29.5t108 13.5l102 4l3 27q4 46 -22 69t-78 23q-51 0 -84.5 -19.5t-39.5 -53.5h-87q12 64 68.5 104t153.5 40q91 0 132.5 -37.5t41.5 -113.5q0 -11 -2 -37l-30 -285h-87l7 70q-53 -81 -171 -81q-71 0 -111.5 32zM344 94.5
q41 35.5 48 97.5l3 27l-133 -8q-58 -3 -88.5 -25.5t-30.5 -63.5q0 -31 24.5 -47t69.5 -16q66 0 107 35.5z" />
    <glyph glyph-name="atilde.ss03" horiz-adv-x="528" 
d="M360 538.5q-16 7.5 -40 23.5q-20 13 -33.5 19.5t-27.5 6.5q-18 0 -36 -9t-40 -33l-28 46q47 67 106 67q19 0 35 -7.5t39 -22.5q22 -13 35 -19.5t28 -6.5q19 0 36.5 9.5t37.5 31.5l28 -46q-46 -67 -104 -67q-20 0 -36 7.5zM95.5 21q-40.5 32 -40.5 89q0 40 17 72.5
t49 53.5q28 19 71 29.5t108 13.5l102 4l3 27q4 46 -22 69t-78 23q-51 0 -84.5 -19.5t-39.5 -53.5h-87q12 64 68.5 104t153.5 40q91 0 132.5 -37.5t41.5 -113.5q0 -11 -2 -37l-30 -285h-87l7 70q-53 -81 -171 -81q-71 0 -111.5 32zM344 94.5q41 35.5 48 97.5l3 27l-133 -8
q-58 -3 -88.5 -25.5t-30.5 -63.5q0 -31 24.5 -47t69.5 -16q66 0 107 35.5z" />
    <glyph glyph-name="y.ss04" horiz-adv-x="492" 
d="M28 -223q-11 2 -26 7l9 82q24 -9 53 -9q36 0 67 20.5t51 62.5l20 41l-143 480h90l112 -384l175 384h93l-268 -542q-38 -80 -88.5 -112t-116.5 -32q-17 0 -28 2z" />
    <glyph glyph-name="yacute.ss04" horiz-adv-x="492" 
d="M148 573l286 115l22 -65l-286 -117zM28 -223q-11 2 -26 7l9 82q24 -9 53 -9q36 0 67 20.5t51 62.5l20 41l-143 480h90l112 -384l175 384h93l-268 -542q-38 -80 -88.5 -112t-116.5 -32q-17 0 -28 2z" />
    <glyph glyph-name="ycircumflex.ss04" horiz-adv-x="492" 
d="M481 552l-52 -52l-118 112l-138 -111l-42 51l189 146zM28 -223q-11 2 -26 7l9 82q24 -9 53 -9q36 0 67 20.5t51 62.5l20 41l-143 480h90l112 -384l175 384h93l-268 -542q-38 -80 -88.5 -112t-116.5 -32q-17 0 -28 2z" />
    <glyph glyph-name="ydieresis.ss04" horiz-adv-x="492" 
d="M161 556q-17 17 -17 43q0 30 22.5 52t51.5 22q26 0 43 -17t17 -43q0 -30 -22.5 -52t-51.5 -22q-26 0 -43 17zM361 556q-17 17 -17 43q0 30 22.5 52t51.5 22q26 0 43 -17t17 -43q0 -30 -22.5 -52t-51.5 -22q-26 0 -43 17zM28 -223q-11 2 -26 7l9 82q24 -9 53 -9
q36 0 67 20.5t51 62.5l20 41l-143 480h90l112 -384l175 384h93l-268 -542q-38 -80 -88.5 -112t-116.5 -32q-17 0 -28 2z" />
    <glyph glyph-name="ygrave.ss04" horiz-adv-x="492" 
d="M154 622l36 65l262 -115l-36 -67zM28 -223q-11 2 -26 7l9 82q24 -9 53 -9q36 0 67 20.5t51 62.5l20 41l-143 480h90l112 -384l175 384h93l-268 -542q-38 -80 -88.5 -112t-116.5 -32q-17 0 -28 2z" />
    <glyph glyph-name="a.sups" horiz-adv-x="369" 
d="M110.5 427.5q-32.5 33.5 -32.5 88.5q0 44 20 80.5t55 58t78 21.5q35 0 60 -15t34 -40l5 47h71l-28 -268h-71l5 47q-14 -24 -43 -38.5t-64 -14.5q-57 0 -89.5 33.5zM293.5 479.5q26.5 27.5 26.5 64.5q0 31 -21 51.5t-56 20.5q-40 0 -66.5 -26.5t-26.5 -65.5
q0 -31 21 -51.5t55 -20.5q41 0 67.5 27.5z" />
    <glyph glyph-name="b.sups" horiz-adv-x="369" 
d="M370 642q33 -34 33 -89q0 -45 -20 -81.5t-54.5 -57t-77.5 -20.5q-34 0 -59.5 15t-36.5 38l-5 -47h-70l41 394h70l-18 -173q17 25 46.5 40t63.5 15q54 0 87 -34zM304.5 478.5q26.5 26.5 26.5 65.5q0 32 -20.5 52t-54.5 20q-40 0 -67.5 -26t-27.5 -65q0 -32 21.5 -52.5
t56.5 -20.5q39 0 65.5 26.5z" />
    <glyph glyph-name="c.sups" horiz-adv-x="337" 
d="M113.5 427.5q-36.5 33.5 -36.5 89.5q0 70 46 114t119 44q61 0 96 -29.5t36 -80.5h-71q-2 25 -19 38t-48 13q-39 0 -64 -25.5t-25 -66.5q0 -33 19.5 -52t52.5 -19q31 0 50.5 13t27.5 38h71q-11 -51 -53 -80.5t-103 -29.5q-62 0 -98.5 33.5z" />
    <glyph glyph-name="d.sups" horiz-adv-x="370" 
d="M414 794l-41 -394h-71l5 47q-14 -24 -42.5 -38.5t-64.5 -14.5q-57 0 -89 34t-32 88q0 44 19.5 80.5t54.5 58t79 21.5q34 0 59 -15t34 -40l18 173h71zM294 479.5q26 27.5 26 64.5q0 31 -20.5 51.5t-55.5 20.5q-41 0 -67.5 -26.5t-26.5 -65.5q0 -31 21 -51.5t56 -20.5
q41 0 67 27.5z" />
    <glyph glyph-name="e.sups" horiz-adv-x="338" 
d="M367 518h-221q-3 -33 17 -52t56 -19q27 0 46 9t28 25h69q-12 -40 -52.5 -64t-95.5 -24q-64 0 -100.5 32.5t-36.5 90.5q0 72 46.5 116t118.5 44q60 0 96 -31t36 -81q0 -9 -1 -14q-4 -25 -6 -32zM305 560q3 32 -15 50.5t-53 18.5q-34 0 -57.5 -19t-28.5 -50h154z" />
    <glyph glyph-name="f.sups" horiz-adv-x="230" 
d="M226 733.5q-14 -10.5 -17 -36.5l-3 -30h80l-5 -52h-80l-23 -215h-71l23 215h-53l5 52h53l3 29q5 49 37 76t76 27q31 0 48 -7l-5 -51q-16 3 -31 3q-23 0 -37 -10.5z" />
    <glyph glyph-name="g.sups" horiz-adv-x="370" 
d="M401 668l-26 -254q-9 -72 -62 -109q-37 -28 -107 -28q-60 0 -97 25q-21 14 -32 34.5t-9 42.5h72q1 -22 19.5 -35t52.5 -13q41 0 64 18t27 57l5 46q-15 -24 -44 -39t-61 -15q-58 0 -91 33.5t-33 87.5q0 43 20 78.5t55 56t78 20.5q34 0 59 -14.5t34 -39.5l5 48h71z
M293.5 480q26.5 27 26.5 65q0 32 -20.5 52.5t-55.5 20.5q-40 0 -66.5 -26.5t-26.5 -66.5q0 -32 21 -52t55 -20q40 0 66.5 27z" />
    <glyph glyph-name="h.sups" horiz-adv-x="347" 
d="M349.5 651.5q24.5 -23.5 24.5 -68.5q0 -13 -1 -20l-17 -163h-72l15 141q1 6 1 17q0 30 -13 44t-43 14q-36 0 -57.5 -21.5t-25.5 -58.5l-14 -136h-70l41 394h70l-18 -175q14 27 41.5 41.5t66.5 14.5q47 0 71.5 -23.5z" />
    <glyph glyph-name="i.sups" horiz-adv-x="199" 
d="M137 716.5q-12 11.5 -12 28.5q0 22 15 37t39 15q20 0 31.5 -11t11.5 -29q0 -21 -15 -36.5t-38 -15.5q-20 0 -32 11.5zM129 668h72l-28 -268h-72z" />
    <glyph glyph-name="j.sups" horiz-adv-x="170" 
d="M125.5 716.5q-11.5 11.5 -11.5 28.5q0 22 14.5 37t38.5 15q20 0 32 -11t12 -29q0 -21 -15.5 -36.5t-38.5 -15.5q-20 0 -31.5 11.5zM12 288l6 57q15 -4 31 -4q35 0 38 33l31 294h70l-32 -303q-4 -41 -29 -62t-68 -21q-26 0 -47 6z" />
    <glyph glyph-name="k.sups" horiz-adv-x="304" 
d="M260 400l-102 123l-13 -123h-71l41 394h71l-25 -246l130 120h85l-145 -128l118 -140h-89z" />
    <glyph glyph-name="l.sups" horiz-adv-x="173" 
d="M135 794h73l-41 -394h-73z" />
    <glyph glyph-name="m.sups" horiz-adv-x="493" 
d="M103 668h70l-5 -49q11 25 35 40.5t57 15.5q35 0 56 -15t26 -43q14 26 40.5 42t58.5 16q90 0 90 -89q0 -13 -1 -19l-18 -167h-72l16 154q1 5 1 14q0 48 -46 48q-60 0 -69 -80l-14 -136h-71l16 150l1 14q0 52 -46 52q-60 0 -69 -80l-14 -136h-70z" />
    <glyph glyph-name="n.sups" horiz-adv-x="345" 
d="M105 668h70l-5 -49q14 27 41.5 41.5t65.5 14.5q47 0 71.5 -23t24.5 -68q0 -14 -1 -21l-17 -163h-71l15 141q1 6 1 17q0 30 -13.5 44t-43.5 14q-36 0 -57 -21t-25 -59l-14 -136h-70z" />
    <glyph glyph-name="o.sups" horiz-adv-x="356" 
d="M116.5 428q-37.5 35 -37.5 91q0 43 21.5 79t60 57t88.5 21q65 0 103 -34.5t38 -89.5q0 -44 -22 -80.5t-61 -57.5t-88 -21q-65 0 -102.5 35zM292.5 478.5q25.5 26.5 25.5 67.5q0 31 -20 50.5t-55 19.5q-42 0 -68.5 -26t-26.5 -65q0 -32 21.5 -52.5t56.5 -20.5
q41 0 66.5 26.5z" />
    <glyph glyph-name="p.sups" horiz-adv-x="370" 
d="M370 641.5q33 -33.5 33 -88.5q0 -46 -20 -82.5t-54.5 -57t-77.5 -20.5q-34 0 -59.5 15t-36.5 39l-17 -162h-70l40 383h70l-5 -47q17 25 46 39.5t64 14.5q54 0 87 -33.5zM304 478q27 27 27 66q0 32 -20.5 52t-54.5 20q-40 0 -68 -26.5t-28 -65.5q0 -32 21.5 -52.5
t56.5 -20.5q39 0 66 27z" />
    <glyph glyph-name="q.sups" horiz-adv-x="370" 
d="M401 668l-40 -383h-71l17 162q-15 -24 -43.5 -39t-63.5 -15q-56 0 -88.5 34.5t-32.5 88.5q0 43 20 79.5t55 58t78 21.5q35 0 59.5 -14.5t33.5 -39.5l5 47h71zM293.5 478.5q26.5 27.5 26.5 65.5q0 31 -20.5 51.5t-55.5 20.5q-40 0 -66.5 -26.5t-26.5 -65.5q0 -31 20.5 -52
t54.5 -21q41 0 67.5 27.5z" />
    <glyph glyph-name="r.sups" horiz-adv-x="228" 
d="M108 668h70l-6 -63q12 33 39.5 51t60.5 18q7 0 25 -3l-7 -66q-10 1 -28 1q-44 0 -70 -26.5t-31 -74.5l-11 -105h-70z" />
    <glyph glyph-name="s.sups" horiz-adv-x="283" 
d="M92.5 418q-33.5 25 -28.5 66h70q-2 -19 13.5 -31t42.5 -12q24 0 38 9.5t14 26.5q0 9 -6.5 15.5t-23.5 11.5l-60 15q-67 16 -67 68q0 41 35 65t93 24q55 0 84.5 -22t25.5 -61h-70q2 17 -11 27.5t-37 10.5q-22 0 -36.5 -8.5t-14.5 -23.5q0 -19 37 -30l57 -14q65 -16 65 -66
q0 -44 -35.5 -70t-93.5 -26t-91.5 25z" />
    <glyph glyph-name="t.sups" horiz-adv-x="231" 
d="M260 458l-6 -57q-17 -4 -57 -4q-38 0 -63 15.5t-25 61.5q0 12 1 18l12 120h-51l6 56h51l9 84h71l-9 -84h74l-6 -56h-74l-11 -106q-3 -30 8 -40.5t34 -10.5q26 0 36 3z" />
    <glyph glyph-name="u.sups" horiz-adv-x="346" 
d="M108.5 418.5q-25.5 24.5 -25.5 70.5q0 11 1 17l17 162h72l-15 -148q-1 -5 -1 -14q0 -52 57 -52q36 0 56 20.5t23 52.5l15 141h70l-28 -268h-70l5 49q-13 -25 -41 -40t-63 -15q-47 0 -72.5 24.5z" />
    <glyph glyph-name="v.sups" horiz-adv-x="315" 
d="M70 668h78l60 -185l99 185h78l-154 -268h-63z" />
    <glyph glyph-name="w.sups" horiz-adv-x="449" 
d="M68 668h73l43 -182l79 182h62l42 -182l80 182h74l-129 -268h-64l-43 182l-82 -182h-62z" />
    <glyph glyph-name="x.sups" horiz-adv-x="303" 
d="M164 535l-92 133h83l57 -87l74 87h84l-121 -133l95 -135h-85l-57 89l-76 -89h-83z" />
    <glyph glyph-name="y.sups" horiz-adv-x="349" 
d="M380 668l-28 -265q-6 -60 -50 -96q-39 -30 -103 -30t-100 28q-15 12 -22.5 30t-5.5 39h71q-2 -45 62 -45q71 0 78 70l6 54q-15 -25 -42 -39.5t-62 -14.5q-99 0 -99 95q0 13 1 20l16 154h70l-15 -143l-1 -14q0 -27 13.5 -41t45.5 -14q35 0 56.5 22t24.5 57l14 133h70z" />
    <glyph glyph-name="z.sups" horiz-adv-x="278" 
d="M227 609h-147l6 59h257l-180 -209h150l-6 -59h-261z" />
    <glyph glyph-name="uni24FF" unicode="&#x24ff;" horiz-adv-x="797" 
d="M222.5 24.5q-73.5 41.5 -112 114t-38.5 164.5q0 23 3 47q11 103 63 186.5t139 132t196 48.5q101 0 174.5 -42t112 -115t38.5 -165q0 -30 -2 -45q-11 -103 -64 -186.5t-140 -132t-196 -48.5q-100 0 -173.5 41.5zM532.5 211.5q43.5 47.5 53.5 138.5q2 26 2 38
q0 73 -34.5 111t-99.5 38q-73 0 -116.5 -47.5t-53.5 -139.5q-2 -26 -2 -38q0 -73 34 -110.5t99 -37.5q74 0 117.5 47.5zM367 244q-17 23 -17 70q0 10 2 36q7 67 30 98.5t66 31.5q37 0 54.5 -23t17.5 -72q0 -9 -2 -35q-7 -66 -30.5 -97.5t-66.5 -31.5q-37 0 -54 23z" />
    <glyph glyph-name="uni2776" unicode="&#x2776;" horiz-adv-x="797" 
d="M222.5 24.5q-73.5 41.5 -112 114t-38.5 164.5q0 23 3 47q11 103 63 186.5t139 132t196 48.5q101 0 174.5 -42t112 -115t38.5 -165q0 -30 -2 -45q-11 -103 -64 -186.5t-140 -132t-196 -48.5q-100 0 -173.5 41.5zM459 171l38 358h-58q-4 -35 -24.5 -49t-73.5 -14l-5 -52h83
l-26 -243h66z" />
    <glyph glyph-name="uni2777" unicode="&#x2777;" horiz-adv-x="797" 
d="M222.5 24.5q-73.5 41.5 -112 114t-38.5 164.5q0 23 3 47q11 103 63 186.5t139 132t196 48.5q101 0 174.5 -42t112 -115t38.5 -165q0 -30 -2 -45q-11 -103 -64 -186.5t-140 -132t-196 -48.5q-100 0 -173.5 41.5zM542 176l6 57h-188q7 25 21.5 40t45.5 30l61 28
q40 20 62.5 51t22.5 70q0 42 -31.5 66t-86.5 24q-62 0 -103 -34.5t-47 -91.5h69q4 34 23.5 53t51.5 19q24 0 38 -12.5t14 -33.5q0 -46 -54 -71l-64 -30q-55 -26 -81 -63.5t-33 -101.5h273z" />
    <glyph glyph-name="uni2778" unicode="&#x2778;" horiz-adv-x="797" 
d="M222.5 24.5q-73.5 41.5 -112 114t-38.5 164.5q0 23 3 47q11 103 63 186.5t139 132t196 48.5q101 0 174.5 -42t112 -115t38.5 -165q0 -30 -2 -45q-11 -103 -64 -186.5t-140 -132t-196 -48.5q-100 0 -173.5 41.5zM524 196.5q42 32.5 42 84.5q0 31 -19 51.5t-51 25.5
q40 8 61 32t21 59q0 41 -32.5 64.5t-87.5 23.5q-62 0 -102 -30t-45 -79h69q3 26 22.5 41.5t48.5 15.5q28 0 43.5 -13.5t13.5 -35.5q-3 -26 -21.5 -39.5t-49.5 -13.5h-35l-5 -52h35q31 0 47.5 -13t16.5 -36q0 -29 -20 -46.5t-53 -17.5q-30 0 -47.5 14.5t-17.5 41.5l1 10h-70
q-1 -6 -1 -16q0 -50 33.5 -77t94.5 -27q66 0 108 32.5z" />
    <glyph glyph-name="uni2779" unicode="&#x2779;" horiz-adv-x="797" 
d="M222.5 24.5q-73.5 41.5 -112 114t-38.5 164.5q0 23 3 47q11 103 63 186.5t139 132t196 48.5q101 0 174.5 -42t112 -115t38.5 -165q0 -30 -2 -45q-11 -103 -64 -186.5t-140 -132t-196 -48.5q-100 0 -173.5 41.5zM502 171l11 109h51l7 59h-51l10 99h-68l-10 -99h-88l20 190
h-67l-27 -249h155l-11 -109h68z" />
    <glyph glyph-name="uni277A" unicode="&#x277a;" horiz-adv-x="797" 
d="M222.5 24.5q-73.5 41.5 -112 114t-38.5 164.5q0 23 3 47q11 103 63 186.5t139 132t196 48.5q101 0 174.5 -42t112 -115t38.5 -165q0 -30 -2 -45q-11 -103 -64 -186.5t-140 -132t-196 -48.5q-100 0 -173.5 41.5zM525 198.5q43 40.5 43 107.5q0 47 -29 75t-79 28
q-59 0 -91 -34l10 95h184l6 53h-245l-21 -203h61q11 20 29 29t45 9q29 0 46 -15.5t17 -43.5q0 -39 -23.5 -62.5t-59.5 -23.5q-30 0 -47 13t-16 36h-67q-3 -49 30.5 -76.5t93.5 -27.5q70 0 113 40.5z" />
    <glyph glyph-name="uni277B" unicode="&#x277b;" horiz-adv-x="797" 
d="M222.5 24.5q-73.5 41.5 -112 114t-38.5 164.5q0 23 3 47q11 103 63 186.5t139 132t196 48.5q101 0 174.5 -42t112 -115t38.5 -165q0 -30 -2 -45q-11 -103 -64 -186.5t-140 -132t-196 -48.5q-100 0 -173.5 41.5zM493.5 187.5q35.5 19.5 55 53.5t19.5 74q0 50 -32.5 83
t-87.5 35q-9 0 -15 -3l93 104h-79l-115 -139q-46 -53 -46 -111q0 -51 34 -83.5t93 -32.5q45 0 80.5 19.5zM368.5 241q-17.5 18 -17.5 47q0 39 23 64.5t61 25.5q32 0 49 -19t17 -49q0 -37 -23 -62t-60 -25q-32 0 -49.5 18z" />
    <glyph glyph-name="uni277C" unicode="&#x277c;" horiz-adv-x="797" 
d="M222.5 24.5q-73.5 41.5 -112 114t-38.5 164.5q0 23 3 47q11 103 63 186.5t139 132t196 48.5q101 0 174.5 -42t112 -115t38.5 -165q0 -30 -2 -45q-11 -103 -64 -186.5t-140 -132t-196 -48.5q-100 0 -173.5 41.5zM381 170l226 358h-276l-6 -58h176l-197 -300h77z" />
    <glyph glyph-name="uni277D" unicode="&#x277d;" horiz-adv-x="797" 
d="M222.5 24.5q-73.5 41.5 -112 114t-38.5 164.5q0 23 3 47q11 103 63 186.5t139 132t196 48.5q101 0 174.5 -42t112 -115t38.5 -165q0 -30 -2 -45q-11 -103 -64 -186.5t-140 -132t-196 -48.5q-100 0 -173.5 41.5zM524.5 194.5q41.5 30.5 41.5 84.5q0 29 -17 49.5t-49 27.5
q36 9 56 34.5t20 59.5q0 40 -33 63.5t-90 23.5q-63 0 -103 -29.5t-40 -77.5q0 -27 15 -47t43 -27q-40 -8 -62 -35.5t-22 -65.5q0 -43 35 -67t95 -24q69 0 110.5 30.5zM392.5 394q-16.5 13 -16.5 34q0 28 20.5 45t52.5 17q28 0 45 -13.5t17 -36.5q0 -26 -21 -42.5t-53 -16.5
q-28 0 -44.5 13zM371.5 227.5q-17.5 14.5 -17.5 38.5q0 30 21.5 48t56.5 18q31 0 48.5 -14.5t17.5 -38.5q0 -29 -22 -47.5t-57 -18.5q-30 0 -47.5 14.5z" />
    <glyph glyph-name="uni277E" unicode="&#x277e;" horiz-adv-x="797" 
d="M222.5 24.5q-73.5 41.5 -112 114t-38.5 164.5q0 23 3 47q11 103 63 186.5t139 132t196 48.5q101 0 174.5 -42t112 -115t38.5 -165q0 -30 -2 -45q-11 -103 -64 -186.5t-140 -132t-196 -48.5q-100 0 -173.5 41.5zM419 167l123 147q39 46 39 103q0 51 -34 83t-93 32
q-45 0 -80.5 -19.5t-55 -53.5t-19.5 -75q0 -50 32 -82.5t88 -34.5q8 0 14 3l-92 -103h78zM382.5 340.5q-17.5 18.5 -17.5 49.5q0 37 23 62t60 25q32 0 50 -18t18 -47q0 -39 -23 -64.5t-61 -25.5q-32 0 -49.5 18.5z" />
    <glyph glyph-name="zero.case" horiz-adv-x="609" 
d="M137 60.5q-57 71.5 -57 208.5q0 34 5 84q19 178 94 271t201 93q110 0 167 -71.5t57 -209.5q0 -35 -5 -83q-19 -179 -94 -271.5t-201 -92.5q-110 0 -167 71.5zM512 353q5 48 5 79q0 204 -145 204q-171 0 -201 -283q-4 -37 -4 -79q0 -205 145 -205q170 0 200 284z" />
    <glyph glyph-name="one.case" horiz-adv-x="372" 
d="M223 503h-141l8 77q61 0 94 11.5t48 37t20 71.5h83l-74 -700h-91z" />
    <glyph glyph-name="two.case" horiz-adv-x="569" 
d="M112.5 189.5q46.5 71.5 142.5 120.5l110 57q99 50 109 148q1 6 1 16q0 47 -29 75.5t-78 28.5q-66 0 -107.5 -43t-48.5 -121h-94q7 74 41.5 129.5t90.5 85.5t126 30q92 0 144 -46t52 -126q0 -75 -41 -136t-116 -100l-109 -58q-67 -35 -96 -70.5t-42 -96.5h357l-9 -83h-463
q13 118 59.5 189.5z" />
    <glyph glyph-name="three.case" horiz-adv-x="563" 
d="M118 41q-58 52 -58 146q0 11 2 33h92q-1 -8 -1 -23q0 -62 36 -96.5t100 -34.5q67 0 110.5 42t43.5 106q0 55 -34 84t-98 29h-50l9 79h51q61 0 97 30.5t42 88.5l1 13q0 46 -31 73.5t-83 27.5q-62 0 -102.5 -36t-47.5 -97h-89q11 96 78 153t169 57q91 0 145 -45.5
t54 -122.5q0 -69 -37 -115.5t-105 -63.5q56 -7 89.5 -49t33.5 -103q0 -14 -1 -21q-6 -61 -40.5 -108t-90 -73t-122.5 -26q-105 0 -163 52z" />
    <glyph glyph-name="four.case" horiz-adv-x="574" 
d="M559 227h-106l-24 -227h-90l24 227h-274l50 473h90l-41 -390h184l21 207h90l-21 -207h106z" />
    <glyph glyph-name="five.case" horiz-adv-x="576" 
d="M135.5 40.5q-57.5 51.5 -53.5 140.5h92q-2 -51 33 -81t94 -30q70 0 115 45t53 122q1 9 1 25q0 62 -32 97.5t-90 35.5q-56 0 -93 -21t-63 -66h-84l42 392h414l-9 -82h-331l-23 -219q29 37 72.5 55.5t94.5 18.5q89 0 139.5 -53t50.5 -144q0 -12 -2 -36q-8 -75 -43 -132
t-92.5 -88t-129.5 -31q-98 0 -155.5 51.5z" />
    <glyph glyph-name="six.case" horiz-adv-x="568" 
d="M450 457.5q49 -28.5 74.5 -78t25.5 -111.5q0 -9 -2 -31q-8 -70 -43 -126.5t-92.5 -89.5t-130.5 -33q-67 0 -116 28t-74.5 77.5t-25.5 111.5q0 10 2 32q5 47 23 89t47 74l237 300h109l-175 -215q8 1 25 1q67 0 116 -28.5zM380.5 92q39.5 26 61 70.5t21.5 98.5
q0 65 -36 106t-101 41q-51 0 -90 -26t-60.5 -70.5t-21.5 -98.5q0 -65 35.5 -106t100.5 -41q51 0 90.5 26z" />
    <glyph glyph-name="seven.case" horiz-adv-x="503" 
d="M441 615h-331l9 85h468l-426 -700h-101z" />
    <glyph glyph-name="eight.case" horiz-adv-x="578" 
d="M128 37q-59 48 -59 131q0 76 38.5 127.5t107.5 69.5q-48 14 -74 51.5t-26 89.5q0 61 32 108.5t88.5 74.5t128.5 27q96 0 153.5 -46t57.5 -122q0 -13 -1 -19q-7 -60 -43 -104.5t-93 -59.5q54 -15 82.5 -53t28.5 -95q0 -68 -33 -120t-92 -80t-136 -28q-101 0 -160 48z
M439.5 439q41.5 37 41.5 97q0 49 -33.5 77t-91.5 28q-67 0 -108 -36.5t-41 -98.5q0 -47 34 -75.5t90 -28.5q67 0 108.5 37zM412.5 107q45.5 41 45.5 107q0 53 -36 84t-98 31q-69 0 -115 -40.5t-46 -106.5q0 -53 36 -84.5t97 -31.5q71 0 116.5 41z" />
    <glyph glyph-name="nine.case" horiz-adv-x="555" 
d="M328 225q-14 -10 -33 -10q-67 0 -116 28.5t-75 78t-26 111.5q0 11 2 33q8 70 43 127t93 90.5t131 33.5q67 0 116 -28.5t74.5 -78t25.5 -111.5q0 -11 -2 -33q-9 -90 -74 -171l-233 -295h-109zM393 320q39 26 60.5 71t21.5 100q0 65 -35.5 106t-100.5 41q-51 0 -90.5 -26
t-61 -71t-21.5 -99q0 -66 36 -107t101 -41q51 0 90 26z" />
    <glyph glyph-name="zero.case.zero" horiz-adv-x="609" 
d="M547 645.5q57 -71.5 57 -209.5q0 -35 -5 -83q-19 -179 -94 -271.5t-201 -92.5q-110 0 -167 71.5t-57 208.5q0 34 5 84q19 178 94 271t201 93q110 0 167 -71.5zM166 275q0 -94 32 -146l255 484q-32 23 -81 23q-171 0 -201 -283q-5 -47 -5 -78zM512 353q5 48 5 80
q0 87 -28 138l-255 -481q33 -21 78 -21q170 0 200 284z" />
    <glyph glyph-name="uni24EA" unicode="&#x24ea;" horiz-adv-x="797" 
d="M222.5 24.5q-73.5 41.5 -112 114t-38.5 164.5q0 23 3 47q11 103 63 186.5t139 132t196 48.5q101 0 174.5 -42t112 -115t38.5 -165q0 -30 -2 -45q-11 -103 -64 -186.5t-140 -132t-196 -48.5q-100 0 -173.5 41.5zM560.5 85q70.5 41 113 110.5t51.5 154.5q2 26 2 38
q0 76 -31 137t-89.5 96t-139.5 35q-88 0 -158 -41t-112.5 -111t-51.5 -154q-2 -26 -2 -40q0 -75 31 -135.5t89.5 -95.5t139.5 -35q87 0 157.5 41zM315.5 201.5q-33.5 37.5 -33.5 110.5q0 12 2 38q10 91 53 138.5t116 47.5q66 0 100.5 -38t34.5 -111q0 -11 -2 -37
q-10 -91 -54 -138.5t-118 -47.5q-65 0 -98.5 37.5zM487 252q24 32 31 98q2 26 2 35q0 48 -18 71.5t-55 23.5q-42 0 -65 -32t-30 -98q-2 -26 -2 -36q0 -48 17 -71t53 -23q43 0 67 32z" />
    <glyph glyph-name="uni2460" unicode="&#x2460;" horiz-adv-x="797" 
d="M222.5 24.5q-73.5 41.5 -112 114t-38.5 164.5q0 23 3 47q11 103 63 186.5t139 132t196 48.5q101 0 174.5 -42t112 -115t38.5 -165q0 -30 -2 -45q-11 -103 -64 -186.5t-140 -132t-196 -48.5q-100 0 -173.5 41.5zM560.5 85q70.5 41 113 110.5t51.5 154.5q2 26 2 38
q0 76 -31 137t-89.5 96t-139.5 35q-88 0 -158 -41t-112.5 -111t-51.5 -154q-2 -26 -2 -40q0 -75 31 -135.5t89.5 -95.5t139.5 -35q87 0 157.5 41zM424 414h-83l5 52q53 0 73.5 14.5t24.5 48.5h58l-38 -358h-66z" />
    <glyph glyph-name="uni2461" unicode="&#x2461;" horiz-adv-x="797" 
d="M222.5 24.5q-73.5 41.5 -112 114t-38.5 164.5q0 23 3 47q11 103 63 186.5t139 132t196 48.5q101 0 174.5 -42t112 -115t38.5 -165q0 -30 -2 -45q-11 -103 -64 -186.5t-140 -132t-196 -48.5q-100 0 -173.5 41.5zM560.5 85q70.5 41 113 110.5t51.5 154.5q2 26 2 38
q0 76 -31 137t-89.5 96t-139.5 35q-88 0 -158 -41t-112.5 -111t-51.5 -154q-2 -26 -2 -40q0 -75 31 -135.5t89.5 -95.5t139.5 -35q87 0 157.5 41zM302.5 278q25.5 38 80.5 63l64 30q54 23 54 71q0 22 -13.5 34t-38.5 12q-32 0 -51.5 -18.5t-23.5 -53.5h-69q6 58 47 92
t103 34q55 0 86 -24t31 -65q0 -39 -22 -70.5t-62 -50.5l-61 -29q-31 -14 -45.5 -29.5t-22.5 -40.5h189l-6 -57h-272q7 64 32.5 102z" />
    <glyph glyph-name="uni2462" unicode="&#x2462;" horiz-adv-x="797" 
d="M222.5 24.5q-73.5 41.5 -112 114t-38.5 164.5q0 23 3 47q11 103 63 186.5t139 132t196 48.5q101 0 174.5 -42t112 -115t38.5 -165q0 -30 -2 -45q-11 -103 -64 -186.5t-140 -132t-196 -48.5q-100 0 -173.5 41.5zM560.5 85q70.5 41 113 110.5t51.5 154.5q2 26 2 38
q0 76 -31 137t-89.5 96t-139.5 35q-88 0 -158 -41t-112.5 -111t-51.5 -154q-2 -26 -2 -40q0 -75 31 -135.5t89.5 -95.5t139.5 -35q87 0 157.5 41zM322 190.5q-33 26.5 -33 76.5q0 11 1 17h69q-4 -31 13.5 -49t50.5 -18t53 18t20 47q0 23 -16.5 36t-47.5 13h-35l5 52h35
q32 0 50 13.5t21 39.5q2 22 -13.5 36t-43.5 14q-30 0 -49 -15.5t-22 -43.5h-68q5 50 44 79.5t101 29.5q55 0 88 -23.5t33 -63.5q0 -35 -21 -59t-61 -33q32 -5 51 -25.5t19 -50.5q0 -52 -42 -84.5t-108 -32.5q-61 0 -94 26.5z" />
    <glyph glyph-name="uni2463" unicode="&#x2463;" horiz-adv-x="797" 
d="M647.5 675q73.5 -42 112 -115t38.5 -165q0 -30 -2 -45q-11 -103 -64 -186.5t-140 -132t-196 -48.5q-100 0 -173.5 41.5t-112 114t-38.5 164.5q0 23 3 47q11 103 63 186.5t139 132t196 48.5q101 0 174.5 -42zM560.5 85q70.5 41 113 110.5t51.5 154.5q2 26 2 38
q0 76 -31 137t-89.5 96t-139.5 35q-88 0 -158 -41t-112.5 -111t-51.5 -154q-2 -26 -2 -40q0 -75 31 -135.5t89.5 -95.5t139.5 -35q87 0 157.5 41zM527 339h52l-7 -59h-52l-11 -109h-67l11 109h-156l27 249h67l-20 -190h89l10 99h67z" />
    <glyph glyph-name="uni2464" unicode="&#x2464;" horiz-adv-x="797" 
d="M222.5 24.5q-73.5 41.5 -112 114t-38.5 164.5q0 23 3 47q11 103 63 186.5t139 132t196 48.5q101 0 174.5 -42t112 -115t38.5 -165q0 -30 -2 -45q-11 -103 -64 -186.5t-140 -132t-196 -48.5q-100 0 -173.5 41.5zM560.5 85q70.5 41 113 110.5t51.5 154.5q2 26 2 38
q0 76 -31 137t-89.5 96t-139.5 35q-88 0 -158 -41t-112.5 -111t-51.5 -154q-2 -26 -2 -40q0 -75 31 -135.5t89.5 -95.5t139.5 -35q87 0 157.5 41zM319.5 185.5q-33.5 27.5 -31.5 76.5h66q-1 -23 16.5 -36t47.5 -13q36 0 59.5 23.5t23.5 62.5q0 28 -17 44t-46 16
q-51 0 -74 -39h-61l21 203h245l-6 -53h-184l-10 -96q32 35 91 35q49 0 78 -28t29 -74q0 -67 -42.5 -108t-111.5 -41q-60 0 -93.5 27.5z" />
    <glyph glyph-name="uni2465" unicode="&#x2465;" horiz-adv-x="797" 
d="M647.5 675q73.5 -42 112 -115t38.5 -165q0 -30 -2 -45q-11 -103 -64 -186.5t-140 -132t-196 -48.5q-100 0 -173.5 41.5t-112 114t-38.5 164.5q0 23 3 47q11 103 63 186.5t139 132t196 48.5q101 0 174.5 -42zM560.5 85q70.5 41 113 110.5t51.5 154.5q2 26 2 38
q0 76 -31 137t-89.5 96t-139.5 35q-88 0 -158 -41t-112.5 -111t-51.5 -154q-2 -26 -2 -40q0 -75 31 -135.5t89.5 -95.5t139.5 -35q87 0 157.5 41zM532 400.5q34 -32.5 34 -84.5q0 -40 -19.5 -74t-55 -54t-80.5 -20q-58 0 -92 32.5t-34 83.5q0 54 32 94l130 156h78l-89 -101
h3q59 0 93 -32.5zM476.5 248q23.5 25 23.5 62q0 30 -17.5 49t-49.5 19q-37 0 -60 -25.5t-23 -63.5q0 -29 17.5 -47.5t48.5 -18.5q37 0 60.5 25z" />
    <glyph glyph-name="uni2466" unicode="&#x2466;" horiz-adv-x="797" 
d="M222.5 24.5q-73.5 41.5 -112 114t-38.5 164.5q0 23 3 47q11 103 63 186.5t139 132t196 48.5q101 0 174.5 -42t112 -115t38.5 -165q0 -30 -2 -45q-11 -103 -64 -186.5t-140 -132t-196 -48.5q-100 0 -173.5 41.5zM560.5 85q70.5 41 113 110.5t51.5 154.5q2 26 2 38
q0 76 -31 137t-89.5 96t-139.5 35q-88 0 -158 -41t-112.5 -111t-51.5 -154q-2 -26 -2 -40q0 -75 31 -135.5t89.5 -95.5t139.5 -35q87 0 157.5 41zM501 470h-176l6 58h275l-226 -358h-76z" />
    <glyph glyph-name="uni2467" unicode="&#x2467;" horiz-adv-x="797" 
d="M222.5 24.5q-73.5 41.5 -112 114t-38.5 164.5q0 23 3 47q11 103 63 186.5t139 132t196 48.5q101 0 174.5 -42t112 -115t38.5 -165q0 -30 -2 -45q-11 -103 -64 -186.5t-140 -132t-196 -48.5q-100 0 -173.5 41.5zM560.5 85q70.5 41 113 110.5t51.5 154.5q2 26 2 38
q0 76 -31 137t-89.5 96t-139.5 35q-88 0 -158 -41t-112.5 -111t-51.5 -154q-2 -26 -2 -40q0 -75 31 -135.5t89.5 -95.5t139.5 -35q87 0 157.5 41zM320 188.5q-35 24.5 -35 66.5q0 38 22 65.5t62 35.5q-28 7 -43 27t-15 47q0 48 40 77t103 29q56 0 89.5 -23.5t33.5 -63.5
q0 -33 -20 -58.5t-56 -34.5q32 -7 49 -27.5t17 -50.5q0 -53 -42 -83.5t-110 -30.5q-60 0 -95 24.5zM491 397.5q21 16.5 21 42.5q0 23 -17 36.5t-45 13.5q-33 0 -53 -17t-20 -45q0 -21 16.5 -34t44.5 -13q32 0 53 16.5zM477 231.5q22 18.5 22 47.5q0 24 -17.5 38.5
t-48.5 14.5q-35 0 -56.5 -18t-21.5 -48q0 -24 17.5 -38.5t47.5 -14.5q35 0 57 18.5z" />
    <glyph glyph-name="uni2468" unicode="&#x2468;" horiz-adv-x="797" 
d="M647.5 675q73.5 -42 112 -115t38.5 -165q0 -30 -2 -45q-11 -103 -64 -186.5t-140 -132t-196 -48.5q-100 0 -173.5 41.5t-112 114t-38.5 164.5q0 23 3 47q11 103 63 186.5t139 132t196 48.5q101 0 174.5 -42zM560.5 85q70.5 41 113 110.5t51.5 154.5q2 26 2 38
q0 76 -31 137t-89.5 96t-139.5 35q-88 0 -158 -41t-112.5 -111t-51.5 -154q-2 -26 -2 -40q0 -75 31 -135.5t89.5 -95.5t139.5 -35q87 0 157.5 41zM553 499.5q34 -32.5 34 -83.5q0 -53 -32 -93l-130 -156h-78l89 101h-3q-59 0 -93 32t-34 84q0 41 19.5 75t55 53.5t80.5 19.5
q58 0 92 -32.5zM389.5 342q17.5 -19 49.5 -19q37 0 60 25.5t23 62.5q0 29 -18 48t-49 19q-37 0 -60 -25t-23 -62q0 -30 17.5 -49z" />
    <glyph glyph-name="zero.tf.case" 
d="M201.5 16.5q-51.5 28.5 -79.5 78t-28 112.5q0 9 2 29l23 224q7 71 45.5 129.5t99 92.5t131.5 34q66 0 117 -29.5t79 -81t28 -115.5q0 -10 -2 -30l-23 -224q-7 -69 -45 -126t-98.5 -89.5t-131.5 -32.5q-66 0 -117.5 28.5zM411.5 92q38.5 22 62.5 60t29 84l23 224q1 8 1 24
q0 65 -38 107t-102 42q-70 0 -119.5 -49.5t-57.5 -123.5l-23 -224q-1 -7 -1 -21q0 -63 38.5 -104t102.5 -41q46 0 84.5 22z" />
    <glyph glyph-name="one.tf.case" 
d="M581 83l-9 -83h-504l9 83h209l44 420h-182l8 77h23q83 0 126 27t58 93h79l-65 -617h204z" />
    <glyph glyph-name="two.tf.case" 
d="M125.5 189.5q51.5 71.5 159.5 120.5l125 57q112 50 122 148q1 5 1 14q0 48 -35 77.5t-93 29.5q-77 0 -125.5 -43.5t-55.5 -121.5h-96q7 74 45 130t100 86t140 30q102 0 160.5 -47t58.5 -128q0 -75 -44.5 -138t-126.5 -101l-124 -58q-79 -36 -112.5 -69.5t-45.5 -92.5h415
l-9 -83h-524q13 118 64.5 189.5z" />
    <glyph glyph-name="three.tf.case" 
d="M145.5 42q-64.5 53 -64.5 148q0 10 2 30h95q-1 -7 -1 -21q0 -63 41 -98t115 -35q77 0 125.5 41t48.5 105q0 56 -39.5 85.5t-112.5 29.5h-56l9 79h57q70 0 111 30.5t47 88.5q5 51 -31.5 83t-100.5 32q-71 0 -116.5 -36t-52.5 -98h-92q11 96 83.5 153.5t184.5 57.5
q101 0 161 -46.5t60 -124.5q0 -69 -41 -114.5t-116 -62.5q63 -7 101 -49.5t38 -104.5q0 -13 -1 -19q-6 -61 -43.5 -108t-97.5 -73t-134 -26q-115 0 -179.5 53z" />
    <glyph glyph-name="four.tf.case" 
d="M601 227h-139l-24 -227h-93l24 227h-282l50 473h92l-41 -390h190l21 207h93l-21 -207h139z" />
    <glyph glyph-name="five.tf.case" 
d="M141 40.5q-63 51.5 -59 140.5h93q-1 -52 39 -81.5t106 -29.5q80 0 130.5 45t58.5 121q1 8 1 23q0 64 -38 100t-106 36q-61 0 -102 -21t-69 -66h-86l42 392h473l-9 -82h-389l-23 -219q31 37 79 55.5t106 18.5q101 0 158.5 -54.5t57.5 -147.5q0 -10 -2 -32
q-8 -75 -46 -131.5t-101.5 -87.5t-144.5 -31q-106 0 -169 51.5z" />
    <glyph glyph-name="six.tf.case" 
d="M497.5 458q53.5 -28 82 -78t28.5 -113q0 -11 -2 -31q-8 -71 -45.5 -127t-100 -88.5t-141.5 -32.5q-73 0 -126.5 28t-82 77.5t-28.5 112.5q0 10 2 30q9 88 63 151l266 313h111l-190 -216q24 2 38 2q72 0 125.5 -28zM427 91.5q44 25.5 68 69t24 97.5q0 67 -41.5 108.5
t-114.5 41.5q-56 0 -100 -25.5t-68 -69t-24 -97.5q0 -67 41.5 -108.5t114.5 -41.5q56 0 100 25.5z" />
    <glyph glyph-name="seven.tf.case" 
d="M510 615h-383l9 85h526l-469 -700h-102z" />
    <glyph glyph-name="eight.tf.case" 
d="M147 37.5q-63 48.5 -63 131.5q0 75 41 126.5t116 69.5q-53 14 -81.5 52t-28.5 91q0 60 34 107.5t94 74t136 26.5q68 0 119 -21t79 -59.5t28 -88.5q0 -65 -40 -115t-108 -67q60 -15 91.5 -54t31.5 -97q0 -68 -35 -119t-97.5 -78.5t-144.5 -27.5q-109 0 -172 48.5z
M481 438.5q45 36.5 45 96.5q0 49 -37.5 77.5t-101.5 28.5q-73 0 -118 -36t-45 -97q0 -49 37.5 -77.5t100.5 -28.5q74 0 119 36.5zM454.5 106.5q49.5 40.5 49.5 105.5q0 54 -40.5 85.5t-108.5 31.5q-76 0 -126.5 -40t-50.5 -105q0 -53 40.5 -85.5t108.5 -32.5
q78 0 127.5 40.5z" />
    <glyph glyph-name="nine.tf.case" 
d="M608.5 382q-17.5 -40 -45.5 -72l-262 -310h-111l190 217q-24 -2 -38 -2q-72 0 -125.5 28.5t-82 78.5t-28.5 113q0 11 2 31q8 71 45.5 128t100 90t141.5 33q73 0 126.5 -28.5t82 -78.5t28.5 -113q0 -10 -2 -30q-4 -45 -21.5 -85zM236.5 335.5q41.5 -41.5 114.5 -41.5
q56 0 100 25.5t68 69.5t24 99q0 67 -41.5 108.5t-114.5 41.5q-56 0 -100 -25.5t-68 -69.5t-24 -99q0 -67 41.5 -108.5z" />
    <glyph glyph-name="zero.tf.case.zero" 
d="M512 686.5q51 -29.5 79 -81t28 -115.5q0 -10 -2 -30l-23 -224q-7 -69 -45 -126t-98.5 -89.5t-131.5 -32.5q-66 0 -117.5 28.5t-79.5 78t-28 112.5q0 9 2 29l23 224q7 71 45.5 129.5t99 92.5t131.5 34q66 0 117 -29.5zM187 236q-1 -7 -1 -20q0 -48 22 -84l255 480
q-32 21 -76 21q-70 0 -119.5 -49.5t-57.5 -123.5zM526 460q1 8 1 24q0 47 -20 82l-254 -477q33 -19 74 -19q46 0 84.5 22t62.5 60t29 84z" />
    <glyph glyph-name="uni2080" unicode="&#x2080;" horiz-adv-x="413" 
d="M89 -43.5q-37 41.5 -37 121.5q0 27 2 42q10 100 58 152.5t128 52.5q72 0 110 -42t38 -122q0 -13 -2 -41q-10 -100 -59 -152.5t-130 -52.5q-71 0 -108 41.5zM277 12q26 35 34 108q2 28 2 39q0 53 -19.5 78.5t-59.5 25.5q-46 0 -71.5 -35t-33.5 -108q-3 -22 -3 -42
q0 -101 78 -101q47 0 73 35z" />
    <glyph glyph-name="uni2081" unicode="&#x2081;" horiz-adv-x="276" 
d="M143 190h-92l6 57q59 0 81 16t26 54h64l-41 -394h-72z" />
    <glyph glyph-name="uni2082" unicode="&#x2082;" horiz-adv-x="380" 
d="M62 34.5q28 41.5 88 69.5l70 33q60 26 60 80q0 23 -15.5 36t-41.5 13q-35 0 -57 -21t-26 -58h-76q6 63 51 100.5t114 37.5q60 0 94.5 -26t34.5 -72q0 -44 -24 -78t-69 -55l-66 -32q-35 -16 -51 -32.5t-24 -44.5h208l-6 -62h-300q8 70 36 111.5z" />
    <glyph glyph-name="uni2083" unicode="&#x2083;" horiz-adv-x="386" 
d="M78.5 -55.5q-36.5 29.5 -36.5 84.5q0 12 1 18h76q-4 -34 15 -53.5t55 -19.5t58.5 19.5t22.5 50.5q0 27 -18 41t-53 14h-38l6 57h38q38 0 58 17t20 48q0 22 -17 35t-45 13q-33 0 -54 -17t-24 -47h-75q5 54 48.5 87t111.5 33q61 0 97 -26t36 -70q0 -38 -23.5 -64.5
t-68.5 -36.5q36 -4 57 -27t21 -56q0 -58 -46 -94t-119 -36q-67 0 -103.5 29.5z" />
    <glyph glyph-name="uni2084" unicode="&#x2084;" horiz-adv-x="390" 
d="M360 43h-57l-13 -120h-74l13 120h-171l28 274h74l-22 -210h97l12 109h74l-12 -109h57z" />
    <glyph glyph-name="uni2085" unicode="&#x2085;" horiz-adv-x="394" 
d="M87.5 -54.5q-36.5 30.5 -33.5 84.5h73q0 -25 19 -39.5t51 -14.5q41 0 66.5 25.5t25.5 67.5q0 31 -19 49t-51 18q-30 0 -49 -10.5t-32 -32.5h-67l23 224h269l-6 -58h-202l-11 -106q35 38 100 38q55 0 86.5 -30.5t31.5 -81.5q0 -73 -47.5 -118.5t-123.5 -45.5
q-67 0 -103.5 30.5z" />
    <glyph glyph-name="uni2086" unicode="&#x2086;" horiz-adv-x="389" 
d="M318 170.5q37 -35.5 37 -92.5q0 -45 -21.5 -82.5t-60 -59t-88.5 -21.5q-65 0 -102 36t-37 93q0 54 35 101l143 172h86l-97 -111h3q65 0 102 -35.5zM257.5 2.5q25.5 27.5 25.5 68.5q0 33 -19.5 53.5t-54.5 20.5q-41 0 -66.5 -27.5t-25.5 -68.5q0 -33 19.5 -53.5
t54.5 -20.5q41 0 66.5 27.5z" />
    <glyph glyph-name="uni2087" unicode="&#x2087;" horiz-adv-x="352" 
d="M260 254h-194l6 63h303l-249 -394h-84z" />
    <glyph glyph-name="uni2088" unicode="&#x2088;" horiz-adv-x="395" 
d="M84.5 -58.5q-38.5 26.5 -38.5 73.5q0 42 24 72t68 39q-31 9 -48 31t-17 51q0 52 44.5 84.5t114.5 32.5q62 0 99 -26t37 -69q0 -37 -22.5 -65.5t-62.5 -38.5q35 -7 54 -30t19 -56q0 -58 -46 -91.5t-121 -33.5q-66 0 -104.5 26.5zM271.5 172.5q22.5 18.5 22.5 47.5
q0 25 -18 39.5t-49 14.5q-36 0 -58.5 -18t-22.5 -48q0 -24 18 -39t50 -15q35 0 57.5 18.5zM257 -10.5q24 20.5 24 52.5q0 27 -19 42.5t-53 15.5q-39 0 -63 -19.5t-24 -52.5q0 -27 19.5 -43t53.5 -16q38 0 62 20.5z" />
    <glyph glyph-name="uni2089" unicode="&#x2089;" horiz-adv-x="389" 
d="M333 95l-143 -172h-86l98 111h-3q-65 0 -102.5 35.5t-37.5 92.5q0 45 21.5 82.5t60 59t88.5 21.5q64 0 101.5 -35.5t37.5 -91.5q0 -58 -35 -103zM150.5 115.5q19.5 -20.5 54.5 -20.5q41 0 66.5 27.5t25.5 68.5q0 33 -19.5 53.5t-54.5 20.5q-41 0 -66.5 -27.5t-25.5 -68.5
q0 -33 19.5 -53.5z" />
    <glyph glyph-name="zero.dnom" horiz-adv-x="413" 
d="M97 33.5q-37 41.5 -37 121.5q0 27 2 42q10 100 58 152.5t128 52.5q72 0 110 -42t38 -122q0 -13 -2 -41q-10 -100 -59 -152.5t-130 -52.5q-71 0 -108 41.5zM285 89q26 35 34 108q2 28 2 39q0 53 -19.5 78.5t-59.5 25.5q-46 0 -71.5 -35t-33.5 -108q-2 -28 -2 -40
q0 -53 18.5 -78t58.5 -25q47 0 73 35z" />
    <glyph glyph-name="one.dnom" horiz-adv-x="276" 
d="M151 267h-92l6 57q59 0 81 16t26 54h64l-41 -394h-72z" />
    <glyph glyph-name="two.dnom" horiz-adv-x="380" 
d="M70 111.5q28 41.5 88 69.5l70 33q60 26 60 80q0 23 -15.5 36t-41.5 13q-35 0 -57 -21t-26 -58h-76q7 63 52 100.5t113 37.5q60 0 94.5 -26t34.5 -72q0 -44 -24 -78t-69 -55l-66 -32q-35 -16 -51 -32.5t-23 -44.5h208l-7 -62h-300q8 70 36 111.5z" />
    <glyph glyph-name="three.dnom" horiz-adv-x="386" 
d="M86.5 21.5q-36.5 29.5 -36.5 84.5q0 12 1 18h76q-4 -34 15 -53.5t55 -19.5t58.5 19.5t22.5 50.5q0 27 -18 41t-53 14h-38l6 57h38q35 0 55.5 15t23.5 43q2 25 -15.5 40t-47.5 15q-33 0 -54 -17t-24 -47h-75q5 54 48.5 87t111.5 33q61 0 97 -26t36 -70q0 -38 -23.5 -64.5
t-67.5 -36.5q38 -5 59.5 -31.5t17.5 -63.5q-6 -53 -51 -85.5t-114 -32.5q-67 0 -103.5 29.5z" />
    <glyph glyph-name="four.dnom" horiz-adv-x="390" 
d="M368 120h-57l-13 -120h-74l13 120h-171l28 274h74l-22 -210h97l12 109h74l-12 -109h57z" />
    <glyph glyph-name="five.dnom" horiz-adv-x="394" 
d="M96.5 22.5q-36.5 30.5 -34.5 84.5h73q0 -25 19 -39.5t52 -14.5q41 0 66 25.5t25 67.5q0 31 -19 49t-51 18q-30 0 -49 -10.5t-32 -32.5h-67l23 224h269l-6 -58h-202l-11 -106q35 38 100 38q55 0 86.5 -30.5t31.5 -81.5q0 -73 -47.5 -118.5t-123.5 -45.5q-66 0 -102.5 30.5
z" />
    <glyph glyph-name="six.dnom" horiz-adv-x="389" 
d="M326 247.5q37 -35.5 37 -92.5q0 -45 -21.5 -82.5t-60 -59t-88.5 -21.5q-65 0 -102 36t-37 93q0 54 35 101l143 172h86l-97 -111h3q65 0 102 -35.5zM265.5 79.5q25.5 27.5 25.5 68.5q0 33 -19.5 53.5t-54.5 20.5q-41 0 -66.5 -27.5t-25.5 -68.5q0 -33 19.5 -53.5
t54.5 -20.5q41 0 66.5 27.5z" />
    <glyph glyph-name="seven.dnom" horiz-adv-x="352" 
d="M268 331h-194l6 63h303l-249 -394h-84z" />
    <glyph glyph-name="eight.dnom" horiz-adv-x="395" 
d="M92.5 18.5q-38.5 26.5 -38.5 74.5q0 42 24 71.5t68 38.5q-31 9 -48 31t-17 51q0 52 44.5 84.5t114.5 32.5q62 0 99 -26t37 -69q0 -37 -22.5 -65.5t-62.5 -38.5q35 -7 54 -30t19 -56q0 -58 -46 -91.5t-121 -33.5q-66 0 -104.5 26.5zM279.5 249.5q22.5 18.5 22.5 47.5
q0 25 -18 39.5t-49 14.5q-36 0 -58.5 -18t-22.5 -48q0 -24 18 -39t50 -15q35 0 57.5 18.5zM265 66.5q24 20.5 24 52.5q0 27 -19 42.5t-53 15.5q-39 0 -63 -19.5t-24 -52.5q0 -27 19.5 -43t53.5 -16q38 0 62 20.5z" />
    <glyph glyph-name="nine.dnom" horiz-adv-x="389" 
d="M341 172l-143 -172h-86l98 111h-3q-65 0 -102.5 35.5t-37.5 92.5q0 45 21.5 82.5t60 59t88.5 21.5q64 0 101.5 -35.5t37.5 -91.5q0 -58 -35 -103zM158.5 192.5q19.5 -20.5 54.5 -20.5q41 0 66.5 27.5t25.5 68.5q0 33 -19.5 53.5t-54.5 20.5q-41 0 -66.5 -27.5
t-25.5 -68.5q0 -33 19.5 -53.5z" />
    <glyph glyph-name="zero.numr" horiz-adv-x="413" 
d="M127 319.5q-37 41.5 -37 121.5q0 27 2 42q10 100 58 152.5t128 52.5q72 0 110 -42t38 -122q0 -13 -2 -41q-10 -100 -59 -152.5t-130 -52.5q-71 0 -108 41.5zM315 375q26 35 34 108q2 28 2 39q0 53 -19.5 78.5t-59.5 25.5q-46 0 -71.5 -35t-33.5 -108q-2 -28 -2 -40
q0 -53 18.5 -78t58.5 -25q47 0 73 35z" />
    <glyph glyph-name="one.numr" horiz-adv-x="276" 
d="M181 553h-92l6 57q59 0 81 16t26 54h64l-41 -394h-72z" />
    <glyph glyph-name="two.numr" horiz-adv-x="380" 
d="M100 397.5q28 41.5 88 69.5l71 33q59 26 59 80q0 23 -15.5 36t-41.5 13q-35 0 -57 -21t-26 -58h-76q7 63 52 100.5t113 37.5q61 0 95.5 -26.5t34.5 -72.5q0 -43 -24.5 -77t-69.5 -55l-66 -32q-35 -16 -51 -32.5t-23 -44.5h208l-7 -62h-300q8 70 36 111.5z" />
    <glyph glyph-name="three.numr" horiz-adv-x="386" 
d="M116.5 307.5q-36.5 29.5 -36.5 84.5q0 12 1 18h76q-4 -34 15 -53.5t55 -19.5q37 0 59 19.5t22 51.5q0 26 -17.5 40t-52.5 14h-38l6 57h38q35 0 55 15t23 43q2 25 -15.5 40t-47.5 15q-33 0 -54 -17t-24 -47h-75q5 54 48.5 87t111.5 33q61 0 97 -26t36 -70
q0 -38 -23.5 -64.5t-67.5 -36.5q38 -5 59.5 -31.5t17.5 -63.5q-6 -53 -51 -85.5t-114 -32.5q-67 0 -103.5 29.5z" />
    <glyph glyph-name="four.numr" horiz-adv-x="390" 
d="M398 406h-57l-13 -120h-74l13 120h-171l28 274h74l-22 -210h97l12 109h74l-12 -109h57z" />
    <glyph glyph-name="five.numr" horiz-adv-x="394" 
d="M126.5 308.5q-36.5 30.5 -34.5 84.5h73q0 -25 19 -39.5t52 -14.5q41 0 66 25.5t25 67.5q0 31 -19 49t-51 18q-30 0 -49 -10.5t-32 -32.5h-67l23 224h269l-6 -58h-202l-11 -106q35 38 100 38q55 0 86.5 -30.5t31.5 -81.5q0 -73 -47.5 -118.5t-123.5 -45.5
q-66 0 -102.5 30.5z" />
    <glyph glyph-name="six.numr" horiz-adv-x="389" 
d="M356 533.5q37 -35.5 37 -92.5q0 -45 -21.5 -82.5t-60 -59t-88.5 -21.5q-65 0 -102 36t-37 93q0 54 35 101l143 172h86l-97 -111h3q65 0 102 -35.5zM296.5 366q24.5 28 24.5 70q0 32 -20 52t-54 20q-41 0 -66.5 -27.5t-25.5 -68.5q0 -32 20.5 -53t54.5 -21q42 0 66.5 28z
" />
    <glyph glyph-name="seven.numr" horiz-adv-x="352" 
d="M298 617h-194l6 63h303l-249 -394h-84z" />
    <glyph glyph-name="eight.numr" horiz-adv-x="395" 
d="M122.5 304.5q-38.5 26.5 -38.5 74.5q0 42 24 71.5t68 38.5q-31 9 -47.5 31t-16.5 52q0 52 44 84t114 32q62 0 99 -26t37 -69q0 -37 -22.5 -65.5t-62.5 -38.5q35 -7 54 -30t19 -56q0 -58 -46 -91.5t-121 -33.5q-66 0 -104.5 26.5zM310 535.5q23 18.5 23 46.5
q0 25 -18.5 40t-49.5 15q-36 0 -58 -18.5t-22 -49.5q0 -24 18 -38t49 -14q35 0 58 18.5zM295 352.5q24 20.5 24 52.5q0 27 -19 42.5t-53 15.5q-39 0 -63 -19.5t-24 -52.5q0 -27 19.5 -43t53.5 -16q38 0 62 20.5z" />
    <glyph glyph-name="nine.numr" horiz-adv-x="389" 
d="M371 458l-143 -172h-86l98 111h-3q-65 0 -102.5 35.5t-37.5 92.5q0 45 21.5 82.5t60 59t88.5 21.5q64 0 101.5 -35.5t37.5 -91.5q0 -58 -35 -103zM188.5 478.5q19.5 -20.5 54.5 -20.5q41 0 66.5 27.5t25.5 68.5q0 33 -19.5 53.5t-54.5 20.5q-41 0 -66.5 -27.5
t-25.5 -68.5q0 -33 19.5 -53.5z" />
    <glyph glyph-name="uni2070" unicode="&#x2070;" horiz-adv-x="413" 
d="M139 433.5q-37 41.5 -37 121.5q0 27 2 42q10 100 58 152.5t128 52.5q72 0 110 -42t38 -122q0 -13 -2 -41q-10 -100 -59 -152.5t-130 -52.5q-71 0 -108 41.5zM327 489q26 35 34 108q2 28 2 39q0 53 -19.5 78.5t-59.5 25.5q-46 0 -71.5 -35t-33.5 -108q-2 -28 -2 -40
q0 -53 18.5 -78t58.5 -25q47 0 73 35z" />
    <glyph glyph-name="uni00B9" unicode="&#xb9;" horiz-adv-x="276" 
d="M193 667h-92l6 57q59 0 81 16t26 54h64l-41 -394h-72z" />
    <glyph glyph-name="uni00B2" unicode="&#xb2;" horiz-adv-x="380" 
d="M112 511.5q28 41.5 88 69.5l71 33q59 26 59 80q0 23 -15.5 36t-41.5 13q-35 0 -57 -21t-26 -58h-76q7 63 52 100.5t113 37.5q61 0 95.5 -26.5t34.5 -72.5q0 -43 -24.5 -77t-69.5 -55l-66 -32q-35 -16 -51 -32.5t-23 -44.5h208l-7 -62h-300q8 70 36 111.5z" />
    <glyph glyph-name="uni00B3" unicode="&#xb3;" horiz-adv-x="386" 
d="M128.5 421.5q-36.5 29.5 -36.5 84.5q0 12 1 18h76q-4 -34 15 -53.5t55 -19.5q37 0 59 19.5t22 51.5q0 26 -17.5 40t-52.5 14h-38l6 57h38q35 0 55 15t23 43q2 25 -15.5 40t-47.5 15q-33 0 -54 -17t-24 -47h-75q5 54 48.5 87t111.5 33q61 0 97 -26t36 -70
q0 -38 -23.5 -64.5t-67.5 -36.5q38 -5 59.5 -31.5t17.5 -63.5q-6 -53 -51 -85.5t-114 -32.5q-67 0 -103.5 29.5z" />
    <glyph glyph-name="uni2074" unicode="&#x2074;" horiz-adv-x="390" 
d="M410 520h-57l-13 -120h-74l13 120h-171l28 274h74l-22 -210h97l12 109h74l-12 -109h57z" />
    <glyph glyph-name="uni2075" unicode="&#x2075;" horiz-adv-x="394" 
d="M138.5 422.5q-36.5 30.5 -34.5 84.5h73q0 -25 19 -39.5t52 -14.5q41 0 66 25.5t25 67.5q0 31 -19 49t-51 18q-30 0 -49 -10.5t-32 -32.5h-67l23 224h269l-6 -58h-202l-11 -106q35 38 100 38q55 0 86.5 -30.5t31.5 -81.5q0 -73 -47.5 -118.5t-123.5 -45.5
q-66 0 -102.5 30.5z" />
    <glyph glyph-name="uni2076" unicode="&#x2076;" horiz-adv-x="389" 
d="M368 647.5q37 -35.5 37 -92.5q0 -45 -21.5 -82.5t-60 -59t-88.5 -21.5q-65 0 -102 36t-37 93q0 54 35 101l143 172h86l-97 -111h3q65 0 102 -35.5zM308 479.5q25 27.5 25 68.5q0 33 -19.5 53.5t-54.5 20.5q-41 0 -66.5 -27.5t-25.5 -68.5q0 -32 20.5 -53t54.5 -21
q41 0 66 27.5z" />
    <glyph glyph-name="uni2077" unicode="&#x2077;" horiz-adv-x="352" 
d="M310 731h-194l6 63h303l-249 -394h-84z" />
    <glyph glyph-name="uni2078" unicode="&#x2078;" horiz-adv-x="395" 
d="M134.5 418.5q-38.5 26.5 -38.5 74.5q0 42 24 71.5t68 38.5q-31 9 -47.5 31t-16.5 52q0 52 44 84t114 32q62 0 99 -26t37 -69q0 -37 -22.5 -65.5t-62.5 -38.5q35 -7 54 -30t19 -56q0 -58 -46 -91.5t-121 -33.5q-66 0 -104.5 26.5zM322 649.5q23 18.5 23 46.5
q0 25 -18.5 40t-49.5 15q-36 0 -58 -18.5t-22 -49.5q0 -24 18 -38t49 -14q35 0 58 18.5zM307 466.5q24 20.5 24 52.5q0 27 -19 42.5t-53 15.5q-39 0 -63 -19.5t-24 -52.5q0 -27 19.5 -43t53.5 -16q38 0 62 20.5z" />
    <glyph glyph-name="uni2079" unicode="&#x2079;" horiz-adv-x="389" 
d="M383 572l-143 -172h-86l98 111h-3q-65 0 -102.5 35.5t-37.5 92.5q0 45 21.5 82.5t60 59t88.5 21.5q64 0 101.5 -35.5t37.5 -91.5q0 -58 -35 -103zM200.5 592.5q19.5 -20.5 54.5 -20.5q41 0 66.5 27.5t25.5 68.5q0 33 -19.5 53.5t-54.5 20.5q-41 0 -66.5 -27.5
t-25.5 -68.5q0 -33 19.5 -53.5z" />
    <glyph glyph-name="uni2153" unicode="&#x2153;" horiz-adv-x="785" 
d="M88 18l544 682l54 -38l-544 -682zM181 553h-92l6 57q59 0 81 16t26 54h64l-41 -394h-72zM484.5 21.5q-36.5 29.5 -36.5 84.5q0 12 1 18h76q-4 -34 15 -53.5t55 -19.5t58.5 19.5t22.5 50.5q0 27 -18 41t-53 14h-38l6 57h38q35 0 55.5 15t23.5 43q2 25 -15.5 40t-47.5 15
q-33 0 -54 -17t-24 -47h-75q5 54 48.5 87t111.5 33q61 0 97 -26t36 -70q0 -38 -23.5 -64.5t-67.5 -36.5q38 -5 59.5 -31.5t17.5 -63.5q-6 -53 -51 -85.5t-114 -32.5q-67 0 -103.5 29.5z" />
    <glyph glyph-name="uni2154" unicode="&#x2154;" horiz-adv-x="891" 
d="M195 18l544 682l54 -38l-544 -682zM100 397.5q28 41.5 88 69.5l71 33q59 26 59 80q0 23 -15.5 36t-41.5 13q-35 0 -57 -21t-26 -58h-76q7 63 52 100.5t113 37.5q61 0 95.5 -26.5t34.5 -72.5q0 -43 -24.5 -77t-69.5 -55l-66 -32q-35 -16 -51 -32.5t-23 -44.5h208l-7 -62
h-300q8 70 36 111.5zM591.5 21.5q-36.5 29.5 -36.5 84.5q0 12 1 18h76q-4 -34 15 -53.5t55 -19.5t58.5 19.5t22.5 50.5q0 27 -18 41t-53 14h-38l6 57h38q35 0 55.5 15t23.5 43q2 25 -15.5 40t-47.5 15q-33 0 -54 -17t-24 -47h-75q5 54 48.5 87t111.5 33q61 0 97 -26t36 -70
q0 -38 -23.5 -64.5t-67.5 -36.5q38 -5 59.5 -31.5t17.5 -63.5q-6 -53 -51 -85.5t-114 -32.5q-67 0 -103.5 29.5z" />
    <glyph glyph-name="colon.case" horiz-adv-x="286" 
d="M130.5 350q-18.5 19 -18.5 47q0 32 24 56t56 24q28 0 47.5 -18.5t19.5 -45.5q0 -33 -24.5 -57.5t-57.5 -24.5q-28 0 -46.5 19zM95.5 12q-18.5 19 -18.5 46q0 33 24 57t56 24q28 0 47 -19t19 -47q0 -32 -24.5 -56t-57.5 -24q-27 0 -45.5 19z" />
    <glyph glyph-name="exclamdown.case" horiz-adv-x="267" 
d="M255 688q19 -19 19 -47q0 -32 -25 -56t-57 -24q-28 0 -46.5 18.5t-18.5 45.5q0 33 23.5 57.5t56.5 24.5q29 0 48 -19zM229 490l-52 -490h-87l52 490h87z" />
    <glyph glyph-name="questiondown.case" horiz-adv-x="472" 
d="M381 688q19 -19 19 -47q0 -32 -24 -56t-57 -24q-28 0 -47 18.5t-19 45.5q0 33 24.5 57.5t56.5 24.5q28 0 47 -19zM353 474q-6 -50 -22 -80t-58 -58l-54 -36q-36 -24 -56.5 -53.5t-24.5 -71.5q-1 -5 -1 -15q0 -44 28.5 -70.5t78.5 -26.5q62 0 102.5 37t47.5 106h91
q-11 -105 -79 -164t-175 -59q-90 0 -139 45.5t-49 119.5q0 70 31.5 116t88.5 88l46 31q30 21 42 39.5t16 50.5l2 17h86z" />
    <glyph glyph-name="quotedbl.case" horiz-adv-x="414" 
d="M252 622l-61 -185h-44l-24 185l-1 11l1 10q2 28 24 47.5t50 19.5t45.5 -19.5t15.5 -47.5q-2 -11 -6 -21zM421 622l-61 -185h-44l-24 185l-1 11l1 10q2 28 24 47.5t50 19.5t45.5 -19.5t15.5 -47.5q-2 -11 -6 -21z" />
    <glyph glyph-name="quotesingle.case" horiz-adv-x="245" 
d="M252 622l-61 -185h-44l-24 185l-1 11l1 10q2 28 24 47.5t50 19.5t45.5 -19.5t15.5 -47.5q-2 -11 -6 -21z" />
    <glyph glyph-name="semicolon.case" horiz-adv-x="296" 
d="M130.5 349q-18.5 19 -18.5 47q0 32 24 56t56 24q28 0 47.5 -18.5t19.5 -45.5q0 -33 -24.5 -57.5t-57.5 -24.5q-28 0 -46.5 19zM60 -117l4 42q12 -2 37 -2q20 0 35.5 9t23.5 25q15 22 19 53q-15 -15 -43 -15q-26 0 -43 16t-17 42q0 35 23 58.5t57 23.5q32 0 56 -25.5
t24 -71.5q0 -69 -39 -113t-104 -44q-25 0 -33 2z" />
    <glyph glyph-name="underscore.case" horiz-adv-x="515" 
d="M-2 -17h515l-6 -61h-515z" />
    <glyph glyph-name="colon.tf" horiz-adv-x="320" 
d="M147.5 345q-18.5 19 -18.5 46q0 33 24 57t56 24q28 0 47 -19t19 -47q0 -32 -24.5 -56t-57.5 -24q-27 0 -45.5 19zM112.5 12q-18.5 19 -18.5 46q0 33 24 57t56 24q28 0 47 -19t19 -47q0 -32 -24.5 -56t-57.5 -24q-27 0 -45.5 19z" />
    <glyph glyph-name="comma.tf" horiz-adv-x="320" 
d="M68 -117l4 42q12 -2 37 -2q20 0 35.5 9t23.5 25q15 22 19 53q-15 -15 -43 -15q-26 0 -43 16t-17 42q0 35 23 58.5t57 23.5q32 0 56 -25.5t24 -71.5q0 -69 -39 -113t-104 -44q-25 0 -33 2z" />
    <glyph glyph-name="period.tf" horiz-adv-x="320" 
d="M112 12q-18 19 -18 46q0 33 23.5 57t56.5 24q28 0 46.5 -19t18.5 -46q0 -33 -24 -57t-57 -24q-28 0 -46 19z" />
    <glyph glyph-name="semicolon.tf" horiz-adv-x="320" 
d="M137.5 337q-18.5 19 -18.5 46q0 33 24 57t56 24q28 0 47 -19t19 -47q0 -32 -24.5 -56t-57.5 -24q-27 0 -45.5 19zM68 -117l4 42q12 -2 37 -2q20 0 35.5 9t23.5 25q15 22 19 53q-15 -15 -43 -15q-26 0 -43 16t-17 42q0 35 23 58.5t57 23.5q32 0 56 -25.5t24 -71.5
q0 -69 -39 -113t-104 -44q-25 0 -33 2z" />
    <glyph glyph-name="slash.tf" 
d="M109 -34l427 795l67 -31l-427 -795z" />
    <glyph glyph-name="underscore.tf" 
d="M-16 -151h640l-6 -62h-640z" />
    <glyph glyph-name="uni208D" unicode="&#x208d;" horiz-adv-x="243" 
d="M86.5 -53.5q-25.5 55.5 -25.5 128.5q0 13 2 43q10 89 49 153.5t104 122.5l47 -43q-61 -54 -92 -106.5t-39 -126.5q-2 -28 -2 -39q0 -58 20 -103t64 -92l-56 -43q-46 50 -71.5 105.5z" />
    <glyph glyph-name="uni208E" unicode="&#x208e;" horiz-adv-x="243" 
d="M5 -116q62 54 92.5 107t37.5 127q2 14 2 41q0 57 -20 101.5t-63 90.5l55 43q46 -51 71.5 -105.5t25.5 -126.5q0 -29 -2 -44q-9 -89 -48.5 -153.5t-104.5 -123.5z" />
    <glyph glyph-name="uni207D" unicode="&#x207d;" horiz-adv-x="243" 
d="M137.5 433.5q-25.5 55.5 -25.5 128.5q0 12 2 42q10 89 49 153.5t104 122.5l47 -43q-61 -54 -92 -106.5t-39 -126.5q-2 -28 -2 -39q0 -58 20 -103t64 -92l-56 -43q-46 51 -71.5 106.5z" />
    <glyph glyph-name="uni207E" unicode="&#x207e;" horiz-adv-x="243" 
d="M56 370q62 54 92.5 107t37.5 127q2 14 2 41q0 57 -20 101.5t-63 90.5l55 43q46 -51 71.5 -105.5t25.5 -126.5q0 -29 -2 -44q-9 -90 -48 -154.5t-105 -122.5z" />
    <glyph glyph-name="braceleft.case" horiz-adv-x="314" 
d="M152.5 -81.5q-35.5 31.5 -35.5 88.5q0 13 1 19l20 197q3 31 -10 51.5t-33.5 30t-38.5 9.5l8 72q18 0 40.5 9.5t40 30t20.5 51.5l21 197q5 45 27.5 76.5t54.5 47t66 15.5h59l-7 -69h-47q-35 0 -53.5 -24t-22.5 -62l-20 -192q-6 -55 -38 -81.5t-68 -34.5q32 -8 57.5 -31
t25.5 -70l-1 -15l-21 -192l-1 -15q0 -32 14 -51.5t45 -19.5h47l-7 -69h-59q-49 0 -84.5 31.5z" />
    <glyph glyph-name="braceright.case" horiz-adv-x="314" 
d="M-6 -113l7 69h47q35 0 54 24.5t22 61.5l21 192q5 55 37.5 81.5t68.5 34.5q-32 8 -57.5 30.5t-25.5 69.5q0 10 1 16l20 192q1 6 1 17q0 31 -14 50t-45 19h-47l7 69h59q49 0 85 -31.5t36 -88.5q0 -13 -1 -19l-21 -197q-3 -31 10 -51.5t34 -30t39 -9.5l-8 -72
q-18 0 -41 -9.5t-40.5 -30t-20.5 -51.5l-20 -197q-5 -45 -27.5 -76.5t-55 -47t-66.5 -15.5h-59z" />
    <glyph glyph-name="bracketleft.case" horiz-adv-x="288" 
d="M165 813h197l-7 -70h-118l-83 -787h118l-7 -69h-197z" />
    <glyph glyph-name="bracketright.case" horiz-adv-x="288" 
d="M-1 -113l7 69h118l83 787h-118l7 70h197l-97 -926h-197z" />
    <glyph glyph-name="parenleft.case" horiz-adv-x="318" 
d="M137.5 61.5q-46.5 96.5 -46.5 221.5q0 21 4 69q15 150 86 263.5t182 202.5l48 -50q-102 -91 -159.5 -190.5t-70.5 -225.5q-3 -33 -3 -65q0 -103 36.5 -188t108.5 -163l-58 -49q-81 78 -127.5 174.5z" />
    <glyph glyph-name="parenright.case" horiz-adv-x="318" 
d="M-19 -64q102 91 159.5 190.5t70.5 225.5q3 33 3 65q0 103 -36.5 188t-108.5 163l58 50q81 -78 127.5 -175t46.5 -222q0 -21 -4 -69q-15 -150 -85.5 -263t-182.5 -202z" />
    <glyph glyph-name="parenleft.tf" 
d="M255 -19q-46 96 -46 220q0 38 4 71q15 150 85.5 264t182.5 202l47 -50q-102 -90 -159 -190t-70 -226q-4 -46 -4 -66q0 -103 37 -187t109 -163l-58 -49q-82 78 -128 174z" />
    <glyph glyph-name="parenright.tf" 
d="M169 -144q102 90 159 189.5t71 226.5q3 33 3 64q0 103 -36.5 188t-109.5 164l59 50q81 -78 127.5 -175t46.5 -222q0 -21 -4 -69q-16 -150 -86.5 -263t-181.5 -202z" />
    <glyph glyph-name="emdash.case" horiz-adv-x="798" 
d="M93 380h692l-7 -70h-692z" />
    <glyph glyph-name="endash.case" horiz-adv-x="581" 
d="M63 380h505l-7 -70h-505z" />
    <glyph glyph-name="hyphen.case" horiz-adv-x="380" 
d="M73 383h295l-8 -77h-295z" />
    <glyph glyph-name="hyphen.tf" 
d="M149 301h405l-9 -78h-405z" />
    <glyph glyph-name="guillemotleft.case" horiz-adv-x="498" 
d="M41 332l227 192l44 -50l-167 -142l137 -142l-54 -50zM263 332l227 192l44 -50l-167 -142l137 -142l-54 -50z" />
    <glyph glyph-name="guillemotright.case" horiz-adv-x="498" 
d="M34 190l167 142l-137 142l54 50l187 -192l-227 -192zM256 190l167 142l-137 142l54 50l187 -192l-227 -192z" />
    <glyph glyph-name="guilsinglleft.case" horiz-adv-x="276" 
d="M41 332l227 192l44 -50l-167 -142l137 -142l-54 -50z" />
    <glyph glyph-name="guilsinglright.case" horiz-adv-x="276" 
d="M34 190l167 142l-137 142l54 50l187 -192l-227 -192z" />
    <glyph glyph-name="parenleft.dnom" horiz-adv-x="243" 
d="M93.5 12.5q-25.5 55.5 -25.5 128.5q0 13 2 43q10 89 49 153.5t104 122.5l47 -43q-61 -54 -92 -106.5t-39 -126.5q-2 -28 -2 -39q0 -58 20 -103t64 -92l-56 -43q-46 50 -71.5 105.5z" />
    <glyph glyph-name="parenright.dnom" horiz-adv-x="243" 
d="M12 -50q62 54 92.5 107t37.5 127q2 14 2 41q0 57 -20 101.5t-63 90.5l55 43q46 -51 71.5 -105.5t25.5 -126.5q0 -29 -2 -44q-9 -89 -48.5 -153.5t-104.5 -123.5z" />
    <glyph glyph-name="parenleft.numr" horiz-adv-x="243" 
d="M126.5 323q-25.5 55 -25.5 127q0 28 2 44q9 89 48.5 153.5t104.5 122.5l46 -43q-61 -54 -91.5 -106.5t-38.5 -126.5q-2 -14 -2 -41q0 -57 20 -102t63 -91l-55 -43q-46 51 -71.5 106z" />
    <glyph glyph-name="parenright.numr" horiz-adv-x="243" 
d="M44 260q62 54 92.5 106.5t38.5 127.5q2 14 2 40q0 57 -20.5 102t-63.5 91l56 43q46 -50 71.5 -105.5t25.5 -128.5q0 -12 -2 -42q-10 -89 -49 -154t-104 -123z" />
    <glyph glyph-name="uni2003" unicode="&#x2003;" horiz-adv-x="1000" 
 />
    <glyph glyph-name="uni2002" unicode="&#x2002;" horiz-adv-x="500" 
 />
    <glyph glyph-name="uni2005" unicode="&#x2005;" horiz-adv-x="250" 
 />
    <glyph glyph-name="uni200A" unicode="&#x200a;" horiz-adv-x="75" 
 />
    <glyph glyph-name="uni00A0" unicode="&#xa0;" horiz-adv-x="265" 
 />
    <glyph glyph-name="uni2009" unicode="&#x2009;" horiz-adv-x="135" 
 />
    <glyph glyph-name="uni2004" unicode="&#x2004;" horiz-adv-x="0" 
 />
    <glyph glyph-name="uni0E3F" unicode="&#xe3f;" horiz-adv-x="582" 
d="M484 49.5q-63 -49.5 -163 -49.5l-10 -99h-67l10 99h-174l72 681h174l10 99h67l-10 -99q89 -3 139 -44t50 -112q0 -14 -1 -21q-7 -67 -46.5 -107t-102.5 -50q55 -5 90 -42t35 -97q0 -15 -1 -23q-9 -86 -72 -135.5zM234 601l-23 -216h142q61 0 99 33t38 88q0 45 -32 70
t-88 25h-136zM428.5 114.5q38.5 34.5 38.5 93.5q0 44 -30 71t-79 27h-155l-24 -226h147q64 0 102.5 34.5z" />
    <glyph glyph-name="uni20BA" unicode="&#x20ba;" horiz-adv-x="479" 
d="M497 264q-15 -134 -101 -199t-228 -65h-89l23 219l-54 -25l8 69l53 25l7 68l-53 -25l7 69l54 25l26 255h92l-22 -210l163 76l-7 -69l-163 -76l-7 -68l163 76l-7 -69l-163 -76l-19 -182q104 0 161 44.5t67 137.5h89z" />
    <glyph glyph-name="uni20BD" unicode="&#x20bd;" horiz-adv-x="594" 
d="M211 197l-6 -59h170l-7 -59h-170l-8 -79h-91l8 79h-100l7 59h100l6 59h-100l8 82h100l42 401h246q63 0 111 -27t74.5 -75t26.5 -109q0 -11 -2 -31q-7 -69 -43 -124t-93 -86t-124 -31h-155zM219 279h149q46 0 84.5 23.5t61 65t22.5 91.5q0 61 -37.5 100t-96.5 39h-149z
" />
    <glyph glyph-name="uni20B9" unicode="&#x20b9;" horiz-adv-x="524" 
d="M483 552.5q15 -38.5 14 -83.5h81l-22 -61h-65q-15 -71 -60.5 -123t-111.5 -74l121 -211h-105l-112 197h-144l8 82h151q57 0 101.5 36t60.5 93h-299l6 61h299q-4 58 -40.5 93.5t-93.5 35.5h-151l8 82h471l-22 -61h-137q27 -28 42 -66.5z" />
    <glyph glyph-name="uni0E3F.case" horiz-adv-x="582" 
d="M484.5 51q-63.5 -51 -163.5 -51l-11 -102h-67l11 102h-174l74 700h174l10 102h67l-10 -102q89 -3 139 -44.5t50 -114.5q0 -15 -1 -22q-7 -69 -46.5 -110.5t-102.5 -51.5q54 -6 89 -44.5t35 -100.5q0 -15 -1 -22q-9 -88 -72.5 -139zM236 620l-24 -226h142q61 0 99 35.5
t38 94.5q0 46 -31.5 71t-87.5 25h-136zM423.5 112.5q37.5 31.5 43.5 87.5l1 14q0 46 -30 73.5t-79 27.5h-155l-24 -234h147q59 0 96.5 31.5z" />
    <glyph glyph-name="cent.case" horiz-adv-x="519" 
d="M376 211.5q35 25.5 49 75.5h87q-16 -73 -68.5 -120.5t-130.5 -56.5l-12 -110h-66l12 110q-82 10 -128 64.5t-46 140.5q0 11 2 35q11 100 70.5 165t151.5 75l12 110h66l-12 -110q76 -9 118.5 -57t43.5 -124h-87q-4 52 -33.5 78.5t-84.5 26.5q-66 0 -108.5 -43.5
t-50.5 -120.5q-2 -20 -2 -28q0 -64 33.5 -100t93.5 -36q55 0 90 25.5z" />
    <glyph glyph-name="dollar.case" horiz-adv-x="544" 
d="M467 56q-58 -61 -155 -70l-10 -90h-66l10 90q-91 8 -140 61.5t-49 143.5q0 11 2 37h91q-1 -8 -1 -24q0 -65 36.5 -102.5t102.5 -37.5q63 0 100.5 30.5t43.5 86.5q1 5 1 15q0 38 -22 63t-69 39l-109 33q-60 19 -91.5 60.5t-31.5 104.5q0 18 1 27q5 49 33 91.5t74 69.5
t104 32l10 93h66l-10 -95q73 -11 114 -60t41 -125q0 -10 -2 -30h-91q1 8 1 23q0 56 -30 86t-86 30q-63 0 -98 -35.5t-35 -90.5q0 -40 23.5 -66.5t74.5 -42.5l115 -36q54 -17 82 -56.5t28 -98.5q0 -95 -58 -156z" />
    <glyph glyph-name="Euro.case" horiz-adv-x="595" 
d="M427 105q38 36 52 97h89q-22 -94 -85.5 -153.5t-158.5 -59.5q-206 0 -210 263h-67l23 61h46q0 14 1 24t2 16q1 11 5 38h-60l23 62h48q58 264 265 264q95 0 146 -59.5t54 -153.5h-89q-2 61 -32 96.5t-87 35.5q-70 0 -110.5 -47.5t-58.5 -135.5h206l-23 -62h-194
q-4 -23 -5 -38q-1 -7 -2 -17t-1 -23h209l-23 -61h-189q2 -89 31.5 -136t99.5 -47q57 0 95 36z" />
    <glyph glyph-name="florin.case" horiz-adv-x="430" 
d="M377.5 617q-24.5 -21 -40.5 -79l-20 -68h130l-20 -74h-129l-126 -452q-24 -87 -72 -129t-115 -42q-43 0 -74 12l21 75q23 -9 49 -9q40 0 65 20t39 72l126 453h-99l20 74h99l20 69q26 95 74.5 136.5t120.5 41.5q43 0 67 -12l-21 -75q-19 8 -49 8q-41 0 -65.5 -21z" />
    <glyph glyph-name="uni20B4.case" horiz-adv-x="562" 
d="M325 314h239l-21 -50h-320q-31 -18 -45.5 -38t-18.5 -52l-1 -14q0 -44 31 -68t88 -24q70 0 113.5 32t49.5 87h84q-10 -90 -78 -144.5t-178 -54.5q-90 0 -143 42t-53 115q0 70 35 119h-49l22 50h79q24 16 54 30l107 48h-249l23 51h319q21 18 31 40.5t13 52.5q1 5 1 13
q0 41 -28.5 65t-78.5 24q-62 0 -99 -28.5t-42 -80.5h-84q9 86 72 137t159 51q86 0 136.5 -40.5t50.5 -113.5q0 -69 -33 -120h67l-22 -51h-88q-31 -27 -69 -44z" />
    <glyph glyph-name="uni20BA.case" horiz-adv-x="479" 
d="M498 272q-15 -137 -101.5 -204.5t-228.5 -67.5h-89l24 226l-54 -26l7 70l54 26l8 71l-54 -26l7 70l54 26l28 263h92l-23 -217l163 78l-7 -70l-164 -78l-7 -71l163 78l-7 -70l-163 -78l-20 -189q209 0 229 189h89z" />
    <glyph glyph-name="uni20BD.case" horiz-adv-x="594" 
d="M211 203l-6 -61h170l-6 -60h-170l-9 -82h-91l9 82h-100l6 60h100l6 61h-100l9 83h100l44 414h246q62 0 110 -27t74 -76t26 -112q0 -12 -2 -34q-7 -71 -43.5 -127.5t-93.5 -88.5t-124 -32h-155zM220 286h149q46 0 84.5 24.5t61 67t22.5 95.5q0 63 -37 103.5t-96 40.5h-149
z" />
    <glyph glyph-name="uni20B9.case" horiz-adv-x="524" 
d="M499 482h81l-23 -61h-64q-15 -73 -61 -127t-111 -77l119 -217h-105l-112 203h-144l9 83h151q58 0 102.5 37.5t59.5 97.5h-299l7 61h299q-4 60 -40.5 97.5t-93.5 37.5h-151l9 83h471l-23 -62h-138q57 -59 57 -156z" />
    <glyph glyph-name="sterling.case" horiz-adv-x="513" 
d="M192 154q-20 -49 -43 -71h334l-9 -83h-435l7 62q29 26 50.5 72t28.5 114l10 96h-63l7 68h63l9 81q11 113 72.5 168.5t153.5 55.5q87 0 134.5 -45t47.5 -126q0 -10 -2 -30h-91q1 8 1 23q0 49 -24.5 75.5t-73.5 26.5q-56 0 -87.5 -36t-39.5 -114l-9 -79h169l-7 -68h-169
l-8 -78q-6 -63 -26 -112z" />
    <glyph glyph-name="uni20B8.case" horiz-adv-x="521" 
d="M80 700h509l-9 -83h-509zM263 456h-209l9 83h509l-9 -83h-209l-48 -456h-91z" />
    <glyph glyph-name="uni0E3F.tf.case" 
d="M495.5 51q-63.5 -51 -163.5 -51l-11 -102h-66l11 102h-175l74 700h175l10 102h66l-10 -102q89 -2 139 -44t50 -115q0 -15 -1 -22q-7 -69 -46.5 -110.5t-102.5 -51.5q54 -6 89 -44.5t35 -100.5q0 -15 -1 -22q-9 -88 -72.5 -139zM247 620l-24 -226h142q61 0 99 35.5
t38 94.5q0 46 -31.5 71t-87.5 25h-136zM435 112.5q37 31.5 43 87.5l1 14q0 46 -30 73.5t-79 27.5h-155l-24 -234h148q59 0 96 31.5z" />
    <glyph glyph-name="cent.tf.case" 
d="M436 211.5q35 25.5 49 75.5h87q-16 -73 -68.5 -120.5t-130.5 -56.5l-12 -110h-66l12 110q-82 10 -128 64.5t-46 140.5q0 11 2 35q11 100 70.5 165t151.5 75l12 110h66l-12 -110q76 -9 118.5 -57t43.5 -124h-87q-4 52 -33.5 78.5t-84.5 26.5q-66 0 -108.5 -43.5
t-50.5 -120.5q-2 -20 -2 -28q0 -64 33.5 -100t93.5 -36q55 0 90 25.5z" />
    <glyph glyph-name="dollar.tf.case" 
d="M517 56q-58 -61 -155 -70l-10 -90h-66l10 90q-91 8 -140 61.5t-49 143.5q0 11 2 37h91q-1 -8 -1 -24q0 -65 36.5 -102.5t102.5 -37.5q63 0 100.5 30.5t43.5 86.5q1 5 1 15q0 38 -22 63t-69 39l-109 33q-60 19 -91.5 60.5t-31.5 104.5q0 18 1 27q5 49 33 91.5t74 69.5
t104 32l10 93h66l-10 -95q73 -11 114 -60t41 -125q0 -10 -2 -30h-91q1 8 1 23q0 56 -30 86t-86 30q-63 0 -98 -35.5t-35 -90.5q0 -40 23.5 -66.5t74.5 -42.5l115 -36q54 -17 82 -56.5t28 -98.5q0 -95 -58 -156z" />
    <glyph glyph-name="Euro.tf.case" 
d="M462.5 105q37.5 36 52.5 97h89q-22 -94 -85.5 -153.5t-158.5 -59.5q-206 0 -211 263h-66l23 61h45q0 14 1 24t2 16q1 11 5 38h-60l24 62h47q27 122 91.5 193t174.5 71q95 0 146 -59.5t54 -153.5h-89q-2 60 -32.5 96t-86.5 36q-71 0 -111 -47t-59 -136h207l-23 -62h-195
q-4 -23 -5 -38q-1 -7 -2 -17t-1 -23h210l-23 -61h-190q2 -88 32 -135.5t100 -47.5q57 0 94.5 36z" />
    <glyph glyph-name="florin.tf.case" 
d="M510.5 617q-24.5 -21 -40.5 -79l-20 -68h130l-20 -74h-129l-126 -452q-24 -87 -72 -129t-115 -42q-43 0 -74 12l21 75q23 -9 49 -9q40 0 65 20t39 72l126 453h-99l20 74h99l20 69q26 95 74.5 136.5t120.5 41.5q43 0 67 -12l-21 -75q-19 8 -49 8q-41 0 -65.5 -21z" />
    <glyph glyph-name="uni20B4.tf.case" 
d="M446 348l-74 -34h230l-5 -50h-327q-31 -18 -45 -38.5t-18 -51.5q-1 -5 -1 -14q0 -44 30.5 -68t87.5 -24q70 0 113.5 32t49.5 87h84q-10 -90 -78 -144.5t-178 -54.5q-90 0 -143 42t-53 115q0 70 35 119h-55l5 50h102q24 17 54 30l107 48h-255l6 51h342q21 18 31 40.5
t13 52.5q1 5 1 14q0 40 -28.5 64t-78.5 24q-62 0 -99 -28.5t-42 -80.5h-83q9 86 72 137t159 51q86 0 136 -40.5t50 -113.5q0 -69 -33 -120h58l-6 -51h-95q-31 -27 -69 -44z" />
    <glyph glyph-name="uni20BA.tf.case" 
d="M569 272q-15 -137 -101.5 -204.5t-228.5 -67.5h-89l24 226l-54 -26l7 70l54 26l8 71l-54 -26l7 70l54 26l28 263h91l-23 -218l164 79l-7 -70l-165 -79l-7 -71l164 79l-7 -70l-165 -79l-19 -188q104 0 162 46.5t68 142.5h89z" />
    <glyph glyph-name="uni20BD.tf.case" 
d="M241 203l-6 -61h170l-6 -60h-170l-9 -82h-91l9 82h-100l6 60h100l6 61h-100l9 83h100l44 414h239q63 0 112.5 -27.5t77 -77t27.5 -112.5q0 -10 -2 -32q-7 -71 -45 -127.5t-97 -88.5t-126 -32h-148zM250 286h150q46 0 84.5 24.5t60.5 67t22 95.5q0 64 -36.5 104t-95.5 40
h-150z" />
    <glyph glyph-name="uni20B9.tf.case" 
d="M525 482h81l-23 -61h-64q-15 -73 -61 -127t-111 -77l119 -217h-105l-112 203h-144l9 83h151q58 0 102.5 37.5t59.5 97.5h-299l7 61h299q-4 60 -40.5 97.5t-93.5 37.5h-151l9 83h471l-23 -62h-138q57 -59 57 -156z" />
    <glyph glyph-name="sterling.tf.case" 
d="M242 154q-20 -49 -43 -71h334l-9 -83h-435l7 62q29 26 50.5 72t28.5 114l10 96h-63l7 68h63l9 81q11 113 72.5 168.5t153.5 55.5q87 0 134.5 -45t47.5 -126q0 -10 -2 -30h-91q1 8 1 23q0 49 -24.5 75.5t-73.5 26.5q-56 0 -87.5 -36t-39.5 -114l-9 -79h169l-7 -68h-169
l-8 -78q-6 -63 -26 -112z" />
    <glyph glyph-name="uni20B8.tf.case" 
d="M139 700h509l-9 -83h-509zM322 456h-209l9 83h509l-9 -83h-209l-48 -456h-91z" />
    <glyph glyph-name="uni20AE.tf.case" 
d="M430 617l-16 -149l130 61l-8 -71l-129 -60l-8 -70l130 60l-8 -70l-129 -60l-27 -258h-91l22 213l-129 -60l7 70l130 60l7 70l-129 -60l7 70l130 61l20 193h-209l9 83h509l-9 -83h-209z" />
    <glyph glyph-name="uni20A9.tf.case" 
d="M603 393l-23 -84h75l-7 -68h-86l-65 -241h-86l-31 560l-150 -560h-86l-15 241h-87l7 68h76l-5 84h-62l7 67h51l-13 240h91l12 -565l151 565h75l31 -565l133 565h90l-65 -240h50l-7 -67h-61z" />
    <glyph glyph-name="yen.tf.case" 
d="M399 284h143l-7 -62h-145l-7 -71h145l-7 -62h-145l-9 -89h-93l9 89h-145l7 62h145l7 71h-145l7 62h143l-172 416h102l126 -342l199 342h102z" />
    </font>
</defs>
</svg>
