<?xml version="1.0" standalone="no"?>
<!DOCTYPE svg PUBLIC "-//W3C//DTD SVG 1.1//EN" "http://www.w3.org/Graphics/SVG/1.1/DTD/svg11.dtd" >
<svg>
<metadata>
Created by FontForge 20090622 at Sun Apr 29 22:11:42 2018
 By deploy user
Copyright &#194;&#169; 2015 by Noel Leu. All rights reserved.
</metadata>
<defs>
<font id="GTWalsheim-Regular" horiz-adv-x="640" >
  <font-face 
    font-family="GT Walsheim"
    font-weight="400"
    font-stretch="normal"
    units-per-em="1000"
    panose-1="0 0 5 0 0 0 0 0 0 0"
    ascent="700"
    descent="-300"
    x-height="461"
    cap-height="700"
    bbox="-514 -227 1138 899"
    underline-thickness="50"
    underline-position="-50"
    unicode-range="U+000D-U+FB02"
  />
<missing-glyph horiz-adv-x="800" 
d="M208.5 34q-82.5 51 -127.5 135.5t-45 180.5t45 180.5t127.5 135.5t191.5 51t191.5 -51t127.5 -135.5t45 -180.5t-45 -180.5t-127.5 -135.5t-191.5 -51t-191.5 51zM570 52q78 46 123.5 125t45.5 173q0 90 -44.5 169.5t-122.5 127.5t-172 48q-95 0 -173 -48t-122.5 -127.5
t-44.5 -169.5q0 -94 45.5 -173t123.5 -125t171 -46q92 0 170 46zM213.5 470q-12.5 13 -12.5 30q0 18 12.5 30.5t29.5 12.5q18 0 30.5 -12.5t12.5 -30.5q0 -17 -12.5 -30t-30.5 -13q-17 0 -29.5 13zM510.5 470q-12.5 13 -12.5 30q0 18 12.5 30.5t29.5 12.5q18 0 30.5 -12.5
t12.5 -30.5q0 -17 -12.5 -30t-30.5 -13q-17 0 -29.5 13zM398 527l-110 -243h178v-25h-247zM158 259l23 13q11 6 13 17.5t2 39.5h17q0 -34 -4.5 -48t-15.5 -21l-22 -13q-23 -13 -23 -40h-16q0 38 26 52zM600 161q4 16 4 20q0 13 -17 21l-41 20q-39 20 -39 58q0 18 8 40l15 -5
q-7 -23 -7 -35q0 -31 34 -47l40 -19q23 -10 23 -33q0 -8 -4 -24zM267 104.5q-49 38.5 -99 123.5q7 -4 45.5 -27.5t73 -33.5t69.5 -10q57 0 118 8t102 29q1 0 3 2q-15 -32 -50.5 -62.5t-80 -49t-82.5 -18.5q-50 0 -99 38.5zM460.5 117.5q50.5 25.5 71.5 42.5q-38 -10 -33 -8
q-48 -11 -76.5 -15.5t-64.5 -4.5q-30 0 -69.5 11.5t-63.5 30.5q26 -42 69 -62t72 -20q44 0 94.5 25.5z" />
    <glyph glyph-name="fi" unicode="fi" horiz-adv-x="587" 
d="M229 611.5q-23 -16.5 -23 -68.5v-82h130v-73h-130v-388h-87v388h-98v73h98v80q0 95 46 130t101 35q42 0 70 -11v-74q-26 7 -48 7q-36 0 -59 -16.5zM426 461h86v-461h-86v461zM418 560q-20 20 -20 50t20 50.5t51 20.5q30 0 50 -20.5t20 -50.5t-20 -50t-50 -20
q-31 0 -51 20z" />
    <glyph glyph-name="fl" unicode="fl" horiz-adv-x="588" 
d="M229 611.5q-23 -16.5 -23 -68.5v-82h130v-73h-130v-388h-87v388h-98v73h98v80q0 95 46 130t101 35q42 0 70 -11v-74q-26 7 -48 7q-36 0 -59 -16.5zM426 700h87v-700h-87v700z" />
    <glyph glyph-name="f_f" unicode="ff" horiz-adv-x="725" 
d="M229 611.5q-23 -16.5 -23 -68.5v-82h130v-73h-130v-388h-87v388h-98v73h98v80q0 95 46 130t101 35q42 0 70 -11v-74q-26 7 -48 7q-36 0 -59 -16.5zM603 611.5q-23 -16.5 -23 -68.5v-82h130v-73h-130v-388h-87v388h-98v73h98v80q0 95 46 130t101 35q42 0 70 -11v-74
q-26 7 -48 7q-36 0 -59 -16.5z" />
    <glyph glyph-name="f_f_i" unicode="ffi" horiz-adv-x="961" 
d="M229 611.5q-23 -16.5 -23 -68.5v-82h130v-73h-130v-388h-87v388h-98v73h98v80q0 95 46 130t101 35q42 0 70 -11v-74q-26 7 -48 7q-36 0 -59 -16.5zM603 611.5q-23 -16.5 -23 -68.5v-82h130v-73h-130v-388h-87v388h-98v73h98v80q0 95 46 130t101 35q42 0 70 -11v-74
q-26 7 -48 7q-36 0 -59 -16.5zM800 461h86v-461h-86v461zM792 560q-20 20 -20 50t20 50.5t51 20.5q30 0 50 -20.5t20 -50.5t-20 -50t-50 -20q-31 0 -51 20z" />
    <glyph glyph-name="f_f_l" unicode="ffl" horiz-adv-x="962" 
d="M229 611.5q-23 -16.5 -23 -68.5v-82h130v-73h-130v-388h-87v388h-98v73h98v80q0 95 46 130t101 35q42 0 70 -11v-74q-26 7 -48 7q-36 0 -59 -16.5zM603 611.5q-23 -16.5 -23 -68.5v-82h130v-73h-130v-388h-87v388h-98v73h98v80q0 95 46 130t101 35q42 0 70 -11v-74
q-26 7 -48 7q-36 0 -59 -16.5zM800 700h87v-700h-87v700z" />
    <glyph glyph-name=".notdef" horiz-adv-x="800" 
d="M208.5 34q-82.5 51 -127.5 135.5t-45 180.5t45 180.5t127.5 135.5t191.5 51t191.5 -51t127.5 -135.5t45 -180.5t-45 -180.5t-127.5 -135.5t-191.5 -51t-191.5 51zM570 52q78 46 123.5 125t45.5 173q0 90 -44.5 169.5t-122.5 127.5t-172 48q-95 0 -173 -48t-122.5 -127.5
t-44.5 -169.5q0 -94 45.5 -173t123.5 -125t171 -46q92 0 170 46zM213.5 470q-12.5 13 -12.5 30q0 18 12.5 30.5t29.5 12.5q18 0 30.5 -12.5t12.5 -30.5q0 -17 -12.5 -30t-30.5 -13q-17 0 -29.5 13zM510.5 470q-12.5 13 -12.5 30q0 18 12.5 30.5t29.5 12.5q18 0 30.5 -12.5
t12.5 -30.5q0 -17 -12.5 -30t-30.5 -13q-17 0 -29.5 13zM398 527l-110 -243h178v-25h-247zM158 259l23 13q11 6 13 17.5t2 39.5h17q0 -34 -4.5 -48t-15.5 -21l-22 -13q-23 -13 -23 -40h-16q0 38 26 52zM600 161q4 16 4 20q0 13 -17 21l-41 20q-39 20 -39 58q0 18 8 40l15 -5
q-7 -23 -7 -35q0 -31 34 -47l40 -19q23 -10 23 -33q0 -8 -4 -24zM267 104.5q-49 38.5 -99 123.5q7 -4 45.5 -27.5t73 -33.5t69.5 -10q57 0 118 8t102 29q1 0 3 2q-15 -32 -50.5 -62.5t-80 -49t-82.5 -18.5q-50 0 -99 38.5zM460.5 117.5q50.5 25.5 71.5 42.5q-38 -10 -33 -8
q-48 -11 -76.5 -15.5t-64.5 -4.5q-30 0 -69.5 11.5t-63.5 30.5q26 -42 69 -62t72 -20q44 0 94.5 25.5z" />
    <glyph glyph-name=".null" horiz-adv-x="0" 
 />
    <glyph glyph-name="nonmarkingreturn" unicode="&#xd;" horiz-adv-x="250" 
 />
    <glyph glyph-name="space" unicode=" " horiz-adv-x="253" 
 />
    <glyph glyph-name="A" unicode="A" horiz-adv-x="590" 
d="M440 107h-291l-33 -107h-98l237 700h80l237 -700h-98zM415 189l-121 385l-119 -385h240z" />
    <glyph glyph-name="B" unicode="B" horiz-adv-x="582" 
d="M496.5 306q40.5 -44 40.5 -115q0 -89 -58 -140t-159 -51h-240v700h230q101 0 159.5 -48t58.5 -133q0 -69 -35 -109t-97 -53q60 -7 100.5 -51zM171 619v-224h142q57 0 90.5 30t33.5 82q0 54 -34.5 83t-95.5 29h-136zM412 112.5q34 31.5 34 87.5q0 51 -33.5 83t-86.5 32
h-155v-234h147q60 0 94 31.5z" />
    <glyph glyph-name="C" unicode="C" horiz-adv-x="771" 
d="M207 31.5q-82 47.5 -125.5 131t-43.5 187.5t43.5 187.5t125.5 131t193 47.5q92 0 163 -31.5t115 -87.5t57 -127h-100q-20 76 -80 120t-154 44q-83 0 -143.5 -36t-92.5 -100.5t-32 -147.5t32 -147.5t92.5 -100.5t143.5 -36q94 0 154 44t80 120h100q-13 -71 -57 -127
t-115 -87.5t-163 -31.5q-111 0 -193 47.5z" />
    <glyph glyph-name="D" unicode="D" horiz-adv-x="691" 
d="M80 700h223q111 0 192 -48.5t122.5 -128.5t41.5 -173t-41.5 -173t-122.5 -128.5t-192 -48.5h-223v700zM296 82q87 0 148 37.5t91 98.5t30 132t-30 132t-91 98.5t-148 37.5h-125v-536h125z" />
    <glyph glyph-name="E" unicode="E" horiz-adv-x="545" 
d="M80 700h398v-82h-307v-229h307v-82h-307v-225h307v-82h-398v700z" />
    <glyph glyph-name="F" unicode="F" horiz-adv-x="532" 
d="M80 700h398v-82h-307v-253h307v-82h-307v-283h-91v700z" />
    <glyph glyph-name="G" unicode="G" horiz-adv-x="828" 
d="M807 258h-77q-23 -127 -109 -200.5t-224 -73.5q-109 0 -190.5 47.5t-125 129.5t-43.5 183t42 186t124 135.5t197 50.5q80 0 145.5 -28t106.5 -77.5t50 -110.5h-100q-15 60 -69 97t-133 37q-87 0 -147.5 -38t-91 -103.5t-29.5 -146.5q-1 -78 31 -142t92 -101t141 -37
q98 0 158.5 49.5t79.5 142.5h-170v82h342v-82z" />
    <glyph glyph-name="H" unicode="H" horiz-adv-x="668" 
d="M80 700h91v-311h326v311h91v-700h-91v307h-326v-307h-91v700z" />
    <glyph glyph-name="I" unicode="I" horiz-adv-x="251" 
d="M80 700h91v-700h-91v700z" />
    <glyph glyph-name="J" unicode="J" horiz-adv-x="536" 
d="M84 48.5q-61 64.5 -61 173.5h91q0 -72 36.5 -114t98.5 -42q63 0 98.5 42.5t35.5 115.5v476h91v-476q0 -111 -60 -175.5t-165 -64.5q-104 0 -165 64.5z" />
    <glyph glyph-name="K" unicode="K" horiz-adv-x="595" 
d="M257 354l324 -354h-117l-293 325v-325h-91v700h91v-327l294 327h116z" />
    <glyph glyph-name="L" unicode="L" horiz-adv-x="510" 
d="M80 700h91v-614h298v-86h-389v700z" />
    <glyph glyph-name="M" unicode="M" horiz-adv-x="815" 
d="M80 700h88l240 -571l240 571h87v-700h-87v511l-205 -511h-70l-206 514v-514h-87v700z" />
    <glyph glyph-name="N" unicode="N" horiz-adv-x="659" 
d="M80 700h97l315 -548v548h87v-700h-96l-316 548v-548h-87v700z" />
    <glyph glyph-name="O" unicode="O" horiz-adv-x="797" 
d="M208 33.5q-82 49.5 -126 133t-44 183.5t44 183.5t126 133t191 49.5t191 -49.5t126 -133t44 -183.5t-44 -183.5t-126 -133t-191 -49.5t-191 49.5zM541 104.5q60 38.5 92 103t31 142.5q1 78 -31 142.5t-92 103t-142 38.5t-142.5 -38.5t-92.5 -103t-31 -142.5
q-1 -78 31 -142.5t92.5 -103t142.5 -38.5t142 38.5z" />
    <glyph glyph-name="P" unicode="P" horiz-adv-x="580" 
d="M452.5 669q53.5 -31 83.5 -86t30 -125q0 -69 -30 -124t-83.5 -86t-121.5 -31h-160v-217h-91v700h251q68 0 121.5 -31zM402 319.5q34 20.5 53.5 57t19.5 81.5q0 46 -19.5 82.5t-53.5 57t-76 20.5h-155v-319h155q42 0 76 20.5z" />
    <glyph glyph-name="Q" unicode="Q" horiz-adv-x="797" 
d="M729 194.5q-31 -72.5 -89 -124.5t-138 -73l79 -102l-80 -41l-100 130h-2q-109 0 -191 49.5t-126 133t-44 183.5t44 183.5t126 133t191 49.5t191 -49.5t126 -133t44 -183.5q0 -83 -31 -155.5zM541 104.5q60 38.5 92 103t31 142.5q1 78 -31 142.5t-92 103t-142 38.5
t-142.5 -38.5t-92.5 -103t-31 -142.5q-1 -78 31 -142.5t92.5 -103t142.5 -38.5t142 38.5z" />
    <glyph glyph-name="R" unicode="R" horiz-adv-x="606" 
d="M525 315q-41 -61 -111 -85l142 -230h-104l-135 217h-146v-217h-91v700h251q68 0 121.5 -31t83.5 -86t30 -125q0 -82 -41 -143zM171 299h155q42 0 76 20.5t53.5 57t19.5 81.5q0 46 -19.5 82.5t-53.5 57t-76 20.5h-155v-319z" />
    <glyph glyph-name="S" unicode="S" horiz-adv-x="557" 
d="M102 47q-67 63 -67 176h91q0 -74 43 -116.5t118 -42.5q66 0 102 30t36 85q0 46 -25.5 74.5t-86.5 49.5l-116 41q-141 45 -141 184q0 55 28 98t78 66.5t114 23.5q103 0 165 -58t62 -156h-91q0 65 -36 100.5t-103 35.5q-58 0 -92 -28.5t-34 -76.5q0 -44 29.5 -73.5
t94.5 -51.5l108 -38q137 -47 137 -188q0 -90 -62 -144t-166 -54q-119 0 -186 63z" />
    <glyph glyph-name="T" unicode="T" horiz-adv-x="521" 
d="M215 614h-209v86h509v-86h-209v-614h-91v614z" />
    <glyph glyph-name="U" unicode="U" horiz-adv-x="635" 
d="M131 48q-68 64 -68 182v470h91v-465q0 -82 43.5 -125.5t119.5 -43.5t120 43.5t44 125.5v465h91v-470q0 -118 -68.5 -182t-186.5 -64t-186 64z" />
    <glyph glyph-name="V" unicode="V" horiz-adv-x="565" 
d="M1 700h99l182 -558l183 558h99l-238 -700h-87z" />
    <glyph glyph-name="W" unicode="W" horiz-adv-x="958" 
d="M3 700h95l180 -550l167 550h68l167 -550l180 550h95l-239 -700h-67l-170 542l-170 -542h-67z" />
    <glyph glyph-name="X" unicode="X" horiz-adv-x="604" 
d="M250 350l-230 350h103l179 -275l179 275h103l-231 -350l231 -350h-103l-179 274l-179 -274h-103z" />
    <glyph glyph-name="Y" unicode="Y" horiz-adv-x="551" 
d="M566 700l-352 -700h-100l141 278l-265 422h106l205 -328l166 328h99z" />
    <glyph glyph-name="Z" unicode="Z" horiz-adv-x="573" 
d="M389 618h-329v82h480l-363 -618h359v-82h-513z" />
    <glyph glyph-name="Aacute" unicode="&#xc1;" horiz-adv-x="590" 
d="M206 731l-32 60l218 103l31 -59zM440 107h-291l-33 -107h-98l237 700h80l237 -700h-98zM415 189l-121 385l-119 -385h240z" />
    <glyph glyph-name="Abreve" unicode="&#x102;" horiz-adv-x="590" 
d="M180 772q-47 38 -52 97h72q5 -36 31 -54t64 -18t64 18t31 54h72q-5 -59 -52 -97t-115 -38t-115 38zM440 107h-291l-33 -107h-98l237 700h80l237 -700h-98zM415 189l-121 385l-119 -385h240z" />
    <glyph glyph-name="Acircumflex" unicode="&#xc2;" horiz-adv-x="590" 
d="M203 735l-45 42l135 115l135 -115l-46 -42l-89 81zM440 107h-291l-33 -107h-98l237 700h80l237 -700h-98zM415 189l-121 385l-119 -385h240z" />
    <glyph glyph-name="Adieresis" unicode="&#xc4;" horiz-adv-x="590" 
d="M129 766.5q-19 19.5 -19 47.5t19 47.5t47 19.5t47.5 -19.5t19.5 -47.5t-19.5 -47.5t-47.5 -19.5t-47 19.5zM365.5 766.5q-19.5 19.5 -19.5 47.5t19.5 47.5t46.5 19.5q28 0 48 -19.5t20 -47.5t-20 -47.5t-48 -19.5q-27 0 -46.5 19.5zM440 107h-291l-33 -107h-98l237 700
h80l237 -700h-98zM415 189l-121 385l-119 -385h240z" />
    <glyph glyph-name="AE" unicode="&#xc6;" horiz-adv-x="841" 
d="M497 618v-229h276v-82h-276v-225h276v-82h-368v111h-240l-53 -111h-99l348 700h412v-82h-276zM405 189v427l-203 -427h203z" />
    <glyph glyph-name="AEacute" unicode="&#x1fc;" horiz-adv-x="841" 
d="M500 731l-32 60l218 103l31 -59zM497 618v-229h276v-82h-276v-225h276v-82h-368v111h-240l-53 -111h-99l348 700h412v-82h-276zM405 189v427l-203 -427h203z" />
    <glyph glyph-name="Agrave" unicode="&#xc0;" horiz-adv-x="590" 
d="M383 731l-217 104l31 59l218 -103zM440 107h-291l-33 -107h-98l237 700h80l237 -700h-98zM415 189l-121 385l-119 -385h240z" />
    <glyph glyph-name="Amacron" unicode="&#x100;" horiz-adv-x="590" 
d="M481 768h-372v69h372v-69zM440 107h-291l-33 -107h-98l237 700h80l237 -700h-98zM415 189l-121 385l-119 -385h240z" />
    <glyph glyph-name="Aogonek" unicode="&#x104;" horiz-adv-x="590" 
d="M440 107h-291l-33 -107h-98l237 700h80l237 -700h-98zM415 189l-121 385l-119 -385h240zM432.5 -184q-31.5 28 -31.5 70q0 33 21.5 62t63.5 52h86q-48 -10 -70 -34.5t-22 -53.5q0 -26 16.5 -42t44.5 -16q29 0 56 13v-64q-39 -15 -80 -15q-53 0 -84.5 28z" />
    <glyph glyph-name="Aring" unicode="&#xc5;" horiz-adv-x="590" 
d="M440 107h-291l-33 -107h-98l225 666q-32 14 -52 44.5t-20 65.5q0 52 36 87.5t88 35.5q35 0 64.5 -17t46.5 -45t17 -61q0 -36 -21 -66.5t-55 -44.5l225 -665h-98zM247 825.5q-20 -20.5 -20 -49.5q0 -28 20 -47.5t48 -19.5q30 0 50 19.5t20 48.5t-20 49t-50 20
q-28 0 -48 -20.5zM415 189l-121 385l-119 -385h240z" />
    <glyph glyph-name="Atilde" unicode="&#xc3;" horiz-adv-x="590" 
d="M177.5 791.5q-16.5 -9.5 -36.5 -36.5l-37 34q46 78 105 78q23 0 43.5 -9t46.5 -25q25 -14 40 -21t31 -7q23 0 41.5 10t38.5 38l36 -39q-40 -73 -110 -75q-25 -2 -47 7.5t-49 27.5q-24 14 -37 20.5t-28 6.5q-21 0 -37.5 -9.5zM440 107h-291l-33 -107h-98l237 700h80
l237 -700h-98zM415 189l-121 385l-119 -385h240z" />
    <glyph glyph-name="Cacute" unicode="&#x106;" horiz-adv-x="771" 
d="M279 791l218 103l31 -59l-217 -104zM207 31.5q-82 47.5 -125.5 131t-43.5 187.5t43.5 187.5t125.5 131t193 47.5q92 0 163 -31.5t115 -87.5t57 -127h-100q-20 76 -80 120t-154 44q-83 0 -143.5 -36t-92.5 -100.5t-32 -147.5t32 -147.5t92.5 -100.5t143.5 -36q94 0 154 44
t80 120h100q-13 -71 -57 -127t-115 -87.5t-163 -31.5q-111 0 -193 47.5z" />
    <glyph glyph-name="Ccaron" unicode="&#x10c;" horiz-adv-x="771" 
d="M264 851l46 42l89 -81l90 81l45 -42l-135 -115zM207 31.5q-82 47.5 -125.5 131t-43.5 187.5t43.5 187.5t125.5 131t193 47.5q92 0 163 -31.5t115 -87.5t57 -127h-100q-20 76 -80 120t-154 44q-83 0 -143.5 -36t-92.5 -100.5t-32 -147.5t32 -147.5t92.5 -100.5t143.5 -36
q94 0 154 44t80 120h100q-13 -71 -57 -127t-115 -87.5t-163 -31.5q-111 0 -193 47.5z" />
    <glyph glyph-name="Ccedilla" unicode="&#xc7;" horiz-adv-x="771" 
d="M207 31.5q-82 47.5 -125.5 131t-43.5 187.5t43.5 187.5t125.5 131t193 47.5q92 0 163 -31.5t115 -87.5t57 -127h-100q-20 76 -80 120t-154 44q-83 0 -143.5 -36t-92.5 -100.5t-32 -147.5t32 -147.5t92.5 -100.5t143.5 -36q94 0 154 44t80 120h100q-13 -71 -57 -127
t-115 -87.5t-163 -31.5q-111 0 -193 47.5zM394 -196.5q-23 18.5 -26 52.5h46q1 -14 12 -23t27 -9q20 0 31.5 12t11.5 35q0 22 -10.5 34t-30.5 12q-26 0 -39 -20h-40v103h47v-63q6 7 18.5 11t27.5 4q32 0 53.5 -21.5t21.5 -58.5q0 -38 -23.5 -62.5t-66.5 -24.5
q-37 0 -60 18.5z" />
    <glyph glyph-name="Ccircumflex" unicode="&#x108;" horiz-adv-x="771" 
d="M533 777l-46 -42l-89 81l-90 -81l-45 42l135 115zM207 31.5q-82 47.5 -125.5 131t-43.5 187.5t43.5 187.5t125.5 131t193 47.5q92 0 163 -31.5t115 -87.5t57 -127h-100q-20 76 -80 120t-154 44q-83 0 -143.5 -36t-92.5 -100.5t-32 -147.5t32 -147.5t92.5 -100.5
t143.5 -36q94 0 154 44t80 120h100q-13 -71 -57 -127t-115 -87.5t-163 -31.5q-111 0 -193 47.5z" />
    <glyph glyph-name="Cdotaccent" unicode="&#x10a;" horiz-adv-x="771" 
d="M351.5 763.5q-18.5 19.5 -18.5 48.5q0 28 19 47.5t48 19.5t48 -19.5t19 -47.5q0 -29 -18.5 -48.5t-48.5 -19.5t-48.5 19.5zM207 31.5q-82 47.5 -125.5 131t-43.5 187.5t43.5 187.5t125.5 131t193 47.5q92 0 163 -31.5t115 -87.5t57 -127h-100q-20 76 -80 120t-154 44
q-83 0 -143.5 -36t-92.5 -100.5t-32 -147.5t32 -147.5t92.5 -100.5t143.5 -36q94 0 154 44t80 120h100q-13 -71 -57 -127t-115 -87.5t-163 -31.5q-111 0 -193 47.5z" />
    <glyph glyph-name="Dcaron" unicode="&#x10e;" horiz-adv-x="691" 
d="M187 851l46 42l89 -81l90 81l45 -42l-135 -115zM80 700h223q111 0 192 -48.5t122.5 -128.5t41.5 -173t-41.5 -173t-122.5 -128.5t-192 -48.5h-223v700zM296 82q87 0 148 37.5t91 98.5t30 132t-30 132t-91 98.5t-148 37.5h-125v-536h125z" />
    <glyph glyph-name="Dcroat" unicode="&#x110;" horiz-adv-x="691" 
d="M495 651.5q81 -48.5 122.5 -128.5t41.5 -173t-41.5 -173t-122.5 -128.5t-192 -48.5h-223v313h-79v77h79v310h223q111 0 192 -48.5zM444 119.5q61 37.5 91 98.5t30 132t-30 132t-91 98.5t-148 37.5h-125v-228h133v-77h-133v-231h125q87 0 148 37.5z" />
    <glyph glyph-name="Eacute" unicode="&#xc9;" horiz-adv-x="545" 
d="M164 791l218 103l31 -59l-217 -104zM80 700h398v-82h-307v-229h307v-82h-307v-225h307v-82h-398v700z" />
    <glyph glyph-name="Ebreve" unicode="&#x114;" horiz-adv-x="545" 
d="M170 772q-47 38 -52 97h72q5 -36 31 -54t64 -18t64 18t31 54h72q-5 -59 -52 -97t-115 -38t-115 38zM80 700h398v-82h-307v-229h307v-82h-307v-225h307v-82h-398v700z" />
    <glyph glyph-name="Ecaron" unicode="&#x11a;" horiz-adv-x="545" 
d="M149 851l46 42l89 -81l90 81l45 -42l-135 -115zM80 700h398v-82h-307v-229h307v-82h-307v-225h307v-82h-398v700z" />
    <glyph glyph-name="Ecircumflex" unicode="&#xca;" horiz-adv-x="545" 
d="M418 777l-46 -42l-89 81l-90 -81l-45 42l135 115zM80 700h398v-82h-307v-229h307v-82h-307v-225h307v-82h-398v700z" />
    <glyph glyph-name="Edieresis" unicode="&#xcb;" horiz-adv-x="545" 
d="M119 766.5q-19 19.5 -19 47.5t19 47.5t47 19.5t47.5 -19.5t19.5 -47.5t-19.5 -47.5t-47.5 -19.5t-47 19.5zM355.5 766.5q-19.5 19.5 -19.5 47.5t19.5 47.5t46.5 19.5q28 0 48 -19.5t20 -47.5t-20 -47.5t-48 -19.5q-27 0 -46.5 19.5zM80 700h398v-82h-307v-229h307v-82
h-307v-225h307v-82h-398v700z" />
    <glyph glyph-name="Edotaccent" unicode="&#x116;" horiz-adv-x="545" 
d="M236.5 763.5q-18.5 19.5 -18.5 48.5q0 28 19 47.5t48 19.5t48 -19.5t19 -47.5q0 -29 -18.5 -48.5t-48.5 -19.5t-48.5 19.5zM80 700h398v-82h-307v-229h307v-82h-307v-225h307v-82h-398v700z" />
    <glyph glyph-name="Egrave" unicode="&#xc8;" horiz-adv-x="545" 
d="M156 835l31 59l218 -103l-32 -60zM80 700h398v-82h-307v-229h307v-82h-307v-225h307v-82h-398v700z" />
    <glyph glyph-name="Emacron" unicode="&#x112;" horiz-adv-x="545" 
d="M99 837h372v-69h-372v69zM80 700h398v-82h-307v-229h307v-82h-307v-225h307v-82h-398v700z" />
    <glyph glyph-name="Eogonek" unicode="&#x118;" horiz-adv-x="545" 
d="M80 700h398v-82h-307v-229h307v-82h-307v-225h307v-82h-398v700zM338.5 -184q-31.5 28 -31.5 70q0 33 21.5 62t63.5 52h86q-48 -10 -70 -34.5t-22 -53.5q0 -26 16.5 -42t44.5 -16q29 0 56 13v-64q-39 -15 -80 -15q-53 0 -84.5 28z" />
    <glyph glyph-name="Eth" unicode="&#xd0;" horiz-adv-x="691" 
d="M495 651.5q81 -48.5 122.5 -128.5t41.5 -173t-41.5 -173t-122.5 -128.5t-192 -48.5h-223v313h-79v77h79v310h223q111 0 192 -48.5zM444 119.5q61 37.5 91 98.5t30 132t-30 132t-91 98.5t-148 37.5h-125v-228h133v-77h-133v-231h125q87 0 148 37.5z" />
    <glyph glyph-name="Gbreve" unicode="&#x11e;" horiz-adv-x="828" 
d="M288 772q-47 38 -52 97h72q5 -36 31 -54t64 -18t64 18t31 54h72q-5 -59 -52 -97t-115 -38t-115 38zM807 258h-77q-23 -127 -109 -200.5t-224 -73.5q-109 0 -190.5 47.5t-125 129.5t-43.5 183t42 186t124 135.5t197 50.5q80 0 145.5 -28t106.5 -77.5t50 -110.5h-100
q-15 60 -69 97t-133 37q-87 0 -147.5 -38t-91 -103.5t-29.5 -146.5q-1 -78 31 -142t92 -101t141 -37q98 0 158.5 49.5t79.5 142.5h-170v82h342v-82z" />
    <glyph glyph-name="Gcircumflex" unicode="&#x11c;" horiz-adv-x="828" 
d="M311 735l-45 42l135 115l135 -115l-46 -42l-89 81zM807 258h-77q-23 -127 -109 -200.5t-224 -73.5q-109 0 -190.5 47.5t-125 129.5t-43.5 183t42 186t124 135.5t197 50.5q80 0 145.5 -28t106.5 -77.5t50 -110.5h-100q-15 60 -69 97t-133 37q-87 0 -147.5 -38t-91 -103.5
t-29.5 -146.5q-1 -78 31 -142t92 -101t141 -37q98 0 158.5 49.5t79.5 142.5h-170v82h342v-82z" />
    <glyph glyph-name="Gcommaaccent" unicode="&#x122;" horiz-adv-x="828" 
d="M807 258h-77q-23 -127 -109 -200.5t-224 -73.5q-109 0 -190.5 47.5t-125 129.5t-43.5 183t42 186t124 135.5t197 50.5q80 0 145.5 -28t106.5 -77.5t50 -110.5h-100q-15 60 -69 97t-133 37q-87 0 -147.5 -38t-91 -103.5t-29.5 -146.5q-1 -78 31 -142t92 -101t141 -37
q98 0 158.5 49.5t79.5 142.5h-170v82h342v-82zM359 -176q41 0 54 26q9 10 9 30q-2 -4 -7.5 -6.5t-12.5 -2.5q-24 0 -38.5 14t-14.5 35t14.5 35.5t36.5 14.5q28 0 45.5 -19.5t17.5 -51.5q0 -103 -104 -105v30z" />
    <glyph glyph-name="Gdotaccent" unicode="&#x120;" horiz-adv-x="828" 
d="M354.5 763.5q-18.5 19.5 -18.5 48.5q0 28 19 47.5t48 19.5t48 -19.5t19 -47.5q0 -29 -18.5 -48.5t-48.5 -19.5t-48.5 19.5zM807 258h-77q-23 -127 -109 -200.5t-224 -73.5q-109 0 -190.5 47.5t-125 129.5t-43.5 183t42 186t124 135.5t197 50.5q80 0 145.5 -28
t106.5 -77.5t50 -110.5h-100q-15 60 -69 97t-133 37q-87 0 -147.5 -38t-91 -103.5t-29.5 -146.5q-1 -78 31 -142t92 -101t141 -37q98 0 158.5 49.5t79.5 142.5h-170v82h342v-82z" />
    <glyph glyph-name="Hbar" unicode="&#x126;" horiz-adv-x="668" 
d="M623 506h-35v-506h-91v307h-326v-307h-91v506h-35v59h35v135h91v-135h326v135h91v-135h35v-59zM497 506h-326v-117h326v117z" />
    <glyph glyph-name="Hcircumflex" unicode="&#x124;" horiz-adv-x="668" 
d="M467 777l-46 -42l-89 81l-90 -81l-45 42l135 115zM80 700h91v-311h326v311h91v-700h-91v307h-326v-307h-91v700z" />
    <glyph glyph-name="Iacute" unicode="&#xcd;" horiz-adv-x="251" 
d="M25 794l161 99l40 -57l-162 -99zM80 700h91v-700h-91v700z" />
    <glyph glyph-name="Ibreve" unicode="&#x12c;" horiz-adv-x="251" 
d="M42 767q-33 30 -33 100h67q1 -34 15 -51t35 -17t35 17t15 51h67q0 -70 -33 -100t-84 -30t-84 30zM80 700h91v-700h-91v700z" />
    <glyph glyph-name="Icircumflex" unicode="&#xce;" horiz-adv-x="251" 
d="M125 804l-70 -61l-40 44l110 93l111 -93l-41 -44zM80 700h91v-700h-91v700z" />
    <glyph glyph-name="Idieresis" unicode="&#xcf;" horiz-adv-x="251" 
d="M10.5 768.5q-17.5 17.5 -17.5 44.5t17.5 44.5t44.5 17.5t44.5 -17.5t17.5 -44.5t-17.5 -44.5t-44.5 -17.5t-44.5 17.5zM152.5 768.5q-17.5 17.5 -17.5 44.5t17.5 44.5t44.5 17.5t44.5 -17.5t17.5 -44.5t-17.5 -44.5t-44.5 -17.5t-44.5 17.5zM80 700h91v-700h-91v700z" />
    <glyph glyph-name="Idotaccent" unicode="&#x130;" horiz-adv-x="251" 
d="M77.5 763.5q-18.5 19.5 -18.5 48.5q0 28 19 47.5t48 19.5t48 -19.5t19 -47.5q0 -29 -18.5 -48.5t-48.5 -19.5t-48.5 19.5zM80 700h91v-700h-91v700z" />
    <glyph glyph-name="Igrave" unicode="&#xcc;" horiz-adv-x="251" 
d="M32 827l39 59l149 -89l-39 -59zM80 700h91v-700h-91v700z" />
    <glyph glyph-name="IJ" unicode="&#x132;" horiz-adv-x="787" 
d="M80 700h91v-700h-91v700zM335 48.5q-61 64.5 -61 173.5h91q0 -72 36.5 -114t98.5 -42q63 0 98.5 42.5t35.5 115.5v476h91v-476q0 -111 -60 -175.5t-165 -64.5q-104 0 -165 64.5z" />
    <glyph glyph-name="Imacron" unicode="&#x12a;" horiz-adv-x="251" 
d="M33 830h187v-62h-187v62zM80 700h91v-700h-91v700z" />
    <glyph glyph-name="Iogonek" unicode="&#x12e;" horiz-adv-x="251" 
d="M80 700h91v-700h-91v700zM31.5 -184q-31.5 28 -31.5 70q0 33 21.5 62t63.5 52h86q-48 -10 -70 -34.5t-22 -53.5q0 -26 16.5 -42t44.5 -16q29 0 56 13v-64q-39 -15 -80 -15q-53 0 -84.5 28z" />
    <glyph glyph-name="Itilde" unicode="&#x128;" horiz-adv-x="251" 
d="M141 763.5q-10 5.5 -25 16.5q-17 15 -29 15t-21.5 -6.5t-18.5 -23.5l-23 40q22 50 64 50q15 0 25 -5.5t23 -16.5q7 -6 15 -11t16 -5q24 0 38 29l23 -40q-21 -48 -62 -48q-15 0 -25 5.5zM80 700h91v-700h-91v700z" />
    <glyph glyph-name="Jcircumflex" unicode="&#x134;" horiz-adv-x="536" 
d="M428 804l-70 -61l-40 44l110 93l111 -93l-41 -44zM84 48.5q-61 64.5 -61 173.5h91q0 -72 36.5 -114t98.5 -42q63 0 98.5 42.5t35.5 115.5v476h91v-476q0 -111 -60 -175.5t-165 -64.5q-104 0 -165 64.5z" />
    <glyph glyph-name="Kcommaaccent" unicode="&#x136;" horiz-adv-x="595" 
d="M257 354l324 -354h-117l-293 325v-325h-91v700h91v-327l294 327h116zM247 -176q41 0 54 26q9 10 9 30q-2 -4 -7.5 -6.5t-12.5 -2.5q-24 0 -38.5 14t-14.5 35t14.5 35.5t36.5 14.5q28 0 45.5 -19.5t17.5 -51.5q0 -103 -104 -105v30z" />
    <glyph glyph-name="Lacute" unicode="&#x139;" horiz-adv-x="510" 
d="M38 794l161 99l40 -57l-162 -99zM80 700h91v-614h298v-86h-389v700z" />
    <glyph glyph-name="Lcaron" unicode="&#x13d;" horiz-adv-x="510" 
d="M80 700h91v-614h298v-86h-389v700zM312 498v40q7 -1 18 -1q39 0 51 28q6 15 6 31q0 9 -1 14q-12 -17 -40 -17q-23 0 -38.5 17t-15.5 43q0 27 17.5 44t46.5 17q36 0 58.5 -26.5t22.5 -74.5q0 -55 -28.5 -86t-77.5 -31q-13 0 -19 2z" />
    <glyph glyph-name="Lcommaaccent" unicode="&#x13b;" horiz-adv-x="510" 
d="M80 700h91v-614h298v-86h-389v700zM239 -176q41 0 54 26q9 10 9 30q-2 -4 -7.5 -6.5t-12.5 -2.5q-24 0 -38.5 14t-14.5 35t14.5 35.5t36.5 14.5q28 0 45.5 -19.5t17.5 -51.5q0 -103 -104 -105v30z" />
    <glyph glyph-name="Ldot" unicode="&#x13f;" horiz-adv-x="510" 
d="M80 700h91v-614h298v-86h-389v700zM293 341.5q-21 21.5 -21 51.5t21 51t51 21q31 0 52.5 -21t21.5 -51t-21.5 -51.5t-52.5 -21.5q-30 0 -51 21.5z" />
    <glyph glyph-name="Lslash" unicode="&#x141;" horiz-adv-x="498" 
d="M469 86v-86h-389v269l-56 -25v73l56 25v358h91v-318l162 72v-73l-162 -72v-223h298z" />
    <glyph glyph-name="Nacute" unicode="&#x143;" horiz-adv-x="659" 
d="M209 791l218 103l31 -59l-217 -104zM80 700h97l315 -548v548h87v-700h-96l-316 548v-548h-87v700z" />
    <glyph glyph-name="Ncaron" unicode="&#x147;" horiz-adv-x="659" 
d="M194 851l46 42l89 -81l90 81l45 -42l-135 -115zM80 700h97l315 -548v548h87v-700h-96l-316 548v-548h-87v700z" />
    <glyph glyph-name="Ncommaaccent" unicode="&#x145;" horiz-adv-x="659" 
d="M80 700h97l315 -548v548h87v-700h-96l-316 548v-548h-87v700zM286 -176q41 0 54 26q9 10 9 30q-2 -4 -7.5 -6.5t-12.5 -2.5q-24 0 -38.5 14t-14.5 35t14.5 35.5t36.5 14.5q28 0 45.5 -19.5t17.5 -51.5q0 -103 -104 -105v30z" />
    <glyph glyph-name="Ntilde" unicode="&#xd1;" horiz-adv-x="659" 
d="M364 746.5q-22 9.5 -49 27.5q-24 14 -37 20.5t-28 6.5q-21 0 -37.5 -9.5t-36.5 -36.5l-37 34q46 78 105 78q23 0 43.5 -9t46.5 -25q25 -14 40 -21t31 -7q23 0 41.5 10t38.5 38l36 -39q-40 -73 -110 -75q-25 -2 -47 7.5zM80 700h97l315 -548v548h87v-700h-96l-316 548
v-548h-87v700z" />
    <glyph glyph-name="Eng" unicode="&#x14a;" horiz-adv-x="659" 
d="M372 -208v82q23 -7 52 -7q33 0 48.5 18.5t15.5 59.5v55l-321 548v-548h-87v700h97l315 -545v545h87v-782q0 -66 -36.5 -101.5t-104.5 -35.5q-41 0 -66 11z" />
    <glyph glyph-name="Oacute" unicode="&#xd3;" horiz-adv-x="797" 
d="M278 791l218 103l31 -59l-217 -104zM208 33.5q-82 49.5 -126 133t-44 183.5t44 183.5t126 133t191 49.5t191 -49.5t126 -133t44 -183.5t-44 -183.5t-126 -133t-191 -49.5t-191 49.5zM541 104.5q60 38.5 92 103t31 142.5q1 78 -31 142.5t-92 103t-142 38.5t-142.5 -38.5
t-92.5 -103t-31 -142.5q-1 -78 31 -142.5t92.5 -103t142.5 -38.5t142 38.5z" />
    <glyph glyph-name="Obreve" unicode="&#x14e;" horiz-adv-x="797" 
d="M284 772q-47 38 -52 97h72q5 -36 31 -54t64 -18t64 18t31 54h72q-5 -59 -52 -97t-115 -38t-115 38zM208 33.5q-82 49.5 -126 133t-44 183.5t44 183.5t126 133t191 49.5t191 -49.5t126 -133t44 -183.5t-44 -183.5t-126 -133t-191 -49.5t-191 49.5zM541 104.5
q60 38.5 92 103t31 142.5q1 78 -31 142.5t-92 103t-142 38.5t-142.5 -38.5t-92.5 -103t-31 -142.5q-1 -78 31 -142.5t92.5 -103t142.5 -38.5t142 38.5z" />
    <glyph glyph-name="Ocircumflex" unicode="&#xd4;" horiz-adv-x="797" 
d="M532 777l-46 -42l-89 81l-90 -81l-45 42l135 115zM208 33.5q-82 49.5 -126 133t-44 183.5t44 183.5t126 133t191 49.5t191 -49.5t126 -133t44 -183.5t-44 -183.5t-126 -133t-191 -49.5t-191 49.5zM541 104.5q60 38.5 92 103t31 142.5q1 78 -31 142.5t-92 103t-142 38.5
t-142.5 -38.5t-92.5 -103t-31 -142.5q-1 -78 31 -142.5t92.5 -103t142.5 -38.5t142 38.5z" />
    <glyph glyph-name="Odieresis" unicode="&#xd6;" horiz-adv-x="797" 
d="M233 766.5q-19 19.5 -19 47.5t19 47.5t47 19.5t47.5 -19.5t19.5 -47.5t-19.5 -47.5t-47.5 -19.5t-47 19.5zM469.5 766.5q-19.5 19.5 -19.5 47.5t19.5 47.5t46.5 19.5q28 0 48 -19.5t20 -47.5t-20 -47.5t-48 -19.5q-27 0 -46.5 19.5zM208 33.5q-82 49.5 -126 133
t-44 183.5t44 183.5t126 133t191 49.5t191 -49.5t126 -133t44 -183.5t-44 -183.5t-126 -133t-191 -49.5t-191 49.5zM541 104.5q60 38.5 92 103t31 142.5q1 78 -31 142.5t-92 103t-142 38.5t-142.5 -38.5t-92.5 -103t-31 -142.5q-1 -78 31 -142.5t92.5 -103t142.5 -38.5
t142 38.5z" />
    <glyph glyph-name="OE" unicode="&#x152;" horiz-adv-x="879" 
d="M532 618v-229h280v-82h-280v-225h280v-82h-439q-101 0 -177 47.5t-117 127.5t-41 175t41 175t117 127.5t177 47.5h439v-82h-280zM441 82v536h-68q-74 0 -128.5 -36t-83 -97t-28.5 -135t28.5 -135t83 -97t128.5 -36h68z" />
    <glyph glyph-name="Ograve" unicode="&#xd2;" horiz-adv-x="797" 
d="M270 835l31 59l218 -103l-32 -60zM208 33.5q-82 49.5 -126 133t-44 183.5t44 183.5t126 133t191 49.5t191 -49.5t126 -133t44 -183.5t-44 -183.5t-126 -133t-191 -49.5t-191 49.5zM541 104.5q60 38.5 92 103t31 142.5q1 78 -31 142.5t-92 103t-142 38.5t-142.5 -38.5
t-92.5 -103t-31 -142.5q-1 -78 31 -142.5t92.5 -103t142.5 -38.5t142 38.5z" />
    <glyph glyph-name="Ohungarumlaut" unicode="&#x150;" horiz-adv-x="797" 
d="M262 756l127 132l78 -30l-156 -122zM441 756l127 132l77 -32l-156 -121zM208 33.5q-82 49.5 -126 133t-44 183.5t44 183.5t126 133t191 49.5t191 -49.5t126 -133t44 -183.5t-44 -183.5t-126 -133t-191 -49.5t-191 49.5zM541 104.5q60 38.5 92 103t31 142.5
q1 78 -31 142.5t-92 103t-142 38.5t-142.5 -38.5t-92.5 -103t-31 -142.5q-1 -78 31 -142.5t92.5 -103t142.5 -38.5t142 38.5z" />
    <glyph glyph-name="Omacron" unicode="&#x14c;" horiz-adv-x="797" 
d="M213 837h372v-69h-372v69zM208 33.5q-82 49.5 -126 133t-44 183.5t44 183.5t126 133t191 49.5t191 -49.5t126 -133t44 -183.5t-44 -183.5t-126 -133t-191 -49.5t-191 49.5zM541 104.5q60 38.5 92 103t31 142.5q1 78 -31 142.5t-92 103t-142 38.5t-142.5 -38.5t-92.5 -103
t-31 -142.5q-1 -78 31 -142.5t92.5 -103t142.5 -38.5t142 38.5z" />
    <glyph glyph-name="Oslash" unicode="&#xd8;" horiz-adv-x="797" 
d="M711.5 542q48.5 -87 48.5 -192q0 -100 -44 -183.5t-126 -133t-191 -49.5q-61 0 -112 15l-36 -83l-62 27l35 81q-88 46 -137 133t-49 193q0 100 44 183.5t126 133t191 49.5q59 0 115 -16l34 80l61 -27l-33 -78q87 -46 135.5 -133zM165 205.5q33 -65.5 93 -102.5l223 520
q-39 11 -82 11q-82 0 -142.5 -38.5t-92.5 -103t-31 -142.5q-1 -79 32 -144.5zM540.5 104q60.5 38 92 102.5t31.5 141.5q0 79 -31.5 144.5t-90.5 102.5l-222 -518q38 -11 79 -11q81 0 141.5 38z" />
    <glyph glyph-name="Oslashacute" unicode="&#x1fe;" horiz-adv-x="797" 
d="M313 731l-32 60l218 103l31 -59zM711.5 542q48.5 -87 48.5 -192q0 -100 -44 -183.5t-126 -133t-191 -49.5q-61 0 -112 15l-36 -83l-62 27l35 81q-88 46 -137 133t-49 193q0 100 44 183.5t126 133t191 49.5q59 0 115 -16l34 80l61 -27l-33 -78q87 -46 135.5 -133z
M165 205.5q33 -65.5 93 -102.5l223 520q-39 11 -82 11q-82 0 -142.5 -38.5t-92.5 -103t-31 -142.5q-1 -79 32 -144.5zM540.5 104q60.5 38 92 102.5t31.5 141.5q0 79 -31.5 144.5t-90.5 102.5l-222 -518q38 -11 79 -11q81 0 141.5 38z" />
    <glyph glyph-name="Otilde" unicode="&#xd5;" horiz-adv-x="797" 
d="M433 746.5q-22 9.5 -49 27.5q-24 14 -37 20.5t-28 6.5q-21 0 -37.5 -9.5t-36.5 -36.5l-37 34q46 78 105 78q23 0 43.5 -9t46.5 -25q25 -14 40 -21t31 -7q23 0 41.5 10t38.5 38l36 -39q-40 -73 -110 -75q-25 -2 -47 7.5zM208 33.5q-82 49.5 -126 133t-44 183.5t44 183.5
t126 133t191 49.5t191 -49.5t126 -133t44 -183.5t-44 -183.5t-126 -133t-191 -49.5t-191 49.5zM541 104.5q60 38.5 92 103t31 142.5q1 78 -31 142.5t-92 103t-142 38.5t-142.5 -38.5t-92.5 -103t-31 -142.5q-1 -78 31 -142.5t92.5 -103t142.5 -38.5t142 38.5z" />
    <glyph glyph-name="Racute" unicode="&#x154;" horiz-adv-x="606" 
d="M212 731l-32 60l218 103l31 -59zM525 315q-41 -61 -111 -85l142 -230h-104l-135 217h-146v-217h-91v700h251q68 0 121.5 -31t83.5 -86t30 -125q0 -82 -41 -143zM171 299h155q42 0 76 20.5t53.5 57t19.5 81.5q0 46 -19.5 82.5t-53.5 57t-76 20.5h-155v-319z" />
    <glyph glyph-name="Rcaron" unicode="&#x158;" horiz-adv-x="606" 
d="M300 736l-135 115l46 42l89 -81l90 81l45 -42zM525 315q-41 -61 -111 -85l142 -230h-104l-135 217h-146v-217h-91v700h251q68 0 121.5 -31t83.5 -86t30 -125q0 -82 -41 -143zM171 299h155q42 0 76 20.5t53.5 57t19.5 81.5q0 46 -19.5 82.5t-53.5 57t-76 20.5h-155v-319z
" />
    <glyph glyph-name="Rcommaaccent" unicode="&#x156;" horiz-adv-x="606" 
d="M525 315q-41 -61 -111 -85l142 -230h-104l-135 217h-146v-217h-91v700h251q68 0 121.5 -31t83.5 -86t30 -125q0 -82 -41 -143zM171 299h155q42 0 76 20.5t53.5 57t19.5 81.5q0 46 -19.5 82.5t-53.5 57t-76 20.5h-155v-319zM257 -176q41 0 54 26q9 10 9 30
q-2 -4 -7.5 -6.5t-12.5 -2.5q-24 0 -38.5 14t-14.5 35t14.5 35.5t36.5 14.5q28 0 45.5 -19.5t17.5 -51.5q0 -103 -104 -105v30z" />
    <glyph glyph-name="Sacute" unicode="&#x15a;" horiz-adv-x="557" 
d="M157 791l218 103l31 -59l-217 -104zM102 47q-67 63 -67 176h91q0 -74 43 -116.5t118 -42.5q66 0 102 30t36 85q0 46 -25.5 74.5t-86.5 49.5l-116 41q-141 45 -141 184q0 55 28 98t78 66.5t114 23.5q103 0 165 -58t62 -156h-91q0 65 -36 100.5t-103 35.5q-58 0 -92 -28.5
t-34 -76.5q0 -44 29.5 -73.5t94.5 -51.5l108 -38q137 -47 137 -188q0 -90 -62 -144t-166 -54q-119 0 -186 63z" />
    <glyph glyph-name="Scaron" unicode="&#x160;" horiz-adv-x="557" 
d="M142 851l46 42l89 -81l90 81l45 -42l-135 -115zM102 47q-67 63 -67 176h91q0 -74 43 -116.5t118 -42.5q66 0 102 30t36 85q0 46 -25.5 74.5t-86.5 49.5l-116 41q-141 45 -141 184q0 55 28 98t78 66.5t114 23.5q103 0 165 -58t62 -156h-91q0 65 -36 100.5t-103 35.5
q-58 0 -92 -28.5t-34 -76.5q0 -44 29.5 -73.5t94.5 -51.5l108 -38q137 -47 137 -188q0 -90 -62 -144t-166 -54q-119 0 -186 63z" />
    <glyph glyph-name="Scedilla" unicode="&#x15e;" horiz-adv-x="557" 
d="M102 47q-67 63 -67 176h91q0 -74 43 -116.5t118 -42.5q66 0 102 30t36 85q0 46 -25.5 74.5t-86.5 49.5l-116 41q-141 45 -141 184q0 55 28 98t78 66.5t114 23.5q103 0 165 -58t62 -156h-91q0 65 -36 100.5t-103 35.5q-58 0 -92 -28.5t-34 -76.5q0 -44 29.5 -73.5
t94.5 -51.5l108 -38q137 -47 137 -188q0 -90 -62 -144t-166 -54q-119 0 -186 63zM275 -196.5q-23 18.5 -26 52.5h46q1 -14 12 -23t27 -9q20 0 31.5 12t11.5 35q0 22 -10.5 34t-30.5 12q-26 0 -39 -20h-40v103h47v-63q6 7 18.5 11t27.5 4q32 0 53.5 -21.5t21.5 -58.5
q0 -38 -23.5 -62.5t-66.5 -24.5q-37 0 -60 18.5z" />
    <glyph glyph-name="Scircumflex" unicode="&#x15c;" horiz-adv-x="557" 
d="M411 777l-46 -42l-89 81l-90 -81l-45 42l135 115zM102 47q-67 63 -67 176h91q0 -74 43 -116.5t118 -42.5q66 0 102 30t36 85q0 46 -25.5 74.5t-86.5 49.5l-116 41q-141 45 -141 184q0 55 28 98t78 66.5t114 23.5q103 0 165 -58t62 -156h-91q0 65 -36 100.5t-103 35.5
q-58 0 -92 -28.5t-34 -76.5q0 -44 29.5 -73.5t94.5 -51.5l108 -38q137 -47 137 -188q0 -90 -62 -144t-166 -54q-119 0 -186 63z" />
    <glyph glyph-name="Scommaaccent" unicode="&#x218;" horiz-adv-x="557" 
d="M102 47q-67 63 -67 176h91q0 -74 43 -116.5t118 -42.5q66 0 102 30t36 85q0 46 -25.5 74.5t-86.5 49.5l-116 41q-141 45 -141 184q0 55 28 98t78 66.5t114 23.5q103 0 165 -58t62 -156h-91q0 65 -36 100.5t-103 35.5q-58 0 -92 -28.5t-34 -76.5q0 -44 29.5 -73.5
t94.5 -51.5l108 -38q137 -47 137 -188q0 -90 -62 -144t-166 -54q-119 0 -186 63zM237 -176q41 0 54 26q9 10 9 30q-2 -4 -7.5 -6.5t-12.5 -2.5q-24 0 -38.5 14t-14.5 35t14.5 35.5t36.5 14.5q28 0 45.5 -19.5t17.5 -51.5q0 -103 -104 -105v30z" />
    <glyph glyph-name="Tbar" unicode="&#x166;" horiz-adv-x="521" 
d="M306 614v-158h145v-66h-145v-390h-91v390h-144v66h144v158h-209v86h509v-86h-209z" />
    <glyph glyph-name="Tcaron" unicode="&#x164;" horiz-adv-x="521" 
d="M125 851l46 42l89 -81l90 81l45 -42l-135 -115zM215 614h-209v86h509v-86h-209v-614h-91v614z" />
    <glyph glyph-name="uni0162" unicode="&#x162;" horiz-adv-x="521" 
d="M215 614h-209v86h509v-86h-209v-614h-91v614zM254 -196.5q-23 18.5 -26 52.5h46q1 -14 12 -23t27 -9q20 0 31.5 12t11.5 35q0 22 -10.5 34t-30.5 12q-26 0 -39 -20h-40v103h47v-63q6 7 18.5 11t27.5 4q32 0 53.5 -21.5t21.5 -58.5q0 -38 -23.5 -62.5t-66.5 -24.5
q-37 0 -60 18.5z" />
    <glyph glyph-name="uni021A" unicode="&#x21a;" horiz-adv-x="521" 
d="M215 614h-209v86h509v-86h-209v-614h-91v614zM216 -176q41 0 54 26q9 10 9 30q-2 -4 -7.5 -6.5t-12.5 -2.5q-24 0 -38.5 14t-14.5 35t14.5 35.5t36.5 14.5q28 0 45.5 -19.5t17.5 -51.5q0 -103 -104 -105v30z" />
    <glyph glyph-name="Thorn" unicode="&#xde;" horiz-adv-x="581" 
d="M456.5 556q53.5 -32 82 -86.5t28.5 -119.5t-28.5 -119t-82 -86.5t-124.5 -32.5h-161v-112h-91v700h91v-112h161q71 0 124.5 -32zM404.5 215q34.5 21 53 56.5t18.5 78.5t-18.5 78.5t-53 56.5t-78.5 21h-155v-312h155q44 0 78.5 21z" />
    <glyph glyph-name="Uacute" unicode="&#xda;" horiz-adv-x="635" 
d="M196 791l218 103l31 -59l-217 -104zM131 48q-68 64 -68 182v470h91v-465q0 -82 43.5 -125.5t119.5 -43.5t120 43.5t44 125.5v465h91v-470q0 -118 -68.5 -182t-186.5 -64t-186 64z" />
    <glyph glyph-name="Ubreve" unicode="&#x16c;" horiz-adv-x="635" 
d="M202 772q-47 38 -52 97h72q5 -36 31 -54t64 -18t64 18t31 54h72q-5 -59 -52 -97t-115 -38t-115 38zM131 48q-68 64 -68 182v470h91v-465q0 -82 43.5 -125.5t119.5 -43.5t120 43.5t44 125.5v465h91v-470q0 -118 -68.5 -182t-186.5 -64t-186 64z" />
    <glyph glyph-name="Ucircumflex" unicode="&#xdb;" horiz-adv-x="635" 
d="M450 777l-46 -42l-89 81l-90 -81l-45 42l135 115zM131 48q-68 64 -68 182v470h91v-465q0 -82 43.5 -125.5t119.5 -43.5t120 43.5t44 125.5v465h91v-470q0 -118 -68.5 -182t-186.5 -64t-186 64z" />
    <glyph glyph-name="Udieresis" unicode="&#xdc;" horiz-adv-x="635" 
d="M151 766.5q-19 19.5 -19 47.5t19 47.5t47 19.5t47.5 -19.5t19.5 -47.5t-19.5 -47.5t-47.5 -19.5t-47 19.5zM387.5 766.5q-19.5 19.5 -19.5 47.5t19.5 47.5t46.5 19.5q28 0 48 -19.5t20 -47.5t-20 -47.5t-48 -19.5q-27 0 -46.5 19.5zM131 48q-68 64 -68 182v470h91v-465
q0 -82 43.5 -125.5t119.5 -43.5t120 43.5t44 125.5v465h91v-470q0 -118 -68.5 -182t-186.5 -64t-186 64z" />
    <glyph glyph-name="Ugrave" unicode="&#xd9;" horiz-adv-x="635" 
d="M188 835l31 59l218 -103l-32 -60zM131 48q-68 64 -68 182v470h91v-465q0 -82 43.5 -125.5t119.5 -43.5t120 43.5t44 125.5v465h91v-470q0 -118 -68.5 -182t-186.5 -64t-186 64z" />
    <glyph glyph-name="Uhungarumlaut" unicode="&#x170;" horiz-adv-x="635" 
d="M180 756l127 132l78 -30l-156 -122zM359 756l127 132l77 -32l-156 -121zM131 48q-68 64 -68 182v470h91v-465q0 -82 43.5 -125.5t119.5 -43.5t120 43.5t44 125.5v465h91v-470q0 -118 -68.5 -182t-186.5 -64t-186 64z" />
    <glyph glyph-name="Umacron" unicode="&#x16a;" horiz-adv-x="635" 
d="M131 837h372v-69h-372v69zM131 48q-68 64 -68 182v470h91v-465q0 -82 43.5 -125.5t119.5 -43.5t120 43.5t44 125.5v465h91v-470q0 -118 -68.5 -182t-186.5 -64t-186 64z" />
    <glyph glyph-name="Uogonek" unicode="&#x172;" horiz-adv-x="635" 
d="M131 48q-68 64 -68 182v470h91v-465q0 -82 43.5 -125.5t119.5 -43.5t120 43.5t44 125.5v465h91v-470q0 -118 -68.5 -182t-186.5 -64t-186 64zM280.5 -184q-31.5 28 -31.5 70q0 33 21.5 62t63.5 52h86q-48 -10 -70 -34.5t-22 -53.5q0 -26 16.5 -42t44.5 -16q29 0 56 13
v-64q-39 -15 -80 -15q-53 0 -84.5 28z" />
    <glyph glyph-name="Uring" unicode="&#x16e;" horiz-adv-x="635" 
d="M254 672.5q-29 16.5 -46 44.5t-17 61t17 60.5t46 44t63 16.5t63 -16.5t46 -44t17 -60.5t-17 -61t-46 -44.5t-63 -16.5t-63 16.5zM366 729q20 20 20 49t-20 48.5t-49 19.5t-49 -19.5t-20 -48.5t20 -49t49 -20t49 20zM131 48q-68 64 -68 182v470h91v-465q0 -82 43.5 -125.5
t119.5 -43.5t120 43.5t44 125.5v465h91v-470q0 -118 -68.5 -182t-186.5 -64t-186 64z" />
    <glyph glyph-name="Utilde" unicode="&#x168;" horiz-adv-x="635" 
d="M351 746.5q-22 9.5 -49 27.5q-24 14 -37 20.5t-28 6.5q-21 0 -37.5 -9.5t-36.5 -36.5l-37 34q46 78 105 78q23 0 43.5 -9t46.5 -25q25 -14 40 -21t31 -7q23 0 41.5 10t38.5 38l36 -39q-40 -73 -110 -75q-25 -2 -47 7.5zM131 48q-68 64 -68 182v470h91v-465
q0 -82 43.5 -125.5t119.5 -43.5t120 43.5t44 125.5v465h91v-470q0 -118 -68.5 -182t-186.5 -64t-186 64z" />
    <glyph glyph-name="Wacute" unicode="&#x1e82;" horiz-adv-x="958" 
d="M358 791l218 103l31 -59l-217 -104zM3 700h95l180 -550l167 550h68l167 -550l180 550h95l-239 -700h-67l-170 542l-170 -542h-67z" />
    <glyph glyph-name="Wcircumflex" unicode="&#x174;" horiz-adv-x="958" 
d="M612 777l-46 -42l-89 81l-90 -81l-45 42l135 115zM3 700h95l180 -550l167 550h68l167 -550l180 550h95l-239 -700h-67l-170 542l-170 -542h-67z" />
    <glyph glyph-name="Wdieresis" unicode="&#x1e84;" horiz-adv-x="958" 
d="M313 766.5q-19 19.5 -19 47.5t19 47.5t47 19.5t47.5 -19.5t19.5 -47.5t-19.5 -47.5t-47.5 -19.5t-47 19.5zM549.5 766.5q-19.5 19.5 -19.5 47.5t19.5 47.5t46.5 19.5q28 0 48 -19.5t20 -47.5t-20 -47.5t-48 -19.5q-27 0 -46.5 19.5zM3 700h95l180 -550l167 550h68
l167 -550l180 550h95l-239 -700h-67l-170 542l-170 -542h-67z" />
    <glyph glyph-name="Wgrave" unicode="&#x1e80;" horiz-adv-x="958" 
d="M350 835l31 59l218 -103l-32 -60zM3 700h95l180 -550l167 550h68l167 -550l180 550h95l-239 -700h-67l-170 542l-170 -542h-67z" />
    <glyph glyph-name="Yacute" unicode="&#xdd;" horiz-adv-x="551" 
d="M199 731l-32 60l218 103l31 -59zM566 700l-352 -700h-100l141 278l-265 422h106l205 -328l166 328h99z" />
    <glyph glyph-name="Ycircumflex" unicode="&#x176;" horiz-adv-x="551" 
d="M196 735l-45 42l135 115l135 -115l-46 -42l-89 81zM566 700l-352 -700h-100l141 278l-265 422h106l205 -328l166 328h99z" />
    <glyph glyph-name="Ydieresis" unicode="&#x178;" horiz-adv-x="551" 
d="M122 766.5q-19 19.5 -19 47.5t19 47.5t47 19.5t47.5 -19.5t19.5 -47.5t-19.5 -47.5t-47.5 -19.5t-47 19.5zM358.5 766.5q-19.5 19.5 -19.5 47.5t19.5 47.5t46.5 19.5q28 0 48 -19.5t20 -47.5t-20 -47.5t-48 -19.5q-27 0 -46.5 19.5zM566 700l-352 -700h-100l141 278
l-265 422h106l205 -328l166 328h99z" />
    <glyph glyph-name="Ygrave" unicode="&#x1ef2;" horiz-adv-x="551" 
d="M376 731l-217 104l31 59l218 -103zM566 700l-352 -700h-100l141 278l-265 422h106l205 -328l166 328h99z" />
    <glyph glyph-name="Zacute" unicode="&#x179;" horiz-adv-x="573" 
d="M179 791l218 103l31 -59l-217 -104zM389 618h-329v82h480l-363 -618h359v-82h-513z" />
    <glyph glyph-name="Zcaron" unicode="&#x17d;" horiz-adv-x="573" 
d="M164 851l46 42l89 -81l90 81l45 -42l-135 -115zM389 618h-329v82h480l-363 -618h359v-82h-513z" />
    <glyph glyph-name="Zdotaccent" unicode="&#x17b;" horiz-adv-x="573" 
d="M251.5 763.5q-18.5 19.5 -18.5 48.5q0 28 19 47.5t48 19.5t48 -19.5t19 -47.5q0 -29 -18.5 -48.5t-48.5 -19.5t-48.5 19.5zM389 618h-329v82h480l-363 -618h359v-82h-513z" />
    <glyph glyph-name="a" unicode="a" horiz-adv-x="591" 
d="M143 19.5q-52 31.5 -78.5 86.5t-26.5 124q0 68 28 123.5t80 87.5t122 32q54 0 97 -25.5t65 -68.5v82h86v-461h-86v81q-22 -42 -67 -67.5t-97 -25.5q-71 0 -123 31.5zM392.5 113q41.5 47 41.5 117t-41.5 117.5t-114.5 47.5q-70 0 -112 -46.5t-42 -118.5t42 -118t112 -46
q73 0 114.5 47z" />
    <glyph glyph-name="b" unicode="b" horiz-adv-x="591" 
d="M447 442.5q51 -30.5 79 -86t28 -126.5q0 -70 -29 -125t-81 -86t-118 -31q-53 0 -98 25t-67 68v-81h-86v700h86v-321q22 43 68 68.5t102 25.5q65 0 116 -30.5zM424 112q43 46 43 118q0 47 -19.5 85t-54.5 59t-79 21q-69 0 -113 -46t-44 -119q0 -72 44 -118t113 -46
q67 0 110 46z" />
    <glyph glyph-name="c" unicode="c" horiz-adv-x="519" 
d="M145 19.5q-52 30.5 -79.5 85t-27.5 125.5t28 126t79.5 85.5t121.5 30.5q92 0 149.5 -46.5t65.5 -124.5h-87q-9 46 -41.5 69.5t-87.5 23.5q-66 0 -104 -43.5t-38 -120.5q0 -76 38 -120t104 -44q54 0 87 23t42 67h87q-8 -77 -65.5 -122t-149.5 -45q-70 0 -122 30.5z" />
    <glyph glyph-name="d" unicode="d" horiz-adv-x="591" 
d="M516 700v-700h-86v81q-22 -42 -67 -67.5t-97 -25.5q-71 0 -123 31.5t-78.5 86.5t-26.5 124q0 68 28 123.5t80 87.5t122 32q54 0 97 -25.5t65 -68.5v321h86zM392.5 113q41.5 47 41.5 117t-41.5 117.5t-114.5 47.5q-70 0 -112 -46.5t-42 -118.5t42 -118t112 -46
q73 0 114.5 47z" />
    <glyph glyph-name="e" unicode="e" horiz-adv-x="521" 
d="M481 205h-357q1 -66 40 -103.5t105 -37.5q46 0 77 17.5t45 50.5h87q-12 -64 -70 -104t-139 -40q-106 0 -168.5 65.5t-62.5 177.5q0 72 28 127t79.5 85t119.5 30q64 0 113.5 -27.5t77 -77t27.5 -112.5q0 -29 -2 -51zM398 272q0 61 -35.5 96t-98.5 35q-62 0 -99.5 -36
t-40.5 -95h274z" />
    <glyph glyph-name="f" unicode="f" horiz-adv-x="351" 
d="M229 611.5q-23 -16.5 -23 -68.5v-82h130v-73h-130v-388h-87v388h-98v73h98v80q0 95 46 130t101 35q42 0 70 -11v-74q-26 7 -48 7q-36 0 -59 -16.5z" />
    <glyph glyph-name="g" unicode="g" horiz-adv-x="591" 
d="M516 460v-448q0 -132 -80 -194q-58 -43 -159 -43q-48 0 -90.5 11.5t-73.5 33.5t-49 53.5t-19 68.5h91q5 -42 40.5 -68t99.5 -26q76 0 115 38.5t39 119.5v75q-21 -43 -67 -68t-97 -25q-69 0 -120.5 32t-79.5 87t-28 123t29 123.5t81.5 87.5t119.5 32q54 0 97 -25t65 -69
v81h86zM360.5 88q35.5 22 54.5 59.5t19 82.5q0 46 -19 83.5t-54.5 59.5t-82.5 22q-68 0 -111 -46.5t-43 -118.5q0 -71 43 -117.5t111 -46.5q47 0 82.5 22z" />
    <glyph glyph-name="h" unicode="h" horiz-adv-x="566" 
d="M452.5 425q43.5 -48 43.5 -141v-284h-87v246q0 78 -27.5 115t-88.5 37q-63 0 -96.5 -41.5t-33.5 -112.5v-244h-87v700h87v-324q19 45 60.5 71t100.5 26q85 0 128.5 -48z" />
    <glyph glyph-name="i" unicode="i" horiz-adv-x="236" 
d="M75 461h86v-461h-86v461zM67 560q-20 20 -20 50t20 50.5t51 20.5q30 0 50 -20.5t20 -50.5t-20 -50t-50 -20q-31 0 -51 20z" />
    <glyph glyph-name="j" unicode="j" horiz-adv-x="240" 
d="M-20 -208v79q19 -7 47 -7q51 0 51 62v535h87v-559q0 -58 -31.5 -89.5t-89.5 -31.5q-43 0 -64 11zM71 560q-20 20 -20 50t20 50.5t51 20.5q30 0 50 -20.5t20 -50.5t-20 -50t-50 -20q-31 0 -51 20z" />
    <glyph glyph-name="k" unicode="k" horiz-adv-x="505" 
d="M254 238l223 -238h-114l-202 218v-218h-86v700h86v-451l205 212h111z" />
    <glyph glyph-name="l" unicode="l" horiz-adv-x="237" 
d="M75 700h87v-700h-87v700z" />
    <glyph glyph-name="m" unicode="m" horiz-adv-x="832" 
d="M75 461h87v-84q14 41 50 68.5t88 27.5q59 0 96.5 -26t50.5 -73q16 43 56.5 71t92.5 28q88 0 127 -49t39 -132v-292h-87v275q0 123 -100 123q-53 0 -83 -38.5t-30 -119.5v-240h-87v268q0 130 -99 130q-55 0 -84.5 -39.5t-29.5 -118.5v-240h-87v461z" />
    <glyph glyph-name="n" unicode="n" horiz-adv-x="564" 
d="M75 461h87v-85q19 45 60.5 71t100.5 26q84 0 127.5 -48t43.5 -141v-284h-86v246q0 78 -27.5 115t-88.5 37q-63 0 -96.5 -41.5t-33.5 -112.5v-244h-87v461z" />
    <glyph glyph-name="o" unicode="o" horiz-adv-x="555" 
d="M150.5 20q-54.5 32 -83.5 87.5t-29 122.5q0 68 29 123.5t83.5 87.5t127.5 32t127.5 -32t83.5 -87.5t29 -123.5q0 -67 -29.5 -122.5t-83.5 -87.5t-127 -32t-127.5 32zM390 112.5q41 46.5 41 117.5q0 72 -41 118.5t-112 46.5t-112.5 -46.5t-41.5 -118.5q0 -71 41.5 -117.5
t112.5 -46.5t112 46.5z" />
    <glyph glyph-name="p" unicode="p" horiz-adv-x="591" 
d="M447 442.5q51 -30.5 79 -86t28 -126.5q0 -70 -29 -125t-81 -86t-118 -31q-53 0 -98 25t-67 68v-294h-86v674h86v-82q22 43 68 68.5t102 25.5q65 0 116 -30.5zM424 112q43 46 43 118q0 47 -19.5 85t-54.5 59t-79 21q-69 0 -113 -46t-44 -119q0 -72 44 -118t113 -46
q67 0 110 46z" />
    <glyph glyph-name="q" unicode="q" horiz-adv-x="591" 
d="M516 461v-674h-86v294q-22 -42 -67 -67.5t-97 -25.5q-71 0 -123 31.5t-78.5 86.5t-26.5 124q0 68 28 123.5t80 87.5t122 32q54 0 97 -25.5t65 -68.5v82h86zM392.5 113q41.5 47 41.5 117t-41.5 117.5t-114.5 47.5q-70 0 -112 -46.5t-42 -118.5t42 -118t112 -46
q73 0 114.5 47z" />
    <glyph glyph-name="r" unicode="r" horiz-adv-x="360" 
d="M75 461h87v-105q13 55 50.5 83.5t84.5 28.5q27 0 42 -4v-80q-15 3 -43 3q-65 0 -99.5 -52t-34.5 -134v-201h-87v461z" />
    <glyph glyph-name="s" unicode="s" horiz-adv-x="449" 
d="M128.5 8q-43.5 20 -67 54.5t-23.5 75.5h86q0 -35 30 -57.5t79 -22.5q39 0 62.5 17.5t23.5 48.5q0 22 -11 38.5t-34 22.5l-123 32q-50 14 -74.5 46.5t-24.5 77.5q0 38 22 68t61 47t89 17q85 0 131 -38t46 -101h-85q0 33 -25 52.5t-70 19.5q-36 0 -59.5 -16.5t-23.5 -44.5
q0 -46 51 -60l115 -31q49 -13 76 -46t27 -75q0 -67 -47.5 -106t-130.5 -39q-57 0 -100.5 20z" />
    <glyph glyph-name="t" unicode="t" horiz-adv-x="356" 
d="M298 73.5q16 1.5 28 4.5v-77q-30 -7 -78 -7q-59 0 -100 30.5t-41 128.5v235h-83v73h83v146h87v-146h116v-73h-116v-216q0 -61 18 -80.5t56 -19.5q14 0 30 1.5z" />
    <glyph glyph-name="u" unicode="u" horiz-adv-x="562" 
d="M117.5 36.5q-47.5 48.5 -47.5 140.5v284h87v-264q0 -134 112 -134q66 0 98.5 42t32.5 104v252h87v-461h-87v84q-19 -44 -59.5 -70t-95.5 -26q-80 0 -127.5 48.5z" />
    <glyph glyph-name="v" unicode="v" horiz-adv-x="482" 
d="M3 461h93l145 -345l146 345h93l-203 -461h-71z" />
    <glyph glyph-name="w" unicode="w" horiz-adv-x="745" 
d="M8 461h95l110 -337l113 337h93l112 -337l111 337h95l-170 -461h-74l-121 354l-121 -354h-73z" />
    <glyph glyph-name="x" unicode="x" horiz-adv-x="477" 
d="M188 232l-171 229h107l114 -165l115 165h107l-171 -229l173 -232h-107l-117 169l-116 -169h-107z" />
    <glyph glyph-name="y" unicode="y" horiz-adv-x="567" 
d="M491 461v-470q0 -109 -62 -166q-58 -50 -151 -50q-100 0 -156 48q-51 43 -52 119h87q3 -45 31 -69.5t89 -24.5t94.5 36.5t33.5 112.5v86q-21 -44 -62 -69t-98 -25q-87 0 -131 53t-44 144v275h86v-257q0 -66 26.5 -102t91.5 -36q63 0 97 45.5t34 112.5v237h86z" />
    <glyph glyph-name="z" unicode="z" horiz-adv-x="440" 
d="M283 387h-251v74h397l-272 -388h259v-73h-403z" />
    <glyph glyph-name="aacute" unicode="&#xe1;" horiz-adv-x="591" 
d="M143 19.5q-52 31.5 -78.5 86.5t-26.5 124q0 68 28 123.5t80 87.5t122 32q54 0 97 -25.5t65 -68.5v82h86v-461h-86v81q-22 -42 -67 -67.5t-97 -25.5q-71 0 -123 31.5zM392.5 113q41.5 47 41.5 117t-41.5 117.5t-114.5 47.5q-70 0 -112 -46.5t-42 -118.5t42 -118t112 -46
q73 0 114.5 47zM121 573l274 115l29 -65l-274 -117z" />
    <glyph glyph-name="abreve" unicode="&#x103;" horiz-adv-x="591" 
d="M143 19.5q-52 31.5 -78.5 86.5t-26.5 124q0 68 28 123.5t80 87.5t122 32q54 0 97 -25.5t65 -68.5v82h86v-461h-86v81q-22 -42 -67 -67.5t-97 -25.5q-71 0 -123 31.5zM392.5 113q41.5 47 41.5 117t-41.5 117.5t-114.5 47.5q-70 0 -112 -46.5t-42 -118.5t42 -118t112 -46
q73 0 114.5 47zM157.5 548q-47.5 40 -51.5 110h74q3 -42 30.5 -64t69.5 -22q43 0 70.5 22t30.5 64h74q-5 -70 -52.5 -110t-122.5 -40t-122.5 40z" />
    <glyph glyph-name="acircumflex" unicode="&#xe2;" horiz-adv-x="591" 
d="M143 19.5q-52 31.5 -78.5 86.5t-26.5 124q0 68 28 123.5t80 87.5t122 32q54 0 97 -25.5t65 -68.5v82h86v-461h-86v81q-22 -42 -67 -67.5t-97 -25.5q-71 0 -123 31.5zM392.5 113q41.5 47 41.5 117t-41.5 117.5t-114.5 47.5q-70 0 -112 -46.5t-42 -118.5t42 -118t112 -46
q73 0 114.5 47zM456 552l-47 -52l-129 112l-127 -111l-47 51l174 146z" />
    <glyph glyph-name="adieresis" unicode="&#xe4;" horiz-adv-x="591" 
d="M143 19.5q-52 31.5 -78.5 86.5t-26.5 124q0 68 28 123.5t80 87.5t122 32q54 0 97 -25.5t65 -68.5v82h86v-461h-86v81q-22 -42 -67 -67.5t-97 -25.5q-71 0 -123 31.5zM392.5 113q41.5 47 41.5 117t-41.5 117.5t-114.5 47.5q-70 0 -112 -46.5t-42 -118.5t42 -118t112 -46
q73 0 114.5 47zM132.5 558.5q-19.5 19.5 -19.5 47.5t19.5 47.5t47.5 19.5t47.5 -19.5t19.5 -47.5t-19.5 -47.5t-47.5 -19.5t-47.5 19.5zM332.5 558.5q-19.5 19.5 -19.5 47.5t19.5 47.5t47.5 19.5t47.5 -19.5t19.5 -47.5t-19.5 -47.5t-47.5 -19.5t-47.5 19.5z" />
    <glyph glyph-name="ae" unicode="&#xe6;" horiz-adv-x="871" 
d="M831 203h-358q1 -66 40.5 -103t106.5 -37q91 0 120 74h88q-12 -67 -70 -108.5t-138 -41.5q-63 0 -112.5 26.5t-78.5 74.5q-63 -100 -203 -100q-82 0 -132.5 36.5t-50.5 97.5q0 76 54 112q29 21 70.5 28t120.5 7h105v40q0 42 -29.5 68t-93.5 26q-59 0 -90 -24.5t-34 -68.5
h-87q4 74 62.5 118.5t150.5 44.5q66 0 109.5 -20.5t66.5 -56.5q30 36 73.5 55.5t94.5 19.5q63 0 112.5 -27.5t77 -76.5t27.5 -112q0 -29 -2 -52zM748 270q0 61 -35.5 97t-96.5 36q-62 0 -101.5 -36.5t-41.5 -96.5h275zM393 203h-137q-65 0 -95.5 -20t-30.5 -54
q0 -36 29.5 -54t83.5 -18q61 0 105.5 32.5t44.5 93.5v20z" />
    <glyph glyph-name="aeacute" unicode="&#x1fd;" horiz-adv-x="871" 
d="M831 203h-358q1 -66 40.5 -103t106.5 -37q91 0 120 74h88q-12 -67 -70 -108.5t-138 -41.5q-63 0 -112.5 26.5t-78.5 74.5q-63 -100 -203 -100q-82 0 -132.5 36.5t-50.5 97.5q0 76 54 112q29 21 70.5 28t120.5 7h105v40q0 42 -29.5 68t-93.5 26q-59 0 -90 -24.5t-34 -68.5
h-87q4 74 62.5 118.5t150.5 44.5q66 0 109.5 -20.5t66.5 -56.5q30 36 73.5 55.5t94.5 19.5q63 0 112.5 -27.5t77 -76.5t27.5 -112q0 -29 -2 -52zM748 270q0 61 -35.5 97t-96.5 36q-62 0 -101.5 -36.5t-41.5 -96.5h275zM393 203h-137q-65 0 -95.5 -20t-30.5 -54
q0 -36 29.5 -54t83.5 -18q61 0 105.5 32.5t44.5 93.5v20zM285 573l274 115l29 -65l-274 -117z" />
    <glyph glyph-name="agrave" unicode="&#xe0;" horiz-adv-x="591" 
d="M143 19.5q-52 31.5 -78.5 86.5t-26.5 124q0 68 28 123.5t80 87.5t122 32q54 0 97 -25.5t65 -68.5v82h86v-461h-86v81q-22 -42 -67 -67.5t-97 -25.5q-71 0 -123 31.5zM392.5 113q41.5 47 41.5 117t-41.5 117.5t-114.5 47.5q-70 0 -112 -46.5t-42 -118.5t42 -118t112 -46
q73 0 114.5 47zM121 623l29 65l274 -115l-29 -67z" />
    <glyph glyph-name="amacron" unicode="&#x101;" horiz-adv-x="591" 
d="M143 19.5q-52 31.5 -78.5 86.5t-26.5 124q0 68 28 123.5t80 87.5t122 32q54 0 97 -25.5t65 -68.5v82h86v-461h-86v81q-22 -42 -67 -67.5t-97 -25.5q-71 0 -123 31.5zM392.5 113q41.5 47 41.5 117t-41.5 117.5t-114.5 47.5q-70 0 -112 -46.5t-42 -118.5t42 -118t112 -46
q73 0 114.5 47zM121 625h318v-70h-318v70z" />
    <glyph glyph-name="aogonek" unicode="&#x105;" horiz-adv-x="591" 
d="M143 19.5q-52 31.5 -78.5 86.5t-26.5 124q0 68 28 123.5t80 87.5t122 32q54 0 97 -25.5t65 -68.5v82h86v-461h-86v81q-22 -42 -67 -67.5t-97 -25.5q-71 0 -123 31.5zM392.5 113q41.5 47 41.5 117t-41.5 117.5t-114.5 47.5q-70 0 -112 -46.5t-42 -118.5t42 -118t112 -46
q73 0 114.5 47zM376.5 -184q-31.5 28 -31.5 70q0 33 21.5 62t63.5 52h86q-48 -10 -70 -34.5t-22 -53.5q0 -26 16.5 -42t44.5 -16q29 0 56 13v-64q-39 -15 -80 -15q-53 0 -84.5 28z" />
    <glyph glyph-name="aring" unicode="&#xe5;" horiz-adv-x="591" 
d="M143 19.5q-52 31.5 -78.5 86.5t-26.5 124q0 68 28 123.5t80 87.5t122 32q54 0 97 -25.5t65 -68.5v82h86v-461h-86v81q-22 -42 -67 -67.5t-97 -25.5q-71 0 -123 31.5zM392.5 113q41.5 47 41.5 117t-41.5 117.5t-114.5 47.5q-70 0 -112 -46.5t-42 -118.5t42 -118t112 -46
q73 0 114.5 47zM201 531q-32 31 -32 78t32 78t79 31t79 -31t32 -78t-32 -78t-79 -31t-79 31zM323.5 563q17.5 18 17.5 46t-17.5 46t-43.5 18t-43.5 -18t-17.5 -46t17.5 -46t43.5 -18t43.5 18z" />
    <glyph glyph-name="atilde" unicode="&#xe3;" horiz-adv-x="591" 
d="M143 19.5q-52 31.5 -78.5 86.5t-26.5 124q0 68 28 123.5t80 87.5t122 32q54 0 97 -25.5t65 -68.5v82h86v-461h-86v81q-22 -42 -67 -67.5t-97 -25.5q-71 0 -123 31.5zM392.5 113q41.5 47 41.5 117t-41.5 117.5t-114.5 47.5q-70 0 -112 -46.5t-42 -118.5t42 -118t112 -46
q73 0 114.5 47zM318 539q-17 8 -42 23q-23 14 -36.5 20t-27.5 6q-18 0 -35 -9t-36 -33l-33 46q40 67 99 67q19 0 36.5 -7.5t40.5 -22.5q25 -14 38 -20t28 -6q19 0 35.5 9.5t33.5 31.5l33 -46q-38 -67 -97 -67q-20 0 -37 8z" />
    <glyph glyph-name="cacute" unicode="&#x107;" horiz-adv-x="519" 
d="M145 19.5q-52 30.5 -79.5 85t-27.5 125.5t28 126t79.5 85.5t121.5 30.5q92 0 149.5 -46.5t65.5 -124.5h-87q-9 46 -41.5 69.5t-87.5 23.5q-66 0 -104 -43.5t-38 -120.5q0 -76 38 -120t104 -44q54 0 87 23t42 67h87q-8 -77 -65.5 -122t-149.5 -45q-70 0 -122 30.5z
M106 573l274 115l29 -65l-274 -117z" />
    <glyph glyph-name="ccaron" unicode="&#x10d;" horiz-adv-x="519" 
d="M145 19.5q-52 30.5 -79.5 85t-27.5 125.5t28 126t79.5 85.5t121.5 30.5q92 0 149.5 -46.5t65.5 -124.5h-87q-9 46 -41.5 69.5t-87.5 23.5q-66 0 -104 -43.5t-38 -120.5q0 -76 38 -120t104 -44q54 0 87 23t42 67h87q-8 -77 -65.5 -122t-149.5 -45q-70 0 -122 30.5zM90 648
l47 51l127 -111l129 112l47 -52l-176 -146z" />
    <glyph glyph-name="ccedilla" unicode="&#xe7;" horiz-adv-x="519" 
d="M145 19.5q-52 30.5 -79.5 85t-27.5 125.5t28 126t79.5 85.5t121.5 30.5q92 0 149.5 -46.5t65.5 -124.5h-87q-9 46 -41.5 69.5t-87.5 23.5q-66 0 -104 -43.5t-38 -120.5q0 -76 38 -120t104 -44q54 0 87 23t42 67h87q-8 -77 -65.5 -122t-149.5 -45q-70 0 -122 30.5z
M259 -196.5q-23 18.5 -26 52.5h46q1 -14 12 -23t27 -9q20 0 31.5 12t11.5 35q0 22 -10.5 34t-30.5 12q-26 0 -39 -20h-40v103h47v-63q6 7 18.5 11t27.5 4q32 0 53.5 -21.5t21.5 -58.5q0 -38 -23.5 -62.5t-66.5 -24.5q-37 0 -60 18.5z" />
    <glyph glyph-name="ccircumflex" unicode="&#x109;" horiz-adv-x="519" 
d="M145 19.5q-52 30.5 -79.5 85t-27.5 125.5t28 126t79.5 85.5t121.5 30.5q92 0 149.5 -46.5t65.5 -124.5h-87q-9 46 -41.5 69.5t-87.5 23.5q-66 0 -104 -43.5t-38 -120.5q0 -76 38 -120t104 -44q54 0 87 23t42 67h87q-8 -77 -65.5 -122t-149.5 -45q-70 0 -122 30.5z
M441 552l-47 -52l-129 112l-127 -111l-47 51l174 146z" />
    <glyph glyph-name="cdotaccent" unicode="&#x10b;" horiz-adv-x="519" 
d="M145 19.5q-52 30.5 -79.5 85t-27.5 125.5t28 126t79.5 85.5t121.5 30.5q92 0 149.5 -46.5t65.5 -124.5h-87q-9 46 -41.5 69.5t-87.5 23.5q-66 0 -104 -43.5t-38 -120.5q0 -76 38 -120t104 -44q54 0 87 23t42 67h87q-8 -77 -65.5 -122t-149.5 -45q-70 0 -122 30.5z
M214 560q-20 20 -20 50t20 50.5t51 20.5q30 0 50 -20.5t20 -50.5t-20 -50t-50 -20q-31 0 -51 20z" />
    <glyph glyph-name="dcaron" unicode="&#x10f;" horiz-adv-x="721" 
d="M516 700v-700h-86v81q-22 -42 -67 -67.5t-97 -25.5q-71 0 -123 31.5t-78.5 86.5t-26.5 124q0 68 28 123.5t80 87.5t122 32q54 0 97 -25.5t65 -68.5v321h86zM392.5 113q41.5 47 41.5 117t-41.5 117.5t-114.5 47.5q-70 0 -112 -46.5t-42 -118.5t42 -118t112 -46
q73 0 114.5 47zM590 498v40q7 -1 18 -1q39 0 51 28q6 15 6 31q0 9 -1 14q-12 -17 -40 -17q-23 0 -38.5 17t-15.5 43q0 27 17.5 44t46.5 17q36 0 58.5 -26.5t22.5 -74.5q0 -55 -28.5 -86t-77.5 -31q-13 0 -19 2z" />
    <glyph glyph-name="dcroat" unicode="&#x111;" horiz-adv-x="591" 
d="M569 536h-53v-536h-86v81q-22 -42 -67 -67.5t-97 -25.5q-71 0 -123 31.5t-78.5 86.5t-26.5 124q0 68 28 123.5t80 87.5t122 32q54 0 97 -25.5t65 -68.5v157h-157v59h157v105h86v-105h53v-59zM392.5 113q41.5 47 41.5 117t-41.5 117.5t-114.5 47.5q-70 0 -112 -46.5
t-42 -118.5t42 -118t112 -46q73 0 114.5 47z" />
    <glyph glyph-name="eacute" unicode="&#xe9;" horiz-adv-x="521" 
d="M481 205h-357q1 -66 40 -103.5t105 -37.5q46 0 77 17.5t45 50.5h87q-12 -64 -70 -104t-139 -40q-106 0 -168.5 65.5t-62.5 177.5q0 72 28 127t79.5 85t119.5 30q64 0 113.5 -27.5t77 -77t27.5 -112.5q0 -29 -2 -51zM398 272q0 61 -35.5 96t-98.5 35q-62 0 -99.5 -36
t-40.5 -95h274zM107 572l274 115l29 -65l-274 -117z" />
    <glyph glyph-name="ebreve" unicode="&#x115;" horiz-adv-x="521" 
d="M481 205h-357q1 -66 40 -103.5t105 -37.5q46 0 77 17.5t45 50.5h87q-12 -64 -70 -104t-139 -40q-106 0 -168.5 65.5t-62.5 177.5q0 72 28 127t79.5 85t119.5 30q64 0 113.5 -27.5t77 -77t27.5 -112.5q0 -29 -2 -51zM398 272q0 61 -35.5 96t-98.5 35q-62 0 -99.5 -36
t-40.5 -95h274zM143.5 547q-47.5 40 -51.5 110h74q3 -42 30.5 -64t69.5 -22q43 0 70.5 22t30.5 64h74q-5 -70 -52.5 -110t-122.5 -40t-122.5 40z" />
    <glyph glyph-name="ecaron" unicode="&#x11b;" horiz-adv-x="521" 
d="M481 205h-357q1 -66 40 -103.5t105 -37.5q46 0 77 17.5t45 50.5h87q-12 -64 -70 -104t-139 -40q-106 0 -168.5 65.5t-62.5 177.5q0 72 28 127t79.5 85t119.5 30q64 0 113.5 -27.5t77 -77t27.5 -112.5q0 -29 -2 -51zM398 272q0 61 -35.5 96t-98.5 35q-62 0 -99.5 -36
t-40.5 -95h274zM91 647l47 51l127 -111l129 112l47 -52l-176 -146z" />
    <glyph glyph-name="ecircumflex" unicode="&#xea;" horiz-adv-x="521" 
d="M481 205h-357q1 -66 40 -103.5t105 -37.5q46 0 77 17.5t45 50.5h87q-12 -64 -70 -104t-139 -40q-106 0 -168.5 65.5t-62.5 177.5q0 72 28 127t79.5 85t119.5 30q64 0 113.5 -27.5t77 -77t27.5 -112.5q0 -29 -2 -51zM398 272q0 61 -35.5 96t-98.5 35q-62 0 -99.5 -36
t-40.5 -95h274zM442 551l-47 -52l-129 112l-127 -111l-47 51l174 146z" />
    <glyph glyph-name="edieresis" unicode="&#xeb;" horiz-adv-x="521" 
d="M481 205h-357q1 -66 40 -103.5t105 -37.5q46 0 77 17.5t45 50.5h87q-12 -64 -70 -104t-139 -40q-106 0 -168.5 65.5t-62.5 177.5q0 72 28 127t79.5 85t119.5 30q64 0 113.5 -27.5t77 -77t27.5 -112.5q0 -29 -2 -51zM398 272q0 61 -35.5 96t-98.5 35q-62 0 -99.5 -36
t-40.5 -95h274zM118.5 557.5q-19.5 19.5 -19.5 47.5t19.5 47.5t47.5 19.5t47.5 -19.5t19.5 -47.5t-19.5 -47.5t-47.5 -19.5t-47.5 19.5zM318.5 557.5q-19.5 19.5 -19.5 47.5t19.5 47.5t47.5 19.5t47.5 -19.5t19.5 -47.5t-19.5 -47.5t-47.5 -19.5t-47.5 19.5z" />
    <glyph glyph-name="edotaccent" unicode="&#x117;" horiz-adv-x="521" 
d="M481 205h-357q1 -66 40 -103.5t105 -37.5q46 0 77 17.5t45 50.5h87q-12 -64 -70 -104t-139 -40q-106 0 -168.5 65.5t-62.5 177.5q0 72 28 127t79.5 85t119.5 30q64 0 113.5 -27.5t77 -77t27.5 -112.5q0 -29 -2 -51zM398 272q0 61 -35.5 96t-98.5 35q-62 0 -99.5 -36
t-40.5 -95h274zM215 559q-20 20 -20 50t20 50.5t51 20.5q30 0 50 -20.5t20 -50.5t-20 -50t-50 -20q-31 0 -51 20z" />
    <glyph glyph-name="egrave" unicode="&#xe8;" horiz-adv-x="521" 
d="M481 205h-357q1 -66 40 -103.5t105 -37.5q46 0 77 17.5t45 50.5h87q-12 -64 -70 -104t-139 -40q-106 0 -168.5 65.5t-62.5 177.5q0 72 28 127t79.5 85t119.5 30q64 0 113.5 -27.5t77 -77t27.5 -112.5q0 -29 -2 -51zM398 272q0 61 -35.5 96t-98.5 35q-62 0 -99.5 -36
t-40.5 -95h274zM107 622l29 65l274 -115l-29 -67z" />
    <glyph glyph-name="emacron" unicode="&#x113;" horiz-adv-x="521" 
d="M481 205h-357q1 -66 40 -103.5t105 -37.5q46 0 77 17.5t45 50.5h87q-12 -64 -70 -104t-139 -40q-106 0 -168.5 65.5t-62.5 177.5q0 72 28 127t79.5 85t119.5 30q64 0 113.5 -27.5t77 -77t27.5 -112.5q0 -29 -2 -51zM398 272q0 61 -35.5 96t-98.5 35q-62 0 -99.5 -36
t-40.5 -95h274zM107 624h318v-70h-318v70z" />
    <glyph glyph-name="eogonek" unicode="&#x119;" horiz-adv-x="521" 
d="M481 205h-357q1 -66 40 -103.5t105 -37.5q46 0 77 17.5t45 50.5h87q-12 -64 -70 -104t-139 -40q-106 0 -168.5 65.5t-62.5 177.5q0 72 28 127t79.5 85t119.5 30q64 0 113.5 -27.5t77 -77t27.5 -112.5q0 -29 -2 -51zM398 272q0 61 -35.5 96t-98.5 35q-62 0 -99.5 -36
t-40.5 -95h274zM208.5 -184q-31.5 28 -31.5 70q0 33 21.5 62t63.5 52h86q-48 -10 -70 -34.5t-22 -53.5q0 -26 16.5 -42t44.5 -16q29 0 56 13v-64q-39 -15 -80 -15q-53 0 -84.5 28z" />
    <glyph glyph-name="gbreve" unicode="&#x11f;" horiz-adv-x="591" 
d="M516 460v-448q0 -132 -80 -194q-58 -43 -159 -43q-48 0 -90.5 11.5t-73.5 33.5t-49 53.5t-19 68.5h91q5 -42 40.5 -68t99.5 -26q76 0 115 38.5t39 119.5v75q-21 -43 -67 -68t-97 -25q-69 0 -120.5 32t-79.5 87t-28 123t29 123.5t81.5 87.5t119.5 32q54 0 97 -25t65 -69
v81h86zM360.5 88q35.5 22 54.5 59.5t19 82.5q0 46 -19 83.5t-54.5 59.5t-82.5 22q-68 0 -111 -46.5t-43 -118.5q0 -71 43 -117.5t111 -46.5q47 0 82.5 22zM160.5 548q-47.5 40 -51.5 110h74q3 -42 30.5 -64t69.5 -22q43 0 70.5 22t30.5 64h74q-5 -70 -52.5 -110t-122.5 -40
t-122.5 40z" />
    <glyph glyph-name="gcircumflex" unicode="&#x11d;" horiz-adv-x="591" 
d="M516 460v-448q0 -132 -80 -194q-58 -43 -159 -43q-48 0 -90.5 11.5t-73.5 33.5t-49 53.5t-19 68.5h91q5 -42 40.5 -68t99.5 -26q76 0 115 38.5t39 119.5v75q-21 -43 -67 -68t-97 -25q-69 0 -120.5 32t-79.5 87t-28 123t29 123.5t81.5 87.5t119.5 32q54 0 97 -25t65 -69
v81h86zM360.5 88q35.5 22 54.5 59.5t19 82.5q0 46 -19 83.5t-54.5 59.5t-82.5 22q-68 0 -111 -46.5t-43 -118.5q0 -71 43 -117.5t111 -46.5q47 0 82.5 22zM459 552l-47 -52l-129 112l-127 -111l-47 51l174 146z" />
    <glyph glyph-name="gcommaaccent" unicode="&#x123;" horiz-adv-x="591" 
d="M516 460v-448q0 -132 -80 -194q-58 -43 -159 -43q-48 0 -90.5 11.5t-73.5 33.5t-49 53.5t-19 68.5h91q5 -42 40.5 -68t99.5 -26q76 0 115 38.5t39 119.5v75q-21 -43 -67 -68t-97 -25q-69 0 -120.5 32t-79.5 87t-28 123t29 123.5t81.5 87.5t119.5 32q54 0 97 -25t65 -69
v81h86zM360.5 88q35.5 22 54.5 59.5t19 82.5q0 46 -19 83.5t-54.5 59.5t-82.5 22q-68 0 -111 -46.5t-43 -118.5q0 -71 43 -117.5t111 -46.5q47 0 82.5 22zM317 662q-40 0 -55 -24q-6 -8 -9 -16.5t-2 -15.5q2 4 8.5 7t14.5 3q21 0 35 -15t14 -36q0 -22 -15 -36.5t-38 -14.5
q-27 0 -44.5 22.5t-17.5 57.5q0 45 29 71.5t80 27.5v-31z" />
    <glyph glyph-name="gdotaccent" unicode="&#x121;" horiz-adv-x="591" 
d="M516 460v-448q0 -132 -80 -194q-58 -43 -159 -43q-48 0 -90.5 11.5t-73.5 33.5t-49 53.5t-19 68.5h91q5 -42 40.5 -68t99.5 -26q76 0 115 38.5t39 119.5v75q-21 -43 -67 -68t-97 -25q-69 0 -120.5 32t-79.5 87t-28 123t29 123.5t81.5 87.5t119.5 32q54 0 97 -25t65 -69
v81h86zM360.5 88q35.5 22 54.5 59.5t19 82.5q0 46 -19 83.5t-54.5 59.5t-82.5 22q-68 0 -111 -46.5t-43 -118.5q0 -71 43 -117.5t111 -46.5q47 0 82.5 22zM232 560q-20 20 -20 50t20 50.5t51 20.5q30 0 50 -20.5t20 -50.5t-20 -50t-50 -20q-31 0 -51 20z" />
    <glyph glyph-name="hbar" unicode="&#x127;" horiz-adv-x="566" 
d="M452.5 425q43.5 -48 43.5 -141v-284h-87v246q0 78 -27.5 115t-88.5 37q-63 0 -96.5 -41.5t-33.5 -112.5v-244h-87v536h-48v59h48v105h87v-105h161v-59h-161v-160q19 45 60.5 71t100.5 26q85 0 128.5 -48z" />
    <glyph glyph-name="hcircumflex" unicode="&#x125;" horiz-adv-x="566" 
d="M119 804l-70 -61l-40 44l110 93l111 -93l-41 -44zM452.5 425q43.5 -48 43.5 -141v-284h-87v246q0 78 -27.5 115t-88.5 37q-63 0 -96.5 -41.5t-33.5 -112.5v-244h-87v700h87v-324q19 45 60.5 71t100.5 26q85 0 128.5 -48z" />
    <glyph glyph-name="iacute" unicode="&#xed;" horiz-adv-x="236" 
d="M23 576l150 99l40 -60l-150 -99zM75 461h86v-461h-86v461z" />
    <glyph glyph-name="ibreve" unicode="&#x12d;" horiz-adv-x="236" 
d="M38 543q-30 30 -30 98h59q3 -73 50 -73t50 73h60q-1 -68 -30.5 -98t-79.5 -30q-49 0 -79 30zM75 461h86v-461h-86v461z" />
    <glyph glyph-name="icircumflex" unicode="&#xee;" horiz-adv-x="236" 
d="M-4 568l121 111l122 -111l-48 -51l-74 71l-73 -70zM75 461h86v-461h-86v461z" />
    <glyph glyph-name="idieresis" unicode="&#xef;" horiz-adv-x="236" 
d="M10.5 563.5q-16.5 16.5 -16.5 39.5q0 25 16.5 41.5t40.5 16.5t41 -16.5t17 -41.5q0 -23 -17 -39.5t-41 -16.5t-40.5 16.5zM144 563.5q-17 16.5 -17 39.5q0 25 17 41.5t40 16.5q24 0 41 -16.5t17 -41.5q0 -23 -17 -39.5t-41 -16.5q-23 0 -40 16.5zM75 461h86v-461h-86v461
z" />
    <glyph glyph-name="dotlessi" unicode="&#x131;" horiz-adv-x="236" 
d="M75 461h86v-461h-86v461z" />
    <glyph glyph-name="igrave" unicode="&#xec;" horiz-adv-x="236" 
d="M23 615l40 60l150 -99l-40 -60zM75 461h86v-461h-86v461z" />
    <glyph glyph-name="ij" unicode="&#x133;" horiz-adv-x="476" 
d="M75 461h86v-461h-86v461zM67 560q-20 20 -20 50t20 50.5t51 20.5q30 0 50 -20.5t20 -50.5t-20 -50t-50 -20q-31 0 -51 20zM216 -208v79q19 -7 47 -7q51 0 51 62v535h87v-559q0 -58 -31.5 -89.5t-89.5 -31.5q-43 0 -64 11zM307 560q-20 20 -20 50t20 50.5t51 20.5
q30 0 50 -20.5t20 -50.5t-20 -50t-50 -20q-31 0 -51 20z" />
    <glyph glyph-name="imacron" unicode="&#x12b;" horiz-adv-x="236" 
d="M19 625h198v-70h-198v70zM75 461h86v-461h-86v461z" />
    <glyph glyph-name="iogonek" unicode="&#x12f;" horiz-adv-x="236" 
d="M75 461h86v-461h-86v461zM67 560q-20 20 -20 50t20 50.5t51 20.5q30 0 50 -20.5t20 -50.5t-20 -50t-50 -20q-31 0 -51 20zM21.5 -184q-31.5 28 -31.5 70q0 33 21.5 62t63.5 52h86q-48 -10 -70 -34.5t-22 -53.5q0 -26 16.5 -42t44.5 -16q29 0 56 13v-64q-39 -15 -80 -15
q-53 0 -84.5 28z" />
    <glyph glyph-name="itilde" unicode="&#x129;" horiz-adv-x="236" 
d="M130.5 533q-9.5 7 -22.5 21q-12 12 -18.5 17t-15.5 5q-12 0 -20.5 -6.5t-18.5 -26.5l-21 45q12 33 29.5 47.5t35.5 14.5q16 0 28.5 -8t26.5 -22q10 -10 17.5 -15t14.5 -5q11 0 19 6t17 23l19 -46q-9 -31 -27 -44t-39 -13q-15 0 -24.5 7zM75 461h86v-461h-86v461z" />
    <glyph glyph-name="jcircumflex" unicode="&#x135;" horiz-adv-x="240" 
d="M0 568l121 111l122 -111l-48 -51l-74 71l-73 -70zM-20 -208v79q19 -7 47 -7q51 0 51 62v535h87v-559q0 -58 -31.5 -89.5t-89.5 -31.5q-43 0 -64 11z" />
    <glyph glyph-name="uni0237" unicode="&#x237;" horiz-adv-x="240" 
d="M-20 -208v79q19 -7 47 -7q51 0 51 62v535h87v-559q0 -58 -31.5 -89.5t-89.5 -31.5q-43 0 -64 11z" />
    <glyph glyph-name="kcommaaccent" unicode="&#x137;" horiz-adv-x="505" 
d="M254 238l223 -238h-114l-202 218v-218h-86v700h86v-451l205 212h111zM219 -176q41 0 54 26q9 10 9 30q-2 -4 -7.5 -6.5t-12.5 -2.5q-24 0 -38.5 14t-14.5 35t14.5 35.5t36.5 14.5q28 0 45.5 -19.5t17.5 -51.5q0 -103 -104 -105v30z" />
    <glyph glyph-name="kgreenlandic" unicode="&#x138;" horiz-adv-x="505" 
d="M254 238l223 -238h-114l-202 218v-218h-86v461h86v-212l205 212h111z" />
    <glyph glyph-name="lacute" unicode="&#x13a;" horiz-adv-x="237" 
d="M18 794l161 99l40 -57l-162 -99zM75 700h87v-700h-87v700z" />
    <glyph glyph-name="lcaron" unicode="&#x13e;" horiz-adv-x="375" 
d="M75 700h87v-700h-87v700zM249 498v40q7 -1 18 -1q39 0 51 28q6 15 6 31q0 9 -1 14q-12 -17 -40 -17q-23 0 -38.5 17t-15.5 43q0 27 17.5 44t46.5 17q36 0 58.5 -26.5t22.5 -74.5q0 -55 -28.5 -86t-77.5 -31q-13 0 -19 2z" />
    <glyph glyph-name="lcommaaccent" unicode="&#x13c;" horiz-adv-x="237" 
d="M75 700h87v-700h-87v700zM75 -176q41 0 54 26q9 10 9 30q-2 -4 -7.5 -6.5t-12.5 -2.5q-24 0 -38.5 14t-14.5 35t14.5 35.5t36.5 14.5q28 0 45.5 -19.5t17.5 -51.5q0 -103 -104 -105v30z" />
    <glyph glyph-name="ldot" unicode="&#x140;" horiz-adv-x="365" 
d="M75 700h87v-700h-87v700zM234 299.5q-21 21.5 -21 51.5t21 51t51 21q31 0 52.5 -21t21.5 -51t-21.5 -51.5t-52.5 -21.5q-30 0 -51 21.5z" />
    <glyph glyph-name="lslash" unicode="&#x142;" horiz-adv-x="237" 
d="M232 392l-73 -39v-353h-87v306l-67 -36v67l67 36v327h87v-280l73 39v-67z" />
    <glyph glyph-name="nacute" unicode="&#x144;" horiz-adv-x="564" 
d="M75 461h87v-85q19 45 60.5 71t100.5 26q84 0 127.5 -48t43.5 -141v-284h-86v246q0 78 -27.5 115t-88.5 37q-63 0 -96.5 -41.5t-33.5 -112.5v-244h-87v461zM122 572l274 115l29 -65l-274 -117z" />
    <glyph glyph-name="napostrophe" unicode="&#x149;" horiz-adv-x="586" 
d="M97 461h87v-85q19 45 60.5 71t100.5 26q84 0 127.5 -48t43.5 -141v-284h-86v246q0 78 -27.5 115t-88.5 37q-63 0 -96.5 -41.5t-33.5 -112.5v-244h-87v461zM36 498v40q7 -1 18 -1q39 0 51 28q6 15 6 31q0 9 -1 14q-12 -17 -40 -17q-23 0 -38.5 17t-15.5 43q0 27 17.5 44
t46.5 17q36 0 58.5 -26.5t22.5 -74.5q0 -55 -28.5 -86t-77.5 -31q-13 0 -19 2z" />
    <glyph glyph-name="ncaron" unicode="&#x148;" horiz-adv-x="564" 
d="M75 461h87v-85q19 45 60.5 71t100.5 26q84 0 127.5 -48t43.5 -141v-284h-86v246q0 78 -27.5 115t-88.5 37q-63 0 -96.5 -41.5t-33.5 -112.5v-244h-87v461zM106 647l47 51l127 -111l129 112l47 -52l-176 -146z" />
    <glyph glyph-name="ncommaaccent" unicode="&#x146;" horiz-adv-x="564" 
d="M75 461h87v-85q19 45 60.5 71t100.5 26q84 0 127.5 -48t43.5 -141v-284h-86v246q0 78 -27.5 115t-88.5 37q-63 0 -96.5 -41.5t-33.5 -112.5v-244h-87v461zM237 -176q41 0 54 26q9 10 9 30q-2 -4 -7.5 -6.5t-12.5 -2.5q-24 0 -38.5 14t-14.5 35t14.5 35.5t36.5 14.5
q28 0 45.5 -19.5t17.5 -51.5q0 -103 -104 -105v30z" />
    <glyph glyph-name="ntilde" unicode="&#xf1;" horiz-adv-x="564" 
d="M75 461h87v-85q19 45 60.5 71t100.5 26q84 0 127.5 -48t43.5 -141v-284h-86v246q0 78 -27.5 115t-88.5 37q-63 0 -96.5 -41.5t-33.5 -112.5v-244h-87v461zM319 538q-17 8 -42 23q-23 14 -36.5 20t-27.5 6q-18 0 -35 -9t-36 -33l-33 46q40 67 99 67q19 0 36.5 -7.5
t40.5 -22.5q25 -14 38 -20t28 -6q19 0 35.5 9.5t33.5 31.5l33 -46q-38 -67 -97 -67q-20 0 -37 8z" />
    <glyph glyph-name="eng" unicode="&#x14b;" horiz-adv-x="564" 
d="M450.5 425q43.5 -48 43.5 -141v-382q0 -58 -31 -89.5t-89 -31.5q-43 0 -64 11v79q19 -7 47 -7q51 0 51 62v320q0 78 -27.5 115t-88.5 37q-63 0 -96.5 -41.5t-33.5 -112.5v-244h-87v461h87v-85q19 45 60.5 71t100.5 26q84 0 127.5 -48z" />
    <glyph glyph-name="oacute" unicode="&#xf3;" horiz-adv-x="555" 
d="M150.5 20q-54.5 32 -83.5 87.5t-29 122.5q0 68 29 123.5t83.5 87.5t127.5 32t127.5 -32t83.5 -87.5t29 -123.5q0 -67 -29.5 -122.5t-83.5 -87.5t-127 -32t-127.5 32zM390 112.5q41 46.5 41 117.5q0 72 -41 118.5t-112 46.5t-112.5 -46.5t-41.5 -118.5q0 -71 41.5 -117.5
t112.5 -46.5t112 46.5zM119 572l274 115l29 -65l-274 -117z" />
    <glyph glyph-name="obreve" unicode="&#x14f;" horiz-adv-x="555" 
d="M150.5 20q-54.5 32 -83.5 87.5t-29 122.5q0 68 29 123.5t83.5 87.5t127.5 32t127.5 -32t83.5 -87.5t29 -123.5q0 -67 -29.5 -122.5t-83.5 -87.5t-127 -32t-127.5 32zM390 112.5q41 46.5 41 117.5q0 72 -41 118.5t-112 46.5t-112.5 -46.5t-41.5 -118.5q0 -71 41.5 -117.5
t112.5 -46.5t112 46.5zM155.5 547q-47.5 40 -51.5 110h74q3 -42 30.5 -64t69.5 -22q43 0 70.5 22t30.5 64h74q-5 -70 -52.5 -110t-122.5 -40t-122.5 40z" />
    <glyph glyph-name="ocircumflex" unicode="&#xf4;" horiz-adv-x="555" 
d="M150.5 20q-54.5 32 -83.5 87.5t-29 122.5q0 68 29 123.5t83.5 87.5t127.5 32t127.5 -32t83.5 -87.5t29 -123.5q0 -67 -29.5 -122.5t-83.5 -87.5t-127 -32t-127.5 32zM390 112.5q41 46.5 41 117.5q0 72 -41 118.5t-112 46.5t-112.5 -46.5t-41.5 -118.5q0 -71 41.5 -117.5
t112.5 -46.5t112 46.5zM454 551l-47 -52l-129 112l-127 -111l-47 51l174 146z" />
    <glyph glyph-name="odieresis" unicode="&#xf6;" horiz-adv-x="555" 
d="M150.5 20q-54.5 32 -83.5 87.5t-29 122.5q0 68 29 123.5t83.5 87.5t127.5 32t127.5 -32t83.5 -87.5t29 -123.5q0 -67 -29.5 -122.5t-83.5 -87.5t-127 -32t-127.5 32zM390 112.5q41 46.5 41 117.5q0 72 -41 118.5t-112 46.5t-112.5 -46.5t-41.5 -118.5q0 -71 41.5 -117.5
t112.5 -46.5t112 46.5zM130.5 557.5q-19.5 19.5 -19.5 47.5t19.5 47.5t47.5 19.5t47.5 -19.5t19.5 -47.5t-19.5 -47.5t-47.5 -19.5t-47.5 19.5zM330.5 557.5q-19.5 19.5 -19.5 47.5t19.5 47.5t47.5 19.5t47.5 -19.5t19.5 -47.5t-19.5 -47.5t-47.5 -19.5t-47.5 19.5z" />
    <glyph glyph-name="oe" unicode="&#x153;" horiz-adv-x="915" 
d="M150.5 20q-54.5 32 -83.5 87.5t-29 122.5q0 68 29 123.5t83.5 87.5t127.5 32t127.5 -32t83.5 -87.5t29 -123.5q0 -67 -29.5 -122.5t-83.5 -87.5t-127 -32t-127.5 32zM390 112.5q41 46.5 41 117.5q0 72 -41 118.5t-112 46.5t-112.5 -46.5t-41.5 -118.5q0 -71 41.5 -117.5
t112.5 -46.5t112 46.5zM875 205h-357q1 -66 40 -103.5t105 -37.5q46 0 77 17.5t45 50.5h87q-12 -64 -70 -104t-139 -40q-106 0 -168.5 65.5t-62.5 177.5q0 72 28 127t79.5 85t119.5 30q64 0 113.5 -27.5t77 -77t27.5 -112.5q0 -29 -2 -51zM792 272q0 61 -35.5 96t-98.5 35
q-62 0 -99.5 -36t-40.5 -95h274z" />
    <glyph glyph-name="ograve" unicode="&#xf2;" horiz-adv-x="555" 
d="M150.5 20q-54.5 32 -83.5 87.5t-29 122.5q0 68 29 123.5t83.5 87.5t127.5 32t127.5 -32t83.5 -87.5t29 -123.5q0 -67 -29.5 -122.5t-83.5 -87.5t-127 -32t-127.5 32zM390 112.5q41 46.5 41 117.5q0 72 -41 118.5t-112 46.5t-112.5 -46.5t-41.5 -118.5q0 -71 41.5 -117.5
t112.5 -46.5t112 46.5zM119 622l29 65l274 -115l-29 -67z" />
    <glyph glyph-name="ohungarumlaut" unicode="&#x151;" horiz-adv-x="555" 
d="M150.5 20q-54.5 32 -83.5 87.5t-29 122.5q0 68 29 123.5t83.5 87.5t127.5 32t127.5 -32t83.5 -87.5t29 -123.5q0 -67 -29.5 -122.5t-83.5 -87.5t-127 -32t-127.5 32zM390 112.5q41 46.5 41 117.5q0 72 -41 118.5t-112 46.5t-112.5 -46.5t-41.5 -118.5q0 -71 41.5 -117.5
t112.5 -46.5t112 46.5zM126 519l125 166l76 -38l-158 -151zM316 519l125 166l76 -38l-158 -151z" />
    <glyph glyph-name="omacron" unicode="&#x14d;" horiz-adv-x="555" 
d="M150.5 20q-54.5 32 -83.5 87.5t-29 122.5q0 68 29 123.5t83.5 87.5t127.5 32t127.5 -32t83.5 -87.5t29 -123.5q0 -67 -29.5 -122.5t-83.5 -87.5t-127 -32t-127.5 32zM390 112.5q41 46.5 41 117.5q0 72 -41 118.5t-112 46.5t-112.5 -46.5t-41.5 -118.5q0 -71 41.5 -117.5
t112.5 -46.5t112 46.5zM119 624h318v-70h-318v70z" />
    <glyph glyph-name="ordfeminine" unicode="&#xaa;" horiz-adv-x="369" 
d="M60 433.5q-37 39.5 -37 100.5t38 101.5t99 40.5q35 0 61.5 -15t38.5 -40v47h71v-268h-71v47q-12 -24 -39 -38.5t-62 -14.5q-62 0 -99 39.5zM239.5 476q23.5 24 23.5 58q0 35 -23.5 58.5t-61.5 23.5q-37 0 -60 -23.5t-23 -58.5t23 -58.5t60 -23.5q38 0 61.5 24z" />
    <glyph glyph-name="ordmasculine" unicode="&#xba;" horiz-adv-x="356" 
d="M65.5 433q-41.5 40 -41.5 102q0 61 42 101t112 40t112.5 -40t42.5 -101q0 -62 -42.5 -102t-112.5 -40q-71 0 -112.5 40zM238.5 475.5q22.5 23.5 22.5 59.5q0 35 -22.5 58t-60.5 23t-61.5 -23t-23.5 -58q0 -36 23.5 -59.5t61.5 -23.5t60.5 23.5z" />
    <glyph glyph-name="oslash" unicode="&#xf8;" horiz-adv-x="555" 
d="M488.5 354.5q29.5 -55.5 29.5 -124.5q0 -67 -29.5 -122.5t-83.5 -87.5t-127 -32q-34 0 -66 8l-31 -71l-50 23l29 67q-58 30 -90 87t-32 128q0 68 29 123.5t83.5 87.5t127.5 32q38 0 76 -10l29 66l50 -23l-28 -65q54 -31 83.5 -86.5zM141.5 148q17.5 -37 50.5 -58l130 299
q-19 6 -44 6q-71 0 -112.5 -46.5t-41.5 -118.5q0 -45 17.5 -82zM390 112.5q41 46.5 41 117.5q0 43 -15.5 78t-43.5 57l-128 -296q15 -3 34 -3q71 0 112 46.5z" />
    <glyph glyph-name="oslashacute" unicode="&#x1ff;" horiz-adv-x="555" 
d="M488.5 354.5q29.5 -55.5 29.5 -124.5q0 -67 -29.5 -122.5t-83.5 -87.5t-127 -32q-34 0 -66 8l-31 -71l-50 23l29 67q-58 30 -90 87t-32 128q0 68 29 123.5t83.5 87.5t127.5 32q38 0 76 -10l29 66l50 -23l-28 -65q54 -31 83.5 -86.5zM141.5 148q17.5 -37 50.5 -58l130 299
q-19 6 -44 6q-71 0 -112.5 -46.5t-41.5 -118.5q0 -45 17.5 -82zM390 112.5q41 46.5 41 117.5q0 43 -15.5 78t-43.5 57l-128 -296q15 -3 34 -3q71 0 112 46.5zM118 566l274 115l29 -65l-274 -117z" />
    <glyph glyph-name="otilde" unicode="&#xf5;" horiz-adv-x="555" 
d="M150.5 20q-54.5 32 -83.5 87.5t-29 122.5q0 68 29 123.5t83.5 87.5t127.5 32t127.5 -32t83.5 -87.5t29 -123.5q0 -67 -29.5 -122.5t-83.5 -87.5t-127 -32t-127.5 32zM390 112.5q41 46.5 41 117.5q0 72 -41 118.5t-112 46.5t-112.5 -46.5t-41.5 -118.5q0 -71 41.5 -117.5
t112.5 -46.5t112 46.5zM316 538q-17 8 -42 23q-23 14 -36.5 20t-27.5 6q-18 0 -35 -9t-36 -33l-33 46q40 67 99 67q19 0 36.5 -7.5t40.5 -22.5q25 -14 38 -20t28 -6q19 0 35.5 9.5t33.5 31.5l33 -46q-38 -67 -97 -67q-20 0 -37 8z" />
    <glyph glyph-name="racute" unicode="&#x155;" horiz-adv-x="360" 
d="M75 461h87v-105q13 55 50.5 83.5t84.5 28.5q27 0 42 -4v-80q-15 3 -43 3q-65 0 -99.5 -52t-34.5 -134v-201h-87v461zM13 572l274 115l29 -65l-274 -117z" />
    <glyph glyph-name="rcaron" unicode="&#x159;" horiz-adv-x="360" 
d="M75 461h87v-105q13 55 50.5 83.5t84.5 28.5q27 0 42 -4v-80q-15 3 -43 3q-65 0 -99.5 -52t-34.5 -134v-201h-87v461zM-3 647l47 51l127 -111l129 112l47 -52l-176 -146z" />
    <glyph glyph-name="rcommaaccent" unicode="&#x157;" horiz-adv-x="360" 
d="M75 461h87v-105q13 55 50.5 83.5t84.5 28.5q27 0 42 -4v-80q-15 3 -43 3q-65 0 -99.5 -52t-34.5 -134v-201h-87v461zM80 -176q41 0 54 26q9 10 9 30q-2 -4 -7.5 -6.5t-12.5 -2.5q-24 0 -38.5 14t-14.5 35t14.5 35.5t36.5 14.5q28 0 45.5 -19.5t17.5 -51.5
q0 -103 -104 -105v30z" />
    <glyph glyph-name="sacute" unicode="&#x15b;" horiz-adv-x="449" 
d="M128.5 8q-43.5 20 -67 54.5t-23.5 75.5h86q0 -35 30 -57.5t79 -22.5q39 0 62.5 17.5t23.5 48.5q0 22 -11 38.5t-34 22.5l-123 32q-50 14 -74.5 46.5t-24.5 77.5q0 38 22 68t61 47t89 17q85 0 131 -38t46 -101h-85q0 33 -25 52.5t-70 19.5q-36 0 -59.5 -16.5t-23.5 -44.5
q0 -46 51 -60l115 -31q49 -13 76 -46t27 -75q0 -67 -47.5 -106t-130.5 -39q-57 0 -100.5 20zM63 572l274 115l29 -65l-274 -117z" />
    <glyph glyph-name="scaron" unicode="&#x161;" horiz-adv-x="449" 
d="M128.5 8q-43.5 20 -67 54.5t-23.5 75.5h86q0 -35 30 -57.5t79 -22.5q39 0 62.5 17.5t23.5 48.5q0 22 -11 38.5t-34 22.5l-123 32q-50 14 -74.5 46.5t-24.5 77.5q0 38 22 68t61 47t89 17q85 0 131 -38t46 -101h-85q0 33 -25 52.5t-70 19.5q-36 0 -59.5 -16.5t-23.5 -44.5
q0 -46 51 -60l115 -31q49 -13 76 -46t27 -75q0 -67 -47.5 -106t-130.5 -39q-57 0 -100.5 20zM47 647l47 51l127 -111l129 112l47 -52l-176 -146z" />
    <glyph glyph-name="scedilla" unicode="&#x15f;" horiz-adv-x="449" 
d="M128.5 8q-43.5 20 -67 54.5t-23.5 75.5h86q0 -35 30 -57.5t79 -22.5q39 0 62.5 17.5t23.5 48.5q0 22 -11 38.5t-34 22.5l-123 32q-50 14 -74.5 46.5t-24.5 77.5q0 38 22 68t61 47t89 17q85 0 131 -38t46 -101h-85q0 33 -25 52.5t-70 19.5q-36 0 -59.5 -16.5t-23.5 -44.5
q0 -46 51 -60l115 -31q49 -13 76 -46t27 -75q0 -67 -47.5 -106t-130.5 -39q-57 0 -100.5 20zM216 -196.5q-23 18.5 -26 52.5h46q1 -14 12 -23t27 -9q20 0 31.5 12t11.5 35q0 22 -10.5 34t-30.5 12q-26 0 -39 -20h-40v103h47v-63q6 7 18.5 11t27.5 4q32 0 53.5 -21.5
t21.5 -58.5q0 -38 -23.5 -62.5t-66.5 -24.5q-37 0 -60 18.5z" />
    <glyph glyph-name="scircumflex" unicode="&#x15d;" horiz-adv-x="449" 
d="M128.5 8q-43.5 20 -67 54.5t-23.5 75.5h86q0 -35 30 -57.5t79 -22.5q39 0 62.5 17.5t23.5 48.5q0 22 -11 38.5t-34 22.5l-123 32q-50 14 -74.5 46.5t-24.5 77.5q0 38 22 68t61 47t89 17q85 0 131 -38t46 -101h-85q0 33 -25 52.5t-70 19.5q-36 0 -59.5 -16.5t-23.5 -44.5
q0 -46 51 -60l115 -31q49 -13 76 -46t27 -75q0 -67 -47.5 -106t-130.5 -39q-57 0 -100.5 20zM398 551l-47 -52l-129 112l-127 -111l-47 51l174 146z" />
    <glyph glyph-name="scommaaccent" unicode="&#x219;" horiz-adv-x="449" 
d="M128.5 8q-43.5 20 -67 54.5t-23.5 75.5h86q0 -35 30 -57.5t79 -22.5q39 0 62.5 17.5t23.5 48.5q0 22 -11 38.5t-34 22.5l-123 32q-50 14 -74.5 46.5t-24.5 77.5q0 38 22 68t61 47t89 17q85 0 131 -38t46 -101h-85q0 33 -25 52.5t-70 19.5q-36 0 -59.5 -16.5t-23.5 -44.5
q0 -46 51 -60l115 -31q49 -13 76 -46t27 -75q0 -67 -47.5 -106t-130.5 -39q-57 0 -100.5 20zM178 -176q41 0 54 26q9 10 9 30q-2 -4 -7.5 -6.5t-12.5 -2.5q-24 0 -38.5 14t-14.5 35t14.5 35.5t36.5 14.5q28 0 45.5 -19.5t17.5 -51.5q0 -103 -104 -105v30z" />
    <glyph glyph-name="tbar" unicode="&#x167;" horiz-adv-x="360" 
d="M302 73.5q16 1.5 28 4.5v-77q-30 -7 -78 -7q-59 0 -100 30.5t-41 128.5v64h-87v58h87v113h-83v73h83v146h87v-146h116v-73h-116v-113h114v-58h-114v-45q0 -61 18 -80.5t56 -19.5q14 0 30 1.5z" />
    <glyph glyph-name="tcaron" unicode="&#x165;" horiz-adv-x="378" 
d="M298 73.5q16 1.5 28 4.5v-77q-30 -7 -78 -7q-59 0 -100 30.5t-41 128.5v235h-83v73h83v146h87v-146h116v-73h-116v-216q0 -61 18 -80.5t56 -19.5q14 0 30 1.5zM258.884 512.164v37.1211q6.49609 -0.927734 16.7041 -0.927734q36.1934 0 47.3301 25.9854
q5.56836 13.9199 5.56836 28.7686q0 8.35254 -0.927734 12.9932q-11.1367 -15.7773 -37.1221 -15.7773q-21.3447 0 -35.7295 15.7773q-14.3848 15.7764 -14.3848 39.9053q0 25.0566 16.2412 40.834q16.2402 15.7764 43.1533 15.7764q33.4102 0 54.291 -24.5928
t20.8809 -69.1387q0 -51.043 -26.4492 -79.8115q-26.4492 -28.7695 -71.9238 -28.7695q-12.0645 0 -17.6318 1.85645z" />
    <glyph glyph-name="uni0163" unicode="&#x163;" horiz-adv-x="356" 
d="M298 73.5q16 1.5 28 4.5v-77q-30 -7 -78 -7q-59 0 -100 30.5t-41 128.5v235h-83v73h83v146h87v-146h116v-73h-116v-216q0 -61 18 -80.5t56 -19.5q14 0 30 1.5zM227 -196.5q-23 18.5 -26 52.5h46q1 -14 12 -23t27 -9q20 0 31.5 12t11.5 35q0 22 -10.5 34t-30.5 12
q-26 0 -39 -20h-40v103h47v-63q6 7 18.5 11t27.5 4q32 0 53.5 -21.5t21.5 -58.5q0 -38 -23.5 -62.5t-66.5 -24.5q-37 0 -60 18.5z" />
    <glyph glyph-name="uni021B" unicode="&#x21b;" horiz-adv-x="356" 
d="M298 73.5q16 1.5 28 4.5v-77q-30 -7 -78 -7q-59 0 -100 30.5t-41 128.5v235h-83v73h83v146h87v-146h116v-73h-116v-216q0 -61 18 -80.5t56 -19.5q14 0 30 1.5zM189 -176q41 0 54 26q9 10 9 30q-2 -4 -7.5 -6.5t-12.5 -2.5q-24 0 -38.5 14t-14.5 35t14.5 35.5t36.5 14.5
q28 0 45.5 -19.5t17.5 -51.5q0 -103 -104 -105v30z" />
    <glyph glyph-name="thorn" unicode="&#xfe;" horiz-adv-x="591" 
d="M75 700h86v-321q22 43 68 68.5t102 25.5q65 0 116 -30.5t79 -86t28 -126.5q0 -70 -29 -125t-81 -86t-118 -31q-53 0 -98 25t-67 68v-294h-86v913zM424 112q43 46 43 118q0 47 -19.5 85t-54.5 59t-79 21q-69 0 -113 -46t-44 -119q0 -72 44 -118t113 -46q67 0 110 46z" />
    <glyph glyph-name="uacute" unicode="&#xfa;" horiz-adv-x="562" 
d="M117.5 36.5q-47.5 48.5 -47.5 140.5v284h87v-264q0 -134 112 -134q66 0 98.5 42t32.5 104v252h87v-461h-87v84q-19 -44 -59.5 -70t-95.5 -26q-80 0 -127.5 48.5zM123 572l274 115l29 -65l-274 -117z" />
    <glyph glyph-name="ubreve" unicode="&#x16d;" horiz-adv-x="562" 
d="M117.5 36.5q-47.5 48.5 -47.5 140.5v284h87v-264q0 -134 112 -134q66 0 98.5 42t32.5 104v252h87v-461h-87v84q-19 -44 -59.5 -70t-95.5 -26q-80 0 -127.5 48.5zM159.5 547q-47.5 40 -51.5 110h74q3 -42 30.5 -64t69.5 -22q43 0 70.5 22t30.5 64h74q-5 -70 -52.5 -110
t-122.5 -40t-122.5 40z" />
    <glyph glyph-name="ucircumflex" unicode="&#xfb;" horiz-adv-x="562" 
d="M117.5 36.5q-47.5 48.5 -47.5 140.5v284h87v-264q0 -134 112 -134q66 0 98.5 42t32.5 104v252h87v-461h-87v84q-19 -44 -59.5 -70t-95.5 -26q-80 0 -127.5 48.5zM458 551l-47 -52l-129 112l-127 -111l-47 51l174 146z" />
    <glyph glyph-name="udieresis" unicode="&#xfc;" horiz-adv-x="562" 
d="M117.5 36.5q-47.5 48.5 -47.5 140.5v284h87v-264q0 -134 112 -134q66 0 98.5 42t32.5 104v252h87v-461h-87v84q-19 -44 -59.5 -70t-95.5 -26q-80 0 -127.5 48.5zM134.5 557.5q-19.5 19.5 -19.5 47.5t19.5 47.5t47.5 19.5t47.5 -19.5t19.5 -47.5t-19.5 -47.5t-47.5 -19.5
t-47.5 19.5zM334.5 557.5q-19.5 19.5 -19.5 47.5t19.5 47.5t47.5 19.5t47.5 -19.5t19.5 -47.5t-19.5 -47.5t-47.5 -19.5t-47.5 19.5z" />
    <glyph glyph-name="ugrave" unicode="&#xf9;" horiz-adv-x="562" 
d="M117.5 36.5q-47.5 48.5 -47.5 140.5v284h87v-264q0 -134 112 -134q66 0 98.5 42t32.5 104v252h87v-461h-87v84q-19 -44 -59.5 -70t-95.5 -26q-80 0 -127.5 48.5zM123 622l29 65l274 -115l-29 -67z" />
    <glyph glyph-name="uhungarumlaut" unicode="&#x171;" horiz-adv-x="562" 
d="M117.5 36.5q-47.5 48.5 -47.5 140.5v284h87v-264q0 -134 112 -134q66 0 98.5 42t32.5 104v252h87v-461h-87v84q-19 -44 -59.5 -70t-95.5 -26q-80 0 -127.5 48.5zM130 519l125 166l76 -38l-158 -151zM320 519l125 166l76 -38l-158 -151z" />
    <glyph glyph-name="umacron" unicode="&#x16b;" horiz-adv-x="562" 
d="M117.5 36.5q-47.5 48.5 -47.5 140.5v284h87v-264q0 -134 112 -134q66 0 98.5 42t32.5 104v252h87v-461h-87v84q-19 -44 -59.5 -70t-95.5 -26q-80 0 -127.5 48.5zM123 624h318v-70h-318v70z" />
    <glyph glyph-name="uogonek" unicode="&#x173;" horiz-adv-x="562" 
d="M117.5 36.5q-47.5 48.5 -47.5 140.5v284h87v-264q0 -134 112 -134q66 0 98.5 42t32.5 104v252h87v-461h-87v84q-19 -44 -59.5 -70t-95.5 -26q-80 0 -127.5 48.5zM347.5 -184q-31.5 28 -31.5 70q0 33 21.5 62t63.5 52h86q-48 -10 -70 -34.5t-22 -53.5q0 -26 16.5 -42
t44.5 -16q29 0 56 13v-64q-39 -15 -80 -15q-53 0 -84.5 28z" />
    <glyph glyph-name="uring" unicode="&#x16f;" horiz-adv-x="562" 
d="M117.5 36.5q-47.5 48.5 -47.5 140.5v284h87v-264q0 -134 112 -134q66 0 98.5 42t32.5 104v252h87v-461h-87v84q-19 -44 -59.5 -70t-95.5 -26q-80 0 -127.5 48.5zM203 530q-32 31 -32 78t32 78t79 31t79 -31t32 -78t-32 -78t-79 -31t-79 31zM325.5 562q17.5 18 17.5 46
t-17.5 46t-43.5 18t-43.5 -18t-17.5 -46t17.5 -46t43.5 -18t43.5 18z" />
    <glyph glyph-name="utilde" unicode="&#x169;" horiz-adv-x="562" 
d="M117.5 36.5q-47.5 48.5 -47.5 140.5v284h87v-264q0 -134 112 -134q66 0 98.5 42t32.5 104v252h87v-461h-87v84q-19 -44 -59.5 -70t-95.5 -26q-80 0 -127.5 48.5zM320 538q-17 8 -42 23q-23 14 -36.5 20t-27.5 6q-18 0 -35 -9t-36 -33l-33 46q40 67 99 67q19 0 36.5 -7.5
t40.5 -22.5q25 -14 38 -20t28 -6q19 0 35.5 9.5t33.5 31.5l33 -46q-38 -67 -97 -67q-20 0 -37 8z" />
    <glyph glyph-name="wacute" unicode="&#x1e83;" horiz-adv-x="745" 
d="M8 461h95l110 -337l113 337h93l112 -337l111 337h95l-170 -461h-74l-121 354l-121 -354h-73zM213 573l274 115l29 -65l-274 -117z" />
    <glyph glyph-name="wcircumflex" unicode="&#x175;" horiz-adv-x="745" 
d="M8 461h95l110 -337l113 337h93l112 -337l111 337h95l-170 -461h-74l-121 354l-121 -354h-73zM548 552l-47 -52l-129 112l-127 -111l-47 51l174 146z" />
    <glyph glyph-name="wdieresis" unicode="&#x1e85;" horiz-adv-x="745" 
d="M8 461h95l110 -337l113 337h93l112 -337l111 337h95l-170 -461h-74l-121 354l-121 -354h-73zM224.5 558.5q-19.5 19.5 -19.5 47.5t19.5 47.5t47.5 19.5t47.5 -19.5t19.5 -47.5t-19.5 -47.5t-47.5 -19.5t-47.5 19.5zM424.5 558.5q-19.5 19.5 -19.5 47.5t19.5 47.5
t47.5 19.5t47.5 -19.5t19.5 -47.5t-19.5 -47.5t-47.5 -19.5t-47.5 19.5z" />
    <glyph glyph-name="wgrave" unicode="&#x1e81;" horiz-adv-x="745" 
d="M8 461h95l110 -337l113 337h93l112 -337l111 337h95l-170 -461h-74l-121 354l-121 -354h-73zM213 623l29 65l274 -115l-29 -67z" />
    <glyph glyph-name="yacute" unicode="&#xfd;" horiz-adv-x="567" 
d="M491 461v-470q0 -109 -62 -166q-58 -50 -151 -50q-100 0 -156 48q-51 43 -52 119h87q3 -45 31 -69.5t89 -24.5t94.5 36.5t33.5 112.5v86q-21 -44 -62 -69t-98 -25q-87 0 -131 53t-44 144v275h86v-257q0 -66 26.5 -102t91.5 -36q63 0 97 45.5t34 112.5v237h86zM118 572
l274 115l29 -65l-274 -117z" />
    <glyph glyph-name="ycircumflex" unicode="&#x177;" horiz-adv-x="567" 
d="M491 461v-470q0 -109 -62 -166q-58 -50 -151 -50q-100 0 -156 48q-51 43 -52 119h87q3 -45 31 -69.5t89 -24.5t94.5 36.5t33.5 112.5v86q-21 -44 -62 -69t-98 -25q-87 0 -131 53t-44 144v275h86v-257q0 -66 26.5 -102t91.5 -36q63 0 97 45.5t34 112.5v237h86zM453 551
l-47 -52l-129 112l-127 -111l-47 51l174 146z" />
    <glyph glyph-name="ydieresis" unicode="&#xff;" horiz-adv-x="567" 
d="M491 461v-470q0 -109 -62 -166q-58 -50 -151 -50q-100 0 -156 48q-51 43 -52 119h87q3 -45 31 -69.5t89 -24.5t94.5 36.5t33.5 112.5v86q-21 -44 -62 -69t-98 -25q-87 0 -131 53t-44 144v275h86v-257q0 -66 26.5 -102t91.5 -36q63 0 97 45.5t34 112.5v237h86z
M129.5 557.5q-19.5 19.5 -19.5 47.5t19.5 47.5t47.5 19.5t47.5 -19.5t19.5 -47.5t-19.5 -47.5t-47.5 -19.5t-47.5 19.5zM329.5 557.5q-19.5 19.5 -19.5 47.5t19.5 47.5t47.5 19.5t47.5 -19.5t19.5 -47.5t-19.5 -47.5t-47.5 -19.5t-47.5 19.5z" />
    <glyph glyph-name="ygrave" unicode="&#x1ef3;" horiz-adv-x="567" 
d="M491 461v-470q0 -109 -62 -166q-58 -50 -151 -50q-100 0 -156 48q-51 43 -52 119h87q3 -45 31 -69.5t89 -24.5t94.5 36.5t33.5 112.5v86q-21 -44 -62 -69t-98 -25q-87 0 -131 53t-44 144v275h86v-257q0 -66 26.5 -102t91.5 -36q63 0 97 45.5t34 112.5v237h86zM118 622
l29 65l274 -115l-29 -67z" />
    <glyph glyph-name="zacute" unicode="&#x17a;" horiz-adv-x="440" 
d="M283 387h-251v74h397l-272 -388h259v-73h-403zM57 573l274 115l29 -65l-274 -117z" />
    <glyph glyph-name="zcaron" unicode="&#x17e;" horiz-adv-x="440" 
d="M283 387h-251v74h397l-272 -388h259v-73h-403zM41 648l47 51l127 -111l129 112l47 -52l-176 -146z" />
    <glyph glyph-name="zdotaccent" unicode="&#x17c;" horiz-adv-x="440" 
d="M283 387h-251v74h397l-272 -388h259v-73h-403zM165 560q-20 20 -20 50t20 50.5t51 20.5q30 0 50 -20.5t20 -50.5t-20 -50t-50 -20q-31 0 -51 20z" />
    <glyph glyph-name="germandbls" unicode="&#xdf;" horiz-adv-x="566" 
d="M251.5 -8.5q-24.5 3.5 -39.5 8.5v76q36 -11 83 -11q63 0 101 33t38 95q0 32 -15 62.5t-47.5 50.5t-82.5 20h-58v78h48q69 0 103.5 32t34.5 85q0 52 -34 84.5t-92 32.5q-63 0 -97 -39t-34 -101v-498h-86v498q0 63 26 112.5t75 77.5t116 28q100 0 156.5 -51.5t56.5 -135.5
q0 -65 -38.5 -109t-97.5 -53q45 -4 79.5 -31t54 -68t19.5 -86q0 -63 -29 -106.5t-78.5 -65.5t-110.5 -22q-27 0 -51.5 3.5z" />
    <glyph glyph-name="ampersand" unicode="&#x26;" horiz-adv-x="594" 
d="M586 229h-59q-3 -117 -69.5 -180.5t-174.5 -63.5q-69 0 -123 26.5t-84.5 74t-30.5 108.5q0 66 40.5 113t98.5 60q-58 16 -91 56.5t-33 99.5q0 57 28 100.5t79.5 67.5t118.5 24q101 0 164 -54.5t63 -155.5h-95q0 59 -34 95.5t-98 36.5q-57 0 -94.5 -30.5t-37.5 -83.5
q0 -55 31.5 -86t97.5 -31h27v-83h-25q-75 0 -111 -35t-36 -95q0 -54 39.5 -91t105.5 -37q67 0 108 43t42 121h-73v81h226v-81z" />
    <glyph glyph-name="grave" unicode="`" horiz-adv-x="600" 
d="M10 623l29 65l274 -115l-29 -67z" />
    <glyph glyph-name="acute" unicode="&#xb4;" horiz-adv-x="600" 
d="M57 573l274 115l29 -65l-274 -117z" />
    <glyph glyph-name="circumflex" unicode="&#x2c6;" horiz-adv-x="600" 
d="M384 552l-47 -52l-129 112l-127 -111l-47 51l174 146z" />
    <glyph glyph-name="tilde" unicode="&#x2dc;" horiz-adv-x="600" 
d="M254 539q-17 8 -42 23q-23 14 -36.5 20t-27.5 6q-18 0 -35 -9t-36 -33l-33 46q40 67 99 67q19 0 36.5 -7.5t40.5 -22.5q25 -14 38 -20t28 -6q19 0 35.5 9.5t33.5 31.5l33 -46q-38 -67 -97 -67q-20 0 -37 8z" />
    <glyph glyph-name="caron" unicode="&#x2c7;" horiz-adv-x="600" 
d="M34 648l47 51l127 -111l129 112l47 -52l-176 -146z" />
    <glyph glyph-name="dieresis" unicode="&#xa8;" horiz-adv-x="600" 
d="M80.5 558.5q-19.5 19.5 -19.5 47.5t19.5 47.5t47.5 19.5t47.5 -19.5t19.5 -47.5t-19.5 -47.5t-47.5 -19.5t-47.5 19.5zM280.5 558.5q-19.5 19.5 -19.5 47.5t19.5 47.5t47.5 19.5t47.5 -19.5t19.5 -47.5t-19.5 -47.5t-47.5 -19.5t-47.5 19.5z" />
    <glyph glyph-name="macron" unicode="&#xaf;" horiz-adv-x="600" 
d="M68 625h318v-70h-318v70z" />
    <glyph glyph-name="breve" unicode="&#x2d8;" horiz-adv-x="600" 
d="M111.5 548q-47.5 40 -51.5 110h74q3 -42 30.5 -64t69.5 -22q43 0 70.5 22t30.5 64h74q-5 -70 -52.5 -110t-122.5 -40t-122.5 40z" />
    <glyph glyph-name="ring" unicode="&#x2da;" horiz-adv-x="600" 
d="M79 512q-32 31 -32 78t32 78t79 31t79 -31t32 -78t-32 -78t-79 -31t-79 31zM201.5 544q17.5 18 17.5 46t-17.5 46t-43.5 18t-43.5 -18t-17.5 -46t17.5 -46t43.5 -18t43.5 18z" />
    <glyph glyph-name="hungarumlaut" unicode="&#x2dd;" horiz-adv-x="600" 
d="M47 520l125 166l76 -38l-158 -151zM237 520l125 166l76 -38l-158 -151z" />
    <glyph glyph-name="dotaccent" unicode="&#x2d9;" horiz-adv-x="600" 
d="M249 560q-20 20 -20 50t20 50.5t51 20.5q30 0 50 -20.5t20 -50.5t-20 -50t-50 -20q-31 0 -51 20z" />
    <glyph glyph-name="cedilla" unicode="&#xb8;" horiz-adv-x="600" 
d="M80 -196.5q-23 18.5 -26 52.5h46q1 -14 12 -23t27 -9q20 0 31.5 12t11.5 35q0 22 -10.5 34t-30.5 12q-26 0 -39 -20h-40v103h47v-63q6 7 18.5 11t27.5 4q32 0 53.5 -21.5t21.5 -58.5q0 -38 -23.5 -62.5t-66.5 -24.5q-37 0 -60 18.5z" />
    <glyph glyph-name="ogonek" unicode="&#x2db;" horiz-adv-x="600" 
d="M66.5 -184q-31.5 28 -31.5 70q0 33 21.5 62t63.5 52h86q-48 -10 -70 -34.5t-22 -53.5q0 -26 16.5 -42t44.5 -16q29 0 56 13v-64q-39 -15 -80 -15q-53 0 -84.5 28z" />
    <glyph glyph-name="comma" unicode="," horiz-adv-x="296" 
d="M72 -117v42q12 -2 37 -2q20 0 34.5 9t21.5 25q13 22 13 53q-14 -15 -41 -15q-29 0 -48 18.5t-19 49.5q0 32 20.5 52t51.5 20q35 0 63 -30t28 -85q0 -62 -33.5 -100.5t-93.5 -38.5q-25 0 -34 2z" />
    <glyph glyph-name="semicolon" unicode=";" horiz-adv-x="296" 
d="M72 -117v42q12 -2 37 -2q20 0 34.5 9t21.5 25q13 22 13 53q-14 -15 -41 -15q-29 0 -48 18.5t-19 49.5q0 32 20.5 52t51.5 20q35 0 63 -30t28 -85q0 -62 -33.5 -100.5t-93.5 -38.5q-25 0 -34 2zM91 346.5q-21 21.5 -21 51.5t21 51.5t51 21.5q31 0 52.5 -21.5t21.5 -51.5
t-21.5 -51.5t-52.5 -21.5q-30 0 -51 21.5z" />
    <glyph glyph-name="colon" unicode=":" horiz-adv-x="286" 
d="M91 14.5q-21 21.5 -21 51.5t21 51.5t51 21.5q31 0 52.5 -21.5t21.5 -51.5t-21.5 -51.5t-52.5 -21.5q-30 0 -51 21.5zM91 347.5q-21 21.5 -21 51.5t21 51.5t51 21.5q31 0 52.5 -21.5t21.5 -51.5t-21.5 -51.5t-52.5 -21.5q-30 0 -51 21.5z" />
    <glyph glyph-name="period" unicode="." horiz-adv-x="286" 
d="M91 14.5q-21 21.5 -21 51.5t21 51.5t51 21.5q31 0 52.5 -21.5t21.5 -51.5t-21.5 -51.5t-52.5 -21.5q-30 0 -51 21.5z" />
    <glyph glyph-name="ellipsis" unicode="&#x2026;" horiz-adv-x="771" 
d="M91 10.5q-21 21.5 -21 51.5t21 51.5t51 21.5q31 0 52.5 -21.5t21.5 -51.5t-21.5 -51.5t-52.5 -21.5q-30 0 -51 21.5zM332 10.5q-21 21.5 -21 51.5t21 51.5t51 21.5q31 0 52.5 -21.5t21.5 -51.5t-21.5 -51.5t-52.5 -21.5q-30 0 -51 21.5zM576 10.5q-21 21.5 -21 51.5
t21 51.5t51 21.5q31 0 52.5 -21.5t21.5 -51.5t-21.5 -51.5t-52.5 -21.5q-30 0 -51 21.5z" />
    <glyph glyph-name="hyphen" unicode="-" horiz-adv-x="410" 
d="M53 301h305v-78h-305v78z" />
    <glyph glyph-name="exclam" unicode="!" horiz-adv-x="267" 
d="M90 700h87v-490h-87v490zM82 14.5q-21 21.5 -21 51.5t21 51.5t51 21.5q31 0 52.5 -21.5t21.5 -51.5t-21.5 -51.5t-52.5 -21.5q-30 0 -51 21.5z" />
    <glyph glyph-name="exclamdown" unicode="&#xa1;" horiz-adv-x="267" 
d="M90 -213h87v490h-87v-490zM82 472.5q-21 -21.5 -21 -51.5t21 -51.5t51 -21.5q31 0 52.5 21.5t21.5 51.5t-21.5 51.5t-52.5 21.5q-30 0 -51 -21.5z" />
    <glyph glyph-name="question" unicode="?" horiz-adv-x="472" 
d="M169 226q0 50 13 80t52 58l51 36q33 24 50 53.5t17 71.5q0 50 -31.5 81t-85.5 31q-62 0 -98.5 -37t-36.5 -106h-91q0 105 61.5 164t168.5 59q98 0 152.5 -52.5t54.5 -136.5q0 -60 -26 -101.5t-74 -78.5l-43 -31q-28 -21 -38 -39.5t-10 -50.5v-17h-86v16zM160 14.5
q-21 21.5 -21 51.5t21 51.5t52 21.5q30 0 51.5 -21.5t21.5 -51.5t-21.5 -51.5t-51.5 -21.5q-31 0 -52 21.5z" />
    <glyph glyph-name="questiondown" unicode="&#xbf;" horiz-adv-x="472" 
d="M303 283q0 -50 -13 -80t-52 -58l-51 -36q-33 -24 -50 -53.5t-17 -71.5q0 -50 31.5 -81t85.5 -31q62 0 98.5 37t36.5 106h91q0 -105 -61.5 -164t-168.5 -59q-98 0 -152.5 52.5t-54.5 136.5q0 60 26 101.5t74 78.5l43 31q28 21 38 39.5t10 50.5v17h86v-16zM312 494.5
q21 -21.5 21 -51.5t-21 -51.5t-52 -21.5q-30 0 -51.5 21.5t-21.5 51.5t21.5 51.5t51.5 21.5q31 0 52 -21.5z" />
    <glyph glyph-name="quoteleft" unicode="&#x2018;" horiz-adv-x="276" 
d="M91 526q-26 28 -26 80q0 59 31.5 95.5t88.5 36.5q24 0 32 -2v-40q-12 2 -31 2t-33.5 -9t-22.5 -24q-13 -22 -13 -50q12 15 38 15q27 0 45.5 -18t18.5 -47t-19.5 -48t-49.5 -19q-33 0 -59 28z" />
    <glyph glyph-name="quoteright" unicode="&#x2019;" horiz-adv-x="276" 
d="M185 690q26 -28 26 -80q0 -59 -31.5 -95.5t-88.5 -36.5q-24 0 -32 2v40q12 -2 31 -2t33.5 9t22.5 24q13 22 13 50q-12 -15 -38 -15q-27 0 -45.5 18t-18.5 47t19.5 48t49.5 19q33 0 59 -28z" />
    <glyph glyph-name="quotedblleft" unicode="&#x201c;" horiz-adv-x="460" 
d="M91 526q-26 28 -26 80q0 59 31.5 95.5t88.5 36.5q24 0 32 -2v-40q-12 2 -31 2t-33.5 -9t-22.5 -24q-13 -22 -13 -50q12 15 38 15q27 0 45.5 -18t18.5 -47t-19.5 -48t-49.5 -19q-33 0 -59 28zM274 526q-26 28 -26 80q0 59 31.5 95.5t88.5 36.5q24 0 32 -2v-40q-12 2 -31 2
t-33.5 -9t-22.5 -24q-13 -22 -13 -50q12 15 38 15q27 0 45.5 -18t18.5 -47t-19.5 -48t-49.5 -19q-33 0 -59 28z" />
    <glyph glyph-name="quotedblright" unicode="&#x201d;" horiz-adv-x="460" 
d="M369 690q26 -28 26 -80q0 -59 -31.5 -95.5t-88.5 -36.5q-24 0 -32 2v40q12 -2 31 -2t33.5 9t22.5 24q13 22 13 50q-12 -15 -38 -15q-27 0 -45.5 18t-18.5 47t19.5 48t49.5 19q33 0 59 -28zM185 690q26 -28 26 -80q0 -59 -31.5 -95.5t-88.5 -36.5q-24 0 -32 2v40
q12 -2 31 -2t33.5 9t22.5 24q13 22 13 50q-12 -15 -38 -15q-27 0 -45.5 18t-18.5 47t19.5 48t49.5 19q33 0 59 -28z" />
    <glyph glyph-name="quotesinglbase" unicode="&#x201a;" horiz-adv-x="276" 
d="M185 96q26 -28 26 -80q0 -59 -31.5 -95.5t-88.5 -36.5q-24 0 -32 2v40q12 -2 31 -2t33.5 9t22.5 24q13 22 13 50q-12 -15 -38 -15q-27 0 -45.5 18t-18.5 47t19.5 48t49.5 19q33 0 59 -28z" />
    <glyph glyph-name="quotedblbase" unicode="&#x201e;" horiz-adv-x="460" 
d="M369 96q26 -28 26 -80q0 -59 -31.5 -95.5t-88.5 -36.5q-24 0 -32 2v40q12 -2 31 -2t33.5 9t22.5 24q13 22 13 50q-12 -15 -38 -15q-27 0 -45.5 18t-18.5 47t19.5 48t49.5 19q33 0 59 -28zM185 96q26 -28 26 -80q0 -59 -31.5 -95.5t-88.5 -36.5q-24 0 -32 2v40
q12 -2 31 -2t33.5 9t22.5 24q13 22 13 50q-12 -15 -38 -15q-27 0 -45.5 18t-18.5 47t19.5 48t49.5 19q33 0 59 -28z" />
    <glyph glyph-name="guilsinglleft" unicode="&#x2039;" horiz-adv-x="276" 
d="M6 261l207 192l49 -50l-152 -142l152 -142l-49 -50z" />
    <glyph glyph-name="guilsinglright" unicode="&#x203a;" horiz-adv-x="276" 
d="M270 261l-207 192l-49 -50l152 -142l-152 -142l49 -50z" />
    <glyph glyph-name="slash" unicode="/" horiz-adv-x="438" 
d="M13 -34l343 795l70 -31l-343 -795z" />
    <glyph glyph-name="bar" unicode="|" horiz-adv-x="228" 
d="M80 733h68v-925h-68v925z" />
    <glyph glyph-name="endash" unicode="&#x2013;" horiz-adv-x="611" 
d="M53 305h505v-70h-505v70z" />
    <glyph glyph-name="emdash" unicode="&#x2014;" horiz-adv-x="798" 
d="M53 307h692v-70h-692v70z" />
    <glyph glyph-name="bullet" unicode="&#x2022;" horiz-adv-x="358" 
d="M97 230q-34 34 -34 82q0 49 34 83t82 34q49 0 83 -34t34 -83q0 -48 -34 -82t-83 -34q-48 0 -82 34z" />
    <glyph glyph-name="parenleft" unicode="(" horiz-adv-x="318" 
d="M116.5 9q-58.5 113 -58.5 263t58.5 263.5t160.5 202.5l53 -50q-93 -90 -139.5 -190t-46.5 -226t46.5 -226t139.5 -190l-53 -49q-102 89 -160.5 202z" />
    <glyph glyph-name="parenright" unicode=")" horiz-adv-x="318" 
d="M201.5 9q58.5 113 58.5 263t-58.5 263.5t-160.5 202.5l-53 -50q93 -90 139.5 -190t46.5 -226t-46.5 -226t-139.5 -190l53 -49q102 89 160.5 202z" />
    <glyph glyph-name="bracketleft" unicode="[" horiz-adv-x="288" 
d="M80 733h197v-70h-118v-787h118v-69h-197v926z" />
    <glyph glyph-name="bracketright" unicode="]" horiz-adv-x="288" 
d="M208 733h-197v-70h118v-787h-118v-69h197v926z" />
    <glyph glyph-name="asterisk" unicode="*" horiz-adv-x="421" 
d="M68 393l102 126l-145 39l21 62l140 -55l-9 152h67l-9 -152l140 55l21 -62l-145 -39l101 -126l-56 -40l-85 136l-87 -136z" />
    <glyph glyph-name="dagger" unicode="&#x2020;" horiz-adv-x="434" 
d="M174 379h-124v77h124v261h87v-261h123v-77h-123v-561h-87v561z" />
    <glyph glyph-name="asciitilde" unicode="~" horiz-adv-x="543" 
d="M332 207.5q-25 8.5 -60 26.5q-68 33 -119 33q-27 0 -54 -15t-49 -38v77q22 28 50.5 41t56.5 13q25 0 53 -8.5t65 -23.5l21 -9q62 -27 87 -27q52 0 110 54v-75q-23 -29 -52.5 -43t-58.5 -14q-25 0 -50 8.5z" />
    <glyph glyph-name="brokenbar" unicode="&#xa6;" horiz-adv-x="228" 
d="M80 733h68v-410h-68v410zM80 234h68v-426h-68v426z" />
    <glyph glyph-name="backslash" unicode="\" horiz-adv-x="438" 
d="M425 -34l-343 795l-70 -31l343 -795z" />
    <glyph glyph-name="underscore" unicode="_" horiz-adv-x="515" 
d="M0 -151h515v-62h-515v62z" />
    <glyph glyph-name="quotesingle" unicode="'" horiz-adv-x="245" 
d="M187 604l-42 -185h-44l-43 185q-3 11 -3 21q0 28 19.5 47.5t47.5 19.5t48 -19.5t20 -47.5q0 -10 -3 -21z" />
    <glyph glyph-name="quotedbl" unicode="&#x22;" horiz-adv-x="414" 
d="M187 604l-42 -185h-44l-43 185q-3 11 -3 21q0 28 19.5 47.5t47.5 19.5t48 -19.5t20 -47.5q0 -10 -3 -21zM356 604l-42 -185h-44l-43 185q-3 11 -3 21q0 28 19.5 47.5t47.5 19.5t48 -19.5t20 -47.5q0 -10 -3 -21z" />
    <glyph glyph-name="at" unicode="@" horiz-adv-x="889" 
d="M230.5 -141q-94.5 53 -143.5 145.5t-49 211.5q0 123 51 214.5t144.5 141t217.5 49.5q120 0 210 -45t140.5 -136.5t50.5 -226.5q0 -118 -41 -183t-121 -65q-61 0 -93 30t-42 92q-18 -35 -55.5 -57t-88.5 -22q-57 0 -102 28t-69.5 75t-24.5 102t25 102.5t70.5 75.5
t102.5 28q48 0 85 -21t57 -58v70h73v-277q0 -59 16.5 -84t48.5 -25q39 0 64 43.5t25 139.5q0 180 -87.5 266.5t-243.5 86.5q-104 0 -182 -42.5t-120 -120.5t-42 -182q0 -102 41 -180t120 -122t190 -44q108 0 199 51l27 -58q-102 -56 -228 -56q-131 0 -225.5 53zM517.5 114.5
q37.5 40.5 37.5 98.5q0 59 -37.5 99.5t-96.5 40.5t-95.5 -40.5t-36.5 -99.5q0 -58 36.5 -98.5t95.5 -40.5t96.5 40.5z" />
    <glyph glyph-name="copyright" unicode="&#xa9;" horiz-adv-x="797" 
d="M207.5 31.5q-81.5 48.5 -125.5 132t-44 186.5t44 186.5t125.5 132t190.5 48.5t191 -48.5t126 -132.5t44 -186t-44 -186t-126 -132.5t-191 -48.5t-190.5 48.5zM551.5 85q65.5 41 101 110.5t35.5 154.5t-35.5 154.5t-101 110.5t-153.5 41t-153.5 -41t-101 -110.5
t-35.5 -154.5t35.5 -154.5t101 -110.5t153.5 -41t153.5 41zM293.5 170.5q-46.5 28.5 -71.5 76t-25 103.5t25 103.5t71.5 76t109.5 28.5q76 0 123.5 -39t56.5 -101h-61q-9 39 -40 63t-80 24q-44 0 -77 -21t-50.5 -56.5t-17.5 -77.5t17.5 -77.5t50.5 -56.5t77 -21q49 0 80 24
t40 63h61q-9 -62 -56.5 -101t-123.5 -39q-63 0 -109.5 28.5z" />
    <glyph glyph-name="registered" unicode="&#xae;" horiz-adv-x="602" 
d="M162.5 216.5q-59.5 35.5 -91.5 96.5t-32 136q0 74 32 135t91.5 96.5t139.5 35.5q79 0 139 -35.5t92 -96.5t32 -135q0 -75 -32 -136t-92 -96.5t-139 -35.5q-80 0 -139.5 35.5zM414 255q48 30 73.5 81t25.5 113q0 61 -25.5 112t-73.5 81t-112 30t-112 -30t-74 -81t-26 -112
q0 -62 26 -113t74 -81t112 -30t112 30zM207 594h110q42 0 69 -28.5t27 -68.5q0 -31 -16.5 -55.5t-46.5 -34.5l61 -96h-49l-56 91h-55v-91h-44v283zM314 440q25 0 40 16.5t15 40.5q0 25 -15 41.5t-40 16.5h-62v-115h62z" />
    <glyph glyph-name="trademark" unicode="&#x2122;" horiz-adv-x="832" 
d="M105 641h-99v59h264v-59h-100v-348h-65v348zM336 700h107l101 -295l101 295h107v-407h-65v334l-114 -334h-58l-114 334v-334h-65v407z" />
    <glyph glyph-name="dollar" unicode="$" horiz-adv-x="544" 
d="M452.5 45.5q-51.5 -51.5 -139.5 -60.5v-85h-66v86q-101 9 -156.5 71t-55.5 164h91q0 -72 41 -114.5t114 -42.5q63 0 97.5 29t34.5 82q0 42 -24.5 68.5t-77.5 43.5l-113 31q-69 20 -105.5 68t-36.5 119q0 47 23.5 87.5t67 66.5t100.5 31v90h66v-92q81 -12 128 -67t48 -140
h-91q-1 63 -35 97.5t-95 34.5q-57 0 -88.5 -28.5t-31.5 -74.5q0 -45 26 -74t84 -46l118 -36q62 -19 95 -64t33 -113q0 -80 -51.5 -131.5z" />
    <glyph glyph-name="cent" unicode="&#xa2;" horiz-adv-x="519" 
d="M353 198q33 23 42 67h87q-8 -69 -55.5 -113t-125.5 -52v-100h-66v100q-92 10 -144.5 74.5t-52.5 164.5t52.5 165t144.5 75v101h66v-101q78 -8 125.5 -53.5t55.5 -115.5h-87q-9 46 -41.5 69.5t-87.5 23.5q-66 0 -104 -43.5t-38 -120.5q0 -76 38 -120t104 -44q54 0 87 23z
" />
    <glyph glyph-name="sterling" unicode="&#xa3;" horiz-adv-x="513" 
d="M175.5 150q-14.5 -47 -35.5 -68h334v-82h-435v61q27 25 43.5 69.5t16.5 109.5v91h-63v67h63v78q0 109 55.5 162.5t147.5 53.5q94 0 147.5 -51.5t53.5 -142.5h-91q0 57 -28 88t-82 31q-56 0 -84 -34t-28 -109v-76h169v-67h-169v-73q0 -61 -14.5 -108z" />
    <glyph glyph-name="florin" unicode="&#x192;" horiz-adv-x="430" 
d="M312.5 593q-22.5 -21 -32.5 -76l-11 -63h129l-13 -73h-129l-78 -434q-15 -84 -59 -125t-110 -41q-44 0 -75 12l13 74q20 -8 50 -8q40 0 62.5 19t31.5 68l78 435h-99l13 73h99l12 64q16 92 60.5 132.5t116.5 40.5q42 0 68 -12l-13 -73q-24 8 -50 8q-41 0 -63.5 -21z" />
    <glyph glyph-name="yen" unicode="&#xa5;" horiz-adv-x="549" 
d="M323 276h143v-61h-145v-68h145v-61h-145v-86h-93v86h-145v61h145v68h-145v61h143l-216 404h102l162 -330l163 330h102z" />
    <glyph glyph-name="Euro" unicode="&#x20ac;" horiz-adv-x="595" 
d="M416 103q34 34 42 92h89q-13 -91 -70 -148.5t-152 -57.5q-207 0 -237 254h-67l16 61h46q-1 12 -1 37q0 24 1 36h-60l16 61h48q32 254 238 254q95 0 152 -57.5t70 -148.5h-89q-9 58 -42.5 92t-90.5 34q-70 0 -105 -45t-45 -129h206l-16 -61h-194q-1 -12 -1 -36
q0 -25 1 -37h209l-16 -61h-189q10 -84 45.5 -129t104.5 -45q57 0 91 34z" />
    <glyph glyph-name="uni20A9" unicode="&#x20a9;" horiz-adv-x="758" 
d="M656 381l-16 -81h102v-67h-115l-47 -233h-86l-115 540l-115 -540h-86l-47 233h-115v67h102l-16 81h-86v66h73l-47 233h93l90 -546l118 546h72l118 -546l90 546h93l-47 -233h73v-66h-86z" />
    <glyph glyph-name="uni20B4" unicode="&#x20b4;" horiz-adv-x="562" 
d="M296 304h235l-16 -49h-319q-30 -18 -42.5 -37.5t-12.5 -49.5q0 -47 34 -73.5t95 -26.5q70 0 110 30t40 82h84q0 -57 -28 -100.5t-81 -67.5t-126 -24q-97 0 -155.5 46.5t-58.5 126.5q0 57 24 94h-49l17 49h78q17 12 52 29l101 45h-248l17 50h320q19 18 26.5 39.5t7.5 49.5
q0 45 -31.5 71t-85.5 26q-62 0 -96 -27t-34 -76h-84q0 83 58 132t154 49q93 0 148.5 -45.5t55.5 -125.5q0 -53 -22 -93h67l-16 -50h-89q-26 -25 -64 -43z" />
    <glyph glyph-name="uni20B8" unicode="&#x20b8;" horiz-adv-x="521" 
d="M6 680h509v-82h-509v82zM215 441h-209v82h509v-82h-209v-441h-91v441z" />
    <glyph glyph-name="uni20AE" unicode="&#x20ae;" horiz-adv-x="521" 
d="M306 598v-143l123 59v-70l-123 -59v-67l123 59v-69l-123 -59v-249h-91v206l-123 -59v69l123 59v67l-123 -59v70l123 59v186h-209v82h509v-82h-209z" />
    <glyph glyph-name="dollar.tf" 
d="M502.5 45.5q-51.5 -51.5 -139.5 -60.5v-85h-66v86q-101 9 -156.5 71t-55.5 164h91q0 -72 41 -114.5t114 -42.5q63 0 97.5 29t34.5 82q0 42 -24.5 68.5t-77.5 43.5l-113 31q-69 20 -105.5 68t-36.5 119q0 47 23.5 87.5t67 66.5t100.5 31v90h66v-92q81 -12 128 -67t48 -140
h-91q-1 63 -35 97.5t-95 34.5q-57 0 -88.5 -28.5t-31.5 -74.5q0 -45 26 -74t84 -46l118 -36q62 -19 95 -64t33 -113q0 -80 -51.5 -131.5z" />
    <glyph glyph-name="cent.tf" 
d="M413 198q33 23 42 67h87q-8 -69 -55.5 -113t-125.5 -52v-100h-66v100q-92 10 -144.5 74.5t-52.5 164.5t52.5 165t144.5 75v101h66v-101q78 -8 125.5 -53.5t55.5 -115.5h-87q-9 46 -41.5 69.5t-87.5 23.5q-66 0 -104 -43.5t-38 -120.5q0 -76 38 -120t104 -44q54 0 87 23z
" />
    <glyph glyph-name="sterling.tf" 
d="M225.5 150q-14.5 -47 -35.5 -68h334v-82h-435v61q27 25 43.5 69.5t16.5 109.5v91h-63v67h63v78q0 109 55.5 162.5t147.5 53.5q94 0 147.5 -51.5t53.5 -142.5h-91q0 57 -28 88t-82 31q-56 0 -84 -34t-28 -109v-76h169v-67h-169v-73q0 -61 -14.5 -108z" />
    <glyph glyph-name="florin.tf" 
d="M445.5 593q-22.5 -21 -32.5 -76l-11 -63h129l-13 -73h-129l-78 -434q-15 -84 -59 -125t-110 -41q-44 0 -75 12l13 74q20 -8 50 -8q40 0 62.5 19t31.5 68l78 435h-99l13 73h99l12 64q16 92 60.5 132.5t116.5 40.5q42 0 68 -12l-13 -73q-24 8 -50 8q-41 0 -63.5 -21z" />
    <glyph glyph-name="yen.tf" 
d="M369 276h143v-61h-145v-68h145v-61h-145v-86h-93v86h-145v61h145v68h-145v61h143l-216 404h102l162 -330l163 330h102z" />
    <glyph glyph-name="Euro.tf" 
d="M451.5 103q33.5 34 42.5 92h89q-13 -91 -70 -148.5t-152 -57.5q-206 0 -238 254h-66l16 61h45q-1 12 -1 37q0 24 1 36h-60l17 61h48q32 254 238 254q95 0 152 -57.5t70 -148.5h-89q-9 58 -42.5 92t-90.5 34q-70 0 -105.5 -45t-45.5 -129h207l-16 -61h-195q-1 -12 -1 -36
q0 -25 1 -37h210l-16 -61h-190q10 -84 45.5 -129t105.5 -45q57 0 90.5 34z" />
    <glyph glyph-name="uni20A9.tf" 
d="M561 381l-13 -81h75v-67h-87l-39 -233h-86l-90 541l-91 -541h-86l-39 233h-88v67h76l-13 81h-63v66h51l-39 233h91l72 -546l91 546h75l91 -546l73 546h90l-39 -233h50v-66h-62z" />
    <glyph glyph-name="uni20B4.tf" 
d="M402 335l-66 -31h226v-49h-326q-29 -17 -41.5 -36.5t-12.5 -50.5q0 -47 34 -73.5t95 -26.5q70 0 110 30t40 82h83q0 -86 -62 -139t-172 -53q-97 0 -156 46.5t-59 126.5q0 57 24 94h-55v49h102q20 14 52 29l100 45h-254v50h343q19 18 27 39t8 50q0 45 -31.5 71t-86.5 26
q-62 0 -96 -27t-34 -76h-83q0 83 58 132t154 49q93 0 148.5 -45.5t55.5 -125.5q0 -51 -22 -93h57v-50h-96q-24 -24 -64 -43z" />
    <glyph glyph-name="uni20B8.tf" 
d="M65 680h509v-82h-509v82zM274 441h-209v82h509v-82h-209v-441h-91v441z" />
    <glyph glyph-name="uni20AE.tf" 
d="M365 598v-143l123 59v-70l-123 -59v-67l123 59v-69l-123 -59v-249h-91v206l-123 -59v69l123 59v67l-123 -59v70l123 59v186h-209v82h509v-82h-209z" />
    <glyph glyph-name="currency" unicode="&#xa4;" horiz-adv-x="587" 
d="M30 162l68 68q-43 64 -43 140q0 77 43 139l-67 68l54 55l67 -68q60 44 141 44q82 0 143 -43l66 66l55 -54l-67 -67q44 -63 44 -140q0 -79 -44 -140l67 -67l-55 -55l-66 67q-61 -43 -143 -43q-79 0 -140 43l-68 -67zM374 231q35 22 54 58.5t19 80.5t-19 80.5t-54 58.5
t-81 22q-44 0 -78.5 -22t-53.5 -58.5t-19 -80.5t19 -80.5t53.5 -58.5t78.5 -22q46 0 81 22z" />
    <glyph glyph-name="fraction" unicode="&#x2044;" horiz-adv-x="155" 
d="M-187 18l472 682l58 -38l-472 -682z" />
    <glyph glyph-name="onequarter" unicode="&#xbc;" horiz-adv-x="815" 
d="M123 553h-92v57q59 0 79.5 16t20.5 54h64v-394h-72v267zM86 18l472 682l58 -38l-472 -682zM780 120h-57v-120h-74v120h-171v274h74v-210h97v109h74v-109h57v-64z" />
    <glyph glyph-name="onehalf" unicode="&#xbd;" horiz-adv-x="794" 
d="M123 553h-92v57q59 0 79.5 16t20.5 54h64v-394h-72v267zM86 18l472 682l58 -38l-472 -682zM473 111.5q24 41.5 81 69.5l67 33q52 24 52 72q0 26 -17 41.5t-46 15.5q-35 0 -55 -21t-20 -58h-76q0 63 41.5 100.5t109.5 37.5q65 0 102.5 -30t37.5 -82q0 -39 -20.5 -69
t-59.5 -50l-63 -32q-33 -16 -47 -32.5t-19 -44.5h208v-62h-300q0 70 24 111.5z" />
    <glyph glyph-name="threequarters" unicode="&#xbe;" horiz-adv-x="908" 
d="M78 312.5q-40 34.5 -40 97.5h76q0 -34 21 -53.5t57 -19.5q34 0 54 17t20 45q0 30 -19.5 46.5t-57.5 16.5h-38v57h38q35 0 53.5 15t18.5 43q0 25 -19 40t-49 15q-33 0 -52.5 -17t-19.5 -47h-75q0 54 40 87t108 33q65 0 104 -29t39 -78q0 -34 -20.5 -57.5t-60.5 -32.5
q39 -5 63 -31.5t24 -63.5q0 -53 -41.5 -85.5t-110.5 -32.5q-73 0 -113 34.5zM178 18l472 682l58 -38l-472 -682zM872 120h-57v-120h-74v120h-171v274h74v-210h97v109h74v-109h57v-64z" />
    <glyph glyph-name="percent" unicode="%" horiz-adv-x="779" 
d="M122 18l472 682l58 -32l-471 -682zM102 371.5q-40 23.5 -61 62t-21 84.5t21 84.5t61 62t94 23.5t94 -23.5t61 -62t21 -84.5t-21 -84.5t-61 -62t-94 -23.5t-94 23.5zM269 445q27 29 27 73t-27 73t-73 29t-73 -29t-27 -73t27 -73t73 -29t73 29zM488 18.5q-40 23.5 -61 62
t-21 84.5t21 84.5t61 62t94 23.5t94 -23.5t61 -62t21 -84.5t-21 -84.5t-61 -62t-94 -23.5t-94 23.5zM655 92q27 29 27 73t-27 73t-73 29t-73 -29t-27 -73t27 -73t73 -29t73 29z" />
    <glyph glyph-name="perthousand" unicode="&#x2030;" horiz-adv-x="1158" 
d="M122 18l472 682l58 -32l-471 -682zM102 371.5q-40 23.5 -61 62t-21 84.5t21 84.5t61 62t94 23.5t94 -23.5t61 -62t21 -84.5t-21 -84.5t-61 -62t-94 -23.5t-94 23.5zM269 445q27 29 27 73t-27 73t-73 29t-73 -29t-27 -73t27 -73t73 -29t73 29zM488 18.5q-40 23.5 -61 62
t-21 84.5t21 84.5t61 62t94 23.5t94 -23.5t61 -62t21 -84.5t-21 -84.5t-61 -62t-94 -23.5t-94 23.5zM868 18.5q-40 23.5 -61 62t-21 84.5t21 84.5t61 62t94 23.5t94 -23.5t61 -62t21 -84.5t-21 -84.5t-61 -62t-94 -23.5t-94 23.5zM655 92q27 29 27 73t-27 73t-73 29t-73 -29
t-27 -73t27 -73t73 -29t73 29zM1035 92q27 29 27 73t-27 73t-73 29t-73 -29t-27 -73t27 -73t73 -29t73 29z" />
    <glyph glyph-name="perthousand.tf" 
d="M390 675l-306 -692l-24 12l307 692zM214 388.5q-32 -47.5 -88 -47.5t-88.5 47.5t-32.5 122.5t32.5 122.5t88.5 47.5t88 -47.5t32 -122.5t-32 -122.5zM81 431q16 -30 45 -30t45 30t16 80t-16 79.5t-45 29.5t-45 -29.5t-16 -79.5t16 -80zM602.5 289.5
q32.5 -47.5 32.5 -122.5t-32.5 -122.5t-88.5 -47.5q-58 0 -91 52q-34 -52 -92 -52q-56 0 -88.5 47.5t-32.5 122.5t32.5 122.5t88.5 47.5q58 0 92 -53q32 53 91 53q56 0 88.5 -47.5zM376.5 87q16.5 30 16.5 80t-16.5 79.5t-45.5 29.5q-28 0 -44.5 -30t-16.5 -79t16.5 -79.5
t44.5 -30.5q29 0 45.5 30zM559 87q16 30 16 80t-16 79.5t-45 29.5t-45 -29.5t-16 -79.5t16 -80t45 -30t45 30z" />
    <glyph glyph-name="zero.zero" horiz-adv-x="609" 
d="M496.5 602.5q65.5 -89.5 65.5 -261.5q0 -173 -65.5 -262.5t-191.5 -89.5t-191.5 89.5t-65.5 262.5q0 172 65.5 261.5t191.5 89.5t191.5 -89.5zM183 127l200 466q-32 19 -78 19q-171 0 -171 -271q0 -147 49 -214zM475 341q0 147 -50 215l-200 -467q34 -20 80 -20
q170 0 170 272z" />
    <glyph glyph-name="zero" unicode="0" horiz-adv-x="609" 
d="M113.5 78.5q-65.5 89.5 -65.5 262.5q0 172 65.5 261.5t191.5 89.5t191.5 -89.5t65.5 -261.5q0 -173 -65.5 -262.5t-191.5 -89.5t-191.5 89.5zM475 341q0 271 -170 271q-171 0 -171 -271q0 -272 171 -272q170 0 170 272z" />
    <glyph glyph-name="one" unicode="1" horiz-adv-x="379" 
d="M178 487h-142v77q61 0 93 11t44 35.5t12 69.5h83v-680h-90v487z" />
    <glyph glyph-name="two" unicode="2" horiz-adv-x="569" 
d="M92 183q39 70 130 117l104 55q94 49 94 142q0 51 -33 82.5t-86 31.5q-66 0 -102.5 -41t-36.5 -116h-94q0 71 28.5 125t81.5 83t123 29q99 0 157 -51t58 -139q0 -64 -34 -117t-99 -88l-103 -55q-63 -34 -88.5 -67.5t-32.5 -91.5h357v-82h-463q0 113 39 183z" />
    <glyph glyph-name="three" unicode="3" horiz-adv-x="563" 
d="M103.5 48.5q-64.5 59.5 -64.5 165.5h92q0 -70 40 -109t111 -39q62 0 100.5 34t38.5 90q0 60 -37 92.5t-107 32.5h-50v78h51q62 0 94.5 29.5t32.5 84.5q0 48 -34.5 78t-90.5 30q-62 0 -99 -34.5t-37 -93.5h-89q0 93 61 148.5t164 55.5q64 0 113.5 -23t77 -64.5t27.5 -96.5
q0 -58 -32 -96.5t-93 -54.5q62 -8 101 -54.5t39 -111.5q0 -59 -29.5 -104.5t-82 -71t-119.5 -25.5q-114 0 -178.5 59.5z" />
    <glyph glyph-name="four" unicode="4" horiz-adv-x="574" 
d="M535 220h-106v-220h-90v220h-274v460h90v-378h184v201h90v-201h106v-82z" />
    <glyph glyph-name="five" unicode="5" horiz-adv-x="576" 
d="M178 13q-51 24 -81.5 66.5t-33.5 96.5h92q3 -49 41.5 -77.5t97.5 -28.5q70 0 110 43t40 117q0 72 -37 114t-101 42q-56 0 -91 -20.5t-55 -66.5h-84v381h414v-81h-331v-210q26 35 67 53t92 18q98 0 155.5 -61.5t57.5 -165.5q0 -70 -29.5 -125.5t-83.5 -87t-126 -31.5
q-63 0 -114 24z" />
    <glyph glyph-name="six" unicode="6" horiz-adv-x="568" 
d="M410.5 441q54.5 -32 83.5 -87.5t29 -123.5q0 -67 -29 -122.5t-83.5 -87.5t-127.5 -32t-127 32t-83.5 87.5t-29.5 122.5q0 91 51 156l207 294h109l-152 -208q8 1 25 1q73 0 127.5 -32zM395.5 112.5q41.5 46.5 41.5 117.5q0 72 -41.5 118.5t-112.5 46.5t-112 -46.5
t-41 -118.5q0 -71 41 -117.5t112 -46.5t112.5 46.5z" />
    <glyph glyph-name="seven" unicode="7" horiz-adv-x="513" 
d="M376 596h-331v84h468l-352 -680h-101z" />
    <glyph glyph-name="eight" unicode="8" horiz-adv-x="578" 
d="M163 13q-54 24 -83.5 69t-29.5 104q0 63 31.5 106.5t88.5 59.5q-51 16 -80.5 59t-29.5 100q0 53 29 94t81 63.5t119 22.5t119 -22.5t81 -63.5t29 -94q0 -57 -30 -100t-81 -59q57 -16 89 -59.5t32 -106.5q0 -59 -29.5 -104t-83.5 -69t-126 -24t-126 24zM388.5 420
q36.5 31 36.5 82q0 53 -37 84t-99 31t-99 -31t-37 -84q0 -51 38 -82t98 -31q63 0 99.5 31zM395.5 100.5q40.5 34.5 40.5 91.5t-40 91t-107 34q-64 0 -105 -34.5t-41 -90.5q0 -57 40 -91.5t106 -34.5t106.5 34.5z" />
    <glyph glyph-name="nine" unicode="9" horiz-adv-x="555" 
d="M144.5 239q-54.5 32 -83.5 87.5t-29 123.5q0 67 29 122.5t83.5 87.5t127.5 32t127 -32t83.5 -87.5t29.5 -122.5q0 -91 -51 -156l-207 -294h-109l152 208q-8 -1 -25 -1q-73 0 -127.5 32zM159.5 567.5q-41.5 -46.5 -41.5 -117.5q0 -72 41.5 -118.5t112.5 -46.5t112 46.5
t41 118.5q0 71 -41 117.5t-112 46.5t-112.5 -46.5z" />
    <glyph glyph-name="zero.tf.zero" 
d="M448 658.5q57 -32.5 89 -89.5t32 -126v-215q0 -67 -32 -122t-89 -86.5t-128 -31.5t-128 31.5t-89 86.5t-32 122v215q0 69 32 126t89 89.5t128 32.5t128 -32.5zM162 228q0 -58 32 -98l199 462q-34 17 -73 17q-46 0 -82 -21.5t-56 -59.5t-20 -85v-215zM478 443
q0 62 -35 108l-199 -463q33 -18 76 -18q46 0 82 21t56 57t20 80v215z" />
    <glyph glyph-name="zero.tf" 
d="M192 19.5q-57 31.5 -89 86.5t-32 122v215q0 69 32 126t89 89.5t128 32.5t128 -32.5t89 -89.5t32 -126v-215q0 -67 -32 -122t-89 -86.5t-128 -31.5t-128 31.5zM402 91q36 21 56 57t20 80v215q0 47 -20 85t-56 59.5t-82 21.5t-82 -21.5t-56 -59.5t-20 -85v-215
q0 -44 20 -80t56 -57t82 -21t82 21z" />
    <glyph glyph-name="one.tf" 
d="M572 82v-82h-504v82h209v405h-182v77h23q83 0 123.5 26.5t47.5 89.5h79v-598h204z" />
    <glyph glyph-name="two.tf" 
d="M105 183.5q44 69.5 147 116.5l119 55q107 48 107 142q0 51 -39 83t-101 32q-77 0 -120.5 -41.5t-43.5 -116.5h-96q0 72 32 126t91 83t137 29q109 0 173.5 -51.5t64.5 -139.5q0 -66 -37.5 -120.5t-109.5 -88.5l-118 -56q-51 -24 -79.5 -44.5t-42.5 -45.5t-19 -64h415v-82
h-524q0 114 44 183.5z" />
    <glyph glyph-name="three.tf" 
d="M131 49q-71 60 -71 165h95q0 -70 45.5 -109t125.5 -39q72 0 115.5 34t43.5 90q0 60 -42.5 92.5t-121.5 32.5h-56v78h57q70 0 108 29.5t38 84.5q0 48 -40 78.5t-104 30.5q-71 0 -113 -34.5t-42 -94.5h-92q0 62 30 108.5t86 71.5t130 25q71 0 125.5 -23t84.5 -65t30 -97
q0 -58 -36 -96.5t-104 -54.5q68 -8 112 -54.5t44 -111.5q0 -59 -32 -104.5t-89.5 -71t-131.5 -25.5q-124 0 -195 60z" />
    <glyph glyph-name="four.tf" 
d="M577 220h-139v-220h-93v220h-282v460h92v-378h190v201h93v-201h139v-82z" />
    <glyph glyph-name="five.tf" 
d="M136.5 39q-68.5 50 -73.5 137h93q4 -49 47 -77.5t110 -28.5q80 0 125.5 43t45.5 116q0 71 -42.5 112t-117.5 41q-60 0 -99.5 -20t-61.5 -63h-86v381h473v-81h-389v-210q28 36 74 53.5t103 17.5q73 0 127 -28t83 -79.5t29 -120.5q0 -72 -32.5 -127t-92.5 -85.5t-141 -30.5
q-106 0 -174.5 50z" />
    <glyph glyph-name="six.tf" 
d="M458 441.5q59 -31.5 91 -87t32 -124.5t-32 -124t-91 -86.5t-138 -31.5t-138 31.5t-91 86.5t-32 124q0 84 47 147l233 303h111l-168 -209q26 2 39 2q78 0 137 -31.5zM446 112q47 46 47 118q0 73 -47 119t-126 46t-126 -46t-47 -119q0 -72 47 -118t126 -46t126 46z" />
    <glyph glyph-name="seven.tf" 
d="M445 596h-383v84h526l-395 -680h-102z" />
    <glyph glyph-name="eight.tf" 
d="M185.5 13q-57.5 24 -89 69t-31.5 104q0 64 35.5 107t102.5 59q-60 15 -93.5 58.5t-33.5 100.5q0 53 30.5 94t86 63.5t127.5 22.5t127.5 -22.5t86 -63.5t30.5 -94q0 -57 -34.5 -100t-94.5 -59q67 -16 103.5 -59.5t36.5 -106.5q0 -59 -31.5 -104t-89 -69t-134.5 -24
t-134.5 24zM429.5 420q40.5 31 40.5 82q0 53 -40.5 84t-109.5 31t-109.5 -31t-40.5 -84q0 -51 41.5 -82t108.5 -31q69 0 109.5 31zM437.5 100.5q44.5 34.5 44.5 91.5t-44.5 91t-117.5 34q-71 0 -116.5 -34.5t-45.5 -90.5q0 -57 44.5 -91.5t117.5 -34.5t117.5 34.5z" />
    <glyph glyph-name="nine.tf" 
d="M182 238.5q-59 31.5 -91 87t-32 124.5t32 124t91 86.5t138 31.5t138 -31.5t91 -86.5t32 -124q0 -84 -47 -147l-233 -303h-111l168 209q-26 -2 -39 -2q-78 0 -137 31.5zM194 568q-47 -46 -47 -118q0 -73 47 -119t126 -46t126 46t47 119q0 72 -47 118t-126 46t-126 -46z
" />
    <glyph glyph-name="uni03BC" unicode="&#x3bc;" horiz-adv-x="567" 
d="M492 461v-461h-87v84q-19 -44 -59.5 -70t-95.5 -26q-57 0 -88 31v-232h-87v674h87v-264q0 -134 112 -134q66 0 98.5 42t32.5 104v252h87z" />
    <glyph glyph-name="uni02BC" unicode="&#x2bc;" horiz-adv-x="276" 
d="M193 712q26 -28 26 -80q0 -59 -31.5 -95.5t-88.5 -36.5q-24 0 -32 2v40q12 -2 31 -2t33.5 9t22.5 24q13 22 13 50q-12 -15 -38 -15q-27 0 -45.5 18t-18.5 47t19.5 48t49.5 19q33 0 59 -28z" />
    <glyph glyph-name="eth" unicode="&#xf0;" horiz-adv-x="555" 
d="M518 230q0 -67 -29.5 -122.5t-83.5 -87.5t-127 -32t-127.5 32t-83.5 87.5t-29 122.5q0 72 31 127t87 85.5t128 30.5q12 0 18 -1l-54 78l-86 -47l-26 48l81 43l-73 106h109l43 -63l81 43l26 -45l-77 -42l145 -212q47 -64 47 -151zM390 112.5q41 46.5 41 117.5
q0 72 -41 118.5t-112 46.5t-112.5 -46.5t-41.5 -118.5q0 -71 41.5 -117.5t112.5 -46.5t112 46.5z" />
    <glyph glyph-name="numbersign" unicode="#" horiz-adv-x="537" 
d="M118 209h-95v68h105l20 146h-95v68h104l29 209h72l-29 -209h126l29 209h72l-29 -209h88v-68h-98l-20 -146h88v-68h-98l-29 -209h-71l29 209h-127l-29 -209h-71zM326 277l20 146h-127l-20 -146h127z" />
    <glyph glyph-name="uni2116" unicode="&#x2116;" horiz-adv-x="1113" 
d="M80 700h97l315 -548v548h87v-700h-96l-316 548v-548h-87v700zM727 140.5q-45 26.5 -69.5 71t-24.5 97.5t24.5 97.5t69.5 71t105 26.5t106 -26.5t70.5 -71t24.5 -97.5t-24.5 -97.5t-70.5 -71t-106 -26.5t-105 26.5zM915 224.5q32 34.5 32 84.5t-32 84.5t-83 34.5
q-50 0 -81.5 -34.5t-31.5 -84.5t31.5 -84.5t81.5 -34.5q51 0 83 34.5zM633 78h400v-78h-400v78z" />
    <glyph glyph-name="uni0394" unicode="&#x394;" horiz-adv-x="584" 
d="M259 700h66l241 -700h-548zM440 82l-148 469l-148 -469h296z" />
    <glyph glyph-name="uni03A9" unicode="&#x3a9;" horiz-adv-x="702" 
d="M58 82h183v28q-93 32 -148 110.5t-55 178.5q0 85 38 156.5t109 114t166 42.5t166 -42.5t109 -114t38 -156.5q0 -100 -55 -179t-148 -111v-27h183v-82h-255v159q88 18 136 85.5t48 157.5q0 63 -26 115t-76 82.5t-120 30.5t-120 -30.5t-76 -82.5t-26 -115
q0 -90 47.5 -157.5t136.5 -85.5v-159h-255v82z" />
    <glyph glyph-name="pi" unicode="&#x3c0;" horiz-adv-x="629" 
d="M137 377h-62v77h479v-77h-63v-377h-87v377h-180v-377h-87v377z" />
    <glyph glyph-name="periodcentered" unicode="&#xb7;" horiz-adv-x="286" 
d="M91 261.5q-21 21.5 -21 51.5t21 51t51 21q31 0 52.5 -21t21.5 -51t-21.5 -51.5t-52.5 -21.5q-30 0 -51 21.5z" />
    <glyph glyph-name="braceleft" unicode="{" horiz-adv-x="314" 
d="M184.5 -177.5q-30.5 15.5 -50 47t-19.5 76.5v197q0 31 -15.5 51.5t-37 30t-39.5 9.5v72q18 0 39.5 9.5t37 30t15.5 51.5v197q0 45 19.5 76.5t50 47t64.5 15.5h59v-69h-47q-35 0 -51 -24t-16 -62v-192q0 -55 -29.5 -81.5t-64.5 -34.5q35 -8 64.5 -34.5t29.5 -81.5v-192
q0 -38 16 -62t51 -24h47v-69h-59q-34 0 -64.5 15.5z" />
    <glyph glyph-name="braceright" unicode="}" horiz-adv-x="314" 
d="M129.5 -177.5q30.5 15.5 50 47t19.5 76.5v197q0 31 15.5 51.5t37 30t39.5 9.5v72q-18 0 -39.5 9.5t-37 30t-15.5 51.5v197q0 45 -19.5 76.5t-50 47t-64.5 15.5h-59v-69h47q35 0 51 -24t16 -62v-192q0 -55 29.5 -81.5t64.5 -34.5q-35 -8 -64.5 -34.5t-29.5 -81.5v-192
q0 -38 -16 -62t-51 -24h-47v-69h59q34 0 64.5 15.5z" />
    <glyph glyph-name="uni00AD" unicode="&#xad;" horiz-adv-x="410" 
d="M53 301h305v-78h-305v78z" />
    <glyph glyph-name="guillemotleft" unicode="&#xab;" horiz-adv-x="498" 
d="M6 261l207 192l49 -50l-152 -142l152 -142l-49 -50zM228 261l207 192l49 -50l-152 -142l152 -142l-49 -50z" />
    <glyph glyph-name="guillemotright" unicode="&#xbb;" horiz-adv-x="498" 
d="M492 261l-207 192l-49 -50l152 -142l-152 -142l49 -50zM270 261l-207 192l-49 -50l152 -142l-152 -142l49 -50z" />
    <glyph glyph-name="plus" unicode="+" horiz-adv-x="504" 
d="M211 276h-158v77h158v161h82v-161h158v-77h-158v-160h-82v160z" />
    <glyph glyph-name="minus" unicode="&#x2212;" horiz-adv-x="504" 
d="M53 353h398v-77h-398v77z" />
    <glyph glyph-name="plusminus" unicode="&#xb1;" horiz-adv-x="504" 
d="M208 389h-155v77h155v112h87v-112h156v-77h-156v-110h-87v110zM53 219h398v-77h-398v77z" />
    <glyph glyph-name="multiply" unicode="&#xd7;" horiz-adv-x="486" 
d="M298 315l135 -136l-55 -55l-135 136l-135 -135l-55 54l135 136l-135 135l54 55l136 -136l136 136l55 -54z" />
    <glyph glyph-name="divide" unicode="&#xf7;" horiz-adv-x="504" 
d="M203 420.5q-20 20.5 -20 49.5t20 49.5t49 20.5t49.5 -20.5t20.5 -49.5t-20.5 -49.5t-49.5 -20.5t-49 20.5zM53 350h398v-77h-398v77zM203 109.5q-20 20.5 -20 49.5t20 49.5t49 20.5t49.5 -20.5t20.5 -49.5t-20.5 -49.5t-49.5 -20.5t-49 20.5z" />
    <glyph glyph-name="equal" unicode="=" horiz-adv-x="529" 
d="M53 441h424v-78h-424v78zM53 264h424v-78h-424v78z" />
    <glyph glyph-name="less" unicode="&#x3c;" horiz-adv-x="500" 
d="M53 285v63l394 173v-82l-274 -122l274 -123v-82z" />
    <glyph glyph-name="greater" unicode="&#x3e;" horiz-adv-x="500" 
d="M447 285v63l-394 173v-82l274 -122l-274 -123v-82z" />
    <glyph glyph-name="degree" unicode="&#xb0;" horiz-adv-x="358" 
d="M101 404.5q-35 20.5 -55.5 56t-20.5 77.5q0 43 20.5 78t55.5 55.5t78 20.5t78 -20.5t55.5 -55.5t20.5 -78q0 -42 -20.5 -77.5t-55.5 -56t-78 -20.5t-78 20.5zM241 476q23 25 23 62t-23 62t-62 25t-62 -25t-23 -62t23 -62t62 -25t62 25z" />
    <glyph glyph-name="approxequal" unicode="&#x2248;" horiz-adv-x="530" 
d="M320.5 327q-21.5 8 -53.5 25q-35 18 -58 26.5t-52 8.5q-51 0 -104 -53v76q22 27 50.5 40.5t56.5 13.5q24 0 50.5 -9.5t64.5 -27.5q34 -16 55.5 -23.5t38.5 -7.5q51 0 108 55v-76q-24 -29 -52.5 -42.5t-56.5 -13.5q-26 0 -47.5 8zM321.5 168q-21.5 8 -53.5 25
q-35 18 -58 26.5t-52 8.5q-51 0 -104 -53v76q22 27 50.5 40.5t56.5 13.5q23 0 49 -9.5t66 -27.5q35 -16 55.5 -23.5t37.5 -7.5q50 0 109 55v-76q-23 -29 -52 -42.5t-58 -13.5q-25 0 -46.5 8z" />
    <glyph glyph-name="greaterequal" unicode="&#x2265;" horiz-adv-x="504" 
d="M55 299l259 68l-259 66v83l394 -119v-62l-394 -118v82zM53 159h398v-78h-398v78z" />
    <glyph glyph-name="infinity" unicode="&#x221e;" horiz-adv-x="878" 
d="M142.5 115q-45.5 28 -69 74.5t-23.5 99.5t23.5 99.5t69 74.5t110.5 28q51 0 100 -30t86 -89q36 59 85 89t100 30q65 0 111 -27.5t69.5 -73.5t23.5 -101t-23.5 -101t-69.5 -73.5t-111 -27.5q-52 0 -100.5 30t-84.5 89q-37 -59 -85.5 -89t-100.5 -30q-65 0 -110.5 28z
M330 196q38 31 64 93q-27 61 -65 92.5t-76 31.5q-57 0 -89 -36t-32 -88t32 -88t89 -36q39 0 77 31zM713.5 201q32.5 36 32.5 88t-32.5 88t-89.5 36q-38 0 -76 -31.5t-64 -92.5q26 -62 63.5 -93t76.5 -31q57 0 89.5 36z" />
    <glyph glyph-name="lessequal" unicode="&#x2264;" horiz-adv-x="504" 
d="M449 299l-259 68l259 66v83l-394 -119v-62l394 -118v82zM451 159h-398v-78h398v78z" />
    <glyph glyph-name="logicalnot" unicode="&#xac;" horiz-adv-x="504" 
d="M365 348h-312v78h398v-227h-86v149z" />
    <glyph glyph-name="notequal" unicode="&#x2260;" horiz-adv-x="529" 
d="M323 363l-44 -99h198v-78h-234l-47 -104h-72l47 104h-118v78h153l45 99h-198v78h233l47 104h73l-47 -104h118v-78h-154z" />
    <glyph glyph-name="integral" unicode="&#x222b;" horiz-adv-x="366" 
d="M50 -205v73q26 -9 44 -9q46 0 46 62v741q0 68 27.5 100t69.5 32q55 0 79 -12v-73q-26 9 -44 9q-46 0 -46 -62v-740q0 -69 -27.5 -101t-69.5 -32q-50 0 -79 12z" />
    <glyph glyph-name="partialdiff" unicode="&#x2202;" horiz-adv-x="576" 
d="M462.5 627q63.5 -89 63.5 -287q0 -185 -60 -270.5t-182 -85.5q-79 0 -131.5 31t-77.5 82.5t-25 111.5q0 66 28 118.5t79.5 83t117.5 30.5q48 0 91 -17t74 -52q-2 99 -20.5 156.5t-52.5 82.5t-87 25q-68 0 -102 -38t-34 -97h-91q0 60 26.5 109t77.5 77.5t121 28.5
q121 0 184.5 -89zM398 118q36 55 41 172q-27 36 -67.5 54t-85.5 18q-75 0 -113 -43.5t-38 -110.5q0 -62 35.5 -103.5t109.5 -41.5q82 0 118 55z" />
    <glyph glyph-name="product" unicode="&#x220f;" horiz-adv-x="720" 
d="M112 713h-62v81h620v-81h-62v-926h-92v926h-312v-926h-92v926z" />
    <glyph glyph-name="radical" unicode="&#x221a;" horiz-adv-x="780" 
d="M168 176h-118v77h182l106 -316l296 857h96l-359 -1007h-66z" />
    <glyph glyph-name="summation" unicode="&#x2211;" horiz-adv-x="620" 
d="M50 -131l358 422l-358 422v81h520v-85h-405l358 -418l-358 -418h405v-86h-520v82z" />
    <glyph glyph-name="lozenge" unicode="&#x25ca;" horiz-adv-x="565" 
d="M50 396l194 398h78l193 -398l-193 -396h-78zM425 396l-142 304l-143 -304l142 -304z" />
    <glyph glyph-name="paragraph" unicode="&#xb6;" horiz-adv-x="667" 
d="M266 329q-97 0 -156.5 48.5t-59.5 142.5q0 116 76.5 156.5t172.5 40.5h318v-72h-53v-793h-82v792h-134v-792h-82v477z" />
    <glyph glyph-name="section" unicode="&#xa7;" horiz-adv-x="552" 
d="M400 99q39 -26 61 -62.5t22 -90.5q0 -80 -58 -125t-155 -45q-107 0 -163 51.5t-56 135.5h93q0 -51 32 -80.5t94 -29.5q56 0 87 24t31 68q0 38 -20.5 63.5t-51.5 42t-82 35.5q-59 23 -94 42.5t-60 53t-25 84.5q0 89 93 133q-37 25 -58 60.5t-21 86.5q0 50 26.5 89t75 60.5
t110.5 21.5q107 0 163.5 -51.5t56.5 -136.5h-95q0 52 -31 82t-93 30q-56 0 -87 -24.5t-31 -68.5q0 -38 20.5 -63t50.5 -40.5t83 -35.5q58 -22 93.5 -41t60 -51.5t24.5 -82.5q0 -91 -96 -135zM407 229q0 30 -18.5 51t-46 34t-76.5 31l-42 16q-78 -28 -78 -90q0 -30 18 -51
t45 -35t75 -32l41 -16q82 29 82 92z" />
    <glyph glyph-name="asciicircum" unicode="^" horiz-adv-x="553" 
d="M244 703h62l197 -400h-98l-130 290l-130 -290h-95z" />
    <glyph glyph-name="daggerdbl" unicode="&#x2021;" horiz-adv-x="434" 
d="M174 9h-124v76h124v296h-124v75h124v261h87v-261h123v-75h-123v-296h123v-76h-123v-191h-87v191z" />
    <glyph glyph-name="uni0243" unicode="&#x243;" horiz-adv-x="582" 
d="M491 61.5q-46 -47.5 -127 -58.5v-102h-66v99h-60v-99h-66v99h-92v681h92v99h66v-99h60v99h66v-103q78 -12 121 -57t43 -116q0 -67 -35 -107t-97 -50q60 -6 100.5 -49.5t40.5 -112.5q0 -76 -46 -123.5zM171 601v-216h142q57 0 90.5 29t33.5 79q0 51 -34.5 79.5t-95.5 28.5
h-136zM411.5 110.5q34.5 30.5 34.5 84.5q0 49 -33.5 80t-86.5 31h-155v-226h147q59 0 93.5 30.5z" />
    <glyph glyph-name="uni00A40301" horiz-adv-x="536" 
d="M308 791l218 103l31 -59l-217 -104zM84 48.5q-61 64.5 -61 173.5h91q0 -72 36.5 -114t98.5 -42q63 0 98.5 42.5t35.5 115.5v476h91v-476q0 -111 -60 -175.5t-165 -64.5q-104 0 -165 64.5z" />
    <glyph glyph-name="uni0243.case" horiz-adv-x="582" 
d="M491 63q-46 -49 -127 -60v-105h-66v102h-60v-102h-66v102h-92v700h92v102h66v-102h60v102h66v-106q78 -12 121 -58t43 -119q0 -69 -35 -110.5t-97 -51.5q60 -7 100.5 -51.5t40.5 -115.5q0 -78 -46 -127zM171 620v-226h142q56 0 90 31t34 83q0 53 -34.5 82.5t-95.5 29.5
h-136zM412 112.5q34 31.5 34 87.5q0 51 -33.5 83t-86.5 32h-155v-234h147q60 0 94 31.5z" />
    <glyph glyph-name="uni0243.tf" 
d="M502 61.5q-46 -47.5 -127 -58.5v-102h-66v99h-60v-99h-66v99h-92v681h92v99h66v-99h60v99h66v-103q78 -11 121 -56t43 -117q0 -67 -35 -107t-97 -50q60 -6 100.5 -49.5t40.5 -112.5q0 -76 -46 -123.5zM182 601v-216h142q57 0 90.5 29t33.5 79q0 51 -34.5 79.5t-95.5 28.5
h-136zM423 110.5q34 30.5 34 84.5q0 49 -33.5 80t-86.5 31h-155v-226h148q59 0 93 30.5z" />
    <glyph glyph-name="uni0243.tf.tf.case" 
d="M502 63q-46 -49 -127 -60v-105h-66v102h-60v-102h-66v102h-92v700h92v102h66v-102h60v102h66v-106q78 -12 121 -58t43 -119q0 -69 -35 -110.5t-97 -51.5q60 -7 100.5 -51.5t40.5 -115.5q0 -78 -46 -127zM182 620v-226h142q56 0 90 31t34 83q0 53 -34.5 82.5t-95.5 29.5
h-136zM423 112.5q34 31.5 34 87.5q0 51 -33.5 83t-86.5 32h-155v-234h148q59 0 93 31.5z" />
    <glyph glyph-name="Y.ss02" horiz-adv-x="596" 
d="M252 285l-256 415h106l196 -328l197 328h105l-256 -415v-285h-92v285z" />
    <glyph glyph-name="Yacute.ss02" horiz-adv-x="596" 
d="M177 791l218 103l31 -59l-217 -104zM252 285l-256 415h106l196 -328l197 328h105l-256 -415v-285h-92v285z" />
    <glyph glyph-name="Ycircumflex.ss02" horiz-adv-x="596" 
d="M431 777l-46 -42l-89 81l-90 -81l-45 42l135 115zM252 285l-256 415h106l196 -328l197 328h105l-256 -415v-285h-92v285z" />
    <glyph glyph-name="Ydieresis.ss02" horiz-adv-x="596" 
d="M132 766.5q-19 19.5 -19 47.5t19 47.5t47 19.5t47.5 -19.5t19.5 -47.5t-19.5 -47.5t-47.5 -19.5t-47 19.5zM368.5 766.5q-19.5 19.5 -19.5 47.5t19.5 47.5t46.5 19.5q28 0 48 -19.5t20 -47.5t-20 -47.5t-48 -19.5q-27 0 -46.5 19.5zM252 285l-256 415h106l196 -328
l197 328h105l-256 -415v-285h-92v285z" />
    <glyph glyph-name="Ygrave.ss02" horiz-adv-x="596" 
d="M169 835l31 59l218 -103l-32 -60zM252 285l-256 415h106l196 -328l197 328h105l-256 -415v-285h-92v285z" />
    <glyph glyph-name="Adieresis.ss05" horiz-adv-x="590" 
d="M256 734h-72l87 111h72zM314 734l87 111h72l-87 -111h-72zM440 107h-291l-33 -107h-98l237 700h80l237 -700h-98zM415 189l-121 385l-119 -385h240z" />
    <glyph glyph-name="Edieresis.ss05" horiz-adv-x="545" 
d="M174 734l87 111h72l-87 -111h-72zM304 734l87 111h72l-87 -111h-72zM80 700h398v-82h-307v-229h307v-82h-307v-225h307v-82h-398v700z" />
    <glyph glyph-name="Odieresis.ss05" horiz-adv-x="797" 
d="M288 734l87 111h72l-87 -111h-72zM418 734l87 111h72l-87 -111h-72zM208 33.5q-82 49.5 -126 133t-44 183.5t44 183.5t126 133t191 49.5t191 -49.5t126 -133t44 -183.5t-44 -183.5t-126 -133t-191 -49.5t-191 49.5zM541 104.5q60 38.5 92 103t31 142.5q1 78 -31 142.5
t-92 103t-142 38.5t-142.5 -38.5t-92.5 -103t-31 -142.5q-1 -78 31 -142.5t92.5 -103t142.5 -38.5t142 38.5z" />
    <glyph glyph-name="Udieresis.ss05" horiz-adv-x="635" 
d="M206 734l87 111h72l-87 -111h-72zM336 734l87 111h72l-87 -111h-72zM131 48q-68 64 -68 182v470h91v-465q0 -82 43.5 -125.5t119.5 -43.5t120 43.5t44 125.5v465h91v-470q0 -118 -68.5 -182t-186.5 -64t-186 64z" />
    <glyph glyph-name="uni006A0301" horiz-adv-x="240" 
d="M27 576l150 99l40 -60l-150 -99zM-20 -208v79q19 -7 47 -7q51 0 51 62v535h87v-559q0 -58 -31.5 -89.5t-89.5 -31.5q-43 0 -64 11z" />
    <glyph glyph-name="a.ss03" horiz-adv-x="528" 
d="M87.5 25.5q-44.5 36.5 -44.5 101.5q0 72 53 109q25 19 67 29.5t108 13.5l101 4v27q0 46 -28.5 69t-80.5 23q-51 0 -82.5 -19.5t-34.5 -53.5h-87q6 64 58 104t149 40q101 0 146.5 -47t45.5 -141v-285h-87v70q-21 -38 -61.5 -59.5t-101.5 -21.5q-76 0 -120.5 36.5z
M334.5 94.5q37.5 35.5 37.5 97.5v27l-132 -8q-54 -3 -82.5 -23t-28.5 -57q0 -35 27 -53.5t75 -18.5q66 0 103.5 35.5z" />
    <glyph glyph-name="aacute.ss03" horiz-adv-x="528" 
d="M87.5 25.5q-44.5 36.5 -44.5 101.5q0 72 53 109q25 19 67 29.5t108 13.5l101 4v27q0 46 -28.5 69t-80.5 23q-51 0 -82.5 -19.5t-34.5 -53.5h-87q6 64 58 104t149 40q101 0 146.5 -47t45.5 -141v-285h-87v70q-21 -38 -61.5 -59.5t-101.5 -21.5q-76 0 -120.5 36.5z
M334.5 94.5q37.5 35.5 37.5 97.5v27l-132 -8q-54 -3 -82.5 -23t-28.5 -57q0 -35 27 -53.5t75 -18.5q66 0 103.5 35.5zM106 573l274 115l29 -65l-274 -117z" />
    <glyph glyph-name="abreve.ss03" horiz-adv-x="528" 
d="M87.5 25.5q-44.5 36.5 -44.5 101.5q0 72 53 109q25 19 67 29.5t108 13.5l101 4v27q0 46 -28.5 69t-80.5 23q-51 0 -82.5 -19.5t-34.5 -53.5h-87q6 64 58 104t149 40q101 0 146.5 -47t45.5 -141v-285h-87v70q-21 -38 -61.5 -59.5t-101.5 -21.5q-76 0 -120.5 36.5z
M334.5 94.5q37.5 35.5 37.5 97.5v27l-132 -8q-54 -3 -82.5 -23t-28.5 -57q0 -35 27 -53.5t75 -18.5q66 0 103.5 35.5zM142.5 548q-47.5 40 -51.5 110h74q3 -42 30.5 -64t69.5 -22q43 0 70.5 22t30.5 64h74q-5 -70 -52.5 -110t-122.5 -40t-122.5 40z" />
    <glyph glyph-name="acircumflex.ss03" horiz-adv-x="528" 
d="M87.5 25.5q-44.5 36.5 -44.5 101.5q0 72 53 109q25 19 67 29.5t108 13.5l101 4v27q0 46 -28.5 69t-80.5 23q-51 0 -82.5 -19.5t-34.5 -53.5h-87q6 64 58 104t149 40q101 0 146.5 -47t45.5 -141v-285h-87v70q-21 -38 -61.5 -59.5t-101.5 -21.5q-76 0 -120.5 36.5z
M334.5 94.5q37.5 35.5 37.5 97.5v27l-132 -8q-54 -3 -82.5 -23t-28.5 -57q0 -35 27 -53.5t75 -18.5q66 0 103.5 35.5zM441 552l-47 -52l-129 112l-127 -111l-47 51l174 146z" />
    <glyph glyph-name="adieresis.ss03" horiz-adv-x="528" 
d="M87.5 25.5q-44.5 36.5 -44.5 101.5q0 72 53 109q25 19 67 29.5t108 13.5l101 4v27q0 46 -28.5 69t-80.5 23q-51 0 -82.5 -19.5t-34.5 -53.5h-87q6 64 58 104t149 40q101 0 146.5 -47t45.5 -141v-285h-87v70q-21 -38 -61.5 -59.5t-101.5 -21.5q-76 0 -120.5 36.5z
M334.5 94.5q37.5 35.5 37.5 97.5v27l-132 -8q-54 -3 -82.5 -23t-28.5 -57q0 -35 27 -53.5t75 -18.5q66 0 103.5 35.5zM117.5 558.5q-19.5 19.5 -19.5 47.5t19.5 47.5t47.5 19.5t47.5 -19.5t19.5 -47.5t-19.5 -47.5t-47.5 -19.5t-47.5 19.5zM317.5 558.5
q-19.5 19.5 -19.5 47.5t19.5 47.5t47.5 19.5t47.5 -19.5t19.5 -47.5t-19.5 -47.5t-47.5 -19.5t-47.5 19.5z" />
    <glyph glyph-name="agrave.ss03" horiz-adv-x="528" 
d="M87.5 25.5q-44.5 36.5 -44.5 101.5q0 72 53 109q25 19 67 29.5t108 13.5l101 4v27q0 46 -28.5 69t-80.5 23q-51 0 -82.5 -19.5t-34.5 -53.5h-87q6 64 58 104t149 40q101 0 146.5 -47t45.5 -141v-285h-87v70q-21 -38 -61.5 -59.5t-101.5 -21.5q-76 0 -120.5 36.5z
M334.5 94.5q37.5 35.5 37.5 97.5v27l-132 -8q-54 -3 -82.5 -23t-28.5 -57q0 -35 27 -53.5t75 -18.5q66 0 103.5 35.5zM106 623l29 65l274 -115l-29 -67z" />
    <glyph glyph-name="amacron.ss03" horiz-adv-x="528" 
d="M87.5 25.5q-44.5 36.5 -44.5 101.5q0 72 53 109q25 19 67 29.5t108 13.5l101 4v27q0 46 -28.5 69t-80.5 23q-51 0 -82.5 -19.5t-34.5 -53.5h-87q6 64 58 104t149 40q101 0 146.5 -47t45.5 -141v-285h-87v70q-21 -38 -61.5 -59.5t-101.5 -21.5q-76 0 -120.5 36.5z
M334.5 94.5q37.5 35.5 37.5 97.5v27l-132 -8q-54 -3 -82.5 -23t-28.5 -57q0 -35 27 -53.5t75 -18.5q66 0 103.5 35.5zM106 625h318v-70h-318v70z" />
    <glyph glyph-name="aogonek.ss03" horiz-adv-x="528" 
d="M87.5 25.5q-44.5 36.5 -44.5 101.5q0 72 53 109q25 19 67 29.5t108 13.5l101 4v27q0 46 -28.5 69t-80.5 23q-51 0 -82.5 -19.5t-34.5 -53.5h-87q6 64 58 104t149 40q101 0 146.5 -47t45.5 -141v-285h-87v70q-21 -38 -61.5 -59.5t-101.5 -21.5q-76 0 -120.5 36.5z
M334.5 94.5q37.5 35.5 37.5 97.5v27l-132 -8q-54 -3 -82.5 -23t-28.5 -57q0 -35 27 -53.5t75 -18.5q66 0 103.5 35.5zM318.5 -184q-31.5 28 -31.5 70q0 33 21.5 62t63.5 52h86q-48 -10 -70 -34.5t-22 -53.5q0 -26 16.5 -42t44.5 -16q29 0 56 13v-64q-39 -15 -80 -15
q-53 0 -84.5 28z" />
    <glyph glyph-name="aring.ss03" horiz-adv-x="528" 
d="M87.5 25.5q-44.5 36.5 -44.5 101.5q0 72 53 109q25 19 67 29.5t108 13.5l101 4v27q0 46 -28.5 69t-80.5 23q-51 0 -82.5 -19.5t-34.5 -53.5h-87q6 64 58 104t149 40q101 0 146.5 -47t45.5 -141v-285h-87v70q-21 -38 -61.5 -59.5t-101.5 -21.5q-76 0 -120.5 36.5z
M334.5 94.5q37.5 35.5 37.5 97.5v27l-132 -8q-54 -3 -82.5 -23t-28.5 -57q0 -35 27 -53.5t75 -18.5q66 0 103.5 35.5zM186 531q-32 31 -32 78t32 78t79 31t79 -31t32 -78t-32 -78t-79 -31t-79 31zM308.5 563q17.5 18 17.5 46t-17.5 46t-43.5 18t-43.5 -18t-17.5 -46
t17.5 -46t43.5 -18t43.5 18z" />
    <glyph glyph-name="atilde.ss03" horiz-adv-x="528" 
d="M87.5 25.5q-44.5 36.5 -44.5 101.5q0 72 53 109q25 19 67 29.5t108 13.5l101 4v27q0 46 -28.5 69t-80.5 23q-51 0 -82.5 -19.5t-34.5 -53.5h-87q6 64 58 104t149 40q101 0 146.5 -47t45.5 -141v-285h-87v70q-21 -38 -61.5 -59.5t-101.5 -21.5q-76 0 -120.5 36.5z
M334.5 94.5q37.5 35.5 37.5 97.5v27l-132 -8q-54 -3 -82.5 -23t-28.5 -57q0 -35 27 -53.5t75 -18.5q66 0 103.5 35.5zM303 539q-17 8 -42 23q-23 14 -36.5 20t-27.5 6q-18 0 -35 -9t-36 -33l-33 46q40 67 99 67q19 0 36.5 -7.5t40.5 -22.5q25 -14 38 -20t28 -6
q19 0 35.5 9.5t33.5 31.5l33 -46q-38 -67 -97 -67q-20 0 -37 8z" />
    <glyph glyph-name="y.ss04" horiz-adv-x="492" 
d="M51.5 -223q-11.5 2 -26.5 7v82q26 -9 54 -9q37 0 65.5 20.5t43.5 62.5l16 41l-193 480h90l152 -384l135 384h93l-211 -542q-30 -80 -77.5 -112t-112.5 -32q-17 0 -28.5 2z" />
    <glyph glyph-name="yacute.ss04" horiz-adv-x="492" 
d="M51.5 -223q-11.5 2 -26.5 7v82q26 -9 54 -9q37 0 65.5 20.5t43.5 62.5l16 41l-193 480h90l152 -384l135 384h93l-211 -542q-30 -80 -77.5 -112t-112.5 -32q-17 0 -28.5 2zM89 573l274 115l29 -65l-274 -117z" />
    <glyph glyph-name="ycircumflex.ss04" horiz-adv-x="492" 
d="M51.5 -223q-11.5 2 -26.5 7v82q26 -9 54 -9q37 0 65.5 20.5t43.5 62.5l16 41l-193 480h90l152 -384l135 384h93l-211 -542q-30 -80 -77.5 -112t-112.5 -32q-17 0 -28.5 2zM424 552l-47 -52l-129 112l-127 -111l-47 51l174 146z" />
    <glyph glyph-name="ydieresis.ss04" horiz-adv-x="492" 
d="M51.5 -223q-11.5 2 -26.5 7v82q26 -9 54 -9q37 0 65.5 20.5t43.5 62.5l16 41l-193 480h90l152 -384l135 384h93l-211 -542q-30 -80 -77.5 -112t-112.5 -32q-17 0 -28.5 2zM100.5 558.5q-19.5 19.5 -19.5 47.5t19.5 47.5t47.5 19.5t47.5 -19.5t19.5 -47.5t-19.5 -47.5
t-47.5 -19.5t-47.5 19.5zM300.5 558.5q-19.5 19.5 -19.5 47.5t19.5 47.5t47.5 19.5t47.5 -19.5t19.5 -47.5t-19.5 -47.5t-47.5 -19.5t-47.5 19.5z" />
    <glyph glyph-name="ygrave.ss04" horiz-adv-x="492" 
d="M51.5 -223q-11.5 2 -26.5 7v82q26 -9 54 -9q37 0 65.5 20.5t43.5 62.5l16 41l-193 480h90l152 -384l135 384h93l-211 -542q-30 -80 -77.5 -112t-112.5 -32q-17 0 -28.5 2zM89 623l29 65l274 -115l-29 -67z" />
    <glyph glyph-name="a.sups" horiz-adv-x="369" 
d="M60 433.5q-37 39.5 -37 100.5t38 101.5t99 40.5q35 0 61.5 -15t38.5 -40v47h71v-268h-71v47q-12 -24 -39 -38.5t-62 -14.5q-62 0 -99 39.5zM239.5 476q23.5 24 23.5 58q0 35 -23.5 58.5t-61.5 23.5q-37 0 -60 -23.5t-23 -58.5t23 -58.5t60 -23.5q38 0 61.5 24z" />
    <glyph glyph-name="b.sups" horiz-adv-x="369" 
d="M308.5 636.5q37.5 -39.5 37.5 -102.5q0 -62 -38 -101t-98 -39q-34 0 -61.5 15t-40.5 38v-47h-70v394h70v-173q14 25 42 40t62 15q59 0 96.5 -39.5zM250.5 475q23.5 23 23.5 59t-23.5 59t-59.5 23q-38 0 -62 -23t-24 -59q0 -35 24.5 -58.5t61.5 -23.5q36 0 59.5 23z" />
    <glyph glyph-name="c.sups" horiz-adv-x="337" 
d="M63 433q-41 39 -41 102t41 101.5t108 38.5q61 0 99.5 -29.5t44.5 -80.5h-71q-11 51 -73 51q-36 0 -57.5 -22t-21.5 -59q0 -38 21.5 -60t57.5 -22q62 0 73 51h71q-6 -51 -44.5 -80.5t-99.5 -29.5q-67 0 -108 39z" />
    <glyph glyph-name="d.sups" horiz-adv-x="370" 
d="M331 794v-394h-71v47q-12 -24 -39 -38.5t-62 -14.5q-62 0 -98.5 39.5t-36.5 100.5t38 101.5t99 40.5q34 0 60.5 -15t38.5 -40v173h71zM240 476q23 24 23 58q0 35 -23 58.5t-61 23.5t-61 -23.5t-23 -58.5t23 -58.5t61 -23.5t61 24z" />
    <glyph glyph-name="e.sups" horiz-adv-x="338" 
d="M313 518h-221q0 -33 22 -52t58 -19q27 0 45 9t25 25h69q-7 -40 -45 -64t-93 -24q-69 0 -110 38t-41 104q0 64 41 102.5t108 38.5q64 0 104 -35t40 -91q0 -19 -2 -32zM246 560q0 32 -20 50.5t-55 18.5q-34 0 -55.5 -19t-23.5 -50h154z" />
    <glyph glyph-name="f.sups" horiz-adv-x="230" 
d="M149 733.5q-13 -10.5 -13 -36.5v-30h80v-52h-80v-215h-71v215h-53v52h53v29q0 49 29 76t73 27q31 0 49 -7v-51q-17 3 -31 3q-23 0 -36 -10.5z" />
    <glyph glyph-name="g.sups" horiz-adv-x="370" 
d="M331 668v-254q0 -72 -50 -109q-34 -28 -104 -28q-59 0 -100 25q-22 14 -35 34.5t-14 42.5h72q3 -22 23 -35t54 -13q41 0 62 18t21 57v46q-12 -24 -39.5 -39t-59.5 -15q-63 0 -100 39t-37 99t38 99t99 39q34 0 60.5 -14.5t38.5 -39.5v48h71zM239.5 476.5
q23.5 23.5 23.5 58.5t-23.5 59t-60.5 24t-60 -23.5t-23 -59.5t23 -59t60 -23t60.5 23.5z" />
    <glyph glyph-name="h.sups" horiz-adv-x="347" 
d="M286.5 646.5q27.5 -28.5 27.5 -83.5v-163h-72v141q0 39 -15 57t-48 18q-36 0 -55 -21.5t-19 -58.5v-136h-70v394h70v-175q11 27 37 41.5t65 14.5q52 0 79.5 -28.5z" />
    <glyph glyph-name="i.sups" horiz-adv-x="199" 
d="M59.5 718.5q-13.5 13.5 -13.5 32.5q0 20 13.5 33t35.5 13q21 0 34.5 -13t13.5 -33q0 -19 -13.5 -32.5t-34.5 -13.5q-22 0 -35.5 13.5zM59 668h72v-268h-72v268z" />
    <glyph glyph-name="j.sups" horiz-adv-x="170" 
d="M48 718.5q-13 13.5 -13 32.5q0 20 13 33t35 13t35.5 -13t13.5 -33q0 -19 -14 -32.5t-35 -13.5q-22 0 -35 13.5zM-18 288v57q15 -4 31 -4q35 0 35 33v294h70v-303q0 -41 -23 -62t-66 -21q-26 0 -47 6z" />
    <glyph glyph-name="k.sups" horiz-adv-x="304" 
d="M218 400l-115 123v-123h-71v394h71v-246l118 120h85l-132 -128l133 -140h-89z" />
    <glyph glyph-name="l.sups" horiz-adv-x="173" 
d="M52 794h73v-394h-73v394z" />
    <glyph glyph-name="m.sups" horiz-adv-x="493" 
d="M33 668h70v-49q9 25 31 40.5t55 15.5q35 0 57.5 -15t30.5 -43q12 26 36.5 42t56.5 16q52 0 76 -29t24 -79v-167h-72v154q0 62 -52 62q-60 0 -60 -80v-136h-71v150q0 66 -52 66q-29 0 -44.5 -20t-15.5 -60v-136h-70v268z" />
    <glyph glyph-name="n.sups" horiz-adv-x="345" 
d="M35 668h70v-49q11 27 37 41.5t64 14.5q53 0 80 -28.5t27 -83.5v-163h-71v141q0 39 -15.5 57t-48.5 18q-36 0 -54.5 -21t-18.5 -59v-136h-70v268z" />
    <glyph glyph-name="o.sups" horiz-adv-x="356" 
d="M65.5 433q-41.5 40 -41.5 102q0 61 42 101t112 40t112.5 -40t42.5 -101q0 -62 -42.5 -102t-112.5 -40q-71 0 -112.5 40zM238.5 475.5q22.5 23.5 22.5 59.5q0 35 -22.5 58t-60.5 23t-61.5 -23t-23.5 -58q0 -36 23.5 -59.5t61.5 -23.5t60.5 23.5z" />
    <glyph glyph-name="p.sups" horiz-adv-x="370" 
d="M308.5 636q37.5 -39 37.5 -102q0 -62 -38 -101.5t-98 -39.5q-34 0 -61.5 15t-40.5 39v-162h-70v383h70v-47q14 25 41.5 39.5t62.5 14.5q59 0 96.5 -39zM250.5 474.5q23.5 23.5 23.5 59.5t-23.5 59t-59.5 23q-38 0 -62 -23t-24 -59t24.5 -59.5t61.5 -23.5q36 0 59.5 23.5z
" />
    <glyph glyph-name="q.sups" horiz-adv-x="370" 
d="M331 668v-383h-71v162q-12 -24 -39 -39t-62 -15q-62 0 -98.5 40t-36.5 101q0 60 38 100.5t99 40.5q34 0 60.5 -14.5t38.5 -39.5v47h71zM240 475q23 24 23 59t-23 58.5t-61 23.5q-37 0 -60 -23.5t-23 -58.5t23 -59t60 -24q38 0 61 24z" />
    <glyph glyph-name="r.sups" horiz-adv-x="228" 
d="M38 668h70v-63q10 33 35 51t58 18q7 0 25 -3v-66q-10 1 -28 1q-44 0 -67 -26.5t-23 -74.5v-105h-70v268z" />
    <glyph glyph-name="s.sups" horiz-adv-x="283" 
d="M49 418q-36 25 -36 66h70q0 -19 17 -31t44 -12q23 0 35.5 8.5t12.5 24.5q0 11 -7 18t-26 12l-62 15q-37 9 -56 28.5t-19 47.5q0 38 32.5 59.5t87.5 21.5t87 -22t32 -61h-70q0 17 -14 27.5t-38 10.5q-21 0 -34.5 -8t-13.5 -22q0 -21 40 -32l59 -14q73 -18 73 -75
q0 -40 -32.5 -63.5t-87.5 -23.5q-58 0 -94 25z" />
    <glyph glyph-name="t.sups" horiz-adv-x="231" 
d="M212 458v-57q-17 -4 -57 -4q-42 0 -69.5 19t-27.5 76v120h-51v56h51v84h71v-84h74v-56h-74v-106q0 -30 12 -40.5t35 -10.5q26 0 36 3z" />
    <glyph glyph-name="u.sups" horiz-adv-x="346" 
d="M59.5 423q-28.5 29 -28.5 83v162h72v-148q0 -66 63 -66q36 0 54 20.5t18 52.5v141h70v-268h-70v49q-11 -25 -37 -40t-61 -15q-52 0 -80.5 29z" />
    <glyph glyph-name="v.sups" horiz-adv-x="315" 
d="M0 668h78l79 -185l80 185h78l-126 -268h-63z" />
    <glyph glyph-name="w.sups" horiz-adv-x="449" 
d="M-2 668h73l62 -182l60 182h62l61 -182l61 182h74l-101 -268h-64l-62 182l-63 -182h-62z" />
    <glyph glyph-name="x.sups" horiz-adv-x="303" 
d="M108 535l-106 133h83l66 -87l65 87h84l-107 -133l109 -135h-85l-66 89l-67 -89h-83z" />
    <glyph glyph-name="y.sups" horiz-adv-x="349" 
d="M310 668v-265q0 -61 -40 -96q-36 -30 -100 -30t-103 28q-17 12 -26 30t-9 39h71q2 -45 66 -45q71 0 71 70v54q-12 -25 -37.5 -39.5t-60.5 -14.5q-56 0 -83 30.5t-27 84.5v154h70v-143q0 -34 15 -51.5t50 -17.5t54 22t19 57v133h70z" />
    <glyph glyph-name="z.sups" horiz-adv-x="278" 
d="M163 609h-147v59h257l-158 -209h150v-59h-261z" />
    <glyph glyph-name="uni24FF" unicode="&#x24ff;" horiz-adv-x="797" 
d="M207.5 31.5q-81.5 48.5 -125.5 132t-44 186.5t44 186.5t125.5 132t190.5 48.5t191 -48.5t126 -132.5t44 -186t-44 -186t-126 -132.5t-191 -48.5t-190.5 48.5zM510.5 211.5q38.5 47.5 38.5 138.5t-38.5 139t-112.5 48t-112.5 -48t-38.5 -139t38.5 -138.5t112.5 -47.5
t112.5 47.5zM335 252.5q-20 31.5 -20 97.5q0 67 20 98.5t63 31.5t63 -31.5t20 -98.5q0 -66 -20 -97.5t-63 -31.5t-63 31.5z" />
    <glyph glyph-name="uni2776" unicode="&#x2776;" horiz-adv-x="797" 
d="M207.5 31.5q-81.5 48.5 -125.5 132t-44 186.5t44 186.5t125.5 132t190.5 48.5t191 -48.5t126 -132.5t44 -186t-44 -186t-126 -132.5t-191 -48.5t-190.5 48.5zM441 171v358h-58q0 -35 -19 -49t-72 -14v-52h83v-243h66z" />
    <glyph glyph-name="uni2777" unicode="&#x2777;" horiz-adv-x="797" 
d="M207.5 31.5q-81.5 48.5 -125.5 132t-44 186.5t44 186.5t125.5 132t190.5 48.5t191 -48.5t126 -132.5t44 -186t-44 -186t-126 -132.5t-191 -48.5t-190.5 48.5zM524 176v57h-188q4 25 17 40t42 30l58 28q36 18 54.5 45.5t18.5 62.5q0 48 -34.5 75.5t-93.5 27.5
q-62 0 -99.5 -34.5t-37.5 -91.5h69q0 34 18 53t50 19q26 0 41.5 -14t15.5 -38q0 -42 -47 -65l-61 -30q-52 -26 -74 -63.5t-22 -101.5h273z" />
    <glyph glyph-name="uni2778" unicode="&#x2778;" horiz-adv-x="797" 
d="M207.5 31.5q-81.5 48.5 -125.5 132t-44 186.5t44 186.5t125.5 132t190.5 48.5t191 -48.5t126 -132.5t44 -186t-44 -186t-126 -132.5t-191 -48.5t-190.5 48.5zM499.5 193.5q37.5 29.5 37.5 77.5q0 34 -22 58t-57 29q36 7 54.5 28.5t18.5 52.5q0 45 -35 71.5t-94 26.5
q-62 0 -99 -30t-37 -79h69q0 26 18 41.5t47 15.5q28 0 45 -13.5t17 -35.5q0 -26 -17 -39.5t-48 -13.5h-35v-52h35q34 0 52 -15t18 -42q0 -26 -18 -41t-49 -15q-33 0 -52 17.5t-19 48.5h-70q0 -57 36.5 -88.5t103.5 -31.5q63 0 100.5 29.5z" />
    <glyph glyph-name="uni2779" unicode="&#x2779;" horiz-adv-x="797" 
d="M207.5 31.5q-81.5 48.5 -125.5 132t-44 186.5t44 186.5t125.5 132t190.5 48.5t191 -48.5t126 -132.5t44 -186t-44 -186t-126 -132.5t-191 -48.5t-190.5 48.5zM484 171v109h51v59h-51v99h-68v-99h-88v190h-67v-249h155v-109h68z" />
    <glyph glyph-name="uni277A" unicode="&#x277a;" horiz-adv-x="797" 
d="M207.5 31.5q-81.5 48.5 -125.5 132t-44 186.5t44 186.5t125.5 132t190.5 48.5t191 -48.5t126 -132.5t44 -186t-44 -186t-126 -132.5t-191 -48.5t-190.5 48.5zM498.5 194q38.5 36 38.5 95q0 55 -33 87.5t-87 32.5q-59 0 -87 -34v95h184v53h-245v-203h61q10 20 26.5 29
t43.5 9q32 0 51 -19t19 -51q0 -34 -20 -54.5t-54 -20.5q-30 0 -49 13t-20 36h-67q2 -49 38.5 -76.5t96.5 -27.5q65 0 103.5 36z" />
    <glyph glyph-name="uni277B" unicode="&#x277b;" horiz-adv-x="797" 
d="M207.5 31.5q-81.5 48.5 -125.5 132t-44 186.5t44 186.5t125.5 132t190.5 48.5t191 -48.5t126 -132.5t44 -186t-44 -186t-126 -132.5t-191 -48.5t-190.5 48.5zM496.5 205.5q38.5 37.5 38.5 94.5q0 56 -36 93.5t-97 39.5q-8 0 -14 -3l82 104h-79l-101 -139q-35 -48 -35 -95
q0 -57 38.5 -94.5t101.5 -37.5t101.5 37.5zM340 244.5q-20 21.5 -20 55.5t20 56t55 22q34 0 54 -22t20 -56t-20 -55.5t-54 -21.5q-35 0 -55 21.5z" />
    <glyph glyph-name="uni277C" unicode="&#x277c;" horiz-adv-x="797" 
d="M207.5 31.5q-81.5 48.5 -125.5 132t-44 186.5t44 186.5t125.5 132t190.5 48.5t191 -48.5t126 -132.5t44 -186t-44 -186t-126 -132.5t-191 -48.5t-190.5 48.5zM363 170l189 358h-276v-58h176l-166 -300h77z" />
    <glyph glyph-name="uni277D" unicode="&#x277d;" horiz-adv-x="797" 
d="M207.5 31.5q-81.5 48.5 -125.5 132t-44 186.5t44 186.5t125.5 132t190.5 48.5t191 -48.5t126 -132.5t44 -186t-44 -186t-126 -132.5t-191 -48.5t-190.5 48.5zM499.5 191q37.5 27 37.5 76q0 34 -19 58t-55 31q32 8 49.5 30.5t17.5 53.5q0 44 -36.5 70.5t-96.5 26.5
t-96.5 -26.5t-36.5 -70.5q0 -31 17.5 -53.5t49.5 -30.5q-36 -7 -55 -31t-19 -58q0 -49 38 -76t102 -27q65 0 102.5 27zM348.5 396q-18.5 15 -18.5 39q0 25 18.5 40t48.5 15t49 -15t19 -40q0 -24 -18.5 -39t-49.5 -15q-30 0 -48.5 15zM344.5 229.5q-19.5 16.5 -19.5 43.5
t20 43t52 16q33 0 52.5 -16t19.5 -43t-19.5 -43.5t-52.5 -16.5t-52.5 16.5z" />
    <glyph glyph-name="uni277E" unicode="&#x277e;" horiz-adv-x="797" 
d="M207.5 31.5q-81.5 48.5 -125.5 132t-44 186.5t44 186.5t125.5 132t190.5 48.5t191 -48.5t126 -132.5t44 -186t-44 -186t-126 -132.5t-191 -48.5t-190.5 48.5zM401 167l108 147q29 39 29 87q0 57 -38.5 94t-101.5 37t-101.5 -37t-38.5 -94t36.5 -94.5t96.5 -39.5q8 0 14 3
l-82 -103h78zM344 344q-20 22 -20 57q0 33 20 54.5t54 21.5t54.5 -21.5t20.5 -54.5q0 -35 -20 -57t-55 -22q-34 0 -54 22z" />
    <glyph glyph-name="zero.case" horiz-adv-x="609" 
d="M113.5 82q-65.5 93 -65.5 271t65.5 271t191.5 93t191.5 -93t65.5 -271t-65.5 -271t-191.5 -93t-191.5 93zM475 353q0 283 -170 283q-171 0 -171 -283q0 -284 171 -284q170 0 170 284z" />
    <glyph glyph-name="one.case" horiz-adv-x="372" 
d="M170 503h-141v77q61 0 93 11.5t44 37t12 71.5h83v-700h-91v503z" />
    <glyph glyph-name="two.case" horiz-adv-x="569" 
d="M92 189.5q39 71.5 130 120.5l104 57q94 50 94 148q0 54 -33 87t-86 33q-65 0 -102 -43t-37 -121h-94q0 74 28.5 129.5t81.5 85.5t123 30q99 0 157 -53t58 -143q0 -67 -34 -121.5t-99 -90.5l-103 -58q-63 -35 -88.5 -70.5t-32.5 -96.5h357v-83h-463q0 118 39 189.5z" />
    <glyph glyph-name="three.case" horiz-adv-x="563" 
d="M103.5 50q-64.5 61 -64.5 170h92q0 -72 40 -113t111 -41q62 0 100.5 36t38.5 94q0 63 -37 97t-107 34h-50v79h51q62 0 94.5 30.5t32.5 88.5q0 51 -34.5 82.5t-90.5 31.5q-62 0 -99 -36t-37 -97h-89q0 63 27.5 110.5t78.5 73.5t119 26q64 0 113.5 -23.5t77 -67t27.5 -99.5
q0 -61 -32 -101t-93 -56q62 -8 101 -56.5t39 -116.5q0 -61 -29.5 -108t-82 -73t-119.5 -26q-114 0 -178.5 61z" />
    <glyph glyph-name="four.case" horiz-adv-x="574" 
d="M535 227h-106v-227h-90v227h-274v473h90v-390h184v207h90v-207h106v-83z" />
    <glyph glyph-name="five.case" horiz-adv-x="576" 
d="M131.5 40.5q-63.5 51.5 -68.5 140.5h92q3 -51 41.5 -81t97.5 -30q70 0 110 45t40 122q0 73 -37 115.5t-101 42.5q-56 0 -91 -21t-55 -66h-84v392h414v-82h-331v-219q26 37 67 55.5t92 18.5q98 0 155.5 -63t57.5 -170q0 -75 -29.5 -132t-83.5 -88t-126 -31
q-97 0 -160.5 51.5z" />
    <glyph glyph-name="six.case" horiz-adv-x="568" 
d="M410.5 453q54.5 -33 83.5 -90t29 -126t-29 -126t-83.5 -90t-127.5 -33t-127.5 33t-83.5 90t-29 126q0 47 13.5 89t39.5 74l205 300h109l-152 -215q8 1 25 1q73 0 127.5 -33zM395.5 114.5q41.5 48.5 41.5 122.5t-41.5 122.5t-112.5 48.5t-112 -48.5t-41 -122.5t41 -122.5
t112 -48.5t112.5 48.5z" />
    <glyph glyph-name="seven.case" horiz-adv-x="503" 
d="M376 615h-331v85h468l-352 -700h-101z" />
    <glyph glyph-name="eight.case" horiz-adv-x="578" 
d="M163 14q-54 25 -83.5 71t-29.5 107q0 67 32.5 112t94.5 61q-55 15 -86 59.5t-31 104.5q0 55 29 97.5t81 66t119 23.5t119 -23.5t81 -66t29 -97.5q0 -59 -31.5 -103.5t-86.5 -60.5q62 -16 95 -61.5t33 -111.5q0 -61 -29.5 -107t-83.5 -71t-126 -25t-126 25zM388.5 434.5
q36.5 32.5 36.5 86.5q0 55 -37 87.5t-99 32.5t-99 -32.5t-37 -87.5q0 -54 38 -86.5t98 -32.5q63 0 99.5 32.5zM395.5 102.5q40.5 36.5 40.5 95.5q0 60 -40 95.5t-107 35.5q-64 0 -105 -36t-41 -95t40 -95.5t106 -36.5t106.5 36.5z" />
    <glyph glyph-name="nine.case" horiz-adv-x="555" 
d="M304 225q-13 -10 -32 -10q-73 0 -127.5 33.5t-84 90.5t-29.5 127t29.5 127t84 90.5t127.5 33.5t127 -33.5t83.5 -90.5t29.5 -127q0 -90 -56 -171l-202 -295h-109zM384 342.5q41 48.5 41 123.5t-41 123.5t-112 48.5t-112.5 -48.5t-41.5 -123.5t41.5 -123.5t112.5 -48.5
t112 48.5z" />
    <glyph glyph-name="zero.case.zero" horiz-adv-x="609" 
d="M496.5 624q65.5 -93 65.5 -271t-65.5 -271t-191.5 -93t-191.5 93t-65.5 271t65.5 271t191.5 93t191.5 -93zM184 129l205 484q-35 23 -84 23q-171 0 -171 -283q0 -153 50 -224zM475 353q0 148 -46 218l-204 -481q35 -21 80 -21q170 0 170 284z" />
    <glyph glyph-name="uni24EA" unicode="&#x24ea;" horiz-adv-x="797" 
d="M207.5 31.5q-81.5 48.5 -125.5 132t-44 186.5t44 186.5t125.5 132t190.5 48.5t191 -48.5t126 -132.5t44 -186t-44 -186t-126 -132.5t-191 -48.5t-190.5 48.5zM551.5 85q65.5 41 101 110.5t35.5 154.5t-35.5 154.5t-101 110.5t-153.5 41t-153.5 -41t-101 -110.5
t-35.5 -154.5t35.5 -154.5t101 -110.5t153.5 -41t153.5 41zM285.5 211.5q-38.5 47.5 -38.5 138.5t38.5 138.5t111.5 47.5q74 0 113 -47.5t39 -138.5t-39 -138.5t-113 -47.5q-73 0 -111.5 47.5zM460.5 252q20.5 32 20.5 98t-20.5 98t-63.5 32q-42 0 -62 -32t-20 -98t20 -98
t62 -32q43 0 63.5 32z" />
    <glyph glyph-name="uni2460" unicode="&#x2460;" horiz-adv-x="797" 
d="M207.5 31.5q-81.5 48.5 -125.5 132t-44 186.5t44 186.5t125.5 132t190.5 48.5t191 -48.5t126 -132.5t44 -186t-44 -186t-126 -132.5t-191 -48.5t-190.5 48.5zM551.5 85q65.5 41 101 110.5t35.5 154.5t-35.5 154.5t-101 110.5t-153.5 41t-153.5 -41t-101 -110.5
t-35.5 -154.5t35.5 -154.5t101 -110.5t153.5 -41t153.5 41zM381 414h-84v52q53 0 72 14t19 49h58v-358h-65v243z" />
    <glyph glyph-name="uni2461" unicode="&#x2461;" horiz-adv-x="797" 
d="M207.5 31.5q-81.5 48.5 -125.5 132t-44 186.5t44 186.5t125.5 132t190.5 48.5t191 -48.5t126 -132.5t44 -186t-44 -186t-126 -132.5t-191 -48.5t-190.5 48.5zM551.5 85q65.5 41 101 110.5t35.5 154.5t-35.5 154.5t-101 110.5t-153.5 41t-153.5 -41t-101 -110.5
t-35.5 -154.5t35.5 -154.5t101 -110.5t153.5 -41t153.5 41zM273.5 278q21.5 38 73.5 63l61 30q48 21 48 65q0 24 -16 38t-42 14q-32 0 -50 -19t-18 -53h-69q0 57 37.5 91t99.5 34q59 0 93.5 -27.5t34.5 -73.5q0 -72 -73 -109l-57 -29q-30 -14 -43 -29.5t-17 -40.5h189v-56
h-273q0 64 21.5 102z" />
    <glyph glyph-name="uni2462" unicode="&#x2462;" horiz-adv-x="797" 
d="M207.5 31.5q-81.5 48.5 -125.5 132t-44 186.5t44 186.5t125.5 132t190.5 48.5t191 -48.5t126 -132.5t44 -186t-44 -186t-126 -132.5t-191 -48.5t-190.5 48.5zM551.5 85q65.5 41 101 110.5t35.5 154.5t-35.5 154.5t-101 110.5t-153.5 41t-153.5 -41t-101 -110.5
t-35.5 -154.5t35.5 -154.5t101 -110.5t153.5 -41t153.5 41zM296 195q-36 31 -36 89h69q0 -31 19 -49t52 -18q31 0 49 15.5t18 41.5q0 27 -18 42t-52 15h-35v52h35q32 0 48.5 13.5t16.5 39.5q0 22 -17 36t-45 14q-30 0 -47.5 -16t-17.5 -43h-68q0 50 36 79.5t98 29.5
q59 0 94.5 -26.5t35.5 -70.5q0 -31 -18.5 -52.5t-54.5 -29.5q35 -4 57 -28t22 -58q0 -49 -37.5 -78t-100.5 -29q-67 0 -103 31z" />
    <glyph glyph-name="uni2463" unicode="&#x2463;" horiz-adv-x="797" 
d="M589 668.5q82 -48.5 126 -132.5t44 -186t-44 -186t-126 -132.5t-191 -48.5t-190.5 48.5t-125.5 132t-44 186.5t44 186.5t125.5 132t190.5 48.5t191 -48.5zM551.5 85q65.5 41 101 110.5t35.5 154.5t-35.5 154.5t-101 110.5t-153.5 41t-153.5 -41t-101 -110.5t-35.5 -154.5
t35.5 -154.5t101 -110.5t153.5 -41t153.5 41zM491 338h52v-58h-52v-109h-67v109h-156v249h67v-191h89v99h67v-99z" />
    <glyph glyph-name="uni2464" unicode="&#x2464;" horiz-adv-x="797" 
d="M207.5 31.5q-81.5 48.5 -125.5 132t-44 186.5t44 186.5t125.5 132t190.5 48.5t191 -48.5t126 -132.5t44 -186t-44 -186t-126 -132.5t-191 -48.5t-190.5 48.5zM551.5 85q65.5 41 101 110.5t35.5 154.5t-35.5 154.5t-101 110.5t-153.5 41t-153.5 -41t-101 -110.5
t-35.5 -154.5t35.5 -154.5t101 -110.5t153.5 -41t153.5 41zM299.5 185.5q-36.5 27.5 -39.5 76.5h67q1 -23 20 -36t49 -13q34 0 54 20.5t20 54.5q0 32 -19 51.5t-51 19.5q-27 0 -43.5 -9.5t-26.5 -29.5h-61v203h245v-53h-184v-96q29 35 88 35q53 0 86 -33t33 -86
q0 -60 -38.5 -96t-102.5 -36q-60 0 -96.5 27.5z" />
    <glyph glyph-name="uni2465" unicode="&#x2465;" horiz-adv-x="797" 
d="M589 668.5q82 -48.5 126 -132.5t44 -186t-44 -186t-126 -132.5t-191 -48.5t-190.5 48.5t-125.5 132t-44 186.5t44 186.5t125.5 132t190.5 48.5t191 -48.5zM551.5 85q65.5 41 101 110.5t35.5 154.5t-35.5 154.5t-101 110.5t-153.5 41t-153.5 -41t-101 -110.5t-35.5 -154.5
t35.5 -154.5t101 -110.5t153.5 -41t153.5 41zM495 396q38 -37 38 -95t-38 -95t-102 -37q-63 0 -101 37.5t-38 94.5q0 45 23 77l114 156h78l-79 -101h3q64 0 102 -37zM448 245q20 22 20 56q0 33 -20 55t-55 22q-34 0 -54 -22t-20 -55q0 -34 20 -56t54 -22q35 0 55 22z" />
    <glyph glyph-name="uni2466" unicode="&#x2466;" horiz-adv-x="797" 
d="M207.5 31.5q-81.5 48.5 -125.5 132t-44 186.5t44 186.5t125.5 132t190.5 48.5t191 -48.5t126 -132.5t44 -186t-44 -186t-126 -132.5t-191 -48.5t-190.5 48.5zM551.5 85q65.5 41 101 110.5t35.5 154.5t-35.5 154.5t-101 110.5t-153.5 41t-153.5 -41t-101 -110.5
t-35.5 -154.5t35.5 -154.5t101 -110.5t153.5 -41t153.5 41zM452 471h-177v57h276l-189 -358h-77z" />
    <glyph glyph-name="uni2467" unicode="&#x2467;" horiz-adv-x="797" 
d="M207.5 31.5q-81.5 48.5 -125.5 132t-44 186.5t44 186.5t125.5 132t190.5 48.5t191 -48.5t126 -132.5t44 -186t-44 -186t-126 -132.5t-191 -48.5t-190.5 48.5zM551.5 85q65.5 41 101 110.5t35.5 154.5t-35.5 154.5t-101 110.5t-153.5 41t-153.5 -41t-101 -110.5
t-35.5 -154.5t35.5 -154.5t101 -110.5t153.5 -41t153.5 41zM296 191q-38 27 -38 75q0 35 19 59t55 31q-32 8 -50 31t-18 53q0 43 37 69.5t97 26.5q59 0 96 -26.5t37 -69.5q0 -31 -18 -53.5t-50 -30.5q37 -7 56 -31t19 -59q0 -48 -38 -75t-102 -27t-102 27zM446.5 396
q18.5 15 18.5 39q0 25 -18.5 40t-48.5 15q-31 0 -49 -15t-18 -40q0 -24 18 -39t49 -15q30 0 48.5 15zM450.5 229.5q19.5 16.5 19.5 43.5t-19.5 43t-52.5 16t-53 -16t-20 -43t19.5 -43.5t53.5 -16.5q33 0 52.5 16.5z" />
    <glyph glyph-name="uni2468" unicode="&#x2468;" horiz-adv-x="797" 
d="M589 668.5q82 -48.5 126 -132.5t44 -186t-44 -186t-126 -132.5t-191 -48.5t-190.5 48.5t-125.5 132t-44 186.5t44 186.5t125.5 132t190.5 48.5t191 -48.5zM551.5 85q65.5 41 101 110.5t35.5 154.5t-35.5 154.5t-101 110.5t-153.5 41t-153.5 -41t-101 -110.5t-35.5 -154.5
t35.5 -154.5t101 -110.5t153.5 -41t153.5 41zM506 494.5q38 -37.5 38 -94.5q0 -45 -23 -77l-114 -156h-78l79 101h-3q-64 0 -102 37t-38 95t38 95t102 37q63 0 101 -37.5zM350 345q20 -22 55 -22q34 0 54 22t20 55q0 34 -20 56t-54 22q-35 0 -55 -22t-20 -56q0 -33 20 -55z
" />
    <glyph glyph-name="zero.tf.case" 
d="M192 20.5q-57 32.5 -89 89.5t-32 126v224q0 71 32 129.5t89 92.5t128 34t128 -34t89 -92.5t32 -129.5v-224q0 -69 -32 -126t-89 -89.5t-128 -32.5t-128 32.5zM402 92q36 22 56 60t20 84v224q0 49 -20 88.5t-56 62t-82 22.5t-82 -22.5t-56 -62t-20 -88.5v-224
q0 -46 20 -84t56 -60t82 -22t82 22z" />
    <glyph glyph-name="one.tf.case" 
d="M572 83v-83h-504v83h209v420h-182v77h23q83 0 123.5 27t47.5 93h79v-617h204z" />
    <glyph glyph-name="two.tf.case" 
d="M105 189.5q44 71.5 147 120.5l119 57q107 50 107 148q0 54 -39 87.5t-101 33.5q-77 0 -120.5 -43.5t-43.5 -121.5h-96q0 74 32 130t91 86t137 30q109 0 173.5 -53.5t64.5 -143.5q0 -69 -37.5 -125.5t-109.5 -91.5l-118 -58q-51 -24 -79.5 -45.5t-42.5 -48.5t-19 -68h415
v-83h-524q0 118 44 189.5z" />
    <glyph glyph-name="three.tf.case" 
d="M131 50.5q-71 61.5 -71 169.5h95q0 -72 45.5 -113t125.5 -41q72 0 115.5 36t43.5 94q0 63 -42.5 97t-121.5 34h-56v79h57q70 0 108 30.5t38 88.5q0 51 -40 83t-104 32q-71 0 -113 -36t-42 -98h-92q0 63 30 111t86 74t130 26q71 0 125.5 -24t84.5 -67.5t30 -99.5
q0 -61 -36 -101t-104 -56q68 -8 112 -56.5t44 -116.5q0 -61 -32 -108t-89.5 -73t-131.5 -26q-124 0 -195 61.5z" />
    <glyph glyph-name="four.tf.case" 
d="M577 227h-139v-227h-93v227h-282v473h92v-390h190v207h93v-207h139v-83z" />
    <glyph glyph-name="five.tf.case" 
d="M136.5 40.5q-68.5 51.5 -73.5 140.5h93q4 -52 47 -81.5t110 -29.5q80 0 125.5 45t45.5 121q0 74 -42.5 116.5t-117.5 42.5q-61 0 -100 -21t-61 -66h-86v392h473v-82h-389v-219q28 37 74 55.5t103 18.5q73 0 127 -29t83 -81.5t29 -123.5q0 -75 -32.5 -131.5t-92.5 -87.5
t-141 -31q-106 0 -174.5 51.5z" />
    <glyph glyph-name="six.tf.case" 
d="M458 453.5q59 -32.5 91 -89.5t32 -128t-32 -127t-91 -88.5t-138 -32.5t-138 32.5t-91 88.5t-32 127q0 87 47 151l233 313h111l-167 -216q24 2 38 2q78 0 137 -32.5zM446 114q47 48 47 123t-47 123t-126 48t-126 -48t-47 -123t47 -123t126 -48t126 48z" />
    <glyph glyph-name="seven.tf.case" 
d="M445 615h-383v85h526l-395 -700h-102z" />
    <glyph glyph-name="eight.tf.case" 
d="M185.5 14q-57.5 25 -89 71t-31.5 107q0 67 35.5 112t102.5 61q-60 15 -93.5 59.5t-33.5 104.5q0 55 30.5 97.5t86 66t127.5 23.5t127.5 -23.5t86 -66t30.5 -97.5q0 -59 -34.5 -103.5t-94.5 -60.5q67 -16 103.5 -61.5t36.5 -111.5q0 -61 -31.5 -107t-89 -71t-134.5 -25
t-134.5 25zM429.5 434.5q40.5 32.5 40.5 86.5q0 55 -40.5 87.5t-109.5 32.5t-109.5 -32.5t-40.5 -87.5q0 -54 41.5 -86.5t108.5 -32.5q69 0 109.5 32.5zM437.5 102.5q44.5 36.5 44.5 95.5q0 60 -44.5 95.5t-117.5 35.5q-71 0 -116.5 -36t-45.5 -95t44.5 -95.5t117.5 -36.5
t117.5 36.5z" />
    <glyph glyph-name="nine.tf.case" 
d="M568 382q-13 -40 -38 -72l-229 -310h-111l167 217q-24 -2 -38 -2q-78 0 -137 33t-91 90t-32 128t32 128t91 90t138 33t138 -32.5t91 -89.5t32 -128q0 -45 -13 -85zM194 342q47 -48 126 -48t126 48t47 124t-47 124t-126 48t-126 -48t-47 -124t47 -124z" />
    <glyph glyph-name="zero.tf.case.zero" 
d="M448 682q57 -34 89 -92.5t32 -129.5v-224q0 -69 -32 -126t-89 -89.5t-128 -32.5t-128 32.5t-89 89.5t-32 126v224q0 71 32 129.5t89 92.5t128 34t128 -34zM162 236q0 -59 32 -104l205 480q-35 21 -79 21q-46 0 -82 -22.5t-56 -62t-20 -88.5v-224zM478 460q0 60 -30 106
l-204 -477q35 -19 76 -19q46 0 82 22t56 60t20 84v224z" />
    <glyph glyph-name="uni2080" unicode="&#x2080;" horiz-adv-x="413" 
d="M83.5 -32.5q-42.5 52.5 -42.5 152.5t42.5 152.5t122.5 52.5q81 0 124 -52.5t43 -152.5t-43 -152.5t-124 -52.5q-80 0 -122.5 52.5zM275.5 12q22.5 35 22.5 108t-22.5 108t-69.5 35q-46 0 -68 -35t-22 -108t22 -108t68 -35q47 0 69.5 35z" />
    <glyph glyph-name="uni2081" unicode="&#x2081;" horiz-adv-x="276" 
d="M123 190h-92v57q59 0 79.5 16t20.5 54h64v-394h-72v267z" />
    <glyph glyph-name="uni2082" unicode="&#x2082;" horiz-adv-x="380" 
d="M58 34.5q24 41.5 81 69.5l67 33q52 24 52 72q0 26 -17 41.5t-46 15.5q-35 0 -55 -21t-20 -58h-76q0 63 41.5 100.5t109.5 37.5q65 0 102.5 -30t37.5 -82q0 -39 -20.5 -69t-59.5 -50l-63 -32q-33 -16 -47 -32.5t-19 -44.5h208v-62h-300q0 70 24 111.5z" />
    <glyph glyph-name="uni2083" unicode="&#x2083;" horiz-adv-x="386" 
d="M78 -50.5q-40 34.5 -40 97.5h76q0 -34 21 -53.5t57 -19.5q34 0 54 17t20 45q0 30 -19.5 46.5t-57.5 16.5h-38v57h38q35 0 53.5 15t18.5 43q0 25 -19 40t-49 15q-33 0 -52.5 -17t-19.5 -47h-75q0 54 40 87t108 33q65 0 104 -29t39 -78q0 -34 -20.5 -57.5t-60.5 -32.5
q39 -5 63 -31.5t24 -63.5q0 -53 -41.5 -85.5t-110.5 -32.5q-73 0 -113 34.5z" />
    <glyph glyph-name="uni2084" unicode="&#x2084;" horiz-adv-x="390" 
d="M355 43h-57v-120h-74v120h-171v274h74v-210h97v109h74v-109h57v-64z" />
    <glyph glyph-name="uni2085" unicode="&#x2085;" horiz-adv-x="394" 
d="M94 -54.5q-40 30.5 -43 84.5h73q2 -25 22.5 -39.5t53.5 -14.5q38 0 60 22.5t22 59.5q0 36 -21 57t-56 21q-30 0 -48 -10.5t-29 -32.5h-67v224h269v-58h-202v-106q30 38 96 38q59 0 95 -36t36 -95q0 -66 -42 -105.5t-113 -39.5q-66 0 -106 30.5z" />
    <glyph glyph-name="uni2086" unicode="&#x2086;" horiz-adv-x="389" 
d="M306 165q42 -41 42 -105q0 -63 -42 -104t-112 -41q-69 0 -111 41t-42 104q0 48 25 85l125 172h86l-86 -111h3q70 0 112 -41zM254 -1q22 24 22 61t-22 61t-60 24q-37 0 -59.5 -24t-22.5 -61t22.5 -61t59.5 -24q38 0 60 24z" />
    <glyph glyph-name="uni2087" unicode="&#x2087;" horiz-adv-x="352" 
d="M233 254h-194v63h303l-208 -394h-84z" />
    <glyph glyph-name="uni2088" unicode="&#x2088;" horiz-adv-x="395" 
d="M86 -55q-42 30 -42 83q0 38 20.5 64t60.5 34q-35 10 -54.5 35t-19.5 58q0 48 40.5 77t106.5 29q65 0 105.5 -29t40.5 -77q0 -34 -19.5 -58.5t-54.5 -34.5q40 -8 61 -34t21 -64q0 -53 -42 -83t-112 -30t-112 30zM251.5 170.5q20.5 16.5 20.5 42.5q0 28 -20.5 44.5
t-53.5 16.5q-34 0 -54 -16.5t-20 -44.5q0 -26 20 -42.5t54 -16.5q33 0 53.5 16.5zM255.5 -12.5q21.5 18.5 21.5 47.5q0 30 -21.5 47.5t-57.5 17.5t-58 -17.5t-22 -47.5t22 -48t58 -18t57.5 18.5z" />
    <glyph glyph-name="uni2089" unicode="&#x2089;" horiz-adv-x="389" 
d="M323 95l-125 -172h-86l86 111h-3q-70 0 -112 41t-42 105q0 63 42 104t112 41q69 0 111 -41t42 -104q0 -47 -25 -85zM135 119q22 -24 60 -24q37 0 59.5 24t22.5 61t-22.5 61t-59.5 24q-38 0 -60 -24t-22 -61t22 -61z" />
    <glyph glyph-name="zero.dnom" horiz-adv-x="413" 
d="M83.5 44.5q-42.5 52.5 -42.5 152.5t42.5 152.5t122.5 52.5q81 0 124 -52.5t43 -152.5t-43 -152.5t-124 -52.5q-80 0 -122.5 52.5zM275.5 89q22.5 35 22.5 108t-22.5 108t-69.5 35q-46 0 -68 -35t-22 -108t22 -108t68 -35q47 0 69.5 35z" />
    <glyph glyph-name="one.dnom" horiz-adv-x="276" 
d="M123 267h-92v57q59 0 79.5 16t20.5 54h64v-394h-72v267z" />
    <glyph glyph-name="two.dnom" horiz-adv-x="380" 
d="M58 111.5q24 41.5 81 69.5l67 33q52 24 52 72q0 26 -17 41.5t-46 15.5q-35 0 -55 -21t-20 -58h-76q0 63 41.5 100.5t109.5 37.5q65 0 102.5 -30t37.5 -82q0 -39 -20.5 -69t-59.5 -50l-63 -32q-33 -16 -47 -32.5t-19 -44.5h208v-62h-300q0 70 24 111.5z" />
    <glyph glyph-name="three.dnom" horiz-adv-x="386" 
d="M78 26.5q-40 34.5 -40 97.5h76q0 -34 21 -53.5t57 -19.5q34 0 54 17t20 45q0 30 -19.5 46.5t-57.5 16.5h-38v57h38q35 0 53.5 15t18.5 43q0 25 -19 40t-49 15q-33 0 -52.5 -17t-19.5 -47h-75q0 54 40 87t108 33q65 0 104 -29t39 -78q0 -34 -20.5 -57.5t-60.5 -32.5
q39 -5 63 -31.5t24 -63.5q0 -53 -41.5 -85.5t-110.5 -32.5q-73 0 -113 34.5z" />
    <glyph glyph-name="four.dnom" horiz-adv-x="390" 
d="M355 120h-57v-120h-74v120h-171v274h74v-210h97v109h74v-109h57v-64z" />
    <glyph glyph-name="five.dnom" horiz-adv-x="394" 
d="M94 22.5q-40 30.5 -43 84.5h73q2 -25 22.5 -39.5t53.5 -14.5q38 0 60 22.5t22 59.5q0 36 -21 57t-56 21q-30 0 -48 -10.5t-29 -32.5h-67v224h269v-58h-202v-106q30 38 96 38q59 0 95 -36t36 -95q0 -66 -42 -105.5t-113 -39.5q-66 0 -106 30.5z" />
    <glyph glyph-name="six.dnom" horiz-adv-x="389" 
d="M306 242q42 -41 42 -105q0 -63 -42 -104t-112 -41q-69 0 -111 41t-42 104q0 48 25 85l125 172h86l-86 -111h3q70 0 112 -41zM254 76q22 24 22 61t-22 61t-60 24q-37 0 -59.5 -24t-22.5 -61t22.5 -61t59.5 -24q38 0 60 24z" />
    <glyph glyph-name="seven.dnom" horiz-adv-x="352" 
d="M233 331h-194v63h303l-208 -394h-84z" />
    <glyph glyph-name="eight.dnom" horiz-adv-x="395" 
d="M86 22q-42 30 -42 83q0 38 20.5 64t60.5 34q-35 10 -54.5 35t-19.5 58q0 48 40.5 77t106.5 29q65 0 105.5 -29t40.5 -77q0 -34 -19.5 -58.5t-54.5 -34.5q40 -8 61 -34t21 -64q0 -53 -42 -83t-112 -30t-112 30zM251.5 247.5q20.5 16.5 20.5 42.5q0 28 -20.5 44.5
t-53.5 16.5q-34 0 -54 -16.5t-20 -44.5q0 -26 20 -42.5t54 -16.5q33 0 53.5 16.5zM255.5 64.5q21.5 18.5 21.5 47.5q0 30 -21.5 47.5t-57.5 17.5t-58 -17.5t-22 -47.5t22 -48t58 -18t57.5 18.5z" />
    <glyph glyph-name="nine.dnom" horiz-adv-x="389" 
d="M323 172l-125 -172h-86l86 111h-3q-70 0 -112 41t-42 105q0 63 42 104t112 41q69 0 111 -41t42 -104q0 -47 -25 -85zM135 196q22 -24 60 -24q37 0 59.5 24t22.5 61t-22.5 61t-59.5 24q-38 0 -60 -24t-22 -61t22 -61z" />
    <glyph glyph-name="zero.numr" horiz-adv-x="413" 
d="M83.5 330.5q-42.5 52.5 -42.5 152.5t42.5 152.5t122.5 52.5q81 0 124 -52.5t43 -152.5t-43 -152.5t-124 -52.5q-80 0 -122.5 52.5zM275.5 375q22.5 35 22.5 108t-22.5 108t-69.5 35q-46 0 -68 -35t-22 -108t22 -108t68 -35q47 0 69.5 35z" />
    <glyph glyph-name="one.numr" horiz-adv-x="276" 
d="M123 553h-92v57q59 0 79.5 16t20.5 54h64v-394h-72v267z" />
    <glyph glyph-name="two.numr" horiz-adv-x="380" 
d="M58 397.5q24 41.5 81 69.5l67 33q52 24 52 72q0 26 -17 41.5t-46 15.5q-35 0 -55 -21t-20 -58h-76q0 63 41.5 100.5t109.5 37.5q65 0 102.5 -30t37.5 -82q0 -39 -20.5 -69t-59.5 -50l-63 -32q-33 -16 -47 -32.5t-19 -44.5h208v-62h-300q0 70 24 111.5z" />
    <glyph glyph-name="three.numr" horiz-adv-x="386" 
d="M78 312.5q-40 34.5 -40 97.5h76q0 -34 21 -53.5t57 -19.5q34 0 54 17t20 45q0 30 -19.5 46.5t-57.5 16.5h-38v57h38q35 0 53.5 15t18.5 43q0 25 -19 40t-49 15q-33 0 -52.5 -17t-19.5 -47h-75q0 54 40 87t108 33q65 0 104 -29t39 -78q0 -34 -20.5 -57.5t-60.5 -32.5
q39 -5 63 -31.5t24 -63.5q0 -53 -41.5 -85.5t-110.5 -32.5q-73 0 -113 34.5z" />
    <glyph glyph-name="four.numr" horiz-adv-x="390" 
d="M355 406h-57v-120h-74v120h-171v274h74v-210h97v109h74v-109h57v-64z" />
    <glyph glyph-name="five.numr" horiz-adv-x="394" 
d="M94 308.5q-40 30.5 -43 84.5h73q2 -25 22.5 -39.5t53.5 -14.5q38 0 60 22.5t22 59.5q0 36 -21 57t-56 21q-30 0 -48 -10.5t-29 -32.5h-67v224h269v-58h-202v-106q30 38 96 38q59 0 95 -36t36 -95q0 -66 -42 -105.5t-113 -39.5q-66 0 -106 30.5z" />
    <glyph glyph-name="six.numr" horiz-adv-x="389" 
d="M306 528q42 -41 42 -105q0 -63 -42 -104t-112 -41q-69 0 -111 41t-42 104q0 48 25 85l125 172h86l-86 -111h3q70 0 112 -41zM254 362q22 24 22 61t-22 61t-60 24q-37 0 -59.5 -24t-22.5 -61t22.5 -61t59.5 -24q38 0 60 24z" />
    <glyph glyph-name="seven.numr" horiz-adv-x="352" 
d="M233 617h-194v63h303l-208 -394h-84z" />
    <glyph glyph-name="eight.numr" horiz-adv-x="395" 
d="M86 308q-42 30 -42 83q0 38 20.5 64t60.5 34q-35 10 -54.5 35t-19.5 58q0 48 40.5 77t106.5 29q65 0 105.5 -29t40.5 -77q0 -34 -19.5 -58.5t-54.5 -34.5q40 -8 61 -34t21 -64q0 -53 -42 -83t-112 -30t-112 30zM251.5 533.5q20.5 16.5 20.5 42.5q0 28 -20.5 44.5
t-53.5 16.5q-34 0 -54 -16.5t-20 -44.5q0 -26 20 -42.5t54 -16.5q33 0 53.5 16.5zM255.5 350.5q21.5 18.5 21.5 47.5q0 30 -21.5 47.5t-57.5 17.5t-58 -17.5t-22 -47.5t22 -48t58 -18t57.5 18.5z" />
    <glyph glyph-name="nine.numr" horiz-adv-x="389" 
d="M323 458l-125 -172h-86l86 111h-3q-70 0 -112 41t-42 105q0 63 42 104t112 41q69 0 111 -41t42 -104q0 -47 -25 -85zM135 482q22 -24 60 -24q37 0 59.5 24t22.5 61t-22.5 61t-59.5 24q-38 0 -60 -24t-22 -61t22 -61z" />
    <glyph glyph-name="uni2070" unicode="&#x2070;" horiz-adv-x="413" 
d="M83.5 444.5q-42.5 52.5 -42.5 152.5t42.5 152.5t122.5 52.5q81 0 124 -52.5t43 -152.5t-43 -152.5t-124 -52.5q-80 0 -122.5 52.5zM275.5 489q22.5 35 22.5 108t-22.5 108t-69.5 35q-46 0 -68 -35t-22 -108t22 -108t68 -35q47 0 69.5 35z" />
    <glyph glyph-name="uni00B9" unicode="&#xb9;" horiz-adv-x="276" 
d="M123 667h-92v57q59 0 79.5 16t20.5 54h64v-394h-72v267z" />
    <glyph glyph-name="uni00B2" unicode="&#xb2;" horiz-adv-x="380" 
d="M58 511.5q24 41.5 81 69.5l67 33q52 24 52 72q0 26 -17 41.5t-46 15.5q-35 0 -55 -21t-20 -58h-76q0 63 41.5 100.5t109.5 37.5q65 0 102.5 -30t37.5 -82q0 -39 -20.5 -69t-59.5 -50l-63 -32q-33 -16 -47 -32.5t-19 -44.5h208v-62h-300q0 70 24 111.5z" />
    <glyph glyph-name="uni00B3" unicode="&#xb3;" horiz-adv-x="386" 
d="M78 426.5q-40 34.5 -40 97.5h76q0 -34 21 -53.5t57 -19.5q34 0 54 17t20 45q0 30 -19.5 46.5t-57.5 16.5h-38v57h38q35 0 53.5 15t18.5 43q0 25 -19 40t-49 15q-33 0 -52.5 -17t-19.5 -47h-75q0 54 40 87t108 33q65 0 104 -29t39 -78q0 -34 -20.5 -57.5t-60.5 -32.5
q39 -5 63 -31.5t24 -63.5q0 -53 -41.5 -85.5t-110.5 -32.5q-73 0 -113 34.5z" />
    <glyph glyph-name="uni2074" unicode="&#x2074;" horiz-adv-x="390" 
d="M355 520h-57v-120h-74v120h-171v274h74v-210h97v109h74v-109h57v-64z" />
    <glyph glyph-name="uni2075" unicode="&#x2075;" horiz-adv-x="394" 
d="M94 422.5q-40 30.5 -43 84.5h73q2 -25 22.5 -39.5t53.5 -14.5q38 0 60 22.5t22 59.5q0 36 -21 57t-56 21q-30 0 -48 -10.5t-29 -32.5h-67v224h269v-58h-202v-106q30 38 96 38q59 0 95 -36t36 -95q0 -66 -42 -105.5t-113 -39.5q-66 0 -106 30.5z" />
    <glyph glyph-name="uni2076" unicode="&#x2076;" horiz-adv-x="389" 
d="M306 642q42 -41 42 -105q0 -63 -42 -104t-112 -41q-69 0 -111 41t-42 104q0 48 25 85l125 172h86l-86 -111h3q70 0 112 -41zM254 476q22 24 22 61t-22 61t-60 24q-37 0 -59.5 -24t-22.5 -61t22.5 -61t59.5 -24q38 0 60 24z" />
    <glyph glyph-name="uni2077" unicode="&#x2077;" horiz-adv-x="352" 
d="M233 731h-194v63h303l-208 -394h-84z" />
    <glyph glyph-name="uni2078" unicode="&#x2078;" horiz-adv-x="395" 
d="M86 422q-42 30 -42 83q0 38 20.5 64t60.5 34q-35 10 -54.5 35t-19.5 58q0 48 40.5 77t106.5 29q65 0 105.5 -29t40.5 -77q0 -34 -19.5 -58.5t-54.5 -34.5q40 -8 61 -34t21 -64q0 -53 -42 -83t-112 -30t-112 30zM251.5 647.5q20.5 16.5 20.5 42.5q0 28 -20.5 44.5
t-53.5 16.5q-34 0 -54 -16.5t-20 -44.5q0 -26 20 -42.5t54 -16.5q33 0 53.5 16.5zM255.5 464.5q21.5 18.5 21.5 47.5q0 30 -21.5 47.5t-57.5 17.5t-58 -17.5t-22 -47.5t22 -48t58 -18t57.5 18.5z" />
    <glyph glyph-name="uni2079" unicode="&#x2079;" horiz-adv-x="389" 
d="M323 572l-125 -172h-86l86 111h-3q-70 0 -112 41t-42 105q0 63 42 104t112 41q69 0 111 -41t42 -104q0 -47 -25 -85zM135 596q22 -24 60 -24q37 0 59.5 24t22.5 61t-22.5 61t-59.5 24q-38 0 -60 -24t-22 -61t22 -61z" />
    <glyph glyph-name="uni2153" unicode="&#x2153;" horiz-adv-x="784" 
d="M123 553h-92v57q59 0 79.5 16t20.5 54h64v-394h-72v267zM86 18l472 682l58 -38l-472 -682zM476 26.5q-40 34.5 -40 97.5h76q0 -34 21 -53.5t57 -19.5q34 0 54 17t20 45q0 30 -19.5 46.5t-57.5 16.5h-38v57h38q35 0 53.5 15t18.5 43q0 25 -19 40t-49 15q-33 0 -52.5 -17
t-19.5 -47h-75q0 54 40 87t108 33q65 0 104 -29t39 -78q0 -34 -20.5 -57.5t-60.5 -32.5q39 -5 63 -31.5t24 -63.5q0 -53 -41.5 -85.5t-110.5 -32.5q-73 0 -113 34.5z" />
    <glyph glyph-name="uni2154" unicode="&#x2154;" horiz-adv-x="891" 
d="M58 397.5q24 41.5 81 69.5l67 33q52 24 52 72q0 26 -17 41.5t-46 15.5q-35 0 -55 -21t-20 -58h-76q0 63 41.5 100.5t109.5 37.5q65 0 102.5 -30t37.5 -82q0 -39 -20.5 -69t-59.5 -50l-63 -32q-33 -16 -47 -32.5t-19 -44.5h208v-62h-300q0 70 24 111.5zM193 18l472 682
l58 -38l-472 -682zM583 26.5q-40 34.5 -40 97.5h76q0 -34 21 -53.5t57 -19.5q34 0 54 17t20 45q0 30 -19.5 46.5t-57.5 16.5h-38v57h38q35 0 53.5 15t18.5 43q0 25 -19 40t-49 15q-33 0 -52.5 -17t-19.5 -47h-75q0 54 40 87t108 33q65 0 104 -29t39 -78q0 -34 -20.5 -57.5
t-60.5 -32.5q39 -5 63 -31.5t24 -63.5q0 -53 -41.5 -85.5t-110.5 -32.5q-73 0 -113 34.5z" />
    <glyph glyph-name="colon.case" horiz-adv-x="286" 
d="M91 14.5q-21 21.5 -21 51.5t21 51.5t51 21.5q31 0 52.5 -21.5t21.5 -51.5t-21.5 -51.5t-52.5 -21.5q-30 0 -51 21.5zM91 352.5q-21 21.5 -21 51.5t21 51.5t51 21.5q31 0 52.5 -21.5t21.5 -51.5t-21.5 -51.5t-52.5 -21.5q-30 0 -51 21.5z" />
    <glyph glyph-name="exclamdown.case" horiz-adv-x="267" 
d="M90 0h87v490h-87v-490zM82 685.5q-21 -21.5 -21 -51.5t21 -51.5t51 -21.5q31 0 52.5 21.5t21.5 51.5t-21.5 51.5t-52.5 21.5q-30 0 -51 -21.5z" />
    <glyph glyph-name="questiondown.case" horiz-adv-x="472" 
d="M303 474q0 -50 -13 -80t-52 -58l-51 -36q-33 -24 -50 -53.5t-17 -71.5q0 -50 31.5 -81t85.5 -31q62 0 98.5 37t36.5 106h91q0 -105 -61.5 -164t-168.5 -59q-98 0 -152.5 52.5t-54.5 136.5q0 60 26 101.5t74 78.5l43 31q28 21 38 39.5t10 50.5v17h86v-16zM312 685.5
q21 -21.5 21 -51.5t-21 -51.5t-52 -21.5q-30 0 -51.5 21.5t-21.5 51.5t21.5 51.5t51.5 21.5q31 0 52 -21.5z" />
    <glyph glyph-name="quotedbl.case" horiz-adv-x="414" 
d="M187 622l-42 -185h-44l-43 185q-3 11 -3 21q0 28 19.5 47.5t47.5 19.5t48 -19.5t20 -47.5q0 -10 -3 -21zM356 622l-42 -185h-44l-43 185q-3 11 -3 21q0 28 19.5 47.5t47.5 19.5t48 -19.5t20 -47.5q0 -10 -3 -21z" />
    <glyph glyph-name="quotesingle.case" horiz-adv-x="245" 
d="M187 622l-42 -185h-44l-43 185q-3 11 -3 21q0 28 19.5 47.5t47.5 19.5t48 -19.5t20 -47.5q0 -10 -3 -21z" />
    <glyph glyph-name="semicolon.case" horiz-adv-x="296" 
d="M72 -117v42q12 -2 37 -2q20 0 34.5 9t21.5 25q13 22 13 53q-14 -15 -41 -15q-29 0 -48 18.5t-19 49.5q0 32 20.5 52t51.5 20q35 0 63 -30t28 -85q0 -62 -33.5 -100.5t-93.5 -38.5q-25 0 -34 2zM91 351.5q-21 21.5 -21 51.5t21 51.5t51 21.5q31 0 52.5 -21.5t21.5 -51.5
t-21.5 -51.5t-52.5 -21.5q-30 0 -51 21.5z" />
    <glyph glyph-name="underscore.case" horiz-adv-x="515" 
d="M0 -17h515v-61h-515v61z" />
    <glyph glyph-name="colon.tf" horiz-adv-x="320" 
d="M108 14.5q-21 21.5 -21 51.5t21 51.5t51 21.5q31 0 52.5 -21.5t21.5 -51.5t-21.5 -51.5t-52.5 -21.5q-30 0 -51 21.5zM108 347.5q-21 21.5 -21 51.5t21 51.5t51 21.5q31 0 52.5 -21.5t21.5 -51.5t-21.5 -51.5t-52.5 -21.5q-30 0 -51 21.5z" />
    <glyph glyph-name="comma.tf" horiz-adv-x="320" 
d="M80 -117v42q12 -2 37 -2q20 0 34.5 9t21.5 25q13 22 13 53q-14 -15 -41 -15q-28 0 -47.5 18.5t-19.5 49.5q0 32 20.5 52t51.5 20q35 0 63 -30t28 -85q0 -62 -33.5 -100.5t-93.5 -38.5q-25 0 -34 2z" />
    <glyph glyph-name="period.tf" horiz-adv-x="320" 
d="M108 14.5q-21 21.5 -21 51.5t21 51.5t51 21.5q31 0 52 -21.5t21 -51.5t-21 -51.5t-52 -21.5q-30 0 -51 21.5z" />
    <glyph glyph-name="semicolon.tf" horiz-adv-x="320" 
d="M80 -117v42q12 -2 37 -2q20 0 34.5 9t21.5 25q13 22 13 53q-14 -15 -41 -15q-29 0 -48 18.5t-19 49.5q0 32 20.5 52t51.5 20q35 0 63 -30t28 -85q0 -62 -33.5 -100.5t-93.5 -38.5q-25 0 -34 2zM99 339.5q-21 21.5 -21 51.5t21 51.5t51 21.5q31 0 52.5 -21.5t21.5 -51.5
t-21.5 -51.5t-52.5 -21.5q-30 0 -51 21.5z" />
    <glyph glyph-name="slash.tf" 
d="M113 -34l343 795l70 -31l-343 -795z" />
    <glyph glyph-name="underscore.tf" 
d="M0 -151h640v-62h-640v62z" />
    <glyph glyph-name="uni208D" unicode="&#x208d;" horiz-adv-x="243" 
d="M83.5 -36q-32.5 65 -32.5 154t32.5 153.5t91.5 122.5l51 -43q-56 -54 -81 -106.5t-25 -126.5t25 -127t81 -107l-51 -43q-59 58 -91.5 123z" />
    <glyph glyph-name="uni208E" unicode="&#x208e;" horiz-adv-x="243" 
d="M159.5 -36q32.5 65 32.5 154t-32.5 153.5t-91.5 122.5l-51 -43q56 -54 81 -106.5t25 -126.5t-25 -127t-81 -107l51 -43q59 58 91.5 123z" />
    <glyph glyph-name="uni207D" unicode="&#x207d;" horiz-adv-x="243" 
d="M83.5 450q-32.5 65 -32.5 154t32.5 153.5t91.5 122.5l51 -43q-56 -54 -81 -106.5t-25 -126.5t25 -127t81 -107l-51 -43q-59 58 -91.5 123z" />
    <glyph glyph-name="uni207E" unicode="&#x207e;" horiz-adv-x="243" 
d="M159.5 450q32.5 65 32.5 154t-32.5 153.5t-91.5 122.5l-51 -43q56 -54 81 -106.5t25 -126.5t-25 -127t-81 -107l51 -43q59 58 91.5 123z" />
    <glyph glyph-name="braceleft.case" horiz-adv-x="314" 
d="M184.5 -97.5q-30.5 15.5 -50 47t-19.5 76.5v197q0 31 -15.5 51.5t-37 30t-39.5 9.5v72q18 0 39.5 9.5t37 30t15.5 51.5v197q0 45 19.5 76.5t50 47t64.5 15.5h59v-69h-47q-35 0 -51 -24t-16 -62v-192q0 -55 -29.5 -81.5t-64.5 -34.5q35 -8 64.5 -34.5t29.5 -81.5v-192
q0 -38 16 -62t51 -24h47v-69h-59q-34 0 -64.5 15.5z" />
    <glyph glyph-name="braceright.case" horiz-adv-x="314" 
d="M129.5 -97.5q30.5 15.5 50 47t19.5 76.5v197q0 31 15.5 51.5t37 30t39.5 9.5v72q-18 0 -39.5 9.5t-37 30t-15.5 51.5v197q0 45 -19.5 76.5t-50 47t-64.5 15.5h-59v-69h47q35 0 51 -24t16 -62v-192q0 -55 29.5 -81.5t64.5 -34.5q-35 -8 -64.5 -34.5t-29.5 -81.5v-192
q0 -38 -16 -62t-51 -24h-47v-69h59q34 0 64.5 15.5z" />
    <glyph glyph-name="bracketleft.case" horiz-adv-x="288" 
d="M80 813h197v-70h-118v-787h118v-69h-197v926z" />
    <glyph glyph-name="bracketright.case" horiz-adv-x="288" 
d="M208 813h-197v-70h118v-787h-118v-69h197v926z" />
    <glyph glyph-name="parenleft.case" horiz-adv-x="318" 
d="M116.5 89q-58.5 113 -58.5 263t58.5 263.5t160.5 202.5l53 -50q-93 -90 -139.5 -190t-46.5 -226t46.5 -226t139.5 -190l-53 -49q-102 89 -160.5 202z" />
    <glyph glyph-name="parenright.case" horiz-adv-x="318" 
d="M201.5 89q58.5 113 58.5 263t-58.5 263.5t-160.5 202.5l-53 -50q93 -90 139.5 -190t46.5 -226t-46.5 -226t-139.5 -190l53 -49q102 89 160.5 202z" />
    <glyph glyph-name="parenleft.tf" 
d="M242.5 9q-58.5 113 -58.5 263t58.5 263.5t160.5 202.5l53 -50q-93 -90 -139.5 -190t-46.5 -226t46.5 -226t139.5 -190l-53 -49q-102 89 -160.5 202z" />
    <glyph glyph-name="parenright.tf" 
d="M397.5 9q58.5 113 58.5 263t-58.5 263.5t-160.5 202.5l-53 -50q93 -90 139.5 -190t46.5 -226t-46.5 -226t-139.5 -190l53 -49q102 89 160.5 202z" />
    <glyph glyph-name="emdash.case" horiz-adv-x="798" 
d="M53 380h692v-70h-692v70z" />
    <glyph glyph-name="endash.case" horiz-adv-x="581" 
d="M23 380h505v-70h-505v70z" />
    <glyph glyph-name="hyphen.case" horiz-adv-x="380" 
d="M33 383h295v-77h-295v77z" />
    <glyph glyph-name="hyphen.tf" 
d="M117 301h405v-78h-405v78z" />
    <glyph glyph-name="guillemotleft.case" horiz-adv-x="498" 
d="M6 332l207 192l49 -50l-152 -142l152 -142l-49 -50zM228 332l207 192l49 -50l-152 -142l152 -142l-49 -50z" />
    <glyph glyph-name="guillemotright.case" horiz-adv-x="498" 
d="M492 332l-207 192l-49 -50l152 -142l-152 -142l49 -50zM270 332l-207 192l-49 -50l152 -142l-152 -142l49 -50z" />
    <glyph glyph-name="guilsinglleft.case" horiz-adv-x="276" 
d="M6 332l207 192l49 -50l-152 -142l152 -142l-49 -50z" />
    <glyph glyph-name="guilsinglright.case" horiz-adv-x="276" 
d="M270 332l-207 192l-49 -50l152 -142l-152 -142l49 -50z" />
    <glyph glyph-name="parenleft.dnom" horiz-adv-x="243" 
d="M83.5 30q-32.5 65 -32.5 154t32.5 153.5t91.5 122.5l51 -43q-56 -54 -81 -106.5t-25 -126.5t25 -127t81 -107l-51 -43q-59 58 -91.5 123z" />
    <glyph glyph-name="parenright.dnom" horiz-adv-x="243" 
d="M159.5 30q32.5 65 32.5 154t-32.5 153.5t-91.5 122.5l-51 -43q56 -54 81 -106.5t25 -126.5t-25 -127t-81 -107l51 -43q59 58 91.5 123z" />
    <glyph glyph-name="parenleft.numr" horiz-adv-x="243" 
d="M83.5 340q-32.5 65 -32.5 154t32.5 153.5t91.5 122.5l51 -43q-56 -54 -81 -106.5t-25 -126.5t25 -127t81 -107l-51 -43q-59 58 -91.5 123z" />
    <glyph glyph-name="parenright.numr" horiz-adv-x="243" 
d="M17 260q56 54 81 107t25 127t-25 126.5t-81 106.5l51 43q59 -58 91.5 -122.5t32.5 -153.5t-32.5 -154t-91.5 -123z" />
    <glyph glyph-name="uni2003" unicode="&#x2003;" horiz-adv-x="1000" 
 />
    <glyph glyph-name="uni2002" unicode="&#x2002;" horiz-adv-x="500" 
 />
    <glyph glyph-name="uni2005" unicode="&#x2005;" horiz-adv-x="250" 
 />
    <glyph glyph-name="uni200A" unicode="&#x200a;" horiz-adv-x="75" 
 />
    <glyph glyph-name="uni00A0" unicode="&#xa0;" horiz-adv-x="265" 
 />
    <glyph glyph-name="uni2009" unicode="&#x2009;" horiz-adv-x="135" 
 />
    <glyph glyph-name="uni2004" unicode="&#x2004;" horiz-adv-x="0" 
 />
    <glyph glyph-name="uni0E3F" unicode="&#xe3f;" horiz-adv-x="582" 
d="M479 49.5q-58 -49.5 -158 -49.5v-99h-67v99h-174v681h174v99h67v-99q97 -3 152 -49.5t55 -127.5q0 -67 -35 -107t-97 -50q60 -6 100.5 -49.5t40.5 -112.5q0 -86 -58 -135.5zM171 601v-216h142q57 0 90.5 29t33.5 79q0 51 -34.5 79.5t-95.5 28.5h-136zM411.5 110.5
q34.5 30.5 34.5 84.5q0 49 -33.5 80t-86.5 31h-155v-226h147q59 0 93.5 30.5z" />
    <glyph glyph-name="uni20BA" unicode="&#x20ba;" horiz-adv-x="479" 
d="M469 264q0 -134 -79.5 -199t-221.5 -65h-89v219l-51 -25v69l51 25v68l-51 -25v69l51 25v255h92v-210l155 76v-69l-155 -76v-68l155 76v-69l-155 -76v-182q104 0 156.5 44.5t52.5 137.5h89z" />
    <glyph glyph-name="uni20BD" unicode="&#x20bd;" horiz-adv-x="594" 
d="M190 197v-59h170v-59h-170v-79h-91v79h-100v59h100v59h-100v82h100v401h246q68 0 121.5 -31t83.5 -86t30 -125q0 -69 -30.5 -124t-84 -86t-120.5 -31h-155zM190 279h149q42 0 76.5 20.5t54 57t19.5 81.5q0 46 -19.5 82.5t-53.5 57t-77 20.5h-149v-319z" />
    <glyph glyph-name="uni20B9" unicode="&#x20b9;" horiz-adv-x="524" 
d="M425 552.5q19 -38.5 23 -83.5h81l-16 -61h-65q-7 -71 -47.5 -123t-103.5 -74l143 -211h-105l-133 197h-144v82h151q57 0 97.5 36t50.5 93h-299v61h299q-10 58 -50.5 93.5t-97.5 35.5h-151v82h471l-16 -61h-137q30 -28 49 -66.5z" />
    <glyph glyph-name="uni0E3F.case" horiz-adv-x="582" 
d="M479 51q-58 -51 -158 -51v-102h-67v102h-174v700h174v102h67v-102q97 -3 152 -50.5t55 -130.5q0 -69 -35 -110.5t-97 -51.5q60 -7 100.5 -51.5t40.5 -115.5q0 -88 -58 -139zM171 620v-226h142q56 0 90 31t34 83q0 53 -34.5 82.5t-95.5 29.5h-136zM412 112.5
q34 31.5 34 87.5q0 51 -33.5 83t-86.5 32h-155v-234h147q60 0 94 31.5z" />
    <glyph glyph-name="cent.case" horiz-adv-x="519" 
d="M353.5 211.5q32.5 25.5 41.5 75.5h87q-8 -73 -56 -120.5t-125 -56.5v-110h-66v110q-92 10 -144.5 75t-52.5 165t52.5 165t144.5 75v110h66v-110q77 -9 125 -57t56 -124h-87q-9 52 -41.5 78.5t-87.5 26.5q-66 0 -104 -43.5t-38 -120.5t38 -120.5t104 -43.5q55 0 87.5 25.5
z" />
    <glyph glyph-name="dollar.case" horiz-adv-x="544" 
d="M452.5 47q-51.5 -53 -139.5 -61v-90h-66v90q-101 9 -156.5 73t-55.5 169h91q0 -75 41 -119.5t114 -44.5q63 0 97.5 30.5t34.5 86.5q0 45 -24.5 73t-77.5 44l-113 33q-69 21 -105.5 69.5t-36.5 122.5q0 49 23.5 91.5t67 69.5t100.5 32v93h66v-95q81 -12 128 -69.5
t48 -145.5h-91q-1 66 -35 102.5t-95 36.5q-57 0 -88.5 -30.5t-31.5 -79.5q0 -48 26 -77.5t84 -47.5l118 -36q62 -20 95 -66.5t33 -117.5q0 -83 -51.5 -136z" />
    <glyph glyph-name="Euro.case" horiz-adv-x="595" 
d="M416 105q34 36 42 97h89q-13 -94 -70 -153.5t-152 -59.5q-207 0 -237 263h-67l16 61h46q-1 13 -1 40q0 25 1 38h-60l16 62h48q32 264 238 264q95 0 152 -59.5t70 -153.5h-89q-9 60 -42.5 96t-90.5 36q-70 0 -105 -47t-45 -136h206l-16 -62h-194q-1 -12 -1 -38
q0 -27 1 -40h209l-16 -61h-189q10 -89 45 -136t105 -47q57 0 91 36z" />
    <glyph glyph-name="florin.case" horiz-adv-x="430" 
d="M312.5 617q-22.5 -21 -32.5 -79l-12 -68h130l-13 -74h-129l-78 -452q-15 -87 -58.5 -129t-110.5 -42q-44 0 -75 12l13 75q23 -9 50 -9q40 0 62.5 20t31.5 72l78 453h-99l13 74h99l12 69q16 95 60.5 136.5t116.5 41.5q42 0 68 -12l-13 -75q-20 8 -50 8q-41 0 -63.5 -21z
" />
    <glyph glyph-name="uni20B4.case" horiz-adv-x="562" 
d="M292 314h239l-16 -50h-320q-29 -18 -41.5 -38.5t-12.5 -51.5q0 -50 34 -78t95 -28q70 0 110 32t40 87h84q0 -90 -62.5 -144.5t-172.5 -54.5q-97 0 -155.5 48t-58.5 131q0 58 24 97h-49l17 50h79q22 16 51 30l102 48h-249l17 51h319q19 18 27 40.5t8 52.5q0 46 -31.5 74
t-85.5 28q-62 0 -96 -28.5t-34 -80.5h-84q0 86 58 137t154 51q93 0 148.5 -47t55.5 -130q0 -56 -22 -97h67l-16 -51h-88q-28 -26 -65 -44z" />
    <glyph glyph-name="uni20BA.case" horiz-adv-x="479" 
d="M469 272q0 -137 -79.5 -204.5t-221.5 -67.5h-89v226l-51 -26v70l51 26v71l-51 -26v70l51 26v263h92v-217l155 78v-70l-155 -78v-71l155 78v-70l-155 -78v-189q209 0 209 189h89z" />
    <glyph glyph-name="uni20BD.case" horiz-adv-x="594" 
d="M190 203v-61h170v-60h-170v-82h-91v82h-100v60h100v61h-100v83h100v414h246q68 0 121.5 -32t83.5 -88.5t30 -128.5q0 -71 -30.5 -127.5t-84 -88.5t-120.5 -32h-155zM190 286h149q43 0 77 21t53.5 59t19.5 85t-19.5 85t-54 59.5t-76.5 21.5h-149v-331z" />
    <glyph glyph-name="uni20B9.case" horiz-adv-x="524" 
d="M425 569.5q19 -39.5 23 -87.5h81l-16 -61h-64q-7 -73 -47.5 -127t-103.5 -77l142 -217h-105l-133 203h-144v83h151q58 0 98.5 37.5t49.5 97.5h-299v61h299q-10 60 -50.5 97.5t-97.5 37.5h-151v83h471l-16 -62h-138q31 -29 50 -68.5z" />
    <glyph glyph-name="sterling.case" horiz-adv-x="513" 
d="M175.5 154q-14.5 -49 -35.5 -71h334v-83h-435v62q27 26 43.5 72t16.5 114v96h-63v68h63v81q0 113 55.5 168.5t147.5 55.5q94 0 147.5 -53.5t53.5 -147.5h-91q0 60 -27.5 92.5t-82.5 32.5q-56 0 -84 -36t-28 -114v-79h169v-68h-169v-78q0 -63 -14.5 -112z" />
    <glyph glyph-name="uni20B8.case" horiz-adv-x="521" 
d="M6 700h509v-83h-509v83zM215 456h-209v83h509v-83h-209v-456h-91v456z" />
    <glyph glyph-name="uni0E3F.tf.case" 
d="M490 51q-58 -51 -158 -51v-102h-66v102h-175v700h175v102h66v-102q96 -2 151.5 -50t55.5 -131q0 -69 -35 -110.5t-97 -51.5q60 -7 100.5 -51.5t40.5 -115.5q0 -88 -58 -139zM182 620v-226h142q56 0 90 31t34 83q0 53 -34.5 82.5t-95.5 29.5h-136zM423 112.5
q34 31.5 34 87.5q0 51 -33.5 83t-86.5 32h-155v-234h148q59 0 93 31.5z" />
    <glyph glyph-name="cent.tf.case" 
d="M413.5 211.5q32.5 25.5 41.5 75.5h87q-8 -73 -56 -120.5t-125 -56.5v-110h-66v110q-92 10 -144.5 75t-52.5 165t52.5 165t144.5 75v110h66v-110q77 -9 125 -57t56 -124h-87q-9 52 -41.5 78.5t-87.5 26.5q-66 0 -104 -43.5t-38 -120.5t38 -120.5t104 -43.5q55 0 87.5 25.5
z" />
    <glyph glyph-name="dollar.tf.case" 
d="M502.5 47q-51.5 -53 -139.5 -61v-90h-66v90q-101 9 -156.5 73t-55.5 169h91q0 -75 41 -119.5t114 -44.5q63 0 97.5 30.5t34.5 86.5q0 45 -24.5 73t-77.5 44l-113 33q-69 21 -105.5 69.5t-36.5 122.5q0 49 23.5 91.5t67 69.5t100.5 32v93h66v-95q81 -12 128 -69.5
t48 -145.5h-91q-1 66 -35 102.5t-95 36.5q-57 0 -88.5 -30.5t-31.5 -79.5q0 -48 26 -77.5t84 -47.5l118 -36q62 -20 95 -66.5t33 -117.5q0 -83 -51.5 -136z" />
    <glyph glyph-name="Euro.tf.case" 
d="M451.5 105q33.5 36 42.5 97h89q-13 -94 -70 -153.5t-152 -59.5q-206 0 -238 263h-66l16 61h45q-1 13 -1 40q0 25 1 38h-60l17 62h47q32 264 239 264q95 0 152 -59.5t70 -153.5h-89q-9 60 -43 96t-90 36q-71 0 -106 -47t-45 -136h207l-16 -62h-195q-1 -12 -1 -38
q0 -27 1 -40h210l-16 -61h-190q10 -88 45.5 -135.5t105.5 -47.5q57 0 90.5 36z" />
    <glyph glyph-name="florin.tf.case" 
d="M445.5 617q-22.5 -21 -32.5 -79l-12 -68h130l-13 -74h-129l-78 -452q-15 -87 -58.5 -129t-110.5 -42q-44 0 -75 12l13 75q23 -9 50 -9q40 0 62.5 20t31.5 72l78 453h-99l13 74h99l12 69q16 95 60.5 136.5t116.5 41.5q42 0 68 -12l-13 -75q-20 8 -50 8q-41 0 -63.5 -21z
" />
    <glyph glyph-name="uni20B4.tf.case" 
d="M409 348l-70 -34h230v-50h-327q-29 -18 -41 -38.5t-12 -51.5q0 -50 33.5 -78t94.5 -28q70 0 110 32t40 87h84q0 -90 -62.5 -144.5t-172.5 -54.5q-97 0 -155.5 48t-58.5 131q0 58 24 97h-55v50h102q22 16 51 30l102 48h-255v51h342q19 18 27 40.5t8 52.5q0 46 -31 74
t-86 28q-62 0 -96 -28.5t-34 -80.5h-83q0 86 58 137t154 51q92 0 147.5 -47t55.5 -130q0 -56 -22 -97h58v-51h-95q-28 -26 -65 -44z" />
    <glyph glyph-name="uni20BA.tf.case" 
d="M540 272q0 -137 -79.5 -204.5t-221.5 -67.5h-89v226l-51 -26v70l51 26v71l-51 -26v70l51 26v263h91v-218l156 79v-70l-156 -79v-71l156 79v-70l-156 -79v-188q210 0 210 189h89z" />
    <glyph glyph-name="uni20BD.tf.case" 
d="M220 203v-61h170v-60h-170v-82h-91v82h-100v60h100v61h-100v83h100v414h239q68 0 123 -32t87 -89t32 -128t-32 -127.5t-87.5 -88.5t-122.5 -32h-148zM220 286h150q42 0 76 21t53.5 59t19.5 85t-19.5 85t-53.5 59.5t-76 21.5h-150v-331z" />
    <glyph glyph-name="uni20B9.tf.case" 
d="M451 569.5q19 -39.5 23 -87.5h81l-16 -61h-64q-7 -73 -47.5 -127t-103.5 -77l142 -217h-105l-133 203h-144v83h151q58 0 98.5 37.5t49.5 97.5h-299v61h299q-10 60 -50.5 97.5t-97.5 37.5h-151v83h471l-16 -62h-138q31 -29 50 -68.5z" />
    <glyph glyph-name="sterling.tf.case" 
d="M225.5 154q-14.5 -49 -35.5 -71h334v-83h-435v62q27 26 43.5 72t16.5 114v96h-63v68h63v81q0 113 55.5 168.5t147.5 55.5q94 0 147.5 -53.5t53.5 -147.5h-91q0 60 -27.5 92.5t-82.5 32.5q-56 0 -84 -36t-28 -114v-79h169v-68h-169v-78q0 -63 -14.5 -112z" />
    <glyph glyph-name="uni20B8.tf.case" 
d="M65 700h509v-83h-509v83zM274 456h-209v83h509v-83h-209v-456h-91v456z" />
    <glyph glyph-name="uni20AE.tf.case" 
d="M365 617v-149l123 61v-71l-123 -60v-70l123 60v-70l-123 -60v-258h-91v213l-123 -60v70l123 60v70l-123 -60v70l123 61v193h-209v83h509v-83h-209z" />
    <glyph glyph-name="uni20A9.tf.case" 
d="M562 393l-14 -84h75v-68h-86l-40 -241h-86l-90 560l-91 -560h-86l-40 241h-87v68h76l-14 84h-62v67h51l-39 240h91l72 -565l91 565h75l91 -565l73 565h90l-39 -240h50v-67h-61z" />
    <glyph glyph-name="yen.tf.case" 
d="M369 284h143v-62h-145v-71h145v-62h-145v-89h-93v89h-145v62h145v71h-145v62h143l-216 416h102l162 -342l163 342h102z" />
    <glyph glyph-name="uni20AE.case" horiz-adv-x="521" 
d="M306 617v-149l123 61v-71l-123 -60v-70l123 60v-70l-123 -60v-258h-91v213l-123 -60v70l123 60v70l-123 -60v70l123 61v193h-209v83h509v-83h-209z" />
    <glyph glyph-name="uni20A9.case" horiz-adv-x="758" 
d="M656 393l-16 -84h102v-68h-115l-47 -241h-86l-115 559l-115 -559h-86l-47 241h-115v68h102l-16 84h-86v67h73l-47 240h93l90 -565l118 565h72l118 -565l90 565h93l-47 -240h73v-67h-86z" />
    <glyph glyph-name="yen.case" horiz-adv-x="549" 
d="M323 284h143v-62h-145v-71h145v-62h-145v-89h-93v89h-145v62h145v71h-145v62h143l-216 416h102l162 -342l163 342h102z" />
    <glyph glyph-name="uni0E3F.tf" 
d="M490 49.5q-58 -49.5 -158 -49.5v-99h-66v99h-175v681h175v99h66v-99q96 -2 151.5 -49t55.5 -128q0 -67 -35 -107t-97 -50q60 -6 100.5 -49.5t40.5 -112.5q0 -86 -58 -135.5zM182 601v-216h142q57 0 90.5 29t33.5 79q0 51 -34.5 79.5t-95.5 28.5h-136zM423 110.5
q34 30.5 34 84.5q0 49 -33.5 80t-86.5 31h-155v-226h148q59 0 93 30.5z" />
    <glyph glyph-name="currency.tf" 
d="M56 162l68 68q-43 64 -43 140q0 77 43 139l-67 68l54 55l67 -68q60 44 141 44q82 0 143 -43l66 66l55 -54l-67 -67q44 -63 44 -140q0 -79 -44 -140l67 -67l-55 -55l-66 67q-61 -43 -143 -43q-79 0 -140 43l-68 -67zM400 231q35 22 54 58.5t19 80.5t-19 80.5t-54 58.5
t-81 22q-44 0 -78.5 -22t-53.5 -58.5t-19 -80.5t19 -80.5t53.5 -58.5t78.5 -22q46 0 81 22z" />
    <glyph glyph-name="uni20BA.tf" 
d="M540 264q0 -134 -79.5 -199t-221.5 -65h-89v219l-51 -25v69l51 25v68l-51 -25v69l51 25v255h91v-210l156 76v-69l-156 -76v-68l156 76v-69l-156 -76v-182q104 0 157 44.5t53 137.5h89z" />
    <glyph glyph-name="uni20BD.tf" 
d="M220 197v-59h170v-59h-170v-79h-91v79h-100v59h100v59h-100v82h100v401h239q68 0 123 -31t87 -86.5t32 -124.5t-32 -124t-87.5 -86t-122.5 -31h-148zM220 279h150q42 0 76 20.5t53.5 57t19.5 81.5q0 46 -19.5 82.5t-53.5 57t-76 20.5h-150v-319z" />
    <glyph glyph-name="uni20B9.tf" 
d="M451 552.5q19 -38.5 23 -83.5h81l-16 -61h-65q-7 -71 -47.5 -123t-103.5 -74l143 -211h-105l-133 197h-144v82h151q57 0 97.5 36t50.5 93h-299v61h299q-10 58 -50.5 93.5t-97.5 35.5h-151v82h471l-16 -61h-137q30 -28 49 -66.5z" />
    <glyph glyph-name="uni208C" unicode="&#x208c;" horiz-adv-x="398" 
d="M58 198h283v-56h-283v56zM58 63h283v-55h-283v55z" />
    <glyph glyph-name="uni207C" unicode="&#x207c;" horiz-adv-x="398" 
d="M58 684h283v-56h-283v56zM58 549h283v-55h-283v55z" />
    <glyph glyph-name="uni208B" unicode="&#x208b;" horiz-adv-x="398" 
d="M63 128h272v-55h-272v55z" />
    <glyph glyph-name="uni207B" unicode="&#x207b;" horiz-adv-x="398" 
d="M63 614h272v-55h-272v55z" />
    <glyph glyph-name="emptyset" unicode="&#x2205;" 
d="M495 459q47 -58 47 -142q0 -65 -28.5 -115.5t-79 -78.5t-114.5 -28q-84 0 -142 47l-57 -57l-33 33l57 57q-47 58 -47 142q0 65 28.5 115.5t79 78.5t114.5 28q84 0 142 -47l57 57l33 -33zM185 215l238 238q-41 32 -102 32q-74 0 -120 -46t-46 -122q0 -59 30 -102zM456 420
l-239 -239q43 -32 104 -32q73 0 119 46t46 122q0 60 -30 103z" />
    <glyph glyph-name="uni2126" unicode="&#x2126;" horiz-adv-x="702" 
d="M58 82h183v28q-93 32 -148 110.5t-55 178.5q0 85 38 156.5t109 114t166 42.5t166 -42.5t109 -114t38 -156.5q0 -100 -55 -179t-148 -111v-27h183v-82h-255v159q88 18 136 85.5t48 157.5q0 63 -26 115t-76 82.5t-120 30.5t-120 -30.5t-76 -82.5t-26 -115
q0 -90 47.5 -157.5t136.5 -85.5v-159h-255v82z" />
    <glyph glyph-name="uni2206" unicode="&#x2206;" horiz-adv-x="584" 
d="M259 700h66l241 -700h-548zM440 82l-148 469l-148 -469h296z" />
    <glyph glyph-name="uni00B5" unicode="&#xb5;" horiz-adv-x="567" 
d="M492 461v-461h-87v84q-19 -44 -59.5 -70t-95.5 -26q-57 0 -88 31v-232h-87v674h87v-264q0 -134 112 -134q66 0 98.5 42t32.5 104v252h87z" />
    <glyph glyph-name="uni208A" unicode="&#x208a;" horiz-adv-x="398" 
d="M170 73h-107v55h107v107h58v-107h107v-55h-107v-106h-58v106z" />
    <glyph glyph-name="uni207A" unicode="&#x207a;" horiz-adv-x="398" 
d="M170 559h-107v55h107v107h58v-107h107v-55h-107v-106h-58v106z" />
    <glyph glyph-name="plus.case" horiz-adv-x="504" 
d="M211 311h-158v77h158v161h82v-161h158v-77h-158v-160h-82v160z" />
    <glyph glyph-name="minus.case" horiz-adv-x="504" 
d="M53 388h398v-77h-398v77z" />
    <glyph glyph-name="multiply.case" horiz-adv-x="486" 
d="M298 350l135 -136l-55 -55l-135 136l-135 -135l-55 54l135 136l-135 135l54 55l136 -136l136 136l55 -54z" />
    <glyph glyph-name="divide.case" horiz-adv-x="504" 
d="M203 455.5q-20 20.5 -20 49.5t20 49.5t49 20.5t49.5 -20.5t20.5 -49.5t-20.5 -49.5t-49.5 -20.5t-49 20.5zM53 385h398v-77h-398v77zM203 144.5q-20 20.5 -20 49.5t20 49.5t49 20.5t49.5 -20.5t20.5 -49.5t-20.5 -49.5t-49.5 -20.5t-49 20.5z" />
    <glyph glyph-name="equal.case" horiz-adv-x="529" 
d="M53 476h424v-78h-424v78zM53 299h424v-78h-424v78z" />
    <glyph glyph-name="notequal.case" horiz-adv-x="529" 
d="M323 398l-44 -99h198v-78h-234l-47 -104h-72l47 104h-118v78h153l45 99h-198v78h233l47 104h73l-47 -104h118v-78h-154z" />
    <glyph glyph-name="greater.case" horiz-adv-x="500" 
d="M447 320v63l-394 173v-82l274 -122l-274 -123v-82z" />
    <glyph glyph-name="less.case" horiz-adv-x="500" 
d="M53 320v63l394 173v-82l-274 -122l274 -123v-82z" />
    <glyph glyph-name="greaterequal.case" horiz-adv-x="504" 
d="M55 339l259 68l-259 66v83l394 -119v-62l-394 -118v82zM53 199h398v-78h-398v78z" />
    <glyph glyph-name="lessequal.case" horiz-adv-x="504" 
d="M449 339l-259 68l259 66v83l-394 -119v-62l394 -118v82zM451 199h-398v-78h398v78z" />
    <glyph glyph-name="approxequal.case" horiz-adv-x="530" 
d="M320.5 362q-21.5 8 -53.5 25q-35 18 -58 26.5t-52 8.5q-51 0 -104 -53v76q22 27 50.5 40.5t56.5 13.5q24 0 50.5 -9.5t64.5 -27.5q34 -16 55.5 -23.5t38.5 -7.5q51 0 108 55v-76q-24 -29 -52.5 -42.5t-56.5 -13.5q-26 0 -47.5 8zM321.5 203q-21.5 8 -53.5 25
q-35 18 -58 26.5t-52 8.5q-51 0 -104 -53v76q22 27 50.5 40.5t56.5 13.5q23 0 49 -9.5t66 -27.5q35 -16 55.5 -23.5t37.5 -7.5q50 0 109 55v-76q-23 -29 -52 -42.5t-58 -13.5q-25 0 -46.5 8z" />
    <glyph glyph-name="logicalnot.case" horiz-adv-x="504" 
d="M365 383h-312v78h398v-227h-86v149z" />
    <glyph glyph-name="plus.tf.case" 
d="M279 306h-158v77h158v161h82v-161h158v-77h-158v-160h-82v160z" />
    <glyph glyph-name="minus.tf.case" 
d="M121 383h398v-77h-398v77z" />
    <glyph glyph-name="multiply.tf.case" 
d="M374 345l135 -136l-54 -55l-136 136l-135 -135l-55 54l136 136l-136 135l54 55l136 -136l136 136l55 -54z" />
    <glyph glyph-name="divide.tf.case" 
d="M271 450.5q-20 20.5 -20 49.5t20 49.5t49 20.5t49.5 -20.5t20.5 -49.5t-20.5 -49.5t-49.5 -20.5t-49 20.5zM121 380h398v-77h-398v77zM271 139.5q-20 20.5 -20 49.5t20 49.5t49 20.5t49.5 -20.5t20.5 -49.5t-20.5 -49.5t-49.5 -20.5t-49 20.5z" />
    <glyph glyph-name="equal.tf.case" 
d="M108 471h424v-78h-424v78zM108 294h424v-78h-424v78z" />
    <glyph glyph-name="notequal.tf.case" 
d="M378 393l-44 -99h198v-78h-234l-47 -104h-72l47 104h-118v78h154l44 99h-198v78h234l47 104h72l-47 -104h118v-78h-154z" />
    <glyph glyph-name="greater.tf.case" 
d="M517 315v63l-394 173v-82l274 -122l-274 -123v-82z" />
    <glyph glyph-name="less.tf.case" 
d="M123 315v63l394 173v-82l-274 -122l274 -123v-82z" />
    <glyph glyph-name="greaterequal.tf.case" 
d="M123 334l259 68l-259 66v83l394 -119v-62l-394 -118v82zM121 194h398v-78h-398v78z" />
    <glyph glyph-name="lessequal.tf.case" 
d="M517 334l-259 68l259 66v83l-394 -119v-62l394 -118v82zM519 194h-398v-78h398v78z" />
    <glyph glyph-name="plusminus.tf.case" 
d="M276 419h-155v77h155v112h87v-112h156v-77h-156v-110h-87v110zM121 249h398v-77h-398v77z" />
    <glyph glyph-name="approxequal.tf.case" 
d="M374 357.5q-22 8.5 -52 24.5q-34 18 -58 26.5t-53 8.5q-51 0 -104 -53v76q22 28 50.5 41t57.5 13q24 0 49 -9t66 -28q32 -15 54 -23t39 -8q51 0 108 55v-76q-24 -29 -52.5 -42.5t-56.5 -13.5q-26 0 -48 8.5zM375.5 198.5q-22.5 8.5 -53.5 24.5q-34 18 -57.5 26.5
t-52.5 8.5q-28 0 -54.5 -15t-48.5 -38v76q21 27 49.5 40.5t56.5 13.5q24 0 50 -9.5t66 -27.5q34 -16 55 -23.5t38 -7.5q49 0 108 55v-76q-23 -29 -52 -42.5t-57 -13.5q-25 0 -47.5 8.5z" />
    <glyph glyph-name="logicalnot.tf.case" 
d="M433 378h-312v78h398v-227h-86v149z" />
    <glyph glyph-name="plus.tf" 
d="M279 276h-158v77h158v161h82v-161h158v-77h-158v-160h-82v160z" />
    <glyph glyph-name="minus.tf" 
d="M121 353h398v-77h-398v77z" />
    <glyph glyph-name="multiply.tf" 
d="M374 315l135 -136l-54 -55l-136 136l-135 -135l-55 54l136 136l-136 135l54 55l136 -136l136 136l55 -54z" />
    <glyph glyph-name="divide.tf" 
d="M271 420.5q-20 20.5 -20 49.5t20 49.5t49 20.5t49.5 -20.5t20.5 -49.5t-20.5 -49.5t-49.5 -20.5t-49 20.5zM121 350h398v-77h-398v77zM271 109.5q-20 20.5 -20 49.5t20 49.5t49 20.5t49.5 -20.5t20.5 -49.5t-20.5 -49.5t-49.5 -20.5t-49 20.5z" />
    <glyph glyph-name="equal.tf" 
d="M108 441h424v-78h-424v78zM108 264h424v-78h-424v78z" />
    <glyph glyph-name="notequal.tf" 
d="M378 363l-44 -99h198v-78h-234l-47 -104h-72l47 104h-118v78h154l44 99h-198v78h234l47 104h72l-47 -104h118v-78h-154z" />
    <glyph glyph-name="greater.tf" 
d="M517 285v63l-394 173v-82l274 -122l-274 -123v-82z" />
    <glyph glyph-name="less.tf" 
d="M123 285v63l394 173v-82l-274 -122l274 -123v-82z" />
    <glyph glyph-name="greaterequal.tf" 
d="M123 299l259 68l-259 66v83l394 -119v-62l-394 -118v82zM121 159h398v-78h-398v78z" />
    <glyph glyph-name="lessequal.tf" 
d="M517 299l-259 68l259 66v83l-394 -119v-62l394 -118v82zM519 159h-398v-78h398v78z" />
    <glyph glyph-name="plusminus.tf" 
d="M276 389h-155v77h155v112h87v-112h156v-77h-156v-110h-87v110zM121 219h398v-77h-398v77z" />
    <glyph glyph-name="approxequal.tf" 
d="M374 327.5q-22 8.5 -52 24.5q-34 18 -58 26.5t-53 8.5q-51 0 -104 -53v76q22 28 50.5 41t57.5 13q24 0 49 -9t66 -28q32 -15 54 -23t39 -8q51 0 108 55v-76q-24 -29 -52.5 -42.5t-56.5 -13.5q-26 0 -48 8.5zM375.5 168.5q-22.5 8.5 -53.5 24.5q-34 18 -57.5 26.5
t-52.5 8.5q-28 0 -54.5 -15t-48.5 -38v76q21 27 49.5 40.5t56.5 13.5q24 0 50 -9.5t66 -27.5q34 -16 55 -23.5t38 -7.5q49 0 108 55v-76q-23 -29 -52 -42.5t-57 -13.5q-25 0 -47.5 8.5z" />
    <glyph glyph-name="logicalnot.tf" 
d="M433 348h-312v78h398v-227h-86v149z" />
    <glyph glyph-name="percent.tf" 
d="M66 18l455 682l58 -33l-454 -682zM83 371.5q-34 23.5 -52 62t-18 84.5t18 84.5t52 62t79 23.5t79 -23.5t51.5 -62t17.5 -84.5t-17.5 -84.5t-51.5 -62t-79 -23.5t-79 23.5zM221 441q21 29 21 77q0 47 -21 76t-59 29t-59.5 -29t-21.5 -76q0 -48 21.5 -77t59.5 -29t59 29z
M399 18.5q-34 23.5 -51.5 62t-17.5 84.5t17.5 84.5t51.5 62t79 23.5t79 -23.5t52 -62.5t18 -84q0 -46 -18 -84.5t-52 -62t-79 -23.5t-79 23.5zM537.5 88q21.5 29 21.5 77t-21.5 77t-59.5 29t-59 -29t-21 -77t21 -77t59 -29t59.5 29z" />
    <glyph glyph-name="arrowup" unicode="&#x2191;" horiz-adv-x="487" 
d="M207 557l-127 -142l-53 48l216 237l216 -237l-52 -48l-128 144v-559h-72v557z" />
    <glyph glyph-name="uni2197" unicode="&#x2197;" horiz-adv-x="570" 
d="M25 128l394 394l-191 -11l-3 72l320 14l-14 -320l-72 3l12 192l-395 -395z" />
    <glyph glyph-name="arrowright" unicode="&#x2192;" horiz-adv-x="720" 
d="M425 186l144 128h-559v72h557l-142 127l48 53l237 -216l-237 -216z" />
    <glyph glyph-name="uni2198" unicode="&#x2198;" horiz-adv-x="570" 
d="M225 117l3 72l192 -11l-395 394l51 51l394 -394l-11 191l72 3l14 -320z" />
    <glyph glyph-name="arrowdown" unicode="&#x2193;" horiz-adv-x="487" 
d="M27 237l53 48l128 -144v559h72v-558l127 143l52 -48l-216 -237z" />
    <glyph glyph-name="uni2199" unicode="&#x2199;" horiz-adv-x="570" 
d="M39 423l72 -3l-11 -192l394 395l51 -51l-394 -394l190 11l4 -72l-320 -14z" />
    <glyph glyph-name="arrowleft" unicode="&#x2190;" horiz-adv-x="720" 
d="M10 350l237 216l48 -52l-144 -129h559v-71h-558l143 -128l-48 -52z" />
    <glyph glyph-name="uni2196" unicode="&#x2196;" horiz-adv-x="570" 
d="M100 471l11 -191l-72 -3l-14 320l320 -14l-4 -72l-191 11l395 -394l-51 -51z" />
    <glyph glyph-name="uniF8FF" unicode="&#xf8ff;" horiz-adv-x="800" 
d="M208.5 34q-82.5 51 -127.5 135.5t-45 180.5t45 180.5t127.5 135.5t191.5 51t191.5 -51t127.5 -135.5t45 -180.5t-45 -180.5t-127.5 -135.5t-191.5 -51t-191.5 51zM570 52q78 46 123.5 125t45.5 173q0 90 -44.5 169.5t-122.5 127.5t-172 48q-95 0 -173 -48t-122.5 -127.5
t-44.5 -169.5q0 -94 45.5 -173t123.5 -125t171 -46q92 0 170 46zM213.5 470q-12.5 13 -12.5 30q0 18 12.5 30.5t29.5 12.5q18 0 30.5 -12.5t12.5 -30.5q0 -17 -12.5 -30t-30.5 -13q-17 0 -29.5 13zM510.5 470q-12.5 13 -12.5 30q0 18 12.5 30.5t29.5 12.5q18 0 30.5 -12.5
t12.5 -30.5q0 -17 -12.5 -30t-30.5 -13q-17 0 -29.5 13zM398 527l-110 -243h178v-25h-247zM158 259l23 13q11 6 13 17.5t2 39.5h17q0 -34 -4.5 -48t-15.5 -21l-22 -13q-23 -13 -23 -40h-16q0 38 26 52zM600 161q4 16 4 20q0 13 -17 21l-41 20q-39 20 -39 58q0 18 8 40l15 -5
q-7 -23 -7 -35q0 -31 34 -47l40 -19q23 -10 23 -33q0 -8 -4 -24zM267 104.5q-49 38.5 -99 123.5q7 -4 45.5 -27.5t73 -33.5t69.5 -10q57 0 118 8t102 29q1 0 3 2q-15 -32 -50.5 -62.5t-80 -49t-82.5 -18.5q-50 0 -99 38.5zM460.5 117.5q50.5 25.5 71.5 42.5q-38 -10 -33 -8
q-48 -11 -76.5 -15.5t-64.5 -4.5q-30 0 -69.5 11.5t-63.5 30.5q26 -42 69 -62t72 -20q44 0 94.5 25.5z" />
    <glyph glyph-name="uni2113" unicode="&#x2113;" horiz-adv-x="411" 
d="M189.5 -0.5q-33.5 10.5 -59.5 49.5t-26 117v7l-64 -52l-39 65l103 78v243q0 103 33.5 156.5t107.5 53.5q67 0 103 -47t36 -128q0 -82 -53 -156.5t-151 -155.5v-69q0 -43 14 -64.5t33 -27t46 -5.5q24 0 44.5 5.5t33.5 13.5l4 -71q-34 -23 -92 -23q-40 0 -73.5 10.5z
M279.5 440q29.5 50 29.5 105q0 47 -15 75t-46 28q-35 0 -51.5 -34t-16.5 -92v-197q70 65 99.5 115z" />
    <glyph glyph-name="estimated" unicode="&#x212e;" horiz-adv-x="516" 
d="M142 21.5q-52 33.5 -78 88.5t-26 121q0 70 27 124.5t78 86t122 31.5q59 0 108 -27.5t77.5 -75.5t28.5 -106q0 -16 -1 -28h-339v-184q53 -42 129 -42q68 0 116 33t64 82h23q-16 -58 -70.5 -97.5t-132.5 -39.5q-74 0 -126 33.5zM380 258v155q-51 38 -115 38q-73 0 -126 -40
v-153h241z" />
    <glyph glyph-name="at.case" horiz-adv-x="889" 
d="M230.5 -9q-94.5 53 -143.5 145.5t-49 211.5q0 123 51 214.5t144.5 141t217.5 49.5q120 0 210 -45t140.5 -136.5t50.5 -226.5q0 -118 -41 -183t-121 -65q-61 0 -93 30t-42 92q-18 -35 -55.5 -57t-88.5 -22q-57 0 -102 28t-69.5 75t-24.5 102t25 102.5t70.5 75.5t102.5 28
q48 0 85 -21t57 -58v70h73v-277q0 -59 16.5 -84t48.5 -25q39 0 64 43.5t25 139.5q0 180 -87.5 266.5t-243.5 86.5q-104 0 -182 -42.5t-120 -120.5t-42 -182q0 -102 41 -180t120 -122t190 -44q108 0 199 51l27 -58q-102 -56 -228 -56q-131 0 -225.5 53zM517.5 246.5
q37.5 40.5 37.5 98.5q0 59 -37.5 99.5t-96.5 40.5t-95.5 -40.5t-36.5 -99.5q0 -58 36.5 -98.5t95.5 -40.5t96.5 40.5z" />
    <glyph glyph-name="bar.case" horiz-adv-x="228" 
d="M80 816h68v-928h-68v928z" />
    <glyph glyph-name="brokenbar.case" horiz-adv-x="228" 
d="M80 816h68v-408h-68v408zM80 311h68v-423h-68v423z" />
    <glyph glyph-name="bar.tf" horiz-adv-x="320" 
d="M126 733h68v-925h-68v925z" />
    <glyph glyph-name="plus.dnom" horiz-adv-x="398" 
d="M170 139h-107v55h107v107h58v-107h107v-55h-107v-106h-58v106z" />
    <glyph glyph-name="minus.dnom" horiz-adv-x="398" 
d="M63 194h272v-55h-272v55z" />
    <glyph glyph-name="equal.dnom" horiz-adv-x="398" 
d="M58 264h283v-56h-283v56zM58 129h283v-55h-283v55z" />
    <glyph glyph-name="plus.numr" horiz-adv-x="398" 
d="M170 459h-107v55h107v107h58v-107h107v-55h-107v-106h-58v106z" />
    <glyph glyph-name="minus.numr" horiz-adv-x="398" 
d="M63 514h272v-55h-272v55z" />
    <glyph glyph-name="equal.numr" horiz-adv-x="398" 
d="M58 584h283v-56h-283v56zM58 449h283v-55h-283v55z" />
    <glyph glyph-name="uni0308" unicode="&#x308;" horiz-adv-x="0" 
d="M-375.5 558.5q-19.5 19.5 -19.5 47.5t19.5 47.5t47.5 19.5t47.5 -19.5t19.5 -47.5t-19.5 -47.5t-47.5 -19.5t-47.5 19.5zM-175.5 558.5q-19.5 19.5 -19.5 47.5t19.5 47.5t47.5 19.5t47.5 -19.5t19.5 -47.5t-19.5 -47.5t-47.5 -19.5t-47.5 19.5z" />
    <glyph glyph-name="uni0307" unicode="&#x307;" horiz-adv-x="0" 
d="M-161 560q-20 20 -20 50t20 50.5t51 20.5q30 0 50 -20.5t20 -50.5t-20 -50t-50 -20q-31 0 -51 20z" />
    <glyph glyph-name="gravecomb" unicode="&#x300;" horiz-adv-x="0" 
d="M-360 623l29 65l274 -115l-29 -67z" />
    </font>
</defs>
</svg>
