<?xml version="1.0" standalone="no"?>
<!DOCTYPE svg PUBLIC "-//W3C//DTD SVG 1.1//EN" "http://www.w3.org/Graphics/SVG/1.1/DTD/svg11.dtd" >
<svg>
<metadata>
Created by FontForge 20090622 at Sun Apr 29 22:09:03 2018
 By deploy user
Copyright &#194;&#169; 2015 by Noel Leu. All rights reserved.
</metadata>
<defs>
<font id="GTWalsheim-Black" horiz-adv-x="640" >
  <font-face 
    font-family="GT Walsheim Black"
    font-weight="800"
    font-stretch="normal"
    units-per-em="1000"
    panose-1="0 0 9 0 0 0 0 0 0 0"
    ascent="700"
    descent="-300"
    x-height="497"
    cap-height="700"
    bbox="-535 -218 1204 902"
    underline-thickness="50"
    underline-position="-50"
    unicode-range="U+000D-U+FB02"
  />
<missing-glyph horiz-adv-x="800" 
d="M208.5 34q-82.5 51 -127.5 135.5t-45 180.5t45 180.5t127.5 135.5t191.5 51t191.5 -51t127.5 -135.5t45 -180.5t-45 -180.5t-127.5 -135.5t-191.5 -51t-191.5 51zM570 52q78 46 123.5 125t45.5 173q0 90 -44.5 169.5t-122.5 127.5t-172 48q-95 0 -173 -48t-122.5 -127.5
t-44.5 -169.5q0 -94 45.5 -173t123.5 -125t171 -46q92 0 170 46zM213.5 470q-12.5 13 -12.5 30q0 18 12.5 30.5t29.5 12.5q18 0 30.5 -12.5t12.5 -30.5q0 -17 -12.5 -30t-30.5 -13q-17 0 -29.5 13zM510.5 470q-12.5 13 -12.5 30q0 18 12.5 30.5t29.5 12.5q18 0 30.5 -12.5
t12.5 -30.5q0 -17 -12.5 -30t-30.5 -13q-17 0 -29.5 13zM398 527l-110 -243h178v-25h-247zM158 259l23 13q11 6 13 17.5t2 39.5h17q0 -34 -4.5 -48t-15.5 -21l-22 -13q-23 -13 -23 -40h-16q0 38 26 52zM600 161q4 16 4 20q0 13 -17 21l-41 20q-39 20 -39 58q0 18 8 40l15 -5
q-7 -23 -7 -35q0 -31 34 -47l40 -19q23 -10 23 -33q0 -8 -4 -24zM267 104.5q-49 38.5 -99 123.5q7 -4 45.5 -27.5t73 -33.5t69.5 -10q57 0 118 8t102 29q1 0 3 2q-15 -32 -50.5 -62.5t-80 -49t-82.5 -18.5q-50 0 -99 38.5zM460.5 117.5q50.5 25.5 71.5 42.5q-38 -10 -33 -8
q-48 -11 -76.5 -15.5t-64.5 -4.5q-30 0 -69.5 11.5t-63.5 30.5q26 -42 69 -62t72 -20q44 0 94.5 25.5z" />
    <glyph glyph-name="fi" unicode="fi" horiz-adv-x="711" 
d="M287 526v-29h103v-150h-103v-347h-195v347h-79v150h79v27q0 101 56 144.5t140 43.5q63 0 102 -13v-127q-32 4 -41 4q-62 0 -62 -50zM459 497h196v-497h-196v497zM479 545.5q-31 31.5 -31 75.5q0 45 31 76t78 31q46 0 77.5 -31t31.5 -76q0 -44 -31.5 -75.5t-77.5 -31.5
q-47 0 -78 31.5z" />
    <glyph glyph-name="fl" unicode="fl" horiz-adv-x="712" 
d="M287 526v-29h103v-150h-103v-347h-195v347h-79v150h79v27q0 101 56 144.5t140 43.5q63 0 102 -13v-127q-32 4 -41 4q-62 0 -62 -50zM459 700h196v-700h-196v700z" />
    <glyph glyph-name="f_f" unicode="ff" horiz-adv-x="827" 
d="M287 526v-29h103v-150h-103v-347h-195v347h-79v150h79v27q0 101 56 144.5t140 43.5q63 0 102 -13v-127q-32 4 -41 4q-62 0 -62 -50zM712 526v-29h103v-150h-103v-347h-195v347h-79v150h79v27q0 101 56 144.5t140 43.5q63 0 102 -13v-127q-32 4 -41 4q-62 0 -62 -50z" />
    <glyph glyph-name="f_f_i" unicode="ffi" horiz-adv-x="1136" 
d="M287 526v-29h103v-150h-103v-347h-195v347h-79v150h79v27q0 101 56 144.5t140 43.5q63 0 102 -13v-127q-32 4 -41 4q-62 0 -62 -50zM712 526v-29h103v-150h-103v-347h-195v347h-79v150h79v27q0 101 56 144.5t140 43.5q63 0 102 -13v-127q-32 4 -41 4q-62 0 -62 -50z
M884 497h196v-497h-196v497zM904 545.5q-31 31.5 -31 75.5q0 45 31 76t78 31q46 0 77.5 -31t31.5 -76q0 -44 -31.5 -75.5t-77.5 -31.5q-47 0 -78 31.5z" />
    <glyph glyph-name="f_f_l" unicode="ffl" horiz-adv-x="1137" 
d="M287 526v-29h103v-150h-103v-347h-195v347h-79v150h79v27q0 101 56 144.5t140 43.5q63 0 102 -13v-127q-32 4 -41 4q-62 0 -62 -50zM712 526v-29h103v-150h-103v-347h-195v347h-79v150h79v27q0 101 56 144.5t140 43.5q63 0 102 -13v-127q-32 4 -41 4q-62 0 -62 -50z
M884 700h196v-700h-196v700z" />
    <glyph glyph-name=".notdef" horiz-adv-x="800" 
d="M208.5 34q-82.5 51 -127.5 135.5t-45 180.5t45 180.5t127.5 135.5t191.5 51t191.5 -51t127.5 -135.5t45 -180.5t-45 -180.5t-127.5 -135.5t-191.5 -51t-191.5 51zM570 52q78 46 123.5 125t45.5 173q0 90 -44.5 169.5t-122.5 127.5t-172 48q-95 0 -173 -48t-122.5 -127.5
t-44.5 -169.5q0 -94 45.5 -173t123.5 -125t171 -46q92 0 170 46zM213.5 470q-12.5 13 -12.5 30q0 18 12.5 30.5t29.5 12.5q18 0 30.5 -12.5t12.5 -30.5q0 -17 -12.5 -30t-30.5 -13q-17 0 -29.5 13zM510.5 470q-12.5 13 -12.5 30q0 18 12.5 30.5t29.5 12.5q18 0 30.5 -12.5
t12.5 -30.5q0 -17 -12.5 -30t-30.5 -13q-17 0 -29.5 13zM398 527l-110 -243h178v-25h-247zM158 259l23 13q11 6 13 17.5t2 39.5h17q0 -34 -4.5 -48t-15.5 -21l-22 -13q-23 -13 -23 -40h-16q0 38 26 52zM600 161q4 16 4 20q0 13 -17 21l-41 20q-39 20 -39 58q0 18 8 40l15 -5
q-7 -23 -7 -35q0 -31 34 -47l40 -19q23 -10 23 -33q0 -8 -4 -24zM267 104.5q-49 38.5 -99 123.5q7 -4 45.5 -27.5t73 -33.5t69.5 -10q57 0 118 8t102 29q1 0 3 2q-15 -32 -50.5 -62.5t-80 -49t-82.5 -18.5q-50 0 -99 38.5zM460.5 117.5q50.5 25.5 71.5 42.5q-38 -10 -33 -8
q-48 -11 -76.5 -15.5t-64.5 -4.5q-30 0 -69.5 11.5t-63.5 30.5q26 -42 69 -62t72 -20q44 0 94.5 25.5z" />
    <glyph glyph-name=".null" horiz-adv-x="0" 
 />
    <glyph glyph-name="nonmarkingreturn" unicode="&#xd;" horiz-adv-x="250" 
 />
    <glyph glyph-name="space" unicode=" " horiz-adv-x="237" 
 />
    <glyph glyph-name="A" unicode="A" horiz-adv-x="712" 
d="M469 81h-226l-22 -81h-216l239 700h225l238 -700h-216zM429 232l-73 272l-73 -272h146z" />
    <glyph glyph-name="B" unicode="B" horiz-adv-x="661" 
d="M598 305q40 -43 40 -112q0 -88 -61 -140.5t-165 -52.5h-350v700h342q103 0 163 -49t60 -132q0 -66 -36.5 -109t-98.5 -54q66 -8 106 -51zM270 566v-148h66q38 0 60.5 20t22.5 55q0 34 -22 53.5t-61 19.5h-66zM403.5 166q22.5 21 22.5 56q0 34 -23 54.5t-61 20.5h-72v-152
h71q40 0 62.5 21z" />
    <glyph glyph-name="C" unicode="C" horiz-adv-x="797" 
d="M204.5 25.5q-88.5 47.5 -137.5 132.5t-49 192t49 192t137.5 132.5t201.5 47.5q164 0 264 -77t113 -214h-220q-11 49 -52 77.5t-104 28.5q-81 0 -126.5 -50t-45.5 -137t45.5 -137t126.5 -50q63 0 104 28.5t52 77.5h220q-13 -137 -113 -214t-264 -77q-113 0 -201.5 47.5z
" />
    <glyph glyph-name="D" unicode="D" horiz-adv-x="730" 
d="M62 700h289q107 0 189.5 -46t128 -126t45.5 -178t-45 -178t-127.5 -126t-190.5 -46h-289v700zM333 170q51 0 88.5 24t57 65t19.5 91t-19.5 91t-57 65t-88.5 24h-63v-360h63z" />
    <glyph glyph-name="E" unicode="E" horiz-adv-x="567" 
d="M62 700h450v-156h-242v-122h242v-149h-242v-117h242v-156h-450v700z" />
    <glyph glyph-name="F" unicode="F" horiz-adv-x="552" 
d="M62 700h450v-170h-242v-155h242v-164h-242v-211h-208v700z" />
    <glyph glyph-name="G" unicode="G" horiz-adv-x="832" 
d="M822 244h-55q-29 -128 -123.5 -197t-245.5 -69q-112 0 -198.5 47.5t-134 131.5t-47.5 191q1 108 48.5 193t135.5 133t206 48q101 0 180 -31t125 -86.5t51 -127.5h-226q-8 35 -42.5 56.5t-86.5 21.5q-83 0 -128.5 -54.5t-45.5 -145.5q0 -89 47 -144.5t125 -55.5
q116 0 146 89h-115v141h384v-141z" />
    <glyph glyph-name="H" unicode="H" horiz-adv-x="735" 
d="M62 700h208v-266h195v266h208v-700h-208v261h-195v-261h-208v700z" />
    <glyph glyph-name="I" unicode="I" horiz-adv-x="332" 
d="M62 700h208v-700h-208v700z" />
    <glyph glyph-name="J" unicode="J" horiz-adv-x="620" 
d="M135.5 16.5q-63.5 35.5 -94.5 97t-31 141.5h208q0 -47 19 -73.5t56 -26.5q38 0 56.5 25t18.5 68v452h209v-432q0 -145 -74.5 -216t-209.5 -71q-94 0 -157.5 35.5z" />
    <glyph glyph-name="K" unicode="K" horiz-adv-x="716" 
d="M460 352l249 -352h-239l-200 304v-304h-208v700h208v-304l200 304h239z" />
    <glyph glyph-name="L" unicode="L" horiz-adv-x="545" 
d="M62 700h208v-521h238v-179h-446v700z" />
    <glyph glyph-name="M" unicode="M" horiz-adv-x="943" 
d="M62 700h264l149 -457l148 457h258v-700h-200v444l-128 -444h-154l-137 446v-446h-200v700z" />
    <glyph glyph-name="N" unicode="N" horiz-adv-x="742" 
d="M62 700h210l208 -398v398h200v-700h-210l-208 398v-398h-200v700z" />
    <glyph glyph-name="O" unicode="O" horiz-adv-x="809" 
d="M198.5 28.5q-87.5 50.5 -134 135.5t-46.5 186t46.5 186t134 135.5t205.5 50.5t205.5 -50.5t134 -135.5t46.5 -186t-46.5 -186t-134 -135.5t-205.5 -50.5t-205.5 50.5zM528.5 216.5q44.5 52.5 44.5 130.5q0 81 -43.5 135t-125.5 54q-80 0 -124.5 -53.5t-44.5 -132.5
t44.5 -132.5t124.5 -53.5t124.5 52.5z" />
    <glyph glyph-name="P" unicode="P" horiz-adv-x="667" 
d="M533.5 666q59.5 -34 93 -93.5t33.5 -133.5t-33.5 -133.5t-93 -93t-133.5 -33.5h-130v-179h-208v700h338q74 0 133.5 -34zM422.5 368q26.5 28 26.5 71t-26.5 71t-65.5 28h-87v-198h86q40 0 66.5 28z" />
    <glyph glyph-name="Q" unicode="Q" horiz-adv-x="809" 
d="M744.5 167q-45.5 -84 -127.5 -134l67 -86l-184 -93l-93 124h-3q-118 0 -205.5 50.5t-134 135.5t-46.5 186t46.5 186t134 135.5t205.5 50.5t205.5 -50.5t134 -135.5t46.5 -186q0 -99 -45.5 -183zM279.5 217.5q44.5 -53.5 124.5 -53.5t124.5 52.5t44.5 130.5
q0 81 -43.5 135t-125.5 54q-80 0 -124.5 -53.5t-44.5 -132.5t44.5 -132.5z" />
    <glyph glyph-name="R" unicode="R" horiz-adv-x="692" 
d="M629.5 311.5q-30.5 -57.5 -84.5 -91.5l112 -220h-239l-90 179h-58v-179h-208v700h338q74 0 133.5 -34t93 -93.5t33.5 -133.5q0 -70 -30.5 -127.5zM270 340h86q40 0 66.5 28t26.5 71t-26.5 71t-65.5 28h-87v-198z" />
    <glyph glyph-name="S" unicode="S" horiz-adv-x="611" 
d="M95.5 44.5q-78.5 66.5 -78.5 184.5h208q0 -45 23.5 -71t65.5 -26q34 0 52 15t18 43q0 24 -15 38.5t-51 28.5l-139 51q-150 56 -150 198q0 65 33 113.5t95 75.5t146 27q85 0 148.5 -27t98 -77.5t34.5 -119.5h-208q0 39 -19.5 60.5t-55.5 21.5q-29 0 -46 -14t-17 -39
q0 -21 17 -36.5t60 -31.5l128 -49q77 -30 113 -80t36 -122q0 -70 -34.5 -122t-98 -80t-148.5 -28q-137 0 -215.5 66.5z" />
    <glyph glyph-name="T" unicode="T" horiz-adv-x="579" 
d="M185 521h-180v179h569v-179h-180v-521h-209v521z" />
    <glyph glyph-name="U" unicode="U" horiz-adv-x="697" 
d="M187 12.5q-69 31.5 -106.5 90.5t-37.5 140v457h209v-444q0 -46 26.5 -72.5t70.5 -26.5t70.5 27t26.5 72v444h208v-457q0 -81 -37.5 -140t-106 -90.5t-161.5 -31.5t-162 31.5z" />
    <glyph glyph-name="V" unicode="V" horiz-adv-x="690" 
d="M-7 700h223l129 -469l129 469h223l-238 -700h-228z" />
    <glyph glyph-name="W" unicode="W" horiz-adv-x="1087" 
d="M-7 700h221l126 -422l121 422h165l121 -422l126 422h221l-252 -700h-182l-116 381l-117 -381h-182z" />
    <glyph glyph-name="X" unicode="X" horiz-adv-x="700" 
d="M230 350l-222 350h228l114 -202l114 202h228l-222 -350l222 -350h-228l-114 202l-114 -202h-228z" />
    <glyph glyph-name="Y" unicode="Y" horiz-adv-x="663" 
d="M683 700l-347 -700h-233l120 246l-235 454h245l111 -250l107 250h232z" />
    <glyph glyph-name="Z" unicode="Z" horiz-adv-x="659" 
d="M324 530h-274v170h597l-315 -530h293v-170h-618z" />
    <glyph glyph-name="Aacute" unicode="&#xc1;" horiz-adv-x="712" 
d="M265 727l-39 86l226 86l39 -86zM469 81h-226l-22 -81h-216l239 700h225l238 -700h-216zM429 232l-73 272l-73 -272h146z" />
    <glyph glyph-name="Abreve" unicode="&#x102;" horiz-adv-x="712" 
d="M228 777.5q-52 40.5 -56 103.5h101q4 -31 27.5 -46.5t56.5 -15.5t56.5 15.5t27.5 46.5h101q-4 -63 -56 -103.5t-129 -40.5t-129 40.5zM469 81h-226l-22 -81h-216l239 700h225l238 -700h-216zM429 232l-73 272l-73 -272h146z" />
    <glyph glyph-name="Acircumflex" unicode="&#xc2;" horiz-adv-x="712" 
d="M279 729l-66 62l143 104l142 -104l-66 -62l-76 60zM469 81h-226l-22 -81h-216l239 700h225l238 -700h-216zM429 232l-73 272l-73 -272h146z" />
    <glyph glyph-name="Adieresis" unicode="&#xc4;" horiz-adv-x="712" 
d="M178.5 753.5q-25.5 24.5 -25.5 58.5q0 35 25 60t62 25t62 -24.5t25 -60.5q0 -34 -25 -58.5t-62 -24.5q-36 0 -61.5 24.5zM412.5 753.5q-24.5 24.5 -24.5 58.5q0 36 24.5 60.5t60.5 24.5q37 0 62.5 -25t25.5 -60q0 -34 -25.5 -58.5t-62.5 -24.5q-36 0 -60.5 24.5zM469 81
h-226l-22 -81h-216l239 700h225l238 -700h-216zM429 232l-73 272l-73 -272h146z" />
    <glyph glyph-name="AE" unicode="&#xc6;" horiz-adv-x="936" 
d="M652 544v-122h229v-149h-229v-117h229v-156h-434v83h-193l-34 -83h-217l346 700h532v-156h-229zM447 232v315l-131 -315h131z" />
    <glyph glyph-name="AEacute" unicode="&#x1fc;" horiz-adv-x="936" 
d="M544 727l-39 86l226 86l39 -86zM652 544v-122h229v-149h-229v-117h229v-156h-434v83h-193l-34 -83h-217l346 700h532v-156h-229zM447 232v315l-131 -315h131z" />
    <glyph glyph-name="Agrave" unicode="&#xc0;" horiz-adv-x="712" 
d="M449 727l-226 86l39 86l226 -86zM469 81h-226l-22 -81h-216l239 700h225l238 -700h-216zM429 232l-73 272l-73 -272h146z" />
    <glyph glyph-name="Amacron" unicode="&#x100;" horiz-adv-x="712" 
d="M559 757h-404v100h404v-100zM469 81h-226l-22 -81h-216l239 700h225l238 -700h-216zM429 232l-73 272l-73 -272h146z" />
    <glyph glyph-name="Aogonek" unicode="&#x104;" horiz-adv-x="712" 
d="M469 81h-226l-22 -81h-216l239 700h225l238 -700h-216zM429 232l-73 272l-73 -272h146zM488.5 -173q-37.5 28 -37.5 71q0 65 66 102h190q-55 -2 -77.5 -20t-22.5 -42q0 -19 13.5 -31.5t35.5 -12.5q25 0 48 12v-88q-27 -11 -51 -15t-59 -4q-68 0 -105.5 28z" />
    <glyph glyph-name="Aring" unicode="&#xc5;" horiz-adv-x="712" 
d="M469 81h-226l-22 -81h-216l233 681q-28 36 -28 80q0 38 19.5 70t53.5 50.5t74 18.5q41 0 75 -19t53.5 -51t19.5 -69q0 -45 -29 -82l231 -679h-216zM315 803.5q-17 -16.5 -17 -42.5q0 -25 17 -41t42 -16q26 0 42.5 16t16.5 42t-16.5 42t-42.5 16q-25 0 -42 -16.5zM429 232
l-73 272l-73 -272h146z" />
    <glyph glyph-name="Atilde" unicode="&#xc3;" horiz-adv-x="712" 
d="M236 776.5q-17 -10.5 -40 -35.5l-53 67q36 47 65 63t54 16q21 0 43 -8t52 -23q26 -13 42.5 -19t30.5 -6q23 0 40.5 8t50.5 36l49 -71q-31 -44 -65.5 -58t-63.5 -14q-22 0 -43.5 8t-53.5 23q-23 12 -38.5 18t-29.5 6q-23 0 -40 -10.5zM469 81h-226l-22 -81h-216l239 700
h225l238 -700h-216zM429 232l-73 272l-73 -272h146z" />
    <glyph glyph-name="Cacute" unicode="&#x106;" horiz-adv-x="797" 
d="M276 813l226 86l39 -86l-226 -86zM204.5 25.5q-88.5 47.5 -137.5 132.5t-49 192t49 192t137.5 132.5t201.5 47.5q164 0 264 -77t113 -214h-220q-11 49 -52 77.5t-104 28.5q-81 0 -126.5 -50t-45.5 -137t45.5 -137t126.5 -50q63 0 104 28.5t52 77.5h220
q-13 -137 -113 -214t-264 -77q-113 0 -201.5 47.5z" />
    <glyph glyph-name="Ccaron" unicode="&#x10c;" horiz-adv-x="797" 
d="M265 838l66 62l76 -60l77 60l66 -62l-143 -104zM204.5 25.5q-88.5 47.5 -137.5 132.5t-49 192t49 192t137.5 132.5t201.5 47.5q164 0 264 -77t113 -214h-220q-11 49 -52 77.5t-104 28.5q-81 0 -126.5 -50t-45.5 -137t45.5 -137t126.5 -50q63 0 104 28.5t52 77.5h220
q-13 -137 -113 -214t-264 -77q-113 0 -201.5 47.5z" />
    <glyph glyph-name="Ccedilla" unicode="&#xc7;" horiz-adv-x="797" 
d="M204.5 25.5q-88.5 47.5 -137.5 132.5t-49 192t49 192t137.5 132.5t201.5 47.5q164 0 264 -77t113 -214h-220q-11 49 -52 77.5t-104 28.5q-81 0 -126.5 -50t-45.5 -137t45.5 -137t126.5 -50q63 0 104 28.5t52 77.5h220q-13 -137 -113 -214t-264 -77q-113 0 -201.5 47.5z
M392 -187.5q-28 19.5 -31 51.5h72q1 -8 9 -13.5t19 -5.5q14 0 22 9t8 25q0 15 -7.5 22.5t-20.5 7.5q-20 0 -26 -13h-66v110h72v-65q14 12 43 12q35 0 56.5 -22t21.5 -55q0 -34 -27 -58.5t-74 -24.5q-43 0 -71 19.5z" />
    <glyph glyph-name="Ccircumflex" unicode="&#x108;" horiz-adv-x="797" 
d="M548 791l-66 -62l-76 60l-77 -60l-66 62l143 104zM204.5 25.5q-88.5 47.5 -137.5 132.5t-49 192t49 192t137.5 132.5t201.5 47.5q164 0 264 -77t113 -214h-220q-11 49 -52 77.5t-104 28.5q-81 0 -126.5 -50t-45.5 -137t45.5 -137t126.5 -50q63 0 104 28.5t52 77.5h220
q-13 -137 -113 -214t-264 -77q-113 0 -201.5 47.5z" />
    <glyph glyph-name="Cdotaccent" unicode="&#x10a;" horiz-adv-x="797" 
d="M350 760q-22 23 -22 56q0 34 22 57t57 23t57.5 -23t22.5 -57q0 -33 -22.5 -56t-57.5 -23t-57 23zM204.5 25.5q-88.5 47.5 -137.5 132.5t-49 192t49 192t137.5 132.5t201.5 47.5q164 0 264 -77t113 -214h-220q-11 49 -52 77.5t-104 28.5q-81 0 -126.5 -50t-45.5 -137
t45.5 -137t126.5 -50q63 0 104 28.5t52 77.5h220q-13 -137 -113 -214t-264 -77q-113 0 -201.5 47.5z" />
    <glyph glyph-name="Dcaron" unicode="&#x10e;" horiz-adv-x="730" 
d="M193 838l66 62l76 -60l77 60l66 -62l-143 -104zM62 700h289q107 0 189.5 -46t128 -126t45.5 -178t-45 -178t-127.5 -126t-190.5 -46h-289v700zM333 170q51 0 88.5 24t57 65t19.5 91t-19.5 91t-57 65t-88.5 24h-63v-360h63z" />
    <glyph glyph-name="Dcroat" unicode="&#x110;" horiz-adv-x="730" 
d="M540.5 654q82.5 -46 128 -126t45.5 -178t-45 -178t-127.5 -126t-190.5 -46h-289v299h-53v101h53v300h289q107 0 189.5 -46zM421.5 194q37.5 24 57 65t19.5 91t-19.5 91t-57 65t-88.5 24h-63v-130h86v-101h-86v-129h63q51 0 88.5 24z" />
    <glyph glyph-name="Eacute" unicode="&#xc9;" horiz-adv-x="567" 
d="M165 813l226 86l39 -86l-226 -86zM62 700h450v-156h-242v-122h242v-149h-242v-117h242v-156h-450v700z" />
    <glyph glyph-name="Ebreve" unicode="&#x114;" horiz-adv-x="567" 
d="M167 777.5q-52 40.5 -56 103.5h101q4 -31 27.5 -46.5t56.5 -15.5t56.5 15.5t27.5 46.5h101q-4 -63 -56 -103.5t-129 -40.5t-129 40.5zM62 700h450v-156h-242v-122h242v-149h-242v-117h242v-156h-450v700z" />
    <glyph glyph-name="Ecaron" unicode="&#x11a;" horiz-adv-x="567" 
d="M154 838l66 62l76 -60l77 60l66 -62l-143 -104zM62 700h450v-156h-242v-122h242v-149h-242v-117h242v-156h-450v700z" />
    <glyph glyph-name="Ecircumflex" unicode="&#xca;" horiz-adv-x="567" 
d="M437 791l-66 -62l-76 60l-77 -60l-66 62l143 104zM62 700h450v-156h-242v-122h242v-149h-242v-117h242v-156h-450v700z" />
    <glyph glyph-name="Edieresis" unicode="&#xcb;" horiz-adv-x="567" 
d="M117.5 753.5q-25.5 24.5 -25.5 58.5q0 35 25 60t62 25t62 -24.5t25 -60.5q0 -34 -25 -58.5t-62 -24.5q-36 0 -61.5 24.5zM351.5 753.5q-24.5 24.5 -24.5 58.5q0 36 24.5 60.5t60.5 24.5q37 0 62.5 -25t25.5 -60q0 -34 -25.5 -58.5t-62.5 -24.5q-36 0 -60.5 24.5zM62 700
h450v-156h-242v-122h242v-149h-242v-117h242v-156h-450v700z" />
    <glyph glyph-name="Edotaccent" unicode="&#x116;" horiz-adv-x="567" 
d="M239 760q-22 23 -22 56q0 34 22 57t57 23t57.5 -23t22.5 -57q0 -33 -22.5 -56t-57.5 -23t-57 23zM62 700h450v-156h-242v-122h242v-149h-242v-117h242v-156h-450v700z" />
    <glyph glyph-name="Egrave" unicode="&#xc8;" horiz-adv-x="567" 
d="M162 813l39 86l226 -86l-39 -86zM62 700h450v-156h-242v-122h242v-149h-242v-117h242v-156h-450v700z" />
    <glyph glyph-name="Emacron" unicode="&#x112;" horiz-adv-x="567" 
d="M94 857h404v-100h-404v100zM62 700h450v-156h-242v-122h242v-149h-242v-117h242v-156h-450v700z" />
    <glyph glyph-name="Eogonek" unicode="&#x118;" horiz-adv-x="567" 
d="M62 700h450v-156h-242v-122h242v-149h-242v-117h242v-156h-450v700zM293.5 -173q-37.5 28 -37.5 71q0 65 66 102h190q-55 -2 -77.5 -20t-22.5 -42q0 -19 13.5 -31.5t35.5 -12.5q25 0 48 12v-88q-27 -11 -51 -15t-59 -4q-68 0 -105.5 28z" />
    <glyph glyph-name="Eth" unicode="&#xd0;" horiz-adv-x="730" 
d="M540.5 654q82.5 -46 128 -126t45.5 -178t-45 -178t-127.5 -126t-190.5 -46h-289v299h-53v101h53v300h289q107 0 189.5 -46zM421.5 194q37.5 24 57 65t19.5 91t-19.5 91t-57 65t-88.5 24h-63v-130h86v-101h-86v-129h63q51 0 88.5 24z" />
    <glyph glyph-name="Gbreve" unicode="&#x11e;" horiz-adv-x="832" 
d="M277 777.5q-52 40.5 -56 103.5h101q4 -31 27.5 -46.5t56.5 -15.5t56.5 15.5t27.5 46.5h101q-4 -63 -56 -103.5t-129 -40.5t-129 40.5zM822 244h-55q-29 -128 -123.5 -197t-245.5 -69q-112 0 -198.5 47.5t-134 131.5t-47.5 191q1 108 48.5 193t135.5 133t206 48
q101 0 180 -31t125 -86.5t51 -127.5h-226q-8 35 -42.5 56.5t-86.5 21.5q-83 0 -128.5 -54.5t-45.5 -145.5q0 -89 47 -144.5t125 -55.5q116 0 146 89h-115v141h384v-141z" />
    <glyph glyph-name="Gcircumflex" unicode="&#x11c;" horiz-adv-x="832" 
d="M328 729l-66 62l143 104l142 -104l-66 -62l-76 60zM822 244h-55q-29 -128 -123.5 -197t-245.5 -69q-112 0 -198.5 47.5t-134 131.5t-47.5 191q1 108 48.5 193t135.5 133t206 48q101 0 180 -31t125 -86.5t51 -127.5h-226q-8 35 -42.5 56.5t-86.5 21.5q-83 0 -128.5 -54.5
t-45.5 -145.5q0 -89 47 -144.5t125 -55.5q116 0 146 89h-115v141h384v-141z" />
    <glyph glyph-name="Gcommaaccent" unicode="&#x122;" horiz-adv-x="832" 
d="M822 244h-55q-29 -128 -123.5 -197t-245.5 -69q-112 0 -198.5 47.5t-134 131.5t-47.5 191q1 108 48.5 193t135.5 133t206 48q101 0 180 -31t125 -86.5t51 -127.5h-226q-8 35 -42.5 56.5t-86.5 21.5q-83 0 -128.5 -54.5t-45.5 -145.5q0 -89 47 -144.5t125 -55.5
q116 0 146 89h-115v141h384v-141zM362 -176q38 0 53 11q9 6 12.5 13.5t5.5 20.5q-9 -14 -33 -14q-27 0 -42.5 15.5t-15.5 40.5q0 26 17.5 42t45.5 16q35 0 57 -20.5t22 -57.5q0 -53 -31 -80.5t-91 -28.5v42z" />
    <glyph glyph-name="Gdotaccent" unicode="&#x120;" horiz-adv-x="832" 
d="M349 760q-22 23 -22 56q0 34 22 57t57 23t57.5 -23t22.5 -57q0 -33 -22.5 -56t-57.5 -23t-57 23zM822 244h-55q-29 -128 -123.5 -197t-245.5 -69q-112 0 -198.5 47.5t-134 131.5t-47.5 191q1 108 48.5 193t135.5 133t206 48q101 0 180 -31t125 -86.5t51 -127.5h-226
q-8 35 -42.5 56.5t-86.5 21.5q-83 0 -128.5 -54.5t-45.5 -145.5q0 -89 47 -144.5t125 -55.5q116 0 146 89h-115v141h384v-141z" />
    <glyph glyph-name="Hbar" unicode="&#x126;" horiz-adv-x="735" 
d="M708 519h-35v-519h-208v261h-195v-261h-208v519h-35v79h35v102h208v-102h195v102h208v-102h35v-79zM465 519h-195v-85h195v85z" />
    <glyph glyph-name="Hcircumflex" unicode="&#x124;" horiz-adv-x="735" 
d="M509 791l-66 -62l-76 60l-77 -60l-66 62l143 104zM62 700h208v-266h195v266h208v-700h-208v261h-195v-261h-208v700z" />
    <glyph glyph-name="Iacute" unicode="&#xcd;" horiz-adv-x="332" 
d="M37 811l214 91l44 -84l-215 -91zM62 700h208v-700h-208v700z" />
    <glyph glyph-name="Ibreve" unicode="&#x12c;" horiz-adv-x="332" 
d="M61.5 768q-41.5 36 -41.5 116h95q1 -36 14 -54t37 -18q23 0 36.5 18t14.5 54h95q0 -80 -41.5 -116t-104.5 -36t-104.5 36zM62 700h208v-700h-208v700z" />
    <glyph glyph-name="Icircumflex" unicode="&#xce;" horiz-adv-x="332" 
d="M168 789l-84 -68l-55 60l139 114l139 -114l-61 -60zM62 700h208v-700h-208v700z" />
    <glyph glyph-name="Idieresis" unicode="&#xcf;" horiz-adv-x="332" 
d="M20.5 754.5q-23.5 22.5 -23.5 53.5q0 33 23.5 55t56.5 22q35 0 57.5 -22t22.5 -55q0 -32 -22.5 -54t-57.5 -22q-33 0 -56.5 22.5zM199.5 754q-22.5 22 -22.5 54q0 33 22 55t56 22t57.5 -22t23.5 -55q0 -32 -23.5 -54t-57.5 -22q-33 0 -55.5 22zM62 700h208v-700h-208v700
z" />
    <glyph glyph-name="Idotaccent" unicode="&#x130;" horiz-adv-x="332" 
d="M109 760q-22 23 -22 56q0 34 22 57t57 23t57.5 -23t22.5 -57q0 -33 -22.5 -56t-57.5 -23t-57 23zM62 700h208v-700h-208v700z" />
    <glyph glyph-name="Igrave" unicode="&#xcc;" horiz-adv-x="332" 
d="M39 813l43 86l210 -86l-43 -86zM62 700h208v-700h-208v700z" />
    <glyph glyph-name="IJ" unicode="&#x132;" horiz-adv-x="952" 
d="M62 700h208v-700h-208v700zM467.5 16.5q-63.5 35.5 -94.5 97t-31 141.5h208q0 -47 19 -73.5t56 -26.5q38 0 56.5 25t18.5 68v452h209v-432q0 -145 -74.5 -216t-209.5 -71q-94 0 -157.5 35.5z" />
    <glyph glyph-name="Imacron" unicode="&#x12a;" horiz-adv-x="332" 
d="M43 867h246v-103h-246v103zM62 700h208v-700h-208v700z" />
    <glyph glyph-name="Iogonek" unicode="&#x12e;" horiz-adv-x="332" 
d="M62 700h208v-700h-208v700zM51.5 -173q-37.5 28 -37.5 71q0 65 66 102h190q-55 -2 -77.5 -20t-22.5 -42q0 -19 13.5 -31.5t35.5 -12.5q25 0 48 12v-88q-27 -11 -51 -15t-59 -4q-68 0 -105.5 28z" />
    <glyph glyph-name="Itilde" unicode="&#x128;" horiz-adv-x="332" 
d="M192 747.5q-13 6.5 -32 18.5q-14 10 -24.5 15.5t-21.5 5.5q-27 0 -54 -40l-35 69q23 40 42.5 53.5t38.5 13.5q16 0 29 -6.5t32 -18.5q15 -11 26 -16t22 -5q14 0 25.5 6.5t33.5 29.5l33 -71q-20 -35 -42.5 -48t-42.5 -13q-17 0 -30 6.5zM62 700h208v-700h-208v700z" />
    <glyph glyph-name="Jcircumflex" unicode="&#x134;" horiz-adv-x="620" 
d="M475 789l-84 -68l-55 60l139 114l139 -114l-61 -60zM135.5 16.5q-63.5 35.5 -94.5 97t-31 141.5h208q0 -47 19 -73.5t56 -26.5q38 0 56.5 25t18.5 68v452h209v-432q0 -145 -74.5 -216t-209.5 -71q-94 0 -157.5 35.5z" />
    <glyph glyph-name="Kcommaaccent" unicode="&#x136;" horiz-adv-x="716" 
d="M460 352l249 -352h-239l-200 304v-304h-208v700h208v-304l200 304h239zM309 -176q38 0 53 11q9 6 12.5 13.5t5.5 20.5q-9 -14 -33 -14q-27 0 -42.5 15.5t-15.5 40.5q0 26 17.5 42t45.5 16q35 0 57 -20.5t22 -57.5q0 -53 -31 -80.5t-91 -28.5v42z" />
    <glyph glyph-name="Lacute" unicode="&#x139;" horiz-adv-x="545" 
d="M37 811l214 91l44 -84l-215 -91zM62 700h208v-521h238v-179h-446v700z" />
    <glyph glyph-name="Lcaron" unicode="&#x13d;" horiz-adv-x="545" 
d="M62 700h208v-521h238v-179h-446v700zM349 509v42q7 -1 17 -1q33 0 48 18q10 14 10 40q-5 -6 -15.5 -10t-23.5 -4q-24 0 -39.5 17t-15.5 44q0 28 18 45t48 17q37 0 59 -24t22 -69q0 -54 -28.5 -85t-79.5 -31q-13 0 -20 1z" />
    <glyph glyph-name="Lcommaaccent" unicode="&#x13b;" horiz-adv-x="545" 
d="M62 700h208v-521h238v-179h-446v700zM244 -176q38 0 53 11q9 6 12.5 13.5t5.5 20.5q-9 -14 -33 -14q-27 0 -42.5 15.5t-15.5 40.5q0 26 17.5 42t45.5 16q35 0 57 -20.5t22 -57.5q0 -53 -31 -80.5t-91 -28.5v42z" />
    <glyph glyph-name="Ldot" unicode="&#x13f;" horiz-adv-x="545" 
d="M62 700h208v-521h238v-179h-446v700zM345 326q-36 36 -36 87t36 86.5t88 35.5q53 0 89 -35.5t36 -86.5t-36 -87t-89 -36q-52 0 -88 36z" />
    <glyph glyph-name="Lslash" unicode="&#x141;" horiz-adv-x="529" 
d="M508 179v-179h-446v253l-43 -22v102l43 22v345h208v-241l117 58v-102l-117 -58v-178h238z" />
    <glyph glyph-name="Nacute" unicode="&#x143;" horiz-adv-x="742" 
d="M253 813l226 86l39 -86l-226 -86zM62 700h210l208 -398v398h200v-700h-210l-208 398v-398h-200v700z" />
    <glyph glyph-name="Ncaron" unicode="&#x147;" horiz-adv-x="742" 
d="M242 838l66 62l76 -60l77 60l66 -62l-143 -104zM62 700h210l208 -398v398h200v-700h-210l-208 398v-398h-200v700z" />
    <glyph glyph-name="Ncommaaccent" unicode="&#x145;" horiz-adv-x="742" 
d="M62 700h210l208 -398v398h200v-700h-210l-208 398v-398h-200v700zM340 -176q38 0 53 11q9 6 12.5 13.5t5.5 20.5q-9 -14 -33 -14q-27 0 -42.5 15.5t-15.5 40.5q0 26 17.5 42t45.5 16q35 0 57 -20.5t22 -57.5q0 -53 -31 -80.5t-91 -28.5v42z" />
    <glyph glyph-name="Ntilde" unicode="&#xd1;" horiz-adv-x="742" 
d="M424.5 740q-21.5 8 -53.5 23q-23 12 -38.5 18t-29.5 6q-23 0 -40 -10.5t-40 -35.5l-53 67q36 47 65 63t54 16q21 0 43 -8t52 -23q26 -13 42.5 -19t30.5 -6q23 0 40.5 8t50.5 36l49 -71q-31 -44 -65.5 -58t-63.5 -14q-22 0 -43.5 8zM62 700h210l208 -398v398h200v-700
h-210l-208 398v-398h-200v700z" />
    <glyph glyph-name="Eng" unicode="&#x14a;" horiz-adv-x="742" 
d="M384 -183v130q24 -3 44 -3q22 0 33 9.5t11 33.5v13l-210 398v-398h-200v700h210l208 -397v397h200v-725q0 -89 -52 -130t-154 -41q-51 0 -90 13z" />
    <glyph glyph-name="Oacute" unicode="&#xd3;" horiz-adv-x="809" 
d="M273 813l226 86l39 -86l-226 -86zM198.5 28.5q-87.5 50.5 -134 135.5t-46.5 186t46.5 186t134 135.5t205.5 50.5t205.5 -50.5t134 -135.5t46.5 -186t-46.5 -186t-134 -135.5t-205.5 -50.5t-205.5 50.5zM528.5 216.5q44.5 52.5 44.5 130.5q0 81 -43.5 135t-125.5 54
q-80 0 -124.5 -53.5t-44.5 -132.5t44.5 -132.5t124.5 -53.5t124.5 52.5z" />
    <glyph glyph-name="Obreve" unicode="&#x14e;" horiz-adv-x="809" 
d="M275 777.5q-52 40.5 -56 103.5h101q4 -31 27.5 -46.5t56.5 -15.5t56.5 15.5t27.5 46.5h101q-4 -63 -56 -103.5t-129 -40.5t-129 40.5zM198.5 28.5q-87.5 50.5 -134 135.5t-46.5 186t46.5 186t134 135.5t205.5 50.5t205.5 -50.5t134 -135.5t46.5 -186t-46.5 -186
t-134 -135.5t-205.5 -50.5t-205.5 50.5zM528.5 216.5q44.5 52.5 44.5 130.5q0 81 -43.5 135t-125.5 54q-80 0 -124.5 -53.5t-44.5 -132.5t44.5 -132.5t124.5 -53.5t124.5 52.5z" />
    <glyph glyph-name="Ocircumflex" unicode="&#xd4;" horiz-adv-x="809" 
d="M545 791l-66 -62l-76 60l-77 -60l-66 62l143 104zM198.5 28.5q-87.5 50.5 -134 135.5t-46.5 186t46.5 186t134 135.5t205.5 50.5t205.5 -50.5t134 -135.5t46.5 -186t-46.5 -186t-134 -135.5t-205.5 -50.5t-205.5 50.5zM528.5 216.5q44.5 52.5 44.5 130.5q0 81 -43.5 135
t-125.5 54q-80 0 -124.5 -53.5t-44.5 -132.5t44.5 -132.5t124.5 -53.5t124.5 52.5z" />
    <glyph glyph-name="Odieresis" unicode="&#xd6;" horiz-adv-x="809" 
d="M225.5 753.5q-25.5 24.5 -25.5 58.5q0 35 25 60t62 25t62 -24.5t25 -60.5q0 -34 -25 -58.5t-62 -24.5q-36 0 -61.5 24.5zM459.5 753.5q-24.5 24.5 -24.5 58.5q0 36 24.5 60.5t60.5 24.5q37 0 62.5 -25t25.5 -60q0 -34 -25.5 -58.5t-62.5 -24.5q-36 0 -60.5 24.5z
M198.5 28.5q-87.5 50.5 -134 135.5t-46.5 186t46.5 186t134 135.5t205.5 50.5t205.5 -50.5t134 -135.5t46.5 -186t-46.5 -186t-134 -135.5t-205.5 -50.5t-205.5 50.5zM528.5 216.5q44.5 52.5 44.5 130.5q0 81 -43.5 135t-125.5 54q-80 0 -124.5 -53.5t-44.5 -132.5
t44.5 -132.5t124.5 -53.5t124.5 52.5z" />
    <glyph glyph-name="OE" unicode="&#x152;" horiz-adv-x="913" 
d="M658 544v-122h200v-149h-200v-117h200v-156h-480q-109 0 -191 47.5t-125.5 127.5t-43.5 175t43.5 175t125.5 127.5t191 47.5h480v-156h-200zM449 172v356h-51q-77 0 -120 -51t-43 -127t43 -127t120 -51h51z" />
    <glyph glyph-name="Ograve" unicode="&#xd2;" horiz-adv-x="809" 
d="M270 813l39 86l226 -86l-39 -86zM198.5 28.5q-87.5 50.5 -134 135.5t-46.5 186t46.5 186t134 135.5t205.5 50.5t205.5 -50.5t134 -135.5t46.5 -186t-46.5 -186t-134 -135.5t-205.5 -50.5t-205.5 50.5zM528.5 216.5q44.5 52.5 44.5 130.5q0 81 -43.5 135t-125.5 54
q-80 0 -124.5 -53.5t-44.5 -132.5t44.5 -132.5t124.5 -53.5t124.5 52.5z" />
    <glyph glyph-name="Ohungarumlaut" unicode="&#x150;" horiz-adv-x="809" 
d="M254 766l142 131l109 -40l-184 -118zM447 766l141 131l108 -43l-183 -116zM198.5 28.5q-87.5 50.5 -134 135.5t-46.5 186t46.5 186t134 135.5t205.5 50.5t205.5 -50.5t134 -135.5t46.5 -186t-46.5 -186t-134 -135.5t-205.5 -50.5t-205.5 50.5zM528.5 216.5
q44.5 52.5 44.5 130.5q0 81 -43.5 135t-125.5 54q-80 0 -124.5 -53.5t-44.5 -132.5t44.5 -132.5t124.5 -53.5t124.5 52.5z" />
    <glyph glyph-name="Omacron" unicode="&#x14c;" horiz-adv-x="809" 
d="M202 857h404v-100h-404v100zM198.5 28.5q-87.5 50.5 -134 135.5t-46.5 186t46.5 186t134 135.5t205.5 50.5t205.5 -50.5t134 -135.5t46.5 -186t-46.5 -186t-134 -135.5t-205.5 -50.5t-205.5 50.5zM528.5 216.5q44.5 52.5 44.5 130.5q0 81 -43.5 135t-125.5 54
q-80 0 -124.5 -53.5t-44.5 -132.5t44.5 -132.5t124.5 -53.5t124.5 52.5z" />
    <glyph glyph-name="Oslash" unicode="&#xd8;" horiz-adv-x="809" 
d="M739 544q51 -88 51 -194q0 -101 -46.5 -186t-134 -135.5t-205.5 -50.5q-56 0 -111 13l-35 -79l-74 32l33 75q-95 47 -147 135.5t-52 195.5q0 101 46.5 186t134 135.5t205.5 50.5q65 0 119 -15l36 81l71 -32l-34 -77q92 -47 143 -135zM251 264q16 -39 47 -64l147 332
q-17 4 -41 4q-80 0 -124.5 -53.5t-44.5 -132.5q0 -47 16 -86zM528.5 216.5q44.5 52.5 44.5 130.5q0 46 -14.5 85t-42.5 65l-146 -330q17 -3 34 -3q80 0 124.5 52.5z" />
    <glyph glyph-name="Oslashacute" unicode="&#x1fe;" horiz-adv-x="809" 
d="M314 727l-39 86l226 86l39 -86zM739 544q51 -88 51 -194q0 -101 -46.5 -186t-134 -135.5t-205.5 -50.5q-56 0 -111 13l-35 -79l-74 32l33 75q-95 47 -147 135.5t-52 195.5q0 101 46.5 186t134 135.5t205.5 50.5q65 0 119 -15l36 81l71 -32l-34 -77q92 -47 143 -135z
M251 264q16 -39 47 -64l147 332q-17 4 -41 4q-80 0 -124.5 -53.5t-44.5 -132.5q0 -47 16 -86zM528.5 216.5q44.5 52.5 44.5 130.5q0 46 -14.5 85t-42.5 65l-146 -330q17 -3 34 -3q80 0 124.5 52.5z" />
    <glyph glyph-name="Otilde" unicode="&#xd5;" horiz-adv-x="809" 
d="M444.5 740q-21.5 8 -53.5 23q-23 12 -38.5 18t-29.5 6q-23 0 -40 -10.5t-40 -35.5l-53 67q36 47 65 63t54 16q21 0 43 -8t52 -23q26 -13 42.5 -19t30.5 -6q23 0 40.5 8t50.5 36l49 -71q-31 -44 -65.5 -58t-63.5 -14q-22 0 -43.5 8zM198.5 28.5q-87.5 50.5 -134 135.5
t-46.5 186t46.5 186t134 135.5t205.5 50.5t205.5 -50.5t134 -135.5t46.5 -186t-46.5 -186t-134 -135.5t-205.5 -50.5t-205.5 50.5zM528.5 216.5q44.5 52.5 44.5 130.5q0 81 -43.5 135t-125.5 54q-80 0 -124.5 -53.5t-44.5 -132.5t44.5 -132.5t124.5 -53.5t124.5 52.5z" />
    <glyph glyph-name="Racute" unicode="&#x154;" horiz-adv-x="692" 
d="M253 727l-39 86l226 86l39 -86zM629.5 311.5q-30.5 -57.5 -84.5 -91.5l112 -220h-239l-90 179h-58v-179h-208v700h338q74 0 133.5 -34t93 -93.5t33.5 -133.5q0 -70 -30.5 -127.5zM270 340h86q40 0 66.5 28t26.5 71t-26.5 71t-65.5 28h-87v-198z" />
    <glyph glyph-name="Rcaron" unicode="&#x158;" horiz-adv-x="692" 
d="M345 734l-142 104l66 62l76 -60l77 60l66 -62zM629.5 311.5q-30.5 -57.5 -84.5 -91.5l112 -220h-239l-90 179h-58v-179h-208v700h338q74 0 133.5 -34t93 -93.5t33.5 -133.5q0 -70 -30.5 -127.5zM270 340h86q40 0 66.5 28t26.5 71t-26.5 71t-65.5 28h-87v-198z" />
    <glyph glyph-name="Rcommaaccent" unicode="&#x156;" horiz-adv-x="692" 
d="M629.5 311.5q-30.5 -57.5 -84.5 -91.5l112 -220h-239l-90 179h-58v-179h-208v700h338q74 0 133.5 -34t93 -93.5t33.5 -133.5q0 -70 -30.5 -127.5zM270 340h86q40 0 66.5 28t26.5 71t-26.5 71t-65.5 28h-87v-198zM301 -176q38 0 53 11q9 6 12.5 13.5t5.5 20.5
q-9 -14 -33 -14q-27 0 -42.5 15.5t-15.5 40.5q0 26 17.5 42t45.5 16q35 0 57 -20.5t22 -57.5q0 -53 -31 -80.5t-91 -28.5v42z" />
    <glyph glyph-name="Sacute" unicode="&#x15a;" horiz-adv-x="611" 
d="M168 813l226 86l39 -86l-226 -86zM95.5 44.5q-78.5 66.5 -78.5 184.5h208q0 -45 23.5 -71t65.5 -26q34 0 52 15t18 43q0 24 -15 38.5t-51 28.5l-139 51q-150 56 -150 198q0 65 33 113.5t95 75.5t146 27q85 0 148.5 -27t98 -77.5t34.5 -119.5h-208q0 39 -19.5 60.5
t-55.5 21.5q-29 0 -46 -14t-17 -39q0 -21 17 -36.5t60 -31.5l128 -49q77 -30 113 -80t36 -122q0 -70 -34.5 -122t-98 -80t-148.5 -28q-137 0 -215.5 66.5z" />
    <glyph glyph-name="Scaron" unicode="&#x160;" horiz-adv-x="611" 
d="M157 838l66 62l76 -60l77 60l66 -62l-143 -104zM95.5 44.5q-78.5 66.5 -78.5 184.5h208q0 -45 23.5 -71t65.5 -26q34 0 52 15t18 43q0 24 -15 38.5t-51 28.5l-139 51q-150 56 -150 198q0 65 33 113.5t95 75.5t146 27q85 0 148.5 -27t98 -77.5t34.5 -119.5h-208
q0 39 -19.5 60.5t-55.5 21.5q-29 0 -46 -14t-17 -39q0 -21 17 -36.5t60 -31.5l128 -49q77 -30 113 -80t36 -122q0 -70 -34.5 -122t-98 -80t-148.5 -28q-137 0 -215.5 66.5z" />
    <glyph glyph-name="Scedilla" unicode="&#x15e;" horiz-adv-x="611" 
d="M95.5 44.5q-78.5 66.5 -78.5 184.5h208q0 -45 23.5 -71t65.5 -26q34 0 52 15t18 43q0 24 -15 38.5t-51 28.5l-139 51q-150 56 -150 198q0 65 33 113.5t95 75.5t146 27q85 0 148.5 -27t98 -77.5t34.5 -119.5h-208q0 39 -19.5 60.5t-55.5 21.5q-29 0 -46 -14t-17 -39
q0 -21 17 -36.5t60 -31.5l128 -49q77 -30 113 -80t36 -122q0 -70 -34.5 -122t-98 -80t-148.5 -28q-137 0 -215.5 66.5zM284 -187.5q-28 19.5 -31 51.5h72q1 -8 9 -13.5t19 -5.5q14 0 22 9t8 25q0 15 -7.5 22.5t-20.5 7.5q-20 0 -26 -13h-66v110h72v-65q14 12 43 12
q35 0 56.5 -22t21.5 -55q0 -34 -27 -58.5t-74 -24.5q-43 0 -71 19.5z" />
    <glyph glyph-name="Scircumflex" unicode="&#x15c;" horiz-adv-x="611" 
d="M440 791l-66 -62l-76 60l-77 -60l-66 62l143 104zM95.5 44.5q-78.5 66.5 -78.5 184.5h208q0 -45 23.5 -71t65.5 -26q34 0 52 15t18 43q0 24 -15 38.5t-51 28.5l-139 51q-150 56 -150 198q0 65 33 113.5t95 75.5t146 27q85 0 148.5 -27t98 -77.5t34.5 -119.5h-208
q0 39 -19.5 60.5t-55.5 21.5q-29 0 -46 -14t-17 -39q0 -21 17 -36.5t60 -31.5l128 -49q77 -30 113 -80t36 -122q0 -70 -34.5 -122t-98 -80t-148.5 -28q-137 0 -215.5 66.5z" />
    <glyph glyph-name="Scommaaccent" unicode="&#x218;" horiz-adv-x="611" 
d="M95.5 44.5q-78.5 66.5 -78.5 184.5h208q0 -45 23.5 -71t65.5 -26q34 0 52 15t18 43q0 24 -15 38.5t-51 28.5l-139 51q-150 56 -150 198q0 65 33 113.5t95 75.5t146 27q85 0 148.5 -27t98 -77.5t34.5 -119.5h-208q0 39 -19.5 60.5t-55.5 21.5q-29 0 -46 -14t-17 -39
q0 -21 17 -36.5t60 -31.5l128 -49q77 -30 113 -80t36 -122q0 -70 -34.5 -122t-98 -80t-148.5 -28q-137 0 -215.5 66.5zM255 -176q38 0 53 11q9 6 12.5 13.5t5.5 20.5q-9 -14 -33 -14q-27 0 -42.5 15.5t-15.5 40.5q0 26 17.5 42t45.5 16q35 0 57 -20.5t22 -57.5
q0 -53 -31 -80.5t-91 -28.5v42z" />
    <glyph glyph-name="Tbar" unicode="&#x166;" horiz-adv-x="579" 
d="M394 521v-114h114v-95h-114v-312h-209v312h-113v95h113v114h-180v179h569v-179h-180z" />
    <glyph glyph-name="Tcaron" unicode="&#x164;" horiz-adv-x="579" 
d="M148 838l66 62l76 -60l77 60l66 -62l-143 -104zM185 521h-180v179h569v-179h-180v-521h-209v521z" />
    <glyph glyph-name="uni0162" unicode="&#x162;" horiz-adv-x="579" 
d="M185 521h-180v179h569v-179h-180v-521h-209v521zM275 -187.5q-28 19.5 -31 51.5h72q1 -8 9 -13.5t19 -5.5q14 0 22 9t8 25q0 15 -7.5 22.5t-20.5 7.5q-20 0 -26 -13h-66v110h72v-65q14 12 43 12q35 0 56.5 -22t21.5 -55q0 -34 -27 -58.5t-74 -24.5q-43 0 -71 19.5z" />
    <glyph glyph-name="uni021A" unicode="&#x21a;" horiz-adv-x="579" 
d="M185 521h-180v179h569v-179h-180v-521h-209v521zM246 -176q38 0 53 11q9 6 12.5 13.5t5.5 20.5q-9 -14 -33 -14q-27 0 -42.5 15.5t-15.5 40.5q0 26 17.5 42t45.5 16q35 0 57 -20.5t22 -57.5q0 -53 -31 -80.5t-91 -28.5v42z" />
    <glyph glyph-name="Thorn" unicode="&#xde;" horiz-adv-x="667" 
d="M537 575.5q59 -35.5 91.5 -95t32.5 -130.5q0 -70 -32.5 -129.5t-91.5 -95t-137 -35.5h-130v-90h-208v700h208v-89h130q78 0 137 -35.5zM423 279.5q26 28.5 26 70.5t-25.5 70.5t-66.5 28.5h-87v-198h86q41 0 67 28.5z" />
    <glyph glyph-name="Uacute" unicode="&#xda;" horiz-adv-x="697" 
d="M218 813l226 86l39 -86l-226 -86zM187 12.5q-69 31.5 -106.5 90.5t-37.5 140v457h209v-444q0 -46 26.5 -72.5t70.5 -26.5t70.5 27t26.5 72v444h208v-457q0 -81 -37.5 -140t-106 -90.5t-161.5 -31.5t-162 31.5z" />
    <glyph glyph-name="Ubreve" unicode="&#x16c;" horiz-adv-x="697" 
d="M220 777.5q-52 40.5 -56 103.5h101q4 -31 27.5 -46.5t56.5 -15.5t56.5 15.5t27.5 46.5h101q-4 -63 -56 -103.5t-129 -40.5t-129 40.5zM187 12.5q-69 31.5 -106.5 90.5t-37.5 140v457h209v-444q0 -46 26.5 -72.5t70.5 -26.5t70.5 27t26.5 72v444h208v-457
q0 -81 -37.5 -140t-106 -90.5t-161.5 -31.5t-162 31.5z" />
    <glyph glyph-name="Ucircumflex" unicode="&#xdb;" horiz-adv-x="697" 
d="M490 791l-66 -62l-76 60l-77 -60l-66 62l143 104zM187 12.5q-69 31.5 -106.5 90.5t-37.5 140v457h209v-444q0 -46 26.5 -72.5t70.5 -26.5t70.5 27t26.5 72v444h208v-457q0 -81 -37.5 -140t-106 -90.5t-161.5 -31.5t-162 31.5z" />
    <glyph glyph-name="Udieresis" unicode="&#xdc;" horiz-adv-x="697" 
d="M170.5 753.5q-25.5 24.5 -25.5 58.5q0 35 25 60t62 25t62 -24.5t25 -60.5q0 -34 -25 -58.5t-62 -24.5q-36 0 -61.5 24.5zM404.5 753.5q-24.5 24.5 -24.5 58.5q0 36 24.5 60.5t60.5 24.5q37 0 62.5 -25t25.5 -60q0 -34 -25.5 -58.5t-62.5 -24.5q-36 0 -60.5 24.5z
M187 12.5q-69 31.5 -106.5 90.5t-37.5 140v457h209v-444q0 -46 26.5 -72.5t70.5 -26.5t70.5 27t26.5 72v444h208v-457q0 -81 -37.5 -140t-106 -90.5t-161.5 -31.5t-162 31.5z" />
    <glyph glyph-name="Ugrave" unicode="&#xd9;" horiz-adv-x="697" 
d="M215 813l39 86l226 -86l-39 -86zM187 12.5q-69 31.5 -106.5 90.5t-37.5 140v457h209v-444q0 -46 26.5 -72.5t70.5 -26.5t70.5 27t26.5 72v444h208v-457q0 -81 -37.5 -140t-106 -90.5t-161.5 -31.5t-162 31.5z" />
    <glyph glyph-name="Uhungarumlaut" unicode="&#x170;" horiz-adv-x="697" 
d="M199 766l142 131l109 -40l-184 -118zM392 766l141 131l108 -43l-183 -116zM187 12.5q-69 31.5 -106.5 90.5t-37.5 140v457h209v-444q0 -46 26.5 -72.5t70.5 -26.5t70.5 27t26.5 72v444h208v-457q0 -81 -37.5 -140t-106 -90.5t-161.5 -31.5t-162 31.5z" />
    <glyph glyph-name="Umacron" unicode="&#x16a;" horiz-adv-x="697" 
d="M147 857h404v-100h-404v100zM187 12.5q-69 31.5 -106.5 90.5t-37.5 140v457h209v-444q0 -46 26.5 -72.5t70.5 -26.5t70.5 27t26.5 72v444h208v-457q0 -81 -37.5 -140t-106 -90.5t-161.5 -31.5t-162 31.5z" />
    <glyph glyph-name="Uogonek" unicode="&#x172;" horiz-adv-x="697" 
d="M187 12.5q-69 31.5 -106.5 90.5t-37.5 140v457h209v-444q0 -46 26.5 -72.5t70.5 -26.5t70.5 27t26.5 72v444h208v-457q0 -81 -37.5 -140t-106 -90.5t-161.5 -31.5t-162 31.5zM261.5 -173q-37.5 28 -37.5 71q0 65 66 102h190q-55 -2 -77.5 -20t-22.5 -42q0 -19 13.5 -31.5
t35.5 -12.5q25 0 48 12v-88q-27 -11 -51 -15t-59 -4q-68 0 -105.5 28z" />
    <glyph glyph-name="Uring" unicode="&#x16e;" horiz-adv-x="697" 
d="M265.5 711.5q-34.5 32.5 -34.5 78.5q0 45 34.5 77.5t83.5 32.5t83.5 -32.5t34.5 -77.5q0 -46 -34.5 -78.5t-83.5 -32.5t-83.5 32.5zM384 755.5q14 13.5 14 34.5q0 20 -14 34t-35 14t-35 -14t-14 -34q0 -21 14 -34.5t35 -13.5t35 13.5zM187 12.5q-69 31.5 -106.5 90.5
t-37.5 140v457h209v-444q0 -46 26.5 -72.5t70.5 -26.5t70.5 27t26.5 72v444h208v-457q0 -81 -37.5 -140t-106 -90.5t-161.5 -31.5t-162 31.5z" />
    <glyph glyph-name="Utilde" unicode="&#x168;" horiz-adv-x="697" 
d="M389.5 740q-21.5 8 -53.5 23q-23 12 -38.5 18t-29.5 6q-23 0 -40 -10.5t-40 -35.5l-53 67q36 47 65 63t54 16q21 0 43 -8t52 -23q26 -13 42.5 -19t30.5 -6q23 0 40.5 8t50.5 36l49 -71q-31 -44 -65.5 -58t-63.5 -14q-22 0 -43.5 8zM187 12.5q-69 31.5 -106.5 90.5
t-37.5 140v457h209v-444q0 -46 26.5 -72.5t70.5 -26.5t70.5 27t26.5 72v444h208v-457q0 -81 -37.5 -140t-106 -90.5t-161.5 -31.5t-162 31.5z" />
    <glyph glyph-name="Wacute" unicode="&#x1e82;" horiz-adv-x="1087" 
d="M413 813l226 86l39 -86l-226 -86zM-7 700h221l126 -422l121 422h165l121 -422l126 422h221l-252 -700h-182l-116 381l-117 -381h-182z" />
    <glyph glyph-name="Wcircumflex" unicode="&#x174;" horiz-adv-x="1087" 
d="M685 791l-66 -62l-76 60l-77 -60l-66 62l143 104zM-7 700h221l126 -422l121 422h165l121 -422l126 422h221l-252 -700h-182l-116 381l-117 -381h-182z" />
    <glyph glyph-name="Wdieresis" unicode="&#x1e84;" horiz-adv-x="1087" 
d="M365.5 753.5q-25.5 24.5 -25.5 58.5q0 35 25 60t62 25t62 -24.5t25 -60.5q0 -34 -25 -58.5t-62 -24.5q-36 0 -61.5 24.5zM599.5 753.5q-24.5 24.5 -24.5 58.5q0 36 24.5 60.5t60.5 24.5q37 0 62.5 -25t25.5 -60q0 -34 -25.5 -58.5t-62.5 -24.5q-36 0 -60.5 24.5zM-7 700
h221l126 -422l121 422h165l121 -422l126 422h221l-252 -700h-182l-116 381l-117 -381h-182z" />
    <glyph glyph-name="Wgrave" unicode="&#x1e80;" horiz-adv-x="1087" 
d="M410 813l39 86l226 -86l-39 -86zM-7 700h221l126 -422l121 422h165l121 -422l126 422h221l-252 -700h-182l-116 381l-117 -381h-182z" />
    <glyph glyph-name="Yacute" unicode="&#xdd;" horiz-adv-x="663" 
d="M249 727l-39 86l226 86l39 -86zM683 700l-347 -700h-233l120 246l-235 454h245l111 -250l107 250h232z" />
    <glyph glyph-name="Ycircumflex" unicode="&#x176;" horiz-adv-x="663" 
d="M263 729l-66 62l143 104l142 -104l-66 -62l-76 60zM683 700l-347 -700h-233l120 246l-235 454h245l111 -250l107 250h232z" />
    <glyph glyph-name="Ydieresis" unicode="&#x178;" horiz-adv-x="663" 
d="M162.5 753.5q-25.5 24.5 -25.5 58.5q0 35 25 60t62 25t62 -24.5t25 -60.5q0 -34 -25 -58.5t-62 -24.5q-36 0 -61.5 24.5zM396.5 753.5q-24.5 24.5 -24.5 58.5q0 36 24.5 60.5t60.5 24.5q37 0 62.5 -25t25.5 -60q0 -34 -25.5 -58.5t-62.5 -24.5q-36 0 -60.5 24.5zM683 700
l-347 -700h-233l120 246l-235 454h245l111 -250l107 250h232z" />
    <glyph glyph-name="Ygrave" unicode="&#x1ef2;" horiz-adv-x="663" 
d="M433 727l-226 86l39 86l226 -86zM683 700l-347 -700h-233l120 246l-235 454h245l111 -250l107 250h232z" />
    <glyph glyph-name="Zacute" unicode="&#x179;" horiz-adv-x="659" 
d="M208 813l226 86l39 -86l-226 -86zM324 530h-274v170h597l-315 -530h293v-170h-618z" />
    <glyph glyph-name="Zcaron" unicode="&#x17d;" horiz-adv-x="659" 
d="M197 838l66 62l76 -60l77 60l66 -62l-143 -104zM324 530h-274v170h597l-315 -530h293v-170h-618z" />
    <glyph glyph-name="Zdotaccent" unicode="&#x17b;" horiz-adv-x="659" 
d="M282 760q-22 23 -22 56q0 34 22 57t57 23t57.5 -23t22.5 -57q0 -33 -22.5 -56t-57.5 -23t-57 23zM324 530h-274v170h597l-315 -530h293v-170h-618z" />
    <glyph glyph-name="a" unicode="a" horiz-adv-x="655" 
d="M128 19.5q-51 33.5 -78.5 93t-27.5 135.5t28 136t79.5 93.5t118.5 33.5q56 0 96 -24t59 -64v74h196v-497h-196v74q-18 -39 -59.5 -63.5t-96.5 -24.5q-68 0 -119 33.5zM385.5 173.5q25.5 29.5 25.5 74.5q0 46 -25.5 75.5t-68.5 29.5q-42 0 -67 -29.5t-25 -75.5t25 -75
t67 -29q43 0 68.5 29.5z" />
    <glyph glyph-name="b" unicode="b" horiz-adv-x="655" 
d="M527 478.5q50 -32.5 78.5 -92.5t28.5 -138q0 -77 -28.5 -136.5t-80 -92.5t-116.5 -33q-56 0 -97.5 25.5t-58.5 62.5v-74h-196v700h196v-277q17 38 59.5 63t99.5 25q65 0 115 -32.5zM405 172q26 30 26 76q0 47 -26 76t-67 29t-67 -29t-26 -76t26 -76.5t67 -29.5t67 30z
" />
    <glyph glyph-name="c" unicode="c" horiz-adv-x="592" 
d="M149.5 16q-64.5 33 -99.5 93.5t-35 139.5t35 139.5t99.5 93.5t150.5 33q78 0 138.5 -26.5t96.5 -75.5t42 -114h-196q-13 54 -81 54q-42 0 -65.5 -27.5t-23.5 -76.5t23.5 -76.5t65.5 -27.5q67 0 81 53h196q-10 -99 -84.5 -157t-192.5 -58q-86 0 -150.5 33z" />
    <glyph glyph-name="d" unicode="d" horiz-adv-x="655" 
d="M599 700v-700h-196v74q-18 -39 -59.5 -63.5t-96.5 -24.5q-68 0 -119 33.5t-78.5 93t-27.5 135.5t28 136t79.5 93.5t118.5 33.5q56 0 96 -24t59 -64v277h196zM385.5 173.5q25.5 29.5 25.5 74.5q0 46 -25.5 75.5t-68.5 29.5q-42 0 -67 -29.5t-25 -75.5t25 -75t67 -29
q43 0 68.5 29.5z" />
    <glyph glyph-name="e" unicode="e" horiz-adv-x="597" 
d="M577 201h-366q2 -39 27.5 -61t67.5 -22q63 0 78 37h190q-13 -79 -86 -125.5t-182 -46.5q-136 0 -213.5 69.5t-77.5 195.5q0 82 35.5 142.5t100.5 92.5t151 32q82 0 145.5 -30.5t99 -85.5t35.5 -125q0 -37 -5 -73zM386 309q-1 41 -23 64t-63 23q-40 0 -63.5 -24t-25.5 -63
h175z" />
    <glyph glyph-name="f" unicode="f" horiz-adv-x="402" 
d="M287 526v-29h103v-150h-103v-347h-195v347h-79v150h79v27q0 101 56 144.5t140 43.5q63 0 102 -13v-127q-32 4 -41 4q-62 0 -62 -50z" />
    <glyph glyph-name="g" unicode="g" horiz-adv-x="656" 
d="M599 497v-455q0 -69 -26.5 -121.5t-75.5 -84.5q-63 -43 -183 -43q-60 0 -103 8t-80 28q-43 23 -70.5 62t-27.5 79h198q4 -21 24 -32.5t56 -11.5q92 0 92 90v78q-16 -37 -59 -60t-94 -23q-69 0 -120.5 31.5t-79.5 87.5t-28 128q0 74 28.5 131.5t80.5 89.5t120 32
q53 0 94.5 -24t57.5 -64v74h196zM386 180q25 30 25 75t-25 75t-68 30q-41 0 -67 -29.5t-26 -75.5t26 -75.5t67 -29.5q43 0 68 30z" />
    <glyph glyph-name="h" unicode="h" horiz-adv-x="647" 
d="M596 303v-303h-200v253q0 48 -16.5 71t-52.5 23q-74 0 -74 -98v-249h-196v700h196v-276q19 43 60.5 65t100.5 22q182 0 182 -208z" />
    <glyph glyph-name="i" unicode="i" horiz-adv-x="309" 
d="M57 497h196v-497h-196v497zM77 545.5q-31 31.5 -31 75.5q0 45 31 76t78 31q46 0 77.5 -31t31.5 -76q0 -44 -31.5 -75.5t-77.5 -31.5q-47 0 -78 31.5z" />
    <glyph glyph-name="j" unicode="j" horiz-adv-x="311" 
d="M28.5 -193.5q-18.5 2.5 -40.5 8.5v137q18 -3 32 -3q19 0 28.5 10.5t9.5 34.5v503h196v-509q0 -92 -46.5 -138t-134.5 -46q-26 0 -44.5 2.5zM78 545.5q-31 31.5 -31 75.5q0 45 31 76t78 31q46 0 77.5 -31t31.5 -76q0 -44 -31.5 -75.5t-77.5 -31.5q-47 0 -78 31.5z" />
    <glyph glyph-name="k" unicode="k" horiz-adv-x="634" 
d="M388 0l-135 206v-206h-196v700h196v-399l138 196h222l-181 -233l187 -264h-231z" />
    <glyph glyph-name="l" unicode="l" horiz-adv-x="310" 
d="M57 700h196v-700h-196v700z" />
    <glyph glyph-name="m" unicode="m" horiz-adv-x="945" 
d="M57 497h196v-73q17 41 54.5 64t92.5 23q117 0 155 -94q21 44 64 69t99 25q96 0 135.5 -55.5t39.5 -151.5v-304h-200v268q0 42 -14 60.5t-43 18.5q-31 0 -47 -23t-16 -75v-249h-200v268q0 42 -13.5 60.5t-42.5 18.5q-32 0 -48 -22.5t-16 -75.5v-249h-196v497z" />
    <glyph glyph-name="n" unicode="n" horiz-adv-x="647" 
d="M57 497h196v-73q19 43 60.5 65t100.5 22q182 0 182 -208v-303h-200v253q0 48 -16.5 71t-52.5 23q-74 0 -74 -98v-249h-196v497z" />
    <glyph glyph-name="o" unicode="o" horiz-adv-x="609" 
d="M151.5 16.5q-65.5 33.5 -101 94t-35.5 138.5t35.5 138.5t101 94t152.5 33.5t153 -33.5t101.5 -94t35.5 -138.5t-35.5 -138.5t-101.5 -94t-153 -33.5t-152.5 33.5zM372 173q25 29 25 76t-25 76t-68 29q-42 0 -67.5 -29.5t-25.5 -75.5t25.5 -75.5t67.5 -29.5q43 0 68 29z
" />
    <glyph glyph-name="p" unicode="p" horiz-adv-x="655" 
d="M527 478.5q50 -32.5 78.5 -92.5t28.5 -138q0 -77 -28.5 -136.5t-80 -92.5t-116.5 -33q-56 0 -97.5 25.5t-58.5 62.5v-264h-196v687h196v-74q17 38 59.5 63t99.5 25q65 0 115 -32.5zM405 172q26 30 26 76q0 47 -26 76t-67 29t-67 -29t-26 -76t26 -76.5t67 -29.5t67 30z
" />
    <glyph glyph-name="q" unicode="q" horiz-adv-x="655" 
d="M599 497v-687h-196v264q-18 -39 -59.5 -63.5t-96.5 -24.5q-68 0 -119 33.5t-78.5 93t-27.5 135.5t28 136t79.5 93.5t118.5 33.5q56 0 96 -24t59 -64v74h196zM385.5 173.5q25.5 29.5 25.5 74.5q0 46 -25.5 75.5t-68.5 29.5q-42 0 -67 -29.5t-25 -75.5t25 -75t67 -29
q43 0 68.5 29.5z" />
    <glyph glyph-name="r" unicode="r" horiz-adv-x="449" 
d="M57 497h196v-111q13 57 52 89t91 32q19 0 37 -3v-185q-25 4 -50 4q-61 0 -95.5 -34.5t-34.5 -121.5v-167h-196v497z" />
    <glyph glyph-name="s" unicode="s" horiz-adv-x="541" 
d="M140.5 3.5q-57.5 20.5 -88 58t-30.5 86.5h195q0 -21 17 -34t45 -13q20 0 32.5 9.5t12.5 25.5q0 25 -34 33l-118 27q-68 15 -104.5 53.5t-36.5 96.5q0 78 62.5 123.5t170.5 45.5q120 0 183 -40.5t63 -115.5h-193q0 21 -14 32t-39 11q-19 0 -31 -8t-12 -22q0 -27 42 -38
l117 -30q68 -17 103 -51.5t35 -91.5q0 -82 -65 -130t-175 -48q-80 0 -137.5 20.5z" />
    <glyph glyph-name="t" unicode="t" horiz-adv-x="422" 
d="M402 149v-149q-56 -10 -122 -10q-85 0 -138.5 39t-53.5 150v168h-73v150h73v145h196v-145h113v-150h-113v-127q0 -43 18.5 -59t49.5 -16q18 0 50 4z" />
    <glyph glyph-name="u" unicode="u" horiz-adv-x="642" 
d="M96.5 41q-44.5 55 -44.5 153v303h199v-260q0 -87 67 -87q71 0 71 93v254h197v-497h-197v74q-18 -41 -57.5 -64.5t-96.5 -23.5q-94 0 -138.5 55z" />
    <glyph glyph-name="v" unicode="v" horiz-adv-x="605" 
d="M-7 497h223l87 -284l87 284h222l-215 -497h-188z" />
    <glyph glyph-name="w" unicode="w" horiz-adv-x="861" 
d="M2 497h199l77 -275l63 275h179l63 -275l77 275h200l-176 -497h-181l-72 255l-73 -255h-181z" />
    <glyph glyph-name="x" unicode="x" horiz-adv-x="620" 
d="M185 251l-175 246h230l70 -127l70 127h230l-175 -246l178 -251h-230l-73 133l-73 -133h-230z" />
    <glyph glyph-name="y" unicode="y" horiz-adv-x="644" 
d="M587 497v-464q0 -61 -20.5 -108t-54.5 -76q-37 -30 -82 -43t-114 -13q-71 0 -118 12t-80 39q-29 24 -47.5 59.5t-18.5 72.5h196q2 -24 18.5 -37.5t49.5 -13.5q75 0 75 80v91q-20 -40 -60 -62.5t-95 -22.5q-184 0 -184 212v274h196v-251q0 -43 16 -65t52 -22q75 0 75 103
v235h196z" />
    <glyph glyph-name="z" unicode="z" horiz-adv-x="516" 
d="M226 337h-197v160h482l-214 -337h194v-160h-486z" />
    <glyph glyph-name="aacute" unicode="&#xe1;" horiz-adv-x="655" 
d="M128 19.5q-51 33.5 -78.5 93t-27.5 135.5t28 136t79.5 93.5t118.5 33.5q56 0 96 -24t59 -64v74h196v-497h-196v74q-18 -39 -59.5 -63.5t-96.5 -24.5q-68 0 -119 33.5zM385.5 173.5q25.5 29.5 25.5 74.5q0 46 -25.5 75.5t-68.5 29.5q-42 0 -67 -29.5t-25 -75.5t25 -75
t67 -29q43 0 68.5 29.5zM148 626l295 90l30 -96l-293 -91z" />
    <glyph glyph-name="abreve" unicode="&#x103;" horiz-adv-x="655" 
d="M128 19.5q-51 33.5 -78.5 93t-27.5 135.5t28 136t79.5 93.5t118.5 33.5q56 0 96 -24t59 -64v74h196v-497h-196v74q-18 -39 -59.5 -63.5t-96.5 -24.5q-68 0 -119 33.5zM385.5 173.5q25.5 29.5 25.5 74.5q0 46 -25.5 75.5t-68.5 29.5q-42 0 -67 -29.5t-25 -75.5t25 -75
t67 -29q43 0 68.5 29.5zM177 577q-49 40 -52 112h132q3 -55 58 -55q54 0 57 55h133q-4 -71 -55 -111.5t-135 -40.5q-89 0 -138 40z" />
    <glyph glyph-name="acircumflex" unicode="&#xe2;" horiz-adv-x="655" 
d="M128 19.5q-51 33.5 -78.5 93t-27.5 135.5t28 136t79.5 93.5t118.5 33.5q56 0 96 -24t59 -64v74h196v-497h-196v74q-18 -39 -59.5 -63.5t-96.5 -24.5q-68 0 -119 33.5zM385.5 173.5q25.5 29.5 25.5 74.5q0 46 -25.5 75.5t-68.5 29.5q-42 0 -67 -29.5t-25 -75.5t25 -75
t67 -29q43 0 68.5 29.5zM473 595l-72 -66l-88 71l-87 -70l-72 65l159 123z" />
    <glyph glyph-name="adieresis" unicode="&#xe4;" horiz-adv-x="655" 
d="M128 19.5q-51 33.5 -78.5 93t-27.5 135.5t28 136t79.5 93.5t118.5 33.5q56 0 96 -24t59 -64v74h196v-497h-196v74q-18 -39 -59.5 -63.5t-96.5 -24.5q-68 0 -119 33.5zM385.5 173.5q25.5 29.5 25.5 74.5q0 46 -25.5 75.5t-68.5 29.5q-42 0 -67 -29.5t-25 -75.5t25 -75
t67 -29q43 0 68.5 29.5zM129 568.5q-28 27.5 -28 66.5t28 67t68 28q41 0 69 -28t28 -67t-28 -66.5t-69 -27.5q-40 0 -68 27.5zM364.5 568.5q-27.5 27.5 -27.5 66.5t27.5 67t68.5 28t68.5 -28t27.5 -67t-27.5 -66.5t-68.5 -27.5t-68.5 27.5z" />
    <glyph glyph-name="ae" unicode="&#xe6;" horiz-adv-x="969" 
d="M949 204h-366q1 -41 26 -64t67 -23q31 0 51.5 13t28.5 36h190q-14 -83 -86.5 -133.5t-181.5 -50.5q-64 0 -116.5 20.5t-87.5 58.5q-39 -40 -94 -59t-131 -19q-66 0 -117 19t-80 53t-29 79q0 43 15.5 74.5t48.5 53.5q34 24 87.5 33t137.5 9h78v35q0 24 -16.5 40.5
t-54.5 16.5q-73 0 -75 -63h-200q7 84 78.5 133t198.5 49q118 0 180 -57q70 56 173 56q82 0 145.5 -30.5t99 -85t35.5 -124.5q0 -36 -5 -70zM736 371.5q-23 24.5 -63 24.5t-65 -25.5t-25 -66.5h175q1 43 -22 67.5zM392 205h-78q-39 0 -57.5 -13.5t-18.5 -35.5
q0 -24 17.5 -36.5t49.5 -12.5q36 0 61.5 19t25.5 56v23z" />
    <glyph glyph-name="aeacute" unicode="&#x1fd;" horiz-adv-x="969" 
d="M949 204h-366q1 -41 26 -64t67 -23q31 0 51.5 13t28.5 36h190q-14 -83 -86.5 -133.5t-181.5 -50.5q-64 0 -116.5 20.5t-87.5 58.5q-39 -40 -94 -59t-131 -19q-66 0 -117 19t-80 53t-29 79q0 43 15.5 74.5t48.5 53.5q34 24 87.5 33t137.5 9h78v35q0 24 -16.5 40.5
t-54.5 16.5q-73 0 -75 -63h-200q7 84 78.5 133t198.5 49q118 0 180 -57q70 56 173 56q82 0 145.5 -30.5t99 -85t35.5 -124.5q0 -36 -5 -70zM736 371.5q-23 24.5 -63 24.5t-65 -25.5t-25 -66.5h175q1 43 -22 67.5zM392 205h-78q-39 0 -57.5 -13.5t-18.5 -35.5
q0 -24 17.5 -36.5t49.5 -12.5q36 0 61.5 19t25.5 56v23zM355 626l295 90l30 -96l-293 -91z" />
    <glyph glyph-name="agrave" unicode="&#xe0;" horiz-adv-x="655" 
d="M128 19.5q-51 33.5 -78.5 93t-27.5 135.5t28 136t79.5 93.5t118.5 33.5q56 0 96 -24t59 -64v74h196v-497h-196v74q-18 -39 -59.5 -63.5t-96.5 -24.5q-68 0 -119 33.5zM385.5 173.5q25.5 29.5 25.5 74.5q0 46 -25.5 75.5t-68.5 29.5q-42 0 -67 -29.5t-25 -75.5t25 -75
t67 -29q43 0 68.5 29.5zM145 617l30 96l295 -90l-32 -97z" />
    <glyph glyph-name="amacron" unicode="&#x101;" horiz-adv-x="655" 
d="M128 19.5q-51 33.5 -78.5 93t-27.5 135.5t28 136t79.5 93.5t118.5 33.5q56 0 96 -24t59 -64v74h196v-497h-196v74q-18 -39 -59.5 -63.5t-96.5 -24.5q-68 0 -119 33.5zM385.5 173.5q25.5 29.5 25.5 74.5q0 46 -25.5 75.5t-68.5 29.5q-42 0 -67 -29.5t-25 -75.5t25 -75
t67 -29q43 0 68.5 29.5zM133 674h364v-103h-364v103z" />
    <glyph glyph-name="aogonek" unicode="&#x105;" horiz-adv-x="655" 
d="M128 19.5q-51 33.5 -78.5 93t-27.5 135.5t28 136t79.5 93.5t118.5 33.5q56 0 96 -24t59 -64v74h196v-497h-196v74q-18 -39 -59.5 -63.5t-96.5 -24.5q-68 0 -119 33.5zM385.5 173.5q25.5 29.5 25.5 74.5q0 46 -25.5 75.5t-68.5 29.5q-42 0 -67 -29.5t-25 -75.5t25 -75
t67 -29q43 0 68.5 29.5zM380.5 -173q-37.5 28 -37.5 71q0 65 66 102h190q-55 -2 -77.5 -20t-22.5 -42q0 -19 13.5 -31.5t35.5 -12.5q25 0 48 12v-88q-27 -11 -51 -15t-59 -4q-68 0 -105.5 28z" />
    <glyph glyph-name="aring" unicode="&#xe5;" horiz-adv-x="655" 
d="M128 19.5q-51 33.5 -78.5 93t-27.5 135.5t28 136t79.5 93.5t118.5 33.5q56 0 96 -24t59 -64v74h196v-497h-196v74q-18 -39 -59.5 -63.5t-96.5 -24.5q-68 0 -119 33.5zM385.5 173.5q25.5 29.5 25.5 74.5q0 46 -25.5 75.5t-68.5 29.5q-42 0 -67 -29.5t-25 -75.5t25 -75
t67 -29q43 0 68.5 29.5zM232.5 557q-32.5 30 -32.5 78t32.5 78t82.5 30t82.5 -30t32.5 -78t-32.5 -78t-82.5 -30t-82.5 30zM348 598.5q13 14.5 13 36.5t-13 36t-33 14t-33 -14t-13 -36t13 -36.5t33 -14.5t33 14.5z" />
    <glyph glyph-name="atilde" unicode="&#xe3;" horiz-adv-x="655" 
d="M128 19.5q-51 33.5 -78.5 93t-27.5 135.5t28 136t79.5 93.5t118.5 33.5q56 0 96 -24t59 -64v74h196v-497h-196v74q-18 -39 -59.5 -63.5t-96.5 -24.5q-68 0 -119 33.5zM385.5 173.5q25.5 29.5 25.5 74.5q0 46 -25.5 75.5t-68.5 29.5q-42 0 -67 -29.5t-25 -75.5t25 -75
t67 -29q43 0 68.5 29.5zM353 544q-17 7 -41 21q-18 12 -31.5 17.5t-28.5 5.5q-42 0 -80 -35l-37 81q49 61 106 61q23 0 40 -7t41 -21q18 -12 31.5 -17.5t28.5 -5.5q42 0 80 35l37 -81q-49 -61 -106 -61q-23 0 -40 7z" />
    <glyph glyph-name="cacute" unicode="&#x107;" horiz-adv-x="592" 
d="M149.5 16q-64.5 33 -99.5 93.5t-35 139.5t35 139.5t99.5 93.5t150.5 33q78 0 138.5 -26.5t96.5 -75.5t42 -114h-196q-13 54 -81 54q-42 0 -65.5 -27.5t-23.5 -76.5t23.5 -76.5t65.5 -27.5q67 0 81 53h196q-10 -99 -84.5 -157t-192.5 -58q-86 0 -150.5 33zM131 626l295 90
l30 -96l-293 -91z" />
    <glyph glyph-name="ccaron" unicode="&#x10d;" horiz-adv-x="592" 
d="M149.5 16q-64.5 33 -99.5 93.5t-35 139.5t35 139.5t99.5 93.5t150.5 33q78 0 138.5 -26.5t96.5 -75.5t42 -114h-196q-13 54 -81 54q-42 0 -65.5 -27.5t-23.5 -76.5t23.5 -76.5t65.5 -27.5q67 0 81 53h196q-10 -99 -84.5 -157t-192.5 -58q-86 0 -150.5 33zM137 652l72 65
l87 -70l88 71l72 -66l-160 -123z" />
    <glyph glyph-name="ccedilla" unicode="&#xe7;" horiz-adv-x="592" 
d="M149.5 16q-64.5 33 -99.5 93.5t-35 139.5t35 139.5t99.5 93.5t150.5 33q78 0 138.5 -26.5t96.5 -75.5t42 -114h-196q-13 54 -81 54q-42 0 -65.5 -27.5t-23.5 -76.5t23.5 -76.5t65.5 -27.5q67 0 81 53h196q-10 -99 -84.5 -157t-192.5 -58q-86 0 -150.5 33zM276 -187.5
q-28 19.5 -31 51.5h72q1 -8 9 -13.5t19 -5.5q14 0 22 9t8 25q0 15 -7.5 22.5t-20.5 7.5q-20 0 -26 -13h-66v110h72v-65q14 12 43 12q35 0 56.5 -22t21.5 -55q0 -34 -27 -58.5t-74 -24.5q-43 0 -71 19.5z" />
    <glyph glyph-name="ccircumflex" unicode="&#x109;" horiz-adv-x="592" 
d="M149.5 16q-64.5 33 -99.5 93.5t-35 139.5t35 139.5t99.5 93.5t150.5 33q78 0 138.5 -26.5t96.5 -75.5t42 -114h-196q-13 54 -81 54q-42 0 -65.5 -27.5t-23.5 -76.5t23.5 -76.5t65.5 -27.5q67 0 81 53h196q-10 -99 -84.5 -157t-192.5 -58q-86 0 -150.5 33zM456 595
l-72 -66l-88 71l-87 -70l-72 65l159 123z" />
    <glyph glyph-name="cdotaccent" unicode="&#x10b;" horiz-adv-x="592" 
d="M149.5 16q-64.5 33 -99.5 93.5t-35 139.5t35 139.5t99.5 93.5t150.5 33q78 0 138.5 -26.5t96.5 -75.5t42 -114h-196q-13 54 -81 54q-42 0 -65.5 -27.5t-23.5 -76.5t23.5 -76.5t65.5 -27.5q67 0 81 53h196q-10 -99 -84.5 -157t-192.5 -58q-86 0 -150.5 33zM223 568
q-30 29 -30 73t30 73t75 29t74.5 -29t29.5 -73t-29.5 -73t-74.5 -29t-75 29z" />
    <glyph glyph-name="dcaron" unicode="&#x10f;" horiz-adv-x="783" 
d="M599 700v-700h-196v74q-18 -39 -59.5 -63.5t-96.5 -24.5q-68 0 -119 33.5t-78.5 93t-27.5 135.5t28 136t79.5 93.5t118.5 33.5q56 0 96 -24t59 -64v277h196zM385.5 173.5q25.5 29.5 25.5 74.5q0 46 -25.5 75.5t-68.5 29.5q-42 0 -67 -29.5t-25 -75.5t25 -75t67 -29
q43 0 68.5 29.5zM667 509v42q7 -1 17 -1q33 0 48 18q10 14 10 40q-5 -6 -15.5 -10t-23.5 -4q-24 0 -39.5 17t-15.5 44q0 28 18 45t48 17q37 0 59 -24t22 -69q0 -54 -28.5 -85t-79.5 -31q-13 0 -20 1z" />
    <glyph glyph-name="dcroat" unicode="&#x111;" horiz-adv-x="666" 
d="M650 537h-51v-537h-196v74q-18 -39 -59.5 -63.5t-96.5 -24.5q-68 0 -119 33.5t-78.5 93t-27.5 135.5t28 136t79.5 93.5t118.5 33.5q56 0 96 -24t59 -64v114h-109v92h109v71h196v-71h51v-92zM385.5 173.5q25.5 29.5 25.5 74.5q0 46 -25.5 75.5t-68.5 29.5q-42 0 -67 -29.5
t-25 -75.5t25 -75t67 -29q43 0 68.5 29.5z" />
    <glyph glyph-name="eacute" unicode="&#xe9;" horiz-adv-x="597" 
d="M577 201h-366q2 -39 27.5 -61t67.5 -22q63 0 78 37h190q-13 -79 -86 -125.5t-182 -46.5q-136 0 -213.5 69.5t-77.5 195.5q0 82 35.5 142.5t100.5 92.5t151 32q82 0 145.5 -30.5t99 -85.5t35.5 -125q0 -37 -5 -73zM386 309q-1 41 -23 64t-63 23q-40 0 -63.5 -24t-25.5 -63
h175zM133 626l295 90l30 -96l-293 -91z" />
    <glyph glyph-name="ebreve" unicode="&#x115;" horiz-adv-x="597" 
d="M577 201h-366q2 -39 27.5 -61t67.5 -22q63 0 78 37h190q-13 -79 -86 -125.5t-182 -46.5q-136 0 -213.5 69.5t-77.5 195.5q0 82 35.5 142.5t100.5 92.5t151 32q82 0 145.5 -30.5t99 -85.5t35.5 -125q0 -37 -5 -73zM386 309q-1 41 -23 64t-63 23q-40 0 -63.5 -24t-25.5 -63
h175zM162 577q-49 40 -52 112h132q3 -55 58 -55q54 0 57 55h133q-4 -71 -55 -111.5t-135 -40.5q-89 0 -138 40z" />
    <glyph glyph-name="ecaron" unicode="&#x11b;" horiz-adv-x="597" 
d="M577 201h-366q2 -39 27.5 -61t67.5 -22q63 0 78 37h190q-13 -79 -86 -125.5t-182 -46.5q-136 0 -213.5 69.5t-77.5 195.5q0 82 35.5 142.5t100.5 92.5t151 32q82 0 145.5 -30.5t99 -85.5t35.5 -125q0 -37 -5 -73zM386 309q-1 41 -23 64t-63 23q-40 0 -63.5 -24t-25.5 -63
h175zM139 652l72 65l87 -70l88 71l72 -66l-160 -123z" />
    <glyph glyph-name="ecircumflex" unicode="&#xea;" horiz-adv-x="597" 
d="M577 201h-366q2 -39 27.5 -61t67.5 -22q63 0 78 37h190q-13 -79 -86 -125.5t-182 -46.5q-136 0 -213.5 69.5t-77.5 195.5q0 82 35.5 142.5t100.5 92.5t151 32q82 0 145.5 -30.5t99 -85.5t35.5 -125q0 -37 -5 -73zM386 309q-1 41 -23 64t-63 23q-40 0 -63.5 -24t-25.5 -63
h175zM458 595l-72 -66l-88 71l-87 -70l-72 65l159 123z" />
    <glyph glyph-name="edieresis" unicode="&#xeb;" horiz-adv-x="597" 
d="M577 201h-366q2 -39 27.5 -61t67.5 -22q63 0 78 37h190q-13 -79 -86 -125.5t-182 -46.5q-136 0 -213.5 69.5t-77.5 195.5q0 82 35.5 142.5t100.5 92.5t151 32q82 0 145.5 -30.5t99 -85.5t35.5 -125q0 -37 -5 -73zM386 309q-1 41 -23 64t-63 23q-40 0 -63.5 -24t-25.5 -63
h175zM114 568.5q-28 27.5 -28 66.5t28 67t68 28q41 0 69 -28t28 -67t-28 -66.5t-69 -27.5q-40 0 -68 27.5zM349.5 568.5q-27.5 27.5 -27.5 66.5t27.5 67t68.5 28t68.5 -28t27.5 -67t-27.5 -66.5t-68.5 -27.5t-68.5 27.5z" />
    <glyph glyph-name="edotaccent" unicode="&#x117;" horiz-adv-x="597" 
d="M577 201h-366q2 -39 27.5 -61t67.5 -22q63 0 78 37h190q-13 -79 -86 -125.5t-182 -46.5q-136 0 -213.5 69.5t-77.5 195.5q0 82 35.5 142.5t100.5 92.5t151 32q82 0 145.5 -30.5t99 -85.5t35.5 -125q0 -37 -5 -73zM386 309q-1 41 -23 64t-63 23q-40 0 -63.5 -24t-25.5 -63
h175zM225 568q-30 29 -30 73t30 73t75 29t74.5 -29t29.5 -73t-29.5 -73t-74.5 -29t-75 29z" />
    <glyph glyph-name="egrave" unicode="&#xe8;" horiz-adv-x="597" 
d="M577 201h-366q2 -39 27.5 -61t67.5 -22q63 0 78 37h190q-13 -79 -86 -125.5t-182 -46.5q-136 0 -213.5 69.5t-77.5 195.5q0 82 35.5 142.5t100.5 92.5t151 32q82 0 145.5 -30.5t99 -85.5t35.5 -125q0 -37 -5 -73zM386 309q-1 41 -23 64t-63 23q-40 0 -63.5 -24t-25.5 -63
h175zM130 617l30 96l295 -90l-32 -97z" />
    <glyph glyph-name="emacron" unicode="&#x113;" horiz-adv-x="597" 
d="M577 201h-366q2 -39 27.5 -61t67.5 -22q63 0 78 37h190q-13 -79 -86 -125.5t-182 -46.5q-136 0 -213.5 69.5t-77.5 195.5q0 82 35.5 142.5t100.5 92.5t151 32q82 0 145.5 -30.5t99 -85.5t35.5 -125q0 -37 -5 -73zM386 309q-1 41 -23 64t-63 23q-40 0 -63.5 -24t-25.5 -63
h175zM118 674h364v-103h-364v103z" />
    <glyph glyph-name="eogonek" unicode="&#x119;" horiz-adv-x="597" 
d="M577 201h-366q2 -39 27.5 -61t67.5 -22q63 0 78 37h190q-13 -79 -86 -125.5t-182 -46.5q-136 0 -213.5 69.5t-77.5 195.5q0 82 35.5 142.5t100.5 92.5t151 32q82 0 145.5 -30.5t99 -85.5t35.5 -125q0 -37 -5 -73zM386 309q-1 41 -23 64t-63 23q-40 0 -63.5 -24t-25.5 -63
h175zM205.5 -173q-37.5 28 -37.5 71q0 65 66 102h190q-55 -2 -77.5 -20t-22.5 -42q0 -19 13.5 -31.5t35.5 -12.5q25 0 48 12v-88q-27 -11 -51 -15t-59 -4q-68 0 -105.5 28z" />
    <glyph glyph-name="gbreve" unicode="&#x11f;" horiz-adv-x="656" 
d="M599 497v-455q0 -69 -26.5 -121.5t-75.5 -84.5q-63 -43 -183 -43q-60 0 -103 8t-80 28q-43 23 -70.5 62t-27.5 79h198q4 -21 24 -32.5t56 -11.5q92 0 92 90v78q-16 -37 -59 -60t-94 -23q-69 0 -120.5 31.5t-79.5 87.5t-28 128q0 74 28.5 131.5t80.5 89.5t120 32
q53 0 94.5 -24t57.5 -64v74h196zM386 180q25 30 25 75t-25 75t-68 30q-41 0 -67 -29.5t-26 -75.5t26 -75.5t67 -29.5q43 0 68 30zM176 577q-49 40 -52 112h132q3 -55 58 -55q54 0 57 55h133q-4 -71 -55 -111.5t-135 -40.5q-89 0 -138 40z" />
    <glyph glyph-name="gcircumflex" unicode="&#x11d;" horiz-adv-x="656" 
d="M599 497v-455q0 -69 -26.5 -121.5t-75.5 -84.5q-63 -43 -183 -43q-60 0 -103 8t-80 28q-43 23 -70.5 62t-27.5 79h198q4 -21 24 -32.5t56 -11.5q92 0 92 90v78q-16 -37 -59 -60t-94 -23q-69 0 -120.5 31.5t-79.5 87.5t-28 128q0 74 28.5 131.5t80.5 89.5t120 32
q53 0 94.5 -24t57.5 -64v74h196zM386 180q25 30 25 75t-25 75t-68 30q-41 0 -67 -29.5t-26 -75.5t26 -75.5t67 -29.5q43 0 68 30zM472 595l-72 -66l-88 71l-87 -70l-72 65l159 123z" />
    <glyph glyph-name="gcommaaccent" unicode="&#x123;" horiz-adv-x="656" 
d="M599 497v-455q0 -69 -26.5 -121.5t-75.5 -84.5q-63 -43 -183 -43q-60 0 -103 8t-80 28q-43 23 -70.5 62t-27.5 79h198q4 -21 24 -32.5t56 -11.5q92 0 92 90v78q-16 -37 -59 -60t-94 -23q-69 0 -120.5 31.5t-79.5 87.5t-28 128q0 74 28.5 131.5t80.5 89.5t120 32
q53 0 94.5 -24t57.5 -64v74h196zM386 180q25 30 25 75t-25 75t-68 30q-41 0 -67 -29.5t-26 -75.5t26 -75.5t67 -29.5q43 0 68 30zM330 675q-38 0 -50 -10q-18 -15 -19 -34q2 6 10.5 10.5t20.5 4.5q26 0 40 -16t14 -41q0 -23 -16 -39.5t-44 -16.5q-33 0 -53 23t-20 59
q0 50 30.5 74.5t86.5 24.5v-39z" />
    <glyph glyph-name="gdotaccent" unicode="&#x121;" horiz-adv-x="656" 
d="M599 497v-455q0 -69 -26.5 -121.5t-75.5 -84.5q-63 -43 -183 -43q-60 0 -103 8t-80 28q-43 23 -70.5 62t-27.5 79h198q4 -21 24 -32.5t56 -11.5q92 0 92 90v78q-16 -37 -59 -60t-94 -23q-69 0 -120.5 31.5t-79.5 87.5t-28 128q0 74 28.5 131.5t80.5 89.5t120 32
q53 0 94.5 -24t57.5 -64v74h196zM386 180q25 30 25 75t-25 75t-68 30q-41 0 -67 -29.5t-26 -75.5t26 -75.5t67 -29.5q43 0 68 30zM239 568q-30 29 -30 73t30 73t75 29t74.5 -29t29.5 -73t-29.5 -73t-74.5 -29t-75 29z" />
    <glyph glyph-name="hbar" unicode="&#x127;" horiz-adv-x="647" 
d="M596 303v-303h-200v253q0 48 -16.5 71t-52.5 23q-74 0 -74 -98v-249h-196v537h-39v92h39v71h196v-71h120v-92h-120v-113q19 43 60.5 65t100.5 22q182 0 182 -208z" />
    <glyph glyph-name="hcircumflex" unicode="&#x125;" horiz-adv-x="647" 
d="M157 789l-84 -68l-55 60l139 114l139 -114l-61 -60zM596 303v-303h-200v253q0 48 -16.5 71t-52.5 23q-74 0 -74 -98v-249h-196v700h196v-276q19 43 60.5 65t100.5 22q182 0 182 -208z" />
    <glyph glyph-name="iacute" unicode="&#xed;" horiz-adv-x="309" 
d="M24 623l214 89l37 -93l-214 -89zM57 497h196v-497h-196v497z" />
    <glyph glyph-name="ibreve" unicode="&#x12d;" horiz-adv-x="309" 
d="M52.5 563.5q-40.5 37.5 -40.5 120.5h98q2 -66 44 -66q44 0 44 66h99q0 -83 -40.5 -120.5t-102.5 -37.5q-61 0 -101.5 37.5zM57 497h196v-497h-196v497z" />
    <glyph glyph-name="icircumflex" unicode="&#xee;" horiz-adv-x="309" 
d="M12 593l142 112l143 -112l-72 -66l-71 58l-70 -57zM57 497h196v-497h-196v497z" />
    <glyph glyph-name="idieresis" unicode="&#xef;" horiz-adv-x="309" 
d="M8.5 574.5q-23.5 23.5 -23.5 56.5q0 34 23.5 58t57.5 24q35 0 59 -24t24 -58q0 -33 -23.5 -56.5t-59.5 -23.5q-34 0 -57.5 23.5zM183.5 574.5q-23.5 23.5 -23.5 56.5q0 34 23.5 58t58.5 24t59 -24t24 -58q0 -33 -24 -56.5t-59 -23.5t-58.5 23.5zM57 497h196v-497h-196
v497z" />
    <glyph glyph-name="dotlessi" unicode="&#x131;" horiz-adv-x="309" 
d="M57 497h196v-497h-196v497z" />
    <glyph glyph-name="igrave" unicode="&#xec;" horiz-adv-x="309" 
d="M37 619l38 93l214 -89l-37 -93zM57 497h196v-497h-196v497z" />
    <glyph glyph-name="ij" unicode="&#x133;" horiz-adv-x="620" 
d="M57 497h196v-497h-196v497zM77 545.5q-31 31.5 -31 75.5q0 45 31 76t78 31q46 0 77.5 -31t31.5 -76q0 -44 -31.5 -75.5t-77.5 -31.5q-47 0 -78 31.5zM337.5 -193.5q-18.5 2.5 -40.5 8.5v137q18 -3 32 -3q19 0 28.5 10.5t9.5 34.5v503h196v-509q0 -92 -46.5 -138
t-134.5 -46q-26 0 -44.5 2.5zM387 545.5q-31 31.5 -31 75.5q0 45 31 76t78 31q46 0 77.5 -31t31.5 -76q0 -44 -31.5 -75.5t-77.5 -31.5q-47 0 -78 31.5z" />
    <glyph glyph-name="imacron" unicode="&#x12b;" horiz-adv-x="309" 
d="M31 662h249v-113h-249v113zM57 497h196v-497h-196v497z" />
    <glyph glyph-name="iogonek" unicode="&#x12f;" horiz-adv-x="309" 
d="M57 497h196v-497h-196v497zM77 545.5q-31 31.5 -31 75.5q0 45 31 76t78 31q46 0 77.5 -31t31.5 -76q0 -44 -31.5 -75.5t-77.5 -31.5q-47 0 -78 31.5zM34.5 -173q-37.5 28 -37.5 71q0 65 66 102h190q-55 -2 -77.5 -20t-22.5 -42q0 -19 13.5 -31.5t35.5 -12.5q25 0 48 12
v-88q-27 -11 -51 -15t-59 -4q-68 0 -105.5 28z" />
    <glyph glyph-name="itilde" unicode="&#x129;" horiz-adv-x="309" 
d="M179 539q-13 7 -31 21q-14 11 -24.5 17t-21.5 6q-14 0 -25.5 -10t-24.5 -31l-29 78q14 50 34.5 68t39.5 18q17 0 31 -7.5t32 -21.5q16 -12 25.5 -17.5t20.5 -5.5q13 0 23 6.5t31 30.5l26 -84q-16 -44 -37.5 -59.5t-40.5 -15.5q-16 0 -29 7zM57 497h196v-497h-196v497z
" />
    <glyph glyph-name="jcircumflex" unicode="&#x135;" horiz-adv-x="311" 
d="M14 593l142 112l143 -112l-72 -66l-71 58l-70 -57zM28.5 -193.5q-18.5 2.5 -40.5 8.5v137q18 -3 32 -3q19 0 28.5 10.5t9.5 34.5v503h196v-509q0 -92 -46.5 -138t-134.5 -46q-26 0 -44.5 2.5z" />
    <glyph glyph-name="uni0237" unicode="&#x237;" horiz-adv-x="311" 
d="M28.5 -193.5q-18.5 2.5 -40.5 8.5v137q18 -3 32 -3q19 0 28.5 10.5t9.5 34.5v503h196v-509q0 -92 -46.5 -138t-134.5 -46q-26 0 -44.5 2.5z" />
    <glyph glyph-name="kcommaaccent" unicode="&#x137;" horiz-adv-x="634" 
d="M388 0l-135 206v-206h-196v700h196v-399l138 196h222l-181 -233l187 -264h-231zM275 -176q38 0 53 11q9 6 12.5 13.5t5.5 20.5q-9 -14 -33 -14q-27 0 -42.5 15.5t-15.5 40.5q0 26 17.5 42t45.5 16q35 0 57 -20.5t22 -57.5q0 -53 -31 -80.5t-91 -28.5v42z" />
    <glyph glyph-name="kgreenlandic" unicode="&#x138;" horiz-adv-x="634" 
d="M388 0l-135 206v-206h-196v497h196v-196l138 196h222l-181 -233l187 -264h-231z" />
    <glyph glyph-name="lacute" unicode="&#x13a;" horiz-adv-x="310" 
d="M26 811l214 91l44 -84l-215 -91zM57 700h196v-700h-196v700z" />
    <glyph glyph-name="lcaron" unicode="&#x13e;" horiz-adv-x="444" 
d="M57 700h196v-700h-196v700zM324 509v42q7 -1 17 -1q33 0 48 18q10 14 10 40q-5 -6 -15.5 -10t-23.5 -4q-24 0 -39.5 17t-15.5 44q0 28 18 45t48 17q37 0 59 -24t22 -69q0 -54 -28.5 -85t-79.5 -31q-13 0 -20 1z" />
    <glyph glyph-name="lcommaaccent" unicode="&#x13c;" horiz-adv-x="310" 
d="M57 700h196v-700h-196v700zM111 -176q38 0 53 11q9 6 12.5 13.5t5.5 20.5q-9 -14 -33 -14q-27 0 -42.5 15.5t-15.5 40.5q0 26 17.5 42t45.5 16q35 0 57 -20.5t22 -57.5q0 -53 -31 -80.5t-91 -28.5v42z" />
    <glyph glyph-name="ldot" unicode="&#x140;" horiz-adv-x="509" 
d="M57 700h196v-700h-196v700zM309.917 283.565q-32.7305 32.7305 -32.7305 79.0986t32.7305 78.6445q32.7305 32.2754 80.0078 32.2754q48.1865 0 80.917 -32.2754q32.7305 -32.2764 32.7305 -78.6445t-32.7305 -79.0986t-80.917 -32.7305q-47.2773 0 -80.0078 32.7305z
" />
    <glyph glyph-name="lslash" unicode="&#x142;" horiz-adv-x="310" 
d="M309 403l-57 -32v-371h-196v262l-55 -31v100l55 31v338h196v-230l57 32v-99z" />
    <glyph glyph-name="nacute" unicode="&#x144;" horiz-adv-x="647" 
d="M57 497h196v-73q19 43 60.5 65t100.5 22q182 0 182 -208v-303h-200v253q0 48 -16.5 71t-52.5 23q-74 0 -74 -98v-249h-196v497zM155 626l295 90l30 -96l-293 -91z" />
    <glyph glyph-name="napostrophe" unicode="&#x149;" horiz-adv-x="671" 
d="M81 497h196v-73q19 43 60.5 65t100.5 22q182 0 182 -208v-303h-200v253q0 48 -16.5 71t-52.5 23q-74 0 -74 -98v-249h-196v497zM31 509v42q7 -1 17 -1q33 0 48 18q10 14 10 40q-5 -6 -15.5 -10t-23.5 -4q-24 0 -39.5 17t-15.5 44q0 28 18 45t48 17q37 0 59 -24t22 -69
q0 -54 -28.5 -85t-79.5 -31q-13 0 -20 1z" />
    <glyph glyph-name="ncaron" unicode="&#x148;" horiz-adv-x="647" 
d="M57 497h196v-73q19 43 60.5 65t100.5 22q182 0 182 -208v-303h-200v253q0 48 -16.5 71t-52.5 23q-74 0 -74 -98v-249h-196v497zM161 652l72 65l87 -70l88 71l72 -66l-160 -123z" />
    <glyph glyph-name="ncommaaccent" unicode="&#x146;" horiz-adv-x="647" 
d="M57 497h196v-73q19 43 60.5 65t100.5 22q182 0 182 -208v-303h-200v253q0 48 -16.5 71t-52.5 23q-74 0 -74 -98v-249h-196v497zM278 -176q38 0 53 11q9 6 12.5 13.5t5.5 20.5q-9 -14 -33 -14q-27 0 -42.5 15.5t-15.5 40.5q0 26 17.5 42t45.5 16q35 0 57 -20.5t22 -57.5
q0 -53 -31 -80.5t-91 -28.5v42z" />
    <glyph glyph-name="ntilde" unicode="&#xf1;" horiz-adv-x="647" 
d="M57 497h196v-73q19 43 60.5 65t100.5 22q182 0 182 -208v-303h-200v253q0 48 -16.5 71t-52.5 23q-74 0 -74 -98v-249h-196v497zM360 544q-17 7 -41 21q-18 12 -31.5 17.5t-28.5 5.5q-42 0 -80 -35l-37 81q49 61 106 61q23 0 40 -7t41 -21q18 -12 31.5 -17.5t28.5 -5.5
q42 0 80 35l37 -81q-49 -61 -106 -61q-23 0 -40 7z" />
    <glyph glyph-name="eng" unicode="&#x14b;" horiz-adv-x="647" 
d="M596 303v-335q0 -82 -51.5 -123t-149.5 -41q-43 0 -75 13v123q7 -1 14.5 -2.5t16.5 -1.5q45 0 45 42v275q0 48 -16.5 71t-52.5 23q-74 0 -74 -98v-249h-196v497h196v-73q19 43 60.5 65t100.5 22q182 0 182 -208z" />
    <glyph glyph-name="oacute" unicode="&#xf3;" horiz-adv-x="609" 
d="M151.5 16.5q-65.5 33.5 -101 94t-35.5 138.5t35.5 138.5t101 94t152.5 33.5t153 -33.5t101.5 -94t35.5 -138.5t-35.5 -138.5t-101.5 -94t-153 -33.5t-152.5 33.5zM372 173q25 29 25 76t-25 76t-68 29q-42 0 -67.5 -29.5t-25.5 -75.5t25.5 -75.5t67.5 -29.5q43 0 68 29z
M137 626l295 90l30 -96l-293 -91z" />
    <glyph glyph-name="obreve" unicode="&#x14f;" horiz-adv-x="609" 
d="M151.5 16.5q-65.5 33.5 -101 94t-35.5 138.5t35.5 138.5t101 94t152.5 33.5t153 -33.5t101.5 -94t35.5 -138.5t-35.5 -138.5t-101.5 -94t-153 -33.5t-152.5 33.5zM372 173q25 29 25 76t-25 76t-68 29q-42 0 -67.5 -29.5t-25.5 -75.5t25.5 -75.5t67.5 -29.5q43 0 68 29z
M166 577q-49 40 -52 112h132q3 -55 58 -55q54 0 57 55h133q-4 -71 -55 -111.5t-135 -40.5q-89 0 -138 40z" />
    <glyph glyph-name="ocircumflex" unicode="&#xf4;" horiz-adv-x="609" 
d="M151.5 16.5q-65.5 33.5 -101 94t-35.5 138.5t35.5 138.5t101 94t152.5 33.5t153 -33.5t101.5 -94t35.5 -138.5t-35.5 -138.5t-101.5 -94t-153 -33.5t-152.5 33.5zM372 173q25 29 25 76t-25 76t-68 29q-42 0 -67.5 -29.5t-25.5 -75.5t25.5 -75.5t67.5 -29.5q43 0 68 29z
M462 595l-72 -66l-88 71l-87 -70l-72 65l159 123z" />
    <glyph glyph-name="odieresis" unicode="&#xf6;" horiz-adv-x="609" 
d="M151.5 16.5q-65.5 33.5 -101 94t-35.5 138.5t35.5 138.5t101 94t152.5 33.5t153 -33.5t101.5 -94t35.5 -138.5t-35.5 -138.5t-101.5 -94t-153 -33.5t-152.5 33.5zM372 173q25 29 25 76t-25 76t-68 29q-42 0 -67.5 -29.5t-25.5 -75.5t25.5 -75.5t67.5 -29.5q43 0 68 29z
M118 568.5q-28 27.5 -28 66.5t28 67t68 28q41 0 69 -28t28 -67t-28 -66.5t-69 -27.5q-40 0 -68 27.5zM353.5 568.5q-27.5 27.5 -27.5 66.5t27.5 67t68.5 28t68.5 -28t27.5 -67t-27.5 -66.5t-68.5 -27.5t-68.5 27.5z" />
    <glyph glyph-name="oe" unicode="&#x153;" horiz-adv-x="979" 
d="M151.5 16.5q-65.5 33.5 -101 94t-35.5 138.5t35.5 138.5t101 94t152.5 33.5t153 -33.5t101.5 -94t35.5 -138.5t-35.5 -138.5t-101.5 -94t-153 -33.5t-152.5 33.5zM372 173q25 29 25 76t-25 76t-68 29q-42 0 -67.5 -29.5t-25.5 -75.5t25.5 -75.5t67.5 -29.5q43 0 68 29z
M959 201h-366q2 -39 27.5 -61t67.5 -22q63 0 78 37h190q-13 -79 -86 -125.5t-182 -46.5q-136 0 -213.5 69.5t-77.5 195.5q0 82 35.5 142.5t100.5 92.5t151 32q82 0 145.5 -30.5t99 -85.5t35.5 -125q0 -37 -5 -73zM768 309q-1 41 -23 64t-63 23q-40 0 -63.5 -24t-25.5 -63
h175z" />
    <glyph glyph-name="ograve" unicode="&#xf2;" horiz-adv-x="609" 
d="M151.5 16.5q-65.5 33.5 -101 94t-35.5 138.5t35.5 138.5t101 94t152.5 33.5t153 -33.5t101.5 -94t35.5 -138.5t-35.5 -138.5t-101.5 -94t-153 -33.5t-152.5 33.5zM372 173q25 29 25 76t-25 76t-68 29q-42 0 -67.5 -29.5t-25.5 -75.5t25.5 -75.5t67.5 -29.5q43 0 68 29z
M134 617l30 96l295 -90l-32 -97z" />
    <glyph glyph-name="ohungarumlaut" unicode="&#x151;" horiz-adv-x="609" 
d="M151.5 16.5q-65.5 33.5 -101 94t-35.5 138.5t35.5 138.5t101 94t152.5 33.5t153 -33.5t101.5 -94t35.5 -138.5t-35.5 -138.5t-101.5 -94t-153 -33.5t-152.5 33.5zM372 173q25 29 25 76t-25 76t-68 29q-42 0 -67.5 -29.5t-25.5 -75.5t25.5 -75.5t67.5 -29.5q43 0 68 29z
M144 560l127 154l95 -60l-156 -128zM339 560l127 154l95 -60l-156 -128z" />
    <glyph glyph-name="omacron" unicode="&#x14d;" horiz-adv-x="609" 
d="M151.5 16.5q-65.5 33.5 -101 94t-35.5 138.5t35.5 138.5t101 94t152.5 33.5t153 -33.5t101.5 -94t35.5 -138.5t-35.5 -138.5t-101.5 -94t-153 -33.5t-152.5 33.5zM372 173q25 29 25 76t-25 76t-68 29q-42 0 -67.5 -29.5t-25.5 -75.5t25.5 -75.5t67.5 -29.5q43 0 68 29z
M122 674h364v-103h-364v103z" />
    <glyph glyph-name="ordfeminine" unicode="&#xaa;" horiz-adv-x="417" 
d="M60 434.5q-38 41.5 -38 108.5q0 66 38 108t99 42q35 0 60 -14t37 -37v43h120v-284h-120v42q-11 -22 -36.5 -36t-60.5 -14q-61 0 -99 41.5zM244.5 504q15.5 15 15.5 39t-15.5 38.5t-41.5 14.5q-25 0 -40 -15t-15 -38q0 -24 15 -39t40 -15q26 0 41.5 15z" />
    <glyph glyph-name="ordmasculine" unicode="&#xba;" horiz-adv-x="394" 
d="M68.5 433q-48.5 42 -48.5 111q0 68 48.5 110.5t128.5 42.5t128.5 -42.5t48.5 -110.5q0 -69 -48.5 -111t-128.5 -42t-128.5 42zM238 504q15 15 15 40q0 24 -15 38.5t-41 14.5t-41.5 -14.5t-15.5 -38.5q0 -25 15.5 -40t41.5 -15t41 15z" />
    <glyph glyph-name="oslash" unicode="&#xf8;" horiz-adv-x="609" 
d="M555 393q39 -62 39 -144q0 -78 -35.5 -138.5t-101.5 -94t-153 -33.5q-41 0 -81 8l-28 -63l-53 24l26 57q-72 31 -112.5 94t-40.5 146q0 78 35.5 138.5t101 94t152.5 33.5q49 0 86 -10l30 67l53 -24l-27 -61q70 -32 109 -94zM240 170l82 183q-6 1 -18 1q-42 0 -67.5 -29.5
t-25.5 -75.5q0 -50 29 -79zM372 173q25 29 25 76q0 45 -24 75l-81 -179q4 -1 12 -1q43 0 68 29z" />
    <glyph glyph-name="oslashacute" unicode="&#x1ff;" horiz-adv-x="609" 
d="M555 393q39 -62 39 -144q0 -78 -35.5 -138.5t-101.5 -94t-153 -33.5q-41 0 -81 8l-28 -63l-53 24l26 57q-72 31 -112.5 94t-40.5 146q0 78 35.5 138.5t101 94t152.5 33.5q49 0 86 -10l30 67l53 -24l-27 -61q70 -32 109 -94zM240 170l82 183q-6 1 -18 1q-42 0 -67.5 -29.5
t-25.5 -75.5q0 -50 29 -79zM372 173q25 29 25 76q0 45 -24 75l-81 -179q4 -1 12 -1q43 0 68 29zM137 626l295 90l30 -96l-293 -91z" />
    <glyph glyph-name="otilde" unicode="&#xf5;" horiz-adv-x="609" 
d="M151.5 16.5q-65.5 33.5 -101 94t-35.5 138.5t35.5 138.5t101 94t152.5 33.5t153 -33.5t101.5 -94t35.5 -138.5t-35.5 -138.5t-101.5 -94t-153 -33.5t-152.5 33.5zM372 173q25 29 25 76t-25 76t-68 29q-42 0 -67.5 -29.5t-25.5 -75.5t25.5 -75.5t67.5 -29.5q43 0 68 29z
M342 544q-17 7 -41 21q-18 12 -31.5 17.5t-28.5 5.5q-42 0 -80 -35l-37 81q49 61 106 61q23 0 40 -7t41 -21q18 -12 31.5 -17.5t28.5 -5.5q42 0 80 35l37 -81q-49 -61 -106 -61q-23 0 -40 7z" />
    <glyph glyph-name="racute" unicode="&#x155;" horiz-adv-x="449" 
d="M57 497h196v-111q13 57 52 89t91 32q19 0 37 -3v-185q-25 4 -50 4q-61 0 -95.5 -34.5t-34.5 -121.5v-167h-196v497zM50 626l295 90l30 -96l-293 -91z" />
    <glyph glyph-name="rcaron" unicode="&#x159;" horiz-adv-x="449" 
d="M57 497h196v-111q13 57 52 89t91 32q19 0 37 -3v-185q-25 4 -50 4q-61 0 -95.5 -34.5t-34.5 -121.5v-167h-196v497zM56 652l72 65l87 -70l88 71l72 -66l-160 -123z" />
    <glyph glyph-name="rcommaaccent" unicode="&#x157;" horiz-adv-x="449" 
d="M57 497h196v-111q13 57 52 89t91 32q19 0 37 -3v-185q-25 4 -50 4q-61 0 -95.5 -34.5t-34.5 -121.5v-167h-196v497zM111 -176q38 0 53 11q9 6 12.5 13.5t5.5 20.5q-9 -14 -33 -14q-27 0 -42.5 15.5t-15.5 40.5q0 26 17.5 42t45.5 16q35 0 57 -20.5t22 -57.5
q0 -53 -31 -80.5t-91 -28.5v42z" />
    <glyph glyph-name="sacute" unicode="&#x15b;" horiz-adv-x="541" 
d="M140.5 3.5q-57.5 20.5 -88 58t-30.5 86.5h195q0 -21 17 -34t45 -13q20 0 32.5 9.5t12.5 25.5q0 25 -34 33l-118 27q-68 15 -104.5 53.5t-36.5 96.5q0 78 62.5 123.5t170.5 45.5q120 0 183 -40.5t63 -115.5h-193q0 21 -14 32t-39 11q-19 0 -31 -8t-12 -22q0 -27 42 -38
l117 -30q68 -17 103 -51.5t35 -91.5q0 -82 -65 -130t-175 -48q-80 0 -137.5 20.5zM102 626l295 90l30 -96l-293 -91z" />
    <glyph glyph-name="scaron" unicode="&#x161;" horiz-adv-x="541" 
d="M140.5 3.5q-57.5 20.5 -88 58t-30.5 86.5h195q0 -21 17 -34t45 -13q20 0 32.5 9.5t12.5 25.5q0 25 -34 33l-118 27q-68 15 -104.5 53.5t-36.5 96.5q0 78 62.5 123.5t170.5 45.5q120 0 183 -40.5t63 -115.5h-193q0 21 -14 32t-39 11q-19 0 -31 -8t-12 -22q0 -27 42 -38
l117 -30q68 -17 103 -51.5t35 -91.5q0 -82 -65 -130t-175 -48q-80 0 -137.5 20.5zM108 652l72 65l87 -70l88 71l72 -66l-160 -123z" />
    <glyph glyph-name="scedilla" unicode="&#x15f;" horiz-adv-x="541" 
d="M140.5 3.5q-57.5 20.5 -88 58t-30.5 86.5h195q0 -21 17 -34t45 -13q20 0 32.5 9.5t12.5 25.5q0 25 -34 33l-118 27q-68 15 -104.5 53.5t-36.5 96.5q0 78 62.5 123.5t170.5 45.5q120 0 183 -40.5t63 -115.5h-193q0 21 -14 32t-39 11q-19 0 -31 -8t-12 -22q0 -27 42 -38
l117 -30q68 -17 103 -51.5t35 -91.5q0 -82 -65 -130t-175 -48q-80 0 -137.5 20.5zM260 -187.5q-28 19.5 -31 51.5h72q1 -8 9 -13.5t19 -5.5q14 0 22 9t8 25q0 15 -7.5 22.5t-20.5 7.5q-20 0 -26 -13h-66v110h72v-65q14 12 43 12q35 0 56.5 -22t21.5 -55q0 -34 -27 -58.5
t-74 -24.5q-43 0 -71 19.5z" />
    <glyph glyph-name="scircumflex" unicode="&#x15d;" horiz-adv-x="541" 
d="M140.5 3.5q-57.5 20.5 -88 58t-30.5 86.5h195q0 -21 17 -34t45 -13q20 0 32.5 9.5t12.5 25.5q0 25 -34 33l-118 27q-68 15 -104.5 53.5t-36.5 96.5q0 78 62.5 123.5t170.5 45.5q120 0 183 -40.5t63 -115.5h-193q0 21 -14 32t-39 11q-19 0 -31 -8t-12 -22q0 -27 42 -38
l117 -30q68 -17 103 -51.5t35 -91.5q0 -82 -65 -130t-175 -48q-80 0 -137.5 20.5zM427 595l-72 -66l-88 71l-87 -70l-72 65l159 123z" />
    <glyph glyph-name="scommaaccent" unicode="&#x219;" horiz-adv-x="541" 
d="M140.5 3.5q-57.5 20.5 -88 58t-30.5 86.5h195q0 -21 17 -34t45 -13q20 0 32.5 9.5t12.5 25.5q0 25 -34 33l-118 27q-68 15 -104.5 53.5t-36.5 96.5q0 78 62.5 123.5t170.5 45.5q120 0 183 -40.5t63 -115.5h-193q0 21 -14 32t-39 11q-19 0 -31 -8t-12 -22q0 -27 42 -38
l117 -30q68 -17 103 -51.5t35 -91.5q0 -82 -65 -130t-175 -48q-80 0 -137.5 20.5zM231 -176q38 0 53 11q9 6 12.5 13.5t5.5 20.5q-9 -14 -33 -14q-27 0 -42.5 15.5t-15.5 40.5q0 26 17.5 42t45.5 16q35 0 57 -20.5t22 -57.5q0 -53 -31 -80.5t-91 -28.5v42z" />
    <glyph glyph-name="tbar" unicode="&#x167;" horiz-adv-x="434" 
d="M414 149v-149q-56 -10 -122 -10q-85 0 -138.5 39t-53.5 150v47h-85v61h85v60h-73v150h73v145h196v-145h113v-150h-113v-60h101v-61h-101v-6q0 -43 18.5 -59t49.5 -16q18 0 50 4z" />
    <glyph glyph-name="tcaron" unicode="&#x165;" horiz-adv-x="443" 
d="M402 149v-149q-56 -10 -122 -10q-85 0 -138.5 39t-53.5 150v168h-73v150h73v145h196v-145h113v-150h-113v-127q0 -43 18.5 -59t49.5 -16q18 0 50 4zM335.885 520.689v40.6543q6.77637 -0.967773 16.4561 -0.967773q31.9424 0 46.4619 17.4229
q9.67871 13.5518 9.67871 38.7188q-4.83887 -5.80762 -15.0029 -9.67969q-10.1631 -3.87207 -22.7471 -3.87207q-23.2305 0 -38.2344 16.4561q-15.0029 16.4551 -15.0029 42.5898q0 27.1025 17.4229 43.5576q17.4238 16.4551 46.4619 16.4551q35.8145 0 57.1094 -23.2305
q21.2949 -23.2314 21.2949 -66.7891q0 -52.2695 -27.5859 -82.2764q-27.5869 -30.0068 -76.9531 -30.0068q-12.583 0 -19.3594 0.967773z" />
    <glyph glyph-name="uni0163" unicode="&#x163;" horiz-adv-x="422" 
d="M402 149v-149q-56 -10 -122 -10q-85 0 -138.5 39t-53.5 150v168h-73v150h73v145h196v-145h113v-150h-113v-127q0 -43 18.5 -59t49.5 -16q18 0 50 4zM247 -187.5q-28 19.5 -31 51.5h72q1 -8 9 -13.5t19 -5.5q14 0 22 9t8 25q0 15 -7.5 22.5t-20.5 7.5q-20 0 -26 -13h-66
v110h72v-65q14 12 43 12q35 0 56.5 -22t21.5 -55q0 -34 -27 -58.5t-74 -24.5q-43 0 -71 19.5z" />
    <glyph glyph-name="uni021B" unicode="&#x21b;" horiz-adv-x="422" 
d="M402 149v-149q-56 -10 -122 -10q-85 0 -138.5 39t-53.5 150v168h-73v150h73v145h196v-145h113v-150h-113v-127q0 -43 18.5 -59t49.5 -16q18 0 50 4zM218 -176q38 0 53 11q9 6 12.5 13.5t5.5 20.5q-9 -14 -33 -14q-27 0 -42.5 15.5t-15.5 40.5q0 26 17.5 42t45.5 16
q35 0 57 -20.5t22 -57.5q0 -53 -31 -80.5t-91 -28.5v42z" />
    <glyph glyph-name="thorn" unicode="&#xfe;" horiz-adv-x="655" 
d="M57 700h196v-277q17 38 59.5 63t99.5 25q65 0 115 -32.5t78.5 -92.5t28.5 -138q0 -77 -28.5 -136.5t-80 -92.5t-116.5 -33q-56 0 -97.5 25.5t-58.5 62.5v-264h-196v890zM405 172q26 30 26 76q0 47 -26 76t-67 29t-67 -29t-26 -76t26 -76.5t67 -29.5t67 30z" />
    <glyph glyph-name="uacute" unicode="&#xfa;" horiz-adv-x="642" 
d="M96.5 41q-44.5 55 -44.5 153v303h199v-260q0 -87 67 -87q71 0 71 93v254h197v-497h-197v74q-18 -41 -57.5 -64.5t-96.5 -23.5q-94 0 -138.5 55zM156 626l295 90l30 -96l-293 -91z" />
    <glyph glyph-name="ubreve" unicode="&#x16d;" horiz-adv-x="642" 
d="M96.5 41q-44.5 55 -44.5 153v303h199v-260q0 -87 67 -87q71 0 71 93v254h197v-497h-197v74q-18 -41 -57.5 -64.5t-96.5 -23.5q-94 0 -138.5 55zM185 577q-49 40 -52 112h132q3 -55 58 -55q54 0 57 55h133q-4 -71 -55 -111.5t-135 -40.5q-89 0 -138 40z" />
    <glyph glyph-name="ucircumflex" unicode="&#xfb;" horiz-adv-x="642" 
d="M96.5 41q-44.5 55 -44.5 153v303h199v-260q0 -87 67 -87q71 0 71 93v254h197v-497h-197v74q-18 -41 -57.5 -64.5t-96.5 -23.5q-94 0 -138.5 55zM481 595l-72 -66l-88 71l-87 -70l-72 65l159 123z" />
    <glyph glyph-name="udieresis" unicode="&#xfc;" horiz-adv-x="642" 
d="M96.5 41q-44.5 55 -44.5 153v303h199v-260q0 -87 67 -87q71 0 71 93v254h197v-497h-197v74q-18 -41 -57.5 -64.5t-96.5 -23.5q-94 0 -138.5 55zM137 568.5q-28 27.5 -28 66.5t28 67t68 28q41 0 69 -28t28 -67t-28 -66.5t-69 -27.5q-40 0 -68 27.5zM372.5 568.5
q-27.5 27.5 -27.5 66.5t27.5 67t68.5 28t68.5 -28t27.5 -67t-27.5 -66.5t-68.5 -27.5t-68.5 27.5z" />
    <glyph glyph-name="ugrave" unicode="&#xf9;" horiz-adv-x="642" 
d="M96.5 41q-44.5 55 -44.5 153v303h199v-260q0 -87 67 -87q71 0 71 93v254h197v-497h-197v74q-18 -41 -57.5 -64.5t-96.5 -23.5q-94 0 -138.5 55zM153 617l30 96l295 -90l-32 -97z" />
    <glyph glyph-name="uhungarumlaut" unicode="&#x171;" horiz-adv-x="642" 
d="M96.5 41q-44.5 55 -44.5 153v303h199v-260q0 -87 67 -87q71 0 71 93v254h197v-497h-197v74q-18 -41 -57.5 -64.5t-96.5 -23.5q-94 0 -138.5 55zM163 560l127 154l95 -60l-156 -128zM358 560l127 154l95 -60l-156 -128z" />
    <glyph glyph-name="umacron" unicode="&#x16b;" horiz-adv-x="642" 
d="M96.5 41q-44.5 55 -44.5 153v303h199v-260q0 -87 67 -87q71 0 71 93v254h197v-497h-197v74q-18 -41 -57.5 -64.5t-96.5 -23.5q-94 0 -138.5 55zM141 674h364v-103h-364v103z" />
    <glyph glyph-name="uogonek" unicode="&#x173;" horiz-adv-x="642" 
d="M96.5 41q-44.5 55 -44.5 153v303h199v-260q0 -87 67 -87q71 0 71 93v254h197v-497h-197v74q-18 -41 -57.5 -64.5t-96.5 -23.5q-94 0 -138.5 55zM367.5 -173q-37.5 28 -37.5 71q0 65 66 102h190q-55 -2 -77.5 -20t-22.5 -42q0 -19 13.5 -31.5t35.5 -12.5q25 0 48 12v-88
q-27 -11 -51 -15t-59 -4q-68 0 -105.5 28z" />
    <glyph glyph-name="uring" unicode="&#x16f;" horiz-adv-x="642" 
d="M96.5 41q-44.5 55 -44.5 153v303h199v-260q0 -87 67 -87q71 0 71 93v254h197v-497h-197v74q-18 -41 -57.5 -64.5t-96.5 -23.5q-94 0 -138.5 55zM240.5 557q-32.5 30 -32.5 78t32.5 78t82.5 30t82.5 -30t32.5 -78t-32.5 -78t-82.5 -30t-82.5 30zM356 598.5
q13 14.5 13 36.5t-13 36t-33 14t-33 -14t-13 -36t13 -36.5t33 -14.5t33 14.5z" />
    <glyph glyph-name="utilde" unicode="&#x169;" horiz-adv-x="642" 
d="M96.5 41q-44.5 55 -44.5 153v303h199v-260q0 -87 67 -87q71 0 71 93v254h197v-497h-197v74q-18 -41 -57.5 -64.5t-96.5 -23.5q-94 0 -138.5 55zM361 544q-17 7 -41 21q-18 12 -31.5 17.5t-28.5 5.5q-42 0 -80 -35l-37 81q49 61 106 61q23 0 40 -7t41 -21
q18 -12 31.5 -17.5t28.5 -5.5q42 0 80 35l37 -81q-49 -61 -106 -61q-23 0 -40 7z" />
    <glyph glyph-name="wacute" unicode="&#x1e83;" horiz-adv-x="861" 
d="M2 497h199l77 -275l63 275h179l63 -275l77 275h200l-176 -497h-181l-72 255l-73 -255h-181zM264 626l295 90l30 -96l-293 -91z" />
    <glyph glyph-name="wcircumflex" unicode="&#x175;" horiz-adv-x="861" 
d="M2 497h199l77 -275l63 275h179l63 -275l77 275h200l-176 -497h-181l-72 255l-73 -255h-181zM589 595l-72 -66l-88 71l-87 -70l-72 65l159 123z" />
    <glyph glyph-name="wdieresis" unicode="&#x1e85;" horiz-adv-x="861" 
d="M2 497h199l77 -275l63 275h179l63 -275l77 275h200l-176 -497h-181l-72 255l-73 -255h-181zM245 568.5q-28 27.5 -28 66.5t28 67t68 28q41 0 69 -28t28 -67t-28 -66.5t-69 -27.5q-40 0 -68 27.5zM480.5 568.5q-27.5 27.5 -27.5 66.5t27.5 67t68.5 28t68.5 -28t27.5 -67
t-27.5 -66.5t-68.5 -27.5t-68.5 27.5z" />
    <glyph glyph-name="wgrave" unicode="&#x1e81;" horiz-adv-x="861" 
d="M2 497h199l77 -275l63 275h179l63 -275l77 275h200l-176 -497h-181l-72 255l-73 -255h-181zM261 617l30 96l295 -90l-32 -97z" />
    <glyph glyph-name="yacute" unicode="&#xfd;" horiz-adv-x="644" 
d="M587 497v-464q0 -61 -20.5 -108t-54.5 -76q-37 -30 -82 -43t-114 -13q-71 0 -118 12t-80 39q-29 24 -47.5 59.5t-18.5 72.5h196q2 -24 18.5 -37.5t49.5 -13.5q75 0 75 80v91q-20 -40 -60 -62.5t-95 -22.5q-184 0 -184 212v274h196v-251q0 -43 16 -65t52 -22q75 0 75 103
v235h196zM148 626l295 90l30 -96l-293 -91z" />
    <glyph glyph-name="ycircumflex" unicode="&#x177;" horiz-adv-x="644" 
d="M587 497v-464q0 -61 -20.5 -108t-54.5 -76q-37 -30 -82 -43t-114 -13q-71 0 -118 12t-80 39q-29 24 -47.5 59.5t-18.5 72.5h196q2 -24 18.5 -37.5t49.5 -13.5q75 0 75 80v91q-20 -40 -60 -62.5t-95 -22.5q-184 0 -184 212v274h196v-251q0 -43 16 -65t52 -22q75 0 75 103
v235h196zM473 595l-72 -66l-88 71l-87 -70l-72 65l159 123z" />
    <glyph glyph-name="ydieresis" unicode="&#xff;" horiz-adv-x="644" 
d="M587 497v-464q0 -61 -20.5 -108t-54.5 -76q-37 -30 -82 -43t-114 -13q-71 0 -118 12t-80 39q-29 24 -47.5 59.5t-18.5 72.5h196q2 -24 18.5 -37.5t49.5 -13.5q75 0 75 80v91q-20 -40 -60 -62.5t-95 -22.5q-184 0 -184 212v274h196v-251q0 -43 16 -65t52 -22q75 0 75 103
v235h196zM129 568.5q-28 27.5 -28 66.5t28 67t68 28q41 0 69 -28t28 -67t-28 -66.5t-69 -27.5q-40 0 -68 27.5zM364.5 568.5q-27.5 27.5 -27.5 66.5t27.5 67t68.5 28t68.5 -28t27.5 -67t-27.5 -66.5t-68.5 -27.5t-68.5 27.5z" />
    <glyph glyph-name="ygrave" unicode="&#x1ef3;" horiz-adv-x="644" 
d="M587 497v-464q0 -61 -20.5 -108t-54.5 -76q-37 -30 -82 -43t-114 -13q-71 0 -118 12t-80 39q-29 24 -47.5 59.5t-18.5 72.5h196q2 -24 18.5 -37.5t49.5 -13.5q75 0 75 80v91q-20 -40 -60 -62.5t-95 -22.5q-184 0 -184 212v274h196v-251q0 -43 16 -65t52 -22q75 0 75 103
v235h196zM145 617l30 96l295 -90l-32 -97z" />
    <glyph glyph-name="zacute" unicode="&#x17a;" horiz-adv-x="516" 
d="M226 337h-197v160h482l-214 -337h194v-160h-486zM91 626l295 90l30 -96l-293 -91z" />
    <glyph glyph-name="zcaron" unicode="&#x17e;" horiz-adv-x="516" 
d="M226 337h-197v160h482l-214 -337h194v-160h-486zM97 652l72 65l87 -70l88 71l72 -66l-160 -123z" />
    <glyph glyph-name="zdotaccent" unicode="&#x17c;" horiz-adv-x="516" 
d="M226 337h-197v160h482l-214 -337h194v-160h-486zM183 568q-30 29 -30 73t30 73t75 29t74.5 -29t29.5 -73t-29.5 -73t-74.5 -29t-75 29z" />
    <glyph glyph-name="germandbls" unicode="&#xdf;" 
d="M331 -10.5q-22 3.5 -52 10.5v140q23 -6 50 -6q37 0 59.5 21.5t22.5 58.5q0 35 -24 60t-65 25h-40v131h35q44 0 67.5 22.5t23.5 56.5q0 35 -21 55t-57 20q-39 0 -59.5 -23.5t-20.5 -64.5v-496h-197v460q0 113 65 186t218 73q124 0 194.5 -51.5t70.5 -140.5
q0 -62 -39 -106.5t-102 -53.5q43 -3 79 -29.5t57 -68t21 -87.5q0 -60 -30 -104.5t-83.5 -68t-121.5 -23.5q-29 0 -51 3.5z" />
    <glyph glyph-name="ampersand" unicode="&#x26;" horiz-adv-x="644" 
d="M641 231h-34q-2 -70 -35 -127t-97 -90t-155 -33q-84 0 -151.5 23.5t-106.5 70.5t-39 114q0 66 40.5 112.5t97.5 60.5q-53 13 -89 53.5t-36 103.5q0 62 37 107.5t99 69t136 23.5q154 0 219 -64.5t65 -164.5h-210q0 90 -72 90q-29 0 -48.5 -18.5t-19.5 -49.5
q0 -33 18.5 -54t56.5 -21h20v-143h-17q-37 0 -55.5 -22.5t-18.5 -57.5q0 -33 20.5 -55.5t56.5 -22.5q35 0 57 23t24 72h-39v146h276v-146z" />
    <glyph glyph-name="grave" unicode="`" horiz-adv-x="600" 
d="M20 617l30 96l295 -90l-32 -97z" />
    <glyph glyph-name="acute" unicode="&#xb4;" horiz-adv-x="600" 
d="M53 626l295 90l30 -96l-293 -91z" />
    <glyph glyph-name="circumflex" unicode="&#x2c6;" horiz-adv-x="600" 
d="M393 595l-72 -66l-88 71l-87 -70l-72 65l159 123z" />
    <glyph glyph-name="tilde" unicode="&#x2dc;" horiz-adv-x="600" 
d="M273 544q-17 7 -41 21q-18 12 -31.5 17.5t-28.5 5.5q-42 0 -80 -35l-37 81q49 61 106 61q23 0 40 -7t41 -21q18 -12 31.5 -17.5t28.5 -5.5q42 0 80 35l37 -81q-49 -61 -106 -61q-23 0 -40 7z" />
    <glyph glyph-name="caron" unicode="&#x2c7;" horiz-adv-x="600" 
d="M74 652l72 65l87 -70l88 71l72 -66l-160 -123z" />
    <glyph glyph-name="dieresis" unicode="&#xa8;" horiz-adv-x="600" 
d="M80 568.5q-28 27.5 -28 66.5t28 67t68 28q41 0 69 -28t28 -67t-28 -66.5t-69 -27.5q-40 0 -68 27.5zM315.5 568.5q-27.5 27.5 -27.5 66.5t27.5 67t68.5 28t68.5 -28t27.5 -67t-27.5 -66.5t-68.5 -27.5t-68.5 27.5z" />
    <glyph glyph-name="macron" unicode="&#xaf;" horiz-adv-x="600" 
d="M47 674h364v-103h-364v103z" />
    <glyph glyph-name="breve" unicode="&#x2d8;" horiz-adv-x="600" 
d="M115 577q-49 40 -52 112h132q3 -55 58 -55q54 0 57 55h133q-4 -71 -55 -111.5t-135 -40.5q-89 0 -138 40z" />
    <glyph glyph-name="ring" unicode="&#x2da;" horiz-adv-x="600" 
d="M72.5 474q-32.5 30 -32.5 78t32.5 78t82.5 30t82.5 -30t32.5 -78t-32.5 -78t-82.5 -30t-82.5 30zM188 515.5q13 14.5 13 36.5t-13 36t-33 14t-33 -14t-13 -36t13 -36.5t33 -14.5t33 14.5z" />
    <glyph glyph-name="hungarumlaut" unicode="&#x2dd;" horiz-adv-x="600" 
d="M43 560l127 154l95 -60l-156 -128zM238 560l127 154l95 -60l-156 -128z" />
    <glyph glyph-name="dotaccent" unicode="&#x2d9;" horiz-adv-x="600" 
d="M225 568q-30 29 -30 73t30 73t75 29t74.5 -29t29.5 -73t-29.5 -73t-74.5 -29t-75 29z" />
    <glyph glyph-name="cedilla" unicode="&#xb8;" horiz-adv-x="600" 
d="M76 -187.5q-28 19.5 -31 51.5h72q1 -8 9 -13.5t19 -5.5q14 0 22 9t8 25q0 15 -7.5 22.5t-20.5 7.5q-20 0 -26 -13h-66v110h72v-65q14 12 43 12q35 0 56.5 -22t21.5 -55q0 -34 -27 -58.5t-74 -24.5q-43 0 -71 19.5z" />
    <glyph glyph-name="ogonek" unicode="&#x2db;" horiz-adv-x="600" 
d="M77.5 -173q-37.5 28 -37.5 71q0 65 66 102h190q-55 -2 -77.5 -20t-22.5 -42q0 -19 13.5 -31.5t35.5 -12.5q25 0 48 12v-88q-27 -11 -51 -15t-59 -4q-68 0 -105.5 28z" />
    <glyph glyph-name="comma" unicode="," horiz-adv-x="342" 
d="M51 -156v69q24 -3 44 -3q53 0 81 30q27 27 30 66q-7 -8 -21 -12.5t-30 -4.5q-50 0 -79 32t-29 79t32.5 79t82.5 32q56 0 93 -42.5t37 -117.5q0 -104 -53.5 -157.5t-150.5 -53.5q-15 0 -37 4z" />
    <glyph glyph-name="semicolon" unicode=";" horiz-adv-x="342" 
d="M51 -156v69q24 -3 44 -3q53 0 81 30q27 27 30 66q-7 -8 -21 -12.5t-30 -4.5q-50 0 -79 32t-29 79t32.5 79t82.5 32q56 0 93 -42.5t37 -117.5q0 -104 -53.5 -157.5t-150.5 -53.5q-15 0 -37 4zM86 325.5q-33 33.5 -33 79.5t33 79t82 33q48 0 81 -33t33 -79t-33 -79.5
t-81 -33.5q-49 0 -82 33.5z" />
    <glyph glyph-name="colon" unicode=":" horiz-adv-x="335" 
d="M86 20.5q-33 33.5 -33 79.5t33 79t82 33q48 0 81 -33t33 -79t-33 -79.5t-81 -33.5q-49 0 -82 33.5zM86 325.5q-33 33.5 -33 79.5t33 79t82 33q48 0 81 -33t33 -79t-33 -79.5t-81 -33.5q-49 0 -82 33.5z" />
    <glyph glyph-name="period" unicode="." horiz-adv-x="335" 
d="M86 20.5q-33 33.5 -33 79.5t33 79t82 33q48 0 81 -33t33 -79t-33 -79.5t-81 -33.5q-49 0 -82 33.5z" />
    <glyph glyph-name="ellipsis" unicode="&#x2026;" horiz-adv-x="929" 
d="M86 16.5q-33 33.5 -33 79.5t33 79t82 33q48 0 81 -33t33 -79t-33 -79.5t-81 -33.5q-49 0 -82 33.5zM381 16.5q-33 33.5 -33 79.5t33 79t82 33q48 0 81 -33t33 -79t-33 -79.5t-81 -33.5q-49 0 -82 33.5zM680 16.5q-33 33.5 -33 79.5t33 79t82 33q48 0 81 -33t33 -79
t-33 -79.5t-81 -33.5q-49 0 -82 33.5z" />
    <glyph glyph-name="hyphen" unicode="-" horiz-adv-x="406" 
d="M40 364h326v-148h-326v148z" />
    <glyph glyph-name="exclam" unicode="!" horiz-adv-x="337" 
d="M65 700h207v-435h-207v435zM80.5 24.5q-35.5 35.5 -35.5 86.5q0 50 35.5 85.5t87.5 35.5t88 -35.5t36 -85.5q0 -51 -36 -86.5t-88 -35.5t-87.5 35.5z" />
    <glyph glyph-name="exclamdown" unicode="&#xa1;" horiz-adv-x="337" 
d="M65 -190h207v435h-207v-435zM80.5 485.5q-35.5 -35.5 -35.5 -86.5q0 -50 35.5 -85.5t87.5 -35.5t88 35.5t36 85.5q0 51 -36 86.5t-88 35.5t-87.5 -35.5z" />
    <glyph glyph-name="question" unicode="?" horiz-adv-x="541" 
d="M159 276q0 50 17 80.5t63 56.5l48 28q25 16 36.5 32.5t11.5 41.5q0 28 -17 44.5t-46 16.5q-36 0 -57.5 -21t-21.5 -65h-205q0 60 29.5 112t94 84.5t164.5 32.5q116 0 190.5 -48.5t74.5 -145.5q0 -59 -27 -98.5t-69 -69.5l-44 -30q-20 -14 -28 -25t-8 -26v-10h-206v10z
M174.5 24.5q-35.5 35.5 -35.5 86.5q0 50 35.5 85.5t86.5 35.5q53 0 88.5 -35.5t35.5 -85.5q0 -51 -35.5 -86.5t-88.5 -35.5q-51 0 -86.5 35.5z" />
    <glyph glyph-name="questiondown" unicode="&#xbf;" horiz-adv-x="541" 
d="M382 273q0 -50 -17 -80.5t-63 -56.5l-48 -28q-25 -16 -36.5 -32.5t-11.5 -41.5q0 -28 17 -44.5t46 -16.5q36 0 57.5 21t21.5 65h205q0 -60 -29.5 -112t-94 -84.5t-164.5 -32.5q-116 0 -190.5 48.5t-74.5 145.5q0 59 27 98.5t69 69.5l44 30q20 14 28 25t8 26v10h206v-10z
M366.5 524.5q35.5 -35.5 35.5 -86.5q0 -50 -35.5 -85.5t-86.5 -35.5q-53 0 -88.5 35.5t-35.5 85.5q0 51 35.5 86.5t88.5 35.5q51 0 86.5 -35.5z" />
    <glyph glyph-name="quoteleft" unicode="&#x2018;" horiz-adv-x="306" 
d="M80 437q-33 39 -33 109q0 95 48 144t136 49q3 0 33 -3v-63q-14 2 -38 2q-46 0 -75 -27q-23 -23 -28 -61q7 7 20 11.5t27 4.5q45 0 71.5 -29.5t26.5 -73.5q0 -43 -29.5 -72.5t-74.5 -29.5q-51 0 -84 39z" />
    <glyph glyph-name="quoteright" unicode="&#x2019;" horiz-adv-x="306" 
d="M226 684q33 -39 33 -109q0 -95 -48 -144t-136 -49q-3 0 -33 3v63q14 -2 38 -2q46 0 75 27q23 23 28 61q-7 -7 -20 -11.5t-27 -4.5q-45 0 -71.5 29.5t-26.5 73.5q0 43 29.5 72.5t74.5 29.5q51 0 84 -39z" />
    <glyph glyph-name="quotedblleft" unicode="&#x201c;" horiz-adv-x="550" 
d="M80 437q-33 39 -33 109q0 95 48 144t136 49q3 0 33 -3v-63q-14 2 -38 2q-46 0 -75 -27q-23 -23 -28 -61q7 7 20 11.5t27 4.5q45 0 71.5 -29.5t26.5 -73.5q0 -43 -29.5 -72.5t-74.5 -29.5q-51 0 -84 39zM324 437q-33 39 -33 109q0 95 48 144t136 49q3 0 33 -3v-63
q-14 2 -38 2q-46 0 -75 -27q-23 -23 -28 -61q7 7 20 11.5t27 4.5q45 0 71.5 -29.5t26.5 -73.5q0 -43 -29.5 -72.5t-74.5 -29.5q-51 0 -84 39z" />
    <glyph glyph-name="quotedblright" unicode="&#x201d;" horiz-adv-x="550" 
d="M470 684q33 -39 33 -109q0 -95 -48 -144t-136 -49q-3 0 -33 3v63q14 -2 38 -2q46 0 75 27q23 23 28 61q-7 -7 -20 -11.5t-27 -4.5q-45 0 -71.5 29.5t-26.5 73.5q0 43 29.5 72.5t74.5 29.5q51 0 84 -39zM226 684q33 -39 33 -109q0 -95 -48 -144t-136 -49q-3 0 -33 3v63
q14 -2 38 -2q46 0 75 27q23 23 28 61q-7 -7 -20 -11.5t-27 -4.5q-45 0 -71.5 29.5t-26.5 73.5q0 43 29.5 72.5t74.5 29.5q51 0 84 -39z" />
    <glyph glyph-name="quotesinglbase" unicode="&#x201a;" horiz-adv-x="306" 
d="M226 124q33 -39 33 -109q0 -95 -48 -144t-136 -49q-3 0 -33 3v63q14 -2 38 -2q46 0 75 27q23 23 28 61q-7 -7 -20 -11.5t-27 -4.5q-45 0 -71.5 29.5t-26.5 73.5q0 43 29.5 72.5t74.5 29.5q51 0 84 -39z" />
    <glyph glyph-name="quotedblbase" unicode="&#x201e;" horiz-adv-x="550" 
d="M470 124q33 -39 33 -109q0 -95 -48 -144t-136 -49q-3 0 -33 3v63q14 -2 38 -2q46 0 75 27q23 23 28 61q-7 -7 -20 -11.5t-27 -4.5q-45 0 -71.5 29.5t-26.5 73.5q0 43 29.5 72.5t74.5 29.5q51 0 84 -39zM226 124q33 -39 33 -109q0 -95 -48 -144t-136 -49q-3 0 -33 3v63
q14 -2 38 -2q46 0 75 27q23 23 28 61q-7 -7 -20 -11.5t-27 -4.5q-45 0 -71.5 29.5t-26.5 73.5q0 43 29.5 72.5t74.5 29.5q51 0 84 -39z" />
    <glyph glyph-name="guilsinglleft" unicode="&#x2039;" horiz-adv-x="325" 
d="M2 278l227 218l86 -95l-132 -123l132 -124l-86 -94z" />
    <glyph glyph-name="guilsinglright" unicode="&#x203a;" horiz-adv-x="325" 
d="M323 278l-227 218l-86 -95l132 -123l-132 -124l86 -94z" />
    <glyph glyph-name="slash" unicode="/" horiz-adv-x="494" 
d="M10 -14l331 769l143 -61l-331 -769z" />
    <glyph glyph-name="bar" unicode="|" horiz-adv-x="259" 
d="M62 733h136v-926h-136v926z" />
    <glyph glyph-name="endash" unicode="&#x2013;" horiz-adv-x="628" 
d="M40 352h548v-118h-548v118z" />
    <glyph glyph-name="emdash" unicode="&#x2014;" horiz-adv-x="810" 
d="M40 352h730v-118h-730v118z" />
    <glyph glyph-name="bullet" unicode="&#x2022;" horiz-adv-x="380" 
d="M112 181.5q-35 20.5 -55 55t-20 75.5t20 75.5t55 54.5t77 20q43 0 78.5 -20t55.5 -54.5t20 -75.5t-20 -75.5t-55.5 -55t-78.5 -20.5q-42 0 -77 20.5z" />
    <glyph glyph-name="parenleft" unicode="(" horiz-adv-x="378" 
d="M97.5 3q-60.5 114 -60.5 269q0 154 60.5 268t168.5 214l124 -105q-92 -91 -133 -174.5t-41 -202.5t41 -203t133 -175l-124 -105q-108 100 -168.5 214z" />
    <glyph glyph-name="parenright" unicode=")" horiz-adv-x="378" 
d="M280.5 3q60.5 114 60.5 269q0 154 -60.5 268t-168.5 214l-124 -105q92 -91 133 -174.5t41 -202.5t-41 -203t-133 -175l124 -105q108 100 168.5 214z" />
    <glyph glyph-name="bracketleft" unicode="[" horiz-adv-x="354" 
d="M62 733h280v-156h-114v-614h114v-156h-280v926z" />
    <glyph glyph-name="bracketright" unicode="]" horiz-adv-x="354" 
d="M292 733h-280v-156h114v-614h-114v-156h280v926z" />
    <glyph glyph-name="asterisk" unicode="*" horiz-adv-x="453" 
d="M55 377l85 110l-127 36l36 104l130 -50l-8 140h112l-8 -140l129 50l36 -104l-126 -36l84 -110l-91 -65l-80 126l-81 -126z" />
    <glyph glyph-name="dagger" unicode="&#x2020;" horiz-adv-x="470" 
d="M165 330h-115v125h115v262h140v-262h115v-125h-115v-511h-140v511z" />
    <glyph glyph-name="asciitilde" unicode="~" horiz-adv-x="635" 
d="M390.5 188.5q-30.5 8.5 -67.5 24.5q-80 35 -146 35q-59 0 -127 -55v146q28 31 63.5 45t69.5 14q29 0 63 -8.5t78 -23.5l26 -9q73 -27 104 -27q63 0 131 55v-146q-28 -31 -63.5 -45t-69.5 -14q-31 0 -61.5 8.5z" />
    <glyph glyph-name="brokenbar" unicode="&#xa6;" horiz-adv-x="259" 
d="M62 735h136v-412h-136v412zM62 224h136v-417h-136v417z" />
    <glyph glyph-name="backslash" unicode="\" horiz-adv-x="494" 
d="M484 -14l-331 769l-143 -61l331 -769z" />
    <glyph glyph-name="underscore" unicode="_" horiz-adv-x="533" 
d="M0 -82h533v-108h-533v108z" />
    <glyph glyph-name="quotesingle" unicode="'" horiz-adv-x="285" 
d="M235 527l-60 -196h-65l-60 196q-13 33 -13 62q0 45 30 76.5t75 31.5t75.5 -31.5t30.5 -76.5q0 -25 -13 -62z" />
    <glyph glyph-name="quotedbl" unicode="&#x22;" horiz-adv-x="520" 
d="M235 527l-60 -196h-65l-60 196q-13 33 -13 62q0 45 30 76.5t75 31.5t75.5 -31.5t30.5 -76.5q0 -25 -13 -62zM470 527l-60 -196h-65l-60 196q-13 33 -13 62q0 45 30 76.5t75 31.5t75.5 -31.5t30.5 -76.5q0 -25 -13 -62z" />
    <glyph glyph-name="at" unicode="@" horiz-adv-x="923" 
d="M231.5 -131q-104.5 57 -159 155.5t-54.5 222.5q0 128 58 225t161 150t236 53q126 0 223.5 -46.5t152.5 -136.5t55 -215q0 -134 -60 -201.5t-158 -67.5q-65 0 -107.5 27.5t-57.5 81.5q-13 -28 -47.5 -49.5t-81.5 -21.5q-50 0 -92 26t-66 71.5t-24 101.5q0 58 25 103.5
t67 71.5t91 26q44 0 77 -20.5t46 -47.5v59h142v-247q0 -77 50 -77q35 0 55.5 37t20.5 113q0 151 -83 227.5t-231 76.5q-102 0 -175.5 -38t-113 -109.5t-39.5 -170.5q0 -95 37.5 -168.5t113.5 -115t189 -41.5q55 0 116 12t112 40l50 -98q-63 -35 -136.5 -50.5t-144.5 -15.5
q-143 0 -247.5 57zM496 187q22 24 22 59q0 34 -22.5 58.5t-56.5 24.5t-56 -24.5t-22 -58.5q0 -35 22 -59t56 -24q35 0 57 24z" />
    <glyph glyph-name="copyright" unicode="&#xa9;" horiz-adv-x="795" 
d="M196.5 27q-86.5 49 -132.5 134t-46 189t46 189t132.5 134t201.5 49t201 -49t132 -134t46 -189t-46 -189t-132 -134t-201 -49t-201.5 49zM541 108q61 35 94 98t33 144t-33 144t-94 98t-143 35t-143.5 -35t-94 -98t-32.5 -144t32.5 -144t94 -98t143.5 -35t143 35z
M293.5 183.5q-45.5 26.5 -69.5 70.5t-24 96t24 96t69.5 70.5t106.5 26.5q55 0 96 -21t64 -56.5t26 -79.5h-112q-5 25 -24 41t-51 16q-40 0 -63 -26.5t-23 -66.5t23 -66.5t63 -26.5q32 0 51 16t24 41h112q-3 -44 -26 -79.5t-64 -56.5t-96 -21q-61 0 -106.5 26.5z" />
    <glyph glyph-name="registered" unicode="&#xae;" horiz-adv-x="613" 
d="M153 196.5q-65 37.5 -100 102t-35 143.5t35 143t100 101.5t153 37.5t153 -37.5t100 -101.5t35 -143t-35 -143.5t-100 -102t-153 -37.5t-153 37.5zM414.5 258q46.5 27 71.5 75t25 109t-25 109t-71.5 74.5t-108.5 26.5t-108.5 -26.5t-71.5 -74.5t-25 -109t25 -109t71.5 -75
t108.5 -27t108.5 27zM208 573h123q41 0 67 -27.5t26 -66.5q0 -26 -13 -47t-38 -32l54 -78l-84 1l-45 69h-16l1 -70h-75v251zM316 445q14 0 22.5 10t8.5 24q0 15 -8.5 25t-22.5 10h-33v-69h33z" />
    <glyph glyph-name="trademark" unicode="&#x2122;" horiz-adv-x="874" 
d="M82 593h-77v107h280v-107h-77v-300h-126v300zM320 700h178l70 -251l69 251h175v-407h-122v277l-74 -277h-96l-78 277v-277h-122v407z" />
    <glyph glyph-name="dollar" unicode="$" horiz-adv-x="604" 
d="M524 53q-62 -60 -172 -70v-83h-95v84q-115 12 -177.5 76.5t-62.5 167.5h208q0 -45 23 -70.5t63 -25.5q32 0 49 14.5t17 40.5q0 21 -13 36t-48 26l-137 40q-71 22 -110.5 70.5t-39.5 123.5q0 91 64.5 147t163.5 65v85h95v-86q115 -13 169.5 -73.5t54.5 -143.5h-208
q0 40 -18.5 60t-51.5 20q-27 0 -43.5 -13t-16.5 -37q0 -23 15.5 -39t55.5 -28l131 -42q71 -22 108.5 -70.5t37.5 -123.5q0 -91 -62 -151z" />
    <glyph glyph-name="cent" unicode="&#xa2;" horiz-adv-x="592" 
d="M381 289h196q-9 -89 -70.5 -145.5t-160.5 -66.5v-77h-95v77q-109 14 -172.5 84.5t-63.5 178.5t63.5 178.5t172.5 84.5v77h95v-77q99 -11 160.5 -68t70.5 -145h-196q-13 54 -81 54q-42 0 -65.5 -27.5t-23.5 -76.5t23.5 -76.5t65.5 -27.5q67 0 81 53z" />
    <glyph glyph-name="sterling" unicode="&#xa3;" horiz-adv-x="629" 
d="M281 202q-11 -29 -29 -42h335v-160h-557v132q24 15 39 48.5t15 77.5v37h-56v102h56v66q0 115 71.5 174.5t193.5 59.5q129 0 197.5 -60.5t68.5 -160.5h-209q0 36 -15 53.5t-42 17.5q-57 0 -57 -77v-73h144v-102h-144v-29q0 -35 -11 -64z" />
    <glyph glyph-name="florin" unicode="&#x192;" horiz-adv-x="456" 
d="M366 554q-17 -15 -20 -43l-3 -14h102l-24 -137h-102l-67 -372q-18 -105 -74 -146.5t-148 -41.5q-70 0 -107 14l23 128q19 -6 45 -6q29 0 44.5 13t21.5 43l66 368h-79l24 137h79l3 15q13 95 74 140t153 45q67 0 103 -14l-23 -121q-22 7 -45 7q-29 0 -46 -15z" />
    <glyph glyph-name="yen" unicode="&#xa5;" horiz-adv-x="639" 
d="M423 157h127v-85h-127v-72h-208v72h-126v85h126v49h-126v85h122l-216 389h206l118 -251l119 251h206l-216 -389h121v-85h-126v-49z" />
    <glyph glyph-name="Euro" unicode="&#x20ac;" horiz-adv-x="678" 
d="M436 208h204q-19 -102 -87 -163.5t-190 -61.5q-133 0 -201.5 71t-85.5 191h-63l27 78h30v17v21h-57l27 78h37q18 118 86 188t200 70q126 0 195 -61.5t89 -163.5h-204q-14 72 -78 72q-38 0 -59 -27t-30 -78h148l-26 -78h-128v-21v-17h154l-26 -78h-123q8 -54 28.5 -81.5
t59.5 -27.5q60 0 73 72z" />
    <glyph glyph-name="uni20A9" unicode="&#x20a9;" horiz-adv-x="871" 
d="M771 352l-12 -55h94v-95h-114l-44 -202h-170l-89 429l-89 -429h-170l-44 202h-115v95h95l-12 55h-83v95h62l-50 233h172l71 -457l92 457h141l93 -457l70 457h173l-50 -233h61v-95h-82z" />
    <glyph glyph-name="uni20B4" unicode="&#x20b4;" horiz-adv-x="620" 
d="M430 309h188l-20 -60h-310q-31 -14 -43 -28t-12 -37q0 -27 18.5 -43t51.5 -16q36 0 56.5 16t20.5 45h205q0 -62 -34.5 -107.5t-99 -70.5t-153.5 -25q-80 0 -140 25t-92.5 72t-32.5 109q0 33 9 60h-40l20 60h56q34 38 102 67h-178l20 60h300q30 16 40 33t10 42
q0 23 -15 38t-41 15q-32 0 -49 -14.5t-17 -41.5h-205q0 51 33.5 94.5t96 69t144.5 25.5q120 0 189 -52t69 -141q0 -39 -10 -68h51l-20 -60h-67q-34 -37 -101 -67z" />
    <glyph glyph-name="uni20B8" unicode="&#x20b8;" horiz-adv-x="579" 
d="M5 680h569v-116h-569v116zM185 353h-180v164h569v-164h-180v-353h-209v353z" />
    <glyph glyph-name="uni20AE" unicode="&#x20ae;" horiz-adv-x="579" 
d="M394 502v-85l95 39v-85l-95 -39v-45l95 39v-85l-95 -39v-202h-209v115l-94 -39v85l94 39v45l-94 -39v85l94 39v172h-180v178h569v-178h-180z" />
    <glyph glyph-name="dollar.tf" 
d="M543 53q-62 -60 -172 -70v-83h-95v84q-115 12 -177.5 76.5t-62.5 167.5h208q0 -45 23 -70.5t63 -25.5q32 0 49 14.5t17 40.5q0 21 -13 36t-48 26l-137 40q-71 22 -110.5 70.5t-39.5 123.5q0 91 64.5 147t163.5 65v85h95v-86q115 -13 169.5 -73.5t54.5 -143.5h-208
q0 40 -18.5 60t-51.5 20q-27 0 -43.5 -13t-16.5 -37q0 -23 15.5 -39t55.5 -28l131 -42q71 -22 108.5 -70.5t37.5 -123.5q0 -91 -62 -151z" />
    <glyph glyph-name="cent.tf" 
d="M404 289h196q-9 -89 -70.5 -145.5t-160.5 -66.5v-77h-95v77q-109 14 -172.5 84.5t-63.5 178.5t63.5 178.5t172.5 84.5v77h95v-77q99 -11 160.5 -68t70.5 -145h-196q-13 54 -81 54q-42 0 -65.5 -27.5t-23.5 -76.5t23.5 -76.5t65.5 -27.5q67 0 81 53z" />
    <glyph glyph-name="sterling.tf" 
d="M279 202q-11 -29 -29 -42h335v-160h-557v132q24 15 39 48.5t15 77.5v37h-56v102h56v66q0 115 71.5 174.5t193.5 59.5q129 0 197.5 -60.5t68.5 -160.5h-209q0 36 -15 53.5t-42 17.5q-57 0 -57 -77v-73h144v-102h-144v-29q0 -35 -11 -64z" />
    <glyph glyph-name="florin.tf" 
d="M484 554q-17 -15 -20 -43l-3 -14h102l-24 -137h-102l-67 -372q-18 -105 -74 -146.5t-148 -41.5q-70 0 -107 14l23 128q19 -6 45 -6q29 0 44.5 13t21.5 43l66 368h-79l24 137h79l3 15q13 95 74 140t153 45q67 0 103 -14l-23 -121q-22 7 -45 7q-29 0 -46 -15z" />
    <glyph glyph-name="yen.tf" 
d="M424 157h127v-85h-127v-72h-208v72h-126v85h126v49h-126v85h122l-216 389h206l118 -251l119 251h206l-216 -389h121v-85h-126v-49z" />
    <glyph glyph-name="Euro.tf" 
d="M411 208h208q-19 -102 -84.5 -163.5t-184.5 -61.5q-241 0 -277 262h-60l27 78h27v17v21h-54l27 78h34q17 118 82 188t194 70q123 0 190 -61.5t87 -163.5h-208q-7 36 -23 54t-44 18q-32 0 -50.5 -27t-25.5 -78h132l-26 -78h-112v-21v-17h138l-26 -78h-107q6 -54 24 -81.5
t51 -27.5q48 0 61 72z" />
    <glyph glyph-name="uni20A9.tf" 
d="M583 447h30v-92h-44l-8 -58h52v-92h-66l-31 -205h-159l-38 449l-36 -449h-160l-31 205h-64v92h50l-8 58h-42v92h28l-35 233h154l39 -471l40 471h130l41 -471l40 471h153z" />
    <glyph glyph-name="uni20B4.tf" 
d="M431 309h185v-60h-316q-33 -17 -45 -29.5t-12 -35.5q0 -27 19 -43t52 -16q36 0 56 16t20 45h205q0 -94 -76 -148.5t-209 -54.5q-76 0 -133.5 25t-88.5 72t-31 109q0 31 8 60h-47v60h81q34 38 100 67h-181v60h314q30 16 40 33t10 42q0 23 -14.5 38t-41.5 15
q-32 0 -48.5 -14.5t-16.5 -41.5h-205q0 51 32 94.5t93 69t143 25.5q115 0 182.5 -52t67.5 -141q0 -39 -10 -68h52v-60h-87q-33 -35 -98 -67z" />
    <glyph glyph-name="uni20B8.tf" 
d="M35 680h569v-116h-569v116zM215 353h-180v164h569v-164h-180v-353h-209v353z" />
    <glyph glyph-name="uni20AE.tf" 
d="M424 502v-85l95 39v-85l-95 -39v-45l95 39v-85l-95 -39v-202h-209v115l-94 -39v85l94 39v45l-94 -39v85l94 39v172h-180v178h569v-178h-180z" />
    <glyph glyph-name="currency" unicode="&#xa4;" horiz-adv-x="626" 
d="M39 160l53 53q-52 69 -52 158q0 88 52 157l-53 53l71 71l56 -56q67 40 147 40t147 -40l56 56l71 -71l-53 -53q52 -69 52 -157q0 -89 -52 -158l52 -53l-70 -71l-56 56q-67 -40 -147 -40t-147 40l-56 -56zM380.5 300.5q25.5 27.5 25.5 70.5q0 42 -26 70t-67 28t-67 -28
t-26 -70q0 -43 26 -70.5t67 -27.5q42 0 67.5 27.5z" />
    <glyph glyph-name="fraction" unicode="&#x2044;" horiz-adv-x="186" 
d="M-190 31l472 682l94 -59l-472 -682z" />
    <glyph glyph-name="onequarter" unicode="&#xbc;" horiz-adv-x="950" 
d="M124 505h-86v99q62 0 85 18.5t23 57.5h110v-394h-132v219zM138 31l472 682l94 -59l-472 -682zM908 99h-38v-99h-130v99h-173v295h129v-189h44v92h130v-92h38v-106z" />
    <glyph glyph-name="onehalf" unicode="&#xbd;" horiz-adv-x="917" 
d="M124 505h-86v99q62 0 85 18.5t23 57.5h110v-394h-132v219zM138 31l472 682l94 -59l-472 -682zM548.5 126q25.5 46 83.5 74l72 35q36 16 36 46q0 14 -9 22.5t-24 8.5q-20 0 -31 -12t-11 -35h-133q0 63 47.5 101.5t126.5 38.5t123 -32t44 -88q0 -42 -20 -71t-62 -49
l-60 -29q-16 -9 -25 -16.5t-15 -19.5h175v-100h-343q0 80 25.5 126z" />
    <glyph glyph-name="threequarters" unicode="&#xbe;" horiz-adv-x="1030" 
d="M79 310q-43 35 -43 104h133q0 -41 43 -41q18 0 28 9t10 25q0 36 -46 36h-56v92h57q46 0 46 34q0 15 -10 23t-27 8q-18 0 -29 -9.5t-11 -26.5h-132q0 58 47 92.5t130 34.5q75 0 119.5 -29t44.5 -81q0 -35 -20.5 -58.5t-62.5 -33.5q42 -7 65 -31.5t23 -60.5
q0 -55 -48.5 -88.5t-133.5 -33.5q-84 0 -127 35zM217 31l472 682l94 -59l-472 -682zM987 99h-38v-99h-130v99h-173v295h129v-189h44v92h130v-92h38v-106z" />
    <glyph glyph-name="percent" unicode="%" horiz-adv-x="828" 
d="M138 24l477 686l77 -49l-476 -686zM107.5 372.5q-42.5 23.5 -65 62t-22.5 84.5t22.5 84.5t65 62t98.5 23.5q58 0 101 -23.5t65.5 -62t22.5 -84.5t-22.5 -84.5t-65.5 -62t-101 -23.5q-56 0 -98.5 23.5zM257 467.5q18 20.5 18 51.5q0 32 -18 52t-51 20q-32 0 -50 -20.5
t-18 -51.5t18 -51.5t50 -20.5q33 0 51 20.5zM520.5 15.5q-42.5 23.5 -65 62t-22.5 84.5t22.5 84.5t65 62t98.5 23.5q58 0 101 -23.5t65.5 -62t22.5 -84.5t-22.5 -84.5t-65.5 -62t-101 -23.5q-56 0 -98.5 23.5zM670 110.5q18 20.5 18 51.5q0 32 -18 52t-51 20
q-32 0 -50 -20.5t-18 -51.5t18 -51.5t50 -20.5q33 0 51 20.5z" />
    <glyph glyph-name="perthousand" unicode="&#x2030;" horiz-adv-x="1224" 
d="M138 24l477 686l77 -49l-476 -686zM107.5 372.5q-42.5 23.5 -65 62t-22.5 84.5t22.5 84.5t65 62t98.5 23.5q58 0 101 -23.5t65.5 -62t22.5 -84.5t-22.5 -84.5t-65.5 -62t-101 -23.5q-56 0 -98.5 23.5zM257 467.5q18 20.5 18 51.5q0 32 -18 52t-51 20q-32 0 -50 -20.5
t-18 -51.5t18 -51.5t50 -20.5q33 0 51 20.5zM520.5 15.5q-42.5 23.5 -65 62t-22.5 84.5t22.5 84.5t65 62t98.5 23.5q58 0 101 -23.5t65.5 -62t22.5 -84.5t-22.5 -84.5t-65.5 -62t-101 -23.5q-56 0 -98.5 23.5zM916.5 15.5q-42.5 23.5 -65 62t-22.5 84.5t22.5 84.5t65 62
t98.5 23.5q58 0 101 -23.5t65.5 -62t22.5 -84.5t-22.5 -84.5t-65.5 -62t-101 -23.5q-56 0 -98.5 23.5zM670 110.5q18 20.5 18 51.5q0 32 -18 52t-51 20q-32 0 -50 -20.5t-18 -51.5t18 -51.5t50 -20.5q33 0 51 20.5zM1066 110.5q18 20.5 18 51.5q0 32 -18 52t-51 20
q-32 0 -50 -20.5t-18 -51.5t18 -51.5t50 -20.5q33 0 51 20.5z" />
    <glyph glyph-name="perthousand.tf" 
d="M427 685l-334 -690l-24 13l332 690zM228.5 393q-32.5 -47 -89.5 -47t-90 47t-33 123t33 123t90 47t89.5 -47t32.5 -123t-32.5 -123zM115.5 448q7.5 -21 23.5 -21q30 0 30 89q0 88 -30 88q-15 0 -23 -20.5t-8 -67.5t7.5 -68zM591.5 285q32.5 -47 32.5 -123t-32.5 -123
t-90.5 -47q-45 0 -76 31q-31 -31 -77 -31q-57 0 -89.5 47t-32.5 123t32.5 123t89.5 47q46 0 77 -31q31 31 76 31q58 0 90.5 -47zM371.5 94.5q7.5 20.5 7.5 67.5t-7.5 68t-23.5 21q-30 0 -30 -89q0 -88 30 -88q16 0 23.5 20.5zM524.5 94.5q7.5 20.5 7.5 67.5t-7.5 68
t-23.5 21q-30 0 -30 -89q0 -88 30 -88q16 0 23.5 20.5z" />
    <glyph glyph-name="zero.zero" horiz-adv-x="677" 
d="M566.5 605.5q78.5 -91.5 78.5 -266.5q0 -174 -78.5 -265t-228.5 -91q-149 0 -227.5 91.5t-78.5 264.5q0 175 78.5 266.5t227.5 91.5q150 0 228.5 -91.5zM256.5 490q-25.5 -47 -25.5 -151q0 -87 18 -135l139 321q-21 12 -50 12q-56 0 -81.5 -47zM420 190q26 47 26 149
q0 92 -21 140l-139 -322q20 -14 52 -14q56 0 82 47z" />
    <glyph glyph-name="zero" unicode="0" horiz-adv-x="677" 
d="M110.5 74.5q-78.5 91.5 -78.5 264.5q0 175 78.5 266.5t227.5 91.5q150 0 228.5 -91.5t78.5 -266.5q0 -174 -78.5 -265t-228.5 -91q-149 0 -227.5 91.5zM420 190q26 47 26 149q0 103 -26 150.5t-82 47.5t-81.5 -47t-25.5 -151q0 -103 25.5 -149.5t81.5 -46.5t82 47z" />
    <glyph glyph-name="one" unicode="1" horiz-adv-x="465" 
d="M172 392h-144v159q71 0 109.5 14.5t53.5 42t15 72.5h174v-680h-208v392z" />
    <glyph glyph-name="two" unicode="2" horiz-adv-x="649" 
d="M76 212q43 79 141 127l119 58q34 17 49.5 38.5t15.5 50.5q0 27 -18 44t-46 17q-38 0 -58 -23.5t-20 -68.5h-209q0 72 35.5 127t100 85t150.5 30q130 0 202.5 -54t72.5 -151q0 -140 -138 -208l-103 -50q-32 -17 -48 -33t-25 -40h303v-161h-567q0 133 43 212z" />
    <glyph glyph-name="three" unicode="3" horiz-adv-x="633" 
d="M94 44q-72 61 -72 178h209q0 -40 22 -61.5t61 -21.5q34 0 54 18t20 49q0 35 -22 53t-64 18h-88v147h88q83 0 83 67q0 28 -18.5 44.5t-49.5 16.5q-35 0 -55 -19.5t-20 -53.5h-208q0 65 34.5 114.5t100 76.5t155.5 27q123 0 196.5 -50t73.5 -139q0 -58 -34.5 -99.5
t-101.5 -56.5q67 -13 104 -55.5t37 -105.5q0 -62 -35 -109t-101 -73t-157 -26q-140 0 -212 61z" />
    <glyph glyph-name="four" unicode="4" horiz-adv-x="650" 
d="M617 177h-66v-177h-205v177h-296v503h205v-334h91v164h205v-164h66v-169z" />
    <glyph glyph-name="five" unicode="5" horiz-adv-x="642" 
d="M120 39.5q-73 56.5 -80 160.5h199q3 -29 25.5 -44.5t57.5 -15.5q43 0 67.5 27t24.5 73q0 40 -23.5 66t-62.5 26q-67 0 -89 -54h-180v402h522v-149h-334v-112q47 47 141 47q67 0 118.5 -28.5t79.5 -79.5t28 -117q0 -77 -35.5 -135t-101 -90.5t-152.5 -32.5
q-132 0 -205 56.5z" />
    <glyph glyph-name="six" unicode="6" horiz-adv-x="625" 
d="M541 422.5q61 -70.5 61 -174.5q0 -78 -35.5 -138t-101 -93.5t-152.5 -33.5t-152.5 33.5t-101.5 93.5t-36 138q0 86 44 152l198 280h233l-123 -170q105 -17 166 -87.5zM380.5 173q25.5 29 25.5 75t-25.5 75.5t-67.5 29.5q-43 0 -68 -29t-25 -76q0 -46 25 -75t68 -29
q42 0 67.5 29z" />
    <glyph glyph-name="seven" unicode="7" horiz-adv-x="604" 
d="M306 510h-284v170h582l-323 -680h-233z" />
    <glyph glyph-name="eight" unicode="8" horiz-adv-x="645" 
d="M111 36.5q-78 53.5 -78 150.5q0 62 31 104.5t88 58.5q-45 17 -74 59t-29 97q0 91 74 141t199 50t199 -50t74 -141q0 -55 -29 -97t-74 -59q57 -16 88 -58.5t31 -104.5q0 -97 -78 -150.5t-211 -53.5t-211 53.5zM382 438.5q23 19.5 23 50.5q0 32 -23 51t-60 19t-60 -19.5
t-23 -50.5t23.5 -50.5t59.5 -19.5q37 0 60 19.5zM387 146q25 21 25 54q0 34 -24.5 55t-65.5 21q-39 0 -64.5 -21t-25.5 -55q0 -33 25 -54t65 -21t65 21z" />
    <glyph glyph-name="nine" unicode="9" horiz-adv-x="624" 
d="M83 257.5q-61 70.5 -61 174.5q0 78 35.5 138t101 93.5t152.5 33.5t152.5 -33.5t101.5 -93.5t36 -138q0 -86 -44 -152l-198 -280h-233l123 170q-105 17 -166 87.5zM243.5 507q-25.5 -29 -25.5 -75t25.5 -75.5t67.5 -29.5q43 0 68 29t25 76q0 46 -25 75t-68 29
q-42 0 -67.5 -29z" />
    <glyph glyph-name="zero.tf.zero" 
d="M464 665q63 -32 98.5 -90.5t35.5 -135.5v-201q0 -77 -35.5 -134.5t-98.5 -89t-144 -31.5t-144 31.5t-98.5 89t-35.5 134.5v201q0 77 35.5 135.5t98.5 90.5t144 32t144 -32zM230 238q0 -13 3 -25l133 309q-19 12 -46 12q-39 0 -64.5 -27t-25.5 -68v-201zM410 439
q0 15 -3 27l-134 -308q21 -12 47 -12q39 0 64.5 26t25.5 66v201z" />
    <glyph glyph-name="zero.tf" 
d="M176 14.5q-63 31.5 -98.5 89t-35.5 134.5v201q0 77 35.5 135.5t98.5 90.5t144 32t144 -32t98.5 -90.5t35.5 -135.5v-201q0 -77 -35.5 -134.5t-98.5 -89t-144 -31.5t-144 31.5zM384.5 172q25.5 26 25.5 66v201q0 41 -25.5 68t-64.5 27t-64.5 -27t-25.5 -68v-201
q0 -40 25.5 -66t64.5 -26t64.5 26z" />
    <glyph glyph-name="one.tf" 
d="M607 161v-161h-574v161h190v231h-169v159h30q86 0 125 34t49 95h173v-519h176z" />
    <glyph glyph-name="two.tf" 
d="M77 210.5q41 78.5 137 128.5l113 60q31 16 46.5 37t15.5 50q0 27 -15 44t-41 17q-32 0 -49 -21t-17 -62h-215q0 70 35.5 123t100.5 81.5t151 28.5q125 0 194.5 -54t69.5 -151q0 -71 -33 -123.5t-106 -92.5l-90 -47q-36 -19 -50 -31.5t-21 -36.5h301v-161h-568
q0 132 41 210.5z" />
    <glyph glyph-name="three.tf" 
d="M110.5 41.5q-69.5 58.5 -69.5 173.5h211q0 -36 19.5 -56t54.5 -20q28 0 45 16.5t17 46.5q0 40 -25 57.5t-82 17.5h-65v147h65q56 0 80 17t24 55q0 27 -16.5 41.5t-44.5 14.5q-30 0 -47 -17.5t-17 -48.5h-211q0 98 75.5 154.5t206.5 56.5q121 0 190.5 -50.5t69.5 -139.5
q0 -59 -33.5 -99t-95.5 -56q65 -13 102 -55t37 -105q0 -64 -34.5 -111t-99 -72.5t-150.5 -25.5q-137 0 -206.5 58.5z" />
    <glyph glyph-name="four.tf" 
d="M603 177h-83v-177h-192v177h-291v503h210v-334h81v164h192v-164h83v-169z" />
    <glyph glyph-name="five.tf" 
d="M116.5 38q-70.5 55 -77.5 162h202q4 -29 23.5 -44.5t49.5 -15.5q38 0 59.5 27t21.5 73q0 40 -21 65.5t-56 25.5q-28 0 -47.5 -13.5t-28.5 -39.5h-183v402h518v-149h-333v-112q44 47 138 47q99 0 159 -61.5t60 -166.5q0 -78 -34 -135.5t-97.5 -88.5t-149.5 -31
q-133 0 -203.5 55z" />
    <glyph glyph-name="six.tf" 
d="M545 424q61 -71 61 -176q0 -77 -35.5 -137.5t-100.5 -94t-150 -33.5t-150 33.5t-100.5 94t-35.5 137.5q0 90 47 157l184 275h237l-124 -169q106 -16 167 -87zM382.5 173q23.5 29 23.5 75t-23.5 75.5t-62.5 29.5t-62.5 -29.5t-23.5 -75.5t23.5 -75t62.5 -29t62.5 29z" />
    <glyph glyph-name="seven.tf" 
d="M323 510h-287v170h572l-307 -680h-229z" />
    <glyph glyph-name="eight.tf" 
d="M107.5 36.5q-78.5 53.5 -78.5 150.5q0 62 34 104.5t98 58.5q-55 16 -85 57.5t-30 98.5q0 91 74 141t200 50t200 -50t74 -141q0 -57 -30 -98.5t-86 -57.5q65 -16 99 -58.5t34 -104.5q0 -97 -78.5 -150.5t-212.5 -53.5t-212.5 53.5zM383.5 435q23.5 19 23.5 51t-23.5 51
t-63.5 19t-63.5 -19t-23.5 -51t23.5 -51t63.5 -19t63.5 19zM387.5 147q25.5 21 25.5 55q0 35 -25.5 56t-67.5 21t-67.5 -21t-25.5 -56q0 -34 25.5 -55t67.5 -21t67.5 21z" />
    <glyph glyph-name="nine.tf" 
d="M95 256q-61 71 -61 176q0 77 35.5 137.5t100.5 94t150 33.5t150 -33.5t100.5 -94t35.5 -137.5q0 -90 -47 -157l-184 -275h-237l124 169q-106 16 -167 87zM257.5 507q-23.5 -29 -23.5 -75t23.5 -75.5t62.5 -29.5t62.5 29.5t23.5 75.5t-23.5 75t-62.5 29t-62.5 -29z" />
    <glyph glyph-name="uni03BC" unicode="&#x3bc;" horiz-adv-x="647" 
d="M591 497v-497h-197v74q-16 -36 -46.5 -57t-73.5 -21q-12 0 -21 3v-189h-196v687h199v-260q0 -87 67 -87q71 0 71 93v254h197z" />
    <glyph glyph-name="uni02BC" unicode="&#x2bc;" horiz-adv-x="306" 
d="M234 660q33 -39 33 -109q0 -95 -48 -144t-136 -49q-3 0 -33 3v63q14 -2 38 -2q46 0 75 27q23 23 28 61q-7 -7 -20 -11.5t-27 -4.5q-45 0 -71.5 29.5t-26.5 73.5q0 43 29.5 72.5t74.5 29.5q51 0 84 -39z" />
    <glyph glyph-name="eth" unicode="&#xf0;" horiz-adv-x="609" 
d="M594 249q0 -78 -35.5 -138.5t-101.5 -94t-153 -33.5t-152.5 33.5t-101 94t-35.5 138.5q0 107 61.5 176.5t164.5 84.5l-27 38l-85 -28l-23 64l67 22l-66 94h233l23 -33l88 29l23 -63l-71 -23l143 -204q48 -67 48 -157zM372 173q25 29 25 76t-25 76t-68 29
q-42 0 -67.5 -29.5t-25.5 -75.5t25.5 -75.5t67.5 -29.5q43 0 68 29z" />
    <glyph glyph-name="numbersign" unicode="#" horiz-adv-x="607" 
d="M94 157h-84v131h102l17 124h-89v131h107l22 157h135l-22 -157h103l22 157h134l-22 -157h78v-131h-96l-17 -124h83v-131h-101l-22 -157h-134l21 157h-103l-22 -157h-134zM350 288l17 124h-103l-17 -124h103z" />
    <glyph glyph-name="uni2116" unicode="&#x2116;" horiz-adv-x="1257" 
d="M62 700h210l208 -398v398h200v-700h-210l-208 398v-398h-200v700zM833 183q-53 28 -80.5 76.5t-27.5 106.5q0 59 27.5 107.5t80.5 76.5t127 28q73 0 126.5 -28t81 -76.5t27.5 -107.5q0 -58 -27.5 -106.5t-81 -76.5t-126.5 -28q-74 0 -127 28zM1011 312.5q20 21.5 20 53.5
t-20 53t-51 21q-32 0 -51.5 -21t-19.5 -53t19.5 -53.5t51.5 -21.5q31 0 51 21.5zM725 121h470v-121h-470v121z" />
    <glyph glyph-name="uni0394" unicode="&#x394;" horiz-adv-x="750" 
d="M263 700h218l264 -700h-740zM468 151l-96 339l-97 -339h193z" />
    <glyph glyph-name="uni03A9" unicode="&#x3a9;" horiz-adv-x="700" 
d="M32 151h135v13q-71 38 -110 102t-39 142q0 81 40.5 151t116 111.5t175.5 41.5t175.5 -41.5t116 -111.5t40.5 -151q0 -78 -39.5 -143t-109.5 -102v-12h135v-151h-295v255q48 11 74 48t26 89q0 57 -32.5 94.5t-90.5 37.5t-90.5 -37.5t-32.5 -94.5q0 -51 26 -88t74 -48v-256
h-295v151z" />
    <glyph glyph-name="pi" unicode="&#x3c0;" horiz-adv-x="699" 
d="M113 365h-56v132h585v-132h-57v-365h-196v365h-79v-365h-197v365z" />
    <glyph glyph-name="periodcentered" unicode="&#xb7;" horiz-adv-x="356" 
d="M89 225q-36 36 -36 87t36 86.5t88 35.5q53 0 89 -35.5t36 -86.5t-36 -87t-89 -36q-52 0 -88 36z" />
    <glyph glyph-name="braceleft" unicode="{" horiz-adv-x="398" 
d="M144.5 -138.5q-49.5 47.5 -49.5 132.5v108q0 39 -23 57.5t-59 18.5v180q36 0 59 18.5t23 57.5v119q0 85 49.5 132.5t137.5 47.5h107v-153h-45q-42 0 -62 -25.5t-20 -61.5v-109q0 -59 -30 -86t-63 -30q33 -3 63 -30t30 -86v-97q0 -37 20 -62.5t62 -25.5h45v-153h-107
q-88 0 -137.5 47.5z" />
    <glyph glyph-name="braceright" unicode="}" horiz-adv-x="398" 
d="M253.5 -138.5q49.5 47.5 49.5 132.5v108q0 39 23 57.5t59 18.5v180q-36 0 -59 18.5t-23 57.5v119q0 85 -49.5 132.5t-137.5 47.5h-107v-153h45q42 0 62 -25.5t20 -61.5v-109q0 -59 30 -86t63 -30q-33 -3 -63 -30t-30 -86v-97q0 -37 -20 -62.5t-62 -25.5h-45v-153h107
q88 0 137.5 47.5z" />
    <glyph glyph-name="uni00AD" unicode="&#xad;" horiz-adv-x="406" 
d="M40 364h326v-148h-326v148z" />
    <glyph glyph-name="guillemotleft" unicode="&#xab;" horiz-adv-x="587" 
d="M2 278l227 218l86 -95l-132 -123l132 -124l-86 -94zM264 278l227 218l86 -95l-132 -123l132 -124l-86 -94z" />
    <glyph glyph-name="guillemotright" unicode="&#xbb;" horiz-adv-x="587" 
d="M585 278l-227 218l-86 -95l132 -123l-132 -124l86 -94zM323 278l-227 218l-86 -95l132 -123l-132 -124l86 -94z" />
    <glyph glyph-name="plus" unicode="+" horiz-adv-x="565" 
d="M204 243h-164v149h164v161h157v-161h164v-149h-164v-161h-157v161z" />
    <glyph glyph-name="minus" unicode="&#x2212;" horiz-adv-x="565" 
d="M40 392h485v-149h-485v149z" />
    <glyph glyph-name="plusminus" unicode="&#xb1;" horiz-adv-x="565" 
d="M203 377h-163v148h163v92h159v-92h163v-148h-163v-91h-159v91zM40 241h485v-148h-485v148z" />
    <glyph glyph-name="multiply" unicode="&#xd7;" horiz-adv-x="568" 
d="M389 318l138 -139l-104 -105l-139 139l-139 -139l-105 105l139 139l-139 138l105 105l139 -139l139 139l105 -104z" />
    <glyph glyph-name="divide" unicode="&#xf7;" horiz-adv-x="565" 
d="M212 439q-29 29 -29 71q0 41 29 70t71 29t71 -29t29 -70q0 -42 -29 -71t-71 -29t-71 29zM40 387h485v-148h-485v148zM212 50q-29 29 -29 70t29 69.5t71 28.5t71 -28.5t29 -69.5t-28.5 -70t-71.5 -29q-42 0 -71 29z" />
    <glyph glyph-name="equal" unicode="=" horiz-adv-x="572" 
d="M40 507h492v-148h-492v148zM40 282h492v-148h-492v148z" />
    <glyph glyph-name="less" unicode="&#x3c;" horiz-adv-x="549" 
d="M40 232v164l469 179v-174l-245 -87l245 -87v-174z" />
    <glyph glyph-name="greater" unicode="&#x3e;" horiz-adv-x="549" 
d="M509 232v164l-469 179v-174l245 -87l-245 -87v-174z" />
    <glyph glyph-name="degree" unicode="&#xb0;" horiz-adv-x="399" 
d="M105.5 350.5q-42.5 24.5 -67.5 66.5t-25 92q0 51 25 93t67.5 66.5t93.5 24.5q52 0 94.5 -24.5t67.5 -66.5t25 -93q0 -50 -25 -92t-67.5 -66.5t-94.5 -24.5q-51 0 -93.5 24.5zM249 456.5q19 19.5 19 52.5q0 34 -19 53.5t-50 19.5q-30 0 -49.5 -19.5t-19.5 -53.5
q0 -33 19.5 -52.5t49.5 -19.5q31 0 50 19.5z" />
    <glyph glyph-name="approxequal" unicode="&#x2248;" horiz-adv-x="571" 
d="M352 329q-25 8 -62 24q-41 18 -68.5 26.5t-63.5 8.5q-52 0 -118 -55v147q26 31 59.5 45t64.5 14q26 0 57.5 -9.5t78.5 -27.5q42 -16 66 -23.5t43 -7.5q59 0 122 55v-147q-25 -30 -58 -44t-65 -14q-31 0 -56 8zM350.5 112.5q-26.5 8.5 -60.5 24.5q-41 18 -68.5 26.5
t-63.5 8.5q-54 0 -117 -55v146q25 30 58 44t65 14q27 0 59 -9.5t77 -27.5q46 -17 68.5 -23.5t40.5 -6.5q59 0 122 55v-146q-25 -31 -58.5 -45t-64.5 -14t-57.5 8.5z" />
    <glyph glyph-name="greaterequal" unicode="&#x2265;" horiz-adv-x="567" 
d="M41 343l259 46l-259 47v141l483 -120v-136l-483 -119v141zM41 170h486v-128h-486v128z" />
    <glyph glyph-name="infinity" unicode="&#x221e;" horiz-adv-x="930" 
d="M156.5 93.5q-52.5 31.5 -79.5 83t-27 112.5t27 112.5t79.5 83t126.5 31.5q102 0 182 -105q79 105 182 105q73 0 126 -31t80 -82.5t27 -113.5t-27 -113.5t-80 -82.5t-126 -31q-103 0 -182 104q-81 -104 -182 -104q-74 0 -126.5 31.5zM342.5 230.5q30.5 20.5 52.5 58.5
q-22 38 -52.5 58.5t-56.5 20.5q-37 0 -58 -23t-21 -56t21 -56t58 -23q26 0 56.5 20.5zM702 233q21 23 21 56t-21 56t-58 23q-27 0 -57.5 -20t-51.5 -59q21 -39 51.5 -59t57.5 -20q37 0 58 23z" />
    <glyph glyph-name="lessequal" unicode="&#x2264;" horiz-adv-x="567" 
d="M526 343l-259 46l259 47v141l-483 -120v-136l483 -119v141zM526 170h-486v-128h486v128z" />
    <glyph glyph-name="logicalnot" unicode="&#xac;" horiz-adv-x="565" 
d="M373 343h-333v148h485v-340h-152v192z" />
    <glyph glyph-name="notequal" unicode="&#x2260;" horiz-adv-x="572" 
d="M370 359l-33 -77h195v-148h-259l-43 -100h-128l43 100h-105v148h168l34 77h-202v148h265l37 86h129l-37 -86h98v-148h-162z" />
    <glyph glyph-name="integral" unicode="&#x222b;" horiz-adv-x="469" 
d="M103.5 -200q-35.5 4 -53.5 10v136q21 -4 41 -4q23 0 34 11.5t11 36.5v628q0 102 41 139t120 37q33 0 68.5 -4t53.5 -10v-136q-23 4 -41 4q-24 0 -35 -11.5t-11 -36.5v-628q0 -102 -41 -139t-119 -37q-33 0 -68.5 4z" />
    <glyph glyph-name="partialdiff" unicode="&#x2202;" horiz-adv-x="675" 
d="M547.5 637.5q77.5 -81.5 77.5 -290.5q0 -200 -75.5 -284t-223.5 -84q-129 0 -202.5 60t-73.5 173q0 78 34.5 133.5t91.5 84t124 28.5q59 0 115 -27q-3 60 -10.5 91.5t-23 44t-43.5 12.5q-76 0 -76 -83h-208q0 58 28 108.5t91 82.5t163 32q134 0 211.5 -81.5zM393.5 169
q18.5 36 21.5 117q-36 22 -71 22q-41 0 -64 -27t-23 -68q0 -35 17.5 -57.5t55.5 -22.5q45 0 63.5 36z" />
    <glyph glyph-name="product" unicode="&#x220f;" horiz-adv-x="852" 
d="M120 615h-70v179h752v-179h-70v-805h-208v805h-195v-805h-209v805z" />
    <glyph glyph-name="radical" unicode="&#x221a;" horiz-adv-x="989" 
d="M194 152h-144v176h297l88 -297l273 763h231l-395 -984h-218z" />
    <glyph glyph-name="summation" unicode="&#x2211;" horiz-adv-x="687" 
d="M50 -14l333 324l-333 310v174h587v-179h-333l312 -295l-312 -329h333v-179h-587v174z" />
    <glyph glyph-name="lozenge" unicode="&#x25ca;" horiz-adv-x="727" 
d="M50 396l190 398h246l191 -398l-189 -396h-248zM462 396l-99 212l-98 -212l99 -212z" />
    <glyph glyph-name="paragraph" unicode="&#xb6;" horiz-adv-x="737" 
d="M282 267q-65 0 -118 28.5t-83.5 79.5t-30.5 116q0 70 35 121.5t91 78t117 26.5h394v-123h-58v-765h-138v764h-71v-764h-138v438z" />
    <glyph glyph-name="section" unicode="&#xa7;" horiz-adv-x="641" 
d="M561 177.5q-26 -32.5 -80 -56.5q84 -54 84 -146q0 -86 -69.5 -135t-185.5 -49q-126 0 -193 53t-67 146h161q0 -42 24.5 -64t74.5 -22q44 0 68 17.5t24 47.5q0 26 -18.5 44t-45 29.5t-76.5 29.5q-66 22 -107.5 42.5t-71 56.5t-29.5 92q0 45 26 77.5t80 56.5
q-84 51 -84 143q0 55 31.5 96t89.5 63.5t133 22.5q127 0 194 -53t67 -146h-160q0 42 -25 64t-75 22q-45 0 -68.5 -16.5t-23.5 -46.5q0 -36 34.5 -57t105.5 -45q65 -22 107 -42t71.5 -56t29.5 -91q0 -45 -26 -77.5zM225 237q19 -18 47 -30.5t78 -29.5l20 -7q65 27 65 69
q0 25 -18 42.5t-44.5 29.5t-74.5 28q-20 6 -30 10q-62 -25 -62 -69q0 -25 19 -43z" />
    <glyph glyph-name="asciicircum" unicode="^" horiz-adv-x="630" 
d="M267 700h98l215 -430h-172l-92 228l-95 -228h-171z" />
    <glyph glyph-name="daggerdbl" unicode="&#x2021;" horiz-adv-x="470" 
d="M165 0h-115v125h115v248h-115v124h115v220h140v-220h115v-124h-115v-248h115v-125h-115v-181h-140v181z" />
    <glyph glyph-name="uni0243" unicode="&#x243;" horiz-adv-x="661" 
d="M583.5 57q-54.5 -50 -147.5 -56v-101h-95v100h-62v-100h-95v100h-122v679h122v101h95v-101h62v101h95v-102q89 -8 140 -54.5t51 -119.5q0 -64 -36.5 -106t-98.5 -53q66 -7 106 -49.5t40 -108.5q0 -80 -54.5 -130zM397 528.5q-22 18.5 -61 18.5h-66v-140h66q38 0 60.5 19
t22.5 52q0 32 -22 50.5zM403.5 164.5q22.5 19.5 22.5 52.5q0 32 -23 51t-61 19h-72v-142h71q40 0 62.5 19.5z" />
    <glyph glyph-name="uni00A40301" horiz-adv-x="620" 
d="M342 813l226 86l39 -86l-226 -86zM135.5 16.5q-63.5 35.5 -94.5 97t-31 141.5h208q0 -47 19 -73.5t56 -26.5q38 0 56.5 25t18.5 68v452h209v-432q0 -145 -74.5 -216t-209.5 -71q-94 0 -157.5 35.5z" />
    <glyph glyph-name="uni0243.case" horiz-adv-x="661" 
d="M583.5 58.5q-54.5 -51.5 -147.5 -57.5v-104h-95v103h-62v-103h-95v103h-122v700h122v104h95v-104h62v104h95v-105q89 -8 140 -56t51 -124q0 -66 -36.5 -109.5t-98.5 -53.5q66 -8 106 -51t40 -112q0 -83 -54.5 -134.5zM397 546.5q-22 19.5 -61 19.5h-66v-148h66
q38 0 60.5 20t22.5 55q0 34 -22 53.5zM403.5 166q22.5 21 22.5 56q0 34 -23 54.5t-61 20.5h-72v-152h71q40 0 62.5 21z" />
    <glyph glyph-name="uni0243.tf" 
d="M541 56.5q-47 -49.5 -135 -55.5v-101h-95v100h-62v-100h-95v100h-102v679h102v101h95v-101h62v101h95v-102q82 -8 126.5 -54t44.5 -120q0 -64 -36.5 -106t-98.5 -53q66 -7 106 -49.5t40 -108.5q0 -81 -47 -130.5zM367 528.5q-22 18.5 -61 18.5h-66v-140h66q38 0 60.5 19
t22.5 52q0 32 -22 50.5zM373.5 164.5q22.5 19.5 22.5 52.5q0 32 -23 51t-61 19h-72v-142h71q40 0 62.5 19.5z" />
    <glyph glyph-name="uni0243.tf.tf.case" 
d="M541 58q-47 -51 -135 -57v-104h-95v103h-62v-103h-95v103h-102v700h102v104h95v-104h62v104h95v-105q83 -8 127 -55.5t44 -124.5q0 -66 -36.5 -109.5t-98.5 -53.5q66 -8 106 -51t40 -112q0 -84 -47 -135zM367 546.5q-22 19.5 -61 19.5h-66v-148h66q38 0 60.5 20t22.5 55
q0 34 -22 53.5zM373.5 166q22.5 21 22.5 56q0 34 -23 54.5t-61 20.5h-72v-152h71q40 0 62.5 21z" />
    <glyph glyph-name="Y.ss02" horiz-adv-x="689" 
d="M241 246l-249 454h234l119 -258l118 258h235l-249 -454v-246h-208v246z" />
    <glyph glyph-name="Yacute.ss02" horiz-adv-x="689" 
d="M214 813l226 86l39 -86l-226 -86zM241 246l-249 454h234l119 -258l118 258h235l-249 -454v-246h-208v246z" />
    <glyph glyph-name="Ycircumflex.ss02" horiz-adv-x="689" 
d="M486 791l-66 -62l-76 60l-77 -60l-66 62l143 104zM241 246l-249 454h234l119 -258l118 258h235l-249 -454v-246h-208v246z" />
    <glyph glyph-name="Ydieresis.ss02" horiz-adv-x="689" 
d="M166.5 753.5q-25.5 24.5 -25.5 58.5q0 35 25 60t62 25t62 -24.5t25 -60.5q0 -34 -25 -58.5t-62 -24.5q-36 0 -61.5 24.5zM400.5 753.5q-24.5 24.5 -24.5 58.5q0 36 24.5 60.5t60.5 24.5q37 0 62.5 -25t25.5 -60q0 -34 -25.5 -58.5t-62.5 -24.5q-36 0 -60.5 24.5zM241 246
l-249 454h234l119 -258l118 258h235l-249 -454v-246h-208v246z" />
    <glyph glyph-name="Ygrave.ss02" horiz-adv-x="689" 
d="M211 813l39 86l226 -86l-39 -86zM241 246l-249 454h234l119 -258l118 258h235l-249 -454v-246h-208v246z" />
    <glyph glyph-name="Adieresis.ss05" horiz-adv-x="712" 
d="M332 738h-112l87 110h112zM375 738l87 110h112l-87 -110h-112zM469 81h-226l-22 -81h-216l239 700h225l238 -700h-216zM429 232l-73 272l-73 -272h146z" />
    <glyph glyph-name="Edieresis.ss05" horiz-adv-x="567" 
d="M159 738l87 110h112l-87 -110h-112zM314 738l87 110h112l-87 -110h-112zM62 700h450v-156h-242v-122h242v-149h-242v-117h242v-156h-450v700z" />
    <glyph glyph-name="Odieresis.ss05" horiz-adv-x="809" 
d="M267 738l87 110h112l-87 -110h-112zM422 738l87 110h112l-87 -110h-112zM198.5 28.5q-87.5 50.5 -134 135.5t-46.5 186t46.5 186t134 135.5t205.5 50.5t205.5 -50.5t134 -135.5t46.5 -186t-46.5 -186t-134 -135.5t-205.5 -50.5t-205.5 50.5zM528.5 216.5
q44.5 52.5 44.5 130.5q0 81 -43.5 135t-125.5 54q-80 0 -124.5 -53.5t-44.5 -132.5t44.5 -132.5t124.5 -53.5t124.5 52.5z" />
    <glyph glyph-name="Udieresis.ss05" horiz-adv-x="697" 
d="M212 738l87 110h112l-87 -110h-112zM367 738l87 110h112l-87 -110h-112zM187 12.5q-69 31.5 -106.5 90.5t-37.5 140v457h209v-444q0 -46 26.5 -72.5t70.5 -26.5t70.5 27t26.5 72v444h208v-457q0 -81 -37.5 -140t-106 -90.5t-161.5 -31.5t-162 31.5z" />
    <glyph glyph-name="uni006A0301" horiz-adv-x="311" 
d="M25 623l214 89l37 -93l-214 -89zM28.5 -193.5q-18.5 2.5 -40.5 8.5v137q18 -3 32 -3q19 0 28.5 10.5t9.5 34.5v503h196v-509q0 -92 -46.5 -138t-134.5 -46q-26 0 -44.5 2.5z" />
    <glyph glyph-name="a.ss03" horiz-adv-x="623" 
d="M73.5 28.5q-50.5 42.5 -50.5 112.5q0 84 65 127q62 44 222 48l59 2v27q0 50 -59 50q-32 0 -49.5 -11.5t-19.5 -32.5h-199q8 76 78 120t192 44q136 0 197.5 -51.5t61.5 -161.5v-302h-200v67q-21 -38 -63 -59.5t-100 -21.5q-84 0 -134.5 42.5zM350.5 137.5
q20.5 19.5 20.5 55.5v24l-64 -2q-39 -1 -57.5 -14.5t-18.5 -36.5q0 -22 16 -34t45 -12q38 0 58.5 19.5z" />
    <glyph glyph-name="aacute.ss03" horiz-adv-x="623" 
d="M73.5 28.5q-50.5 42.5 -50.5 112.5q0 84 65 127q62 44 222 48l59 2v27q0 50 -59 50q-32 0 -49.5 -11.5t-19.5 -32.5h-199q8 76 78 120t192 44q136 0 197.5 -51.5t61.5 -161.5v-302h-200v67q-21 -38 -63 -59.5t-100 -21.5q-84 0 -134.5 42.5zM350.5 137.5
q20.5 19.5 20.5 55.5v24l-64 -2q-39 -1 -57.5 -14.5t-18.5 -36.5q0 -22 16 -34t45 -12q38 0 58.5 19.5zM144 626l295 90l30 -96l-293 -91z" />
    <glyph glyph-name="abreve.ss03" horiz-adv-x="623" 
d="M73.5 28.5q-50.5 42.5 -50.5 112.5q0 84 65 127q62 44 222 48l59 2v27q0 50 -59 50q-32 0 -49.5 -11.5t-19.5 -32.5h-199q8 76 78 120t192 44q136 0 197.5 -51.5t61.5 -161.5v-302h-200v67q-21 -38 -63 -59.5t-100 -21.5q-84 0 -134.5 42.5zM350.5 137.5
q20.5 19.5 20.5 55.5v24l-64 -2q-39 -1 -57.5 -14.5t-18.5 -36.5q0 -22 16 -34t45 -12q38 0 58.5 19.5zM173 577q-49 40 -52 112h132q3 -55 58 -55q54 0 57 55h133q-4 -71 -55 -111.5t-135 -40.5q-89 0 -138 40z" />
    <glyph glyph-name="acircumflex.ss03" horiz-adv-x="623" 
d="M73.5 28.5q-50.5 42.5 -50.5 112.5q0 84 65 127q62 44 222 48l59 2v27q0 50 -59 50q-32 0 -49.5 -11.5t-19.5 -32.5h-199q8 76 78 120t192 44q136 0 197.5 -51.5t61.5 -161.5v-302h-200v67q-21 -38 -63 -59.5t-100 -21.5q-84 0 -134.5 42.5zM350.5 137.5
q20.5 19.5 20.5 55.5v24l-64 -2q-39 -1 -57.5 -14.5t-18.5 -36.5q0 -22 16 -34t45 -12q38 0 58.5 19.5zM469 595l-72 -66l-88 71l-87 -70l-72 65l159 123z" />
    <glyph glyph-name="adieresis.ss03" horiz-adv-x="623" 
d="M73.5 28.5q-50.5 42.5 -50.5 112.5q0 84 65 127q62 44 222 48l59 2v27q0 50 -59 50q-32 0 -49.5 -11.5t-19.5 -32.5h-199q8 76 78 120t192 44q136 0 197.5 -51.5t61.5 -161.5v-302h-200v67q-21 -38 -63 -59.5t-100 -21.5q-84 0 -134.5 42.5zM350.5 137.5
q20.5 19.5 20.5 55.5v24l-64 -2q-39 -1 -57.5 -14.5t-18.5 -36.5q0 -22 16 -34t45 -12q38 0 58.5 19.5zM125 568.5q-28 27.5 -28 66.5t28 67t68 28q41 0 69 -28t28 -67t-28 -66.5t-69 -27.5q-40 0 -68 27.5zM360.5 568.5q-27.5 27.5 -27.5 66.5t27.5 67t68.5 28t68.5 -28
t27.5 -67t-27.5 -66.5t-68.5 -27.5t-68.5 27.5z" />
    <glyph glyph-name="agrave.ss03" horiz-adv-x="623" 
d="M73.5 28.5q-50.5 42.5 -50.5 112.5q0 84 65 127q62 44 222 48l59 2v27q0 50 -59 50q-32 0 -49.5 -11.5t-19.5 -32.5h-199q8 76 78 120t192 44q136 0 197.5 -51.5t61.5 -161.5v-302h-200v67q-21 -38 -63 -59.5t-100 -21.5q-84 0 -134.5 42.5zM350.5 137.5
q20.5 19.5 20.5 55.5v24l-64 -2q-39 -1 -57.5 -14.5t-18.5 -36.5q0 -22 16 -34t45 -12q38 0 58.5 19.5zM141 617l30 96l295 -90l-32 -97z" />
    <glyph glyph-name="amacron.ss03" horiz-adv-x="623" 
d="M73.5 28.5q-50.5 42.5 -50.5 112.5q0 84 65 127q62 44 222 48l59 2v27q0 50 -59 50q-32 0 -49.5 -11.5t-19.5 -32.5h-199q8 76 78 120t192 44q136 0 197.5 -51.5t61.5 -161.5v-302h-200v67q-21 -38 -63 -59.5t-100 -21.5q-84 0 -134.5 42.5zM350.5 137.5
q20.5 19.5 20.5 55.5v24l-64 -2q-39 -1 -57.5 -14.5t-18.5 -36.5q0 -22 16 -34t45 -12q38 0 58.5 19.5zM129 674h364v-103h-364v103z" />
    <glyph glyph-name="aogonek.ss03" horiz-adv-x="623" 
d="M73.5 28.5q-50.5 42.5 -50.5 112.5q0 84 65 127q62 44 222 48l59 2v27q0 50 -59 50q-32 0 -49.5 -11.5t-19.5 -32.5h-199q8 76 78 120t192 44q136 0 197.5 -51.5t61.5 -161.5v-302h-200v67q-21 -38 -63 -59.5t-100 -21.5q-84 0 -134.5 42.5zM350.5 137.5
q20.5 19.5 20.5 55.5v24l-64 -2q-39 -1 -57.5 -14.5t-18.5 -36.5q0 -22 16 -34t45 -12q38 0 58.5 19.5zM352.5 -173q-37.5 28 -37.5 71q0 65 66 102h190q-55 -2 -77.5 -20t-22.5 -42q0 -19 13.5 -31.5t35.5 -12.5q25 0 48 12v-88q-27 -11 -51 -15t-59 -4q-68 0 -105.5 28z
" />
    <glyph glyph-name="aring.ss03" horiz-adv-x="623" 
d="M73.5 28.5q-50.5 42.5 -50.5 112.5q0 84 65 127q62 44 222 48l59 2v27q0 50 -59 50q-32 0 -49.5 -11.5t-19.5 -32.5h-199q8 76 78 120t192 44q136 0 197.5 -51.5t61.5 -161.5v-302h-200v67q-21 -38 -63 -59.5t-100 -21.5q-84 0 -134.5 42.5zM350.5 137.5
q20.5 19.5 20.5 55.5v24l-64 -2q-39 -1 -57.5 -14.5t-18.5 -36.5q0 -22 16 -34t45 -12q38 0 58.5 19.5zM228.5 557q-32.5 30 -32.5 78t32.5 78t82.5 30t82.5 -30t32.5 -78t-32.5 -78t-82.5 -30t-82.5 30zM344 598.5q13 14.5 13 36.5t-13 36t-33 14t-33 -14t-13 -36t13 -36.5
t33 -14.5t33 14.5z" />
    <glyph glyph-name="atilde.ss03" horiz-adv-x="623" 
d="M73.5 28.5q-50.5 42.5 -50.5 112.5q0 84 65 127q62 44 222 48l59 2v27q0 50 -59 50q-32 0 -49.5 -11.5t-19.5 -32.5h-199q8 76 78 120t192 44q136 0 197.5 -51.5t61.5 -161.5v-302h-200v67q-21 -38 -63 -59.5t-100 -21.5q-84 0 -134.5 42.5zM350.5 137.5
q20.5 19.5 20.5 55.5v24l-64 -2q-39 -1 -57.5 -14.5t-18.5 -36.5q0 -22 16 -34t45 -12q38 0 58.5 19.5zM349 544q-17 7 -41 21q-18 12 -31.5 17.5t-28.5 5.5q-42 0 -80 -35l-37 81q49 61 106 61q23 0 40 -7t41 -21q18 -12 31.5 -17.5t28.5 -5.5q42 0 80 35l37 -81
q-49 -61 -106 -61q-23 0 -40 7z" />
    <glyph glyph-name="y.ss04" horiz-adv-x="613" 
d="M38 -196v143q10 -1 30.5 -4t39.5 -3q38 0 63.5 13.5t34.5 39.5l5 14l-214 490h205l107 -320l104 320h203l-221 -524q-33 -77 -79 -117t-93.5 -52.5t-103.5 -12.5q-39 0 -81 13z" />
    <glyph glyph-name="yacute.ss04" horiz-adv-x="613" 
d="M38 -196v143q10 -1 30.5 -4t39.5 -3q38 0 63.5 13.5t34.5 39.5l5 14l-214 490h205l107 -320l104 320h203l-221 -524q-33 -77 -79 -117t-93.5 -52.5t-103.5 -12.5q-39 0 -81 13zM139 626l295 90l30 -96l-293 -91z" />
    <glyph glyph-name="ycircumflex.ss04" horiz-adv-x="613" 
d="M38 -196v143q10 -1 30.5 -4t39.5 -3q38 0 63.5 13.5t34.5 39.5l5 14l-214 490h205l107 -320l104 320h203l-221 -524q-33 -77 -79 -117t-93.5 -52.5t-103.5 -12.5q-39 0 -81 13zM464 595l-72 -66l-88 71l-87 -70l-72 65l159 123z" />
    <glyph glyph-name="ydieresis.ss04" horiz-adv-x="613" 
d="M38 -196v143q10 -1 30.5 -4t39.5 -3q38 0 63.5 13.5t34.5 39.5l5 14l-214 490h205l107 -320l104 320h203l-221 -524q-33 -77 -79 -117t-93.5 -52.5t-103.5 -12.5q-39 0 -81 13zM120 568.5q-28 27.5 -28 66.5t28 67t68 28q41 0 69 -28t28 -67t-28 -66.5t-69 -27.5
q-40 0 -68 27.5zM355.5 568.5q-27.5 27.5 -27.5 66.5t27.5 67t68.5 28t68.5 -28t27.5 -67t-27.5 -66.5t-68.5 -27.5t-68.5 27.5z" />
    <glyph glyph-name="ygrave.ss04" horiz-adv-x="613" 
d="M38 -196v143q10 -1 30.5 -4t39.5 -3q38 0 63.5 13.5t34.5 39.5l5 14l-214 490h205l107 -320l104 320h203l-221 -524q-33 -77 -79 -117t-93.5 -52.5t-103.5 -12.5q-39 0 -81 13zM136 617l30 96l295 -90l-32 -97z" />
    <glyph glyph-name="a.sups" horiz-adv-x="417" 
d="M60 434.5q-38 41.5 -38 108.5q0 66 38 108t99 42q35 0 60 -14t37 -37v43h120v-284h-120v42q-11 -22 -36.5 -36t-60.5 -14q-61 0 -99 41.5zM244.5 504q15.5 15 15.5 39t-15.5 38.5t-41.5 14.5q-25 0 -40 -15t-15 -38q0 -24 15 -39t40 -15q26 0 41.5 15z" />
    <glyph glyph-name="b.sups" horiz-adv-x="417" 
d="M357 651.5q37 -41.5 37 -108.5t-37.5 -108.5t-98.5 -41.5q-35 0 -60.5 15t-35.5 35v-42h-121v393h121v-152q11 21 37 36t61 15q60 0 97 -41.5zM254 503.5q16 16.5 16 39.5t-15.5 38t-39.5 15q-26 0 -42 -15t-16 -38q0 -24 16 -40t42 -16q23 0 39 16.5z" />
    <glyph glyph-name="c.sups" horiz-adv-x="387" 
d="M68 433q-48 42 -48 111t48 111t127 42q72 0 118.5 -36t53.5 -96h-121q-8 32 -51 32q-25 0 -40 -14.5t-15 -38.5q0 -25 15 -39.5t40 -14.5q43 0 51 32h121q-7 -61 -53 -96t-119 -35q-79 0 -127 42z" />
    <glyph glyph-name="d.sups" horiz-adv-x="418" 
d="M377 794v-393h-121v42q-11 -22 -36 -36t-60 -14q-61 0 -99 41.5t-38 108.5q0 66 38 108t99 42q35 0 60 -14t36 -37v152h121zM246 504.5q16 15.5 16 38.5t-16 38t-41 15t-40.5 -15t-15.5 -38q0 -24 15.5 -39t40.5 -15t41 15.5z" />
    <glyph glyph-name="e.sups" horiz-adv-x="418" 
d="M368.5 536.5q-0.5 -9.5 -3.5 -19.5h-226q0 -21 16 -33t42 -12q40 0 50 21h116q-7 -46 -52 -74t-113 -28q-84 0 -131.5 40t-47.5 113q0 70 48.5 110.5t128.5 40.5q77 0 125 -37.5t48 -98.5q0 -13 -0.5 -22.5zM249 576q0 23 -14.5 35.5t-39.5 12.5t-40 -13t-16 -35h110z
" />
    <glyph glyph-name="f.sups" horiz-adv-x="282" 
d="M197 712.5q-11 -7.5 -11 -20.5v-15h67v-88h-67v-189h-121v189h-48v88h48v15q0 54 35.5 81.5t88.5 27.5q42 0 64 -7v-76q-24 2 -28 2q-17 0 -28 -7.5z" />
    <glyph glyph-name="g.sups" horiz-adv-x="418" 
d="M377 685v-258q0 -76 -62 -115q-37 -25 -114 -25q-41 0 -65.5 3t-45.5 15q-26 14 -43.5 39t-18.5 49h122q5 -26 51 -26q28 0 41.5 9.5t13.5 34.5v47q-9 -21 -35.5 -34.5t-58.5 -13.5q-63 0 -101 38.5t-38 100.5q0 63 38 103t101 40q33 0 59 -14t35 -37v44h121zM246 508
q16 15 16 38q0 24 -16 39.5t-41 15.5t-40.5 -15t-15.5 -40q0 -23 15.5 -38t40.5 -15t41 15z" />
    <glyph glyph-name="h.sups" horiz-adv-x="407" 
d="M371 571v-171h-123v142q0 26 -10 37t-33 11q-49 0 -49 -51v-139h-119v394h119v-153q26 51 102 51q113 0 113 -121z" />
    <glyph glyph-name="i.sups" horiz-adv-x="255" 
d="M67 719.5q-19 18.5 -19 44.5q0 28 19 46t50 18q30 0 49 -18.5t19 -45.5q0 -26 -19.5 -44.5t-48.5 -18.5q-31 0 -50 18.5zM55 685h121v-285h-121v285z" />
    <glyph glyph-name="j.sups" horiz-adv-x="240" 
d="M64.5 719.5q-18.5 18.5 -18.5 44.5q0 28 18.5 46t48.5 18t49.5 -18.5t19.5 -45.5q0 -26 -19.5 -44.5t-49.5 -18.5t-48.5 18.5zM0 299v87q18 -2 24 -2q29 0 29 25v276h120v-280q0 -112 -119 -112q-28 0 -54 6z" />
    <glyph glyph-name="k.sups" horiz-adv-x="392" 
d="M248 400l-88 118v-118h-120v394h120v-222l91 113h136l-118 -133l121 -152h-142z" />
    <glyph glyph-name="l.sups" horiz-adv-x="227" 
d="M58 794h122v-394h-122v394z" />
    <glyph glyph-name="m.sups" horiz-adv-x="559" 
d="M37 685h121v-44q10 24 33 37.5t56 13.5q70 0 92 -54q14 25 40 39.5t60 14.5q56 0 80 -32t24 -88v-172h-124v150q0 22 -8 31t-24 9q-18 0 -27 -11.5t-9 -38.5v-140h-124v150q0 22 -8 31t-24 9q-20 0 -28.5 -11.5t-8.5 -38.5v-140h-121v285z" />
    <glyph glyph-name="n.sups" horiz-adv-x="405" 
d="M37 685h120v-44q24 51 101 51q113 0 113 -121v-171h-123v142q0 26 -10 37t-33 11q-48 0 -48 -51v-139h-120v285z" />
    <glyph glyph-name="o.sups" horiz-adv-x="394" 
d="M68.5 433q-48.5 42 -48.5 111q0 68 48.5 110.5t128.5 42.5t128.5 -42.5t48.5 -110.5q0 -69 -48.5 -111t-128.5 -42t-128.5 42zM238 504q15 15 15 40q0 24 -15 38.5t-41 14.5t-41.5 -14.5t-15.5 -38.5q0 -25 15.5 -40t41.5 -15t41 15z" />
    <glyph glyph-name="p.sups" horiz-adv-x="418" 
d="M357 651q37 -41 37 -108q0 -68 -37.5 -109.5t-98.5 -41.5q-35 0 -60.5 15t-36.5 36v-147h-120v389h120v-44q11 22 37.5 36.5t61.5 14.5q60 0 97 -41zM254 503q16 16 16 40q0 23 -15.5 38t-39.5 15q-26 0 -42 -15t-16 -38q0 -24 16 -40t42 -16q23 0 39 16z" />
    <glyph glyph-name="q.sups" horiz-adv-x="418" 
d="M377 685v-389h-121v147q-11 -22 -36.5 -36.5t-59.5 -14.5q-61 0 -99 42t-38 109q0 66 38 107.5t99 41.5q35 0 60 -14t36 -37v44h121zM246 503.5q16 15.5 16 39.5q0 23 -16 38t-41 15t-40.5 -15t-15.5 -38q0 -25 15.5 -40t40.5 -15t41 15.5z" />
    <glyph glyph-name="r.sups" horiz-adv-x="304" 
d="M44 685h120v-67q8 34 34.5 53.5t61.5 19.5q8 0 15 -1.5t11 -1.5v-115q-19 3 -34 3q-43 0 -65.5 -18t-22.5 -69v-89h-120v285z" />
    <glyph glyph-name="s.sups" horiz-adv-x="353" 
d="M62 417q-44 26 -44 70h120q0 -11 11.5 -18t29.5 -7q15 0 23 4.5t8 12.5q0 6 -5.5 9.5t-20.5 6.5l-67 14q-92 20 -92 93q0 44 39.5 68.5t111.5 24.5q70 0 109.5 -23t39.5 -65h-118q0 10 -10 15.5t-25 5.5q-31 0 -31 -15q0 -12 32 -20l69 -15q45 -10 66 -31t21 -53
q0 -47 -41 -75t-112 -28q-70 0 -114 26z" />
    <glyph glyph-name="t.sups" horiz-adv-x="290" 
d="M258 492v-91q-27 -6 -77 -6q-52 0 -86 23t-34 87v87h-48v93h48v83h120v-83h73v-93h-73v-63q0 -40 44 -40q22 0 33 3z" />
    <glyph glyph-name="u.sups" horiz-adv-x="408" 
d="M62.5 425.5q-28.5 32.5 -28.5 88.5v171h123v-147q0 -44 43 -44q23 0 34.5 12t11.5 38v141h119v-284h-119v42q-12 -23 -37 -36.5t-60 -13.5q-58 0 -86.5 32.5z" />
    <glyph glyph-name="v.sups" horiz-adv-x="388" 
d="M5 685h137l53 -157l55 157h137l-134 -285h-114z" />
    <glyph glyph-name="w.sups" horiz-adv-x="515" 
d="M8 685h121l47 -153l36 153h105l37 -153l45 153h122l-104 -285h-112l-40 134l-42 -134h-111z" />
    <glyph glyph-name="x.sups" horiz-adv-x="387" 
d="M119 544l-110 141h140l45 -70l46 70h141l-110 -141l112 -144h-142l-47 71l-47 -71h-139z" />
    <glyph glyph-name="y.sups" horiz-adv-x="409" 
d="M366 685v-262q0 -34 -12.5 -61t-32.5 -43q-24 -18 -51.5 -25.5t-70.5 -7.5q-44 0 -72.5 7t-49.5 23q-19 14 -30.5 33.5t-11.5 41.5h121q0 -25 43 -25q47 0 47 38v55q-11 -24 -36 -36.5t-60 -12.5q-115 0 -115 121v154h120v-140q0 -24 10 -34.5t34 -10.5t35.5 12.5
t11.5 39.5v133h120z" />
    <glyph glyph-name="z.sups" horiz-adv-x="337" 
d="M148 584h-122v101h296l-132 -187h120v-98h-299z" />
    <glyph glyph-name="uni24FF" unicode="&#x24ff;" horiz-adv-x="795" 
d="M196.5 27q-86.5 49 -132.5 134t-46 189t46 189t132.5 134t201.5 49t201 -49t132 -134t46 -189t-46 -189t-132 -134t-201 -49t-201.5 49zM522.5 209.5q43.5 48.5 43.5 140.5t-43.5 140.5t-126.5 48.5q-81 0 -124 -48.5t-43 -140.5t43 -140.5t124 -48.5q83 0 126.5 48.5z
M356.5 276q-12.5 23 -12.5 74q0 52 12.5 75t39.5 23q29 0 41.5 -23t12.5 -75t-12.5 -74.5t-41.5 -22.5q-27 0 -39.5 23z" />
    <glyph glyph-name="uni2776" unicode="&#x2776;" horiz-adv-x="795" 
d="M196.5 27q-86.5 49 -132.5 134t-46 189t46 189t132.5 134t201.5 49t201 -49t132 -134t46 -189t-46 -189t-132 -134t-201 -49t-201.5 49zM466 171v358h-100q0 -35 -20.5 -52t-76.5 -17v-90h77v-199h120z" />
    <glyph glyph-name="uni2777" unicode="&#x2777;" horiz-adv-x="795" 
d="M196.5 27q-86.5 49 -132.5 134t-46 189t46 189t132.5 134t201.5 49t201 -49t132 -134t46 -189t-46 -189t-132 -134t-201 -49t-201.5 49zM542 180v91h-160q9 19 37 32l55 27q37 18 55.5 44.5t18.5 64.5q0 51 -40 80t-112 29q-71 0 -114.5 -35t-43.5 -93h121q0 43 38 43
q14 0 22 -7.5t8 -20.5q0 -26 -33 -42l-65 -31q-53 -26 -76.5 -68t-23.5 -114h313z" />
    <glyph glyph-name="uni2778" unicode="&#x2778;" horiz-adv-x="795" 
d="M196.5 27q-86.5 49 -132.5 134t-46 189t46 189t132.5 134t201.5 49t201 -49t132 -134t46 -189t-46 -189t-132 -134t-201 -49t-201.5 49zM513.5 191.5q43.5 30.5 43.5 80.5q0 37 -21.5 58.5t-64.5 25.5q82 11 82 83q0 47 -40.5 73.5t-108.5 26.5q-76 0 -118.5 -31.5
t-42.5 -83.5h120q0 16 10 24.5t27 8.5q15 0 24 -8t9 -21q-2 -37 -42 -37h-52v-71h52q41 0 41 -39q0 -15 -9 -23t-26 -8q-19 0 -29 9.5t-10 27.5h-120q0 -62 39 -94t115 -32q78 0 121.5 30.5z" />
    <glyph glyph-name="uni2779" unicode="&#x2779;" horiz-adv-x="795" 
d="M196.5 27q-86.5 49 -132.5 134t-46 189t46 189t132.5 134t201.5 49t201 -49t132 -134t46 -189t-46 -189t-132 -134t-201 -49t-201.5 49zM523 165v90h34v97h-34v83h-119v-83h-40v171h-118v-268h158v-90h119z" />
    <glyph glyph-name="uni277A" unicode="&#x277a;" horiz-adv-x="795" 
d="M196.5 27q-86.5 49 -132.5 134t-46 189t46 189t132.5 134t201.5 49t201 -49t132 -134t46 -189t-46 -189t-132 -134t-201 -49t-201.5 49zM513 192.5q43 37.5 43 100.5q0 52 -33.5 84.5t-88.5 32.5q-51 0 -74 -22v52h179v83h-287v-213h103q4 12 15.5 18.5t26.5 6.5
q20 0 31.5 -12t11.5 -31q0 -22 -12 -35t-33 -13q-17 0 -28 7.5t-12 20.5h-115q4 -57 43.5 -87t113.5 -30q73 0 116 37.5z" />
    <glyph glyph-name="uni277B" unicode="&#x277b;" horiz-adv-x="795" 
d="M196.5 27q-86.5 49 -132.5 134t-46 189t46 189t132.5 134t201.5 49t201 -49t132 -134t46 -189t-46 -189t-132 -134t-201 -49t-201.5 49zM507.5 206.5q43.5 39.5 43.5 102.5q0 56 -33.5 94t-90.5 46l67 86h-134l-95 -135q-31 -44 -31 -91q0 -63 43 -102.5t115 -39.5
t115.5 39.5zM359 273q-12 14 -12 36q0 23 12 37.5t33 14.5t33 -14.5t12 -37.5q0 -22 -12 -36t-33 -14t-33 14z" />
    <glyph glyph-name="uni277C" unicode="&#x277c;" horiz-adv-x="795" 
d="M196.5 27q-86.5 49 -132.5 134t-46 189t46 189t132.5 134t201.5 49t201 -49t132 -134t46 -189t-46 -189t-132 -134t-201 -49t-201.5 49zM393 164l170 358h-320v-97h149l-134 -261h135z" />
    <glyph glyph-name="uni277D" unicode="&#x277d;" horiz-adv-x="795" 
d="M196.5 27q-86.5 49 -132.5 134t-46 189t46 189t132.5 134t201.5 49t201 -49t132 -134t46 -189t-46 -189t-132 -134t-201 -49t-201.5 49zM508.5 188.5q42.5 27.5 42.5 79.5q0 34 -18 57t-55 30q30 8 47 30.5t17 51.5q0 49 -40 75.5t-109 26.5t-109 -26.5t-40 -75.5
q0 -30 17 -52t47 -30q-37 -7 -55 -30t-18 -57q0 -52 42.5 -79.5t115.5 -27.5t115.5 27.5zM363 404.5q-11 10.5 -11 27.5t11.5 27.5t29.5 10.5t29.5 -10.5t11.5 -27.5t-11.5 -27.5t-29.5 -10.5q-19 0 -30 10.5zM361.5 247q-12.5 12 -12.5 29q0 18 12.5 29.5t31.5 11.5
t31.5 -11.5t12.5 -29.5q0 -17 -12.5 -29t-31.5 -12t-31.5 12z" />
    <glyph glyph-name="uni277E" unicode="&#x277e;" horiz-adv-x="795" 
d="M196.5 27q-86.5 49 -132.5 134t-46 189t46 189t132.5 134t201.5 49t201 -49t132 -134t46 -189t-46 -189t-132 -134t-201 -49t-201.5 49zM430 171l94 134q31 44 31 92q0 63 -43 102.5t-114 39.5q-72 0 -115.5 -39.5t-43.5 -102.5q0 -57 33.5 -94.5t91.5 -46.5l-67 -85h133
zM364.5 359.5q-12.5 14.5 -12.5 37.5q0 21 12.5 35.5t33.5 14.5q20 0 32 -14.5t12 -35.5q0 -23 -12 -37.5t-32 -14.5q-21 0 -33.5 14.5z" />
    <glyph glyph-name="zero.case" horiz-adv-x="677" 
d="M110.5 77.5q-78.5 94.5 -78.5 273.5q0 181 78.5 276t227.5 95q150 0 228.5 -95t78.5 -276q0 -180 -78.5 -274t-228.5 -94q-149 0 -227.5 94.5zM420 192.5q26 50.5 26 158.5q0 110 -26 161t-82 51t-81.5 -50.5t-25.5 -161.5q0 -109 25.5 -159t81.5 -50t82 50.5z" />
    <glyph glyph-name="one.case" horiz-adv-x="462" 
d="M169 409h-144v159q70 0 108.5 14.5t53.5 43t15 74.5h175v-700h-208v409z" />
    <glyph glyph-name="two.case" horiz-adv-x="649" 
d="M76 217q43 81 141 131l119 61q34 17 49.5 40t15.5 55q0 30 -18 49t-46 19q-38 0 -58 -26t-20 -75h-209q0 75 35.5 132t100 88t150.5 31q130 0 202.5 -56t72.5 -156q0 -143 -138 -214l-103 -54q-32 -17 -48 -35t-25 -46h303v-161h-567q0 136 43 217z" />
    <glyph glyph-name="three.case" horiz-adv-x="633" 
d="M94 46q-72 63 -72 183h209q0 -43 22 -67t61 -24q34 0 54 20t20 54q0 77 -86 77h-88v148h88q83 0 83 73q0 30 -18.5 48.5t-49.5 18.5q-35 0 -55 -21.5t-20 -59.5h-208q0 68 34.5 119t100 79t155.5 28q123 0 196.5 -52.5t73.5 -143.5q0 -61 -34.5 -103t-101.5 -58
q66 -13 103.5 -57t37.5 -110q0 -64 -35 -112.5t-101 -75.5t-157 -27q-140 0 -212 63z" />
    <glyph glyph-name="four.case" horiz-adv-x="650" 
d="M617 184h-66v-184h-205v184h-296v516h205v-346h91v170h205v-170h66v-170z" />
    <glyph glyph-name="five.case" horiz-adv-x="642" 
d="M119.5 39.5q-72.5 56.5 -79.5 164.5h199q3 -30 25.5 -47t57.5 -17q43 0 67.5 28.5t24.5 77.5q0 42 -23.5 69.5t-62.5 27.5q-67 0 -89 -56h-180v413h522v-149h-334v-122q47 50 141 50q67 0 118.5 -29.5t79.5 -82t28 -119.5q0 -80 -35.5 -140t-100.5 -92.5t-153 -32.5
q-133 0 -205.5 56.5z" />
    <glyph glyph-name="six.case" horiz-adv-x="625" 
d="M541 432.5q61 -72.5 61 -178.5q0 -79 -35.5 -140.5t-101 -96t-152.5 -34.5t-152.5 34.5t-101.5 96t-36 140.5q0 88 44 156l198 290h233l-123 -178q105 -17 166 -89.5zM380.5 174q25.5 31 25.5 80t-25.5 80t-67.5 31q-43 0 -68 -30.5t-25 -80.5q0 -49 25 -80t68 -31
q42 0 67.5 31z" />
    <glyph glyph-name="seven.case" horiz-adv-x="590" 
d="M306 530h-284v170h582l-323 -700h-233z" />
    <glyph glyph-name="eight.case" horiz-adv-x="645" 
d="M111 38q-78 55 -78 155q0 65 31.5 109.5t90.5 60.5q-47 17 -76.5 60.5t-29.5 100.5q0 93 74.5 145.5t198.5 52.5q125 0 199 -52.5t74 -145.5q0 -57 -29.5 -100.5t-76.5 -60.5q59 -16 90.5 -60.5t31.5 -109.5q0 -100 -78 -155t-211 -55t-211 55zM382 453q23 21 23 54
q0 35 -23 56t-60 21t-60 -21.5t-23 -55.5q0 -33 23.5 -54t59.5 -21q37 0 60 21zM387 145.5q25 23.5 25 60.5t-24.5 59.5t-65.5 22.5q-40 0 -65 -22.5t-25 -59.5t25 -60.5t65 -23.5t65 23.5z" />
    <glyph glyph-name="nine.case" horiz-adv-x="624" 
d="M463.5 687.5q65.5 -34.5 101 -96.5t35.5 -142q0 -95 -52 -171l-189 -278h-233l123 181q-105 14 -166 87.5t-61 180.5q0 80 35.5 142t101 96.5t152.5 34.5t152.5 -34.5zM378.5 367.5q25.5 31.5 25.5 81.5t-25.5 81.5t-67.5 31.5t-67.5 -31.5t-25.5 -81.5t25.5 -81.5
t67.5 -31.5t67.5 31.5z" />
    <glyph glyph-name="zero.case.zero" horiz-adv-x="677" 
d="M566.5 627q78.5 -95 78.5 -276q0 -180 -78.5 -274t-228.5 -94q-149 0 -227.5 94.5t-78.5 273.5q0 181 78.5 276t227.5 95q150 0 228.5 -95zM256.5 512.5q-25.5 -50.5 -25.5 -161.5q0 -95 19 -145l146 337q-21 20 -58 20q-56 0 -81.5 -50.5zM420 192.5q26 50.5 26 158.5
q0 90 -17 138l-143 -332q21 -15 52 -15q56 0 82 50.5z" />
    <glyph glyph-name="uni24EA" unicode="&#x24ea;" horiz-adv-x="795" 
d="M196.5 27q-86.5 49 -132.5 134t-46 189t46 189t132.5 134t201.5 49t201 -49t132 -134t46 -189t-46 -189t-132 -134t-201 -49t-201.5 49zM541 108q61 35 94 98t33 144t-33 144t-94 98t-143 35t-143.5 -35t-94 -98t-32.5 -144t32.5 -144t94 -98t143.5 -35t143 35z
M271 209.5q-43 48.5 -43 140.5t43 140.5t125 48.5q83 0 126.5 -48.5t43.5 -140.5t-43.5 -140.5t-126.5 -48.5q-82 0 -125 48.5zM436.5 275.5q12.5 22.5 12.5 74.5t-12.5 75t-40.5 23t-40 -23t-12 -75t12 -74.5t40 -22.5t40.5 22.5z" />
    <glyph glyph-name="uni2460" unicode="&#x2460;" horiz-adv-x="795" 
d="M196.5 27q-86.5 49 -132.5 134t-46 189t46 189t132.5 134t201.5 49t201 -49t132 -134t46 -189t-46 -189t-132 -134t-201 -49t-201.5 49zM541 108q61 35 94 98t33 144t-33 144t-94 98t-143 35t-143.5 -35t-94 -98t-32.5 -144t32.5 -144t94 -98t143.5 -35t143 35zM352 370
h-78v90q56 0 77 17t21 52h100v-358h-120v199z" />
    <glyph glyph-name="uni2461" unicode="&#x2461;" horiz-adv-x="795" 
d="M196.5 27q-86.5 49 -132.5 134t-46 189t46 189t132.5 134t201.5 49t201 -49t132 -134t46 -189t-46 -189t-132 -134t-201 -49t-201.5 49zM541 108q61 35 94 98t33 144t-33 144t-94 98t-143 35t-143.5 -35t-94 -98t-32.5 -144t32.5 -144t94 -98t143.5 -35t143 35z
M253 294.5q23 42.5 76 67.5l66 32q32 15 32 41q0 14 -8 21.5t-22 7.5q-18 0 -28 -11.5t-10 -31.5h-121q0 57 43.5 92t114.5 35q72 0 112 -29t40 -80q0 -38 -18 -64.5t-56 -44.5l-55 -26q-26 -14 -36 -33h159v-91h-312q0 72 23 114.5z" />
    <glyph glyph-name="uni2462" unicode="&#x2462;" horiz-adv-x="795" 
d="M196.5 27q-86.5 49 -132.5 134t-46 189t46 189t132.5 134t201.5 49t201 -49t132 -134t46 -189t-46 -189t-132 -134t-201 -49t-201.5 49zM541 108q61 35 94 98t33 144t-33 144t-94 98t-143 35t-143.5 -35t-94 -98t-32.5 -144t32.5 -144t94 -98t143.5 -35t143 35zM279 193
q-39 32 -39 94h121q0 -37 39 -37q16 0 25 8.5t9 22.5q0 33 -42 33h-50v83h51q42 0 42 31q0 13 -9 20.5t-24 7.5q-17 0 -27 -8.5t-10 -23.5h-120q0 52 42.5 83.5t118.5 31.5q68 0 108.5 -26.5t40.5 -73.5q0 -32 -18.5 -53.5t-56.5 -29.5q39 -7 59.5 -29t20.5 -55
q0 -50 -44 -80.5t-122 -30.5q-76 0 -115 32z" />
    <glyph glyph-name="uni2463" unicode="&#x2463;" horiz-adv-x="795" 
d="M599 673q86 -49 132 -134t46 -189t-46 -189t-132 -134t-201 -49t-201.5 49t-132.5 134t-46 189t46 189t132.5 134t201.5 49t201 -49zM541 108q61 35 94 98t33 144t-33 144t-94 98t-143 35t-143.5 -35t-94 -98t-32.5 -144t32.5 -144t94 -98t143.5 -35t143 35zM523 351h34
v-96h-34v-90h-119v90h-157v268h117v-172h40v84h119v-84z" />
    <glyph glyph-name="uni2464" unicode="&#x2464;" horiz-adv-x="795" 
d="M196.5 27q-86.5 49 -132.5 134t-46 189t46 189t132.5 134t201.5 49t201 -49t132 -134t46 -189t-46 -189t-132 -134t-201 -49t-201.5 49zM541 108q61 35 94 98t33 144t-33 144t-94 98t-143 35t-143.5 -35t-94 -98t-32.5 -144t32.5 -144t94 -98t143.5 -35t143 35z
M282.5 185q-39.5 30 -43.5 87h115q2 -13 13 -20t27 -7q22 0 34 12.5t12 34.5q0 19 -12 31.5t-31 12.5q-32 0 -43 -26h-102v213h287v-83h-180v-52q23 22 74 22q55 0 89 -32.5t34 -84.5q0 -63 -43.5 -100.5t-116.5 -37.5q-74 0 -113.5 30z" />
    <glyph glyph-name="uni2465" unicode="&#x2465;" horiz-adv-x="795" 
d="M599 673q86 -49 132 -134t46 -189t-46 -189t-132 -134t-201 -49t-201.5 49t-132.5 134t-46 189t46 189t132.5 134t201.5 49t201 -49zM541 108q61 35 94 98t33 144t-33 144t-94 98t-143 35t-143.5 -35t-94 -98t-32.5 -144t32.5 -144t94 -98t143.5 -35t143 35zM517 403
q33 -37 33 -93q0 -64 -43 -103.5t-115 -39.5t-115 39.5t-43 103.5q0 46 23 80h-1l103 145h135l-68 -86q58 -9 91 -46zM425 273.5q12 14.5 12 36.5q0 23 -12 37t-33 14q-20 0 -32.5 -14t-12.5 -37q0 -22 12.5 -36.5t32.5 -14.5q21 0 33 14.5z" />
    <glyph glyph-name="uni2466" unicode="&#x2466;" horiz-adv-x="795" 
d="M196.5 27q-86.5 49 -132.5 134t-46 189t46 189t132.5 134t201.5 49t201 -49t132 -134t46 -189t-46 -189t-132 -134t-201 -49t-201.5 49zM541 108q61 35 94 98t33 144t-33 144t-94 98t-143 35t-143.5 -35t-94 -98t-32.5 -144t32.5 -144t94 -98t143.5 -35t143 35zM393 426
h-150v96h320l-169 -358h-136z" />
    <glyph glyph-name="uni2467" unicode="&#x2467;" horiz-adv-x="795" 
d="M196.5 27q-86.5 49 -132.5 134t-46 189t46 189t132.5 134t201.5 49t201 -49t132 -134t46 -189t-46 -189t-132 -134t-201 -49t-201.5 49zM541 108q61 35 94 98t33 144t-33 144t-94 98t-143 35t-143.5 -35t-94 -98t-32.5 -144t32.5 -144t94 -98t143.5 -35t143 35z
M281 188.5q-42 27.5 -42 79.5q0 34 18.5 57t55.5 31q-30 7 -47.5 29t-17.5 52q0 49 40 75.5t109 26.5t109 -26.5t40 -75.5q0 -30 -17 -52t-47 -29q37 -8 55 -31t18 -57q0 -52 -42 -79.5t-116 -27.5t-116 27.5zM427 405q11 10 11 27t-11.5 27.5t-29.5 10.5t-29.5 -10.5
t-11.5 -27.5t11.5 -27t29.5 -10q19 0 30 10zM429 247q12 11 12 29t-12 29t-32 11q-19 0 -31 -11t-12 -29q0 -17 12 -28.5t31 -11.5q20 0 32 11z" />
    <glyph glyph-name="uni2468" unicode="&#x2468;" horiz-adv-x="795" 
d="M599 673q86 -49 132 -134t46 -189t-46 -189t-132 -134t-201 -49t-201.5 49t-132.5 134t-46 189t46 189t132.5 134t201.5 49t201 -49zM541 108q61 35 94 98t33 144t-33 144t-94 98t-143 35t-143.5 -35t-94 -98t-32.5 -144t32.5 -144t94 -98t143.5 -35t143 35zM518 499.5
q43 -39.5 43 -103.5q0 -46 -23 -80h1l-103 -145h-135l68 86q-58 9 -91 46t-33 93q0 64 43 103.5t115 39.5t115 -39.5zM370 432.5q-12 -14.5 -12 -36.5q0 -23 12 -37t33 -14q20 0 32.5 14t12.5 37q0 22 -12.5 36.5t-32.5 14.5q-21 0 -33 -14.5z" />
    <glyph glyph-name="zero.tf.case" 
d="M176 15.5q-63 32.5 -98.5 92t-35.5 138.5v210q0 79 35.5 139.5t98.5 93.5t144 33t144 -33t98.5 -93.5t35.5 -139.5v-210q0 -79 -35.5 -138.5t-98.5 -92t-144 -32.5t-144 32.5zM384.5 173.5q25.5 28.5 25.5 72.5v210q0 45 -25.5 74.5t-64.5 29.5t-64.5 -29.5t-25.5 -74.5
v-210q0 -44 25.5 -72.5t64.5 -28.5t64.5 28.5z" />
    <glyph glyph-name="one.tf.case" 
d="M607 161v-161h-574v161h190v248h-169v159h30q86 0 125 34.5t49 97.5h173v-539h176z" />
    <glyph glyph-name="two.tf.case" 
d="M77 216q41 80 137 132l113 62q62 33 62 94q0 30 -15 48.5t-41 18.5q-32 0 -49 -23t-17 -69h-215q0 73 35.5 128t100.5 85t151 30q125 0 194.5 -56t69.5 -156q0 -74 -33 -128.5t-106 -94.5l-90 -50q-36 -21 -50 -35t-21 -41h301v-161h-568q0 136 41 216z" />
    <glyph glyph-name="three.tf.case" 
d="M110.5 43.5q-69.5 60.5 -69.5 179.5h211q0 -40 19.5 -62.5t54.5 -22.5q28 0 45 18.5t17 51.5q0 43 -25 62t-82 19h-65v148h65q56 0 80 18.5t24 59.5q0 29 -16.5 45.5t-44.5 16.5q-30 0 -47 -19.5t-17 -54.5h-211q0 67 34 116.5t97.5 76t150.5 26.5q121 0 190.5 -53
t69.5 -144q0 -61 -33.5 -102.5t-95.5 -57.5q65 -13 102 -57t37 -110q0 -65 -34.5 -114t-99 -75t-150.5 -26q-137 0 -206.5 60.5z" />
    <glyph glyph-name="four.tf.case" 
d="M603 184h-83v-184h-192v184h-291v516h210v-346h81v170h192v-170h83v-170z" />
    <glyph glyph-name="five.tf.case" 
d="M116.5 39.5q-70.5 56.5 -77.5 164.5h202q4 -30 23.5 -47t49.5 -17q38 0 59.5 28.5t21.5 77.5q0 43 -21 70t-56 27q-28 0 -47.5 -14t-28.5 -42h-183v413h518v-149h-333v-122q44 50 138 50q65 0 114.5 -28.5t77 -81.5t27.5 -125q0 -79 -34 -138t-97.5 -91t-149.5 -32
q-133 0 -203.5 56.5z" />
    <glyph glyph-name="six.tf.case" 
d="M544 434q62 -73 62 -180q0 -79 -35.5 -140.5t-100.5 -96t-150 -34.5t-150 34.5t-100.5 96t-35.5 140.5q0 88 42 153l189 293h237l-126 -177q106 -16 168 -89zM382.5 174q23.5 31 23.5 80t-23.5 80t-62.5 31t-62.5 -31t-23.5 -80t23.5 -80t62.5 -31t62.5 31z" />
    <glyph glyph-name="seven.tf.case" 
d="M323 530h-287v170h572l-307 -700h-229z" />
    <glyph glyph-name="eight.tf.case" 
d="M107.5 38q-78.5 55 -78.5 156q0 65 32.5 109t96.5 60q-51 18 -81.5 61.5t-30.5 101.5q0 91 74.5 143.5t199.5 52.5t199.5 -52.5t74.5 -143.5q0 -59 -30.5 -102.5t-82.5 -60.5q64 -16 97 -60.5t33 -108.5q0 -101 -78.5 -156t-212.5 -55t-212.5 55zM383 453q24 21 24 54
q0 35 -24 56t-63 21t-63 -21t-24 -56q0 -33 24.5 -54t62.5 -21q39 0 63 21zM388.5 145.5q26.5 23.5 26.5 60.5t-26.5 59.5t-68.5 22.5t-68.5 -22.5t-26.5 -59.5t26.5 -60.5t68.5 -23.5t68.5 23.5z" />
    <glyph glyph-name="nine.tf.case" 
d="M563 294h1l-189 -294h-237l126 179q-106 16 -168 88.5t-62 180.5q0 80 35.5 142t100.5 97t150 35t150 -34.5t100.5 -96.5t35.5 -142q0 -89 -43 -155zM257.5 530q-23.5 -32 -23.5 -82q0 -49 23.5 -80.5t62.5 -31.5t62.5 31.5t23.5 80.5q0 50 -23.5 82t-62.5 32t-62.5 -32z
" />
    <glyph glyph-name="zero.tf.case.zero" 
d="M464 689q63 -33 98.5 -93.5t35.5 -139.5v-210q0 -79 -35.5 -138.5t-98.5 -92t-144 -32.5t-144 32.5t-98.5 92t-35.5 138.5v210q0 79 35.5 139.5t98.5 93.5t144 33t144 -33zM230 246q0 -18 4 -31l140 325q-22 20 -54 20q-39 0 -64.5 -29.5t-25.5 -74.5v-210zM410 456
q0 11 -1 16l-135 -314q21 -13 46 -13q39 0 64.5 28.5t25.5 72.5v210z" />
    <glyph glyph-name="uni2080" unicode="&#x2080;" horiz-adv-x="453" 
d="M88.5 -37.5q-47.5 53.5 -47.5 154.5t47.5 154.5t137.5 53.5t138 -53.5t48 -154.5t-48 -154.5t-138 -53.5t-137.5 53.5zM270.5 35q13.5 25 13.5 82t-13.5 82.5t-44.5 25.5t-44.5 -25.5t-13.5 -82.5t13.5 -82t44.5 -25t44.5 25z" />
    <glyph glyph-name="uni2081" unicode="&#x2081;" horiz-adv-x="328" 
d="M124 139h-86v99q62 0 85 18.5t23 57.5h110v-394h-132v219z" />
    <glyph glyph-name="uni2082" unicode="&#x2082;" horiz-adv-x="427" 
d="M57.5 46q25.5 46 83.5 74l72 35q36 16 36 46q0 14 -9 22.5t-24 8.5q-20 0 -31 -12t-11 -35h-133q0 63 47.5 101.5t126.5 38.5t123 -32t44 -88q0 -42 -20 -71t-62 -49l-60 -29q-16 -9 -25 -16.5t-15 -19.5h175v-100h-343q0 80 25.5 126z" />
    <glyph glyph-name="uni2083" unicode="&#x2083;" horiz-adv-x="427" 
d="M79 -56q-43 35 -43 104h133q0 -41 43 -41q18 0 28 9t10 25q0 36 -46 36h-56v92h57q46 0 46 34q0 15 -10 23t-27 8q-18 0 -29 -9.5t-11 -26.5h-132q0 58 47 92.5t130 34.5q75 0 119.5 -29t44.5 -81q0 -35 -20.5 -58.5t-62.5 -33.5q42 -7 65 -31.5t23 -60.5
q0 -55 -48.5 -88.5t-133.5 -33.5q-84 0 -127 35z" />
    <glyph glyph-name="uni2084" unicode="&#x2084;" horiz-adv-x="437" 
d="M394 19h-38v-99h-130v99h-173v295h129v-189h44v92h130v-92h38v-106z" />
    <glyph glyph-name="uni2085" unicode="&#x2085;" horiz-adv-x="432" 
d="M93 -58q-43 33 -48 96h127q2 -14 14 -22t30 -8q24 0 37 13.5t13 38.5q0 21 -13 34.5t-34 13.5q-17 0 -29.5 -7.5t-17.5 -20.5h-113v234h316v-91h-198v-58q26 25 82 25q60 0 97.5 -36t37.5 -93q0 -69 -47.5 -110.5t-128.5 -41.5q-82 0 -125 33z" />
    <glyph glyph-name="uni2086" unicode="&#x2086;" horiz-adv-x="423" 
d="M348.5 168.5q36.5 -41.5 36.5 -102.5q0 -70 -47 -113.5t-127 -43.5q-78 0 -126 43.5t-48 113.5q0 51 25 88l113 160h148l-74 -94q63 -10 99.5 -51.5zM247.5 26q13.5 16 13.5 40q0 25 -13.5 40.5t-36.5 15.5q-22 0 -35.5 -15.5t-13.5 -40.5q0 -24 13.5 -40t35.5 -16
q23 0 36.5 16z" />
    <glyph glyph-name="uni2087" unicode="&#x2087;" horiz-adv-x="403" 
d="M199 208h-165v106h352l-186 -394h-149z" />
    <glyph glyph-name="uni2088" unicode="&#x2088;" horiz-adv-x="434" 
d="M89.5 -60.5q-46.5 30.5 -46.5 87.5q0 37 20 62t61 34q-33 9 -52 33t-19 57q0 54 44 83t120 29t120 -29t44 -83q0 -33 -19 -57t-52 -33q41 -9 61 -34t20 -62q0 -57 -46.5 -87.5t-127.5 -30.5t-127.5 30.5zM249.5 177q12.5 11 12.5 30t-12.5 30.5t-32.5 11.5t-32.5 -11.5
t-12.5 -30.5t12.5 -30t32.5 -11t32.5 11zM252 3.5q13 12.5 13 32.5t-13 32t-35 12t-35 -12t-13 -32t13 -32.5t35 -12.5t35 12.5z" />
    <glyph glyph-name="uni2089" unicode="&#x2089;" horiz-adv-x="423" 
d="M361 80l-113 -160h-148l74 94q-63 10 -99.5 51.5t-36.5 102.5q0 70 47 113.5t127 43.5q78 0 126 -43.5t48 -113.5q0 -50 -25 -88zM175.5 208q-13.5 -16 -13.5 -40q0 -25 13.5 -40.5t36.5 -15.5q22 0 35.5 15.5t13.5 40.5q0 24 -13.5 40t-35.5 16q-23 0 -36.5 -16z" />
    <glyph glyph-name="zero.dnom" horiz-adv-x="453" 
d="M88.5 42.5q-47.5 53.5 -47.5 154.5t47.5 154.5t137.5 53.5t138 -53.5t48 -154.5t-48 -154.5t-138 -53.5t-137.5 53.5zM270.5 115q13.5 25 13.5 82t-13.5 82.5t-44.5 25.5t-44.5 -25.5t-13.5 -82.5t13.5 -82t44.5 -25t44.5 25z" />
    <glyph glyph-name="one.dnom" horiz-adv-x="328" 
d="M124 219h-86v99q62 0 85 18.5t23 57.5h110v-394h-132v219z" />
    <glyph glyph-name="two.dnom" horiz-adv-x="427" 
d="M57.5 126q25.5 46 83.5 74l72 35q36 16 36 46q0 14 -9 22.5t-24 8.5q-20 0 -31 -12t-11 -35h-133q0 63 47.5 101.5t126.5 38.5t123 -32t44 -88q0 -42 -20 -71t-62 -49l-60 -29q-16 -9 -25 -16.5t-15 -19.5h175v-100h-343q0 80 25.5 126z" />
    <glyph glyph-name="three.dnom" horiz-adv-x="427" 
d="M79 24q-43 35 -43 104h133q0 -41 43 -41q18 0 28 9t10 25q0 36 -46 36h-56v92h57q46 0 46 34q0 15 -10 23t-27 8q-18 0 -29 -9.5t-11 -26.5h-132q0 58 47 92.5t130 34.5q75 0 119.5 -29t44.5 -81q0 -35 -20.5 -58.5t-62.5 -33.5q42 -7 65 -31.5t23 -60.5
q0 -55 -48.5 -88.5t-133.5 -33.5q-84 0 -127 35z" />
    <glyph glyph-name="four.dnom" horiz-adv-x="437" 
d="M394 99h-38v-99h-130v99h-173v295h129v-189h44v92h130v-92h38v-106z" />
    <glyph glyph-name="five.dnom" horiz-adv-x="432" 
d="M93 22q-43 33 -48 96h127q2 -14 14 -22t30 -8q24 0 37 13.5t13 38.5q0 21 -13 34.5t-34 13.5q-17 0 -29.5 -7.5t-17.5 -20.5h-113v234h316v-91h-198v-58q26 25 82 25q60 0 97.5 -36t37.5 -93q0 -69 -47.5 -110.5t-128.5 -41.5q-82 0 -125 33z" />
    <glyph glyph-name="six.dnom" horiz-adv-x="423" 
d="M348.5 248.5q36.5 -41.5 36.5 -102.5q0 -70 -47 -113.5t-127 -43.5q-78 0 -126 43.5t-48 113.5q0 51 25 88l113 160h148l-74 -94q63 -10 99.5 -51.5zM247.5 106q13.5 16 13.5 40q0 25 -13.5 40.5t-36.5 15.5q-22 0 -35.5 -15.5t-13.5 -40.5q0 -24 13.5 -40t35.5 -16
q23 0 36.5 16z" />
    <glyph glyph-name="seven.dnom" horiz-adv-x="403" 
d="M199 288h-165v106h352l-186 -394h-149z" />
    <glyph glyph-name="eight.dnom" horiz-adv-x="434" 
d="M89.5 19.5q-46.5 30.5 -46.5 87.5q0 37 20 62t61 34q-33 9 -52 33t-19 57q0 54 44 83t120 29t120 -29t44 -83q0 -33 -19 -57t-52 -33q41 -9 61 -34t20 -62q0 -57 -46.5 -87.5t-127.5 -30.5t-127.5 30.5zM249.5 257q12.5 11 12.5 30t-12.5 30.5t-32.5 11.5t-32.5 -11.5
t-12.5 -30.5t12.5 -30t32.5 -11t32.5 11zM252 83.5q13 12.5 13 32.5t-13 32t-35 12t-35 -12t-13 -32t13 -32.5t35 -12.5t35 12.5z" />
    <glyph glyph-name="nine.dnom" horiz-adv-x="423" 
d="M361 160l-113 -160h-148l74 94q-63 10 -99.5 51.5t-36.5 102.5q0 70 47 113.5t127 43.5q78 0 126 -43.5t48 -113.5q0 -50 -25 -88zM175.5 288q-13.5 -16 -13.5 -40q0 -25 13.5 -40.5t36.5 -15.5q22 0 35.5 15.5t13.5 40.5q0 24 -13.5 40t-35.5 16q-23 0 -36.5 -16z" />
    <glyph glyph-name="zero.numr" horiz-adv-x="453" 
d="M88.5 328.5q-47.5 53.5 -47.5 154.5t47.5 154.5t137.5 53.5t138 -53.5t48 -154.5t-48 -154.5t-138 -53.5t-137.5 53.5zM270.5 401q13.5 25 13.5 82t-13.5 82.5t-44.5 25.5t-44.5 -25.5t-13.5 -82.5t13.5 -82t44.5 -25t44.5 25z" />
    <glyph glyph-name="one.numr" horiz-adv-x="328" 
d="M124 505h-86v99q62 0 85 18.5t23 57.5h110v-394h-132v219z" />
    <glyph glyph-name="two.numr" horiz-adv-x="427" 
d="M57.5 412q25.5 46 83.5 74l72 35q36 16 36 46q0 14 -9 22.5t-24 8.5q-20 0 -31 -12t-11 -35h-133q0 63 47.5 101.5t126.5 38.5t123 -32t44 -88q0 -42 -20 -71t-62 -49l-60 -29q-16 -9 -25 -16.5t-15 -19.5h175v-100h-343q0 80 25.5 126z" />
    <glyph glyph-name="three.numr" horiz-adv-x="427" 
d="M79 310q-43 35 -43 104h133q0 -41 43 -41q18 0 28 9t10 25q0 36 -46 36h-56v92h57q46 0 46 34q0 15 -10 23t-27 8q-18 0 -29 -9.5t-11 -26.5h-132q0 58 47 92.5t130 34.5q75 0 119.5 -29t44.5 -81q0 -35 -20.5 -58.5t-62.5 -33.5q42 -7 65 -31.5t23 -60.5
q0 -55 -48.5 -88.5t-133.5 -33.5q-84 0 -127 35z" />
    <glyph glyph-name="four.numr" horiz-adv-x="437" 
d="M394 385h-38v-99h-130v99h-173v295h129v-189h44v92h130v-92h38v-106z" />
    <glyph glyph-name="five.numr" horiz-adv-x="432" 
d="M93 308q-43 33 -48 96h127q2 -14 14 -22t30 -8q24 0 37 13.5t13 38.5q0 21 -13 34.5t-34 13.5q-17 0 -29.5 -7.5t-17.5 -20.5h-113v234h316v-91h-198v-58q26 25 82 25q60 0 97.5 -36t37.5 -93q0 -69 -47.5 -110.5t-128.5 -41.5q-82 0 -125 33z" />
    <glyph glyph-name="six.numr" horiz-adv-x="423" 
d="M348.5 534.5q36.5 -41.5 36.5 -102.5q0 -70 -47 -113.5t-127 -43.5q-78 0 -126 43.5t-48 113.5q0 51 25 88l113 160h148l-74 -94q63 -10 99.5 -51.5zM247.5 392q13.5 16 13.5 40q0 25 -13.5 40.5t-36.5 15.5q-22 0 -35.5 -15.5t-13.5 -40.5q0 -24 13.5 -40t35.5 -16
q23 0 36.5 16z" />
    <glyph glyph-name="seven.numr" horiz-adv-x="403" 
d="M199 574h-165v106h352l-186 -394h-149z" />
    <glyph glyph-name="eight.numr" horiz-adv-x="434" 
d="M89.5 305.5q-46.5 30.5 -46.5 87.5q0 37 20 62t61 34q-33 9 -52 33t-19 57q0 54 44 83t120 29t120 -29t44 -83q0 -33 -19 -57t-52 -33q41 -9 61 -34t20 -62q0 -57 -46.5 -87.5t-127.5 -30.5t-127.5 30.5zM249.5 543q12.5 11 12.5 30t-12.5 30.5t-32.5 11.5t-32.5 -11.5
t-12.5 -30.5t12.5 -30t32.5 -11t32.5 11zM252 369.5q13 12.5 13 32.5t-13 32t-35 12t-35 -12t-13 -32t13 -32.5t35 -12.5t35 12.5z" />
    <glyph glyph-name="nine.numr" horiz-adv-x="423" 
d="M361 446l-113 -160h-148l74 94q-63 10 -99.5 51.5t-36.5 102.5q0 70 47 113.5t127 43.5q78 0 126 -43.5t48 -113.5q0 -50 -25 -88zM175.5 574q-13.5 -16 -13.5 -40q0 -25 13.5 -40.5t36.5 -15.5q22 0 35.5 15.5t13.5 40.5q0 24 -13.5 40t-35.5 16q-23 0 -36.5 -16z" />
    <glyph glyph-name="uni2070" unicode="&#x2070;" horiz-adv-x="453" 
d="M88.5 442.5q-47.5 53.5 -47.5 154.5t47.5 154.5t137.5 53.5t138 -53.5t48 -154.5t-48 -154.5t-138 -53.5t-137.5 53.5zM270.5 515q13.5 25 13.5 82t-13.5 82.5t-44.5 25.5t-44.5 -25.5t-13.5 -82.5t13.5 -82t44.5 -25t44.5 25z" />
    <glyph glyph-name="uni00B9" unicode="&#xb9;" horiz-adv-x="328" 
d="M124 619h-86v99q62 0 85 18.5t23 57.5h110v-394h-132v219z" />
    <glyph glyph-name="uni00B2" unicode="&#xb2;" horiz-adv-x="427" 
d="M57.5 526q25.5 46 83.5 74l72 35q36 16 36 46q0 14 -9 22.5t-24 8.5q-20 0 -31 -12t-11 -35h-133q0 63 47.5 101.5t126.5 38.5t123 -32t44 -88q0 -42 -20 -71t-62 -49l-60 -29q-16 -9 -25 -16.5t-15 -19.5h175v-100h-343q0 80 25.5 126z" />
    <glyph glyph-name="uni00B3" unicode="&#xb3;" horiz-adv-x="427" 
d="M79 424q-43 35 -43 104h133q0 -41 43 -41q18 0 28 9t10 25q0 36 -46 36h-56v92h57q46 0 46 34q0 15 -10 23t-27 8q-18 0 -29 -9.5t-11 -26.5h-132q0 58 47 92.5t130 34.5q75 0 119.5 -29t44.5 -81q0 -35 -20.5 -58.5t-62.5 -33.5q42 -7 65 -31.5t23 -60.5
q0 -55 -48.5 -88.5t-133.5 -33.5q-84 0 -127 35z" />
    <glyph glyph-name="uni2074" unicode="&#x2074;" horiz-adv-x="437" 
d="M394 499h-38v-99h-130v99h-173v295h129v-189h44v92h130v-92h38v-106z" />
    <glyph glyph-name="uni2075" unicode="&#x2075;" horiz-adv-x="432" 
d="M93 422q-43 33 -48 96h127q2 -14 14 -22t30 -8q24 0 37 13.5t13 38.5q0 21 -13 34.5t-34 13.5q-17 0 -29.5 -7.5t-17.5 -20.5h-113v234h316v-91h-198v-58q26 25 82 25q60 0 97.5 -36t37.5 -93q0 -69 -47.5 -110.5t-128.5 -41.5q-82 0 -125 33z" />
    <glyph glyph-name="uni2076" unicode="&#x2076;" horiz-adv-x="423" 
d="M348.5 648.5q36.5 -41.5 36.5 -102.5q0 -70 -47 -113.5t-127 -43.5q-78 0 -126 43.5t-48 113.5q0 51 25 88l113 160h148l-74 -94q63 -10 99.5 -51.5zM247.5 506q13.5 16 13.5 40q0 25 -13.5 40.5t-36.5 15.5q-22 0 -35.5 -15.5t-13.5 -40.5q0 -24 13.5 -40t35.5 -16
q23 0 36.5 16z" />
    <glyph glyph-name="uni2077" unicode="&#x2077;" horiz-adv-x="403" 
d="M199 688h-165v106h352l-186 -394h-149z" />
    <glyph glyph-name="uni2078" unicode="&#x2078;" horiz-adv-x="434" 
d="M89.5 419.5q-46.5 30.5 -46.5 87.5q0 37 20 62t61 34q-33 9 -52 33t-19 57q0 54 44 83t120 29t120 -29t44 -83q0 -33 -19 -57t-52 -33q41 -9 61 -34t20 -62q0 -57 -46.5 -87.5t-127.5 -30.5t-127.5 30.5zM249.5 657q12.5 11 12.5 30t-12.5 30.5t-32.5 11.5t-32.5 -11.5
t-12.5 -30.5t12.5 -30t32.5 -11t32.5 11zM252 483.5q13 12.5 13 32.5t-13 32t-35 12t-35 -12t-13 -32t13 -32.5t35 -12.5t35 12.5z" />
    <glyph glyph-name="uni2079" unicode="&#x2079;" horiz-adv-x="423" 
d="M361 560l-113 -160h-148l74 94q-63 10 -99.5 51.5t-36.5 102.5q0 70 47 113.5t127 43.5q78 0 126 -43.5t48 -113.5q0 -50 -25 -88zM175.5 688q-13.5 -16 -13.5 -40q0 -25 13.5 -40.5t36.5 -15.5q22 0 35.5 15.5t13.5 40.5q0 24 -13.5 40t-35.5 16q-23 0 -36.5 -16z" />
    <glyph glyph-name="uni2153" unicode="&#x2153;" horiz-adv-x="911" 
d="M124 505h-86v99q62 0 85 18.5t23 57.5h110v-394h-132v219zM138 31l472 682l94 -59l-472 -682zM563 24q-43 35 -43 104h133q0 -41 43 -41q18 0 28 9t10 25q0 36 -46 36h-56v92h57q46 0 46 34q0 15 -10 23t-27 8q-18 0 -29 -9.5t-11 -26.5h-132q0 58 47 92.5t130 34.5
q75 0 119.5 -29t44.5 -81q0 -35 -20.5 -58.5t-62.5 -33.5q42 -7 65 -31.5t23 -60.5q0 -55 -48.5 -88.5t-133.5 -33.5q-84 0 -127 35z" />
    <glyph glyph-name="uni2154" unicode="&#x2154;" horiz-adv-x="1010" 
d="M57.5 412q25.5 46 83.5 74l72 35q36 16 36 46q0 14 -9 22.5t-24 8.5q-20 0 -31 -12t-11 -35h-133q0 63 47.5 101.5t126.5 38.5t123 -32t44 -88q0 -42 -20 -71t-62 -49l-60 -29q-16 -9 -25 -16.5t-15 -19.5h175v-100h-343q0 80 25.5 126zM237 31l472 682l94 -59l-472 -682
zM662 24q-43 35 -43 104h133q0 -41 43 -41q18 0 28 9t10 25q0 36 -46 36h-56v92h57q46 0 46 34q0 15 -10 23t-27 8q-18 0 -29 -9.5t-11 -26.5h-132q0 58 47 92.5t130 34.5q75 0 119.5 -29t44.5 -81q0 -35 -20.5 -58.5t-62.5 -33.5q42 -7 65 -31.5t23 -60.5
q0 -55 -48.5 -88.5t-133.5 -33.5q-84 0 -127 35z" />
    <glyph glyph-name="colon.case" horiz-adv-x="335" 
d="M86 20.5q-33 33.5 -33 79.5t33 79t82 33q48 0 81 -33t33 -79t-33 -79.5t-81 -33.5q-49 0 -82 33.5zM86 325.5q-33 33.5 -33 79.5t33 79t82 33q48 0 81 -33t33 -79t-33 -79.5t-81 -33.5q-49 0 -82 33.5z" />
    <glyph glyph-name="exclamdown.case" horiz-adv-x="337" 
d="M65 0h207v435h-207v-435zM80.5 675.5q-35.5 -35.5 -35.5 -86.5q0 -50 35.5 -85.5t87.5 -35.5t88 35.5t36 85.5q0 51 -36 86.5t-88 35.5t-87.5 -35.5z" />
    <glyph glyph-name="questiondown.case" horiz-adv-x="541" 
d="M382 421q0 -50 -17 -80.5t-63 -56.5l-48 -28q-25 -16 -36.5 -32.5t-11.5 -41.5q0 -28 17 -44.5t46 -16.5q36 0 57.5 21t21.5 65h205q0 -60 -29.5 -112t-94 -84.5t-164.5 -32.5q-116 0 -190.5 48.5t-74.5 145.5q0 59 27 98.5t69 69.5l44 30q20 14 28 25t8 26v10h206v-10z
M366.5 672.5q35.5 -35.5 35.5 -86.5q0 -50 -35.5 -85.5t-86.5 -35.5q-53 0 -88.5 35.5t-35.5 85.5q0 51 35.5 86.5t88.5 35.5q51 0 86.5 -35.5z" />
    <glyph glyph-name="quotedbl.case" horiz-adv-x="520" 
d="M235 539l-60 -196h-65l-60 196q-13 37 -13 62q0 45 30 77t75 32t75.5 -32t30.5 -77q0 -25 -13 -62zM470 539l-60 -196h-65l-60 196q-13 37 -13 62q0 45 30 77t75 32t75.5 -32t30.5 -77q0 -25 -13 -62z" />
    <glyph glyph-name="quotesingle.case" horiz-adv-x="285" 
d="M235 539l-60 -196h-65l-60 196q-13 37 -13 62q0 45 30 77t75 32t75.5 -32t30.5 -77q0 -25 -13 -62z" />
    <glyph glyph-name="semicolon.case" horiz-adv-x="342" 
d="M51 -156v69q24 -3 44 -3q53 0 81 30q27 27 30 66q-7 -8 -21 -12.5t-30 -4.5q-50 0 -79 32t-29 79t32.5 79t82.5 32q56 0 93 -42.5t37 -117.5q0 -104 -53.5 -157.5t-150.5 -53.5q-15 0 -37 4zM86 325.5q-33 33.5 -33 79.5t33 79t82 33q48 0 81 -33t33 -79t-33 -79.5
t-81 -33.5q-49 0 -82 33.5z" />
    <glyph glyph-name="underscore.case" horiz-adv-x="533" 
d="M0 -22h533v-109h-533v109z" />
    <glyph glyph-name="colon.tf" horiz-adv-x="320" 
d="M78 20.5q-33 33.5 -33 79.5t33 79t82 33q48 0 81 -33t33 -79t-33 -79.5t-81 -33.5q-49 0 -82 33.5zM78 325.5q-33 33.5 -33 79.5t33 79t82 33q48 0 81 -33t33 -79t-33 -79.5t-81 -33.5q-49 0 -82 33.5z" />
    <glyph glyph-name="comma.tf" horiz-adv-x="320" 
d="M41 -156v69q24 -3 44 -3q53 0 81 30q27 25 30 66q-7 -8 -20.5 -12.5t-30.5 -4.5q-50 0 -79 32t-29 79q0 46 32.5 78.5t82.5 32.5q57 0 93.5 -42t36.5 -118q0 -104 -53.5 -157.5t-150.5 -53.5q-15 0 -37 4z" />
    <glyph glyph-name="period.tf" horiz-adv-x="320" 
d="M79 20.5q-33 33.5 -33 79.5t33 79t81 33t81 -33t33 -79t-33 -79.5t-81 -33.5t-81 33.5z" />
    <glyph glyph-name="semicolon.tf" horiz-adv-x="320" 
d="M41 -156v69q24 -3 44 -3q53 0 81 30q27 27 30 66q-7 -8 -21 -12.5t-30 -4.5q-50 0 -79 32t-29 79t32.5 79t82.5 32q56 0 93 -42.5t37 -117.5q0 -104 -53.5 -157.5t-150.5 -53.5q-15 0 -37 4zM76 325.5q-33 33.5 -33 79.5t33 79t82 33q48 0 81 -33t33 -79t-33 -79.5
t-81 -33.5q-49 0 -82 33.5z" />
    <glyph glyph-name="slash.tf" 
d="M83 -14l331 769l143 -61l-331 -769z" />
    <glyph glyph-name="underscore.tf" 
d="M0 -82h640v-108h-640v108z" />
    <glyph glyph-name="uni208D" unicode="&#x208d;" horiz-adv-x="284" 
d="M80.5 -39q-36.5 67 -36.5 157t36.5 157t100.5 126l84 -71q-53 -53 -76 -99t-23 -113t23 -113.5t76 -98.5l-84 -71q-64 59 -100.5 126z" />
    <glyph glyph-name="uni208E" unicode="&#x208e;" horiz-adv-x="284" 
d="M203.5 -39q36.5 67 36.5 157t-36.5 157t-100.5 126l-84 -71q53 -53 76 -99t23 -113t-23 -113.5t-76 -98.5l84 -71q64 59 100.5 126z" />
    <glyph glyph-name="uni207D" unicode="&#x207d;" horiz-adv-x="284" 
d="M80.5 451q-36.5 67 -36.5 157t36.5 157t100.5 126l84 -71q-53 -53 -76 -99t-23 -113t23 -113.5t76 -98.5l-84 -71q-64 59 -100.5 126z" />
    <glyph glyph-name="uni207E" unicode="&#x207e;" horiz-adv-x="284" 
d="M203.5 451q36.5 67 36.5 157t-36.5 157t-100.5 126l-84 -71q53 -53 76 -99t23 -113t-23 -113.5t-76 -98.5l84 -71q64 59 100.5 126z" />
    <glyph glyph-name="braceleft.case" horiz-adv-x="398" 
d="M144.5 -58.5q-49.5 47.5 -49.5 132.5v108q0 39 -23 57.5t-59 18.5v180q36 0 59 18.5t23 57.5v119q0 85 49.5 132.5t137.5 47.5h107v-153h-45q-42 0 -62 -25.5t-20 -61.5v-109q0 -59 -30 -86t-63 -30q33 -3 63 -30t30 -86v-97q0 -37 20 -62.5t62 -25.5h45v-153h-107
q-88 0 -137.5 47.5z" />
    <glyph glyph-name="braceright.case" horiz-adv-x="398" 
d="M253.5 -58.5q49.5 47.5 49.5 132.5v108q0 39 23 57.5t59 18.5v180q-36 0 -59 18.5t-23 57.5v119q0 85 -49.5 132.5t-137.5 47.5h-107v-153h45q42 0 62 -25.5t20 -61.5v-109q0 -59 30 -86t63 -30q-33 -3 -63 -30t-30 -86v-97q0 -37 -20 -62.5t-62 -25.5h-45v-153h107
q88 0 137.5 47.5z" />
    <glyph glyph-name="bracketleft.case" horiz-adv-x="354" 
d="M62 813h280v-156h-114v-614h114v-156h-280v926z" />
    <glyph glyph-name="bracketright.case" horiz-adv-x="354" 
d="M292 813h-280v-156h114v-614h-114v-156h280v926z" />
    <glyph glyph-name="parenleft.case" horiz-adv-x="378" 
d="M97.5 83q-60.5 114 -60.5 269q0 154 60.5 268t168.5 214l124 -105q-92 -91 -133 -174.5t-41 -202.5t41 -203t133 -175l-124 -105q-108 100 -168.5 214z" />
    <glyph glyph-name="parenright.case" horiz-adv-x="378" 
d="M280.5 83q60.5 114 60.5 269q0 154 -60.5 268t-168.5 214l-124 -105q92 -91 133 -174.5t41 -202.5t-41 -203t-133 -175l124 -105q108 100 168.5 214z" />
    <glyph glyph-name="parenleft.tf" 
d="M203.5 2.5q-60.5 114.5 -60.5 269.5q0 154 60.5 268.5t169.5 213.5l123 -105q-92 -91 -133 -174.5t-41 -202.5t41 -203t133 -175l-123 -105q-109 99 -169.5 213.5z" />
    <glyph glyph-name="parenright.tf" 
d="M435.5 3q60.5 114 60.5 269q0 154 -60.5 268t-168.5 214l-124 -105q92 -91 133 -174.5t41 -202.5t-41 -203t-133 -175l124 -105q108 100 168.5 214z" />
    <glyph glyph-name="emdash.case" horiz-adv-x="810" 
d="M40 442h730v-144h-730v144z" />
    <glyph glyph-name="endash.case" horiz-adv-x="601" 
d="M13 442h548v-144h-548v144z" />
    <glyph glyph-name="hyphen.case" horiz-adv-x="392" 
d="M27 444h325v-148h-325v148z" />
    <glyph glyph-name="hyphen.tf" 
d="M107 364h426v-148h-426v148z" />
    <glyph glyph-name="guillemotleft.case" horiz-adv-x="587" 
d="M2 335l227 218l86 -95l-132 -123l132 -124l-86 -94zM264 335l227 218l86 -95l-132 -123l132 -124l-86 -94z" />
    <glyph glyph-name="guillemotright.case" horiz-adv-x="587" 
d="M585 335l-227 218l-86 -95l132 -123l-132 -124l86 -94zM323 335l-227 218l-86 -95l132 -123l-132 -124l86 -94z" />
    <glyph glyph-name="guilsinglleft.case" horiz-adv-x="325" 
d="M2 335l227 218l86 -95l-132 -123l132 -124l-86 -94z" />
    <glyph glyph-name="guilsinglright.case" horiz-adv-x="325" 
d="M323 335l-227 218l-86 -95l132 -123l-132 -124l86 -94z" />
    <glyph glyph-name="parenleft.dnom" horiz-adv-x="284" 
d="M80.5 31q-36.5 67 -36.5 157t36.5 157t100.5 126l84 -71q-53 -53 -76 -99t-23 -113t23 -113.5t76 -98.5l-84 -71q-64 59 -100.5 126z" />
    <glyph glyph-name="parenright.dnom" horiz-adv-x="284" 
d="M203.5 31q36.5 67 36.5 157t-36.5 157t-100.5 126l-84 -71q53 -53 76 -99t23 -113t-23 -113.5t-76 -98.5l84 -71q64 59 100.5 126z" />
    <glyph glyph-name="parenleft.numr" horiz-adv-x="284" 
d="M80.5 341q-36.5 67 -36.5 157t36.5 157t100.5 126l84 -71q-53 -53 -76 -99t-23 -113t23 -113.5t76 -98.5l-84 -71q-64 59 -100.5 126z" />
    <glyph glyph-name="parenright.numr" horiz-adv-x="284" 
d="M19 286q53 52 76 98.5t23 113.5t-23 113t-76 99l84 71q64 -59 100.5 -126t36.5 -157t-36.5 -157t-100.5 -126z" />
    <glyph glyph-name="uni2003" unicode="&#x2003;" horiz-adv-x="1000" 
 />
    <glyph glyph-name="uni2002" unicode="&#x2002;" horiz-adv-x="500" 
 />
    <glyph glyph-name="uni2005" unicode="&#x2005;" horiz-adv-x="250" 
 />
    <glyph glyph-name="uni200A" unicode="&#x200a;" horiz-adv-x="75" 
 />
    <glyph glyph-name="uni00A0" unicode="&#xa0;" horiz-adv-x="247" 
 />
    <glyph glyph-name="uni2009" unicode="&#x2009;" horiz-adv-x="135" 
 />
    <glyph glyph-name="uni2004" unicode="&#x2004;" horiz-adv-x="0" 
 />
    <glyph glyph-name="uni0E3F" unicode="&#xe3f;" horiz-adv-x="661" 
d="M598 295.5q40 -42.5 40 -108.5q0 -86 -61.5 -136.5t-164.5 -50.5h-25v-100h-95v100h-230v679h230v101h95v-101h17q103 0 163 -47.5t60 -127.5q0 -64 -36.5 -106t-98.5 -53q66 -7 106 -49.5zM270 547v-140h66q38 0 60.5 19t22.5 52q0 32 -22 50.5t-61 18.5h-66z
M403.5 164.5q22.5 19.5 22.5 52.5q0 32 -23 51t-61 19h-72v-142h71q40 0 62.5 19.5z" />
    <glyph glyph-name="uni20BA" unicode="&#x20ba;" horiz-adv-x="610" 
d="M607 281q0 -143 -80 -212t-247 -69h-196v210l-44 -21v85l44 21v52l-44 -21v85l44 21v248h209v-148l117 56v-85l-117 -56v-52l117 56v-85l-117 -56v-142q50 0 81.5 27t31.5 86h201z" />
    <glyph glyph-name="uni20BD" unicode="&#x20bd;" horiz-adv-x="675" 
d="M278 159v-41h145v-67h-145v-51h-208v51h-70v67h70v41h-70v161h70v360h338q74 0 134 -34t93.5 -93.5t33.5 -133.5t-34 -133.5t-93.5 -93t-133.5 -33.5h-130zM278 320h86q40 0 66.5 28t26.5 71t-26 71t-66 28h-87v-198z" />
    <glyph glyph-name="uni20B9" unicode="&#x20b9;" horiz-adv-x="550" 
d="M477 458h73l-27 -78h-46q-8 -63 -42 -112.5t-87 -77.5l144 -190h-245l-117 159h-87v161h133q30 0 52.5 16.5t32.5 43.5h-218v78h218q-10 27 -32.5 43.5t-52.5 16.5h-133v162h507l-27 -78h-113q57 -60 67 -144z" />
    <glyph glyph-name="uni0E3F.case" horiz-adv-x="661" 
d="M598 305q40 -43 40 -112q0 -88 -61 -140.5t-165 -52.5h-25v-103h-95v103h-230v700h230v104h95v-104h17q103 0 163 -49t60 -132q0 -66 -36.5 -109.5t-98.5 -53.5q66 -8 106 -51zM270 566v-148h66q38 0 60.5 20t22.5 55q0 34 -22 53.5t-61 19.5h-66zM403.5 166
q22.5 21 22.5 56q0 34 -23 54.5t-61 20.5h-72v-152h71q40 0 62.5 21z" />
    <glyph glyph-name="cent.case" horiz-adv-x="566" 
d="M332 257.5q16 15.5 22 46.5h197q-9 -91 -66.5 -149.5t-151.5 -71.5v-83h-95v83q-103 14 -163 85t-60 178q0 108 60 179t163 85v90h95v-90q94 -13 151.5 -72t66.5 -151h-197q-6 32 -22 47.5t-45 15.5q-35 0 -55.5 -27.5t-20.5 -76.5t20.5 -76.5t55.5 -27.5q29 0 45 15.5z
" />
    <glyph glyph-name="dollar.case" horiz-adv-x="604" 
d="M524 54q-62 -61 -172 -71v-87h-95v88q-116 13 -178 79.5t-62 172.5h208q0 -49 23 -76.5t63 -27.5q32 0 49 16t17 45q0 23 -13 40t-48 28l-137 41q-71 22 -110.5 72.5t-39.5 127.5q0 93 64.5 150.5t163.5 67.5v89h95v-90q116 -13 170 -75t54 -149h-208q0 43 -18.5 65
t-51.5 22q-27 0 -43.5 -15t-16.5 -41t15.5 -43t55.5 -31l131 -42q71 -23 108.5 -73.5t37.5 -127.5q0 -94 -62 -155z" />
    <glyph glyph-name="Euro.case" horiz-adv-x="678" 
d="M436 215h204q-19 -105 -87 -168.5t-190 -63.5q-134 0 -202 73.5t-85 197.5h-63l27 80h30v19v22h-57l27 80h37q17 122 85.5 194.5t200.5 72.5q126 0 195 -63.5t89 -167.5h-204q-14 78 -78 78q-39 0 -60 -29t-29 -85h148l-26 -80h-128v-22v-19h154l-26 -80h-123
q8 -59 28.5 -88.5t59.5 -29.5q60 0 73 79z" />
    <glyph glyph-name="florin.case" horiz-adv-x="456" 
d="M344 530l-3 -18h104l-24 -137h-103l-66 -391q-18 -107 -74 -150t-148 -43q-65 0 -107 14l23 129q24 -6 45 -6q29 0 44.5 14t21.5 46l64 387h-77l24 137h76l3 19q16 99 77 145t153 46q67 0 103 -14l-23 -122q-22 7 -45 7q-59 0 -68 -63z" />
    <glyph glyph-name="uni20B4.case" horiz-adv-x="620" 
d="M424 320h194l-20 -62h-313q-29 -15 -40.5 -30t-11.5 -39q0 -30 18.5 -47t51.5 -17q36 0 56.5 18t20.5 49h205q0 -63 -34.5 -110.5t-99.5 -73t-153 -25.5q-80 0 -140 26t-92.5 73.5t-32.5 111.5q0 37 10 64h-41l20 62h58q38 39 109 70h-187l20 62h303q28 16 37.5 34
t9.5 44t-15 42t-41 16q-32 0 -49 -16t-17 -45h-205q0 53 33.5 97.5t96 71t144.5 26.5q120 0 189 -53t69 -145q0 -39 -11 -72h52l-20 -62h-70q-35 -38 -104 -70z" />
    <glyph glyph-name="uni20BA.case" horiz-adv-x="610" 
d="M607 288q0 -147 -80 -217.5t-247 -70.5h-196v216l-44 -21v87l44 21v54l-44 -21v87l44 21v256h209v-154l117 57v-87l-117 -57v-54l117 57v-88l-117 -57v-150q50 0 81.5 29t31.5 92h201z" />
    <glyph glyph-name="uni20BD.case" horiz-adv-x="675" 
d="M278 165v-42h145v-69h-145v-54h-208v54h-70v69h70v42h-70v162h70v373h338q74 0 134 -34.5t93.5 -95.5t33.5 -137t-34 -137.5t-93.5 -96t-133.5 -34.5h-130zM278 327h86q41 0 67 30t26 76t-26 76t-66 30h-87v-212z" />
    <glyph glyph-name="uni20B9.case" horiz-adv-x="550" 
d="M477 473h73l-27 -80h-46q-8 -65 -42 -116t-88 -80l145 -197h-245l-116 165h-88v162h133q30 0 53 18t33 48h-219v80h219q-10 30 -33 48t-53 18h-133v161h507l-27 -80h-113q57 -61 67 -147z" />
    <glyph glyph-name="sterling.case" horiz-adv-x="629" 
d="M281 205.5q-11 -31.5 -29 -45.5h335v-160h-557v131q24 16 39 51.5t15 84.5v42h-56v103h56v69q0 119 71.5 180t193.5 61q129 0 197.5 -62t68.5 -165h-209q0 39 -15 58t-42 19q-57 0 -57 -84v-76h144v-103h-144v-33q0 -39 -11 -70.5z" />
    <glyph glyph-name="uni20B8.case" horiz-adv-x="579" 
d="M5 700h569v-119h-569v119zM185 367h-180v164h569v-164h-180v-367h-209v367z" />
    <glyph glyph-name="uni0E3F.tf.case" 
d="M548 305q40 -43 40 -112q0 -90 -53.5 -141.5t-152.5 -51.5h-24v-103h-91v103h-215v700h215v104h91v-104h16q98 0 150.5 -48t52.5 -133q0 -65 -36.5 -108.5t-98.5 -54.5q66 -8 106 -51zM240 567v-148h66q38 0 60.5 20t22.5 55q0 34 -22 53.5t-61 19.5h-66zM373.5 166
q22.5 21 22.5 56q0 34 -23 54.5t-61 20.5h-72v-152h71q40 0 62.5 21z" />
    <glyph glyph-name="cent.tf.case" 
d="M355 257.5q16 15.5 22 46.5h197q-9 -91 -66.5 -149.5t-151.5 -71.5v-83h-95v83q-103 14 -163 85t-60 178q0 108 60 179t163 85v90h95v-90q94 -13 151.5 -72t66.5 -151h-197q-6 32 -22 47.5t-45 15.5q-35 0 -55.5 -27.5t-20.5 -76.5t20.5 -76.5t55.5 -27.5q29 0 45 15.5z
" />
    <glyph glyph-name="dollar.tf.case" 
d="M543 54q-62 -61 -172 -71v-87h-95v88q-116 13 -178 79.5t-62 172.5h208q0 -49 23 -76.5t63 -27.5q32 0 49 16t17 45q0 23 -13 40t-48 28l-137 41q-71 22 -110.5 72.5t-39.5 127.5q0 93 64.5 150.5t163.5 67.5v89h95v-90q116 -13 170 -75t54 -149h-208q0 43 -18.5 65
t-51.5 22q-27 0 -43.5 -15t-16.5 -41t15.5 -43t55.5 -31l131 -42q71 -23 108.5 -73.5t37.5 -127.5q0 -94 -62 -155z" />
    <glyph glyph-name="Euro.tf.case" 
d="M411 215h208q-19 -105 -84.5 -168.5t-184.5 -63.5q-241 0 -277 271h-60l27 80h27v19v22h-54l27 80h33q38 267 277 267q123 0 190 -63t87 -168h-208q-7 38 -23 58t-44 20q-33 0 -51.5 -29t-25.5 -85h133l-26 -80h-112v-22v-19h138l-26 -80h-108q7 -59 25 -88.5t51 -29.5
q48 0 61 79z" />
    <glyph glyph-name="florin.tf.case" 
d="M462 530l-3 -18h104l-24 -137h-103l-66 -391q-18 -107 -74 -150t-148 -43q-65 0 -107 14l23 129q24 -6 45 -6q29 0 44.5 14t21.5 46l64 387h-77l24 137h76l3 19q16 99 77 145t153 46q67 0 103 -14l-23 -122q-22 7 -45 7q-59 0 -68 -63z" />
    <glyph glyph-name="uni20B4.tf.case" 
d="M427 320h192v-62h-319q-30 -16 -42 -30.5t-12 -38.5q0 -30 19 -47t52 -17q36 0 56 18t20 49h205q0 -63 -34 -110.5t-98.5 -73t-152.5 -25.5q-76 0 -133.5 26t-88.5 73.5t-31 111.5q0 36 9 64h-48v62h84q33 36 99 68l4 2h-187v62h317q28 17 37.5 34.5t9.5 43.5t-14.5 42
t-41.5 16q-32 0 -48.5 -16t-16.5 -45h-205q0 53 32 97.5t93 71t143 26.5q115 0 182.5 -53.5t67.5 -144.5q0 -39 -11 -72h53v-62h-90q-33 -37 -102 -70z" />
    <glyph glyph-name="uni20BA.tf.case" 
d="M597 288q0 -147 -77.5 -217.5t-236.5 -70.5h-196v216l-44 -21v87l44 21v54l-44 -21v87l44 21v256h209v-154l117 57v-87l-117 -57v-54l117 57v-88l-117 -57v-150q45 0 72.5 29t27.5 92h201z" />
    <glyph glyph-name="uni20BD.tf.case" 
d="M277 165v-42h105v-69h-105v-54h-208v54h-63v69h63v42h-63v162h63v373h295q74 0 136 -34.5t98 -95.5t36 -137t-36 -137t-98 -96t-136 -35h-87zM277 327h53q40 0 66.5 30t26.5 76t-26.5 76t-65.5 30h-54v-212z" />
    <glyph glyph-name="uni20B9.tf.case" 
d="M500 473h73l-27 -80h-46q-8 -65 -42 -116t-88 -80l145 -197h-245l-116 165h-88v162h133q30 0 53 18t33 48h-219v80h219q-10 30 -33 48t-53 18h-133v161h507l-27 -80h-113q57 -61 67 -147z" />
    <glyph glyph-name="sterling.tf.case" 
d="M279 205.5q-11 -31.5 -29 -45.5h335v-160h-557v131q24 16 39 51.5t15 84.5v42h-56v103h56v69q0 119 71.5 180t193.5 61q129 0 197.5 -62t68.5 -165h-209q0 39 -15 58t-42 19q-57 0 -57 -84v-76h144v-103h-144v-33q0 -39 -11 -70.5z" />
    <glyph glyph-name="uni20B8.tf.case" 
d="M35 700h569v-119h-569v119zM215 367h-180v164h569v-164h-180v-367h-209v367z" />
    <glyph glyph-name="uni20AE.tf.case" 
d="M424 523v-90l95 41v-88l-95 -40v-48l95 41v-87l-95 -41v-211h-209v122l-94 -40v87l94 40v48l-94 -40v87l94 40v179h-180v177h569v-177h-180z" />
    <glyph glyph-name="uni20A9.tf.case" 
d="M583 460h30v-93h-44l-8 -61h52v-94h-66l-31 -212h-159l-38 467l-36 -467h-160l-31 212h-64v94h50l-8 61h-42v93h28l-35 240h154l39 -490l40 490h130l41 -490l40 490h153z" />
    <glyph glyph-name="yen.tf.case" 
d="M424 161h127v-86h-127v-75h-208v75h-126v86h126v51h-126v87h121l-215 401h206l118 -263l119 263h206l-215 -401h120v-87h-126v-51z" />
    <glyph glyph-name="uni20AE.case" horiz-adv-x="579" 
d="M394 523v-90l95 41v-88l-95 -40v-48l95 41v-87l-95 -41v-211h-209v122l-94 -40v87l94 40v48l-94 -40v87l94 40v179h-180v177h569v-177h-180z" />
    <glyph glyph-name="uni20A9.case" horiz-adv-x="871" 
d="M771 364l-12 -58h94v-97h-114l-44 -209h-170l-89 448l-89 -448h-170l-44 209h-115v97h95l-12 58h-83v96h62l-50 240h172l71 -476l92 476h141l93 -476l70 476h173l-50 -240h61v-96h-82z" />
    <glyph glyph-name="yen.case" horiz-adv-x="639" 
d="M423 161h127v-86h-127v-75h-208v75h-126v86h126v51h-126v87h121l-215 401h206l118 -263l119 263h206l-215 -401h120v-87h-126v-51z" />
    <glyph glyph-name="uni0E3F.tf" 
d="M548 295.5q40 -42.5 40 -108.5q0 -87 -53.5 -137t-152.5 -50h-24v-100h-91v100h-215v679h215v101h91v-101h16q98 0 150.5 -46.5t52.5 -128.5q0 -64 -36.5 -106t-98.5 -53q66 -7 106 -49.5zM240 547v-140h66q38 0 60.5 19t22.5 52q0 32 -22 50.5t-61 18.5h-66z
M373.5 164.5q22.5 19.5 22.5 52.5q0 32 -23 51t-61 19h-72v-142h71q40 0 62.5 19.5z" />
    <glyph glyph-name="currency.tf" 
d="M46 160l53 53q-52 69 -52 158q0 88 52 157l-53 53l71 71l56 -56q67 40 147 40t147 -40l56 56l71 -71l-53 -53q52 -69 52 -157q0 -89 -52 -158l52 -53l-70 -71l-56 56q-67 -40 -147 -40t-147 40l-56 -56zM387.5 300.5q25.5 27.5 25.5 70.5q0 42 -26 70t-67 28t-67 -28
t-26 -70q0 -43 26 -70.5t67 -27.5q42 0 67.5 27.5z" />
    <glyph glyph-name="uni20BA.tf" 
d="M597 281q0 -143 -77.5 -212t-236.5 -69h-196v210l-44 -21v85l44 21v52l-44 -21v85l44 21v248h209v-148l117 56v-85l-117 -56v-52l117 56v-85l-117 -56v-142q45 0 72.5 26.5t27.5 86.5h201z" />
    <glyph glyph-name="uni20BD.tf" 
d="M277 159v-41h105v-67h-105v-51h-208v51h-63v67h63v41h-63v161h63v360h295q74 0 136 -34t98 -93.5t36 -133.5t-36 -133t-98 -93t-136 -34h-87zM277 320h53q40 0 66.5 28t26.5 71t-26.5 71t-65.5 28h-54v-198z" />
    <glyph glyph-name="uni20B9.tf" 
d="M500 458h73l-27 -78h-46q-8 -63 -42 -112.5t-87 -77.5l144 -190h-245l-117 159h-87v161h133q30 0 52.5 16.5t32.5 43.5h-218v78h218q-10 27 -32.5 43.5t-52.5 16.5h-133v162h507l-27 -78h-113q57 -60 67 -144z" />
    <glyph glyph-name="uni208C" unicode="&#x208c;" horiz-adv-x="431" 
d="M68 216h295v-87h-295v87zM68 69h295v-87h-295v87z" />
    <glyph glyph-name="uni207C" unicode="&#x207c;" horiz-adv-x="431" 
d="M68 706h295v-87h-295v87zM68 559h295v-87h-295v87z" />
    <glyph glyph-name="uni208B" unicode="&#x208b;" horiz-adv-x="430" 
d="M68 147h294v-101h-294v101z" />
    <glyph glyph-name="uni207B" unicode="&#x207b;" horiz-adv-x="430" 
d="M68 637h294v-101h-294v101z" />
    <glyph glyph-name="emptyset" unicode="&#x2205;" 
d="M501 452q41 -57 41 -135q0 -65 -28.5 -115.5t-79 -78.5t-114.5 -28q-77 0 -135 41l-58 -58l-46 46l58 58q-41 57 -41 135q0 65 28.5 115.5t79 78.5t114.5 28q77 0 135 -41l58 58l46 -46zM213 256l171 171q-29 16 -63 16q-54 0 -87.5 -34.5t-33.5 -91.5q0 -33 13 -61z
M428 379l-172 -172q30 -16 65 -16q53 0 86.5 34.5t33.5 91.5q0 33 -13 62z" />
    <glyph glyph-name="uni2126" unicode="&#x2126;" horiz-adv-x="700" 
d="M32 151h135v13q-71 38 -110 102t-39 142q0 81 40.5 151t116 111.5t175.5 41.5t175.5 -41.5t116 -111.5t40.5 -151q0 -78 -39.5 -143t-109.5 -102v-12h135v-151h-295v255q48 11 74 48t26 89q0 57 -32.5 94.5t-90.5 37.5t-90.5 -37.5t-32.5 -94.5q0 -51 26 -88t74 -48v-256
h-295v151z" />
    <glyph glyph-name="uni2206" unicode="&#x2206;" horiz-adv-x="750" 
d="M263 700h218l264 -700h-740zM468 151l-96 339l-97 -339h193z" />
    <glyph glyph-name="uni00B5" unicode="&#xb5;" horiz-adv-x="647" 
d="M591 497v-497h-197v74q-16 -36 -46.5 -57t-73.5 -21q-12 0 -21 3v-189h-196v687h199v-260q0 -87 67 -87q71 0 71 93v254h197z" />
    <glyph glyph-name="uni208A" unicode="&#x208a;" horiz-adv-x="430" 
d="M165 49h-97v96h97v92h100v-92h97v-96h-97v-92h-100v92z" />
    <glyph glyph-name="uni207A" unicode="&#x207a;" horiz-adv-x="430" 
d="M165 539h-97v96h97v92h100v-92h97v-96h-97v-92h-100v92z" />
    <glyph glyph-name="plus.case" horiz-adv-x="565" 
d="M204 275h-164v148h164v162h157v-162h164v-148h-164v-161h-157v161z" />
    <glyph glyph-name="minus.case" horiz-adv-x="565" 
d="M40 423h485v-148h-485v148z" />
    <glyph glyph-name="multiply.case" horiz-adv-x="568" 
d="M389 349l138 -139l-104 -105l-139 139l-139 -138l-105 104l139 139l-139 139l105 105l139 -139l139 139l105 -105z" />
    <glyph glyph-name="divide.case" horiz-adv-x="565" 
d="M212 471q-29 29 -29 70q0 42 29 70.5t71 28.5q43 0 71.5 -28.5t28.5 -70.5q0 -41 -29 -70t-71 -29t-71 29zM40 419h485v-148h-485v148zM212 81q-29 29 -29 71q0 41 29 69.5t71 28.5t71 -28.5t29 -69.5q0 -42 -29 -71t-71 -29t-71 29z" />
    <glyph glyph-name="equal.case" horiz-adv-x="572" 
d="M40 539h492v-148h-492v148zM40 314h492v-149h-492v149z" />
    <glyph glyph-name="notequal.case" horiz-adv-x="572" 
d="M370 391l-33 -77h195v-148h-259l-43 -100h-128l43 100h-105v148h168l34 77h-202v148h265l37 86h129l-37 -86h98v-148h-162z" />
    <glyph glyph-name="greater.case" horiz-adv-x="549" 
d="M509 264v164l-469 179v-174l245 -87l-245 -87v-174z" />
    <glyph glyph-name="less.case" horiz-adv-x="549" 
d="M40 264v163l469 180v-175l-245 -86l245 -87v-174z" />
    <glyph glyph-name="greaterequal.case" horiz-adv-x="567" 
d="M41 383l259 46l-259 47v141l483 -120v-136l-483 -119v141zM41 210h486v-128h-486v128z" />
    <glyph glyph-name="lessequal.case" horiz-adv-x="567" 
d="M526 383l-259 46l259 47v141l-483 -120v-136l483 -119v141zM526 210h-486v-128h486v128z" />
    <glyph glyph-name="approxequal.case" horiz-adv-x="571" 
d="M352 361q-25 8 -62 24q-41 18 -68.5 26.5t-63.5 8.5q-52 0 -118 -55v146q26 31 59.5 45t64.5 14q26 0 57.5 -9.5t78.5 -27.5q42 -16 66 -23.5t43 -7.5q59 0 122 55v-146q-25 -30 -58 -44t-65 -14q-31 0 -56 8zM350.5 143.5q-26.5 8.5 -60.5 24.5q-41 18 -68.5 26.5
t-63.5 8.5q-54 0 -117 -55v147q25 30 58 44t65 14q27 0 59 -9.5t77 -27.5q46 -17 68.5 -23.5t40.5 -6.5q59 0 122 55v-147q-25 -31 -58.5 -45t-64.5 -14t-57.5 8.5z" />
    <glyph glyph-name="logicalnot.case" horiz-adv-x="565" 
d="M373 375h-333v147h485v-340h-152v193z" />
    <glyph glyph-name="plus.tf.case" 
d="M241 273h-164v149h164v161h158v-161h164v-149h-164v-161h-158v161z" />
    <glyph glyph-name="minus.tf.case" 
d="M77 422h486v-149h-486v149z" />
    <glyph glyph-name="multiply.tf.case" 
d="M425 348l138 -139l-104 -105l-139 139l-139 -139l-105 105l139 139l-139 138l105 105l139 -139l139 139l105 -104z" />
    <glyph glyph-name="divide.tf.case" 
d="M249 469q-29 29 -29 71q0 41 29 70t71 29t71 -29t29 -70q0 -42 -29 -71t-71 -29t-71 29zM77 417h486v-148h-486v148zM249 80q-29 29 -29 70t29 69.5t71 28.5t71 -28.5t29 -69.5t-28.5 -70t-71.5 -29q-42 0 -71 29z" />
    <glyph glyph-name="equal.tf.case" 
d="M74 537h492v-148h-492v148zM74 312h492v-148h-492v148z" />
    <glyph glyph-name="notequal.tf.case" 
d="M404 389l-33 -77h195v-148h-259l-43 -100h-128l43 100h-105v148h168l34 77h-202v148h265l37 86h129l-37 -86h98v-148h-162z" />
    <glyph glyph-name="greater.tf.case" 
d="M554 262v164l-469 179v-174l245 -87l-245 -87v-174z" />
    <glyph glyph-name="less.tf.case" 
d="M85 262v164l469 179v-174l-245 -87l245 -87v-174z" />
    <glyph glyph-name="greaterequal.tf.case" 
d="M78 378l259 46l-259 47v141l482 -120v-136l-482 -119v141zM78 205h485v-128h-485v128z" />
    <glyph glyph-name="lessequal.tf.case" 
d="M562 378l-259 46l259 47v141l-482 -120v-136l482 -119v141zM562 205h-485v-128h485v128z" />
    <glyph glyph-name="plusminus.tf.case" 
d="M240 407h-163v148h163v92h159v-92h164v-148h-164v-91h-159v91zM77 271h486v-148h-486v148z" />
    <glyph glyph-name="approxequal.tf.case" 
d="M386 359q-25 8 -62 24q-39 18 -67.5 26.5t-64.5 8.5q-52 0 -118 -55v147q26 31 59.5 45t65.5 14q25 0 56.5 -9.5t78.5 -27.5q41 -16 66 -23.5t44 -7.5q60 0 121 55v-147q-25 -31 -58 -44.5t-65 -13.5q-31 0 -56 8zM385.5 142q-25.5 8 -61.5 25q-39 17 -67.5 26t-64.5 9
q-54 0 -117 -55v146q25 30 58 44t66 14q26 0 54 -8.5t81 -27.5q41 -16 66 -23.5t44 -7.5q58 0 121 55v-146q-25 -31 -58 -45t-65 -14q-31 0 -56.5 8z" />
    <glyph glyph-name="logicalnot.tf.case" 
d="M410 373h-333v148h485v-340h-152v192z" />
    <glyph glyph-name="plus.tf" 
d="M241 243h-164v149h164v161h158v-161h164v-149h-164v-161h-158v161z" />
    <glyph glyph-name="minus.tf" 
d="M77 392h486v-149h-486v149z" />
    <glyph glyph-name="multiply.tf" 
d="M425 318l138 -139l-104 -105l-139 139l-139 -139l-105 105l139 139l-139 138l105 105l139 -139l139 139l105 -104z" />
    <glyph glyph-name="divide.tf" 
d="M249 439q-29 29 -29 71q0 41 29 70t71 29t71 -29t29 -70q0 -42 -29 -71t-71 -29t-71 29zM77 387h486v-148h-486v148zM249 50q-29 29 -29 70t29 69.5t71 28.5t71 -28.5t29 -69.5t-28.5 -70t-71.5 -29q-42 0 -71 29z" />
    <glyph glyph-name="equal.tf" 
d="M74 507h492v-148h-492v148zM74 282h492v-148h-492v148z" />
    <glyph glyph-name="notequal.tf" 
d="M404 359l-33 -77h195v-148h-259l-43 -100h-128l43 100h-105v148h168l34 77h-202v148h265l37 86h129l-37 -86h98v-148h-162z" />
    <glyph glyph-name="greater.tf" 
d="M554 232v164l-469 179v-174l245 -87l-245 -87v-174z" />
    <glyph glyph-name="less.tf" 
d="M85 232v164l469 179v-174l-245 -87l245 -87v-174z" />
    <glyph glyph-name="greaterequal.tf" 
d="M78 343l259 46l-259 47v141l482 -120v-136l-482 -119v141zM78 170h485v-128h-485v128z" />
    <glyph glyph-name="lessequal.tf" 
d="M562 343l-259 46l259 47v141l-482 -120v-136l482 -119v141zM562 170h-485v-128h485v128z" />
    <glyph glyph-name="plusminus.tf" 
d="M240 377h-163v148h163v92h159v-92h164v-148h-164v-91h-159v91zM77 241h486v-148h-486v148z" />
    <glyph glyph-name="approxequal.tf" 
d="M386 329q-25 8 -62 24q-39 18 -67.5 26.5t-64.5 8.5q-52 0 -118 -55v147q26 31 59.5 45t65.5 14q25 0 56.5 -9.5t78.5 -27.5q41 -16 66 -23.5t44 -7.5q60 0 121 55v-147q-25 -31 -58 -44.5t-65 -13.5q-31 0 -56 8zM385.5 112q-25.5 8 -61.5 25q-39 17 -67.5 26t-64.5 9
q-54 0 -117 -55v146q25 30 58 44t66 14q26 0 54 -8.5t81 -27.5q41 -16 66 -23.5t44 -7.5q58 0 121 55v-146q-25 -31 -58 -45t-65 -14q-31 0 -56.5 8z" />
    <glyph glyph-name="logicalnot.tf" 
d="M410 343h-333v148h485v-340h-152v192z" />
    <glyph glyph-name="percent.tf" 
d="M74 17l435 686l66 -42l-435 -686zM81.5 372.5q-34.5 23.5 -53 62t-18.5 84.5t18.5 84.5t53 62t80.5 23.5q47 0 82 -23.5t53.5 -62.5t18.5 -84q0 -46 -18.5 -84.5t-53.5 -62t-82 -23.5q-46 0 -80.5 23.5zM199 466q13 20 13 53t-13 53t-37 20t-37 -20t-13 -53t13 -53
t37 -20t37 20zM396 15.5q-34 23.5 -52.5 62t-18.5 84.5t18.5 84.5t52.5 62t80 23.5q47 0 82 -23.5t53.5 -62.5t18.5 -84q0 -46 -18.5 -84.5t-53.5 -62t-82 -23.5q-46 0 -80 23.5zM513 109q13 20 13 53t-13 53t-37 20q-23 0 -36 -20t-13 -53t13 -53t36 -20q24 0 37 20z" />
    <glyph glyph-name="arrowup" unicode="&#x2191;" horiz-adv-x="588" 
d="M228 454l-110 -121l-88 81l264 286l264 -286l-88 -81l-110 122v-455h-132v454z" />
    <glyph glyph-name="uni2197" unicode="&#x2197;" horiz-adv-x="601" 
d="M30 149l321 322l-163 -9l-5 120l388 15l-14 -389l-121 6l10 164l-322 -322z" />
    <glyph glyph-name="arrowright" unicode="&#x2192;" horiz-adv-x="720" 
d="M343 174l122 110h-455v132h454l-121 110l81 88l286 -264l-286 -264z" />
    <glyph glyph-name="uni2198" unicode="&#x2198;" horiz-adv-x="601" 
d="M183 118l5 120l164 -9l-322 322l94 93l321 -321l-9 163l121 6l14 -389z" />
    <glyph glyph-name="arrowdown" unicode="&#x2193;" horiz-adv-x="588" 
d="M30 286l88 81l110 -122v455h132v-455l110 122l88 -81l-264 -286z" />
    <glyph glyph-name="uni2199" unicode="&#x2199;" horiz-adv-x="575" 
d="M31 492l121 -6l-9 -164l321 322l94 -93l-321 -322l163 9l5 -120l-388 -15z" />
    <glyph glyph-name="arrowleft" unicode="&#x2190;" horiz-adv-x="720" 
d="M10 350l286 264l81 -88l-122 -110h455v-132h-455l122 -110l-81 -88z" />
    <glyph glyph-name="uni2196" unicode="&#x2196;" horiz-adv-x="601" 
d="M156 377l9 -163l-120 -6l-15 389l389 -15l-6 -120l-164 9l322 -322l-93 -93z" />
    <glyph glyph-name="uniF8FF" unicode="&#xf8ff;" horiz-adv-x="800" 
d="M208.5 34q-82.5 51 -127.5 135.5t-45 180.5t45 180.5t127.5 135.5t191.5 51t191.5 -51t127.5 -135.5t45 -180.5t-45 -180.5t-127.5 -135.5t-191.5 -51t-191.5 51zM570 52q78 46 123.5 125t45.5 173q0 90 -44.5 169.5t-122.5 127.5t-172 48q-95 0 -173 -48t-122.5 -127.5
t-44.5 -169.5q0 -94 45.5 -173t123.5 -125t171 -46q92 0 170 46zM213.5 470q-12.5 13 -12.5 30q0 18 12.5 30.5t29.5 12.5q18 0 30.5 -12.5t12.5 -30.5q0 -17 -12.5 -30t-30.5 -13q-17 0 -29.5 13zM510.5 470q-12.5 13 -12.5 30q0 18 12.5 30.5t29.5 12.5q18 0 30.5 -12.5
t12.5 -30.5q0 -17 -12.5 -30t-30.5 -13q-17 0 -29.5 13zM398 527l-110 -243h178v-25h-247zM158 259l23 13q11 6 13 17.5t2 39.5h17q0 -34 -4.5 -48t-15.5 -21l-22 -13q-23 -13 -23 -40h-16q0 38 26 52zM600 161q4 16 4 20q0 13 -17 21l-41 20q-39 20 -39 58q0 18 8 40l15 -5
q-7 -23 -7 -35q0 -31 34 -47l40 -19q23 -10 23 -33q0 -8 -4 -24zM267 104.5q-49 38.5 -99 123.5q7 -4 45.5 -27.5t73 -33.5t69.5 -10q57 0 118 8t102 29q1 0 3 2q-15 -32 -50.5 -62.5t-80 -49t-82.5 -18.5q-50 0 -99 38.5zM460.5 117.5q50.5 25.5 71.5 42.5q-38 -10 -33 -8
q-48 -11 -76.5 -15.5t-64.5 -4.5q-30 0 -69.5 11.5t-63.5 30.5q26 -42 69 -62t72 -20q44 0 94.5 25.5z" />
    <glyph glyph-name="uni2113" unicode="&#x2113;" horiz-adv-x="535" 
d="M189.5 9q-56.5 26 -64.5 104v1l-62 -38l-66 135l122 74v222q0 65 27 112.5t74.5 72.5t106.5 25q110 0 153 -58t43 -132q0 -65 -27.5 -115.5t-72 -90t-120.5 -92.5v-38q0 -37 24 -50.5t62 -13.5q42 0 87 5v-137q-56 -12 -141 -12q-89 0 -145.5 26zM371 525q0 24 -7.5 39.5
t-22.5 15.5q-18 0 -28 -17t-10 -43v-111q68 59 68 116z" />
    <glyph glyph-name="estimated" unicode="&#x212e;" horiz-adv-x="506" 
d="M127.5 24q-56.5 36 -84.5 96t-28 130q0 76 29 135t84.5 92.5t132.5 33.5q63 0 115.5 -29.5t83.5 -80.5t31 -114q0 -18 -1 -32h-319v-226q40 -20 94 -20q72 0 125.5 37t70.5 91h21q-17 -63 -75.5 -106t-141.5 -43q-81 0 -137.5 36zM339 277v196q-38 18 -78 18
q-49 0 -90 -19v-195h168z" />
    <glyph glyph-name="at.case" horiz-adv-x="923" 
d="M231.5 -28q-104.5 57 -159 156t-54.5 222q0 128 58 225.5t161 150t236 52.5q126 0 223.5 -46.5t152.5 -136t55 -214.5q0 -134 -60 -202t-158 -68q-64 0 -107 27.5t-58 81.5q-13 -27 -47.5 -48.5t-81.5 -21.5q-51 0 -92.5 25.5t-65.5 71t-24 101.5q0 58 25 103.5t67 71.5
t91 26q44 0 77 -20.5t46 -47.5v59h142v-247q0 -77 50 -77q35 0 55.5 37t20.5 114q0 151 -83.5 227.5t-230.5 76.5q-101 0 -175 -38t-113.5 -110t-39.5 -171q0 -95 37.5 -168t113.5 -114.5t189 -41.5q56 0 116.5 11.5t111.5 39.5l50 -98q-63 -34 -137 -50t-144 -16
q-143 0 -247.5 57zM496 290q22 24 22 59t-22.5 59.5t-56.5 24.5t-56 -24.5t-22 -59.5t22 -59t56 -24q35 0 57 24z" />
    <glyph glyph-name="bar.case" horiz-adv-x="259" 
d="M62 813h136v-926h-136v926z" />
    <glyph glyph-name="brokenbar.case" horiz-adv-x="259" 
d="M62 813h136v-385h-136v385zM62 288h136v-401h-136v401z" />
    <glyph glyph-name="bar.tf" horiz-adv-x="320" 
d="M92 733h136v-926h-136v926z" />
    <glyph glyph-name="plus.dnom" horiz-adv-x="430" 
d="M165 119h-97v96h97v92h100v-92h97v-96h-97v-92h-100v92z" />
    <glyph glyph-name="minus.dnom" horiz-adv-x="430" 
d="M68 217h294v-101h-294v101z" />
    <glyph glyph-name="equal.dnom" horiz-adv-x="431" 
d="M68 286h295v-87h-295v87zM68 139h295v-87h-295v87z" />
    <glyph glyph-name="plus.numr" horiz-adv-x="430" 
d="M165 439h-97v96h97v92h100v-92h97v-96h-97v-92h-100v92z" />
    <glyph glyph-name="minus.numr" horiz-adv-x="430" 
d="M68 537h294v-101h-294v101z" />
    <glyph glyph-name="equal.numr" horiz-adv-x="431" 
d="M68 606h295v-87h-295v87zM68 459h295v-87h-295v87z" />
    <glyph glyph-name="uni0308" unicode="&#x308;" horiz-adv-x="0" 
d="M-445 568.5q-28 27.5 -28 66.5t28 67t68 28q41 0 69 -28t28 -67t-28 -66.5t-69 -27.5q-40 0 -68 27.5zM-209.5 568.5q-27.5 27.5 -27.5 66.5t27.5 67t68.5 28t68.5 -28t27.5 -67t-27.5 -66.5t-68.5 -27.5t-68.5 27.5z" />
    <glyph glyph-name="uni0307" unicode="&#x307;" horiz-adv-x="0" 
d="M-219 568q-30 29 -30 73t30 73t75 29t74.5 -29t29.5 -73t-29.5 -73t-74.5 -29t-75 29z" />
    <glyph glyph-name="gravecomb" unicode="&#x300;" horiz-adv-x="0" 
d="M-378 617l30 96l295 -90l-32 -97z" />
    <glyph glyph-name="acutecomb" unicode="&#x301;" horiz-adv-x="0" 
d="M-345 626l295 90l30 -96l-293 -91z" />
    <glyph glyph-name="uni030B" unicode="&#x30b;" horiz-adv-x="0" 
d="M-440 560l127 154l95 -60l-156 -128zM-245 560l127 154l95 -60l-156 -128z" />
    <glyph glyph-name="uni0302" unicode="&#x302;" horiz-adv-x="0" 
d="M-74 595l-72 -66l-88 71l-87 -70l-72 65l159 123z" />
    <glyph glyph-name="uni030C" unicode="&#x30c;" horiz-adv-x="0" 
d="M-393 652l72 65l87 -70l88 71l72 -66l-160 -123z" />
    <glyph glyph-name="uni0306" unicode="&#x306;" horiz-adv-x="0" 
d="M-392 577q-49 40 -52 112h132q3 -55 58 -55q54 0 57 55h133q-4 -71 -55 -111.5t-135 -40.5q-89 0 -138 40z" />
    <glyph glyph-name="uni030A" unicode="&#x30a;" horiz-adv-x="0" 
d="M-236.5 474q-32.5 30 -32.5 78t32.5 78t82.5 30t82.5 -30t32.5 -78t-32.5 -78t-82.5 -30t-82.5 30zM-121 515.5q13 14.5 13 36.5t-13 36t-33 14t-33 -14t-13 -36t13 -36.5t33 -14.5t33 14.5z" />
    <glyph glyph-name="tildecomb" unicode="&#x303;" horiz-adv-x="0" 
d="M-196 544q-17 7 -41 21q-18 12 -31.5 17.5t-28.5 5.5q-42 0 -80 -35l-37 81q49 61 106 61q23 0 40 -7t41 -21q18 -12 31.5 -17.5t28.5 -5.5q42 0 80 35l37 -81q-49 -61 -106 -61q-23 0 -40 7z" />
    <glyph glyph-name="uni0304" unicode="&#x304;" horiz-adv-x="0" 
d="M-411 674h364v-103h-364v103z" />
    <glyph glyph-name="uni0312" unicode="&#x312;" horiz-adv-x="0" 
d="M-418 675q-38 0 -50 -10q-18 -15 -19 -34q2 6 10.5 10.5t20.5 4.5q26 0 40 -16t14 -41q0 -23 -16 -39.5t-44 -16.5q-33 0 -53 23t-20 59q0 50 30.5 74.5t86.5 24.5v-39z" />
    <glyph glyph-name="uni0326" unicode="&#x326;" horiz-adv-x="0" 
d="M-164 -176q38 0 53 11q9 6 12.5 13.5t5.5 20.5q-9 -14 -33 -14q-27 0 -42.5 15.5t-15.5 40.5q0 26 17.5 42t45.5 16q35 0 57 -20.5t22 -57.5q0 -53 -31 -80.5t-91 -28.5v42z" />
    <glyph glyph-name="uni0327" unicode="&#x327;" horiz-adv-x="0" 
d="M-224 -187.5q-28 19.5 -31 51.5h72q1 -8 9 -13.5t19 -5.5q14 0 22 9t8 25q0 15 -7.5 22.5t-20.5 7.5q-20 0 -26 -13h-66v110h72v-65q14 12 43 12q35 0 56.5 -22t21.5 -55q0 -34 -27 -58.5t-74 -24.5q-43 0 -71 19.5z" />
    <glyph glyph-name="uni0328" unicode="&#x328;" horiz-adv-x="0" 
d="M-213.5 -173q-37.5 28 -37.5 71q0 65 66 102h190q-55 -2 -77.5 -20t-22.5 -42q0 -19 13.5 -31.5t35.5 -12.5q25 0 48 12v-88q-27 -11 -51 -15t-59 -4q-68 0 -105.5 28z" />
    </font>
</defs>
</svg>
