<?xml version="1.0" encoding="UTF-8"?>
<svg width="90px" height="90px" viewBox="0 0 90 90" version="1.1" xmlns="http://www.w3.org/2000/svg" xmlns:xlink="http://www.w3.org/1999/xlink">
    <!-- Generator: Sketch 49 (51002) - http://www.bohemiancoding.com/sketch -->
    <title>chicago-cubs-seeklogo.com copy</title>
    <desc>Created with Sketch.</desc>
    <defs>
        <polygon id="path-1" points="0.0120805369 89.4736842 0.0120805369 0.11409396 89.8852349 0.11409396 89.8852349 89.4736842"></polygon>
    </defs>
    <g id="Info" stroke="none" stroke-width="1" fill="none" fill-rule="evenodd" opacity="0.5">
        <g id="Info_Desktop" transform="translate(-682.000000, -2074.000000)">
            <g id="3.-Select-Clients" transform="translate(0.000000, 1720.000000)">
                <g id="Logos" transform="translate(318.000000, 255.000000)">
                    <g id="chicago-cubs-seeklogo.com-copy" transform="translate(364.000000, 99.000000)">
                        <g id="Group-3">
                            <mask id="mask-2" fill="white">
                                <use xlink:href="#path-1"></use>
                            </mask>
                            <g id="Clip-2"></g>
                            <path d="M0,44.7938891 C0,20.1117626 20.115302,0.11409396 44.9426174,0.11409396 C69.7699329,0.11409396 89.8852349,20.1117626 89.8852349,44.7938891 C89.8852349,69.4760155 69.7699329,89.4736842 44.9426174,89.4736842 C20.115302,89.4736842 0,69.4760155 0,44.7938891" id="Fill-1" fill="#FFFFFE" mask="url(#mask-2)"></path>
                        </g>
                        <path d="M44.9426174,75.5041799 C62.063557,75.5041799 75.9742953,61.674791 75.9742953,44.6539739 C75.9742953,27.6329566 62.063557,13.8035676 44.9426174,13.8035676 C27.8216779,13.8035676 13.9107383,27.6329566 13.9107383,44.6539739 C13.9107383,61.674791 27.7514094,75.5041799 44.9426174,75.5041799 Z M2.92369128,44.6539739 C2.92369128,21.6047922 21.7578523,2.88117273 44.9426174,2.88117273 C68.1271812,2.88117273 86.9615436,21.6047922 86.9615436,44.6539739 C86.9615436,67.7029554 68.1271812,86.4221712 44.9426174,86.4221712 C21.6877852,86.4221712 2.92369128,67.7029554 2.92369128,44.6539739 L2.92369128,44.6539739 Z" id="Fill-4" fill="#595959"></path>
                        <path d="M58.5668456,53.3741552 C55.6431544,57.8442364 50.6496644,60.8206876 44.872349,60.8206876 C35.8846309,60.8206876 28.6051007,53.5891322 28.6051007,44.6539739 C28.6757718,35.7142117 35.955302,28.482256 44.9426174,28.482256 C50.8655034,28.482256 55.9999329,31.6038267 58.8533557,36.2834805 L66.8412081,28.5519133 C61.8477181,21.8848228 53.9299329,17.5592606 44.9426174,17.5592606 C29.8914765,17.5592606 17.693557,29.6860473 17.693557,44.6539739 C17.693557,59.6172966 29.8914765,71.7434829 44.9426174,71.7434829 C53.8598658,71.7434829 61.7069799,67.4883787 66.7004698,60.965607 L58.5668456,53.3741552" id="Fill-5" fill="#595959"></path>
                        <path d="M40.0896644,47.2761333 L40.0896644,37.4872719 L45.0128859,37.4872719 L45.0128859,47.4160485 C45.0128859,50.9619687 44.1589933,51.8160721 41.3055705,51.8160721 L36.2414094,51.8160721 C33.885302,51.8160721 33.1016779,50.3274461 33.1016779,47.1362181 L33.1016779,37.4872719 L38.024698,37.4872719 L38.024698,47.2761333 C38.024698,48.6246438 40.0896644,48.6246438 40.0896644,47.2761333" id="Fill-6" fill="#595959"></path>
                        <path d="M46.7961745,51.8160721 L46.7961745,37.4872719 L54.502953,37.4872719 C57.4266443,37.4872719 58.6375168,38.1964559 58.6375168,41.5326033 C58.6375168,43.3056635 58.2807383,44.2246203 57.285906,44.7240316 C58.6375168,45.5030731 58.6375168,46.9214412 58.6375168,48.1252325 C58.6375168,51.3166608 57.2108054,51.8160721 54.502953,51.8160721 L46.7961745,51.8160721" id="Fill-7" fill="#595959"></path>
                        <path d="M54.000604,41.3878841 C54.000604,40.8234193 53.4328188,40.8234193 51.9356376,40.8234193 L51.9356376,42.8062522 C52.7897315,42.8062522 54.000604,42.8809137 54.000604,42.1717297 L54.000604,41.3878841" id="Fill-8" fill="#FFFFFE"></path>
                        <path d="M53.9299329,47.2062758 C53.6438255,46.4970917 53.5030872,46.6366066 51.8603356,46.6366066 L51.8603356,48.6246438 C52.9304698,48.6246438 53.9299329,48.6945014 53.9299329,47.9853173 C53.9299329,47.7705404 54.000604,47.3457907 53.9299329,47.2062758" id="Fill-9" fill="#FFFFFE"></path>
                        <path d="M68.4136913,51.8160721 C71.0508725,51.8160721 72.4075168,51.106888 72.4075168,48.7643589 L72.4075168,45.5729306 C72.4075168,43.8699282 71.1966443,42.8062522 69.4838255,42.8062522 L65.9871141,42.8062522 C65.0579195,42.8062522 65.2737584,41.4625456 65.2737584,41.033192 C65.2737584,40.3986695 67.2730872,40.1840928 67.2730872,41.2477688 L67.2730872,41.8872954 L72.4777852,41.8872954 C72.4777852,38.5509478 71.8348993,37.4872719 68.4839597,37.4872719 L63.9173154,37.4872719 C61.777047,37.4872719 60.5665772,38.3411751 60.4961074,40.8234193 C60.4210067,43.3056635 60.4961074,42.2417874 60.4961074,43.1607441 C60.4961074,44.0847051 60.3503356,46.1423996 63.2037584,46.1423996 L66.7707383,46.1423996 C67.770604,46.1423996 67.5547651,47.3457907 67.5547651,47.3457907 L67.5547651,48.1252325 C67.5547651,48.9793359 65.8463758,48.9793359 65.4895973,48.3398093 C65.2034899,47.9154598 65.3440268,47.1362181 65.3440268,47.1362181 L60.4961074,47.1362181 C60.4961074,48.1252325 59.9234899,51.8859296 62.917651,51.8859296 C65.4895973,51.8160721 68.4136913,51.8160721 68.4136913,51.8160721" id="Fill-10" fill="#595959"></path>
                        <path d="M70.9808054,56.6356411 L70.4081879,56.6356411 L70.4081879,54.4378312 L69.6241611,56.6356411 L69.0565772,56.6356411 L68.2681208,54.4378312 L68.2681208,56.6356411 L67.7003356,56.6356411 L67.7003356,53.8735665 L68.6997987,53.8735665 L69.3380537,55.6466266 L69.9809396,53.8735665 L70.9808054,53.8735665 L70.9808054,56.6356411 Z M67.1979866,54.3681738 L66.3438926,54.3681738 L66.3438926,56.6356411 L65.7712752,56.6356411 L65.7712752,54.3681738 L64.9171812,54.3681738 L64.9171812,53.8735665 L67.1273154,53.8735665 L67.1273154,54.3681738 L67.1979866,54.3681738 L67.1979866,54.3681738 Z" id="Fill-11" fill="#595959"></path>
                    </g>
                </g>
            </g>
        </g>
    </g>
</svg>