<?xml version="1.0" encoding="UTF-8"?>
<svg width="140px" height="27px" viewBox="0 0 140 27" version="1.1" xmlns="http://www.w3.org/2000/svg" xmlns:xlink="http://www.w3.org/1999/xlink">
    <!-- Generator: Sketch 49 (51002) - http://www.bohemiancoding.com/sketch -->
    <title>FB Logo Copy</title>
    <desc>Created with Sketch.</desc>
    <defs></defs>
    <g id="Info" stroke="none" stroke-width="1" fill="none" fill-rule="evenodd" opacity="0.600000024">
        <g id="Info_Desktop" transform="translate(-657.000000, -1983.000000)" fill="#595959">
            <g id="3.-Select-Clients" transform="translate(0.000000, 1720.000000)">
                <g id="Logos" transform="translate(318.000000, 255.000000)">
                    <g id="FB-Logo-Copy" transform="translate(339.000000, 8.000000)">
                        <path d="M10.9406697,4.2001827 C9.29486952,4.2001827 8.82016493,4.92221403 8.82016493,6.51358266 L8.82016493,9.15175172 L13.2083743,9.15175172 L12.7703219,13.417246 L8.82016493,13.417246 L8.82016493,26.3621947 L3.55230369,26.3621947 L3.55230369,13.417246 L0,13.417246 L0,9.15175172 L3.55230369,9.15175172 L3.55230369,6.58259609 C3.55230369,2.28404496 5.30806038,0.00312191927 10.2111735,0.00312191927 C11.2717215,0.00312191927 12.5161214,0.0790946929 13.2822698,0.184064708 L13.2822698,4.2001827 L10.9406697,4.2001827 Z" id="Fill-20"></path>
                        <path d="M18.8419887,18.369453 C18.8419887,20.9357089 19.791989,22.6355272 22.2435456,22.6355272 C24.4007025,22.6355272 25.4979027,21.0830148 25.4979027,18.6223089 L25.4979027,16.8859541 C25.4979027,14.4287278 24.4007025,12.8767954 22.2435456,12.8767954 C19.791989,12.8767954 18.8419887,14.5725541 18.8419887,17.13881 L18.8419887,18.369453 Z M13.5741274,17.2113031 C13.5741274,12.4041404 15.8784842,8.7881843 20.708293,8.7881843 C23.3407457,8.7881843 24.9528496,10.1301767 25.718998,11.7905587 L25.718998,9.15238966 L30.7663551,9.15238966 L30.7663551,26.359353 L25.718998,26.359353 L25.718998,23.7542408 C24.9900929,25.4175226 23.3407457,26.7206586 20.708293,26.7206586 C15.8784842,26.7206586 13.5741274,23.1076023 13.5741274,18.2975398 L13.5741274,17.2113031 Z" id="Fill-22"></path>
                        <path d="M41.7412532,8.79044609 C43.7914095,8.79044609 45.7280623,9.22656461 46.7886103,9.94859593 L45.6175147,13.6335654 C44.8117583,13.2368832 43.4940541,12.8396209 42.1054101,12.8396209 C39.2524533,12.8396209 38.0086445,14.4669462 38.0086445,17.2495215 L38.0086445,18.263845 C38.0086445,21.0464203 39.2524533,22.6708458 42.1054101,22.6708458 C43.4940541,22.6708458 44.8117583,22.2735836 45.6175147,21.8763214 L46.7886103,25.5647706 C45.7280623,26.2868019 43.7914095,26.7229204 41.7412532,26.7229204 C35.557088,26.7229204 32.7401921,23.4317334 32.7401921,18.1519156 L32.7401921,17.3579712 C32.7401921,12.0781534 35.557088,8.79044609 41.7412532,8.79044609" id="Fill-24"></path>
                        <path d="M52.7504979,16.1638068 L59.1120123,16.1638068 L59.1120123,15.730588 C59.1120123,13.8538865 58.3464551,12.3703876 56.0450542,12.3703876 C53.663255,12.3703876 52.7504979,13.8538865 52.7504979,16.1638068 M47.4826367,18.4081933 L47.4826367,16.8852581 C47.4826367,12.0061822 50.2989414,8.79096804 56.0450542,8.79096804 C61.4571594,8.79096804 63.8318647,12.0427187 63.8318647,16.8168246 L63.8318647,19.5599637 L52.7504979,19.5599637 C52.8610456,21.9127999 53.9210024,22.9625001 56.8478547,22.9625001 C58.8247067,22.9625001 60.9050124,22.5623381 62.4438119,21.9127999 L63.3932211,25.4927994 C62.0057595,26.2142508 59.1528027,26.7564992 56.6267594,26.7564992 C49.9708454,26.7564992 47.4826367,23.468212 47.4826367,18.4081933" id="Fill-26"></path>
                        <path d="M78.1009643,17.1059271 C78.1009643,14.6811778 77.147417,12.8729098 74.6261031,12.8729098 C72.464808,12.8729098 71.2943036,14.395265 71.2943036,16.8501715 L71.2943036,18.6578595 C71.2943036,21.1191454 72.464808,22.6351212 74.6261031,22.6351212 C77.147417,22.6351212 78.1009643,20.8268532 78.1009643,18.4050036 L78.1009643,17.1059271 Z M83.3688256,18.3006135 C83.3688256,23.1071963 81.0278167,26.7237323 76.1980079,26.7237323 C73.5655551,26.7237323 71.735903,25.4176965 71.0034509,23.7573145 L71.0034509,26.359527 L66.0299893,26.359527 L66.0299893,0.515445188 L71.2943036,0.0398904219 L71.2943036,11.5407765 C72.0634077,10.021321 73.7494071,8.79125801 76.1980079,8.79125801 C81.0278167,8.79125801 83.3688256,12.4043143 83.3688256,17.2143768 L83.3688256,18.3006135 Z" id="Fill-28"></path>
                        <path d="M97.1949071,16.960651 C97.1949071,14.6803079 96.2413597,12.8755195 93.7933501,12.8755195 C91.3417936,12.8755195 90.3882463,14.6803079 90.3882463,16.960651 L90.3882463,18.5485399 C90.3882463,20.828883 91.3417936,22.637151 93.7933501,22.637151 C96.2413597,22.637151 97.1949071,20.828883 97.1949071,18.5485399 L97.1949071,16.960651 Z M85.123932,18.1912939 L85.123932,17.3248563 C85.123932,12.3703876 87.9768888,8.78980815 93.7933501,8.78980815 C99.6068556,8.78980815 102.462768,12.3703876 102.462768,17.3248563 L102.462768,18.1912939 C102.462768,23.1393833 99.6068556,26.7222825 93.7933501,26.7222825 C87.9768888,26.7222825 85.123932,23.1393833 85.123932,18.1912939 L85.123932,18.1912939 Z" id="Fill-30"></path>
                        <path d="M116.288791,16.960651 C116.288791,14.6803079 115.335243,12.8755195 112.886643,12.8755195 C110.435086,12.8755195 109.485086,14.6803079 109.485086,16.960651 L109.485086,18.5485399 C109.485086,20.828883 110.435086,22.637151 112.886643,22.637151 C115.335243,22.637151 116.288791,20.828883 116.288791,18.5485399 L116.288791,16.960651 Z M104.217224,18.1912939 L104.217224,17.3248563 C104.217224,12.3703876 107.070772,8.78980815 112.886643,8.78980815 C118.703695,8.78980815 121.556652,12.3703876 121.556652,17.3248563 L121.556652,18.1912939 C121.556652,23.1393833 118.703695,26.7222825 112.886643,26.7222825 C107.070772,26.7222825 104.217224,23.1393833 104.217224,18.1912939 L104.217224,18.1912939 Z" id="Fill-32"></path>
                        <polygon id="Fill-34" points="123.529366 0.513241398 123.529366 26.3602229 128.797227 26.3602229 128.797227 17.9342044 134.209332 26.3602229 139.808245 26.3602229 134.138984 17.6482916 139.587741 9.15325958 133.991784 9.15325958 128.797227 17.359479 128.797227 0.0440660248"></polygon>
                    </g>
                </g>
            </g>
        </g>
    </g>
</svg>