<?xml version="1.0" encoding="UTF-8"?>
<svg width="129px" height="41px" viewBox="0 0 129 41" version="1.1" xmlns="http://www.w3.org/2000/svg" xmlns:xlink="http://www.w3.org/1999/xlink">
    <!-- Generator: Sketch 49 (51002) - http://www.bohemiancoding.com/sketch -->
    <title>Google Logo</title>
    <desc>Created with Sketch.</desc>
    <defs></defs>
    <g id="Info" stroke="none" stroke-width="1" fill="none" fill-rule="evenodd" opacity="0.6">
        <g id="Info_Desktop" transform="translate(-328.000000, -1978.000000)">
            <g id="3.-Select-Clients" transform="translate(0.000000, 1720.000000)">
                <g id="Logos" transform="translate(318.000000, 255.000000)">
                    <g id="Google-Logo" transform="translate(10.000000, 3.000000)">
                        <path d="M0,16.2132353 C0,7.28823529 7.55031529,0 16.5609796,0 C21.5323806,0 25.0745038,1.94558824 27.7466319,4.47794118 L24.608435,7.59705882 C22.7130884,5.80588235 20.1031028,4.44705882 16.5609796,4.44705882 C10.0049445,4.44705882 4.87818724,9.69705882 4.87818724,16.2132353 C4.87818724,22.7294118 10.0049445,27.9794118 16.5609796,27.9794118 C20.8177417,27.9794118 23.2412997,26.2808824 24.7948625,24.7367647 C26.0687841,23.4705882 26.907708,21.6485294 27.2184205,19.1779412 L16.5609796,19.1779412 L16.5609796,14.7617647 L31.5683964,14.7617647 C31.7237527,15.5647059 31.8169665,16.4911765 31.8169665,17.5411765 C31.8169665,20.8764706 30.9159,24.9838235 27.9641307,27.8867647 C25.1055751,30.8514706 21.4391669,32.4264706 16.5920509,32.4264706 C7.55031529,32.3955882 0,25.1382353 0,16.2132353 Z" id="XMLID_31_" fill="#595959" fill-rule="nonzero"></path>
                        <path d="M43.9115343,10.5 C38.1012093,10.5 33.3783784,14.8852941 33.3783784,20.9382353 C33.3783784,26.9602941 38.1012093,31.3764706 43.9115343,31.3764706 C49.7218592,31.3764706 54.4446902,26.9602941 54.4446902,20.9382353 C54.4446902,14.8852941 49.7218592,10.5 43.9115343,10.5 Z M43.9115343,27.2382353 C40.7422661,27.2382353 37.9769243,24.6441176 37.9769243,20.9073529 C37.9769243,17.1397059 40.7111949,14.5764706 43.9115343,14.5764706 C47.0808024,14.5764706 49.8461442,17.1397059 49.8461442,20.9073529 C49.8461442,24.6441176 47.0808024,27.2382353 43.9115343,27.2382353 Z" id="XMLID_28_" fill="#595959" fill-rule="nonzero"></path>
                        <path d="M66.7493721,10.5 C60.9390472,10.5 56.2162162,14.8852941 56.2162162,20.9382353 C56.2162162,26.9602941 60.9390472,31.3764706 66.7493721,31.3764706 C72.559697,31.3764706 77.282528,26.9602941 77.282528,20.9382353 C77.282528,14.8852941 72.559697,10.5 66.7493721,10.5 Z M66.7493721,27.2382353 C63.580104,27.2382353 60.8147622,24.6441176 60.8147622,20.9073529 C60.8147622,17.1397059 63.5490327,14.5764706 66.7493721,14.5764706 C69.9497115,14.5764706 72.6839821,17.1397059 72.6839821,20.9073529 C72.6839821,24.6441176 69.9186403,27.2382353 66.7493721,27.2382353 Z" id="XMLID_18_" fill="#595959" fill-rule="nonzero"></path>
                        <path d="M94.807181,11.1485294 L94.807181,12.8470588 L94.6518247,12.8470588 C93.6264733,11.6117647 91.6379129,10.5 89.1211411,10.5 C83.8700988,10.5 79.0540541,15.0705882 79.0540541,20.9691176 C79.0540541,26.8058824 83.8700988,31.3764706 89.1211411,31.3764706 C91.6379129,31.3764706 93.6264733,30.2647059 94.6518247,28.9985294 L94.807181,28.9985294 L94.807181,30.5117647 C94.807181,34.4955882 92.6632643,36.6264706 89.2143549,36.6264706 C86.3868705,36.6264706 84.6468802,34.6191176 83.9322413,32.9205882 L79.9240492,34.5882353 C81.0736857,37.3676471 84.1497401,40.7647059 89.2454261,40.7647059 C94.6518247,40.7647059 99.2192994,37.6147059 99.2192994,29.8941176 L99.2192994,11.1485294 L94.807181,11.1485294 Z M89.5250674,27.2691176 C86.3557993,27.2691176 83.6836712,24.6132353 83.6836712,20.9691176 C83.6836712,17.2941176 86.3557993,14.6073529 89.5250674,14.6073529 C92.6632643,14.6073529 95.1178936,17.2941176 95.1178936,20.9691176 C95.1489648,24.6441176 92.6632643,27.2691176 89.5250674,27.2691176 Z" id="XMLID_10_" fill="#595959" fill-rule="nonzero"></path>
                        <rect id="XMLID_8_" fill="#595959" fill-rule="nonzero" x="103.648649" y="0" width="4.59854594" height="30.6661765"></rect>
                        <path d="M119.32779,27.2382353 C116.966374,27.2382353 115.319598,26.1573529 114.232104,24.0882353 L128.276312,18.3132353 L127.810243,17.1397059 C126.940248,14.7926471 124.26812,10.5 118.83065,10.5 C113.424251,10.5 108.918919,14.7308824 108.918919,20.9382353 C108.918919,26.775 113.362109,31.3764706 119.32779,31.3764706 C124.143835,31.3764706 126.909176,28.4426471 128.089884,26.7441176 L124.51669,24.3661765 C123.304911,26.0955882 121.689205,27.2382353 119.32779,27.2382353 Z M118.986006,14.5147059 C120.81921,14.5147059 122.372773,15.4102941 122.869913,16.7382353 L113.486394,20.5985294 C113.362109,16.5838235 116.62459,14.5147059 118.986006,14.5147059 Z" id="XMLID_3_" fill="#595959" fill-rule="nonzero"></path>
                        <rect id="XMLID_2_" x="0" y="0" width="129.256426" height="42"></rect>
                    </g>
                </g>
            </g>
        </g>
    </g>
</svg>