<?xml version="1.0" encoding="UTF-8"?>
<svg width="98px" height="65px" viewBox="0 0 98 65" version="1.1" xmlns="http://www.w3.org/2000/svg" xmlns:xlink="http://www.w3.org/1999/xlink">
    <!-- Generator: Sketch 49 (51002) - http://www.bohemiancoding.com/sketch -->
    <title>Intel Logo Copy</title>
    <desc>Created with Sketch.</desc>
    <defs></defs>
    <g id="Info" stroke="none" stroke-width="1" fill="none" fill-rule="evenodd" opacity="0.5">
        <g id="Info_Desktop" transform="translate(-997.000000, -2086.000000)" fill="#595959">
            <g id="3.-Select-Clients" transform="translate(0.000000, 1720.000000)">
                <g id="Logos" transform="translate(318.000000, 255.000000)">
                    <g id="Intel-Logo-Copy" transform="translate(679.000000, 111.000000)">
                        <g id="Group-3" transform="translate(0.000000, 0.105965)">
                            <path d="M97.4935979,18.479726 C92.9035874,-4.01473101 49.3926189,-5.44077268 21.3446751,11.6972695 L21.3446751,13.5901444 C49.3604681,-0.867705717 89.09964,-0.779861688 92.7177312,19.9416646 C93.9315558,26.7962602 90.0849698,33.9375138 83.2129347,38.0494428 L83.2129347,43.4260496 C91.4796646,40.3824007 99.9588996,30.5380017 97.4935979,18.479726 M46.5169207,57.852835 C27.1662189,59.6445771 6.99713123,56.8223503 4.17198035,41.6422463 C2.79000842,34.1591086 6.19095228,26.2238071 10.6960295,21.2914252 L10.6960295,18.6576576 C2.58025404,25.8025354 -1.81788281,34.8428768 0.715331228,45.5218804 C3.95156632,59.219336 21.2569909,66.9760156 47.6789944,64.4002354 C58.1373137,63.3830395 71.814847,60.0073436 81.3296154,54.7612084 L81.3296154,47.3137951 C72.6940961,52.4786443 58.4136049,56.7450338 46.5169207,57.852835" id="Fill-1"></path>
                        </g>
                        <path d="M79.7651744,15.3100062 L74.6915253,15.3100062 L74.6915253,37.9927497 C74.6915253,40.6510239 75.9718867,42.9625817 79.7651744,43.3320789 L79.7651744,15.3100062 Z" id="Fill-4"></path>
                        <path d="M19.3525758,23.5919033 L14.2696425,23.5919033 L14.2668916,38.4113118 C14.2668916,41.0789055 15.5512074,43.3880471 19.3525758,43.7508136 L19.3525758,23.5919033 Z" id="Fill-6"></path>
                        <polygon id="Fill-8" points="14.2694877 20.8274914 19.3366035 20.8274914 19.3366035 15.9998666 14.2694877 15.9998666"></polygon>
                        <path d="M49.7377337,43.5159646 C45.6311898,43.5159646 43.8931512,40.6509376 43.8931512,37.8285383 L43.8931512,18.151821 L48.9226144,18.151821 L48.9226144,23.5919378 L52.7104004,23.5919378 L52.7104004,27.6696956 L48.9226144,27.6696956 L48.9226144,37.5165108 C48.9226144,38.6672849 49.4669442,39.3084255 50.6623723,39.3084255 L52.7104004,39.3084255 L52.7104004,43.5159646 L49.7377337,43.5159646" id="Fill-10"></path>
                        <path d="M63.0807604,27.4295656 C61.359227,27.4295656 60.0365709,28.3195689 59.4759077,29.5200464 C59.149413,30.24161 59.0299218,30.8038808 58.992613,31.6906051 L66.7438972,31.6906051 C66.6455533,29.5200464 65.6652095,27.4295656 63.0807604,27.4295656 M58.992613,35.1329174 C58.992613,37.7166364 60.60222,39.6152065 63.4498937,39.6152065 C65.6811989,39.6152065 66.781034,38.9937402 68.0693042,37.7166364 L71.1772796,40.6883188 C69.1847849,42.6642054 67.0968691,43.8653733 63.4127568,43.8653733 C58.5995814,43.8653733 53.9877358,41.2284992 53.9877358,33.5410249 C53.9877358,26.9689453 58.0177709,23.253954 63.3010025,23.253954 C68.6722621,23.253954 71.7589182,27.6028375 71.7589182,33.3116639 L71.7589182,35.1329174 L58.992613,35.1329174" id="Fill-11"></path>
                        <path d="M33.0127614,27.6696439 C34.4875754,27.6696439 35.1006772,28.4015624 35.1006772,29.5894415 L35.1006772,43.5454243 L40.1311719,43.5454243 L40.1311719,29.5601026 C40.1311719,26.7263129 38.6269579,23.5972361 34.209393,23.5972361 L23.8177825,23.5918861 L23.8177825,43.5454243 L28.8503404,43.5454243 L28.8503404,27.6696439 L33.0127614,27.6696439 Z" id="Fill-12"></path>
                        <path d="M85.63044,16.8145207 C85.63044,16.5699726 85.4789698,16.4926561 85.1548821,16.4926561 L84.9210575,16.4926561 L84.8333733,16.4926561 L84.8333733,17.1871244 C84.8839207,17.1871244 85.1124154,17.1978244 85.1548821,17.1978244 C85.4789698,17.1978244 85.63044,17.0892706 85.63044,16.857321 L85.63044,16.8145207 Z M86.1192365,18.5510367 L85.7418505,18.5510367 C85.7074646,18.5510367 85.6782365,18.5298092 85.6649979,18.5004703 L85.1548821,17.6297962 C85.1390646,17.6111574 85.0965979,17.5897572 85.0831874,17.5897572 L84.9344681,17.5897572 L84.8495347,17.5897572 L84.8495347,18.4576701 C84.8495347,18.5004703 84.8201347,18.5510367 84.7646014,18.5510367 L84.4243523,18.5510367 C84.3738049,18.5510367 84.3394189,18.5004703 84.3394189,18.4576701 L84.3394189,16.2686452 C84.3394189,16.1405896 84.3818856,16.0879522 84.4934681,16.0719022 C84.6157102,16.0586134 84.9344681,16.0425633 85.1124154,16.0425633 C85.7418505,16.0425633 86.1113277,16.2287788 86.1113277,16.8145207 L86.1113277,16.857321 C86.1113277,17.2192246 85.9333804,17.4164853 85.6570891,17.5045019 L86.1883523,18.4122811 C86.1962611,18.4257425 86.2015909,18.4576701 86.2015909,18.4764814 C86.2015909,18.5111703 86.1830225,18.5510367 86.1192365,18.5510367 L86.1192365,18.5510367 Z M85.2241698,15.6478692 C84.3022821,15.6478692 83.5610926,16.4125782 83.5610926,17.3364075 C83.5610926,18.2657593 84.3022821,19.017007 85.2241698,19.017007 C86.1457137,19.017007 86.9108014,18.2657593 86.9108014,17.3364075 C86.9108014,16.4125782 86.1457137,15.6478692 85.2241698,15.6478692 L85.2241698,15.6478692 Z M85.2241698,19.3630331 C84.1057663,19.3630331 83.2129347,18.4576701 83.2129347,17.3364075 C83.2129347,16.2206675 84.1057663,15.3099544 85.2241698,15.3099544 C86.3368996,15.3099544 87.2508786,16.2206675 87.2508786,17.3364075 C87.2508786,18.4576701 86.3368996,19.3630331 85.2241698,19.3630331 L85.2241698,19.3630331 Z" id="Fill-13"></path>
                    </g>
                </g>
            </g>
        </g>
    </g>
</svg>