<?xml version="1.0" encoding="UTF-8"?>
<svg width="150px" height="33px" viewBox="0 0 150 33" version="1.1" xmlns="http://www.w3.org/2000/svg" xmlns:xlink="http://www.w3.org/1999/xlink">
    <!-- Generator: Sketch 49 (51002) - http://www.bohemiancoding.com/sketch -->
    <title>PointDrive</title>
    <desc>Created with Sketch.</desc>
    <defs>
        <polygon id="path-1" points="0 32.7665784 149.072143 32.7665784 149.072143 0 0 0"></polygon>
    </defs>
    <g id="Info" stroke="none" stroke-width="1" fill="none" fill-rule="evenodd" opacity="0.599999964">
        <g id="Info_Desktop" transform="translate(-318.000000, -2103.000000)">
            <g id="3.-Select-Clients" transform="translate(0.000000, 1720.000000)">
                <g id="Logos" transform="translate(318.000000, 255.000000)">
                    <g id="PointDrive" transform="translate(0.000000, 128.000000)">
                        <path d="M40.0566429,12.4282289 C41.9187857,12.4282289 43.1284286,11.298273 43.1284286,9.39535857 C43.1284286,7.51066924 41.9187857,6.42037968 40.0759286,6.42037968 L36.7877143,6.42037968 L36.7877143,12.4282289 L40.0566429,12.4282289 Z M35.4195,5.1917938 L40.2355714,5.1917938 C42.732,5.1917938 44.5352143,6.81811559 44.5352143,9.39535857 C44.5352143,11.9918987 42.732,13.6568148 40.2355714,13.6568148 L36.7877143,13.6568148 L36.7877143,19.1297039 L35.4195,19.1297039 L35.4195,5.1917938 Z" id="Fill-1" fill="#221E1F"></path>
                        <path d="M53.4154286,18.0983779 C56.5461429,18.0983779 59.0832857,15.4814685 59.0832857,12.0712315 C59.0832857,8.74032718 56.5461429,6.22311981 53.4154286,6.22311981 C50.2654286,6.22311981 47.7486429,8.74032718 47.7486429,12.0712315 C47.7486429,15.4814685 50.2654286,18.0983779 53.4154286,18.0983779 M53.4154286,4.95379549 C57.3593571,4.95379549 60.5093571,8.0670707 60.5093571,12.0712315 C60.5093571,16.1557971 57.3593571,19.3677022 53.4154286,19.3677022 C49.4725714,19.3677022 46.3215,16.1557971 46.3215,12.0712315 C46.3215,8.0670707 49.4725714,4.95379549 53.4154286,4.95379549" id="Fill-3" fill="#221E1F"></path>
                        <mask id="mask-2" fill="white">
                            <use xlink:href="#path-1"></use>
                        </mask>
                        <g id="Clip-6"></g>
                        <polygon id="Fill-5" fill="#221E1F" mask="url(#mask-2)" points="63.6053571 19.1298111 64.9725 19.1298111 64.9725 5.191901 63.6053571 5.191901"></polygon>
                        <path d="M69.0166071,5.1917938 L70.3441071,5.1917938 L77.4573214,15.223101 C77.9330357,15.9177988 78.6069643,17.1077903 78.6069643,17.1077903 L78.6466071,17.1077903 C78.6466071,17.1077903 78.5276786,15.9574652 78.5276786,15.223101 L78.5276786,5.1917938 L79.8948214,5.1917938 L79.8948214,19.1297039 L78.5673214,19.1297039 L71.4541071,9.09732465 C70.9783929,8.40369894 70.3044643,7.21370738 70.3044643,7.21370738 L70.2648214,7.21370738 C70.2648214,7.21370738 70.38375,8.36403255 70.38375,9.09732465 L70.38375,19.1297039 L69.0166071,19.1297039 L69.0166071,5.1917938 Z" id="Fill-7" fill="#221E1F" mask="url(#mask-2)"></path>
                        <polygon id="Fill-8" fill="#221E1F" mask="url(#mask-2)" points="87.0723214 6.42091571 82.0591071 6.42091571 82.0591071 5.19232983 93.4323214 5.19232983 93.4323214 6.42091571 88.4394643 6.42091571 88.4394643 19.1291679 87.0723214 19.1291679"></polygon>
                        <path d="M100.451571,17.900582 C103.879071,17.900582 106.158,15.8775964 106.158,12.1511003 C106.158,8.44390136 103.859786,6.42091571 100.451571,6.42091571 L97.4590714,6.42091571 L97.4590714,17.900582 L100.451571,17.900582 Z M96.0919286,5.19232983 L100.589786,5.19232983 C104.7705,5.19232983 107.585143,7.74920358 107.585143,12.1511003 C107.585143,16.5915913 104.7705,19.1291679 100.589786,19.1291679 L96.0919286,19.1291679 L96.0919286,5.19232983 Z" id="Fill-9" fill="#221E1F" mask="url(#mask-2)"></path>
                        <path d="M115.436464,12.0318867 C117.12075,12.0318867 118.190036,10.9415972 118.190036,9.1962762 C118.190036,8.04702309 117.734679,7.19365978 116.922536,6.7584016 C116.50575,6.54077252 116.01075,6.4207013 114.940393,6.4207013 L112.127893,6.4207013 L112.127893,12.0318867 L115.436464,12.0318867 Z M110.759679,5.19211542 L114.881464,5.19211542 C116.307536,5.19211542 116.941821,5.33041173 117.496821,5.56841005 C118.805036,6.1430366 119.596821,7.47239654 119.596821,9.15660981 C119.596821,11.0402271 118.527536,12.4875141 116.962179,12.9238443 L116.962179,12.9635107 C116.962179,12.9635107 117.100393,13.1425455 117.318964,13.5188401 L120.350036,19.1300255 L118.784679,19.1300255 L115.634679,13.2604726 L112.127893,13.2604726 L112.127893,19.1300255 L110.759679,19.1300255 L110.759679,5.19211542 Z" id="Fill-10" fill="#221E1F" mask="url(#mask-2)"></path>
                        <polygon id="Fill-11" fill="#221E1F" mask="url(#mask-2)" points="123.207857 19.1298111 124.575 19.1298111 124.575 5.191901 123.207857 5.191901"></polygon>
                        <path d="M126.8355,5.1917938 L128.301214,5.1917938 L132.165857,15.7795025 C132.423,16.4924253 132.7005,17.583787 132.7005,17.583787 L132.740143,17.583787 C132.740143,17.583787 133.017643,16.4924253 133.274786,15.7795025 L137.138357,5.1917938 L138.605143,5.1917938 L133.433357,19.1297039 L132.007286,19.1297039 L126.8355,5.1917938 Z" id="Fill-12" fill="#221E1F" mask="url(#mask-2)"></path>
                        <polygon id="Fill-13" fill="#221E1F" mask="url(#mask-2)" points="140.868214 5.1917938 148.715357 5.1917938 148.715357 6.42037968 142.235357 6.42037968 142.235357 11.4966049 147.526071 11.4966049 147.526071 12.7251908 142.235357 12.7251908 142.235357 17.900046 149.072143 17.900046 149.072143 19.1297039 140.868214 19.1297039"></polygon>
                        <path d="M8.62103571,14.9549777 C8.62103571,13.1485491 10.0899643,11.6798207 11.89425,11.6798207 L13.1488929,11.6798207 C14.1088929,11.6798207 14.8899643,10.8982857 14.8899643,9.93771598 L14.8899643,-0.00032161934 L2.80853571,-0.00032161934 L2.09817857,-0.00032161934 C0.939964286,-0.00032161934 0.000321428571,0.939878918 0.000321428571,2.09878061 L0.000321428571,2.56298452 L0.000321428571,22.2300072 L0.000321428571,22.5827164 L0.000321428571,23.0940911 L0.000321428571,32.7662567 L8.62103571,25.3261293 L8.62103571,14.9549777 Z" id="Fill-14" fill="#595959" mask="url(#mask-2)"></path>
                        <path d="M23.0807143,0 L22.4646429,0 L16.4228571,0 L16.4228571,9.9380376 C16.4228571,11.7444662 14.9539286,13.2131945 13.1485714,13.2131945 L11.8939286,13.2131945 C10.935,13.2131945 10.1539286,13.9947295 10.1539286,14.9552993 L10.1539286,25.1924429 L22.4646429,25.1924429 L23.0807143,25.1924429 C24.2389286,25.1924429 25.1785714,24.2533144 25.1785714,23.0944127 L25.1785714,22.2303288 L25.1785714,2.56330614 L25.1785714,2.09910223 C25.1785714,0.939128473 24.2389286,0 23.0807143,0" id="Fill-15" fill="#595959" mask="url(#mask-2)"></path>
                    </g>
                </g>
            </g>
        </g>
    </g>
</svg>